<svg fill="none" height="378" viewBox="0 0 634 378" width="634" xmlns="http://www.w3.org/2000/svg"><path d="m2.58486 348.621c4.36032-21.277 14.78974-49 28.61944-76.06l.7785-1.528c7.5859-14.837 7.5858-14.837 19.1555-32.665l1.333-2.059c12.9688-19.779 14.0173-23.366 11.2237-38.32-4.4722-23.351-4.1567-36.859 1.2465-53.535 5.0116-15.393 11.2491-25.889 23.0122-38.748 9.1632-9.9206 38.6373-30.1739 45.9023-27.3409 3.704 1.4827 3.546 4.4685 3.007 14.404-.855 12.5649-4.167 26.7179-9.845 42.0759-7.693 20.447-17.549 36.955-31.0306 51.955-5.4287 5.997-9.3361 10.888-12.0834 14.674 17.441-15.566 54.363-41.443 76.862-53.754 8.191-4.453 8.624-4.84 11.539-10.297 3.21-5.844 4.309-10.374 8.395-34.606 2.844-17.2107 11.931-37.7491 23.159-52.337 6.162-7.984 17.813-19.2848 26.533-25.7205 14.287-10.4094 38.57-19.92661 59.023-23.14184 13-2.160268 37.844-2.155184 49.199.00509 18.534 3.21498 21.547 6.65939 22.025 9.85405.702 3.9079-2.559 6.2211-9.993 11.0819-5.067 3.3475-13.035 9.7521-17.762 14.2866-13.192 12.6003-34.551 32.104-40.804 37.2653-8.695 7.2045-16.331 11.6729-42.992 25.1858-23.831 12.0246-39.782 21.7146-50.802 30.9166 17.354-7.275 53.88-18.648 71.362-22.367 25.836-5.492 46.176-7.535 75.629-6.776 18.316.474 41.975 1.279 72.985 6.639 19.334 3.347 46.416 10.154 60.453 14.639.066.02 12.343 4.132 15.278 3.133 1.211-.474 3.78-1.992 3.241-6.506-.59-4.601-3.867-5.666-11.778-8.239-21.684-7.098-67.521-18.0578-108.213-21.7673 12.73-9.9559 31.662-17.6036 50.501-19.7493 15.325-1.875 43.465-1.6151 56.791.535 21.344 3.317 44.208 10.4603 61.176 19.1062 30.665 15.5714 68.141 54.3144 85.339 88.2174 1.984 4.071 4.004 9.472 2.325 12.162-.641 1.024-1.705 1.646-2.661 1.646h-.031c-.503.066-5.688 1.049-13.019 2.583-53.814 11.24-101.802 9.742-155.555-4.881-29.474-7.938-56.821-22.704-75.021-40.486-10.399-10.094-22.208-25.771-24.782-32.9l-.443-1.263-30.023.489c-25.673.407-33.829.912-43.623 2.68-28.801 5.324-68.513 17.247-89.083 26.718 13.452 1.147 32.328 5.982 51.341 11.184 8.095 2.211 27.566 8.402 40.209 13.34 17.186 6.71 40.524 17.261 54.043 24.36 12.16 4.122 14.917-7.093 5.21-12.076-24.107-12.498-68.834-31.819-107.277-41.392 25.043-5.375 60.662-3.286 68.655-1.722 43.471 8.774 87.678 33.077 116.007 75.463 7.82 11.714 10.735 23.198 9.962 25.149-1.094 2.747-10.786 8.27-29.164 11.989-15.441 3.118-52.74 6.93-70.094 3.888-33.341-5.778-57.39-12.723-81.725-39.66-14.119-15.765-20.662-24.157-31.86-40.802-6.528-9.573-10.344-13.971-10.797-14.369-4.187-1.579-22.305-3.148-31.793-2.761-11.997.591-15.707 2.359-44.106 20.976-21.363 14.084-28.121 19.143-45.1949 33.858l-4.9758 4.234s33.8237 4.779 48.2827 9.018c6.909 2.033 23.653 7.143 34.5 11.505 6.431 2.583 13.874 5.859 21.181 9.253 10.379 2.746 11.3-8.932 4.259-12.285-25.318-11.556-57.884-23.723-83.65-27.091-.167-.021-.305-.036-.468-.056 23.349-7.327 57.416-9.304 80.413-1.595 46.716 15.668 68.532 50.401 75.432 60.489 7.652 11.184 16.163 27.728 16.163 31.468 0 6.354-42.223 17.766-85.368 11.989-27.926-3.74-52.435-17.523-68.787-31.89-25.347-22.271-37.029-47.492-37.029-47.492h-4.2891c-13.4364 0-17.3295 2.858-29.789 21.818-22.9106 34.774-46.2484 93.628-46.2484 116.603 0 4.585-1.3738 8.172-3.77011 9.833-.89546.622-1.92322.948-2.98149.948-.6207 0-1.24142-.117-1.852-.341-2.971218-1.137-5.78991-5.452-.99212-29.038zm535.00614-205.175c5.836 2.354 16.093 6.303 19.11 6.303l1.074-.169c2.254-.861 3.602-3.347 3.449-6.333-.147-2.965-1.719-5.278-4.019-5.91-.992-.265-8.481-3.419-13.436-5.508l-1.109-.469c-12.934-5.655-18.098-6.792-21.181-4.754-1.064.704-2.336 2.11-2.336 4.851 0 4.596 2.458 5.584 18.448 11.989z" fill="#f8e868"/></svg>