<svg fill="none" height="433" viewBox="0 0 484 433" width="484" xmlns="http://www.w3.org/2000/svg"><path d="m483.708 307.401c-3.501-20.408-32.702-13.574-58.771-6.649 16.304-21.33 32.793-45.893 15.936-57.898-16.489-11.635-31.688 12.005-45.045 34.721-3.592-27.149-9.58-56.606-29.293-53.189-20.727 3.509-14.003 34.166-7.278 60.945-7.922-6.095-16.305-12.281-24.319-16.991 14.278-11.358 10.686-40.445 4.882-68.701 27.083 21.054 56.837 40.261 72.129 18.468 15.844-22.439-14.647-45.432-44.493-64.824 35.833-4.801 74.523-12.65 69.825-40.168-4.79-27.7947-44.401-18.4681-79.866-9.049 22.2-28.9955 44.492-62.4232 21.647-78.5829-22.292-15.7904-43.111 16.252-61.166 47.1863-4.79-36.9365-12.988-76.92111-39.794-72.30404-28.096 4.80176-18.977 46.35614-9.857 82.73874-29.938-23.2701-65.219-47.3715-81.339-24.5632-15.844 22.439 16.673 44.5081 47.808 63.3461-35.926 4.248-73.693 11.727-69.179 38.045 4.514 26.409 41.361 22.715 75.813 15.975-6.357 8.218-12.621 16.622-17.872 24.84-.645-6.095-3.5-11.451-9.396-15.606-22.292-15.791-43.111 16.252-61.166 47.186-4.79-36.937-12.988-76.92-39.886-72.303-28.0961 4.802-18.8839 46.355-9.856 82.83-30.0306-23.27-65.3124-47.37-81.4329-24.562-15.84416 22.439 16.6738 44.509 47.8095 63.346-35.9258 4.248-73.69395 11.728-69.180199 38.045 4.513749 26.409 41.360499 22.716 75.812299 15.975-22.2002 28.349-43.2026 60.022-21.4629 75.351 22.4766 15.882 46.6112-14.96 66.6002-45.063 4.238 34.905 11.423 71.195 38.229 66.67 25.885-4.524 22.109-39.522 15.2-73.135 27.082 21.054 56.744 40.261 72.127 18.469 15.844-22.439-14.646-45.432-44.492-64.824 35.834-4.802 74.523-12.651 69.825-40.168-2.672-15.421-16.121-19.392-33.716-18.284 16.674-4.432 33.347-26.594 47.902-48.479 2.764 22.346 6.724 45.155 16.212 57.621-1.198.923-2.303 2.031-3.224 3.416-11.699 16.53 12.252 32.782 35.189 46.633-26.53 3.14-54.257 8.587-50.941 28.071 3.316 19.392 30.398 16.714 55.823 11.728-16.305 20.869-31.781 44.139-15.844 55.405 16.581 11.727 34.36-10.989 49.007-33.151 3.224 25.671 8.474 52.451 28.187 49.034 19.16-3.324 16.305-29.088 11.147-53.835 19.897 15.513 41.82 29.641 53.151 13.573 11.606-16.436-10.778-33.426-32.794-47.647 26.346-3.509 54.902-9.327 51.402-29.55zm-350.69-42.292s-.277.277-.277.462c-.184-.092-.369-.277-.553-.37h.83zm-16.674 62.33h.276c0 .185 0 .278.093.37-.185 0-.277-.185-.369-.37zm49.836-9.141s0-.278 0-.463h.276c0 .185-.092.278-.184.463zm-23.306 15.236c-18.792 3.232-36.571-9.327-39.887-28.072-1.382-8.68.461-17.822 5.896-25.579 10.962-15.606 32.609-19.299 48.085-8.311 7.738 5.448 12.528 13.575 14.094 22.162 3.132 18.746-9.489 36.476-28.188 39.708zm49.651-69.718c6.632-8.588 13.173-17.637 18.608-26.502.829 5.448 3.5 10.157 8.843 13.851 3.684 2.678 7.461 3.878 11.33 4.155-12.16 1.57-25.7 4.987-38.781 8.496zm138.637-105.638h.368c0 .184-.092.276-.276.461 0-.185 0-.277 0-.461zm-33.071-52.728s-.183.277-.276.462c-.184-.092-.369-.277-.553-.37h.829zm-16.396 62.33c0 .185 0 .278.092.37-.184 0-.277-.185-.461-.37zm-13.634-21.977c-1.382-8.68.46-17.821 5.987-25.577 10.962-15.606 32.611-19.3 48.087-8.311 7.737 5.54 12.527 13.574 14.093 22.162 3.132 18.745-9.488 36.566-28.188 39.706-18.792 3.232-36.571-9.327-39.887-28.072zm113.304 155.965-.184.277s-.276-.185-.368-.277zm-12.251 45.893h.276v.278c-.092 0-.276-.185-.368-.278zm36.755-6.74s0-.184 0-.276h.184c0 .092 0 .276-.092.368zm-17.226 11.174c-13.818 2.401-26.899-6.833-29.386-20.685-.921-6.371.368-13.112 4.421-18.838 8.107-11.45 24.044-14.221 35.374-6.094 5.712 4.063 9.212 9.973 10.317 16.344 2.303 13.851-7.001 26.872-20.726 29.273z" fill="#f8e868"/></svg>