<svg fill="none" height="317" viewBox="0 0 294 317" width="294" xmlns="http://www.w3.org/2000/svg"><path d="m127.061 291.909c-14.544-.506-17.119-3.808-17.834-7.85-.478-2.702.845-4.908 1.447-5.216l13.959-.162c8.466-.115 16.744-.412 19.246-.675 7.493-.718 11.688-.455 15.877-.064 6.494.602 8.821 2.648 8.603 5.12-1.161 6.262-7.952 6.967-21.745 8.238-6.96.653-12.627.82-19.552.609zm36.122 12.505c.356-3.054-.884-5.25-8.212-6.417-2.494-.398-9.943-.098-9.943-.098-2.273.282-9.528.412-16.537.292l-11.375-.211s-1.671 2.909-.468 6.238c1.08 2.997 3.547 4.356 6.545 5.25 3.132.929 15.754 1.029 22.881.172 8.458-.973 16.738-2.054 17.109-5.226zm-1.299-42.707c-3.682-1.789-6.533-2.162-27.722-3.597-10.454-.688-15.693-.992-19.118-.992-3.297 0-4.652.282-6.44.916-3.505 1.253-5.106 6.263-3.515 9.837 1.527 3.428 4.407 4.369 19.029 4.369 15.985-.054 30.867-1.359 36.249-2.944 4.044-1.196 3.646-6.545 1.517-7.589zm-56.545-20.139c.098-2.147 1.357-3.666 2.612-4.717.091-.074.201-.16.285-.221.184.145.476.42.802.722.965.848 2.632 2.074 3.818 2.663 5.384 2.747 13.53 2.354 21.787-1.063 4.416-1.814 4.726-1.878 8.359-1.57 6 .481 13.223 2.137 14.652 2.737 4.203 1.756 6.93 10.193-.722 11.812-2.288.481-5.821.462-14.515-.027-6.454-.332-16.282-.781-21.793-.951-6.155-.12-10.462-.543-11.021-.725-1.319-.545-4.564-2.073-4.265-8.66zm188.117-91.292c-3.118 1.567-14.431-11.009-33.279-15.677-7.011-1.737-20.61-1.715-28.245.228-16.091 4.096-23.061 18.731-27.573 13.547-.796-.911-3.467-3.373-3.467-3.373-12.462-12.159-28.872-19.753-46.065-20.505v85.235c3.067-.133 6.339-.015 10.049.388 7.566.828 18.727 3.759 25.967 6.816 15.276 6.382 38.287 17.9 45.925 25.158 1.541 1.454 1.632 5.198 1.998 9.033.705 7.562-.852 30.703-4.267 37.976-2.192 4.604-5.519 8.692-9.933 11.345-10.722 6.442-20.383 13.648-47.892 16.073-6.324.558-23.163.818-32.063-.29 7.522-.675 15.042-2.429 19.402-4.655 3.651-1.821 5.266-5.197 5.438-7.312.356-4.4-2.224-7.545-4.512-9.203 5.691-1.723 9.425-7.668 9.425-11.321 0-4.506-2.377-7.767-7.405-9.762 2.33-1.073 3.128-2.567 3.919-4.476.606-1.464 1.168-4.867-.405-8.975-1.689-4.413-5.888-5.103-5.888-5.103l1.208-4.835c.543.793 1.532 1.916 2.75 3.181 3.199 3.101 9.106 8.467 11.566 10.103 6.38 4.272 9.619 5.208 18.241 5.265l8.455.137v-2.884c0-2.771-1.245-2.845-7.24-3.192-9.19-.479-14.841-2.972-22.396-9.883-3.756-3.443-8.578-9.236-10.115-12.152-1.252-2.415-4.117-6.577-6.479-7.447-2.36-.874-15.7-2.825-19.297-2.825-2.426 0-4.952.612-9.312 2.268-3.189 1.177-6.931 2.292-8.318 2.486-3.181.364-7.476-.74-9.579-2.508-.17-.145-.504-.425-.705-.627.003-.002.003-.007.007-.01.894-1.395 13.16-12.817 23.66-18.009 2.33-1.171 4.577-2.105 6.825-2.837l-.005-86.688c-1.826.235-3.658.52-5.484.923-7.1 1.526-12.3 2.737-19.887 7.334-16.564 10.046-21.7051 25.367-25.8123 21.07-7.1027-7.432-19.5452-19.373-29.3435-23.271-9.5137-3.786-18.9192-4.946-33.0455-.789-13.6699 4.022-30.2787 26.983-30.2787 19.094 0-4.23 1.05324-7.471 1.41168-8.943 3.0664-12.999 16.66282-43.1786 25.53042-56.652 9.8769-15.1659 25.8767-31.4746 40.764-41.5403 12.3199-8.3116 22.1522-13.1539 36.2859-17.8635 12.909-4.3633 26.333-6.8052 39.861-7.4002l.002-11.43939c0-3.02928 2.453-5.48861 5.485-5.48861 3.03 0 5.485 2.45933 5.485 5.48861v11.33809c16.964.5209 33.912 3.9727 50.037 10.3431 31.268 12.2992 53.744 31.3394 70.122 60.2812 15.347 27.116 20.898 61.605 18.467 62.824zm-29.179 107.406c-.327 8.626-1.301 29.018-3.604 35.872-1.859 5.464-3.945 8.69-6.386 9.862-2.889 1.395-15.462 2.046-19.576 1.167-1.844-.366-2.954-.666-3.295-.838-1.267-.535 2.499-3.746 3.165-4.515 10.365-11.975 11.143-32.559 10.51-46.074-.356-8.033-1.365-14.347-5.146-17.203l-.714-.543c.741-.334 1.799-.722 2.492-.894 2.059-.545 13.046-.074 16.5.83 5.112 1.406 6.613 7.828 6.054 22.336z" fill="#f6e666"/></svg>