<svg width="35" height="41" viewBox="0 0 35 41" fill="none" xmlns="http://www.w3.org/2000/svg">
<circle cx="17.4996" cy="23.5001" r="17.4996" fill="#EAA3CD"/>
<path d="M8.97325 11.9911C9.0093 9.45842 9.38065 7.41164 10.0873 5.85081C10.8151 4.2647 11.8373 3.09786 13.1538 2.35029C14.4683 1.57948 16.0669 1.11171 17.9496 0.946987C20.2043 0.749729 22.0064 1.00195 23.356 1.70364C24.7289 2.4033 25.7194 3.41748 26.3275 4.74618C26.9568 6.04959 27.3548 7.65431 27.5216 9.56032C27.6578 11.1177 27.3706 12.6535 26.6599 14.1679C25.9704 15.6569 24.765 17.2731 23.0438 19.0164C21.3458 20.7576 18.9941 22.7903 15.9886 25.1144L29.6212 23.9217L30.0086 28.3497L10.4139 30.064L10.0265 25.636C13.6764 22.6466 16.4201 20.2751 18.2576 18.5217C20.1162 16.7429 21.4101 15.201 22.1391 13.8959C22.8893 12.5654 23.2075 11.2494 23.0936 9.94772C22.9553 8.36712 22.5125 7.18792 21.7652 6.41011C21.0159 5.60905 19.8742 5.27563 18.3401 5.40985C16.6898 5.55423 15.4722 6.09406 14.6874 7.02934C13.9026 7.96461 13.4739 9.48941 13.4012 11.6038L8.97325 11.9911Z" fill="#8B52D4"/>
</svg>
