<svg width="35" height="40" viewBox="0 0 35 40" fill="none" xmlns="http://www.w3.org/2000/svg">
<circle cx="17.5001" cy="22.4996" r="17.5001" fill="#EAA3CD"/>
<path d="M12.87 20.1911C13.4639 21.3571 14.0606 22.2887 14.6603 22.9857C15.2833 23.6808 15.9946 24.1807 16.7942 24.4855C17.5938 24.7903 18.5631 24.8928 19.7021 24.7932C20.8178 24.6956 21.8107 24.3979 22.6806 23.9002C23.5738 23.4005 24.2501 22.6972 24.7094 21.7903C25.1668 20.8603 25.3406 19.7676 25.2307 18.5124C25.1067 17.0945 24.5387 16.0902 23.5267 15.4995C22.5126 14.8855 21.2618 14.6436 19.7741 14.7738C18.3097 14.9019 16.8369 15.3352 15.3556 16.0738L13.1459 11.6997L21.4169 5.03849L9.52726 6.0787L9.17645 2.069L27.5165 0.46446L27.8673 4.47416L17.4001 12.1356C19.7365 11.533 21.7957 11.3763 23.5777 11.6654C25.3829 11.9525 26.8023 12.6481 27.8358 13.7522C28.8925 14.8543 29.5002 16.3119 29.6588 18.125C29.8459 20.2635 29.5882 22.1365 28.8856 23.7438C28.2063 25.3491 27.1108 26.6161 25.5994 27.5447C24.1111 28.4713 22.2745 29.0301 20.0895 29.2213C17.765 29.4247 15.7353 28.9815 14.0004 27.8919C12.2635 26.7791 10.8794 25.0147 9.84828 22.5987L12.87 20.1911Z" fill="#8B52D4"/>
</svg>
