<svg width="177" height="8" viewBox="0 0 177 8" fill="none" xmlns="http://www.w3.org/2000/svg">
<path d="M169.59 1.2291C168.929 1.26634 168.333 1.26634 167.672 1.30359C166.812 1.34083 165.951 1.41533 165.025 1.45257C163.57 1.52706 162.114 1.67604 160.725 1.86227C159.203 2.08574 157.748 2.38371 156.358 2.79341C156.094 2.8679 155.829 2.97963 155.498 3.01688C155.168 3.09137 154.903 3.16586 154.572 3.24035C154.109 3.35209 153.712 3.42658 153.249 3.50107C152.72 3.57556 152.19 3.65005 151.661 3.68729C151.198 3.72454 150.735 3.72454 150.272 3.72454C149.809 3.72454 149.412 3.68729 148.949 3.68729C148.353 3.65005 147.758 3.57556 147.162 3.46382C146.567 3.35209 145.971 3.24035 145.376 3.09137C144.384 2.83065 143.391 2.53269 142.399 2.23472C141.936 2.08574 141.539 1.93676 141.076 1.75053C140.546 1.56431 140.017 1.37808 139.488 1.19185C139.091 1.04287 138.628 0.931135 138.165 0.819399C137.9 0.744908 137.569 0.707663 137.238 0.670417C136.908 0.633172 136.643 0.633172 136.312 0.595926C136.114 0.595926 135.915 0.595926 135.783 0.633172C135.518 0.670417 135.254 0.707663 134.989 0.744908C134.592 0.819399 134.195 0.931135 133.798 1.04287C133.004 1.26634 132.277 1.48982 131.483 1.71329C130.49 2.01125 129.564 2.27197 128.505 2.53269C127.91 2.68167 127.248 2.7934 126.653 2.90514C125.793 3.05412 124.999 3.12861 124.139 3.2031C123.345 3.27759 122.485 3.2776 121.691 3.31484C120.765 3.31484 119.839 3.27759 118.912 3.2031C117.722 3.09137 116.597 2.97963 115.406 2.83065C114.347 2.68167 113.289 2.49544 112.297 2.27197C111.304 2.01125 110.312 1.75053 109.319 1.45257C108.195 1.11736 107.07 0.782153 105.879 0.558681C105.416 0.446945 104.953 0.409699 104.424 0.335209C103.894 0.260718 103.299 0.260718 102.703 0.260718C102.108 0.260718 101.579 0.335209 100.983 0.409699C100.388 0.48419 99.8587 0.633172 99.3294 0.782153C98.0724 1.15461 96.9477 1.6388 95.823 2.12299C95.1614 2.42095 94.4998 2.71891 93.8382 3.01688C93.3089 3.24035 92.7135 3.50107 92.1181 3.72454C91.5226 3.94801 90.861 4.13424 90.1995 4.32047C89.8687 4.39496 89.604 4.46945 89.2732 4.50669C88.8763 4.58118 88.4132 4.61843 88.0162 4.65567C87.8177 4.65567 87.6854 4.65567 87.4869 4.65567C87.3546 4.65567 87.2223 4.65567 87.09 4.65567C86.7592 4.61843 86.4284 4.54394 86.0976 4.46945C84.9067 4.13424 83.782 3.72454 82.7235 3.2776C82.1942 3.05412 81.7311 2.83065 81.268 2.56993C80.9372 2.38371 80.6064 2.23472 80.2756 2.0485C79.4155 1.60155 78.6216 1.08012 77.6954 0.670417C77.2985 0.521436 76.9015 0.372454 76.4384 0.223472C76.1738 0.148982 75.9091 0.111736 75.6445 0.0744908C75.5783 0.0744908 75.446 0.0372454 75.3798 0.0372454C75.1814 0.0372454 74.9829 0 74.8506 0C74.7844 0 74.6521 0 74.5859 0H74.5198C74.3875 0 74.189 0 74.0567 0.0372454C73.7259 0.0744908 73.4612 0.111736 73.1304 0.148982C72.535 0.260718 71.9396 0.372454 71.3442 0.521436C70.881 0.633172 70.4179 0.744908 69.9548 0.89389C69.624 0.96838 69.2932 1.08012 68.9624 1.15461C68.4332 1.30359 67.97 1.45257 67.4408 1.60155C67.1761 1.67604 66.9115 1.75053 66.713 1.82502C66.2499 1.97401 65.7868 2.16023 65.3898 2.30921C65.0591 2.42095 64.7283 2.53269 64.3975 2.68167C63.5374 2.97963 62.7435 3.31484 61.8834 3.6128C60.0971 4.28322 58.2447 4.95364 56.2599 5.43783C55.7968 5.54956 55.3998 5.62406 54.9367 5.73579C54.4075 5.84753 53.812 5.92202 53.2166 5.95926C52.952 5.95926 52.7535 5.99651 52.4889 5.99651C52.0919 5.99651 51.7611 5.99651 51.3642 5.95926C50.8349 5.92202 50.3056 5.84753 49.8425 5.73579C49.3132 5.58681 48.784 5.40058 48.3208 5.21436C47.5269 4.87915 46.8653 4.46945 46.2038 4.05975C45.873 3.87352 45.5422 3.65005 45.2114 3.46382C44.8144 3.24035 44.3513 3.01688 43.9543 2.79341C43.5574 2.60718 43.2266 2.4582 42.7635 2.34646C42.3665 2.42095 42.1019 2.34646 41.8373 2.30921C41.5726 2.27197 41.308 2.23472 41.0434 2.23472C40.8449 2.23472 40.7126 2.23472 40.5141 2.27197C40.2495 2.30921 40.051 2.34646 39.7863 2.42095C39.5879 2.49544 39.3232 2.56993 39.1247 2.64442C38.9263 2.75616 38.7278 2.8679 38.5955 2.97963C38.2647 3.2031 37.9339 3.42658 37.6693 3.65005C37.4046 3.83628 37.14 3.98526 36.9415 4.17148C36.6769 4.35771 36.3461 4.58118 36.0814 4.76741C35.486 5.17711 34.8244 5.51232 34.0967 5.84753C33.5674 6.071 32.972 6.25723 32.3765 6.44345C31.7811 6.55519 31.2518 6.62968 30.6564 6.70417C29.7963 6.74142 29.0024 6.74142 28.1424 6.70417C26.8192 6.59244 25.5622 6.36896 24.3051 6.071C23.1804 5.77304 22.1219 5.47507 21.0634 5.10262C20.5341 4.91639 20.0048 4.73017 19.4755 4.50669C18.9463 4.32047 18.417 4.09699 17.8877 3.91077C17.3585 3.68729 16.8292 3.50107 16.2999 3.31484C15.7706 3.12861 15.1752 2.94239 14.5798 2.79341C13.4551 2.49544 12.2642 2.30921 11.0734 2.34646C10.8087 2.34646 10.4779 2.38371 10.2133 2.38371C9.88249 2.42095 9.61786 2.4582 9.35322 2.49544C9.08858 2.53269 8.82395 2.60718 8.62547 2.64442C8.36084 2.71891 8.0962 2.79341 7.83157 2.83065C6.44223 3.09137 5.31753 3.46382 4.25898 3.87352C3.33276 4.24598 2.40653 4.65567 1.61262 5.13987C1.21567 5.36334 0.884876 5.58681 0.554081 5.81028C0.421763 5.92202 0.289445 6.03375 0.223286 6.18274C0.223286 6.21998 0.157127 6.29447 0.157127 6.33172C0.0909685 6.44345 0.0909685 6.55519 0.0248096 6.66693C-0.0413493 6.81591 0.0248096 6.96489 0.223286 7.07663C0.421763 7.15112 0.686399 7.18836 0.951035 7.15112C1.14951 7.11387 1.28183 7.07663 1.48031 7.07663C1.74494 7.03938 1.94342 6.96489 2.20805 6.8904C2.53885 6.77866 2.67117 6.51795 2.47269 6.33172C2.34037 6.21998 2.20805 6.18274 2.00958 6.14549C2.67117 5.73579 3.39892 5.36334 4.12666 4.99088C5.38368 4.46945 6.70686 4.05975 8.0962 3.68729C8.427 3.6128 8.75779 3.53831 9.08858 3.46382C9.48554 3.42658 9.94865 3.35209 10.3456 3.31484C10.7426 3.2776 11.0734 3.2776 11.4703 3.31484C11.7349 3.35209 11.9334 3.35209 12.1981 3.38933C12.595 3.46382 12.9258 3.53831 13.2566 3.6128C13.9182 3.79903 14.5798 3.98526 15.1752 4.20873C15.903 4.46945 16.5645 4.76741 17.2923 5.06537C17.9539 5.32609 18.6816 5.62406 19.4094 5.88477C20.1371 6.14549 20.8649 6.40621 21.5926 6.62968C23.0481 7.07663 24.5698 7.44908 26.0914 7.7098C27.6792 7.97052 29.3994 8.08225 31.1195 7.93327C31.9134 7.85878 32.6412 7.74704 33.3689 7.59806C34.0967 7.41184 34.7583 7.22561 35.3537 6.96489C36.0153 6.70417 36.6107 6.36896 37.2061 6.03375C37.5369 5.84753 37.8016 5.6613 38.0662 5.47507C38.4632 5.17711 38.8601 4.91639 39.2571 4.61843C39.7202 4.28322 40.1833 3.91077 40.7787 3.57556C40.8449 3.57556 40.8449 3.53831 40.911 3.53831C40.9772 3.53831 41.0434 3.50107 41.1095 3.50107H41.1757C41.308 3.50107 41.3741 3.53831 41.5065 3.53831C41.7711 3.6128 42.0357 3.68729 42.3004 3.79903C43.0281 4.09699 43.6236 4.46945 44.219 4.8419C45.0129 5.28885 45.8068 5.77304 46.6669 6.18274C47.0638 6.36896 47.4608 6.51795 47.8577 6.66693C48.3208 6.85315 48.8501 6.96489 49.3794 7.07663C49.8425 7.18836 50.3718 7.22561 50.901 7.3001C51.4965 7.33734 52.1581 7.37459 52.7535 7.33734C53.2828 7.33734 53.812 7.26285 54.2751 7.22561C54.8706 7.15112 55.466 7.03938 56.0614 6.92764C57.1861 6.70417 58.2447 6.40621 59.2371 6.10825C60.7587 5.6613 62.1481 5.10262 63.5374 4.58118C64.199 4.32047 64.8606 4.05975 65.5883 3.79903C66.3822 3.50107 67.1761 3.24035 67.97 2.94239C68.0362 2.90514 68.1685 2.8679 68.2347 2.8679C68.4993 2.79341 68.764 2.71891 69.0286 2.60718C69.4255 2.49544 69.8225 2.34646 70.2856 2.23472C70.3518 2.19748 70.4841 2.19748 70.5502 2.16023C70.8149 2.08574 71.1457 2.01125 71.4103 1.93676C71.8734 1.82502 72.4027 1.67604 72.8658 1.56431C73.3289 1.45257 73.8582 1.37808 74.3875 1.30359C74.5198 1.30359 74.5859 1.30359 74.7183 1.30359C74.7844 1.30359 74.9167 1.30359 74.9829 1.30359C75.1814 1.34083 75.3799 1.37808 75.6445 1.41533C75.9753 1.52706 76.3061 1.6388 76.6369 1.78778C77.6292 2.27197 78.4893 2.79341 79.4155 3.2776C80.011 3.57556 80.6064 3.87352 81.2018 4.17148C81.7973 4.4322 82.3927 4.65567 82.9881 4.91639C83.6497 5.17711 84.3113 5.36334 84.9729 5.58681C85.5683 5.77304 86.2961 5.88477 86.9577 5.95926C87.2885 5.99651 87.5531 5.99651 87.8839 5.95926C88.2808 5.95926 88.6778 5.92202 89.0748 5.84753C89.7363 5.77304 90.3979 5.6613 90.9934 5.51232C91.7211 5.32609 92.3827 5.13986 93.0443 4.91639C93.9705 4.58118 94.7644 4.20873 95.6245 3.83628C96.0876 3.6128 96.6169 3.38933 97.08 3.16586C97.4769 2.97963 97.8739 2.83065 98.2709 2.64442C99.1309 2.27197 99.991 1.97401 100.983 1.71329C101.446 1.60155 101.91 1.52706 102.439 1.48982C102.703 1.48982 102.902 1.45257 103.167 1.45257C103.365 1.45257 103.564 1.45257 103.828 1.48982C104.622 1.56431 105.35 1.67604 106.078 1.82502C106.673 1.97401 107.335 2.16023 107.93 2.30921C108.327 2.42095 108.658 2.53269 109.055 2.64442C109.386 2.75616 109.783 2.8679 110.179 2.97963C110.907 3.16586 111.635 3.35209 112.363 3.53831C113.157 3.72454 113.951 3.83628 114.744 3.94801C116.465 4.20873 118.185 4.35771 119.905 4.46945C120.765 4.54394 121.691 4.54394 122.551 4.54394C123.411 4.54394 124.271 4.46945 125.131 4.39496C126.653 4.28322 128.175 4.0225 129.63 3.68729C130.556 3.46382 131.416 3.2031 132.343 2.94239C133.401 2.64442 134.46 2.30921 135.584 2.01125C135.783 1.97401 136.048 1.93676 136.246 1.89952C136.378 1.89952 136.511 1.89952 136.643 1.89952C136.974 1.93676 137.238 1.97401 137.569 2.0485C138.562 2.30921 139.422 2.68167 140.348 3.01688C141.274 3.38933 142.267 3.68729 143.259 3.98526C144.251 4.28322 145.31 4.50669 146.368 4.73017C147.559 4.95364 148.816 5.06537 150.073 5.10262C151.198 5.13987 152.323 5.06537 153.381 4.91639C154.307 4.80466 155.234 4.58118 156.094 4.35771C156.491 4.24598 156.822 4.17148 157.218 4.05975C157.483 3.98526 157.682 3.91077 157.946 3.83628C158.277 3.72454 158.674 3.65005 159.005 3.53831C160.791 3.12861 162.643 2.90514 164.562 2.75616C165.554 2.68167 166.613 2.64442 167.672 2.56993C168.532 2.53269 169.458 2.49544 170.318 2.4582C172.104 2.38371 173.957 2.30921 175.743 2.34646C176.471 2.34646 177 2.01125 177 1.6388C177 1.26634 176.405 0.931135 175.743 0.931135C174.354 0.931135 172.964 1.00563 171.641 1.04287C170.913 1.15461 170.252 1.19185 169.59 1.2291ZM136.048 1.93676C136.114 1.93676 136.114 1.93676 136.18 1.93676C136.114 1.93676 136.048 1.93676 136.048 1.93676Z" fill="#8B52D4"/>
</svg>
