<svg fill="none" height="511" viewBox="0 0 360 511" width="360" xmlns="http://www.w3.org/2000/svg" xmlns:xlink="http://www.w3.org/1999/xlink"><clipPath id="a"><path d="m0 0h360v511h-360z"/></clipPath><g clip-path="url(#a)"><g fill="#4b6fb4"><path d="m39.924 176.988v-38.792h-8.112v38.792h-9.568v-85.5917h9.568v37.2317h8.112v-37.2317h9.568v85.5917zm16.9528 0v-85.5917h23.088v9.6717h-13.52v27.456h9.048v9.672h-9.048v29.224h14.04v9.568z"/><path d="m135.623 358.311c.542-.084.917.125 1.125.625.083.541-.125.916-.625 1.125-2.125.479-3.417 1.77-3.875 3.875-.125.958.073 1.802.594 2.531.541.708 1.291 1.146 2.25 1.312 1.021.146 1.937-.052 2.75-.593.833-.542 1.469-1.25 1.906-2.125.458-.896.656-1.844.594-2.844-.125-.854-.594-1.448-1.406-1.781-.396-.167-.813-.282-1.25-.344-.521 0-1.053-.042-1.594-.125-.521-.125-.969-.365-1.344-.719s-.74-.719-1.094-1.094c-.229-.271-.312-.562-.25-.875.084-.333.302-.552.657-.656 1.812-.375 3.593-.885 5.343-1.531 1.667-.563 3.25-1.302 4.75-2.219 2.396-1.542 3.948-3.687 4.657-6.437.187-.667.27-1.344.25-2.032 0-.646-.115-1.218-.344-1.718-.063-.084-.136-.146-.219-.188-.125-.042-.25-.073-.375-.094-.458-.021-.917.042-1.375.188-2.458.729-4.562 2.041-6.312 3.937-1 1.021-1.865 2.198-2.594 3.532-.729 1.333-1.031 2.75-.906 4.25 0 .25-.094.468-.282.656-.187.166-.396.25-.625.25-.521 0-.823-.302-.906-.906-.125-2.021.354-3.896 1.438-5.625.958-1.625 2.125-3.073 3.5-4.344 1.25-1.125 2.635-2.031 4.156-2.719 1.083-.521 2.208-.854 3.375-1 1.416-.125 2.396.469 2.937 1.781.479 1.584.469 3.177-.031 4.782-.958 3.25-2.885 5.739-5.781 7.468-1.584.896-3.219 1.636-4.906 2.219-1.73.625-3.49 1.125-5.282 1.5.125-.5.261-1 .407-1.5.395.5.843.927 1.343 1.281.292.104.594.146.907.125.333 0 .666.032 1 .094 1.354.188 2.447.802 3.281 1.844.396.562.614 1.187.656 1.875.063.666.021 1.333-.125 2-.271 1.25-.823 2.364-1.656 3.344-.896 1.02-1.99 1.687-3.281 2-1.292.312-2.553.187-3.782-.375-1.187-.605-2.01-1.49-2.468-2.657-.459-1.166-.5-2.375-.125-3.625.833-2.396 2.479-3.885 4.937-4.468zm37.5 1.25c-.083.583-.365.875-.844.875-.208 0-.406-.084-.593-.25-.188-.167-.271-.375-.25-.625.104-.98-.271-1.678-1.125-2.094-.792-.209-1.594-.167-2.407.125-1.666.625-3.021 1.666-4.062 3.125-1.188 1.5-1.834 3.198-1.938 5.094-.021.812.25 1.5.813 2.062.625.521 1.354.771 2.187.75.959 0 1.813-.25 2.563-.75.75-.521 1.354-1.198 1.812-2.031.313-.438.677-.531 1.094-.281.438.25.552.625.344 1.125-.709 1.27-1.667 2.239-2.875 2.906-1.188.646-2.5.854-3.938.625-1.187-.188-2.146-.761-2.875-1.719-.646-.958-.906-2.021-.781-3.187.292-2.438 1.26-4.573 2.906-6.407 1.5-1.771 3.386-2.843 5.657-3.218 1.041-.167 2.01.041 2.906.625 1.041.833 1.51 1.916 1.406 3.25zm5.875-1.25c.542-.084.917.125 1.125.625.083.541-.125.916-.625 1.125-2.125.479-3.417 1.77-3.875 3.875-.125.958.073 1.802.594 2.531.541.708 1.291 1.146 2.25 1.312 1.021.146 1.937-.052 2.75-.593.833-.542 1.469-1.25 1.906-2.125.458-.896.656-1.844.594-2.844-.125-.854-.594-1.448-1.406-1.781-.396-.167-.813-.282-1.25-.344-.521 0-1.053-.042-1.594-.125-.521-.125-.969-.365-1.344-.719s-.74-.719-1.094-1.094c-.229-.271-.312-.562-.25-.875.084-.333.302-.552.657-.656 1.812-.375 3.593-.885 5.343-1.531 1.667-.563 3.25-1.302 4.75-2.219 2.396-1.542 3.948-3.687 4.657-6.437.187-.667.27-1.344.25-2.032 0-.646-.115-1.218-.344-1.718-.063-.084-.136-.146-.219-.188-.125-.042-.25-.073-.375-.094-.458-.021-.917.042-1.375.188-2.458.729-4.562 2.041-6.312 3.937-1 1.021-1.865 2.198-2.594 3.532-.729 1.333-1.031 2.75-.906 4.25 0 .25-.094.468-.282.656-.187.166-.396.25-.625.25-.521 0-.823-.302-.906-.906-.125-2.021.354-3.896 1.438-5.625.958-1.625 2.125-3.073 3.5-4.344 1.25-1.125 2.635-2.031 4.156-2.719 1.083-.521 2.208-.854 3.375-1 1.416-.125 2.396.469 2.937 1.781.479 1.584.469 3.177-.031 4.782-.958 3.25-2.885 5.739-5.781 7.468-1.584.896-3.219 1.636-4.906 2.219-1.73.625-3.49 1.125-5.282 1.5.125-.5.261-1 .407-1.5.395.5.843.927 1.343 1.281.292.104.594.146.907.125.333 0 .666.032 1 .094 1.354.188 2.447.802 3.281 1.844.396.562.614 1.187.656 1.875.063.666.021 1.333-.125 2-.271 1.25-.823 2.364-1.656 3.344-.896 1.02-1.99 1.687-3.281 2-1.292.312-2.553.187-3.782-.375-1.187-.605-2.01-1.49-2.468-2.657-.459-1.166-.5-2.375-.125-3.625.833-2.396 2.479-3.885 4.937-4.468zm10.969 1.656c.396-.313.791-.313 1.187 0 .313.396.313.791 0 1.187-.791.938-1.302 2.011-1.531 3.219-.104.521-.135 1.073-.094 1.656.063.584.302 1.063.719 1.438.875.625 1.854.864 2.938.719 1.083-.167 2.041-.532 2.875-1.094 1.812-1.271 2.979-2.979 3.5-5.125.229-.979.041-1.865-.563-2.656-.646-.667-1.437-.969-2.375-.907-1.083.188-1.937.75-2.562 1.688-.625.937-1.125 1.885-1.5 2.844-.188.458-.521.645-1 .562-.48-.187-.678-.521-.594-1 .291-.771.625-1.521 1-2.25.396-.729.885-1.385 1.469-1.969 1.166-1.146 2.552-1.646 4.156-1.5 1.312.229 2.333.896 3.062 2 .709 1.271.844 2.615.407 4.032-.834 2.77-2.511 4.854-5.032 6.25-1.312.645-2.687.895-4.125.75-.687-.084-1.343-.282-1.968-.594-.625-.313-1.136-.771-1.532-1.375-.354-.625-.541-1.302-.562-2.031-.021-.75.052-1.469.219-2.157.354-1.375.989-2.604 1.906-3.687zm15.406-3.094c.333-.417.708-.5 1.125-.25.417.229.521.594.313 1.094-2.084 3.562-3.782 7.291-5.094 11.187-.25.479-.604.657-1.063.532-.458-.125-.635-.448-.531-.969 1.354-4.042 3.104-7.906 5.25-11.594zm-3.844 12.375c-.5.188-.875.073-1.125-.344-.229-.416-.135-.781.282-1.093 5.541-3.125 10.822-6.615 15.843-10.469.354-.188.688-.146 1 .125.25.291.292.625.125 1-1.75 3.75-3.229 7.594-4.437 11.531-.209.5-.552.688-1.031.563-.459-.125-.646-.459-.563-1 1.271-4.084 2.802-8.063 4.594-11.938l1.125 1.125c-5.021 3.875-10.292 7.375-15.813 10.5zm19.094-11.594c-.104-.541.073-.875.531-1 .479-.125.844.063 1.094.563.375 1.125.885 2.187 1.531 3.187 1.167 1.875 2.646 3.532 4.438 4.969 1.791 1.417 3.771 2.385 5.937 2.906.5.188.688.521.563 1s-.459.688-1 .625c-1.334-.312-2.594-.791-3.781-1.437-2.188-1.209-4.105-2.771-5.75-4.688-1.605-1.812-2.792-3.854-3.563-6.125zm-3.437 14.094c-.521.188-.907.073-1.157-.344-.25-.437-.156-.802.282-1.093 1.479-.75 2.906-1.563 4.281-2.438 4.687-2.875 8.687-6.51 12-10.906.312-.396.698-.49 1.156-.281.417.291.521.677.313 1.156-.938 1.271-1.948 2.479-3.032 3.625-4 4.25-8.614 7.677-13.843 10.281zm35.343-2.219c-.333.292-.677.292-1.031 0-.292-.333-.292-.677 0-1.031.771-.958 1.531-1.937 2.281-2.937.834-1.105 1.615-2.24 2.344-3.407 1.083-1.666 2.198-3.312 3.344-4.937.291-.334.594-.427.906-.281.333.145.49.427.469.843-.25 1.521-.521 3.032-.813 4.532-.291 1.5-.521 3.01-.687 4.531-.375-.209-.74-.417-1.094-.625 1.75-1.063 3.302-2.354 4.656-3.875.771-.875 1.5-1.771 2.188-2.688.687-.916 1.416-1.802 2.187-2.656.292-.25.594-.281.907-.094.312.167.427.438.343.813-.375 1.062-.718 2.125-1.031 3.187-.292 1.125-.552 2.25-.781 3.375-.375 1.667-.834 3.313-1.375 4.938-.209.437-.521.604-.938.5-.416-.125-.573-.427-.468-.906.333-1.084.645-2.178.937-3.282.292-1.125.552-2.26.781-3.406.396-1.625.875-3.219 1.438-4.781.416.229.833.469 1.25.719-.792.875-1.542 1.781-2.25 2.718-.709.938-1.448 1.844-2.219 2.719-1.437 1.563-3.062 2.896-4.875 4-.25.125-.5.125-.75 0-.25-.146-.375-.365-.375-.656.167-1.584.396-3.156.688-4.719.291-1.583.572-3.156.843-4.719.459.188.907.375 1.344.563-.771 1.083-1.521 2.177-2.25 3.281-.771 1.188-1.552 2.375-2.344 3.563-1.146 1.625-2.354 3.197-3.625 4.718zm21.313-13.031c.291-.417.635-.51 1.031-.281s.5.583.313 1.062c-2.146 3.979-3.896 8.125-5.25 12.438-.209.479-.542.656-1 .531-.438-.125-.615-.437-.532-.937 1.396-4.459 3.209-8.73 5.438-12.813zm-3.531 7.375c-.5.063-.813-.125-.938-.562-.125-.438.052-.761.531-.969.604-.167 1.219-.281 1.844-.344.458-.042.927-.042 1.406 0 .584 0 1.167.042 1.75.125.604.083 1.115.344 1.532.781.791 1.063.822 2.167.093 3.313-.375.541-.843.958-1.406 1.25-.542.291-1.115.552-1.719.781-1.312.521-2.635 1.042-3.968 1.563-.48.083-.803-.094-.969-.532-.084-.479.094-.802.531-.968 1.292-.521 2.583-1.032 3.875-1.532.417-.146.833-.323 1.25-.531.438-.208.792-.479 1.063-.812.229-.334.322-.688.281-1.063 0-.25-.156-.458-.469-.625-.333-.104-.708-.156-1.125-.156-.437-.021-.875-.031-1.312-.031-.334-.021-.667-.011-1 .031.02 0-.053.01-.219.031-.104.021-.209.042-.313.063-.229.062-.468.125-.718.187zm13.156-7.312c.291-.417.635-.511 1.031-.282s.5.584.313 1.063c-2.146 3.979-3.896 8.125-5.25 12.437-.209.479-.542.657-1 .532-.438-.125-.615-.438-.532-.938 1.396-4.458 3.209-8.729 5.438-12.812zm13.469 3c-.084.583-.365.875-.844.875-.209 0-.406-.084-.594-.25-.187-.167-.271-.375-.25-.625.104-.98-.271-1.678-1.125-2.094-.792-.209-1.594-.167-2.406.125-1.667.625-3.021 1.666-4.063 3.125-1.187 1.5-1.833 3.198-1.937 5.094-.021.812.25 1.5.812 2.062.625.521 1.354.771 2.188.75.958 0 1.812-.25 2.562-.75.75-.521 1.354-1.198 1.813-2.031.312-.438.677-.531 1.094-.281.437.25.552.625.343 1.125-.708 1.27-1.666 2.239-2.875 2.906-1.187.646-2.5.854-3.937.625-1.188-.188-2.146-.761-2.875-1.719-.646-.958-.906-2.021-.781-3.187.291-2.438 1.26-4.573 2.906-6.407 1.5-1.771 3.385-2.843 5.656-3.218 1.042-.167 2.01.041 2.906.625 1.042.833 1.511 1.916 1.407 3.25zm.593 10.562c-.479.229-.875.125-1.187-.312-.229-.48-.125-.875.312-1.188 4.938-3.833 9.584-8 13.938-12.5.333-.292.677-.333 1.031-.125.375.208.51.531.406.969-1.208 4.062-2.146 8.187-2.812 12.375-.188.5-.542.698-1.063.594-.479-.188-.677-.542-.593-1.063.645-4.187 1.572-8.312 2.781-12.375.5.292.989.583 1.469.875-4.459 4.604-9.219 8.854-14.282 12.75zm14.313.625c-.521.083-.844-.094-.969-.531-.104-.459.073-.802.531-1.031.959-.292 1.854-.698 2.688-1.219.854-.521 1.687-1.063 2.5-1.625l5.562-3.75c.459-.229.802-.136 1.032.281.25.396.177.76-.219 1.094-1.896 1.291-3.792 2.583-5.688 3.875-1.666 1.25-3.479 2.219-5.437 2.906zm10.25-14.125c.458.208.625.542.5 1-.104.458-.417.646-.938.563-.979-.25-1.916-.053-2.812.593-.813.542-1.427 1.313-1.844 2.313-.417.979-.25 1.854.5 2.625.354.291.771.427 1.25.406.479-.042.927-.156 1.344-.344 1-.437 1.687-1.156 2.062-2.156.229-.479.563-.656 1-.531.459.125.646.448.563.969-.625 1.687-1.792 2.822-3.5 3.406-.709.25-1.427.323-2.156.219-.709-.105-1.334-.438-1.875-1-.98-1.209-1.23-2.563-.75-4.063.479-1.333 1.343-2.427 2.593-3.281 1.271-.854 2.625-1.094 4.063-.719zm1.625.875c.229-.479.573-.656 1.031-.531s.635.448.531.969c-.708 2-1.375 4.041-2 6.125-.604 2.062-.968 4.156-1.093 6.281-.084.521-.365.781-.844.781-.459 0-.709-.26-.75-.781.104-2.209.469-4.375 1.094-6.5.625-2.146 1.302-4.261 2.031-6.344zm5.719.156c-.105-.541.072-.875.531-1 .479-.125.844.063 1.094.563.375 1.125.885 2.187 1.531 3.187 1.166 1.875 2.646 3.532 4.437 4.969 1.792 1.417 3.771 2.385 5.938 2.906.5.188.687.521.562 1s-.458.688-1 .625c-1.333-.312-2.593-.791-3.781-1.437-2.187-1.209-4.104-2.771-5.75-4.688-1.604-1.812-2.792-3.854-3.562-6.125zm-3.438 14.094c-.521.188-.906.073-1.156-.344-.25-.437-.156-.802.281-1.093 1.479-.75 2.906-1.563 4.281-2.438 4.688-2.875 8.688-6.51 12-10.906.313-.396.698-.49 1.157-.281.416.291.52.677.312 1.156-.937 1.271-1.948 2.479-3.031 3.625-4 4.25-8.615 7.677-13.844 10.281z"/><path d="m135.623 358.311-.076-.495-.02.003-.019.005zm1.125.625.494-.076-.009-.061-.023-.056zm-.625 1.125.11.487.042-.009.04-.017zm-3.875 3.875-.488-.107-.005.021-.003.021zm.594 2.531-.407.29.005.007.005.007zm2.25 1.312-.086.493.008.001.007.001zm2.75-.593-.273-.42-.005.004zm1.906-2.125-.445-.228-.002.004zm.594-2.844.499-.031-.001-.021-.003-.021zm-1.406-1.781-.194.46.004.002zm-1.25-.344.07-.495-.035-.005h-.035zm-1.594-.125-.117.486.02.005.021.003zm-2.438-1.813-.381.323.008.011.01.01zm-.25-.875-.485-.121-.003.012-.002.011zm.657-.656-.102-.49-.02.005-.02.005zm5.343-1.531-.16-.474-.013.005zm4.75-2.219.261.427.01-.006zm4.657-6.437-.482-.136-.003.011zm.25-2.032h-.5v.008.007zm-.344-1.718.454-.209-.022-.049-.032-.042zm-.219-.188.224-.447-.032-.016-.034-.011zm-.375-.094.082-.493-.029-.005-.03-.001zm-1.375.188.142.479.01-.003zm-6.312 3.937.357.35.005-.005.005-.006zm-3.5 7.782h.5v-.021l-.002-.021zm-.282.656.332.374.011-.01.011-.011zm-1.531-.656-.499.03.001.019.003.019zm1.438-5.625.423.265.007-.011zm3.5-4.344-.335-.372-.005.005zm4.156-2.719.206.456.01-.005zm3.375-1-.044-.498-.009.001-.009.001zm2.937 1.781.479-.145-.007-.023-.01-.022zm-.031 4.782-.477-.149-.003.007zm-5.781 7.468.246.436.01-.006zm-4.906 2.219-.164-.473-.006.003zm-5.282 1.5-.485-.121-.193.774.781-.164zm.407-1.5.392-.31-.601-.759-.271.929zm1.343 1.281-.289.408.056.04.065.023zm.907.125v-.5h-.017l-.017.001zm1 .094-.093.491.012.003.012.001zm3.281 1.844.409-.288-.009-.013-.01-.012zm.656 1.875-.499.03v.008l.001.008zm-.125 2-.488-.107-.001.001zm-1.656 3.344.376.329.005-.005zm-7.063 1.625-.226.445.009.005.009.004zm-2.593-6.282-.473-.164-.003.01-.003.011zm5.013-3.974c.192-.03.302-.001.369.036.065.037.146.113.219.287l.923-.385c-.136-.326-.347-.604-.657-.776-.308-.171-.656-.204-1.006-.151zm.555.207c.029.192 0 .302-.037.368-.036.066-.112.147-.286.219l.384.923c.326-.136.605-.347.776-.656.172-.309.205-.657.151-1.006zm-.241.561c-1.137.256-2.081.737-2.806 1.462s-1.202 1.665-1.447 2.794l.977.213c.212-.976.61-1.733 1.177-2.3s1.331-.971 2.319-1.194zm-4.261 4.298c-.14 1.073.083 2.046.683 2.886l.814-.581c-.442-.618-.615-1.332-.505-2.176zm.693 2.9c.625.817 1.491 1.315 2.561 1.501l.171-.985c-.846-.148-1.48-.525-1.938-1.124zm2.576 1.503c1.135.162 2.177-.058 3.098-.672l-.555-.832c-.704.469-1.495.644-2.401.514zm3.093-.669c.907-.59 1.603-1.365 2.081-2.321l-.894-.447c-.397.794-.972 1.435-1.732 1.929zm2.079-2.317c.499-.975.716-2.012.648-3.102l-.998.062c.057.91-.122 1.769-.54 2.585zm.644-3.144c-.152-1.032-.739-1.772-1.712-2.171l-.379.925c.652.268 1.002.716 1.101 1.391zm-1.707-2.169c-.437-.184-.895-.31-1.374-.378l-.141.99c.396.056.771.16 1.127.309zm-1.444-.383c-.495 0-1-.04-1.518-.119l-.152.988c.565.087 1.122.131 1.67.131zm-1.478-.111c-.439-.106-.808-.305-1.117-.596l-.686.727c.441.416.968.696 1.57.841zm-1.117-.596c-.368-.348-.726-.706-1.073-1.074l-.727.687c.36.382.732.753 1.114 1.114zm-1.055-1.054c-.143-.169-.17-.309-.141-.454l-.981-.196c-.096.481.044.924.359 1.296zm-.147-.43c.037-.147.113-.24.313-.298l-.283-.96c-.508.15-.87.495-1 1.015zm.273-.288c1.837-.38 3.642-.898 5.415-1.552l-.346-.938c-1.727.637-3.484 1.141-5.272 1.51zm5.402-1.547c1.702-.575 3.319-1.33 4.851-2.266l-.521-.854c-1.469.898-3.018 1.621-4.65 2.172zm4.861-2.272c2.501-1.61 4.13-3.861 4.87-6.734l-.969-.249c-.676 2.627-2.152 4.668-4.442 6.142zm4.867-6.723c.201-.715.291-1.443.268-2.182l-.999.03c.019.637-.058 1.263-.232 1.881zm.269-2.167c0-.705-.126-1.351-.39-1.927l-.909.417c.195.424.299.924.299 1.51zm-.444-2.018c-.104-.138-.235-.255-.395-.335l-.448.894c.007.003.021.012.043.041zm-.461-.362c-.149-.05-.299-.088-.451-.113l-.164.986c.098.017.198.042.299.075zm-.51-.119c-.52-.024-1.038.047-1.55.21l.304.953c.404-.129.804-.182 1.2-.164zm-1.54.207c-2.545.755-4.727 2.117-6.538 4.078l.735.678c1.689-1.83 3.716-3.093 6.087-3.797zm-6.528 4.067c-1.034 1.056-1.925 2.271-2.675 3.642l.877.479c.709-1.295 1.547-2.435 2.513-3.421zm-2.675 3.642c-.776 1.418-1.099 2.932-.966 4.531l.997-.083c-.117-1.401.164-2.72.846-3.969zm-.967 4.49c0 .108-.035.202-.135.302l.707.707c.275-.275.428-.618.428-1.009zm-.114.282c-.105.094-.198.124-.293.124v1c.364 0 .688-.137.957-.376zm-.293.124c-.158 0-.226-.043-.263-.08-.047-.047-.115-.156-.148-.395l-.99.137c.05.365.176.71.431.965.264.264.608.373.97.373zm-.407-.437c-.118-1.916.334-3.688 1.362-5.329l-.847-.531c-1.138 1.817-1.644 3.795-1.513 5.921zm1.369-5.34c.934-1.584 2.07-2.994 3.409-4.231l-.679-.734c-1.411 1.304-2.608 2.79-3.591 4.457zm3.404-4.227c1.212-1.09 2.554-1.968 4.028-2.634l-.412-.912c-1.568.709-2.997 1.644-4.285 2.803zm4.038-2.639c1.036-.498 2.109-.816 3.221-.955l-.124-.992c-1.222.153-2.399.502-3.53 1.045zm3.203-.953c.628-.055 1.115.052 1.493.281.379.23.698.611.938 1.193l.924-.381c-.301-.731-.742-1.303-1.343-1.667s-1.312-.492-2.1-.422zm2.415 1.428c.449 1.486.44 2.978-.03 4.488l.954.297c.53-1.698.541-3.394.033-5.075zm-.033 4.495c-.922 3.13-2.77 5.517-5.558 7.181l.513.859c3.004-1.794 5.011-4.387 6.005-7.757zm-5.547 7.175c-1.558.881-3.166 1.608-4.824 2.181l.327.946c1.717-.594 3.38-1.346 4.989-2.257zm-4.83 2.184c-1.708.617-3.446 1.11-5.214 1.481l.205.978c1.814-.379 3.597-.886 5.349-1.519zm-4.627 2.091c.124-.493.258-.987.402-1.481l-.96-.28c-.148.506-.285 1.012-.412 1.519zm-.47-1.311c.424.536.906.997 1.446 1.379l.578-.816c-.459-.325-.873-.719-1.24-1.183zm1.567 1.442c.357.128.728.179 1.108.153l-.067-.998c-.245.017-.478-.016-.705-.097zm1.075.154c.301 0 .604.029.907.085l.185-.982c-.363-.068-.728-.103-1.092-.103zm.931.089c1.231.171 2.208.722 2.959 1.661l.781-.625c-.915-1.144-2.125-1.822-3.603-2.026zm2.941 1.637c.342.486.53 1.022.566 1.617l.998-.06c-.047-.78-.297-1.495-.746-2.133zm.567 1.633c.058.615.02 1.23-.115 1.847l.976.214c.157-.716.202-1.435.135-2.154zm-.116 1.848c-.253 1.169-.768 2.209-1.548 3.125l.762.649c.886-1.042 1.475-2.231 1.764-3.562zm-1.543 3.12c-.83.945-1.834 1.556-3.023 1.844l.235.972c1.394-.338 2.577-1.06 3.54-2.157zm-3.023 1.844c-1.181.285-2.327.173-3.456-.344l-.416.909c1.329.608 2.704.746 4.107.407zm-3.437-.335c-1.086-.553-1.819-1.348-2.23-2.394l-.931.366c.506 1.288 1.419 2.263 2.708 2.919zm-2.23-2.394c-.416-1.057-.456-2.151-.112-3.298l-.957-.287c-.406 1.352-.363 2.676.138 3.951zm-.118-3.277c.777-2.236 2.289-3.603 4.58-4.147l-.23-.973c-2.626.623-4.406 2.235-5.295 4.791zm41.965-3.383.495.07.002-.016.002-.016zm-1.687 0-.498-.053-.001.011zm-1.125-2.094.219-.45-.045-.021-.047-.013zm-2.407.125-.169-.471-.006.003zm-4.062 3.125.392.31.007-.01.008-.01zm-1.938 5.094-.499-.028v.007l-.001.008zm.813 2.062-.354.354.016.016.018.014zm2.187.75v-.5h-.012zm2.563-.75.277.416.008-.005zm1.812-2.031-.407-.291-.017.024-.014.026zm1.094-.281-.257.428.009.006zm.344 1.125.437.243.013-.025.011-.026zm-2.875 2.906.239.439.002-.001zm-3.938.625.079-.494h-.001zm-2.875-1.719-.414.279.008.012.008.012zm-.781-3.187-.496-.06-.001.006zm2.906-6.407.372.334.005-.005.005-.006zm5.657-3.218-.079-.494h-.003zm2.906.625.312-.391-.019-.015-.02-.013zm.911 3.179c-.033.233-.097.337-.138.38-.03.03-.08.066-.211.066v1c.349 0 .679-.111.931-.372.239-.249.358-.582.408-.933zm-.349.446c-.062 0-.146-.021-.261-.124l-.665.747c.26.231.572.377.926.377zm-.261-.124c-.07-.062-.092-.117-.084-.21l-.997-.083c-.034.407.111.769.416 1.04zm-.085-.199c.06-.565-.015-1.09-.26-1.547-.247-.458-.641-.804-1.143-1.049l-.439.899c.352.172.572.384.701.623.129.241.19.555.146.969zm-1.495-2.63c-.895-.235-1.8-.186-2.703.138l.338.941c.723-.259 1.422-.293 2.11-.112zm-2.709.141c-1.761.66-3.195 1.764-4.294 3.302l.814.581c.984-1.378 2.258-2.357 3.831-2.947zm-4.279 3.282c-1.251 1.581-1.935 3.377-2.045 5.377l.999.055c.098-1.792.706-3.391 1.83-4.811zm-2.046 5.392c-.024.946.297 1.767.959 2.429l.707-.708c-.463-.463-.683-1.017-.666-1.696zm.993 2.459c.72.601 1.569.89 2.52.866l-.025-1c-.716.018-1.326-.193-1.855-.634zm2.507.866c1.051 0 2.003-.276 2.84-.834l-.555-.832c-.662.442-1.419.666-2.285.666zm2.848-.839c.816-.567 1.471-1.303 1.965-2.201l-.876-.482c-.423.768-.975 1.386-1.659 1.861zm1.934-2.152c.117-.163.197-.197.226-.204.018-.005.075-.016.204.061l.514-.857c-.288-.173-.621-.262-.967-.173-.337.087-.595.318-.791.592zm.439-.137c.141.08.174.146.184.18.012.041.023.135-.054.318l.923.385c.132-.317.19-.66.087-.995-.104-.341-.347-.587-.644-.757zm.155.447c-.665 1.194-1.558 2.093-2.68 2.712l.483.876c1.295-.715 2.319-1.753 3.071-3.101zm-2.677 2.711c-1.083.589-2.283.783-3.62.57l-.157.988c1.537.245 2.963.023 4.255-.68zm-3.621.57c-1.06-.167-1.904-.672-2.555-1.528l-.796.606c.807 1.061 1.88 1.702 3.195 1.91zm-2.538-1.504c-.579-.859-.811-1.804-.699-2.855l-.994-.107c-.137 1.282.151 2.463.864 3.52zm-.699-2.849c.279-2.335 1.204-4.375 2.781-6.132l-.744-.668c-1.714 1.91-2.726 4.141-3.03 6.681zm2.791-6.143c1.424-1.681 3.203-2.693 5.356-3.048l-.163-.987c-2.389.395-4.38 1.529-5.956 3.389zm5.354-3.048c.917-.147 1.761.034 2.554.551l.546-.838c-.999-.65-2.092-.887-3.258-.7zm2.514.522c.912.73 1.312 1.652 1.221 2.821l.997.077c.117-1.497-.421-2.742-1.593-3.679zm7.594 1.61-.076-.495-.02.003-.019.005zm1.125.625.494-.076-.009-.061-.023-.056zm-.625 1.125.11.487.042-.009.04-.017zm-3.875 3.875-.488-.107-.005.021-.003.021zm.594 2.531-.407.29.005.007.005.007zm2.25 1.312-.086.493.008.001.007.001zm2.75-.593-.273-.42-.005.004zm1.906-2.125-.445-.228-.002.004zm.594-2.844.499-.031-.001-.021-.003-.021zm-1.406-1.781-.194.46.004.002zm-1.25-.344.07-.495-.035-.005h-.035zm-1.594-.125-.117.486.02.005.021.003zm-2.438-1.813-.381.323.008.011.01.01zm-.25-.875-.485-.121-.003.012-.002.011zm.657-.656-.102-.49-.02.005-.02.005zm5.343-1.531-.16-.474-.013.005zm4.75-2.219.261.427.01-.006zm4.657-6.437-.482-.136-.003.011zm.25-2.032h-.5v.008.007zm-.344-1.718.454-.209-.022-.049-.032-.042zm-.219-.188.224-.447-.032-.016-.034-.011zm-.375-.094.082-.493-.029-.005-.03-.001zm-1.375.188.142.479.01-.003zm-6.312 3.937.357.35.005-.005.005-.006zm-3.5 7.782h.5v-.021l-.002-.021zm-.282.656.332.374.011-.01.011-.011zm-1.531-.656-.499.03.001.019.003.019zm1.438-5.625.423.265.007-.011zm3.5-4.344-.335-.372-.005.005zm4.156-2.719.206.456.01-.005zm3.375-1-.044-.498-.009.001-.009.001zm2.937 1.781.479-.145-.007-.023-.01-.022zm-.031 4.782-.477-.149-.003.007zm-5.781 7.468.246.436.01-.006zm-4.906 2.219-.164-.473-.006.003zm-5.282 1.5-.485-.121-.193.774.781-.164zm.407-1.5.392-.31-.601-.759-.271.929zm1.343 1.281-.289.408.056.04.065.023zm.907.125v-.5h-.017l-.017.001zm1 .094-.093.491.012.003.012.001zm3.281 1.844.409-.288-.009-.013-.01-.012zm.656 1.875-.499.03v.008l.001.008zm-.125 2-.488-.107-.001.001zm-1.656 3.344.376.329.005-.005zm-7.063 1.625-.226.445.009.005.009.004zm-2.593-6.282-.473-.164-.003.01-.003.011zm5.013-3.974c.192-.03.302-.001.369.036.065.037.146.113.219.287l.923-.385c-.136-.326-.347-.604-.657-.776-.308-.171-.656-.204-1.006-.151zm.555.207c.029.192 0 .302-.037.368-.036.066-.112.147-.286.219l.384.923c.326-.136.605-.347.776-.656.172-.309.205-.657.151-1.006zm-.241.561c-1.137.256-2.081.737-2.806 1.462s-1.202 1.665-1.447 2.794l.977.213c.212-.976.61-1.733 1.177-2.3s1.331-.971 2.319-1.194zm-4.261 4.298c-.14 1.073.083 2.046.683 2.886l.814-.581c-.442-.618-.615-1.332-.505-2.176zm.693 2.9c.625.817 1.491 1.315 2.561 1.501l.171-.985c-.846-.148-1.48-.525-1.938-1.124zm2.576 1.503c1.135.162 2.177-.058 3.098-.672l-.555-.832c-.704.469-1.495.644-2.401.514zm3.093-.669c.907-.59 1.603-1.365 2.081-2.321l-.894-.447c-.397.794-.972 1.435-1.732 1.929zm2.079-2.317c.499-.975.716-2.012.648-3.102l-.998.062c.057.91-.122 1.769-.54 2.585zm.644-3.144c-.152-1.032-.739-1.772-1.712-2.171l-.379.925c.652.268 1.002.716 1.101 1.391zm-1.707-2.169c-.437-.184-.895-.31-1.374-.378l-.141.99c.396.056.771.16 1.127.309zm-1.444-.383c-.495 0-1-.04-1.518-.119l-.152.988c.565.087 1.122.131 1.67.131zm-1.478-.111c-.439-.106-.808-.305-1.117-.596l-.686.727c.441.416.968.696 1.57.841zm-1.117-.596c-.368-.348-.726-.706-1.073-1.074l-.727.687c.36.382.732.753 1.114 1.114zm-1.055-1.054c-.143-.169-.17-.309-.141-.454l-.981-.196c-.096.481.044.924.359 1.296zm-.147-.43c.037-.147.113-.24.313-.298l-.283-.96c-.508.15-.87.495-1 1.015zm.273-.288c1.837-.38 3.642-.898 5.415-1.552l-.346-.938c-1.727.637-3.484 1.141-5.272 1.51zm5.402-1.547c1.702-.575 3.319-1.33 4.851-2.266l-.521-.854c-1.469.898-3.018 1.621-4.65 2.172zm4.861-2.272c2.501-1.61 4.13-3.861 4.87-6.734l-.969-.249c-.676 2.627-2.152 4.668-4.442 6.142zm4.867-6.723c.201-.715.291-1.443.268-2.182l-.999.03c.019.637-.058 1.263-.232 1.881zm.269-2.167c0-.705-.126-1.351-.39-1.927l-.909.417c.195.424.299.924.299 1.51zm-.444-2.018c-.104-.138-.235-.255-.395-.335l-.448.894c.007.003.021.012.043.041zm-.461-.362c-.149-.05-.299-.088-.451-.113l-.164.986c.098.017.198.042.299.075zm-.51-.119c-.52-.024-1.038.047-1.55.21l.304.953c.404-.129.804-.182 1.2-.164zm-1.54.207c-2.545.755-4.727 2.117-6.538 4.078l.735.678c1.689-1.83 3.716-3.093 6.087-3.797zm-6.528 4.067c-1.034 1.056-1.925 2.271-2.675 3.642l.877.479c.709-1.295 1.547-2.435 2.513-3.421zm-2.675 3.642c-.776 1.418-1.099 2.932-.966 4.531l.997-.083c-.117-1.401.164-2.72.846-3.969zm-.967 4.49c0 .108-.035.202-.135.302l.707.707c.275-.275.428-.618.428-1.009zm-.114.282c-.105.094-.198.124-.293.124v1c.364 0 .688-.137.957-.376zm-.293.124c-.158 0-.226-.043-.263-.08-.047-.047-.115-.156-.148-.395l-.99.137c.05.365.176.71.431.965.264.264.608.373.97.373zm-.407-.437c-.118-1.916.334-3.688 1.362-5.329l-.847-.531c-1.138 1.817-1.644 3.795-1.513 5.921zm1.369-5.34c.934-1.584 2.07-2.994 3.409-4.231l-.679-.734c-1.411 1.304-2.608 2.79-3.591 4.457zm3.404-4.227c1.212-1.09 2.554-1.968 4.028-2.634l-.412-.912c-1.568.709-2.997 1.644-4.285 2.803zm4.038-2.639c1.036-.498 2.109-.816 3.221-.955l-.124-.992c-1.222.153-2.399.502-3.53 1.045zm3.203-.953c.628-.055 1.115.052 1.493.281.379.23.698.611.938 1.193l.924-.381c-.301-.731-.742-1.303-1.343-1.667s-1.312-.492-2.1-.422zm2.415 1.428c.449 1.486.44 2.978-.03 4.488l.954.297c.53-1.698.541-3.394.033-5.075zm-.033 4.495c-.922 3.13-2.77 5.517-5.558 7.181l.513.859c3.004-1.794 5.011-4.387 6.005-7.757zm-5.547 7.175c-1.558.881-3.166 1.608-4.824 2.181l.327.946c1.717-.594 3.38-1.346 4.989-2.257zm-4.83 2.184c-1.708.617-3.446 1.11-5.214 1.481l.205.978c1.814-.379 3.597-.886 5.349-1.519zm-4.627 2.091c.124-.493.258-.987.402-1.481l-.96-.28c-.148.506-.285 1.012-.412 1.519zm-.47-1.311c.424.536.906.997 1.446 1.379l.578-.816c-.459-.325-.873-.719-1.24-1.183zm1.567 1.442c.357.128.728.179 1.108.153l-.067-.998c-.245.017-.478-.016-.705-.097zm1.075.154c.301 0 .604.029.907.085l.185-.982c-.363-.068-.728-.103-1.092-.103zm.931.089c1.231.171 2.208.722 2.959 1.661l.781-.625c-.915-1.144-2.125-1.822-3.603-2.026zm2.941 1.637c.342.486.53 1.022.566 1.617l.998-.06c-.047-.78-.297-1.495-.746-2.133zm.567 1.633c.058.615.02 1.23-.115 1.847l.976.214c.157-.716.202-1.435.135-2.154zm-.116 1.848c-.253 1.169-.768 2.209-1.548 3.125l.762.649c.886-1.042 1.475-2.231 1.764-3.562zm-1.543 3.12c-.83.945-1.834 1.556-3.023 1.844l.235.972c1.394-.338 2.577-1.06 3.54-2.157zm-3.023 1.844c-1.181.285-2.327.173-3.456-.344l-.416.909c1.329.608 2.704.746 4.107.407zm-3.437-.335c-1.086-.553-1.819-1.348-2.23-2.394l-.931.366c.506 1.288 1.419 2.263 2.708 2.919zm-2.23-2.394c-.416-1.057-.456-2.151-.112-3.298l-.957-.287c-.406 1.352-.363 2.676.138 3.951zm-.118-3.277c.777-2.236 2.289-3.603 4.58-4.147l-.23-.973c-2.626.623-4.406 2.235-5.295 4.791zm15.434-2.977-.31-.393-.039.031-.033.039zm1.187 0 .393-.31-.037-.046-.046-.037zm0 1.187.382.323.006-.006.005-.007zm-1.531 3.219.49.098.001-.005zm-.094 1.656-.498.036v.009l.001.009zm.719 1.438-.334.371.021.019.022.017zm2.938.719.066.495.01-.001zm2.875-1.094.279.414.008-.005zm3.5-5.125.485.118.001-.004zm-.563-2.656.398-.304-.018-.023-.021-.021zm-2.375-.907-.033-.499-.026.002-.026.005zm-4.062 4.532.462.189.003-.007zm-1 .562-.183.466.047.018.05.009zm-.594-1-.468-.177-.017.045-.008.046zm1-2.25-.44-.239-.005.01zm1.469-1.969-.351-.356-.003.003zm4.156-1.5.086-.492-.02-.004-.021-.002zm3.062 2 .437-.243-.009-.017-.01-.015zm.407 4.032-.478-.148-.001.004zm-5.032 6.25.221.448.011-.005.011-.006zm-4.125.75-.06.496.01.001zm-3.5-1.969-.435.246.008.014.009.014zm-.562-2.031-.5.013v.001zm.219-2.157-.485-.124-.001.006zm2.216-3.295c.134-.106.226-.127.284-.127.057 0 .149.021.283.127l.62-.785c-.261-.206-.565-.342-.903-.342-.339 0-.642.136-.904.342zm.485-.082c.106.134.127.226.127.284 0 .057-.021.149-.127.283l.785.62c.206-.261.342-.565.342-.903 0-.339-.136-.642-.342-.904zm.01.555c-.847 1.003-1.395 2.155-1.64 3.448l.982.186c.213-1.124.686-2.118 1.422-2.989zm-1.639 3.443c-.114.569-.147 1.166-.102 1.79l.997-.071c-.039-.543-.009-1.05.085-1.523zm-.101 1.808c.075.699.369 1.294.882 1.755l.669-.743c-.321-.288-.507-.652-.557-1.119zm.925 1.791c.981.7 2.088.97 3.295.807l-.133-.991c-.96.129-1.811-.08-2.58-.63zm3.305.806c1.149-.177 2.178-.566 3.078-1.174l-.559-.829c-.767.518-1.654.858-2.671 1.014zm3.086-1.179c1.911-1.34 3.149-3.152 3.698-5.416l-.971-.236c-.492 2.027-1.588 3.632-3.302 4.833zm3.699-5.42c.263-1.123.044-2.162-.651-3.074l-.795.607c.512.671.668 1.403.473 2.239zm-.69-3.118c-.749-.774-1.685-1.13-2.767-1.058l.066.998c.793-.053 1.441.196 1.983.755zm-2.819-1.051c-1.222.211-2.195.854-2.893 1.902l.832.555c.551-.826 1.287-1.309 2.231-1.472zm-2.893 1.902c-.644.965-1.161 1.945-1.55 2.939l.931.365c.361-.922.844-1.838 1.451-2.749zm-1.547 2.932c-.064.156-.131.214-.173.238s-.121.049-.279.021l-.171.986c.322.056.648.029.94-.135.291-.164.485-.429.608-.731zm-.355.286c-.17-.066-.234-.136-.26-.18-.024-.04-.05-.115-.024-.268l-.985-.172c-.057.327-.025.657.149.951.172.289.446.48.755.601zm-.309-.357c.285-.753.611-1.486.977-2.198l-.889-.458c-.384.746-.725 1.514-1.023 2.302zm.972-2.188c.373-.688.834-1.305 1.383-1.854l-.707-.707c-.618.617-1.136 1.312-1.555 2.084zm1.38-1.851c1.064-1.045 2.305-1.491 3.761-1.359l.09-.996c-1.753-.159-3.282.395-4.552 1.642zm3.72-1.364c1.178.206 2.078.794 2.731 1.783l.835-.551c-.806-1.22-1.947-1.965-3.394-2.217zm2.712 1.751c.64 1.149.763 2.351.365 3.64l.955.295c.477-1.544.329-3.029-.447-4.422zm.364 3.644c-.796 2.646-2.389 4.624-4.795 5.956l.485.875c2.635-1.459 4.397-3.648 5.267-6.543zm-4.773 5.945c-1.23.605-2.511.837-3.854.701l-.101.995c1.532.155 3.001-.112 4.396-.799zm-3.845.702c-.63-.076-1.231-.257-1.805-.544l-.447.894c.676.338 1.387.553 2.132.643zm-1.805-.544c-.543-.272-.987-.669-1.336-1.202l-.837.548c.443.675 1.019 1.195 1.726 1.548zm-1.32-1.175c-.313-.553-.479-1.15-.497-1.799l-1 .029c.023.809.232 1.566.627 2.263zm-.497-1.798c-.02-.709.049-1.383.204-2.025l-.971-.236c-.178.734-.255 1.497-.233 2.288zm.203-2.018c.335-1.302.936-2.463 1.803-3.489l-.763-.646c-.965 1.141-1.636 2.438-2.009 3.886zm16.828-6.906-.39-.312-.023.029-.019.032zm1.125-.25-.257.429.008.005.008.004zm.313 1.094.431.252.017-.029.013-.031zm-5.094 11.187.443.232.018-.035.013-.037zm-1.594-.437-.474-.159-.01.03-.006.031zm1.406.781.176.468.037-.014.034-.019zm-1.125-.344-.438.241.005.008.005.009zm.282-1.093-.246-.436-.028.016-.026.02zm15.843-10.469-.234-.442-.037.02-.033.025zm1 .125.38-.326-.024-.028-.028-.024zm.125 1 .453.211.004-.008zm-4.437 11.531.461.192.01-.022.007-.023zm-1.031.563-.132.482.005.001zm-.563-1-.477-.149-.011.036-.006.037zm4.594-11.938.353-.354-.506-.506-.301.65zm1.125 1.125.305.396.45-.347-.402-.403zm-11.579-1.563c.123-.153.21-.19.25-.199.032-.007.099-.012.228.066l.514-.858c-.287-.172-.616-.26-.959-.184-.335.074-.603.288-.813.551zm.494-.124c.123.068.144.121.151.145.01.035.02.129-.059.318l.923.385c.13-.311.192-.649.097-.978-.097-.341-.336-.584-.63-.746zm.122.403c-2.101 3.592-3.813 7.352-5.136 11.281l.948.319c1.301-3.863 2.985-7.562 5.051-11.095zm-5.105 11.209c-.094.18-.18.249-.234.276-.046.023-.119.041-.254.004l-.263.965c.323.088.656.08.964-.074.3-.15.517-.409.673-.708zm-.488.28c-.138-.038-.164-.083-.17-.094-.011-.021-.042-.099-.003-.294l-.98-.196c-.065.326-.059.669.106.971.172.312.464.491.784.578zm-.189-.327c1.344-4.01 3.079-7.843 5.208-11.501l-.864-.503c-2.163 3.716-3.927 7.612-5.292 11.686zm.757.154c-.184.069-.285.06-.335.045-.043-.013-.109-.049-.186-.178l-.857.515c.172.287.419.517.751.619.325.099.662.054.978-.065zm-.512-.117c-.07-.127-.062-.191-.055-.22.009-.037.047-.119.199-.232l-.6-.8c-.265.198-.483.455-.568.783-.086.336-.011.662.148.951zm.089-.417c5.562-3.136 10.863-6.639 15.903-10.508l-.609-.793c-5.002 3.84-10.264 7.317-15.785 10.43zm15.832-10.462c.104-.055.174-.061.22-.055.048.006.12.03.219.116l.655-.756c-.214-.185-.465-.317-.75-.353-.287-.036-.562.032-.812.164zm.387.008c.07.083.095.15.102.206.007.058 0 .143-.055.266l.914.406c.112-.252.168-.521.133-.796-.034-.278-.156-.523-.335-.733zm.051.463c-1.76 3.771-3.247 7.637-4.462 11.596l.956.294c1.201-3.916 2.672-7.738 4.412-11.467zm-4.446 11.551c-.077.184-.152.247-.192.269-.032.018-.101.041-.251.002l-.253.967c.329.086.672.078.983-.091.304-.166.505-.447.636-.763zm-.438.272c-.133-.036-.167-.083-.18-.106-.02-.035-.052-.129-.02-.335l-.988-.152c-.052.334-.032.678.136.977.175.31.464.492.789.581zm-.217-.369c1.265-4.062 2.788-8.021 4.571-11.876l-.908-.42c-1.801 3.895-3.34 7.895-4.617 11.999zm3.763-11.732c.001 0 .002.001.002.002.001.001.002.001.003.002 0 .001.001.001.002.002s.001.002.002.002c.001.001.001.002.002.003.001 0 .002.001.002.002.001.001.002.001.003.002 0 .001.001.001.002.002s.001.002.002.002c.001.001.001.002.002.003.001 0 .002.001.002.002.001.001.002.001.003.002 0 .001.001.001.002.002s.001.002.002.002c.001.001.001.002.002.003.001 0 .002.001.002.002.001 0 .002.001.003.002 0 .001.001.001.002.002s.001.002.002.002c.001.001.001.002.002.003.001 0 .002.001.002.002.001 0 .002.001.003.002 0 .001.001.001.002.002s.001.002.002.002c.001.001.001.002.002.003.001 0 .002.001.002.002.001 0 .002.001.003.002 0 .001.001.001.002.002 0 .001.001.002.002.002.001.001.001.002.002.003.001 0 .002.001.002.002.001 0 .002.001.003.002 0 .001.001.001.002.002 0 .001.001.002.002.002.001.001.001.002.002.003.001 0 .002.001.002.002.001 0 .002.001.003.002 0 .001.001.001.002.002 0 .001.001.002.002.002.001.001.001.002.002.002.001.001.002.002.002.003.001 0 .002.001.003.002 0 .001.001.001.002.002 0 .001.001.002.002.002.001.001.001.002.002.002.001.001.002.002.002.003.001 0 .002.001.003.002 0 .001.001.001.002.002 0 .001.001.002.002.002.001.001.001.002.002.002.001.001.002.002.002.003.001 0 .002.001.003.002 0 .001.001.001.002.002 0 .001.001.002.002.002.001.001.001.002.002.002.001.001.002.002.002.003.001 0 .002.001.002.002.001.001.002.001.003.002 0 .001.001.002.002.002.001.001.001.002.002.002.001.001.002.002.002.003.001 0 .002.001.002.002.001.001.002.001.003.002 0 .001.001.001.002.002s.001.002.002.002c.001.001.002.002.002.003.001 0 .002.001.002.002.001.001.002.001.003.002 0 .001.001.001.002.002s.001.002.002.002c.001.001.002.002.002.003.001 0 .002.001.002.002.001.001.002.001.003.002 0 .001.001.001.002.002s.001.002.002.002c.001.001.002.002.002.003.001 0 .002.001.002.002.001.001.002.001.003.002 0 .001.001.001.002.002s.001.002.002.002c.001.001.001.002.002.003.001 0 .002.001.002.002.001.001.002.001.003.002 0 .001.001.001.002.002s.001.002.002.002c.001.001.001.002.002.003.001 0 .002.001.002.002.001 0 .002.001.003.002 0 .001.001.001.002.002s.001.002.002.002c.001.001.001.002.002.003.001 0 .002.001.002.002.001 0 .002.001.003.002 0 .001.001.001.002.002s.001.002.002.002c.001.001.001.002.002.003.001 0 .002.001.002.002.001 0 .002.001.003.002 0 .001.001.001.002.002s.001.002.002.002c.001.001.001.002.002.003.001 0 .002.001.002.002.001 0 .002.001.003.002 0 .001.001.001.002.002 0 .001.001.002.002.002.001.001.001.002.002.003.001 0 .002.001.002.002.001 0 .002.001.003.002 0 .001.001.001.002.002 0 .001.001.002.002.002.001.001.001.002.002.002.001.001.002.002.002.003.001 0 .002.001.003.002 0 .001.001.001.002.002 0 .001.001.002.002.002.001.001.001.002.002.002.001.001.002.002.002.003.001 0 .002.001.003.002 0 .001.001.001.002.002 0 .001.001.002.002.002.001.001.001.002.002.002.001.001.002.002.002.003.001 0 .002.001.003.002 0 .001.001.001.002.002 0 .001.001.002.002.002.001.001.001.002.002.002.001.001.002.002.002.003.001 0 .002.001.002.002.001.001.002.001.003.002 0 .001.001.002.002.002.001.001.001.002.002.002.001.001.002.002.002.003.001 0 .002.001.002.002.001.001.002.001.003.002 0 .001.001.001.002.002s.001.002.002.002c.001.001.002.002.002.003.001 0 .002.001.002.002.001.001.002.001.003.002 0 .001.001.001.002.002s.001.002.002.002c.001.001.002.002.002.003.001 0 .002.001.002.002.001.001.002.001.003.002 0 .001.001.001.002.002s.001.002.002.002c.001.001.002.002.002.003.001 0 .002.001.002.002.001.001.002.001.003.002 0 .001.001.001.002.002s.001.002.002.002c.001.001.001.002.002.003.001 0 .002.001.002.002.001.001.002.001.003.002 0 .001.001.001.002.002s.001.002.002.002c.001.001.001.002.002.003.001 0 .002.001.002.002.001.001.002.001.003.002 0 .001.001.001.002.002s.001.002.002.002c.001.001.001.002.002.003.001 0 .002.001.002.002.001 0 .002.001.003.002 0 .001.001.001.002.002s.001.002.002.002c.001.001.001.002.002.003.001 0 .002.001.002.002.001 0 .002.001.003.002 0 .001.001.001.002.002s.001.002.002.002c.001.001.001.002.002.003.001 0 .002.001.002.002.001 0 .002.001.003.002 0 .001.001.001.002.002 0 .001.001.002.002.002.001.001.001.002.002.003.001 0 .002.001.002.002.001 0 .002.001.003.002 0 .001.001.001.002.002 0 .001.001.002.002.002.001.001.001.002.002.003.001 0 .002.001.002.002.001 0 .002.001.003.002 0 .001.001.001.002.002 0 .001.001.002.002.002.001.001.001.002.002.002.001.001.002.002.002.003.001 0 .002.001.003.002 0 .001.001.001.002.002 0 .001.001.002.002.002.001.001.001.002.002.002.001.001.002.002.002.003.001 0 .002.001.003.002 0 .001.001.001.002.002 0 .001.001.002.002.002.001.001.001.002.002.002.001.001.002.002.002.003.001 0 .002.001.002.002.001.001.002.001.003.002 0 .001.001.002.002.002.001.001.001.002.002.002.001.001.002.002.002.003.001 0 .002.001.002.002.001.001.002.001.003.002 0 .001.001.002.002.002.001.001.001.002.002.002.001.001.002.002.002.003.001 0 .002.001.002.002.001.001.002.001.003.002 0 .001.001.001.002.002s.001.002.002.002c.001.001.002.002.002.003.001 0 .002.001.002.002.001.001.002.001.003.002 0 .001.001.001.002.002s.001.002.002.002c.001.001.002.002.002.003.001 0 .002.001.002.002.001.001.002.001.003.002 0 .001.001.001.002.002s.001.002.002.002c.001.001.002.002.002.003.001 0 .002.001.002.002.001.001.002.001.003.002 0 .001.001.001.002.002s.001.002.002.002c.001.001.001.002.002.003.001 0 .002.001.002.002.001.001.002.001.003.002 0 .001.001.001.002.002s.001.002.002.002c.001.001.001.002.002.003.001 0 .002.001.002.002.001 0 .002.001.003.002 0 .001.001.001.002.002s.001.002.002.002c.001.001.001.002.002.003.001 0 .002.001.002.002.001 0 .002.001.003.002 0 .001.001.001.002.002s.001.002.002.002c.001.001.001.002.002.003.001 0 .002.001.002.002.001 0 .002.001.003.002 0 .001.001.001.002.002s.001.002.002.002c.001.001.001.002.002.003.001 0 .002.001.002.002.001 0 .002.001.003.002 0 .001.001.001.002.002 0 .001.001.002.002.002.001.001.001.002.002.003.001 0 .002.001.002.002.001 0 .002.001.003.002 0 .001.001.001.002.002 0 .001.001.002.002.002.001.001.001.002.002.002.001.001.002.002.002.003.001 0 .002.001.003.002 0 .001.001.001.002.002 0 .001.001.002.002.002.001.001.001.002.002.002.001.001.002.002.002.003.001 0 .002.001.003.002 0 .001.001.001.002.002 0 .001.001.002.002.002.001.001.001.002.002.002.001.001.002.002.002.003.001 0 .002.001.003.002 0 .001.001.001.002.002 0 .001.001.002.002.002.001.001.001.002.002.002.001.001.002.002.002.003.001 0 .002.001.002.002.001.001.002.001.003.002 0 .001.001.002.002.002.001.001.001.002.002.002.001.001.002.002.002.003.001 0 .002.001.002.002.001.001.002.001.003.002 0 .001.001.001.002.002s.001.002.002.002c.001.001.002.002.002.003.001 0 .002.001.002.002.001.001.002.001.003.002 0 .001.001.001.002.002s.001.002.002.002c.001.001.002.002.002.003.001 0 .002.001.002.002.001.001.002.001.003.002 0 .001.001.001.002.002s.001.002.002.002c.001.001.002.002.002.003.001 0 .002.001.002.002.001.001.002.001.003.002 0 .001.001.001.002.002s.001.002.002.002c.001.001.001.002.002.003.001 0 .002.001.002.002.001.001.002.001.003.002 0 .001.001.001.002.002s.001.002.002.002c.001.001.001.002.002.003.001 0 .002.001.002.002.001 0 .002.001.003.002 0 .001.001.001.002.002s.001.002.002.002c.001.001.001.002.002.003.001 0 .002.001.002.002.001 0 .002.001.003.002 0 .001.001.001.002.002s.001.002.002.002c.001.001.001.002.002.003.001 0 .002.001.002.002.001 0 .002.001.003.002 0 .001.001.001.002.002s.001.002.002.002c.001.001.001.002.002.003.001 0 .002.001.002.002.001 0 .002.001.003.002 0 .001.001.001.002.002 0 .001.001.002.002.002.001.001.001.002.002.003.001 0 .002.001.002.002.001 0 .002.001.003.002 0 .001.001.001.002.002 0 .001.001.002.002.002.001.001.001.002.002.003.001 0 .002.001.002.002.001 0 .002.001.003.002 0 .001.001.001.002.002 0 .001.001.002.002.002.001.001.001.002.002.002.001.001.002.002.002.003.001 0 .002.001.003.002 0 .001.001.001.002.002 0 .001.001.002.002.002.001.001.001.002.002.002.001.001.002.002.002.003.001 0 .002.001.003.002 0 .001.001.001.002.002 0 .001.001.002.002.002.001.001.001.002.002.002.001.001.002.002.002.003.001 0 .002.001.002.002.001.001.002.001.003.002 0 .001.001.002.002.002.001.001.001.002.002.002.001.001.002.002.002.003.001 0 .002.001.002.002.001.001.002.001.003.002 0 .001.001.002.002.002.001.001.001.002.002.002.001.001.002.002.002.003.001 0 .002.001.002.002.001.001.002.001.003.002 0 .001.001.001.002.002s.001.002.002.002c.001.001.002.002.002.003.001 0 .002.001.002.002.001.001.002.001.003.002 0 .001.001.001.002.002s.001.002.002.002c.001.001.002.002.002.003.001 0 .002.001.002.002.001.001.002.001.003.002 0 .001.001.001.002.002s.001.002.002.002c.001.001.001.002.002.003.001 0 .002.001.002.002.001.001.002.001.003.002 0 .001.001.001.002.002s.001.002.002.002c.001.001.001.002.002.003.001 0 .002.001.002.002.001.001.002.001.003.002 0 .001.001.001.002.002s.001.002.002.002c.001.001.001.002.002.003.001 0 .002.001.002.002.001 0 .002.001.003.002 0 .001.001.001.002.002s.001.002.002.002c.001.001.001.002.002.003.001 0 .002.001.002.002.001 0 .002.001.003.002 0 .001.001.001.002.002s.001.002.002.002c.001.001.001.002.002.003.001 0 .002.001.002.002.001 0 .002.001.003.002 0 .001.001.001.002.002s.001.002.002.002c.001.001.001.002.002.003.001 0 .002.001.002.002.001 0 .002.001.003.002 0 .001.001.001.002.002 0 .001.001.002.002.002.001.001.001.002.002.003.001 0 .002.001.002.002.001 0 .002.001.003.002 0 .001.001.001.002.002 0 .001.001.002.002.002.001.001.001.002.002.002.001.001.002.002.002.003.001 0 .002.001.003.002 0 .001.001.001.002.002 0 .001.001.002.002.002.001.001.001.002.002.002.001.001.002.002.002.003.001 0 .002.001.003.002 0 .001.001.001.002.002 0 .001.001.002.002.002.001.001.001.002.002.002.001.001.002.002.002.003.001 0 .002.001.003.002 0 .001.001.001.002.002 0 .001.001.002.002.002.001.001.001.002.002.002.001.001.002.002.002.003.001 0 .002.001.002.002.001.001.002.001.003.002 0 .001.001.002.002.002.001.001.001.002.002.002.001.001.002.002.002.003.001 0 .002.001.002.002.001.001.002.001.003.002 0 .001.001.001.002.002s.001.002.002.002c.001.001.002.002.002.003.001 0 .002.001.002.002.001.001.002.001.003.002 0 .001.001.001.002.002s.001.002.002.002c.001.001.002.002.002.003.001 0 .002.001.002.002.001.001.002.001.003.002 0 .001.001.001.002.002s.001.002.002.002c.001.001.002.002.002.003.001 0 .002.001.002.002.001.001.002.001.003.002 0 .001.001.001.002.002s.001.002.002.002c.001.001.001.002.002.003.001 0 .002.001.002.002.001.001.002.001.003.002 0 .001.001.001.002.002s.001.002.002.002c.001.001.001.002.002.003.001 0 .002.001.002.002.001 0 .002.001.003.002 0 .001.001.001.002.002s.001.002.002.002c.001.001.001.002.002.003.001 0 .002.001.002.002.001 0 .002.001.003.002 0 .001.001.001.002.002s.001.002.002.002c.001.001.001.002.002.003.001 0 .002.001.002.002.001 0 .002.001.003.002 0 .001.001.001.002.002s.001.002.002.002c.001.001.001.002.002.003.001 0 .002.001.002.002.001 0 .002.001.003.002 0 .001.001.001.002.002 0 .001.001.002.002.002.001.001.001.002.002.003.001 0 .002.001.002.002.001 0 .002.001.003.002 0 .001.001.001.002.002 0 .001.001.002.002.002.001.001.001.002.002.002.001.001.002.002.002.003.001 0 .002.001.003.002 0 .001.001.001.002.002 0 .001.001.002.002.002.001.001.001.002.002.002.001.001.002.002.002.003.001 0 .002.001.003.002 0 .001.001.001.002.002 0 .001.001.002.002.002.001.001.001.002.002.002.001.001.002.002.002.003.001 0 .002.001.003.002 0 .001.001.001.002.002 0 .001.001.002.002.002.001.001.001.002.002.002.001.001.002.002.002.003.001 0 .002.001.002.002.001.001.002.001.003.002 0 .001.001.002.002.002.001.001.001.002.002.002.001.001.002.002.002.003.001 0 .002.001.002.002.001.001.002.001.003.002 0 .001.001.002.002.002.001.001.001.002.002.002.001.001.002.002.002.003.001 0 .002.001.002.002.001.001.002.001.003.002 0 .001.001.001.002.002s.001.002.002.002c.001.001.002.002.002.003.001 0 .002.001.002.002.001.001.002.001.003.002 0 .001.001.001.002.002s.001.002.002.002c.001.001.002.002.002.003l.707-.708s-.001-.001-.002-.002c-.001 0-.001-.001-.002-.002s-.002-.001-.002-.002c-.001-.001-.002-.002-.002-.002-.001-.001-.002-.002-.003-.002 0-.001-.001-.002-.002-.003-.001 0-.001-.001-.002-.002s-.001-.001-.002-.002-.002-.002-.002-.002c-.001-.001-.002-.002-.003-.002 0-.001-.001-.002-.002-.003-.001 0-.001-.001-.002-.002s-.001-.001-.002-.002-.002-.002-.002-.002c-.001-.001-.002-.002-.003-.002 0-.001-.001-.002-.002-.003-.001 0-.001-.001-.002-.002s-.001-.001-.002-.002-.002-.002-.002-.002c-.001-.001-.002-.002-.003-.002 0-.001-.001-.002-.002-.003-.001 0-.001-.001-.002-.002s-.001-.001-.002-.002-.002-.002-.002-.002c-.001-.001-.002-.002-.003-.002 0-.001-.001-.002-.002-.003-.001 0-.001-.001-.002-.002s-.001-.001-.002-.002-.002-.001-.002-.002c-.001-.001-.002-.002-.003-.002 0-.001-.001-.002-.002-.003 0 0-.001-.001-.002-.002s-.001-.001-.002-.002-.002-.001-.002-.002c-.001-.001-.002-.002-.003-.002 0-.001-.001-.002-.002-.003 0 0-.001-.001-.002-.002s-.001-.001-.002-.002-.002-.001-.002-.002c-.001-.001-.002-.002-.003-.002 0-.001-.001-.002-.002-.003 0 0-.001-.001-.002-.002s-.001-.001-.002-.002-.002-.001-.002-.002c-.001-.001-.002-.002-.003-.002 0-.001-.001-.002-.002-.003 0 0-.001-.001-.002-.002s-.001-.001-.002-.002-.002-.001-.002-.002c-.001-.001-.002-.002-.003-.002 0-.001-.001-.002-.002-.003 0 0-.001-.001-.002-.002-.001 0-.001-.001-.002-.002s-.002-.001-.002-.002c-.001-.001-.002-.002-.002-.002-.001-.001-.002-.002-.003-.003 0 0-.001-.001-.002-.002-.001 0-.001-.001-.002-.002s-.002-.001-.002-.002c-.001-.001-.002-.002-.002-.002-.001-.001-.002-.002-.003-.003 0 0-.001-.001-.002-.002-.001 0-.001-.001-.002-.002s-.002-.001-.002-.002c-.001-.001-.002-.002-.002-.002-.001-.001-.002-.002-.003-.003 0 0-.001-.001-.002-.002-.001 0-.001-.001-.002-.002s-.002-.001-.002-.002c-.001-.001-.002-.002-.002-.002-.001-.001-.002-.002-.003-.003 0 0-.001-.001-.002-.002-.001 0-.001-.001-.002-.002s-.002-.001-.002-.002c-.001-.001-.002-.002-.002-.002-.001-.001-.002-.002-.003-.002 0-.001-.001-.002-.002-.003-.001 0-.001-.001-.002-.002s-.002-.001-.002-.002c-.001-.001-.002-.002-.002-.002-.001-.001-.002-.002-.003-.002 0-.001-.001-.002-.002-.003-.001 0-.001-.001-.002-.002s-.001-.001-.002-.002-.002-.002-.002-.002c-.001-.001-.002-.002-.003-.002 0-.001-.001-.002-.002-.003-.001 0-.001-.001-.002-.002s-.001-.001-.002-.002-.002-.002-.002-.002c-.001-.001-.002-.002-.003-.002 0-.001-.001-.002-.002-.003-.001 0-.001-.001-.002-.002s-.001-.001-.002-.002-.002-.002-.002-.002c-.001-.001-.002-.002-.003-.002 0-.001-.001-.002-.002-.003-.001 0-.001-.001-.002-.002s-.001-.001-.002-.002-.002-.002-.002-.002c-.001-.001-.002-.002-.003-.002 0-.001-.001-.002-.002-.003-.001 0-.001-.001-.002-.002s-.001-.001-.002-.002-.002-.001-.002-.002c-.001-.001-.002-.002-.003-.002 0-.001-.001-.002-.002-.003 0 0-.001-.001-.002-.002s-.001-.001-.002-.002-.002-.001-.002-.002c-.001-.001-.002-.002-.003-.002 0-.001-.001-.002-.002-.003 0 0-.001-.001-.002-.002s-.001-.001-.002-.002-.002-.001-.002-.002c-.001-.001-.002-.002-.003-.002 0-.001-.001-.002-.002-.003 0 0-.001-.001-.002-.002s-.001-.001-.002-.002-.002-.001-.002-.002c-.001-.001-.002-.002-.003-.002 0-.001-.001-.002-.002-.003 0 0-.001-.001-.002-.002s-.001-.001-.002-.002-.002-.001-.002-.002c-.001-.001-.002-.002-.003-.002 0-.001-.001-.002-.002-.003 0 0-.001-.001-.002-.002-.001 0-.001-.001-.002-.002s-.002-.001-.002-.002c-.001-.001-.002-.002-.002-.002-.001-.001-.002-.002-.003-.003 0 0-.001-.001-.002-.002-.001 0-.001-.001-.002-.002s-.002-.001-.002-.002c-.001-.001-.002-.002-.002-.002-.001-.001-.002-.002-.003-.003 0 0-.001-.001-.002-.002-.001 0-.001-.001-.002-.002s-.002-.001-.002-.002c-.001-.001-.002-.002-.002-.002-.001-.001-.002-.002-.003-.003 0 0-.001-.001-.002-.002-.001 0-.001-.001-.002-.002s-.002-.001-.002-.002c-.001-.001-.002-.002-.002-.002-.001-.001-.002-.002-.003-.003 0 0-.001-.001-.002-.002-.001 0-.001-.001-.002-.002s-.002-.001-.002-.002c-.001-.001-.002-.002-.002-.002-.001-.001-.002-.002-.003-.002 0-.001-.001-.002-.002-.003-.001 0-.001-.001-.002-.002s-.001-.001-.002-.002-.002-.002-.002-.002c-.001-.001-.002-.002-.003-.002 0-.001-.001-.002-.002-.003-.001 0-.001-.001-.002-.002s-.001-.001-.002-.002-.002-.002-.002-.002c-.001-.001-.002-.002-.003-.002 0-.001-.001-.002-.002-.003-.001 0-.001-.001-.002-.002s-.001-.001-.002-.002-.002-.002-.002-.002c-.001-.001-.002-.002-.003-.002 0-.001-.001-.002-.002-.003-.001 0-.001-.001-.002-.002s-.001-.001-.002-.002-.002-.002-.002-.002c-.001-.001-.002-.002-.003-.002 0-.001-.001-.002-.002-.003-.001 0-.001-.001-.002-.002s-.001-.001-.002-.002-.002-.001-.002-.002c-.001-.001-.002-.002-.003-.002 0-.001-.001-.002-.002-.003 0 0-.001-.001-.002-.002s-.001-.001-.002-.002-.002-.001-.002-.002c-.001-.001-.002-.002-.003-.002 0-.001-.001-.002-.002-.003 0 0-.001-.001-.002-.002s-.001-.001-.002-.002-.002-.001-.002-.002c-.001-.001-.002-.002-.003-.002 0-.001-.001-.002-.002-.003 0 0-.001-.001-.002-.002s-.001-.001-.002-.002-.002-.001-.002-.002c-.001-.001-.002-.002-.003-.002 0-.001-.001-.002-.002-.003 0 0-.001-.001-.002-.002s-.001-.001-.002-.002-.002-.001-.002-.002c-.001-.001-.002-.002-.003-.002 0-.001-.001-.002-.002-.003 0 0-.001-.001-.002-.002-.001 0-.001-.001-.002-.002s-.002-.001-.002-.002c-.001-.001-.002-.002-.002-.002-.001-.001-.002-.002-.003-.003 0 0-.001-.001-.002-.002-.001 0-.001-.001-.002-.002s-.002-.001-.002-.002c-.001-.001-.002-.002-.002-.002-.001-.001-.002-.002-.003-.003 0 0-.001-.001-.002-.002-.001 0-.001-.001-.002-.002s-.002-.001-.002-.002c-.001-.001-.002-.002-.002-.002-.001-.001-.002-.002-.003-.003 0 0-.001-.001-.002-.002-.001 0-.001-.001-.002-.002s-.002-.001-.002-.002c-.001-.001-.002-.002-.002-.002-.001-.001-.002-.002-.003-.003 0 0-.001-.001-.002-.002-.001 0-.001-.001-.002-.002s-.002-.001-.002-.002c-.001-.001-.002-.002-.002-.002-.001-.001-.002-.002-.003-.002 0-.001-.001-.002-.002-.003-.001 0-.001-.001-.002-.002s-.001-.001-.002-.002-.002-.002-.002-.002c-.001-.001-.002-.002-.003-.002 0-.001-.001-.002-.002-.003-.001 0-.001-.001-.002-.002s-.001-.001-.002-.002-.002-.002-.002-.002c-.001-.001-.002-.002-.003-.002 0-.001-.001-.002-.002-.003-.001 0-.001-.001-.002-.002s-.001-.001-.002-.002-.002-.002-.002-.002c-.001-.001-.002-.002-.003-.002 0-.001-.001-.002-.002-.003-.001 0-.001-.001-.002-.002s-.001-.001-.002-.002-.002-.002-.002-.002c-.001-.001-.002-.002-.003-.002 0-.001-.001-.002-.002-.003-.001 0-.001-.001-.002-.002s-.001-.001-.002-.002-.002-.001-.002-.002c-.001-.001-.002-.002-.003-.002 0-.001-.001-.002-.002-.003-.001 0-.001-.001-.002-.002s-.001-.001-.002-.002-.002-.001-.002-.002c-.001-.001-.002-.002-.003-.002 0-.001-.001-.002-.002-.003 0 0-.001-.001-.002-.002s-.001-.001-.002-.002-.002-.001-.002-.002c-.001-.001-.002-.002-.003-.002 0-.001-.001-.002-.002-.003 0 0-.001-.001-.002-.002s-.001-.001-.002-.002-.002-.001-.002-.002c-.001-.001-.002-.002-.003-.002 0-.001-.001-.002-.002-.003 0 0-.001-.001-.002-.002s-.001-.001-.002-.002-.002-.001-.002-.002c-.001-.001-.002-.002-.003-.002 0-.001-.001-.002-.002-.003 0 0-.001-.001-.002-.002s-.001-.001-.002-.002-.002-.001-.002-.002c-.001-.001-.002-.002-.003-.002 0-.001-.001-.002-.002-.003 0 0-.001-.001-.002-.002-.001 0-.001-.001-.002-.002s-.002-.001-.002-.002c-.001-.001-.002-.002-.002-.002-.001-.001-.002-.002-.003-.003 0 0-.001-.001-.002-.002-.001 0-.001-.001-.002-.002s-.002-.001-.002-.002c-.001-.001-.002-.002-.002-.002-.001-.001-.002-.002-.003-.003 0 0-.001-.001-.002-.002-.001 0-.001-.001-.002-.002s-.002-.001-.002-.002c-.001-.001-.002-.002-.002-.002-.001-.001-.002-.002-.003-.003 0 0-.001-.001-.002-.002-.001 0-.001-.001-.002-.002s-.002-.001-.002-.002c-.001-.001-.002-.002-.002-.002-.001-.001-.002-.002-.003-.003 0 0-.001-.001-.002-.002-.001 0-.001-.001-.002-.002s-.002-.001-.002-.002c-.001-.001-.002-.002-.002-.002-.001-.001-.002-.002-.003-.002 0-.001-.001-.002-.002-.003-.001 0-.001-.001-.002-.002s-.001-.001-.002-.002-.002-.002-.002-.002c-.001-.001-.002-.002-.003-.002 0-.001-.001-.002-.002-.003-.001 0-.001-.001-.002-.002s-.001-.001-.002-.002-.002-.002-.002-.002c-.001-.001-.002-.002-.003-.002 0-.001-.001-.002-.002-.003-.001 0-.001-.001-.002-.002s-.001-.001-.002-.002-.002-.002-.002-.002c-.001-.001-.002-.002-.003-.002 0-.001-.001-.002-.002-.003-.001 0-.001-.001-.002-.002s-.001-.001-.002-.002-.002-.002-.002-.002c-.001-.001-.002-.002-.003-.002 0-.001-.001-.002-.002-.003-.001 0-.001-.001-.002-.002s-.001-.001-.002-.002-.002-.001-.002-.002c-.001-.001-.002-.002-.003-.002 0-.001-.001-.002-.002-.003 0 0-.001-.001-.002-.002s-.001-.001-.002-.002-.002-.001-.002-.002c-.001-.001-.002-.002-.003-.002 0-.001-.001-.002-.002-.003 0 0-.001-.001-.002-.002s-.001-.001-.002-.002-.002-.001-.002-.002c-.001-.001-.002-.002-.003-.002 0-.001-.001-.002-.002-.003 0 0-.001-.001-.002-.002s-.001-.001-.002-.002-.002-.001-.002-.002c-.001-.001-.002-.002-.003-.002 0-.001-.001-.002-.002-.003 0 0-.001-.001-.002-.002s-.001-.001-.002-.002-.002-.001-.002-.002c-.001-.001-.002-.002-.003-.002 0-.001-.001-.002-.002-.003 0 0-.001-.001-.002-.002-.001 0-.001-.001-.002-.002s-.002-.001-.002-.002c-.001-.001-.002-.002-.002-.002-.001-.001-.002-.002-.003-.003 0 0-.001-.001-.002-.002-.001 0-.001-.001-.002-.002s-.002-.001-.002-.002c-.001-.001-.002-.002-.002-.002-.001-.001-.002-.002-.003-.003 0 0-.001-.001-.002-.002-.001 0-.001-.001-.002-.002s-.002-.001-.002-.002c-.001-.001-.002-.002-.002-.002-.001-.001-.002-.002-.003-.003 0 0-.001-.001-.002-.002-.001 0-.001-.001-.002-.002s-.002-.001-.002-.002c-.001-.001-.002-.002-.002-.002-.001-.001-.002-.002-.003-.003 0 0-.001-.001-.002-.002-.001 0-.001-.001-.002-.002s-.002-.001-.002-.002c-.001-.001-.002-.002-.002-.002-.001-.001-.002-.002-.003-.002 0-.001-.001-.002-.002-.003-.001 0-.001-.001-.002-.002s-.001-.001-.002-.002-.002-.002-.002-.002c-.001-.001-.002-.002-.003-.002 0-.001-.001-.002-.002-.003-.001 0-.001-.001-.002-.002s-.001-.001-.002-.002-.002-.002-.002-.002c-.001-.001-.002-.002-.003-.002 0-.001-.001-.002-.002-.003-.001 0-.001-.001-.002-.002s-.001-.001-.002-.002-.002-.002-.002-.002c-.001-.001-.002-.002-.003-.002 0-.001-.001-.002-.002-.003-.001 0-.001-.001-.002-.002s-.001-.001-.002-.002-.002-.002-.002-.002c-.001-.001-.002-.002-.003-.002 0-.001-.001-.002-.002-.003-.001 0-.001-.001-.002-.002s-.001-.001-.002-.002-.002-.001-.002-.002c-.001-.001-.002-.002-.003-.002 0-.001-.001-.002-.002-.003 0 0-.001-.001-.002-.002s-.001-.001-.002-.002-.002-.001-.002-.002c-.001-.001-.002-.002-.003-.002 0-.001-.001-.002-.002-.003 0 0-.001-.001-.002-.002s-.001-.001-.002-.002-.002-.001-.002-.002c-.001-.001-.002-.002-.003-.002 0-.001-.001-.002-.002-.003 0 0-.001-.001-.002-.002s-.001-.001-.002-.002-.002-.001-.002-.002c-.001-.001-.002-.002-.003-.002 0-.001-.001-.002-.002-.003 0 0-.001-.001-.002-.002s-.001-.001-.002-.002-.002-.001-.002-.002c-.001-.001-.002-.002-.003-.002 0-.001-.001-.002-.002-.003 0 0-.001-.001-.002-.002-.001 0-.001-.001-.002-.002s-.002-.001-.002-.002c-.001-.001-.002-.002-.003-.002 0-.001-.001-.002-.002-.003 0 0-.001-.001-.002-.002-.001 0-.001-.001-.002-.002s-.002-.001-.002-.002c-.001-.001-.002-.002-.002-.002-.001-.001-.002-.002-.003-.003 0 0-.001-.001-.002-.002-.001 0-.001-.001-.002-.002s-.002-.001-.002-.002c-.001-.001-.002-.002-.002-.002-.001-.001-.002-.002-.003-.003 0 0-.001-.001-.002-.002-.001 0-.001-.001-.002-.002s-.002-.001-.002-.002c-.001-.001-.002-.002-.002-.002-.001-.001-.002-.002-.003-.003 0 0-.001-.001-.002-.002-.001 0-.001-.001-.002-.002s-.002-.001-.002-.002c-.001-.001-.002-.002-.002-.002-.001-.001-.002-.002-.003-.003 0 0-.001-.001-.002-.002-.001 0-.001-.001-.002-.002s-.002-.001-.002-.002c-.001-.001-.002-.002-.002-.002-.001-.001-.002-.002-.003-.002 0-.001-.001-.002-.002-.003-.001 0-.001-.001-.002-.002s-.001-.001-.002-.002-.002-.002-.002-.002c-.001-.001-.002-.002-.003-.002 0-.001-.001-.002-.002-.003-.001 0-.001-.001-.002-.002s-.001-.001-.002-.002-.002-.002-.002-.002c-.001-.001-.002-.002-.003-.002 0-.001-.001-.002-.002-.003-.001 0-.001-.001-.002-.002s-.001-.001-.002-.002-.002-.002-.002-.002c-.001-.001-.002-.002-.003-.002 0-.001-.001-.002-.002-.003-.001 0-.001-.001-.002-.002s-.001-.001-.002-.002-.002-.002-.002-.002c-.001-.001-.002-.002-.003-.002 0-.001-.001-.002-.002-.003-.001 0-.001-.001-.002-.002s-.001-.001-.002-.002-.002-.001-.002-.002c-.001-.001-.002-.002-.003-.002 0-.001-.001-.002-.002-.003 0 0-.001-.001-.002-.002s-.001-.001-.002-.002-.002-.001-.002-.002c-.001-.001-.002-.002-.003-.002 0-.001-.001-.002-.002-.003 0 0-.001-.001-.002-.002s-.001-.001-.002-.002-.002-.001-.002-.002c-.001-.001-.002-.002-.003-.002 0-.001-.001-.002-.002-.003 0 0-.001-.001-.002-.002s-.001-.001-.002-.002-.002-.001-.002-.002c-.001-.001-.002-.002-.003-.002 0-.001-.001-.002-.002-.003 0 0-.001-.001-.002-.002s-.001-.001-.002-.002-.002-.001-.002-.002c-.001-.001-.002-.002-.003-.002 0-.001-.001-.002-.002-.003 0 0-.001-.001-.002-.002-.001 0-.001-.001-.002-.002s-.002-.001-.002-.002c-.001-.001-.002-.002-.002-.002-.001-.001-.002-.002-.003-.003 0 0-.001-.001-.002-.002-.001 0-.001-.001-.002-.002s-.002-.001-.002-.002c-.001-.001-.002-.002-.002-.002-.001-.001-.002-.002-.003-.003 0 0-.001-.001-.002-.002-.001 0-.001-.001-.002-.002s-.002-.001-.002-.002c-.001-.001-.002-.002-.002-.002-.001-.001-.002-.002-.003-.003 0 0-.001-.001-.002-.002-.001 0-.001-.001-.002-.002s-.002-.001-.002-.002c-.001-.001-.002-.002-.002-.002-.001-.001-.002-.002-.003-.003zm1.173.375c-5.002 3.861-10.253 7.348-15.753 10.461l.493.87c5.541-3.137 10.832-6.65 15.871-10.539zm3.587-.698-.491.095.007.033.011.033zm.531-1-.126-.484-.005.002zm1.094.563.474-.158-.011-.034-.016-.032zm1.531 3.187.425-.264-.005-.007zm4.438 4.969-.313.39.003.002zm5.937 2.906.176-.468-.029-.011-.03-.007zm-.437 1.625-.114.487.028.007.028.003zm-3.781-1.437-.242.437.003.002zm-5.75-4.688.379-.325-.005-.006zm-7 7.969.169.47.027-.009.026-.013zm-1.157-.344-.434.248.006.01zm.282-1.093-.227-.446-.026.013-.025.017zm4.281-2.438-.262-.426-.007.004zm12-10.906-.393-.31-.007.009zm1.156-.281.287-.41-.038-.027-.042-.019zm.313 1.156.402.297.034-.046.022-.052zm-3.032 3.625-.363-.344-.001.001zm-9.915-3.907c-.04-.209-.01-.299.005-.327.008-.015.034-.06.167-.096l-.263-.965c-.326.089-.618.273-.787.591-.162.305-.168.653-.104.986zm.167-.422c.146-.038.226-.018.277.008.059.03.148.105.243.294l.894-.447c-.155-.311-.374-.579-.679-.736-.314-.162-.655-.173-.988-.087zm.493.237c.388 1.165.917 2.265 1.585 3.301l.84-.543c-.623-.965-1.115-1.989-1.477-3.074zm1.581 3.293c1.197 1.925 2.715 3.624 4.549 5.095l.626-.78c-1.75-1.404-3.191-3.018-4.326-4.843zm4.552 5.097c1.847 1.461 3.892 2.462 6.13 3l.234-.972c-2.094-.503-4.008-1.439-5.744-2.812zm6.072 2.982c.183.069.238.138.255.168.013.023.039.085-.001.238l.968.253c.085-.327.079-.671-.095-.981-.171-.304-.459-.495-.776-.614zm.254.406c-.039.15-.093.198-.125.218-.039.025-.133.06-.334.037l-.115.993c.341.039.685.002.979-.182.301-.188.477-.484.563-.813zm-.402.264c-1.29-.302-2.509-.765-3.657-1.389l-.477.878c1.227.668 2.529 1.163 3.906 1.485zm-3.654-1.388c-2.134-1.179-4.005-2.703-5.612-4.575l-.759.651c1.684 1.961 3.648 3.562 5.888 4.799zm-5.617-4.581c-1.561-1.763-2.714-3.747-3.463-5.954l-.947.321c.792 2.334 2.013 4.434 3.661 6.296zm-7.544 7.83c-.197.071-.309.063-.368.045-.049-.014-.115-.051-.19-.176l-.857.515c.175.292.426.52.762.62.328.097.668.053.992-.064zm-.553-.122c-.082-.145-.071-.21-.067-.229.006-.023.035-.096.192-.2l-.555-.832c-.28.187-.517.441-.605.783-.089.346 0 .682.167.974zm.074-.4c1.493-.757 2.934-1.577 4.323-2.461l-.537-.844c-1.361.866-2.774 1.671-4.239 2.414zm4.316-2.457c4.741-2.908 8.788-6.585 12.138-11.031l-.799-.602c-3.274 4.346-7.228 7.939-11.862 10.781zm12.131-11.022c.106-.135.192-.178.249-.192.058-.014.153-.015.308.056l.414-.911c-.303-.137-.63-.196-.958-.116-.328.079-.591.282-.798.543zm.477-.182c.14.098.181.177.195.229.014.053.019.151-.054.318l.917.399c.135-.311.192-.646.102-.978-.09-.334-.309-.593-.586-.787zm.197.45c-.925 1.254-1.923 2.447-2.992 3.578l.727.687c1.097-1.16 2.12-2.384 3.07-3.671zm-2.993 3.579c-3.959 4.207-8.526 7.599-13.702 10.176l.445.896c5.282-2.631 9.945-6.093 13.985-10.387zm21.864 8.405.33.377.029-.026.025-.03zm-1.031 0-.376.33.027.03.031.026zm0-1.031.386.318.004-.005zm2.281-2.937-.399-.302-.001.002zm2.344-3.407-.419-.272-.005.007zm3.344-4.937-.376-.329-.018.019-.015.022zm.906-.281-.211.453.011.005zm.469.843.493.081.005-.027.001-.029zm-1.5 9.063-.243.437.658.365.082-.748zm-1.094-.625-.259-.428-.716.435.722.424zm4.656-3.875.374.332.001-.002zm4.375-5.344-.325-.38-.024.021-.022.024zm.907-.094-.258.429.011.007.011.005zm.343.813.472.166.01-.028.006-.03zm-1.031 3.187-.48-.141-.002.008-.002.008zm-.781 3.375.488.11.002-.01zm-1.375 4.938.451.215.013-.028.01-.029zm-.938.5-.143.479.011.003.011.003zm-.468-.906-.478-.147-.007.02-.004.02zm.937-3.282.483.128.001-.002zm.781-3.406-.485-.118-.003.01-.002.01zm1.438-4.781.241-.438-.513-.282-.199.55zm1.25.719.371.335.408-.451-.522-.313zm-2.25 2.718.399.302zm-2.219 2.719.368.339.007-.008zm-4.875 4 .224.447.018-.009.018-.011zm-.75 0-.252.432.014.008.014.007zm-.375-.656-.497-.053-.003.027v.026zm.688-4.719.491.092v-.001zm.843-4.719.19-.462-.576-.236-.106.613zm1.344.563.407.29.36-.506-.57-.244zm-2.25 3.281-.417-.275-.002.003zm-2.344 3.563.409.288.007-.011zm-3.954 4.342c-.102.09-.159.095-.179.095-.022 0-.087-.008-.205-.105l-.636.772c.237.195.52.333.841.333.325 0 .607-.14.838-.342zm-.326.047c-.089-.102-.095-.159-.095-.179 0-.022.008-.087.105-.205l-.772-.636c-.195.237-.333.52-.333.841 0 .325.141.607.343.838zm.014-.389c.774-.962 1.538-1.946 2.291-2.95l-.8-.6c-.746.995-1.503 1.97-2.271 2.924zm2.29-2.949c.843-1.116 1.632-2.264 2.369-3.443l-.848-.53c-.721 1.154-1.494 2.278-2.319 3.37zm2.364-3.435c1.08-1.662 2.191-3.302 3.333-4.922l-.817-.576c-1.149 1.63-2.267 3.281-3.354 4.953zm3.301-4.881c.108-.124.183-.161.217-.172.021-.007.047-.011.102.015l.422-.907c-.257-.12-.539-.15-.82-.063-.268.083-.49.259-.673.469zm.33-.152c.08.035.112.072.13.105.021.038.047.113.039.255l.999.05c.014-.274-.029-.548-.164-.791-.138-.249-.35-.425-.604-.536zm.175.304c-.249 1.516-.519 3.022-.81 4.517l.982.191c.293-1.505.564-3.02.815-4.546zm-.81 4.517c-.294 1.514-.525 3.038-.693 4.572l.994.109c.165-1.507.392-3.004.681-4.49zm.047 4.19c-.372-.207-.733-.413-1.083-.619l-.507.862c.357.21.726.421 1.104.631zm-1.077.239c1.792-1.088 3.382-2.412 4.77-3.97l-.747-.665c-1.321 1.484-2.835 2.744-4.542 3.78zm4.771-3.972c.78-.884 1.517-1.79 2.213-2.718l-.8-.6c-.68.906-1.401 1.792-2.163 2.657zm2.213-2.718c.678-.904 1.398-1.778 2.158-2.621l-.742-.67c-.781.865-1.52 1.762-2.216 2.691zm2.113-2.576c.089-.077.145-.091.171-.094.023-.002.07 0 .152.049l.515-.857c-.23-.138-.491-.215-.77-.186-.276.028-.517.155-.719.328zm.345-.033c.077.041.091.073.095.082.006.014.022.064-.004.181l.976.217c.058-.258.058-.531-.051-.787-.11-.262-.309-.449-.545-.575zm.108.205c-.378 1.071-.725 2.142-1.04 3.213l.96.282c.31-1.053.651-2.108 1.023-3.162zm-1.044 3.229c-.294 1.133-.556 2.267-.787 3.4l.98.2c.227-1.116.486-2.233.775-3.349zm-.785 3.391c-.371 1.65-.825 3.28-1.362 4.889l.949.316c.547-1.641 1.01-3.303 1.389-4.986zm-1.339 4.832c-.074.157-.141.209-.174.227-.025.013-.075.031-.19.003l-.243.97c.302.075.616.063.903-.091.28-.149.474-.399.607-.679zm-.342.236c-.06-.018-.093-.037-.109-.049-.014-.01-.018-.017-.02-.022-.006-.011-.033-.075.005-.25l-.977-.213c-.066.305-.067.631.084.922.156.303.43.48.73.57zm-.135-.28c.336-1.09.65-2.19.943-3.301l-.966-.255c-.29 1.097-.601 2.185-.932 3.262zm.944-3.303c.294-1.134.557-2.279.788-3.434l-.981-.196c-.227 1.137-.486 2.263-.775 3.379zm.783-3.414c.392-1.607.866-3.184 1.422-4.73l-.941-.339c-.568 1.58-1.052 3.191-1.452 4.833zm.711-4.461c.411.226.822.462 1.234.709l.514-.857c-.422-.253-.844-.496-1.266-.728zm1.12-.055c-.801.886-1.561 1.804-2.278 2.753l.798.603c.699-.926 1.44-1.821 2.222-2.685zm-2.278 2.753c-.701.927-1.433 1.824-2.195 2.69l.75.661c.779-.885 1.527-1.801 2.243-2.748zm-2.188 2.682c-1.406 1.528-2.995 2.831-4.767 3.911l.52.854c1.853-1.128 3.514-2.492 4.983-4.088zm-4.731 3.891c-.109.054-.193.054-.302 0l-.448.894c.391.196.807.196 1.198 0zm-.274.015c-.095-.055-.127-.109-.127-.224h-1c0 .468.218.852.623 1.088zm-.13-.172c.166-1.57.393-3.13.682-4.679l-.983-.184c-.294 1.576-.525 3.162-.693 4.758zm.682-4.68c.292-1.585.574-3.16.845-4.724l-.985-.171c-.271 1.561-.552 3.132-.843 4.713zm.163-4.347c.456.187.901.373 1.336.559l.394-.919c-.44-.188-.891-.377-1.351-.565zm1.126-.19c-.775 1.088-1.528 2.186-2.26 3.296l.834.551c.726-1.1 1.473-2.189 2.24-3.267zm-2.262 3.299c-.77 1.186-1.55 2.371-2.341 3.557l.832.555c.793-1.189 1.575-2.378 2.347-3.568zm-2.333 3.546c-1.138 1.614-2.338 3.176-3.6 4.687l.767.641c1.28-1.531 2.496-3.115 3.65-4.751zm18.096-8.024-.41-.287-.016.023-.013.024zm1.031-.281-.25.433zm.313 1.062.44.238.014-.027.011-.029zm-5.25 12.438.458.199.011-.024.008-.025zm-1 .531-.138.481.006.001zm-.532-.937-.477-.15-.01.033-.006.034zm1.907-5.438.062.496.03-.004.029-.007zm-.407-1.531-.133-.482-.034.009-.032.014zm1.844-.344-.045-.498-.005.001zm1.406 0-.043.498.022.002h.021zm1.75.125-.07.495h.002zm1.532.781.4-.298-.018-.025-.02-.022zm.093 3.313.411.284.006-.008.005-.008zm-1.406 1.25-.23-.444-.007.004zm-1.719.781-.177-.468-.007.003zm-3.968 1.563.085.492.05-.008.046-.019zm-.969-.532-.493.086.008.047.018.045zm.531-.968.178.467.009-.004zm3.875-1.532-.165-.472-.008.003-.007.003zm1.25-.531-.215-.451-.009.004zm1.063-.812.388.315.012-.016.012-.016zm.281-1.063h-.5v.028l.003.027zm-.469-.625.235-.441-.041-.022-.045-.014zm-1.125-.156-.024.499.012.001h.012zm-1.312-.031-.032.499.016.001h.016zm-1 .031-.062-.496.062.996zm-.219.031-.062-.496-.018.002-.018.004zm-.313.063-.098-.491-.017.004-.016.004zm12.438-7.125-.41-.287-.016.023-.013.024zm1.344.781.44.237.014-.027.011-.028zm-5.25 12.437.458.2.011-.025.008-.025zm-1 .532-.138.48.006.002zm-.532-.938-.477-.149-.01.033-.006.034zm-3.778-12.588c.107-.153.179-.182.199-.187.009-.003.056-.016.173.052l.501-.866c-.28-.162-.603-.242-.937-.151-.324.088-.57.314-.755.578zm.372-.135c.114.066.138.119.145.145.011.036.021.126-.048.302l.931.364c.119-.302.17-.63.077-.948-.097-.328-.323-.566-.604-.729zm.122.392c-2.16 4.007-3.923 8.182-5.286 12.525l.954.3c1.344-4.283 3.082-8.399 5.213-12.35zm-5.268 12.475c-.076.176-.148.232-.182.25-.027.015-.088.037-.228-.001l-.263.964c.319.087.654.083.96-.079.299-.159.498-.431.63-.735zm-.404.25c-.128-.036-.156-.08-.163-.094-.013-.022-.043-.098-.013-.28l-.986-.165c-.053.318-.036.649.129.938.169.299.449.474.758.563zm-.192-.307c1.387-4.427 3.186-8.668 5.4-12.722l-.878-.48c-2.245 4.113-4.07 8.414-5.476 12.903zm1.368-6.083c-.181.023-.261-.009-.291-.026-.022-.014-.067-.049-.104-.178l-.962.275c.089.309.262.586.552.76.283.17.609.201.929.161zm-.395-.204c-.036-.124-.015-.172-.003-.192.016-.031.073-.103.253-.181l-.399-.917c-.3.131-.571.325-.731.617-.166.303-.171.634-.082.948zm.183-.349c.577-.159 1.164-.269 1.761-.328l-.1-.995c-.653.065-1.295.185-1.927.359zm1.756-.328c.428-.039.867-.039 1.318 0l.087-.996c-.508-.044-1.006-.044-1.495 0zm1.361.002c.56 0 1.119.04 1.68.12l.141-.99c-.607-.087-1.213-.13-1.821-.13zm1.682.12c.493.068.9.276 1.237.631l.725-.69c-.496-.52-1.11-.833-1.825-.931zm1.199.585c.347.466.506.91.518 1.34.012.432-.122.897-.446 1.405l.844.537c.406-.637.621-1.297.602-1.97-.02-.674-.272-1.313-.717-1.909zm.083 2.729c-.33.478-.738.838-1.225 1.091l.46.888c.638-.331 1.168-.804 1.587-1.41zm-1.232 1.095c-.521.28-1.074.532-1.659.754l.355.935c.623-.237 1.216-.506 1.778-.809zm-1.666.756c-1.312.521-2.634 1.041-3.966 1.562l.363.931c1.335-.521 2.658-1.042 3.972-1.563zm-3.87 1.535c-.164.028-.241.003-.276-.016-.031-.018-.087-.062-.14-.201l-.934.356c.113.299.302.562.594.722.288.158.612.179.927.124zm-.391-.124c-.028-.164-.002-.242.017-.276.017-.031.061-.087.2-.14l-.356-.935c-.299.114-.562.303-.721.594-.159.289-.18.613-.125.928zm.226-.42c1.29-.52 2.579-1.029 3.869-1.528l-.361-.933c-1.294.501-2.588 1.012-3.882 1.534zm3.853-1.523c.438-.153.874-.338 1.309-.556l-.448-.894c-.398.199-.796.368-1.191.506zm1.3-.552c.496-.236.912-.55 1.236-.948l-.777-.631c-.218.269-.51.496-.889.677zm1.26-.98c.291-.425.422-.898.366-1.401l-.994.11c.027.247-.03.482-.196.724zm.369-1.346c0-.508-.335-.853-.734-1.066l-.47.882c.113.061.165.112.187.14.016.022.017.032.017.044zm-.82-1.102c-.39-.122-.816-.179-1.274-.179v1c.376 0 .699.047.976.133zm-1.25-.179c-.446-.021-.891-.031-1.336-.031v1c.429 0 .859.01 1.288.03zm-1.305-.03c-.365-.023-.729-.012-1.093.034l.124.992c.302-.038.604-.047.906-.028zm-1.031 1.03c-.001 0-.031 0-.068-.005-.012-.002-.032-.005-.057-.011-.018-.005-.071-.02-.129-.055-.047-.028-.206-.135-.238-.358-.033-.231.098-.38.141-.424.052-.052.102-.079.12-.088.023-.013.043-.021.054-.025.022-.009.04-.014.047-.015.015-.005.027-.007.03-.008.009-.001.009-.001-.01.002-.032.004-.088.012-.171.022l.124.992c.083-.01.147-.019.188-.024.017-.003.043-.007.065-.011.005-.001.02-.004.037-.009.008-.002.026-.007.049-.016.011-.004.031-.012.055-.025.018-.009.068-.037.12-.088.043-.044.174-.194.141-.425-.032-.223-.191-.33-.238-.358-.059-.035-.111-.05-.13-.055-.025-.006-.045-.009-.057-.011-.039-.006-.07-.005-.073-.005zm-.317-.959c-.062.012-.095.019-.157.031-.023.005-.054.011-.078.016-.023.004-.055.011-.078.015l.196.981c.062-.013.095-.019.157-.031.023-.005.055-.011.078-.016s.055-.011.078-.016zm-.346.07c-.226.062-.462.123-.709.185l.243.97c.253-.063.496-.127.729-.19zm12.978-6.356c.107-.153.179-.182.199-.187.009-.002.056-.016.173.052l.501-.865c-.28-.162-.603-.243-.937-.152-.324.089-.57.315-.755.579zm.372-.135c.114.066.138.12.145.146.011.036.021.125-.048.302l.931.364c.119-.303.17-.63.077-.948-.097-.328-.323-.567-.604-.729zm.122.392c-2.16 4.008-3.923 8.183-5.286 12.526l.954.299c1.344-4.282 3.082-8.399 5.213-12.35zm-5.268 12.476c-.076.175-.148.232-.182.25-.027.014-.088.036-.228-.002l-.263.965c.319.087.654.083.96-.08.299-.159.498-.43.63-.734zm-.404.25c-.128-.037-.156-.08-.163-.094-.013-.023-.043-.098-.013-.281l-.986-.164c-.053.317-.036.648.129.938.169.299.449.474.758.562zm-.192-.308c1.387-4.427 3.186-8.667 5.4-12.722l-.878-.479c-2.245 4.112-4.07 8.413-5.476 12.903zm18.43-9.961.495.07.002-.016.001-.016zm-1.688 0-.497-.053-.001.011zm-1.125-2.094.219-.45-.044-.021-.048-.013zm-2.406.125-.169-.471-.007.003zm-4.063 3.125.392.31.008-.01.007-.01zm-1.937 5.094-.499-.028-.001.007v.008zm.812 2.062-.353.354.016.016.017.014zm2.188.75v-.5h-.013zm2.562-.75.278.416.007-.005zm1.813-2.031-.407-.291-.017.024-.014.026zm1.094-.281-.258.428.009.006zm.343 1.125.437.243.014-.025.011-.026zm-2.875 2.906.239.439.003-.001zm-3.937.625.079-.494h-.001zm-2.875-1.719-.415.279.008.012.009.012zm-.781-3.187-.497-.06-.001.006zm2.906-6.407.372.334.005-.005.004-.006zm5.656-3.218-.079-.494h-.002zm2.906.625.313-.391-.019-.015-.021-.013zm.912 3.179c-.034.233-.097.337-.139.38-.029.03-.08.066-.21.066v1c.348 0 .678-.111.93-.372.24-.249.358-.582.409-.933zm-.349.446c-.062 0-.146-.021-.262-.124l-.664.747c.259.231.571.377.926.377zm-.262-.124c-.07-.062-.091-.117-.084-.21l-.996-.083c-.034.407.111.769.416 1.04zm-.085-.199c.06-.565-.014-1.09-.26-1.547-.246-.458-.641-.804-1.143-1.049l-.438.899c.352.172.572.384.7.623.13.241.191.555.147.969zm-1.495-2.63c-.895-.235-1.8-.186-2.702.138l.338.941c.723-.259 1.421-.293 2.11-.112zm-2.709.141c-1.76.66-3.195 1.764-4.294 3.302l.814.581c.985-1.378 2.258-2.357 3.831-2.947zm-4.279 3.282c-1.251 1.581-1.935 3.377-2.044 5.377l.998.055c.098-1.792.706-3.391 1.83-4.811zm-2.045 5.392c-.024.946.297 1.767.959 2.429l.707-.708c-.463-.463-.684-1.017-.666-1.696zm.992 2.459c.721.601 1.569.89 2.52.866l-.025-1c-.715.018-1.325-.193-1.855-.634zm2.508.866c1.05 0 2.002-.276 2.84-.834l-.555-.832c-.663.442-1.419.666-2.285.666zm2.847-.839c.817-.567 1.472-1.303 1.966-2.201l-.876-.482c-.423.768-.976 1.386-1.66 1.861zm1.935-2.152c.116-.163.197-.197.225-.204.018-.005.076-.016.204.061l.515-.857c-.288-.173-.621-.262-.968-.173-.336.087-.594.318-.79.592zm.438-.137c.141.08.174.146.184.18.013.041.023.135-.053.318l.923.385c.132-.317.189-.66.087-.995-.104-.341-.348-.587-.644-.757zm.156.447c-.666 1.194-1.558 2.093-2.68 2.712l.483.876c1.295-.715 2.319-1.753 3.07-3.101zm-2.678 2.711c-1.082.589-2.282.783-3.619.57l-.158.988c1.538.245 2.963.023 4.255-.68zm-3.62.57c-1.06-.167-1.904-.672-2.555-1.528l-.796.606c.807 1.061 1.88 1.702 3.195 1.91zm-2.539-1.504c-.578-.859-.811-1.804-.698-2.855l-.995-.107c-.137 1.282.151 2.463.864 3.52zm-.699-2.849c.279-2.335 1.204-4.375 2.782-6.132l-.744-.668c-1.715 1.91-2.727 4.141-3.031 6.681zm2.791-6.143c1.424-1.681 3.204-2.693 5.357-3.048l-.163-.987c-2.389.395-4.381 1.529-5.957 3.389zm5.354-3.048c.917-.147 1.761.034 2.554.551l.546-.838c-.998-.65-2.092-.887-3.258-.7zm2.515.522c.912.73 1.311 1.652 1.22 2.821l.997.077c.117-1.497-.421-2.742-1.592-3.679zm2.312 13.422.216.451.048-.023.041-.032zm-1.187-.312-.451.215.019.04.025.035zm.312-1.188.291.407.008-.006.008-.006zm13.938-12.5-.329-.376-.016.013-.015.015zm1.031-.125-.254.431.011.006zm.406.969.48.142.003-.013.004-.013zm-2.812 12.375.468.175.018-.047.008-.05zm-1.063.594-.182.465.041.016.043.009zm-.593-1.063.493.079.001-.003zm2.781-12.375.252-.432-.55-.321-.181.611zm1.469.875.359.348.435-.45-.534-.325zm-14.497 12.299c-.166.079-.261.075-.314.061-.054-.014-.141-.059-.251-.213l-.814.581c.203.284.469.509.811.599.343.091.685.024.999-.126zm-.521-.077c-.079-.165-.075-.261-.061-.313.014-.054.059-.142.213-.252l-.581-.814c-.284.203-.509.469-.599.811-.091.343-.024.685.126.999zm.168-.577c4.956-3.848 9.62-8.03 13.99-12.547l-.719-.696c-4.337 4.483-8.966 8.634-13.884 12.453zm13.96-12.519c.112-.098.191-.124.239-.13.043-.005.109.001.21.06l.507-.862c-.254-.149-.537-.227-.838-.19-.296.036-.555.176-.776.37zm.459-.064c.112.062.149.118.165.155.016.039.032.116-.002.261l.973.232c.069-.293.07-.596-.049-.88-.12-.286-.338-.496-.601-.642zm.17.389c-1.215 4.084-2.157 8.23-2.827 12.439l.988.157c.663-4.165 1.595-8.269 2.798-12.311zm-2.801 12.342c-.066.175-.137.238-.182.263s-.134.052-.315.016l-.196.981c.341.068.689.049.998-.124.31-.173.509-.459.631-.785zm-.413.304c-.161-.063-.224-.133-.253-.185-.03-.053-.058-.15-.029-.333l-.987-.158c-.054.338-.025.678.143.979.169.303.444.504.762.628zm-.281-.521c.642-4.165 1.564-8.268 2.766-12.308l-.958-.285c-1.215 4.084-2.147 8.231-2.797 12.441zm2.035-12.019c.497.29.984.58 1.461.87l.52-.854c-.482-.293-.975-.587-1.477-.88zm1.361.095c-4.441 4.587-9.183 8.821-14.227 12.702l.61.792c5.082-3.91 9.861-8.177 14.336-12.798zm.391 13.723.079.494.044-.007.042-.015zm-.969-.531-.488.111.004.013.003.013zm.531-1.031-.145-.479-.041.012-.037.019zm2.688-1.219-.261-.427-.004.003zm2.5-1.625-.28-.415-.005.004zm5.562-3.75-.223-.447-.029.014-.027.018zm1.032.281-.439.241.008.013.008.013zm-.219 1.094.281.413.021-.014.02-.017zm-5.688 3.875-.281-.413-.01.006-.009.007zm4.813-11.219.207-.455-.039-.018-.042-.011zm.5 1-.483-.132-.002.011-.003.01zm-.938.563-.123.484.022.006.022.003zm-2.812.593.277.416.008-.005.007-.005zm-1.844 2.313.46.196.002-.004zm.5 2.625-.358.348.019.02.021.018zm1.25.406.022.5.011-.001.01-.001zm1.344-.344-.201-.458-.004.002zm2.062-2.156-.451-.216-.009.02-.008.02zm1-.531-.137.481.006.001zm.563.969.469.173.017-.046.008-.048zm-3.5 3.406-.162-.473-.005.001zm-2.156.219-.073.494.002.001zm-1.875-1-.389.314.014.017.014.015zm-.75-4.063-.471-.169-.003.008-.003.009zm2.593-3.281-.279-.415-.003.002zm5.688.156-.451-.216-.012.025-.009.026zm1.562.438.472.166.012-.033.007-.035zm-2 6.125-.479-.144-.001.003zm-1.093 6.281.493.079.004-.025.002-.025zm-1.594 0-.5-.024-.001.032.002.032zm1.094-6.5.479.141.001-.001zm-9.923 6.412c-.197.032-.284.002-.314-.015-.018-.01-.06-.037-.095-.16l-.962.275c.09.315.272.595.577.762.293.161.628.178.952.126zm-.402-.148c-.032-.14-.012-.216.011-.262.027-.051.091-.129.256-.211l-.447-.895c-.294.147-.547.356-.698.648-.153.298-.17.623-.098.942zm.189-.442c.999-.304 1.935-.729 2.807-1.273l-.53-.848c-.796.497-1.651.885-2.568 1.164zm2.802-1.27c.862-.526 1.704-1.073 2.524-1.641l-.569-.822c-.804.557-1.629 1.093-2.476 1.609zm2.519-1.638c.075-.05.099-.066.174-.117.075-.05.099-.067.174-.117s.099-.067.174-.117c.074-.051.099-.067.174-.117.074-.051.099-.067.173-.118.075-.05.1-.066.174-.117.075-.05.099-.067.174-.117s.099-.067.174-.117.099-.067.174-.117c.04-.027.047-.032.087-.059s.047-.032.087-.058c.039-.027.133-.091.173-.118s.134-.09.174-.117.134-.09.174-.117.134-.09.174-.117.134-.091.174-.117c.04-.027.134-.091.174-.118.058-.039.028-.019.086-.058.059-.04.029-.019.087-.059.059-.039.029-.019.087-.058.059-.04.029-.019.087-.059.059-.039.029-.019.087-.059.059-.039.028-.019.087-.058.059-.04.028-.019.087-.059.059-.039.028-.019.087-.058.058-.04.028-.019.087-.059.058-.039.028-.019.087-.059.058-.039.028-.019.087-.058.058-.04.028-.019.087-.059.058-.039.028-.019.086-.058.059-.04.029-.019.087-.059.059-.039.029-.019.087-.059.059-.039.029-.019.087-.058.059-.04.028-.019.087-.059.059-.039.028-.019.087-.058.059-.04.028-.019.087-.059.058-.039.028-.019.087-.058.058-.04.028-.02.087-.059.058-.04.028-.019.087-.059.058-.039.028-.019.087-.058.058-.04.028-.019.086-.059.059-.039.029-.019.087-.058.059-.04.029-.02.087-.059.059-.04.029-.019.087-.059.059-.039.029-.019.087-.058.059-.04.028-.019.087-.059.059-.039.028-.019.087-.058.059-.04.028-.02.087-.059.058-.04.028-.019.087-.059l-.559-.829c-.021.014-.023.016-.044.03-.02.013-.023.015-.043.029-.021.014-.023.015-.044.029-.02.014-.022.016-.043.029-.021.014-.023.016-.043.03-.021.014-.023.015-.044.029s-.023.015-.043.029c-.021.014-.023.016-.044.03-.02.013-.023.015-.043.029-.021.014-.023.015-.044.029-.02.014-.023.016-.043.029-.021.014-.023.016-.044.03-.02.014-.023.015-.043.029-.021.014-.023.015-.044.029-.02.014-.022.016-.043.03s-.023.015-.044.029c-.02.014-.022.015-.043.029s-.023.016-.043.03c-.021.013-.023.015-.044.029-.02.014-.023.015-.043.029-.021.014-.023.016-.044.029-.02.014-.023.016-.043.03-.021.014-.023.015-.044.029-.008.005-.013.009-.021.015-.008.005-.014.009-.022.014-.04.027-.134.091-.174.118-.04.026-.134.09-.174.117s-.134.09-.174.117-.134.09-.173.117c-.04.027-.134.09-.174.117s-.134.091-.174.117c-.04.027-.134.091-.174.118s-.134.09-.174.117-.134.09-.174.117-.134.09-.173.117c-.059.04-.029.019-.087.059-.059.039-.029.019-.087.058-.059.04-.029.019-.087.059-.059.039-.029.019-.087.059-.059.039-.028.019-.087.058-.059.04-.028.019-.087.059-.059.039-.028.019-.087.058-.058.04-.028.019-.087.059-.008.005-.035.024-.043.029-.008.006-.036.024-.044.03-.008.005-.035.023-.043.029-.008.005-.036.024-.044.029-.008.006-.035.024-.043.029-.008.006-.035.024-.044.03-.008.005-.035.024-.043.029s-.014.009-.022.015c-.008.005-.013.009-.021.014-.008.006-.014.01-.022.015s-.014.009-.022.015c-.008.005-.014.009-.022.014-.008.006-.013.01-.021.015s-.014.009-.022.015c-.008.005-.014.009-.022.014-.008.006-.013.009-.022.015-.008.005-.013.009-.021.015-.008.005-.014.009-.022.014-.008.006-.014.009-.022.015-.008.005-.013.009-.021.014-.008.006-.014.01-.022.015-.008.006-.014.009-.022.015-.008.005-.014.009-.022.014-.008.006-.013.01-.021.015s-.014.009-.022.015c-.008.005-.014.009-.022.014-.008.006-.013.01-.022.015-.008.005-.013.009-.021.015-.008.005-.014.009-.022.014-.008.006-.014.01-.022.015s-.013.009-.021.015c-.008.005-.014.009-.022.014-.008.006-.014.009-.022.015-.008.005-.014.009-.022.015-.008.005-.013.009-.021.014-.008.006-.014.009-.022.015-.008.005-.014.009-.022.014-.008.006-.013.01-.022.015-.008.006-.013.009-.021.015-.008.005-.014.009-.022.014-.008.006-.014.01-.022.015-.008.006-.013.009-.021.015-.009.005-.014.009-.022.014-.008.006-.014.01-.022.015s-.014.009-.022.015c-.008.005-.013.009-.021.014-.008.006-.014.01-.022.015s-.014.009-.022.015c-.008.005-.014.009-.022.014-.008.006-.013.009-.021.015-.008.005-.014.009-.022.015-.008.005-.014.009-.022.014-.008.006-.013.009-.021.015-.009.005-.014.009-.022.015-.008.005-.014.009-.022.014-.008.006-.014.009-.022.015-.008.005-.013.009-.021.014-.008.006-.014.01-.022.015-.008.006-.014.009-.022.015-.008.005-.014.009-.022.014-.008.006-.013.01-.021.015s-.014.009-.022.015c-.008.005-.014.009-.022.014-.008.006-.013.01-.021.015-.009.005-.014.009-.022.015-.008.005-.014.009-.022.014-.008.006-.014.01-.022.015s-.013.009-.021.015c-.008.005-.014.009-.022.014-.008.006-.014.009-.022.015-.008.005-.014.009-.022.015-.008.005-.013.009-.021.014-.008.006-.014.009-.022.015-.008.005-.014.009-.022.014-.008.006-.013.01-.022.015-.008.006-.013.009-.021.015-.008.005-.014.009-.022.014-.008.006-.014.01-.022.015-.008.006-.013.009-.021.015-.008.005-.014.009-.022.014-.008.006-.014.01-.022.015s-.014.009-.022.015c-.008.005-.013.009-.021.014-.008.006-.014.01-.022.015s-.014.009-.022.015c-.008.005-.013.009-.022.014-.008.006-.013.009-.021.015-.008.005-.014.009-.022.015-.008.005-.014.009-.022.014zm5.507-3.717c.167-.083.236-.069.246-.066.002 0 .051.01.123.141l.877-.482c-.158-.286-.395-.531-.737-.624-.333-.091-.665-.009-.956.137zm.385.101c.075.119.07.179.065.205-.007.035-.039.117-.183.239l.644.765c.251-.211.454-.478.52-.808.067-.338-.026-.658-.201-.935zm-.078.414c-.034.023-.143.097-.177.121-.035.023-.144.098-.178.121s-.144.098-.178.121-.144.098-.178.121-.143.098-.177.121-.144.098-.178.121-.144.098-.178.121-.144.098-.178.121c-.034.024-.143.098-.177.121-.034.024-.144.098-.178.122-.034.023-.144.097-.178.121-.034.023-.143.097-.178.121-.034.023-.143.098-.177.121s-.144.098-.178.121-.144.098-.178.121-.143.098-.177.121c-.011.007-.079.053-.089.061-.011.007-.079.053-.089.06-.011.007-.078.054-.089.061s-.078.053-.089.06-.078.054-.089.061c-.01.007-.078.053-.089.06-.01.008-.078.054-.089.061-.01.007-.078.053-.088.06-.011.008-.079.054-.089.061-.011.007-.079.053-.089.061-.011.007-.078.053-.089.06s-.078.053-.089.061c-.01.007-.078.053-.089.06-.01.007-.078.054-.089.061-.01.007-.078.053-.088.06-.011.008-.079.054-.089.061-.011.007-.079.053-.089.06-.011.008-.079.054-.089.061-.011.007-.078.053-.089.06-.011.008-.078.054-.089.061-.031.021-.058.04-.089.061-.03.021-.058.039-.089.06-.03.021-.058.04-.088.061-.031.021-.059.039-.089.06-.031.021-.058.04-.089.061s-.058.039-.089.06-.058.04-.089.061-.058.039-.089.06-.058.04-.089.061c-.03.021-.058.04-.088.06-.031.021-.059.04-.089.061-.031.021-.058.04-.089.061l.563.826c.004-.003.007-.005.011-.008.004-.002.007-.005.011-.007.004-.003.007-.005.011-.008.004-.002.008-.005.011-.007.004-.003.008-.005.011-.008.004-.002.008-.005.011-.007.004-.003.008-.005.012-.008.003-.002.007-.005.011-.008.003-.002.007-.005.011-.007.004-.003.007-.005.011-.008.004-.002.007-.005.011-.007.004-.003.007-.005.011-.008.004-.002.008-.005.011-.007.004-.003.008-.005.011-.008.004-.002.008-.005.011-.008.004-.002.008-.005.012-.007.003-.003.007-.005.011-.008.003-.002.007-.005.011-.007.003-.003.007-.005.011-.008.004-.002.007-.005.011-.007.004-.003.007-.005.011-.008.004-.002.008-.005.011-.007.004-.003.008-.006.011-.008.004-.003.008-.005.011-.008.004-.002.008-.005.012-.007.003-.003.007-.005.011-.008.003-.002.007-.005.011-.007.003-.003.007-.005.011-.008.004-.002.007-.005.011-.007.004-.003.007-.006.011-.008.004-.003.007-.005.011-.008.004-.002.008-.005.011-.007.004-.003.008-.005.011-.008.004-.002.008-.005.012-.007.003-.003.007-.005.011-.008.003-.002.007-.005.011-.007.003-.003.007-.005.011-.008s.007-.005.011-.008c.004-.002.007-.005.011-.007.004-.003.007-.005.011-.008.004-.002.008-.005.011-.007.004-.003.008-.005.011-.008.004-.002.008-.005.011-.007.004-.003.008-.005.012-.008.003-.003.007-.005.011-.008.003-.002.007-.005.011-.007.004-.003.007-.005.011-.008.004-.002.007-.005.011-.007.004-.003.007-.005.011-.008.004-.002.008-.005.011-.007.004-.003.008-.005.011-.008.004-.003.008-.005.011-.008.004-.002.008-.005.012-.007.003-.003.007-.005.011-.008.003-.002.007-.005.011-.007.003-.003.007-.005.011-.008.004-.002.007-.005.011-.007.004-.003.007-.005.011-.008.004-.002.008-.005.011-.008.004-.002.008-.005.011-.007.004-.003.008-.005.011-.008.004-.002.008-.005.012-.007.003-.003.007-.005.011-.008.003-.002.007-.005.011-.007.003-.003.007-.005.011-.008.004-.002.007-.005.011-.008.004-.002.007-.005.011-.007.004-.003.007-.005.011-.008.004-.002.008-.005.011-.007.004-.003.008-.005.011-.008.004-.002.008-.005.012-.007.003-.003.007-.005.011-.008.003-.002.007-.005.011-.007.003-.003.007-.006.011-.008.004-.003.007-.005.011-.008.004-.002.007-.005.011-.007.004-.003.007-.005.011-.008.004-.002.008-.005.011-.007.004-.003.008-.005.011-.008.004-.002.008-.005.011-.007.004-.003.008-.006.012-.008.003-.003.007-.005.011-.008.003-.002.007-.005.011-.007.004-.003.007-.005.011-.008.004-.002.007-.005.011-.007.004-.003.007-.005.011-.008.004-.002.008-.005.011-.007.004-.003.008-.005.011-.008.004-.003.008-.005.011-.008.004-.002.008-.005.012-.007.003-.003.007-.005.011-.008.003-.002.007-.005.011-.007.003-.003.007-.005.011-.008.004-.002.007-.005.011-.007.004-.003.007-.005.011-.008s.008-.005.011-.008c.034-.023.144-.097.178-.121.034-.023.144-.098.178-.121s.143-.098.177-.121c.035-.023.144-.098.178-.121s.144-.098.178-.121.144-.098.178-.121.143-.098.177-.121.144-.098.178-.121c.034-.024.144-.098.178-.121.034-.024.143-.098.178-.121.01-.008.078-.054.088-.061.011-.007.079-.053.089-.061.011-.007.079-.053.089-.06.011-.007.078-.053.089-.061.011-.007.078-.053.089-.06.01-.007.078-.054.089-.061.01-.007.078-.053.089-.06.01-.008.078-.054.089-.061.01-.007.078-.053.088-.06.011-.008.079-.054.089-.061.011-.007.079-.053.089-.061.011-.007.078-.053.089-.06s.078-.053.089-.061c.01-.007.078-.053.089-.06.01-.007.078-.053.089-.061.01-.007.078-.053.088-.06.011-.007.079-.054.089-.061.011-.007.079-.053.089-.06.011-.008.078-.054.089-.061s.078-.053.089-.06c.011-.008.078-.054.089-.061.01-.007.078-.053.089-.061.01-.007.078-.053.089-.06.01-.007.078-.053.088-.061.011-.007.079-.053.089-.06.011-.007.079-.054.089-.061.011-.007.078-.053.089-.06s.078-.054.089-.061c.01-.007.078-.053.089-.06.01-.008.078-.054.089-.061.01-.007.078-.053.088-.06.011-.008.079-.054.089-.061zm-5.706 3.888c-1.626 1.219-3.393 2.164-5.303 2.834l.331.944c2.007-.705 3.865-1.698 5.572-2.978zm4.906-10.364c.161.074.212.142.228.175.015.029.036.094-.004.238l.965.264c.086-.315.086-.645-.066-.949-.15-.3-.412-.503-.709-.638zm.219.434c-.031.137-.074.162-.082.167-.019.011-.094.044-.289.013l-.158.987c.326.052.668.034.962-.143.304-.183.469-.481.542-.802zm-.326.189c-1.137-.29-2.225-.051-3.229.673l.585.811c.789-.568 1.575-.725 2.397-.515zm-3.214.662c-.903.603-1.577 1.456-2.027 2.536l.923.385c.383-.919.938-1.608 1.659-2.089zm-2.026 2.533c-.239.563-.324 1.127-.219 1.68.106.552.392 1.049.821 1.489l.716-.697c-.321-.33-.493-.656-.554-.979-.062-.323-.021-.685.156-1.101zm.642 3.207c.454.374.993.546 1.59.52l-.044-.999c-.362.015-.656-.084-.91-.293zm1.611.518c.532-.046 1.035-.174 1.506-.386l-.41-.912c-.363.164-.756.265-1.182.302zm1.501-.384c1.121-.49 1.907-1.309 2.33-2.438l-.936-.352c-.326.871-.915 1.49-1.795 1.874zm2.313-2.398c.087-.182.165-.245.206-.267.029-.015.084-.034.206.001l.275-.962c-.316-.09-.647-.083-.95.078-.293.156-.496.42-.639.718zm.418-.265c.138.038.172.086.183.105.016.028.048.11.017.303l.988.158c.052-.329.031-.668-.14-.963-.176-.304-.465-.48-.785-.568zm.225.313c-.573 1.546-1.626 2.572-3.193 3.107l.323.946c1.85-.632 3.13-1.877 3.808-3.706zm-3.198 3.108c-.634.224-1.271.288-1.919.196l-.141.99c.81.115 1.61.034 2.393-.243zm-1.917.196c-.588-.087-1.115-.362-1.587-.852l-.721.693c.611.635 1.335 1.026 2.163 1.148zm-1.559-.82c-.871-1.076-1.091-2.254-.662-3.596l-.953-.304c-.529 1.658-.249 3.188.838 4.529zm-.668-3.579c.441-1.227 1.236-2.238 2.405-3.037l-.564-.826c-1.33.909-2.265 2.086-2.782 3.525zm2.402-3.035c1.156-.777 2.364-.988 3.658-.65l.252-.968c-1.581-.412-3.082-.143-4.468.788zm5.86-.043c.085-.178.163-.241.207-.264.037-.019.104-.038.241-.001l.264-.965c-.321-.087-.655-.081-.962.077-.3.155-.508.419-.652.721zm.448-.265c.139.038.164.084.17.094.012.021.042.1.003.294l.981.197c.065-.326.059-.67-.107-.972-.171-.312-.463-.49-.783-.578zm.192.32c-.711 2.007-1.38 4.057-2.008 6.148l.958.287c.623-2.075 1.287-4.109 1.993-6.102zm-2.009 6.151c-.614 2.098-.985 4.229-1.113 6.392l.999.059c.122-2.087.48-4.143 1.074-6.17zm-1.107 6.343c-.031.191-.087.268-.12.298-.026.024-.084.062-.23.062v1c.332 0 .655-.093.91-.328.249-.231.374-.544.427-.874zm-.35.36c-.132 0-.164-.034-.171-.042-.016-.016-.065-.084-.081-.279l-.997.08c.026.325.123.648.357.892.243.253.565.349.892.349zm-.251-.258c.103-2.168.46-4.295 1.074-6.382l-.959-.282c-.636 2.163-1.008 4.369-1.114 6.617zm1.075-6.383c.622-2.138 1.297-4.244 2.023-6.319l-.944-.33c-.732 2.092-1.412 4.215-2.04 6.369zm7.27-6.328-.491.095.006.033.011.033zm.531-1-.126-.484-.006.002zm1.094.563.474-.158-.011-.034-.016-.032zm1.531 3.187.424-.264-.004-.007zm4.437 4.969-.313.39.003.002zm5.938 2.906.175-.468-.028-.011-.03-.007zm-.438 1.625-.114.487.028.007.029.003zm-3.781-1.437-.242.437.003.002zm-5.75-4.688.379-.325-.005-.006zm-7 7.969.169.47.028-.009.026-.013zm-1.156-.344-.434.248.005.01zm.281-1.093-.226-.446-.027.013-.024.017zm4.281-2.438-.261-.426-.007.004zm12-10.906-.392-.31-.007.009zm1.157-.281.286-.41-.038-.027-.042-.019zm.312 1.156.402.297.034-.046.023-.052zm-3.031 3.625-.364-.344v.001zm-9.915-3.907c-.041-.209-.01-.299.005-.327.008-.015.034-.06.166-.096l-.263-.965c-.325.089-.617.273-.786.591-.162.305-.168.653-.104.986zm.166-.422c.147-.038.227-.018.278.008.059.03.148.105.242.294l.895-.447c-.156-.311-.374-.579-.68-.736-.313-.162-.655-.173-.987-.087zm.493.237c.389 1.165.917 2.265 1.586 3.301l.84-.543c-.623-.965-1.115-1.989-1.477-3.074zm1.581 3.293c1.198 1.925 2.715 3.624 4.549 5.095l.626-.78c-1.749-1.404-3.19-3.018-4.326-4.843zm4.552 5.097c1.847 1.461 3.892 2.462 6.131 3l.234-.972c-2.095-.503-4.008-1.439-5.745-2.812zm6.072 2.982c.183.069.239.138.256.168.013.023.038.085-.002.238l.968.253c.085-.327.08-.671-.095-.981-.171-.304-.459-.495-.776-.614zm.254.406c-.039.15-.092.198-.124.218-.04.025-.133.06-.334.037l-.115.993c.34.039.685.002.979-.182.301-.188.476-.484.562-.813zm-.402.264c-1.29-.302-2.508-.765-3.656-1.389l-.478.878c1.227.668 2.53 1.163 3.906 1.485zm-3.653-1.388c-2.135-1.179-4.005-2.703-5.613-4.575l-.758.651c1.684 1.961 3.647 3.562 5.887 4.799zm-5.618-4.581c-1.56-1.763-2.714-3.747-3.463-5.954l-.947.321c.792 2.334 2.014 4.434 3.662 6.296zm-7.543 7.83c-.197.071-.31.063-.368.045-.049-.014-.116-.051-.19-.176l-.858.515c.175.292.426.52.763.62.327.097.668.053.991-.064zm-.553-.122c-.083-.145-.072-.21-.067-.229.006-.023.035-.096.191-.2l-.554-.832c-.281.187-.518.441-.606.783-.089.346.001.682.168.974zm.073-.4c1.494-.757 2.935-1.577 4.324-2.461l-.537-.844c-1.361.866-2.774 1.671-4.239 2.414zm4.317-2.457c4.741-2.908 8.787-6.585 12.138-11.031l-.799-.602c-3.275 4.346-7.228 7.939-11.862 10.781zm12.131-11.022c.106-.135.191-.178.249-.192.057-.014.152-.015.308.056l.413-.911c-.303-.137-.63-.196-.957-.116-.328.079-.592.282-.798.543zm.477-.182c.139.098.181.177.194.229.015.053.02.151-.053.318l.917.399c.135-.311.192-.646.102-.978-.09-.334-.309-.593-.587-.787zm.197.45c-.926 1.254-1.923 2.447-2.993 3.578l.727.687c1.097-1.16 2.121-2.384 3.07-3.671zm-2.993 3.579c-3.96 4.207-8.527 7.599-13.703 10.176l.446.896c5.282-2.631 9.944-6.093 13.985-10.387z"/></g><path d="m165.036 328.887h8.864v-14.848l8.32 14.848h4.64l8.352-14.848v14.848h8.992v-23.808h-11.968l-7.424 13.376-7.296-13.376h-12.48zm72.975-23.808h-9.248l-6.336 10.336-7.008-10.336h-10.529l11.713 15.872c.288.352.416.704.416.992v.032c0 .352-.192.544-.832.544h-4.192v6.368h4.768c5.28 0 6.368-1.312 9.088-5.408zm15.992 24.256c14.337 0 16.577-6.72 16.577-9.824v-.512h-9.408c-.128.544-.832 3.904-7.84 3.904-6.4 0-8-3.36-8-5.92v-.384c0-2.656 1.408-5.568 7.968-5.568 6.912 0 7.648 3.008 7.84 3.648h9.44v-.416c0-3.072-2.112-9.632-16.577-9.632h-1.247c-14.848 0-16.832 7.264-16.832 11.808v.928c0 4.512 2.208 11.968 16.832 11.968zm35.14-24.704c-15.424 0-17.376 7.328-17.376 11.808v.96c0 4.448 1.952 11.936 17.376 11.936h1.44c15.392 0 17.344-7.488 17.344-11.936v-.96c0-4.48-1.984-11.808-17.344-11.808zm9.376 12.48c0 2.56-1.632 5.792-8.672 5.792s-8.672-3.36-8.672-5.856v-.384c0-2.528 1.504-5.632 8.672-5.632 7.04 0 8.672 3.104 8.672 5.632zm31.326 4.32c8.704 0 11.296-3.648 11.296-7.968v-.512c0-4.384-2.496-7.872-11.296-7.872h-19.84v23.808h9.088v-7.456zm-10.752-10.4h9.664c2.144 0 3.008.8 3.008 2.176v.096c0 1.312-.928 2.176-3.008 2.176h-9.664z" fill="#eaa3cd"/><path d="m21.62 209.02c0-9.706 4.5413-14.56 13.624-14.56 9.152 0 13.728 4.854 13.728 14.56v58.344c0 9.707-4.576 14.56-13.728 14.56-9.0827 0-13.624-4.853-13.624-14.56zm17.784 0c0-3.258-1.3867-4.888-4.16-4.888-2.704 0-4.056 1.63-4.056 4.888v58.344c0 3.328 1.352 4.992 4.056 4.992 2.7733 0 4.16-1.664 4.16-4.992zm33.5156 40.56h8.736v17.68c0 4.992-1.0053 8.702-3.016 11.128-2.0106 2.358-5.2346 3.536-9.672 3.536-9.2213 0-13.832-4.818-13.832-14.456v-58.24c0-9.845 4.6107-14.768 13.832-14.768 8.4587 0 12.688 4.854 12.688 14.56v15.184h-8.736v-15.184c0-1.664-.312-2.877-.936-3.64-.5546-.832-1.56-1.248-3.016-1.248-2.704 0-4.056 1.63-4.056 4.888v58.344c0 3.328 1.352 4.992 4.056 4.992 2.6347 0 3.952-1.664 3.952-4.992zm19.6503 31.408v-75.92h-8.944v-9.672h27.4561v9.672h-8.944v75.92zm39.2301 0-1.56-13.208h-10.504c-.347 2.219-.659 4.438-.936 6.656-.208 2.15-.451 4.334-.728 6.552h-9.36l11.128-85.592h11.128l10.504 85.592zm-2.6-22.048c-.763-6.517-1.491-12.93-2.184-19.24-.693-6.378-1.352-12.93-1.976-19.656-1.248 13.451-2.704 26.416-4.368 38.896zm35.039-48.984c0-1.802-.312-3.05-.936-3.744-.624-.762-1.629-1.144-3.016-1.144h-4.264v27.976h4.368c2.565 0 3.848-1.49 3.848-4.472zm.208 36.504c0-1.802-.312-3.085-.936-3.848-.555-.762-1.595-1.144-3.12-1.144h-4.368v29.952h4.264c2.773 0 4.16-1.664 4.16-4.992zm-17.992 34.528v-85.592h13.832c4.645 0 7.939 1.179 9.88 3.536 2.011 2.358 3.016 6.136 3.016 11.336v17.368c0 4.854-1.525 7.87-4.576 9.048 1.525.347 2.843 1.248 3.952 2.704s1.664 3.536 1.664 6.24v20.904c0 5.062-1.179 8.736-3.536 11.024-2.288 2.288-5.755 3.432-10.4 3.432zm29.286 0v-9.568h1.248c1.109 0 2.045-.242 2.808-.728.762-.554 1.456-1.906 2.08-4.056.277-.97.554-2.253.832-3.848.277-1.594.52-3.709.728-6.344.277-2.634.554-5.893.832-9.776.277-3.952.554-8.805.832-14.56l1.872-36.712h22.568v85.592h-9.568v-75.92h-5.2l-1.56 28.704c-.347 5.755-.694 10.712-1.04 14.872-.278 4.091-.59 7.592-.936 10.504-.347 2.843-.694 5.166-1.04 6.968-.347 1.803-.659 3.259-.936 4.368-.971 3.467-2.358 6.102-4.16 7.904-1.734 1.734-4.334 2.6-7.8 2.6zm39.22 0 6.344-40.456c-1.941-1.109-3.363-2.6-4.264-4.472-.832-1.941-1.248-4.576-1.248-7.904v-17.368c0-5.616 1.213-9.568 3.64-11.856 2.496-2.357 6.309-3.536 11.44-3.536h13.208v85.592h-9.568v-38.48h-4.056l-4.992 38.48zm10.504-54.704c0 2.358.312 4.195.936 5.512.693 1.318 2.149 1.976 4.368 1.976h3.744v-28.704h-3.64c-1.941 0-3.328.451-4.16 1.352-.832.902-1.248 2.358-1.248 4.368zm53.875-50.856c0 3.12-.277 5.686-.832 7.696-.555 2.011-1.421 3.64-2.6 4.888-1.109 1.179-2.565 2.011-4.368 2.496-1.733.416-3.779.624-6.136.624-2.704 0-4.992-.208-6.864-.624-1.803-.485-3.259-1.317-4.368-2.496-1.109-1.248-1.907-2.877-2.392-4.888-.485-2.01-.728-4.576-.728-7.696h7.8c0 2.358.139 4.264.416 5.72.347 1.387.797 2.462 1.352 3.224.624.694 1.317 1.179 2.08 1.456.763.208 1.595.312 2.496.312.832 0 1.629-.104 2.392-.312.763-.277 1.421-.762 1.976-1.456.624-.762 1.075-1.837 1.352-3.224.347-1.456.52-3.362.52-5.72zm-27.872 105.56v-85.592h8.736v53.976l7.488-53.976h11.128v85.592h-8.84v-54.912l-9.256 54.912zm40.977 0v-75.92h-8.944v-9.672h27.456v9.672h-8.944v75.92zm23.213 0v-85.592h23.088v9.672h-13.52v27.456h9.048v9.672h-9.048v29.224h14.04v9.568z" fill="#4b6fb4"/><path d="m136.719 421.957-6.407-9.51-11.851 3.166 6.407 9.51z" fill="#37d0e5"/><path d="m127.362 444.547 8.953-13.291 13.057 2.063-8.954 13.29z" fill="#37d0e5"/><path clip-rule="evenodd" d="m147.474 464.55h-3.049l-2.148 15.291v.069l-4.314 30.718h-26.989l-.831-3.455-5.977-42.623h-3.533v-3.455h46.841zm-35.478 0h-4.694l.589 4.233h4.383zm.503 7.671h-4.123l.589 4.233h3.794l-.278-4.233zm.485 7.671h-3.534l.606 4.233h3.205l-.26-4.233zm.485 7.671h-2.945l.589 4.216h2.633zm.485 7.689h-2.356l.589 4.215h2.027zm.485 7.671h-1.767l.589 4.233h1.455zm11.935 4.233h3.552l.259-4.233h-3.811zm0-7.689h4.037l.277-4.215h-4.314zm0-7.671h4.522l.277-4.215h-4.799zm0-7.671h5.024l.277-4.233h-5.283v4.233zm0-7.671h5.509l.277-4.233h-5.786zm-3.932-11.904h-6.513l.277 4.233h6.236zm0 7.671h-6.011l.277 4.233h5.751v-4.233zm0 7.671h-5.526l.277 4.233h5.249zm0 7.671h-5.041l.277 4.216h4.764zm0 7.689h-4.539l.278 4.215h4.261zm0 7.671h-4.053l.277 4.233h3.776zm3.932-38.39v4.233h6.011l.26-4.233zm7.484 42.623h1.42l.589-4.233h-1.749l-.277 4.233zm.502-7.689h2.01l.589-4.215h-2.339l-.277 4.215zm.485-7.671h2.599l.589-4.215h-2.911zm.485-7.671h3.188l.589-4.233h-3.499zm.485-7.671h3.777l.589-4.233h-4.088zm.763-11.904-.26 4.233h4.348l.589-4.233zm-18.467-21.596 13.01 2.488 2.477 12.992-13.009-2.47-2.478-12.992zm-51.6739 18.867 12.4898-24.775c.4677-.951 1.8709-.882 2.9449-.968-2.7717-1.486-4.6599-4.406-4.6599-7.775 0-4.872 3.9496-8.811 8.8347-8.811s8.8347 3.939 8.8347 8.811c0 3.352-1.8708 6.255-4.6252 7.758h1.8189l33.814.363-31.6486 12.957-.9875 14.254-3.7763-.052 2.4252 1.054-.2425 3.991 3.759 43.676-15.0882-28.818-8.315 30.511-4.8678-50.846 2.3905-.812z" fill="#37d0e5" fill-rule="evenodd"/></g></svg>