<svg fill="none" height="511" viewBox="0 0 360 511" width="360" xmlns="http://www.w3.org/2000/svg" xmlns:xlink="http://www.w3.org/1999/xlink"><clipPath id="a"><path d="m0 0h31.6278v43.012h-31.6278z" transform="matrix(.994764 -.102194 .102203 .994764 202 58.1016)"/></clipPath><clipPath id="b"><path d="m0 0h31.6278v43.012h-31.6278z" transform="matrix(.994764 -.102194 .102203 .994764 253.358 52.8262)"/></clipPath><clipPath id="c"><path d="m0 0h31.6278v43.012h-31.6278z" transform="matrix(.994764 -.102194 .102203 .994764 304.715 47.5488)"/></clipPath><clipPath id="d"><path d="m0 0h31.6278v43.012h-31.6278z" transform="matrix(.994764 -.102194 .102203 .994764 32.4268 418.248)"/></clipPath><clipPath id="e"><path d="m0 0h31.6278v43.012h-31.6278z" transform="matrix(.994764 -.102194 .102203 .994764 83.7843 412.973)"/></clipPath><clipPath id="f"><path d="m0 0h31.6278v43.012h-31.6278z" transform="matrix(.994764 -.102194 .102203 .994764 135.142 407.695)"/></clipPath><path d="m48.4588 335.625c6.528 0 8.472-2.736 8.472-5.976v-.384c0-3.288-1.872-5.904-8.472-5.904h-14.88v17.856h6.816v-5.592zm-8.064-7.8h7.248c1.608 0 2.256.6 2.256 1.632v.072c0 .984-.696 1.632-2.256 1.632h-7.248zm29.7174 6.048h-5.928l2.928-6.144zm3.576 7.344h7.464l-9.336-17.856h-9.168l-8.832 17.856h6.912l1.368-2.88h10.2zm8.0061 0h14.64c7.2237 0 9.0237-2.592 9.0237-5.784v-.216c0-3.144-1.8-5.52-9.0237-5.52h-7.824v-2.136h15.1437v-4.2h-21.9597zm6.816-4.32v-3.168h7.08c2.136 0 2.712.648 2.712 1.512v.072c0 .84-.576 1.584-2.712 1.584zm30.7197-13.872c-11.568 0-13.032 5.496-13.032 8.856v.72c0 3.336 1.464 8.952 13.032 8.952h1.08c11.544 0 13.008-5.616 13.008-8.952v-.72c0-3.36-1.488-8.856-13.008-8.856zm7.032 9.36c0 1.92-1.224 4.344-6.504 4.344s-6.504-2.52-6.504-4.392v-.288c0-1.896 1.128-4.224 6.504-4.224 5.28 0 6.504 2.328 6.504 4.224zm15.133 8.832h6.816v-12.984h7.704v-4.872h-22.224v4.872h7.704zm27.944-18.192c-11.568 0-13.032 5.496-13.032 8.856v.72c0 3.336 1.464 8.952 13.032 8.952h1.08c11.544 0 13.008-5.616 13.008-8.952v-.72c0-3.36-1.488-8.856-13.008-8.856zm7.032 9.36c0 1.92-1.224 4.344-6.504 4.344s-6.504-2.52-6.504-4.392v-.288c0-1.896 1.128-4.224 6.504-4.224 5.28 0 6.504 2.328 6.504 4.224zm26.566 8.832h6.816v-17.856h-6.816l-11.208 11.232v-11.232h-6.816v17.856h6.816l11.208-11.208zm-4.968-18.768c4.272 0 5.352-2.808 5.352-4.08v-.048h-4.32c0 .288-.192 1.176-1.488 1.176-1.32 0-1.536-.888-1.536-1.176h-4.392v.048c0 1.272.744 4.08 5.424 4.08z" fill="#a2c366"/><path d="m33.5068 159.066h14.64c7.224 0 9.024-2.592 9.024-5.784v-.216c0-3.144-1.8-5.52-9.024-5.52h-7.824v-2.136h15.144v-4.2h-21.96zm6.816-4.32v-3.168h7.08c2.136 0 2.712.648 2.712 1.512v.072c0 .84-.576 1.584-2.712 1.584zm18.2872-13.536v17.856h19.944v-4.464h-13.224v-2.448h12.768v-4.344h-12.768v-2.232h13.032v-4.368zm36.6534 12.264c6.5276 0 8.4716-2.736 8.4716-5.976v-.384c0-3.288-1.872-5.904-8.4716-5.904h-14.88v17.856h6.816v-5.592zm-8.064-7.8h7.248c1.608 0 2.256.6 2.256 1.632v.072c0 .984-.696 1.632-2.256 1.632h-7.248zm17.9336-4.464v17.856h19.944v-4.464h-13.224v-2.448h12.768v-4.344h-12.768v-2.232h13.032v-4.368zm21.702 17.856h6.816v-13.104h12.048v-4.752h-18.864zm38.508 0h6.816v-17.856h-6.816l-11.208 11.232v-11.232h-6.816v17.856h6.816l11.208-11.208zm16.2 0h6.816v-12.984h7.704v-4.872h-22.224v4.872h7.704zm16.145-17.856v17.856h19.944v-4.464h-13.224v-2.448h12.768v-4.344h-12.768v-2.232h13.032v-4.368z" fill="#a2c366"/><path d="m65.28 298.133v-35.984c-.5547.208-1.352.416-2.392.624-.9707.208-2.0453.312-3.224.312-3.744 0-6.6907-1.214-8.84-3.64-2.1493-2.427-3.224-6.067-3.224-10.92v-35.984h9.672v35.672c0 2.01.312 3.501.936 4.472.624.901 1.8027 1.352 3.536 1.352.7627 0 1.3867-.07 1.872-.208.5547-.208 1.1093-.451 1.664-.728v-40.56h9.672v85.592zm17.1828 0v-85.592h23.0882v9.672h-13.5202v27.456h9.0482v9.672h-9.0482v29.224h14.0402v9.568zm26.4422 0v-9.568h1.248c1.109 0 2.045-.243 2.808-.728.762-.555 1.456-1.907 2.08-4.056.277-.971.554-2.254.832-3.848.277-1.595.52-3.71.728-6.344.277-2.635.554-5.894.832-9.776.277-3.952.554-8.806.832-14.56l1.872-36.712h22.568v85.592h-9.568v-75.92h-5.2l-1.56 28.704c-.347 5.754-.694 10.712-1.04 14.872-.278 4.09-.59 7.592-.936 10.504-.347 2.842-.694 5.165-1.04 6.968-.347 1.802-.659 3.258-.936 4.368-.971 3.466-2.358 6.101-4.16 7.904-1.734 1.733-4.334 2.6-7.8 2.6zm40.676-71.968c0-9.707 4.541-14.56 13.624-14.56 9.152 0 13.728 4.853 13.728 14.56v58.344c0 9.706-4.576 14.56-13.728 14.56-9.083 0-13.624-4.854-13.624-14.56zm17.784 0c0-3.259-1.387-4.888-4.16-4.888-2.704 0-4.056 1.629-4.056 4.888v58.344c0 3.328 1.352 4.992 4.056 4.992 2.773 0 4.16-1.664 4.16-4.992zm34.14.936c0-1.803-.312-3.051-.936-3.744-.624-.763-1.63-1.144-3.016-1.144h-4.264v27.976h4.368c2.565 0 3.848-1.491 3.848-4.472zm.208 36.504c0-1.803-.312-3.086-.936-3.848-.555-.763-1.595-1.144-3.12-1.144h-4.368v29.952h4.264c2.773 0 4.16-1.664 4.16-4.992zm-17.992 34.528v-85.592h13.832c4.645 0 7.938 1.178 9.88 3.536 2.01 2.357 3.016 6.136 3.016 11.336v17.368c0 4.853-1.526 7.869-4.576 9.048 1.525.346 2.842 1.248 3.952 2.704 1.109 1.456 1.664 3.536 1.664 6.24v20.904c0 5.061-1.179 8.736-3.536 11.024-2.288 2.288-5.755 3.432-10.4 3.432zm33.921 0v-85.592h23.088v9.672h-13.52v27.456h9.048v9.672h-9.048v29.224h14.04v9.568zm50.674 0c-2.149-7.142-4.194-14.075-6.136-20.8-1.941-6.795-3.917-13.659-5.928-20.592.139 3.536.208 7.176.208 10.92v12.48 17.992h-9.672v-85.592h9.672v17.68 10.608c0 2.773-.069 5.477-.208 8.112 1.942-6.31 3.883-12.411 5.824-18.304 1.942-5.963 3.918-11.995 5.928-18.096h10.296l-13.728 38.584 14.768 47.008zm35.421 0-1.56-13.208h-10.504c-.346 2.218-.658 4.437-.936 6.656-.208 2.149-.45 4.333-.728 6.552h-9.36l11.128-85.592h11.128l10.504 85.592zm-2.6-22.048c-.762-6.518-1.49-12.931-2.184-19.24-.693-6.379-1.352-12.931-1.976-19.656-1.248 13.45-2.704 26.416-4.368 38.896z" fill="#8b52d4"/><path d="m121.08 371.107h6.816v-13.104h12.048v-4.752h-18.864zm32.824-18.192c-11.568 0-13.032 5.496-13.032 8.856v.72c0 3.336 1.464 8.952 13.032 8.952h1.08c11.544 0 13.008-5.616 13.008-8.952v-.72c0-3.36-1.488-8.856-13.008-8.856zm7.032 9.36c0 1.92-1.224 4.344-6.504 4.344s-6.504-2.52-6.504-4.392v-.288c0-1.896 1.128-4.224 6.504-4.224 5.28 0 6.504 2.328 6.504 4.224zm23.494 3.24c6.528 0 8.472-2.736 8.472-5.976v-.384c0-3.288-1.872-5.904-8.472-5.904h-14.88v17.856h6.816v-5.592zm-8.064-7.8h7.248c1.608 0 2.256.6 2.256 1.632v.072c0 .984-.696 1.632-2.256 1.632h-7.248zm34.376 7.656v5.736h6.816v-17.856h-15.696c-6.168 0-8.112 2.856-8.112 5.856v.384c0 2.736 1.8 4.92 6.144 5.496l-6.792 6.12h8.4l6.096-5.736zm0-4.272h-7.752c-1.56 0-2.184-.744-2.184-1.68v-.048c0-.888.6-1.656 2.16-1.656h7.776zm8.986 10.008h31.176v3.12h6.408v-7.872h-2.88v-13.104h-6.96v13.104h-6.912v-13.104h-6.96v13.104h-6.912v-13.104h-6.96zm38.862-17.856v17.856h19.944v-4.464h-13.224v-2.448h12.768v-4.344h-12.768v-2.232h13.032v-4.368zm21.701 17.856h6.816v-13.104h12.048v-4.752h-18.864zm32.824-18.192c-11.568 0-13.032 5.496-13.032 8.856v.72c0 3.336 1.464 8.952 13.032 8.952h1.08c11.544 0 13.008-5.616 13.008-8.952v-.72c0-3.36-1.488-8.856-13.008-8.856zm7.032 9.36c0 1.92-1.224 4.344-6.504 4.344s-6.504-2.52-6.504-4.392v-.288c0-1.896 1.128-4.224 6.504-4.224 5.28 0 6.504 2.328 6.504 4.224z" fill="#a2c366"/><path d="m0 0h141v28h-141z" fill="#8b52d4" transform="matrix(.99862953 -.05233596 .05233596 .99862953 174.728 169.445)"/><path d="m187.344 179.359c-2.177.114-3.707 1.496-4.114 4.04l-.4.021.006-3.705-2.556.134.802 15.299 2.556-.134-.604-7.699.34-.018c.628 2.811 2.327 3.904 4.584 3.786 2.816-.148 4.836-2.878 4.678-5.893-.182-3.476-2.476-5.979-5.292-5.831zm-.397 9.233c-1.898.099-3.421-1.443-3.514-3.22-.091-1.738 1.314-3.214 3.171-3.311 1.938-.102 3.407 1.183 3.509 3.141.098 1.857-1.229 3.289-3.166 3.39zm9.279-3.05 8.808-.461c-.085-3.921-2.505-6.518-5.88-6.341-3.215.168-5.695 2.922-5.525 6.157.17 3.256 2.924 5.735 6.14 5.567 2.037-.107 3.927-1.107 4.898-3.221l-1.759-1.07c-.799 1.184-1.931 1.744-3.269 1.814-1.778.093-3.032-.903-3.413-2.445zm3.056-4.366c1.498-.078 2.843.753 3.267 2.353l-6.391.334c.285-1.436 1.406-2.597 3.124-2.687zm19.9 5.546-.466-8.887-8.988.471.252 4.813c.204 3.875-.086 4.09-2.063 4.194l-1.737.091.336 6.411 2.455-.149-.208-3.974 10.545-.553.209 3.975 2.457-.109-.336-6.411zm-7.071.371c.269-.995.299-2.319.206-4.096l-.125-2.397 4.274-.224.339 6.471zm22.304-10.081-2.657.139-2.743 4.59-3.276.172-.232-4.434-2.337.122.593 11.305 2.336-.123-.233-4.454 3.256-.17 3.229 4.297 2.656-.14-4.091-5.453zm13.263-.695-2.636.138-5.84 8.557-.431-8.228-2.337.122.592 11.305-.019.021 2.597-.136 5.86-8.559.431 8.229 2.377-.125zm8.024-.741c2.477-.13 5.143-1.612 4.985-4.627l-2.496.13c.082 1.578-.969 2.154-2.607 2.24-1.777.093-2.903-.369-2.966-1.948l-2.496.131c.158 3.016 2.964 4.211 5.58 4.074zm5.689.022-2.636.138-5.841 8.538-.43-8.209-2.357.123.592 11.305-.019.021 2.617-.137 5.86-8.559.431 8.229 2.377-.124zm7.622 10.936 6.092-.319c3.295-.173 4.75-1.451 4.655-3.268-.092-1.758-1.659-2.617-3.466-2.702l-.018-.34c1.349-.251 2.378-1.246 2.301-2.724-.069-1.318-1.209-2.42-4.065-2.271l-6.091.32zm2.069-7.138-.103-1.977 3.655-.192c1.058-.055 1.649.134 1.689.893.041.779-.527 1.029-1.586 1.085zm.239 4.554-.124-2.357 3.655-.191c1.538-.081 2.156.247 2.196 1.006.041.779-.534 1.27-2.072 1.35zm21.627-10.006-2.636.138-5.84 8.558-.432-8.229-2.336.123.592 11.304-.019.021 2.597-.136 5.86-8.558.431 8.228 2.377-.124zm15.467 8.102-.466-8.888-8.988.471.252 4.814c.204 3.874-.086 4.09-2.063 4.193l-1.737.091.336 6.412 2.455-.149-.208-3.975 10.545-.552.209 3.974 2.457-.109-.336-6.411zm-7.071.37c.269-.995.299-2.318.206-4.096l-.125-2.397 4.274-.224.339 6.471z" fill="#f5f2cd"/><g fill="#8b52d4"><g clip-path="url(#a)"><path d="m215.948 75.796c-.551-1.1759-1.026-2.392-1.674-3.5153-.823-1.4312-1.888-2.7367-2.668-4.1878-1.395-2.5921-1.582-5.3613-.817-8.1895.068-.2527.415-.4371.633-.6548.185.2371.491.4527.535.7133.295 1.7195.908 3.3184 1.943 4.7331.693.9479 1.505 1.8177 2.304 2.6875.147.1608.489.1541.742.2252.054-.2527.206-.5282.149-.7539-.385-1.5111-1.033-2.9538-1.078-4.5517-.052-1.8725.534-3.5907 1.262-5.2861.041-.096.108-.2051.195-.258.205-.1206.428-.2095.644-.3118.105.2142.305.4291.298.6418-.022.8546-.167 1.7102-.157 2.5628.016 1.4028.439 2.6578 1.374 3.7944.692.842 1.149 1.862 1.711 2.8027.093.156.188.3105.398.4338.01-.5055-.054-1.024.047-1.5128.266-1.2987.449-2.6432.959-3.857.464-1.1017 1.497-1.8545 2.721-2.226.194-.0587.568.0581.674.2114.109.1595.09.534-.038.6933-1.628 2.0386-1.149 4.1571-.308 6.2668.616 1.5468 1.322 3.0613 1.994 4.5882.207.4689.598.5477.914.1582.521-.6406.943-1.3643 1.522-1.9463.528-.5314 1.201-.9317 1.835-1.3577.084-.0565.39.0363.447.139.092.16.112.3947.074.5823-.251 1.2155-.599 2.4166-.764 3.6415-.104.7737.021 1.5822.102 2.368.191 1.8595.349 3.7122-.035 5.5752-.045.218.091.6011.266.6905.167.0862.571-.0354.736-.1933.681-.6507 1.427-1.1787 2.369-1.3854.204-.0442.54-.0116.638.1142.127.1616.123.4608.085.687-.029.1738-.169.3576-.31.4859-1.57 1.421-1.944 3.2972-2.078 5.2147-.124 1.7692-.506 3.4638-1.025 5.1623-.572 1.8681-1.506 3.5393-2.81 4.9782-2.748 3.032-6.159 4.1274-10.219 2.9484-1.038-.302-2.085-.5915-3.088-.98-.627-.2433-1.175-.6681-1.767-.9979-2.01-1.1166-3.387-2.7896-4.346-4.7695-.407-.839-.499-1.8163-.82-2.7016-.73-2.015-1.465-4.0321-2.298-6.0067-.404-.9545-1.003-1.8396-1.582-2.7139-.253-.3814-.685-.6513-1.023-.9839-.152-.1499-.315-.309-.4-.4956-.25-.5421.031-.9344.627-.8055.993.2135 1.977.4836 2.946.7811 1.499.4591 2.708 1.3075 3.604 2.5657.099.1385.454.2753.549.2126.207-.139.441-.3958.458-.6187.12-1.5411-.352-2.9062-1.357-4.1118-.8-.959-1.883-1.5138-2.973-2.0885-.986-.5195-1.709-1.3428-2.086-2.3375-.757-2.0057-.766-4.1168-.608-6.223.017-.2281.297-.5867.497-.6163.196-.0292.542.2353.655.4527.503.9687.883 2.0031 1.437 2.9421.34.5767.852 1.0998 1.393 1.5174 1.702 1.31 3.472 2.5392 5.179 3.842.472.3603.822.8675 1.228 1.3069l.188-.0827zm5.653 17.8155c2.766-.3346 5.016-1.5305 6.67-3.7258.485-.6421.486-.8427-.117-1.3563-1.137-.967-2.413-1.6288-3.911-2.0349-2.442-.6622-4.737-.288-6.932.7083-1.33.6035-2.369 1.657-3.242 2.8292-.359.4804-.303.8265.133 1.2189 2.087 1.8808 4.571 2.6007 7.399 2.3606z"/><path d="m220.246 92.7404c-2.103-.0633-3.824-.9044-5.465-2.1649 1.317-1.5955 2.847-2.7098 4.838-3.2221-.888.787-1.456 1.721-1.303 2.877.152 1.1342.813 1.9923 1.929 2.5088z"/><path d="m222.7 92.5181c2.253-2.1262 1.63-4.1612-.55-5.431.222-.0229.358-.0614.487-.0462 1.675.19 3.123.9026 4.497 1.7896.441.2845.451.568.086.9276-1.198 1.1771-2.503 2.1958-4.164 2.7041-.094.029-.196.0317-.356.0559z"/></g><g clip-path="url(#b)"><path d="m267.306 70.5206c-.551-1.1759-1.026-2.392-1.674-3.5153-.824-1.4312-1.889-2.7367-2.668-4.1878-1.395-2.5921-1.583-5.3613-.818-8.1895.069-.2527.415-.4371.634-.6548.184.2371.49.4527.534.7133.295 1.7196.909 3.3184 1.943 4.7331.694.948 1.505 1.8178 2.305 2.6875.147.1608.489.1541.741.2252.055-.2527.207-.5282.15-.7539-.385-1.5111-1.034-2.9538-1.078-4.5517-.053-1.8725.533-3.5907 1.262-5.2861.041-.096.108-.2051.195-.258.204-.1206.428-.2095.643-.3118.106.2142.305.4291.299.6418-.023.8546-.168 1.7102-.158 2.5628.016 1.4029.44 2.6578 1.374 3.7944.692.842 1.149 1.862 1.711 2.8027.093.1561.188.3105.399.4338.01-.5055-.054-1.024.046-1.5128.266-1.2987.449-2.6432.96-3.857.463-1.1017 1.497-1.8545 2.72-2.226.195-.0587.569.0581.674.2114.11.1596.09.534-.037.6933-1.628 2.0386-1.15 4.1571-.309 6.2668.617 1.5468 1.322 3.0613 1.994 4.5882.207.4689.599.5477.915.1582.521-.6406.942-1.3643 1.522-1.9463.527-.5314 1.2-.9317 1.835-1.3576.084-.0566.389.0362.447.1389.092.16.112.3947.073.5823-.25 1.2156-.599 2.4167-.764 3.6415-.103.7737.022 1.5822.103 2.368.191 1.8596.349 3.7122-.036 5.5752-.044.218.092.6011.266.6905.168.0863.571-.0353.736-.1933.681-.6507 1.427-1.1787 2.369-1.3854.204-.0442.541-.0115.639.1142.127.1616.122.4608.085.6871-.029.1737-.169.3575-.311.4858-1.57 1.421-1.943 3.2972-2.077 5.2147-.125 1.7692-.506 3.4638-1.026 5.1623-.572 1.8681-1.506 3.5393-2.809 4.9782-2.749 3.032-6.16 4.1274-10.219 2.9484-1.039-.302-2.085-.5915-3.088-.9799-.628-.2434-1.176-.6682-1.768-.998-2.01-1.1166-3.387-2.7896-4.346-4.7695-.406-.839-.498-1.8163-.819-2.7016-.731-2.015-1.465-4.0321-2.299-6.0067-.403-.9545-1.003-1.8396-1.582-2.7139-.253-.3814-.684-.6513-1.022-.9839-.153-.1499-.316-.309-.401-.4956-.249-.5421.032-.9344.627-.8055.993.2136 1.978.4836 2.947.7811 1.498.4591 2.707 1.3075 3.603 2.5657.099.1386.455.2753.549.2126.208-.139.441-.3958.458-.6187.121-1.5411-.352-2.9062-1.357-4.1118-.799-.959-1.882-1.5138-2.973-2.0885-.985-.5195-1.709-1.3428-2.085-2.3375-.758-2.0057-.766-4.1168-.609-6.223.017-.2281.298-.5867.498-.6163.196-.0292.542.2353.654.4527.503.9687.884 2.0031 1.438 2.9421.34.5767.851 1.0998 1.393 1.5175 1.701 1.3099 3.471 2.5391 5.179 3.8419.471.3603.822.8675 1.228 1.3069l.187-.0827zm5.653 17.8155c2.766-.3346 5.015-1.5305 6.67-3.7258.484-.6421.485-.8427-.118-1.3563-1.136-.967-2.412-1.6288-3.91-2.0349-2.442-.6622-4.737-.288-6.932.7083-1.33.6035-2.369 1.657-3.243 2.8292-.358.4804-.302.8265.133 1.2189 2.087 1.8808 4.572 2.6007 7.4 2.3606z"/><path d="m271.604 87.4611c-2.104-.0633-3.824-.9044-5.466-2.1649 1.317-1.5955 2.848-2.7098 4.838-3.222-.887.7869-1.456 1.7209-1.302 2.8769.151 1.1342.813 1.9923 1.928 2.5088z"/><path d="m274.057 87.2427c2.254-2.1262 1.63-4.1612-.55-5.431.222-.0229.358-.0614.488-.0462 1.675.19 3.123.9026 4.497 1.7896.441.2845.451.568.086.9276-1.199 1.1772-2.504 2.1958-4.165 2.7041-.094.029-.196.0317-.356.0559z"/></g><g clip-path="url(#c)"><path d="m318.663 65.2433c-.551-1.1759-1.026-2.392-1.674-3.5153-.823-1.4312-1.888-2.7367-2.668-4.1879-1.395-2.5921-1.582-5.3612-.817-8.1894.068-.2528.415-.4371.633-.6549.185.2372.491.4528.535.7134.295 1.7195.908 3.3184 1.943 4.7331.693.9479 1.505 1.8177 2.304 2.6875.147.1608.49.154.742.2251.054-.2526.206-.5282.149-.7538-.385-1.5112-1.033-2.9538-1.078-4.5517-.052-1.8725.534-3.5908 1.262-5.2861.041-.0961.108-.2051.195-.2581.205-.1205.428-.2094.644-.3118.105.2142.305.4291.298.6419-.022.8546-.167 1.7101-.157 2.5627.016 1.4029.439 2.6579 1.374 3.7944.692.8421 1.149 1.8621 1.711 2.8028.093.156.188.3105.398.4337.01-.5054-.054-1.0239.047-1.5128.266-1.2986.449-2.6431.959-3.8569.464-1.1017 1.497-1.8546 2.721-2.226.194-.0588.568.058.674.2114.109.1595.09.534-.038.6932-1.628 2.0387-1.149 4.1571-.308 6.2668.616 1.5469 1.322 3.0613 1.994 4.5882.207.469.598.5477.914.1583.521-.6407.943-1.3643 1.522-1.9463.528-.5315 1.201-.9317 1.835-1.3577.084-.0565.39.0363.447.139.092.16.112.3946.074.5822-.251 1.2156-.599 2.4167-.764 3.6416-.103.7737.021 1.5821.102 2.3679.191 1.8596.349 3.7122-.035 5.5753-.045.218.091.6011.266.6905.167.0862.571-.0354.736-.1933.681-.6507 1.427-1.1787 2.369-1.3854.204-.0442.54-.0116.638.1142.127.1615.123.4607.086.687-.03.1737-.17.3575-.311.4859-1.57 1.421-1.944 3.2972-2.078 5.2147-.124 1.7692-.506 3.4638-1.025 5.1623-.572 1.8681-1.506 3.5393-2.81 4.9782-2.748 3.0319-6.159 4.1273-10.219 2.9484-1.038-.302-2.085-.5916-3.088-.98-.627-.2433-1.175-.6681-1.767-.9979-2.01-1.1166-3.387-2.7897-4.346-4.7695-.407-.839-.499-1.8163-.82-2.7016-.73-2.015-1.465-4.0322-2.298-6.0068-.404-.9544-1.003-1.8395-1.582-2.7138-.253-.3814-.685-.6514-1.023-.9839-.152-.1499-.315-.3091-.4-.4956-.25-.5422.031-.9345.627-.8055.993.2135 1.977.4836 2.946.7811 1.499.4591 2.708 1.3075 3.604 2.5656.099.1386.454.2754.549.2126.207-.139.441-.3957.458-.6187.12-1.541-.352-2.9061-1.357-4.1117-.799-.959-1.883-1.5138-2.973-2.0885-.986-.5196-1.709-1.3428-2.086-2.3375-.757-2.0057-.766-4.1169-.608-6.223.017-.2281.297-.5867.497-.6163.196-.0292.542.2353.655.4526.503.9688.883 2.0031 1.437 2.9421.341.5768.852 1.0998 1.393 1.5175 1.702 1.3099 3.472 2.5391 5.179 3.842.472.3603.822.8674 1.228 1.3069l.188-.0827zm5.653 17.8155c2.766-.3346 5.016-1.5305 6.67-3.7259.485-.6421.486-.8426-.117-1.3562-1.137-.9671-2.412-1.6288-3.911-2.0349-2.442-.6622-4.737-.2881-6.932.7083-1.33.6035-2.369 1.6569-3.242 2.8292-.359.4804-.303.8265.133 1.2188 2.087 1.8808 4.571 2.6008 7.399 2.3607z"/><path d="m322.961 82.1837c-2.103-.0633-3.824-.9043-5.465-2.1649 1.317-1.5954 2.847-2.7097 4.838-3.222-.888.787-1.456 1.721-1.303 2.8769.152 1.1342.813 1.9923 1.929 2.5089z"/><path d="m325.415 81.9654c2.253-2.1262 1.63-4.1613-.55-5.4311.222-.0228.358-.0613.487-.0462 1.675.1901 3.123.9027 4.497 1.7897.441.2845.452.568.086.9275-1.198 1.1772-2.503 2.1959-4.164 2.7041-.094.0291-.196.0318-.356.056z"/></g><g clip-path="url(#d)"><path d="m46.375 435.942c-.5512-1.175-1.0258-2.392-1.6739-3.515-.8235-1.431-1.8884-2.736-2.6683-4.188-1.3948-2.592-1.5824-5.361-.8172-8.189.0682-.253.4151-.437.6335-.655.1844.237.4903.453.5346.713.295 1.72.9085 3.319 1.9429 4.734.6932.947 1.5049 1.817 2.3044 2.687.147.161.4892.154.7413.225.0548-.252.2067-.528.1499-.754-.3853-1.511-1.0338-2.954-1.0783-4.551-.0525-1.873.5336-3.591 1.2619-5.286.0412-.097.108-.206.1954-.259.2042-.12.4277-.209.6432-.311.1054.214.305.429.2986.642-.0225.854-.1673 1.71-.1577 2.562.0164 1.403.4399 2.658 1.3744 3.795.6917.842 1.1489 1.862 1.7109 2.802.0927.156.188.311.3983.434.01-.505-.054-1.024.0464-1.513.266-1.298.4493-2.643.9595-3.857.4638-1.101 1.4974-1.854 2.7208-2.226.1944-.058.5682.058.6741.212.1092.159.0898.534-.0378.693-1.6278 2.039-1.1492 4.157-.3084 6.267.6163 1.547 1.322 3.061 1.994 4.588.2069.469.5983.548.9147.158.5206-.64.9425-1.364 1.5216-1.946.5278-.531 1.2009-.932 1.835-1.358.0843-.056.3897.037.4473.139.0918.16.1119.395.0733.583-.2503 1.215-.599 2.416-.7637 3.641-.1034.774.0213 1.582.102 2.368.1911 1.86.3492 3.712-.0351 5.575-.0448.218.0914.601.266.691.1675.086.5707-.036.736-.194.681-.65 1.427-1.178 2.3688-1.385.2039-.044.5408-.011.6385.114.1269.162.1226.461.0854.687-.0293.174-.1691.358-.3106.486-1.5702 1.421-1.9437 3.297-2.0775 5.215-.1249 1.769-.5063 3.464-1.0258 5.162-.572 1.868-1.5059 3.54-2.8093 4.978-2.7484 3.032-6.1597 4.128-10.219 2.949-1.0384-.302-2.085-.592-3.0879-.98-.6276-.244-1.1756-.668-1.7677-.998-2.0098-1.117-3.3868-2.79-4.3461-4.77-.4063-.839-.4986-1.816-.8196-2.701-.7302-2.015-1.4647-4.032-2.2984-6.007-.4033-.954-1.0027-1.84-1.5821-2.714-.253-.381-.6842-.651-1.0224-.984-.1526-.15-.3155-.309-.4006-.495-.2494-.542.0318-.935.6274-.806.993.214 1.9771.484 2.9464.781 1.4984.459 2.7073 1.308 3.6033 2.566.0989.139.4546.275.549.213.2077-.139.4409-.396.4583-.619.1201-1.541-.3524-2.906-1.3572-4.112-.7993-.959-1.8825-1.514-2.9731-2.088-.9855-.52-1.709-1.343-2.0855-2.338-.7576-2.006-.766-4.117-.6085-6.223.017-.228.2975-.587.4976-.616.196-.029.542.235.6544.452.5031.969.8837 2.004 1.4375 2.943.3403.576.8514 1.099 1.3933 1.517 1.7015 1.31 3.4713 2.539 5.1788 3.842.4715.36.8222.867 1.2278 1.307l.1879-.083zm5.6529 17.816c2.7659-.335 5.0156-1.531 6.6703-3.726.4841-.642.4851-.842-.1178-1.356-1.1364-.967-2.4122-1.629-3.9105-2.035-2.442-.662-4.7371-.288-6.932.708-1.33.604-2.3691 1.657-3.2426 2.83-.3582.48-.3024.826.1333 1.218 2.087 1.881 4.5712 2.601 7.3993 2.361z"/><path d="m50.6729 452.887c-2.1033-.063-3.8239-.905-5.4652-2.165 1.3169-1.595 2.8474-2.71 4.8378-3.222-.8876.787-1.456 1.721-1.3023 2.877.1515 1.134.8126 1.992 1.9283 2.509z"/><path d="m53.1263 452.665c2.2536-2.127 1.6303-4.162-.5499-5.431.2222-.023.3582-.062.4875-.047 1.6752.19 3.123.903 4.4973 1.79.4408.285.4511.568.0858.928-1.1985 1.177-2.5033 2.195-4.1647 2.704-.0938.029-.1958.031-.356.056z"/></g><g clip-path="url(#e)"><path d="m97.7325 430.667c-.5512-1.176-1.0258-2.392-1.6739-3.515-.8235-1.431-1.8884-2.737-2.6683-4.188-1.3948-2.592-1.5824-5.361-.8172-8.189.0682-.253.4151-.438.6335-.655.1844.237.4904.452.5346.713.295 1.72.9085 3.318 1.9429 4.733.6933.948 1.5049 1.818 2.3044 2.688.147.16.4893.154.7414.225.0547-.253.2066-.528.1498-.754-.3852-1.511-1.0338-2.954-1.0783-4.552-.0525-1.872.5336-3.591 1.2619-5.286.0413-.096.1081-.205.1954-.258.2042-.12.4277-.209.6432-.312.1051.214.3051.429.2991.642-.023.855-.168 1.71-.158 2.563.016 1.403.44 2.658 1.374 3.794.692.842 1.149 1.862 1.711 2.803.093.156.188.311.398.434.01-.506-.054-1.024.047-1.513.266-1.299.449-2.643.959-3.857.464-1.102 1.498-1.855 2.721-2.226.195-.059.568.058.674.211.109.16.09.534-.038.694-1.627 2.038-1.149 4.157-.308 6.266.616 1.547 1.322 3.062 1.994 4.589.207.469.598.547.915.158.52-.641.942-1.364 1.521-1.946.528-.532 1.201-.932 1.835-1.358.085-.057.39.036.448.139.091.16.111.395.073.582-.25 1.216-.599 2.417-.764 3.642-.103.773.022 1.582.102 2.368.191 1.859.349 3.712-.035 5.575-.045.218.091.601.266.69.168.087.571-.035.736-.193.681-.651 1.427-1.179 2.369-1.385.204-.045.541-.012.638.114.127.161.123.461.086.687-.029.174-.169.357-.311.486-1.57 1.421-1.943 3.297-2.077 5.215-.125 1.769-.507 3.463-1.026 5.162-.572 1.868-1.506 3.539-2.809 4.978-2.749 3.032-6.16 4.127-10.219 2.948-1.039-.302-2.0854-.591-3.0883-.98-.6276-.243-1.1756-.668-1.7676-.997-2.0099-1.117-3.3869-2.79-4.3462-4.77-.4063-.839-.4986-1.816-.8196-2.702-.7302-2.015-1.4647-4.032-2.2983-6.006-.4034-.955-1.0028-1.84-1.5822-2.714-.253-.382-.6842-.652-1.0224-.984-.1526-.15-.3155-.309-.4006-.496-.2494-.542.0318-.934.6274-.805.993.213 1.9771.483 2.9464.781 1.4985.459 2.7074 1.307 3.6033 2.566.0989.138.4546.275.549.212.2077-.139.4409-.396.4583-.619.1201-1.541-.3523-2.906-1.3572-4.111-.7993-.959-1.8825-1.514-2.9731-2.089-.9855-.519-1.7089-1.343-2.0855-2.337-.7575-2.006-.766-4.117-.6084-6.223.0169-.228.2974-.587.4975-.617.1961-.029.542.236.6544.453.5031.969.8837 2.003 1.4375 2.942.3404.577.8514 1.1 1.3933 1.518 1.7015 1.31 3.4714 2.539 5.1789 3.842.4714.36.8221.867 1.2277 1.306l.1879-.082zm5.6525 17.816c2.766-.335 5.016-1.531 6.671-3.726.484-.642.485-.843-.118-1.356-1.136-.968-2.412-1.629-3.911-2.035-2.442-.663-4.737-.288-6.9315.708-1.3301.603-2.3692 1.657-3.2427 2.829-.3581.481-.3024.827.1333 1.219 2.087 1.881 4.5709 2.601 7.3989 2.361z"/><path d="m102.03 447.608c-2.1029-.064-3.8235-.905-5.4648-2.165 1.3169-1.596 2.8474-2.71 4.8378-3.222-.888.787-1.456 1.721-1.302 2.877.151 1.134.812 1.992 1.928 2.508z"/><path d="m104.484 447.389c2.253-2.126 1.63-4.161-.55-5.431.222-.023.358-.061.487-.046 1.676.19 3.123.903 4.498 1.79.44.284.451.568.086.927-1.199 1.177-2.504 2.196-4.165 2.704-.094.029-.196.032-.356.056z"/></g><g clip-path="url(#f)"><path d="m149.09 425.39c-.551-1.176-1.026-2.392-1.674-3.516-.823-1.431-1.888-2.736-2.668-4.187-1.395-2.592-1.583-5.362-.817-8.19.068-.253.415-.437.633-.655.185.237.49.453.535.714.295 1.719.908 3.318 1.943 4.733.693.948 1.504 1.817 2.304 2.687.147.161.489.154.741.225.055-.252.207-.528.15-.753-.385-1.512-1.034-2.954-1.078-4.552-.053-1.873.534-3.591 1.262-5.286.041-.096.108-.205.195-.258.204-.121.428-.21.643-.312.106.214.305.429.299.642-.022.854-.167 1.71-.158 2.563.017 1.402.44 2.657 1.375 3.794.691.842 1.149 1.862 1.711 2.803.092.156.188.31.398.433.01-.505-.054-1.024.046-1.512.266-1.299.45-2.644.96-3.857.464-1.102 1.497-1.855 2.721-2.226.194-.059.568.058.674.211.109.16.09.534-.038.693-1.628 2.039-1.149 4.157-.308 6.267.616 1.547 1.321 3.061 1.994 4.588.206.469.598.548.914.159.521-.641.943-1.365 1.522-1.947.528-.531 1.201-.931 1.835-1.357.084-.057.39.036.447.139.092.16.112.394.073.582-.25 1.215-.599 2.416-.763 3.641-.104.774.021 1.583.102 2.368.191 1.86.349 3.713-.035 5.576-.045.218.091.601.266.69.167.086.57-.035.736-.193.681-.651 1.427-1.179 2.368-1.386.204-.044.541-.011.639.115.127.161.123.46.085.687-.029.173-.169.357-.31.485-1.57 1.421-1.944 3.298-2.078 5.215-.125 1.769-.506 3.464-1.026 5.162-.572 1.869-1.506 3.54-2.809 4.979-2.748 3.032-6.16 4.127-10.219 2.948-1.038-.302-2.085-.591-3.088-.98-.627-.243-1.175-.668-1.767-.998-2.01-1.116-3.387-2.789-4.347-4.769-.406-.839-.498-1.817-.819-2.702-.73-2.015-1.465-4.032-2.299-6.007-.403-.954-1.002-1.839-1.582-2.714-.253-.381-.684-.651-1.022-.983-.153-.15-.316-.309-.401-.496-.249-.542.032-.934.628-.806.993.214 1.977.484 2.946.782 1.499.459 2.707 1.307 3.603 2.565.099.139.455.276.549.213.208-.139.441-.396.459-.619.12-1.541-.353-2.906-1.357-4.112-.8-.959-1.883-1.513-2.974-2.088-.985-.52-1.709-1.343-2.085-2.338-.758-2.005-.766-4.116-.609-6.223.017-.228.298-.586.498-.616.196-.029.542.235.654.453.503.968.884 2.003 1.438 2.942.34.577.851 1.1 1.393 1.517 1.702 1.31 3.472 2.539 5.179 3.842.472.361.822.868 1.228 1.307l.188-.083zm5.653 17.815c2.766-.334 5.015-1.53 6.67-3.726.484-.642.485-.842-.118-1.356-1.136-.967-2.412-1.629-3.91-2.035-2.442-.662-4.737-.288-6.932.709-1.33.603-2.369 1.657-3.243 2.829-.358.48-.302.826.134 1.219 2.087 1.88 4.571 2.6 7.399 2.36z"/><path d="m153.388 442.33c-2.103-.063-3.824-.904-5.465-2.165 1.317-1.595 2.847-2.709 4.838-3.222-.888.787-1.456 1.721-1.303 2.877.152 1.134.813 1.993 1.928 2.509z"/><path d="m155.841 442.112c2.254-2.126 1.631-4.161-.55-5.431.223-.023.359-.062.488-.046 1.675.19 3.123.902 4.497 1.789.441.285.451.568.086.928-1.198 1.177-2.503 2.196-4.165 2.704-.093.029-.195.032-.356.056z"/></g></g></svg>