<svg fill="none" height="511" viewBox="0 0 360 511" width="360" xmlns="http://www.w3.org/2000/svg" xmlns:xlink="http://www.w3.org/1999/xlink"><mask id="a" height="76" maskUnits="userSpaceOnUse" width="56" x="32" y="247"><path d="m87.586 312.117-18.5767-23.787 16.5282 6.317-18.2289-21.536 11.9036 3.287-19.4271-28.57-19.5816 28.57 12.3159-2.532-17.5593 20.743 16.6704-5.422-19.234 22.393 21.9392-5.461v16.881h10.6024v-16.868z" fill="#2b4a83"/></mask><path d="m41.216 167.208h-7.904l3.904-8.192zm4.768 9.792h9.952l-12.448-23.808h-12.224l-11.776 23.808h9.216l1.824-3.84h13.6zm32.2428 0h9.088v-23.808h-27.2c0 12.384-.32 15.008-1.216 16.16-.544.736-1.28.864-2.56.864h-.48v6.784h2.944c4.352 0 6.368-1.024 7.648-3.168 1.28-2.048 1.92-5.056 1.92-14.528h9.856zm21.0512-16.8v-7.008h-9.088v23.808h19.104c9.632 0 12.032-3.744 12.032-8.192v-.512c0-4.448-2.432-8.096-12.032-8.096zm0 10.88v-4.96h8.864c2.944 0 3.776 1.056 3.776 2.4v.096c0 1.28-.832 2.464-3.776 2.464zm31.013 5.92h9.088v-17.312h10.272v-6.496h-29.632v6.496h10.272zm21.526-23.808v23.808h26.592v-5.952h-17.632v-3.264h17.024v-5.792h-17.024v-2.976h17.376v-5.824zm48.872 16.352c8.704 0 11.296-3.648 11.296-7.968v-.512c0-4.384-2.496-7.872-11.296-7.872h-19.84v23.808h9.088v-7.456zm-10.752-10.4h9.664c2.144 0 3.008.8 3.008 2.176v.096c0 1.312-.928 2.176-3.008 2.176h-9.664zm23.816 17.856h9.088v-9.056h14.88v9.056h9.056v-23.808h-9.056v8.416h-14.88v-8.416h-9.088zm55.682-9.792h-7.904l3.904-8.192zm4.768 9.792h9.952l-12.448-23.808h-12.224l-11.776 23.808h9.216l1.824-3.84h13.6z" fill="#8b52d4"/><path d="m202.028 414v-38.792h-8.112v38.792h-9.568v-85.592h9.568v37.232h8.112v-37.232h9.568v85.592zm16.848 0v-85.592h8.736v53.976l7.488-53.976h11.128v85.592h-8.84v-54.912l-9.256 54.912zm56.161 0c-2.149-7.141-4.195-14.075-6.136-20.8-1.941-6.795-3.917-13.659-5.928-20.592.139 3.536.208 7.176.208 10.92v12.48 17.992h-9.672v-85.592h9.672v17.68 10.608c0 2.773-.069 5.477-.208 8.112 1.941-6.309 3.883-12.411 5.824-18.304 1.941-5.963 3.917-11.995 5.928-18.096h10.296l-13.728 38.584 14.768 47.008zm14.933 0v-85.592h8.736v53.976l7.488-53.976h11.128v85.592h-8.84v-54.912l-9.256 54.912z" fill="#a2c366"/><path d="m257.892 282.9c2.791 0 5.046-2.244 5.046-4.998 0-2.753-2.255-4.997-5.046-4.997-2.79 0-5.045 2.234-5.045 4.997 0 2.764 2.255 4.998 5.045 4.998zm-2.131 3.651-2.157 42.384h9.5l-3.183-42.384zm23.334.897c-3.697-2.713-8.495-5.884-12.995-8.546-.196-.112-.433-.123-.639-.021-.195.092-.34.276-.381.5-.288 1.765-1.246 3.294-2.595 4.365-.175.143-.268.357-.247.582.01.224.144.418.35.53 8.661 4.732 18.886 9.791 21.821 9.862.33-.01.762-.051 1.061-.49.103-.193.134-.367.134-.51-.258-1.631-2.791-3.396-6.509-6.272zm-23.664-15.899c.814-.306 1.668-.49 2.564-.49s1.751.184 2.565.49c.072.03.154.04.247.04.134 0 .267-.04.391-.122.175-.133.278-.336.278-.561-.082-5.405-.422-10.984-.916-15.226-.248-2.132-.546-3.917-.876-5.212-.432-1.244-.422-2.193-1.689-2.468-1.256.275-1.246 1.224-1.678 2.468-.978 3.855-1.668 12.31-1.792 20.428 0 .214.103.428.288.561.175.132.412.153.629.081zm-1.833 12.636c.021-.225-.062-.439-.237-.582-1.318-1.111-2.214-2.661-2.461-4.446-.031-.225-.175-.418-.381-.51s-.443-.092-.638.03c-4.541 2.683-9.289 5.742-12.913 8.353-3.646 2.744-6.107 4.406-6.364 6.038 0 .132.03.336.144.51.319.469.772.489 1.112.499 2.945-.071 12.79-4.671 21.388-9.362.196-.112.319-.306.34-.52zm-2.873-25.895-1.06-2.906c-9.299 3.325-15.921 12.157-15.931 22.498h3.12c0-9.016 5.788-16.685 13.861-19.592zm-9.484 37.205c2.43 2.376 5.345 4.212 8.516 5.395l1.102-2.896c-2.77-1.03-5.303-2.632-7.425-4.702zm30.677-1.917c-2.049 1.937-4.49 3.447-7.126 4.426l1.102 2.896c3.027-1.132 5.818-2.855 8.176-5.079l-2.132-2.243h-.01zm6.755-15.696h3.12c0-10.341-6.631-19.163-15.92-22.498l-1.061 2.906c8.084 2.897 13.861 10.587 13.861 19.592z" fill="#a2c466"/><path d="m59.2435 323v-85.592h8.736v53.976l7.488-53.976h11.128v85.592h-8.84v-54.912l-9.256 54.912zm51.8965-31.408h8.736v17.68c0 4.992-1.005 8.701-3.016 11.128-2.01 2.357-5.234 3.536-9.672 3.536-9.221 0-13.8317-4.819-13.8317-14.456v-58.24c0-9.845 4.6107-14.768 13.8317-14.768 8.459 0 12.688 4.853 12.688 14.56v15.184h-8.736v-15.184c0-1.664-.312-2.877-.936-3.64-.554-.832-1.56-1.248-3.016-1.248-2.704 0-4.056 1.629-4.056 4.888v58.344c0 3.328 1.352 4.992 4.056 4.992 2.635 0 3.952-1.664 3.952-4.992zm19.651 31.408v-75.92h-8.944v-9.672h27.456v9.672h-8.944v75.92zm20.964-71.968c0-9.707 4.541-14.56 13.624-14.56 9.152 0 13.728 4.853 13.728 14.56v58.344c0 9.707-4.576 14.56-13.728 14.56-9.083 0-13.624-4.853-13.624-14.56zm17.784 0c0-3.259-1.387-4.888-4.16-4.888-2.704 0-4.056 1.629-4.056 4.888v58.344c0 3.328 1.352 4.992 4.056 4.992 2.773 0 4.16-1.664 4.16-4.992zm32.18 71.968v-35.984c-.554.208-1.352.416-2.392.624-.97.208-2.045.312-3.224.312-3.744 0-6.69-1.213-8.84-3.64-2.149-2.427-3.224-6.067-3.224-10.92v-35.984h9.672v35.672c0 2.011.312 3.501.936 4.472.624.901 1.803 1.352 3.536 1.352.763 0 1.387-.069 1.872-.208.555-.208 1.11-.451 1.664-.728v-40.56h9.672v85.592z" fill="#a2c366"/><g mask="url(#a)"><path d="m6.70508 238.789h58.9957v100.388h-58.9957z" fill="#a2c466"/></g><path d="m139.612 423.701-13.292-17.144 11.826 4.553-13.042-15.522 8.517 2.369-13.9-20.592-14.011 20.592 8.812-1.825-12.563 14.95 11.927-3.908-13.761 16.14 15.697-3.936v12.167h7.586v-12.158z" fill="#a2c466"/><path d="m86.6119 450.791-13.2914-17.145 11.8257 4.554-13.0425-15.522 8.5169 2.369-13.8999-20.592-14.0103 20.592 8.8118-1.825-12.5634 14.95 11.9275-3.908-13.7617 16.14 15.6972-3.936v12.167h7.5859v-12.158z" fill="#a2c466"/><g fill="#8b52d4"><path d="m38.25 126.031c.3333-.416.7083-.5 1.125-.25.4167.229.5208.594.3125 1.094-2.0833 3.563-3.7813 7.292-5.0937 11.187-.25.48-.6042.657-1.0626.532-.4583-.125-.6354-.448-.5312-.969 1.3542-4.042 3.1042-7.906 5.25-11.594zm-3.8438 12.375c-.5.188-.875.073-1.125-.344-.2291-.416-.1354-.781.2813-1.093 5.5417-3.125 10.8229-6.615 15.8437-10.469.3542-.188.6876-.146 1 .125.25.292.2917.625.125 1-1.75 3.75-3.2291 7.594-4.4374 11.531-.2084.5-.5521.688-1.0313.563-.4583-.125-.6458-.459-.5625-1 1.2708-4.084 2.8021-8.063 4.5938-11.938l1.125 1.125c-5.0209 3.875-10.2917 7.375-15.8126 10.5zm33.2813-.906c.0625-.479.3333-.74.8125-.781.4792.041.75.302.8125.781 0 .25.0104.5.0313.75 0-.062-.0105-.125-.0313-.188.0625.355.1563.709.2813 1.063 0 .042.0104.083.0312.125.0417.104.0521.125.0312.062-.0416-.062-.0416-.052 0 .032.0209.041.0417.083.0626.125.0833.166.177.333.2812.5.2083.437.1146.802-.2812 1.093-.4584.209-.8334.115-1.125-.281-.6042-1-.9063-2.093-.9063-3.281zm-12.7187-11.406c.1874-.438.5208-.625 1-.563.4583.188.6458.521.5624 1-1.5624 4.042-3.2708 8.021-5.125 11.938-.2916.396-.6666.5-1.125.312-.375-.291-.4687-.666-.2812-1.125 1.8125-3.791 3.4688-7.646 4.9688-11.562zm-5.3438 12.75c-.5208-.042-.7812-.292-.7812-.75 0-.479.2604-.771.7812-.875 6.3333-.271 12.6771-.344 19.0312-.219.3334.021.5521.167.6563.438.125.25.125.51 0 .781-.1042.25-.3229.385-.6563.406-6.3541-.146-12.6979-.073-19.0312.219zm20.3438-13.219c.1666-.458.5-.646 1-.563.4583.167.6458.5.5624 1-1.3958 3.917-2.8437 7.813-4.3437 11.688-.1875.438-.5208.625-1 .562-.4583-.187-.6458-.52-.5625-1 1.5208-3.874 2.9688-7.77 4.3438-11.687zm-7-.594c.2916-.396.6666-.489 1.125-.281.375.292.4687.667.2812 1.125-.2083.396-.3958.802-.5625 1.219-.1875.396-.3333.729-.4375 1-1.3542 3.396-2.75 6.76-4.1875 10.094-.2708.395-.6354.5-1.0937.312-.3959-.292-.4896-.667-.2813-1.125.5208-1.167 1.0313-2.344 1.5313-3.531 1.1458-2.959 2.3541-5.896 3.625-8.813zm13.1562 1c.3333-.416.7083-.5 1.125-.25.4167.229.5208.594.3125 1.094-2.0833 3.563-3.7813 7.292-5.0937 11.187-.25.48-.6042.657-1.0626.532-.4583-.125-.6354-.448-.5312-.969 1.3542-4.042 3.1042-7.906 5.25-11.594zm-3.8438 12.375c-.5.188-.875.073-1.125-.344-.2291-.416-.1354-.781.2813-1.093 5.5417-3.125 10.8229-6.615 15.8437-10.469.3542-.188.6876-.146 1 .125.25.292.2917.625.125 1-1.75 3.75-3.2291 7.594-4.4374 11.531-.2084.5-.5521.688-1.0313.563-.4583-.125-.6458-.459-.5625-1 1.2708-4.084 2.8021-8.063 4.5938-11.938l1.125 1.125c-5.0209 3.875-10.2917 7.375-15.8126 10.5zm23.7188-12.218c.2917-.396.625-.48 1-.25.3958.229.5.562.3125 1-2.0833 3.624-3.7813 7.416-5.0937 11.374-.2084.438-.5313.605-.9688.5-.4167-.124-.5833-.427-.5-.906 1.3542-4.083 3.1042-7.989 5.25-11.718zm7.438-.282c.5.084.75.344.75.782 0 .187-.073.364-.219.531-.146.146-.323.219-.531.219-4.813-.396-9.5422.031-14.188 1.281-.5.062-.8125-.115-.9375-.531-.1042-.438.0729-.75.5313-.938 4.7916-1.292 9.6562-1.74 14.5942-1.344zm-1.969 9.938c-.229.021-.427-.063-.594-.25-.167-.188-.25-.386-.25-.594 0-.479.281-.75.844-.812 1.541-.146 3.093-.376 4.656-.688s3.052-.823 4.469-1.531c1.25-.584 2.323-1.396 3.218-2.438.396-.437.584-.927.563-1.469-.063-.25-.229-.416-.5-.5-.25-.104-.49-.166-.719-.187-1.458-.146-2.802.125-4.031.813-1.229.687-2.167 1.677-2.813 2.968-.583 1.229-.77 2.511-.562 3.844.104.625.406 1.115.906 1.469.459.291.959.469 1.5.531 1.271.083 2.469-.177 3.594-.781 1.125-.542 2.156-1.219 3.094-2.031.396-.334.791-.334 1.187 0 .313.395.313.791 0 1.187-1.271 1.146-2.771 2.073-4.5 2.781-1.708.709-3.406.74-5.093.094-1.126-.542-1.855-1.344-2.188-2.406-.312-1.063-.344-2.188-.094-3.375.25-1.188.667-2.229 1.25-3.125 1.021-1.5 2.386-2.563 4.094-3.188.792-.291 1.646-.458 2.562-.5.938-.062 1.803.073 2.594.406.854.417 1.323 1.105 1.406 2.063-.02.896-.322 1.698-.906 2.406-1.083 1.271-2.385 2.261-3.906 2.969-1.521.729-3.115 1.26-4.781 1.594-1.667.333-3.334.583-5 .75z"/><path d="m38.25 126.031-.3904-.312-.0231.029-.0187.032zm1.125-.25-.2572.429.008.005.0082.004zm.3125 1.094.4316.252.017-.029.0129-.031zm-5.0937 11.187.4432.232.0181-.035.0125-.037zm-1.5938-.437-.4741-.159-.01.03-.0062.031zm1.4062.781.1756.468.0367-.013.034-.02zm-1.125-.344-.4381.241.0046.009.0048.008zm.2813-1.093-.2456-.436-.0284.016-.026.02zm15.8437-10.469-.2339-.442-.0372.02-.0333.025zm1 .125.3797-.325-.0242-.029-.028-.024zm.125 1 .4532.211.0038-.008zm-4.4374 11.531.4615.193.0093-.023.0071-.023zm-1.0313.563-.1316.482.0054.002zm-.5625-1-.4774-.149-.0111.036-.0057.037zm4.5938-11.938.3535-.353-.5067-.507-.3007.65zm1.125 1.125.3054.396.4501-.347-.402-.402zm-11.5784-1.562c.1228-.154.2094-.191.2493-.2.0318-.007.0992-.011.2281.066l.5144-.857c-.2877-.173-.6162-.261-.9594-.185-.3351.075-.6027.288-.8132.551zm.4936-.125c.1229.068.1442.122.1509.145.01.035.0199.13-.0589.319l.923.384c.1295-.311.1915-.648.0974-.978-.0975-.341-.3366-.584-.6304-.746zm.1219.404c-2.1005 3.591-3.8126 7.352-5.136 11.28l.9477.319c1.3016-3.863 2.9853-7.561 5.0515-11.095zm-5.1054 11.208c-.0938.18-.1794.249-.2335.276-.0459.023-.1187.041-.2542.004l-.2631.965c.3229.088.6563.08.9645-.074.3001-.15.5166-.409.6728-.708zm-.4877.28c-.1382-.037-.1639-.083-.1697-.094-.0115-.021-.0418-.099-.0028-.294l-.9806-.196c-.0652.326-.059.669.1066.971.1713.313.4632.491.7834.578zm-.1887-.327c1.3434-4.01 3.0793-7.843 5.2081-11.501l-.8644-.503c-2.1629 3.717-3.9269 7.612-5.2919 11.686zm.7566.154c-.1837.069-.2848.06-.3346.045-.0427-.013-.1089-.049-.1861-.178l-.8575.515c.1728.288.4191.518.7514.619.3252.099.6616.054.9779-.065zm-.5113-.116c-.0701-.128-.0629-.192-.0555-.221.0095-.037.0467-.118.1986-.232l-.6-.8c-.2648.198-.4827.455-.5671.783-.0863.336-.0113.662.1477.951zm.0887-.418c5.5621-3.136 10.863-6.639 15.9026-10.507l-.6089-.794c-5.0021 3.84-10.2636 7.317-15.7849 10.43zm15.8321-10.462c.1042-.055.1733-.061.2197-.055.0478.006.12.03.2189.116l.6549-.756c-.2136-.185-.4643-.317-.7498-.353-.287-.035-.5617.032-.8116.164zm.3864.008c.0706.083.0953.15.1023.206.0072.058 0 .143-.0546.266l.9139.406c.1121-.252.1673-.521.1329-.796-.0346-.278-.1558-.523-.3352-.732zm.0516.464c-1.7598 3.77-3.2473 7.636-4.4624 11.596l.9559.293c1.2016-3.915 2.6724-7.737 4.4126-11.467zm-4.446 11.55c-.077.185-.1523.247-.1919.269-.0328.018-.1012.041-.2516.002l-.2524.968c.3287.085.6718.077.9828-.092.3041-.166.5048-.447.6362-.762zm-.4381.272c-.1333-.036-.1671-.083-.1802-.106-.0196-.035-.0515-.128-.0197-.335l-.9884-.152c-.0515.335-.0314.679.1365.977.1745.31.4636.492.7886.581zm-.2167-.369c1.2643-4.062 2.7877-8.021 4.5702-11.876l-.9077-.42c-1.8009 3.895-3.34 7.895-4.6173 11.999zm3.7628-11.732c.0007.001.0015.001.0022.002s.0015.001.0022.002.0015.002.0022.002c.0007.001.0015.002.0022.003.0007 0 .0015.001.0022.002s.0014.001.0022.002c.0007.001.0014.001.0022.002.0007.001.0014.002.0022.002.0007.001.0014.002.0022.003.0007 0 .0014.001.0022.002.0007.001.0014.001.0022.002.0007.001.0014.001.0022.002.0007.001.0014.002.0022.002.0007.001.0014.002.0022.003.0007 0 .0014.001.0022.002.0007 0 .0014.001.0022.002.0007.001.0014.001.0022.002.0007.001.0014.002.0021.002.0008.001.0015.002.0022.003.0008 0 .0015.001.0022.002.0008 0 .0015.001.0022.002.0008.001.0015.001.0022.002.0008.001.0015.002.0022.002.0008.001.0015.002.0022.003.0008 0 .0015.001.0022.002.0008 0 .0015.001.0022.002.0008.001.0015.001.0022.002.0008.001.0015.002.0022.002.0008.001.0015.002.0022.003.0007 0 .0015.001.0022.002.0007 0 .0015.001.0022.002s.0015.001.0022.002.0015.002.0022.002c.0007.001.0015.002.0022.003.0007 0 .0015.001.0022.002.0007 0 .0015.001.0022.002s.0015.001.0022.002.0015.002.0022.002c.0007.001.0015.002.0022.002.0007.001.0015.002.0022.003.0007 0 .0015.001.0022.002s.0014.001.0022.002c.0007.001.0014.002.0022.002.0007.001.0014.002.0022.002.0007.001.0014.002.0022.003.0007 0 .0014.001.0022.002.0007.001.0014.001.0022.002.0007.001.0014.002.0022.002.0007.001.0014.002.0022.002.0007.001.0014.002.0022.003.0007 0 .0014.001.0022.002.0007.001.0014.001.0022.002.0007.001.0014.002.0022.002.0007.001.0014.002.0021.002.0008.001.0015.002.0022.003.0008 0 .0015.001.0022.002.0008.001.0015.001.0022.002.0008.001.0015.002.0022.002.0008.001.0015.002.0022.002.0008.001.0015.002.0022.003.0008 0 .0015.001.0022.002.0008.001.0015.001.0022.002.0008.001.0015.001.0022.002.0008.001.0015.002.0022.002.0008.001.0015.002.0022.003.0008 0 .0015.001.0022.002s.0015.001.0022.002.0015.001.0022.002.0015.002.0022.002c.0007.001.0015.002.0022.003.0007 0 .0015.001.0022.002s.0015.001.0022.002.0015.001.0022.002.0015.002.0022.002c.0007.001.0015.002.0022.003.0007 0 .0015.001.0022.002s.0015.001.0022.002.0015.001.0022.002.0014.002.0022.002c.0007.001.0014.002.0022.003.0007 0 .0014.001.0022.002.0007.001.0014.001.0022.002.0007.001.0014.001.0022.002.0007.001.0014.002.0022.002.0007.001.0014.002.0022.003.0007 0 .0014.001.0022.002.0007.001.0014.001.0022.002.0007.001.0014.001.0022.002.0007.001.0014.002.0022.002.0007.001.0014.002.0022.003.0007 0 .0014.001.0021.002.0008 0 .0015.001.0022.002.0008.001.0015.001.0022.002.0008.001.0015.002.0022.002.0008.001.0015.002.0022.003.0008 0 .0015.001.0022.002.0008 0 .0015.001.0022.002.0008.001.0015.001.0022.002.0008.001.0015.002.0022.002.0008.001.0015.002.0022.003.0008 0 .0015.001.0022.002.0008 0 .0015.001.0022.002.0008.001.0015.001.0022.002s.0015.002.0022.002c.0007.001.0015.002.0022.003.0007 0 .0015.001.0022.002.0007 0 .0015.001.0022.002s.0015.001.0022.002.0015.002.0022.002c.0007.001.0015.002.0022.003.0007 0 .0015.001.0022.002.0007 0 .0015.001.0022.002s.0015.001.0022.002.0015.002.0022.002c.0007.001.0014.002.0022.002.0007.001.0014.002.0022.003.0007 0 .0014.001.0022.002.0007.001.0014.001.0022.002.0007.001.0014.002.0022.002.0007.001.0014.002.0022.002.0007.001.0014.002.0022.003.0007 0 .0014.001.0022.002.0007.001.0014.001.0022.002.0007.001.0014.002.0022.002.0007.001.0014.002.0022.002.0007.001.0014.002.0022.003.0007 0 .0014.001.0021.002.0008.001.0015.001.0022.002.0008.001.0015.002.0022.002.0008.001.0015.002.0022.002.0008.001.0015.002.0022.003.0008 0 .0015.001.0022.002.0008.001.0015.001.0022.002.0008.001.0015.002.0022.002.0008.001.0015.002.0022.002.0008.001.0015.002.0022.003.0008 0 .0015.001.0022.002.0008.001.0015.001.0022.002.0008.001.0015.001.0022.002s.0015.002.0022.002c.0007.001.0015.002.0022.003.0007 0 .0015.001.0022.002s.0015.001.0022.002.0015.001.0022.002.0015.002.0022.002c.0007.001.0015.002.0022.003.0007 0 .0015.001.0022.002s.0015.001.0022.002.0015.001.0022.002.0015.002.0022.002c.0007.001.0015.002.0022.003.0007 0 .0014.001.0022.002.0007.001.0014.001.0022.002.0007.001.0014.001.0022.002.0007.001.0014.002.0022.002.0007.001.0014.002.0022.003.0007 0 .0014.001.0022.002.0007.001.0014.001.0022.002.0007.001.0014.001.0022.002.0007.001.0014.002.0022.002.0007.001.0014.002.0022.003.0007 0 .0014.001.0022.002.0007 0 .0014.001.0022.002.0007.001.0014.001.0021.002.0008.001.0015.002.0022.002.0008.001.0015.002.0022.003.0008 0 .0015.001.0022.002.0008 0 .0015.001.0022.002.0008.001.0015.001.0022.002.0008.001.0015.002.0022.002.0008.001.0015.002.0022.003.0008 0 .0015.001.0022.002.0008 0 .0015.001.0022.002.0008.001.0015.001.0022.002.0008.001.0015.002.0022.002.0008.001.0015.002.0022.003.0007 0 .0015.001.0022.002.0007 0 .0015.001.0022.002s.0015.001.0022.002.0015.002.0022.002c.0007.001.0015.002.0022.003.0007 0 .0015.001.0022.002.0007 0 .0015.001.0022.002s.0015.001.0022.002.0015.002.0022.002c.0007.001.0015.002.0022.002.0007.001.0015.002.0022.003.0007 0 .0015.001.0022.002s.0014.001.0022.002c.0007.001.0014.002.0022.002.0007.001.0014.002.0022.002.0007.001.0014.002.0022.003.0007 0 .0014.001.0022.002.0007.001.0014.001.0022.002.0007.001.0014.002.0022.002.0007.001.0014.002.0022.002.0007.001.0014.002.0022.003.0007 0 .0014.001.0022.002.0007.001.0014.001.0022.002.0007.001.0014.002.0021.002.0008.001.0015.002.0022.002.0008.001.0015.002.0022.003.0008 0 .0015.001.0022.002.0008.001.0015.001.0022.002.0008.001.0015.002.0022.002.0008.001.0015.002.0022.002.0008.001.0015.002.0022.003.0008 0 .0015.001.0022.002.0008.001.0015.001.0022.002.0008.001.0015.001.0022.002.0008.001.0015.002.0022.002.0008.001.0015.002.0022.003.0007 0 .0015.001.0022.002s.0015.001.0022.002.0015.001.0022.002.0015.002.0022.002c.0007.001.0015.002.0022.003.0007 0 .0015.001.0022.002s.0015.001.0022.002.0015.001.0022.002.0015.002.0022.002c.0007.001.0015.002.0022.003.0007 0 .0015.001.0022.002s.0015.001.0022.002.0014.001.0022.002c.0007.001.0014.002.0022.002.0007.001.0014.002.0022.003.0007 0 .0014.001.0022.002.0007.001.0014.001.0022.002.0007.001.0014.001.0022.002.0007.001.0014.002.0022.002.0007.001.0014.002.0022.003.0007 0 .0014.001.0022.002.0007 0 .0014.001.0022.002.0007.001.0014.001.0022.002.0007.001.0014.002.0022.002.0007.001.0014.002.0021.003.0008 0 .0015.001.0022.002.0008 0 .0015.001.0022.002.0008.001.0015.001.0022.002.0008.001.0015.002.0022.002.0008.001.0015.002.0022.003.0008 0 .0015.001.0022.002.0008 0 .0015.001.0022.002.0008.001.0015.001.0022.002.0008.001.0015.002.0022.002.0008.001.0015.002.0022.003.0008 0 .0015.001.0022.002.0008 0 .0015.001.0022.002s.0015.001.0022.002.0015.002.0022.002c.0007.001.0015.002.0022.003.0007 0 .0015.001.0022.002.0007 0 .0015.001.0022.002s.0015.001.0022.002.0015.002.0022.002c.0007.001.0015.002.0022.003.0007 0 .0015.001.0022.002.0007 0 .0015.001.0022.002s.0015.001.0022.002.0015.002.0022.002c.0007.001.0014.002.0022.002.0007.001.0014.002.0022.003.0007 0 .0014.001.0022.002.0007.001.0014.001.0022.002.0007.001.0014.002.0022.002.0007.001.0014.002.0022.002.0007.001.0014.002.0022.003.0007 0 .0014.001.0022.002.0007.001.0014.001.0022.002.0007.001.0014.002.0022.002.0007.001.0014.002.0022.002.0007.001.0014.002.0022.003.0007 0 .0014.001.0021.002.0008.001.0015.001.0022.002.0008.001.0015.002.0022.002.0008.001.0015.002.0022.002.0008.001.0015.002.0022.003.0008 0 .0015.001.0022.002.0008.001.0015.001.0022.002.0008.001.0015.002.0022.002.0008.001.0015.002.0022.002.0008.001.0015.002.0022.003.0008 0 .0015.001.0022.002.0008.001.0015.001.0022.002s.0015.001.0022.002.0015.002.0022.002c.0007.001.0015.002.0022.003.0007 0 .0015.001.0022.002s.0015.001.0022.002.0015.001.0022.002.0015.002.0022.002c.0007.001.0015.002.0022.003.0007 0 .0015.001.0022.002s.0015.001.0022.002.0015.001.0022.002.0015.002.0022.002c.0007.001.0014.002.0022.003.0007 0 .0014.001.0022.002.0007.001.0014.001.0022.002.0007.001.0014.001.0022.002.0007.001.0014.002.0022.002.0007.001.0014.002.0022.003.0007 0 .0014.001.0022.002.0007.001.0014.001.0022.002.0007.001.0014.001.0022.002.0007.001.0014.002.0022.002.0007.001.0014.002.0022.003.0007 0 .0014.001.0022.002.0007 0 .0014.001.0021.002.0008.001.0015.001.0022.002.0008.001.0015.002.0022.002.0008.001.0015.002.0022.003.0008 0 .0015.001.0022.002.0008 0 .0015.001.0022.002.0008.001.0015.001.0022.002.0008.001.0015.002.0022.002.0008.001.0015.002.0022.003.0008 0 .0015.001.0022.002.0008 0 .0015.001.0022.002.0008.001.0015.001.0022.002.0008.001.0015.002.0022.002.0007.001.0015.002.0022.003.0007 0 .0015.001.0022.002.0007 0 .0015.001.0022.002s.0015.001.0022.002.0015.002.0022.002c.0007.001.0015.002.0022.003.0007 0 .0015.001.0022.002.0007 0 .0015.001.0022.002s.0015.001.0022.002.0015.002.0022.002c.0007.001.0015.002.0022.002.0007.001.0015.002.0022.003.0007 0 .0014.001.0022.002.0007.001.0014.001.0022.002.0007.001.0014.002.0022.002.0007.001.0014.002.0022.002.0007.001.0014.002.0022.003.0007 0 .0014.001.0022.002.0007.001.0014.001.0022.002.0007.001.0014.002.0022.002.0007.001.0014.002.0022.002.0007.001.0014.002.0022.003.0007 0 .0014.001.0022.002.0007.001.0014.001.0022.002.0007.001.0014.002.0021.002.0008.001.0015.002.0022.002.0008.001.0015.002.0022.003.0008 0 .0015.001.0022.002.0008.001.0015.001.0022.002.0008.001.0015.002.0022.002.0008.001.0015.002.0022.002.0008.001.0015.002.0022.003.0008 0 .0015.001.0022.002.0008.001.0015.001.0022.002.0008.001.0015.001.0022.002.0008.001.0015.002.0022.002.0008.001.0015.002.0022.003.0007 0 .0015.001.0022.002s.0015.001.0022.002.0015.001.0022.002.0015.002.0022.002c.0007.001.0015.002.0022.003.0007 0 .0015.001.0022.002s.0015.001.0022.002.0015.001.0022.002.0015.002.0022.002c.0007.001.0015.002.0022.003.0007 0 .0015.001.0022.002s.0014.001.0022.002c.0007.001.0014.001.0022.002.0007.001.0014.002.0022.002.0007.001.0014.002.0022.003.0007 0 .0014.001.0022.002.0007.001.0014.001.0022.002.0007.001.0014.001.0022.002.0007.001.0014.002.0022.002.0007.001.0014.002.0022.003.0007 0 .0014.001.0022.002.0007 0 .0014.001.0022.002.0007.001.0014.001.0022.002.0007.001.0014.002.0021.002.0008.001.0015.002.0022.003.0008 0 .0015.001.0022.002.0008 0 .0015.001.0022.002.0008.001.0015.001.0022.002.0008.001.0015.002.0022.002.0008.001.0015.002.0022.003.0008 0 .0015.001.0022.002.0008 0 .0015.001.0022.002.0008.001.0015.001.0022.002.0008.001.0015.002.0022.002.0008.001.0015.002.0022.003.0008 0 .0015.001.0022.002.0007 0 .0015.001.0022.002s.0015.001.0022.002.0015.002.0022.002c.0007.001.0015.002.0022.003.0007 0 .0015.001.0022.002.0007 0 .0015.001.0022.002s.0015.001.0022.002.0015.002.0022.002c.0007.001.0015.002.0022.002.0007.001.0015.002.0022.003.0007 0 .0015.001.0022.002s.0015.001.0022.002.0014.002.0022.002c.0007.001.0014.002.0022.002.0007.001.0014.002.0022.003.0007 0 .0014.001.0022.002.0007.001.0014.001.0022.002.0007.001.0014.002.0022.002.0007.001.0014.002.0022.002.0007.001.0014.002.0022.003.0007 0 .0014.001.0022.002.0007.001.0014.001.0022.002.0007.001.0014.002.0022.002.0007.001.0014.002.0022.002.0007.001.0014.002.0021.003.0008 0 .0015.001.0022.002.0008.001.0015.001.0022.002.0008.001.0015.002.0022.002.0008.001.0015.002.0022.002.0008.001.0015.002.0022.003.0008 0 .0015.001.0022.002.0008.001.0015.001.0022.002.0008.001.0015.002.0022.002.0008.001.0015.002.0022.002.0008.001.0015.002.0022.003.0008 0 .0015.001.0022.002.0008.001.0015.001.0022.002s.0015.001.0022.002.0015.002.0022.002c.0007.001.0015.002.0022.003.0007 0 .0015.001.0022.002s.0015.001.0022.002.0015.001.0022.002.0015.002.0022.002c.0007.001.0015.002.0022.003.0007 0 .0015.001.0022.002s.0015.001.0022.002.0015.001.0022.002.0015.002.0022.002c.0007.001.0014.002.0022.003.0007 0 .0014.001.0022.002.0007.001.0014.001.0022.002.0007.001.0014.001.0022.002.0007.001.0014.002.0022.002.0007.001.0014.002.0022.003.0007 0 .0014.001.0022.002.0007.001.0014.001.0022.002.0007.001.0014.001.0022.002.0007.001.0014.002.0022.002.0007.001.0014.002.0022.003.0007 0 .0014.001.0021.002.0008 0 .0015.001.0022.002.0008.001.0015.001.0022.002.0008.001.0015.002.0022.002.0008.001.0015.002.0022.003.0008 0 .0015.001.0022.002.0008 0 .0015.001.0022.002.0008.001.0015.001.0022.002.0008.001.0015.002.0022.002.0008.001.0015.002.0022.003.0008 0 .0015.001.0022.002.0008 0 .0015.001.0022.002.0008.001.0015.001.0022.002s.0015.002.0022.002c.0007.001.0015.002.0022.003.0007 0 .0015.001.0022.002.0007 0 .0015.001.0022.002s.0015.001.0022.002.0015.002.0022.002c.0007.001.0015.002.0022.003.0007 0 .0015.001.0022.002.0007 0 .0015.001.0022.002s.0015.001.0022.002.0015.002.0022.002c.0007.001.0015.002.0022.002.0007.001.0014.002.0022.003.0007 0 .0014.001.0022.002.0007.001.0014.001.0022.002.0007.001.0014.002.0022.002.0007.001.0014.002.0022.002.0007.001.0014.002.0022.003.0007 0 .0014.001.0022.002.0007.001.0014.001.0022.002.0007.001.0014.002.0022.002.0007.001.0014.002.0022.002.0007.001.0014.002.0022.003.0007 0 .0014.001.0022.002.0007.001.0014.001.0021.002.0008.001.0015.002.0022.002.0008.001.0015.002.0022.002.0008.001.0015.002.0022.003.0008 0 .0015.001.0022.002.0008.001.0015.001.0022.002.0008.001.0015.002.0022.002.0008.001.0015.002.0022.002.0008.001.0015.002.0022.003.0008 0 .0015.001.0022.002.0008.001.0015.001.0022.002.0008.001.0015.001.0022.002.0008.001.0015.002.0022.002.0007.001.0015.002.0022.003.0007 0 .0015.001.0022.002s.0015.001.0022.002.0015.001.0022.002.0015.002.0022.002c.0007.001.0015.002.0022.003.0007 0 .0015.001.0022.002l.7071-.707c-.0007-.001-.0015-.002-.0022-.003-.0007 0-.0015-.001-.0022-.002-.0007 0-.0015-.001-.0022-.002s-.0015-.001-.0022-.002-.0015-.002-.0022-.002c-.0007-.001-.0014-.002-.0022-.002-.0007-.001-.0014-.002-.0022-.003-.0007 0-.0014-.001-.0022-.002-.0007-.001-.0014-.001-.0022-.002-.0007-.001-.0014-.002-.0022-.002-.0007-.001-.0014-.002-.0022-.002-.0007-.001-.0014-.002-.0022-.003-.0007 0-.0014-.001-.0022-.002-.0007-.001-.0014-.001-.0022-.002-.0007-.001-.0014-.002-.0022-.002-.0007-.001-.0014-.002-.0022-.002-.0007-.001-.0014-.002-.0022-.003-.0007 0-.0014-.001-.0021-.002-.0008-.001-.0015-.001-.0022-.002-.0008-.001-.0015-.002-.0022-.002-.0008-.001-.0015-.002-.0022-.002-.0008-.001-.0015-.002-.0022-.003-.0008 0-.0015-.001-.0022-.002-.0008-.001-.0015-.001-.0022-.002-.0008-.001-.0015-.002-.0022-.002-.0008-.001-.0015-.002-.0022-.002-.0008-.001-.0015-.002-.0022-.003-.0008 0-.0015-.001-.0022-.002-.0008-.001-.0015-.001-.0022-.002s-.0015-.001-.0022-.002-.0015-.002-.0022-.002c-.0007-.001-.0015-.002-.0022-.003-.0007 0-.0015-.001-.0022-.002s-.0015-.001-.0022-.002-.0015-.001-.0022-.002-.0015-.002-.0022-.002c-.0007-.001-.0015-.002-.0022-.003-.0007 0-.0015-.001-.0022-.002s-.0015-.001-.0022-.002-.0015-.001-.0022-.002-.0015-.002-.0022-.002c-.0007-.001-.0014-.002-.0022-.003-.0007 0-.0014-.001-.0022-.002-.0007-.001-.0014-.001-.0022-.002-.0007-.001-.0014-.001-.0022-.002-.0007-.001-.0014-.002-.0022-.002-.0007-.001-.0014-.002-.0022-.003-.0007 0-.0014-.001-.0022-.002-.0007-.001-.0014-.001-.0022-.002-.0007-.001-.0014-.001-.0022-.002-.0007-.001-.0014-.002-.0022-.002-.0007-.001-.0014-.002-.0022-.003-.0007 0-.0014-.001-.0022-.002-.0007 0-.0014-.001-.0021-.002-.0008-.001-.0015-.001-.0022-.002-.0008-.001-.0015-.002-.0022-.002-.0008-.001-.0015-.002-.0022-.003-.0008 0-.0015-.001-.0022-.002-.0008 0-.0015-.001-.0022-.002-.0008-.001-.0015-.001-.0022-.002-.0008-.001-.0015-.002-.0022-.002-.0008-.001-.0015-.002-.0022-.003-.0008 0-.0015-.001-.0022-.002-.0008 0-.0015-.001-.0022-.002-.0008-.001-.0015-.001-.0022-.002-.0008-.001-.0015-.002-.0022-.002-.0007-.001-.0015-.002-.0022-.003-.0007 0-.0015-.001-.0022-.002-.0007 0-.0015-.001-.0022-.002s-.0015-.001-.0022-.002-.0015-.002-.0022-.002c-.0007-.001-.0015-.002-.0022-.003-.0007 0-.0015-.001-.0022-.002-.0007 0-.0015-.001-.0022-.002s-.0015-.001-.0022-.002-.0015-.002-.0022-.002c-.0007-.001-.0015-.002-.0022-.002-.0007-.001-.0015-.002-.0022-.003-.0007 0-.0014-.001-.0022-.002-.0007-.001-.0014-.001-.0022-.002-.0007-.001-.0014-.002-.0022-.002-.0007-.001-.0014-.002-.0022-.002-.0007-.001-.0014-.002-.0022-.003-.0007 0-.0014-.001-.0022-.002-.0007-.001-.0014-.001-.0022-.002-.0007-.001-.0014-.002-.0022-.002-.0007-.001-.0014-.002-.0022-.002-.0007-.001-.0014-.002-.0022-.003-.0007 0-.0014-.001-.0022-.002-.0007-.001-.0014-.001-.0022-.002-.0007-.001-.0014-.002-.0021-.002-.0008-.001-.0015-.002-.0022-.002-.0008-.001-.0015-.002-.0022-.003-.0008 0-.0015-.001-.0022-.002-.0008-.001-.0015-.001-.0022-.002-.0008-.001-.0015-.002-.0022-.002-.0008-.001-.0015-.002-.0022-.002-.0008-.001-.0015-.002-.0022-.003-.0008 0-.0015-.001-.0022-.002-.0008-.001-.0015-.001-.0022-.002-.0008-.001-.0015-.001-.0022-.002-.0008-.001-.0015-.002-.0022-.002-.0008-.001-.0015-.002-.0022-.003-.0007 0-.0015-.001-.0022-.002s-.0015-.001-.0022-.002-.0015-.001-.0022-.002-.0015-.002-.0022-.002c-.0007-.001-.0015-.002-.0022-.003-.0007 0-.0015-.001-.0022-.002s-.0015-.001-.0022-.002-.0015-.001-.0022-.002-.0015-.002-.0022-.002c-.0007-.001-.0015-.002-.0022-.003-.0007 0-.0015-.001-.0022-.002s-.0014-.001-.0022-.002c-.0007-.001-.0014-.001-.0022-.002-.0007-.001-.0014-.002-.0022-.002-.0007-.001-.0014-.002-.0022-.003-.0007 0-.0014-.001-.0022-.002-.0007-.001-.0014-.001-.0022-.002-.0007-.001-.0014-.001-.0022-.002-.0007-.001-.0014-.002-.0022-.002-.0007-.001-.0014-.002-.0022-.003-.0007 0-.0014-.001-.0022-.002-.0007 0-.0014-.001-.0022-.002-.0007-.001-.0014-.001-.0022-.002-.0007-.001-.0014-.002-.0021-.002-.0008-.001-.0015-.002-.0022-.003-.0008 0-.0015-.001-.0022-.002-.0008 0-.0015-.001-.0022-.002-.0008-.001-.0015-.001-.0022-.002-.0008-.001-.0015-.002-.0022-.002-.0008-.001-.0015-.002-.0022-.003-.0008 0-.0015-.001-.0022-.002-.0008 0-.0015-.001-.0022-.002-.0008-.001-.0015-.001-.0022-.002-.0008-.001-.0015-.002-.0022-.002-.0008-.001-.0015-.002-.0022-.003-.0008 0-.0015-.001-.0022-.002-.0007 0-.0015-.001-.0022-.002s-.0015-.001-.0022-.002-.0015-.002-.0022-.002c-.0007-.001-.0015-.002-.0022-.003-.0007 0-.0015-.001-.0022-.002-.0007 0-.0015-.001-.0022-.002s-.0015-.001-.0022-.002-.0015-.002-.0022-.002c-.0007-.001-.0015-.002-.0022-.002-.0007-.001-.0015-.002-.0022-.003-.0007 0-.0015-.001-.0022-.002s-.0015-.001-.0022-.002-.0014-.002-.0022-.002c-.0007-.001-.0014-.002-.0022-.002-.0007-.001-.0014-.002-.0022-.003-.0007 0-.0014-.001-.0022-.002-.0007-.001-.0014-.001-.0022-.002-.0007-.001-.0014-.002-.0022-.002-.0007-.001-.0014-.002-.0022-.002-.0007-.001-.0014-.002-.0022-.003-.0007 0-.0014-.001-.0022-.002-.0007-.001-.0014-.001-.0022-.002-.0007-.001-.0014-.002-.0022-.002-.0007-.001-.0014-.002-.0022-.002-.0007-.001-.0014-.002-.0021-.003-.0008 0-.0015-.001-.0022-.002-.0008-.001-.0015-.001-.0022-.002-.0008-.001-.0015-.002-.0022-.002-.0008-.001-.0015-.002-.0022-.002-.0008-.001-.0015-.002-.0022-.003-.0008 0-.0015-.001-.0022-.002-.0008-.001-.0015-.001-.0022-.002-.0008-.001-.0015-.002-.0022-.002-.0008-.001-.0015-.002-.0022-.002-.0008-.001-.0015-.002-.0022-.003-.0008 0-.0015-.001-.0022-.002-.0008-.001-.0015-.001-.0022-.002s-.0015-.001-.0022-.002-.0015-.002-.0022-.002c-.0007-.001-.0015-.002-.0022-.003-.0007 0-.0015-.001-.0022-.002s-.0015-.001-.0022-.002-.0015-.001-.0022-.002-.0015-.002-.0022-.002c-.0007-.001-.0015-.002-.0022-.003-.0007 0-.0015-.001-.0022-.002s-.0015-.001-.0022-.002-.0015-.001-.0022-.002-.0015-.002-.0022-.002c-.0007-.001-.0014-.002-.0022-.003-.0007 0-.0014-.001-.0022-.002-.0007-.001-.0014-.001-.0022-.002-.0007-.001-.0014-.001-.0022-.002-.0007-.001-.0014-.002-.0022-.002-.0007-.001-.0014-.002-.0022-.003-.0007 0-.0014-.001-.0022-.002-.0007-.001-.0014-.001-.0022-.002-.0007-.001-.0014-.001-.0022-.002-.0007-.001-.0014-.002-.0022-.002-.0007-.001-.0014-.002-.0022-.003-.0007 0-.0014-.001-.0021-.002-.0008 0-.0015-.001-.0022-.002-.0008-.001-.0015-.001-.0022-.002-.0008-.001-.0015-.002-.0022-.002-.0008-.001-.0015-.002-.0022-.003-.0008 0-.0015-.001-.0022-.002-.0008 0-.0015-.001-.0022-.002-.0008-.001-.0015-.001-.0022-.002-.0008-.001-.0015-.002-.0022-.002-.0008-.001-.0015-.002-.0022-.003-.0008 0-.0015-.001-.0022-.002-.0008 0-.0015-.001-.0022-.002-.0008-.001-.0015-.001-.0022-.002s-.0015-.002-.0022-.002c-.0007-.001-.0015-.002-.0022-.003-.0007 0-.0015-.001-.0022-.002-.0007 0-.0015-.001-.0022-.002s-.0015-.001-.0022-.002-.0015-.002-.0022-.002c-.0007-.001-.0015-.002-.0022-.003-.0007 0-.0015-.001-.0022-.002-.0007 0-.0015-.001-.0022-.002s-.0015-.001-.0022-.002-.0015-.002-.0022-.002c-.0007-.001-.0015-.002-.0022-.002-.0007-.001-.0014-.002-.0022-.003-.0007 0-.0014-.001-.0022-.002-.0007-.001-.0014-.001-.0022-.002-.0007-.001-.0014-.002-.0022-.002-.0007-.001-.0014-.002-.0022-.002-.0007-.001-.0014-.002-.0022-.003-.0007 0-.0014-.001-.0022-.002-.0007-.001-.0014-.001-.0022-.002-.0007-.001-.0014-.002-.0022-.002-.0007-.001-.0014-.002-.0022-.002-.0007-.001-.0014-.002-.0022-.003-.0007 0-.0014-.001-.0022-.002-.0007-.001-.0014-.001-.0021-.002-.0008-.001-.0015-.002-.0022-.002-.0008-.001-.0015-.002-.0022-.002-.0008-.001-.0015-.002-.0022-.003-.0008 0-.0015-.001-.0022-.002-.0008-.001-.0015-.001-.0022-.002-.0008-.001-.0015-.002-.0022-.002-.0008-.001-.0015-.002-.0022-.002-.0008-.001-.0015-.002-.0022-.003-.0008 0-.0015-.001-.0022-.002-.0008-.001-.0015-.001-.0022-.002-.0008-.001-.0015-.001-.0022-.002-.0008-.001-.0015-.002-.0022-.002-.0007-.001-.0015-.002-.0022-.003-.0007 0-.0015-.001-.0022-.002s-.0015-.001-.0022-.002-.0015-.001-.0022-.002-.0015-.002-.0022-.002c-.0007-.001-.0015-.002-.0022-.003-.0007 0-.0015-.001-.0022-.002s-.0015-.001-.0022-.002-.0015-.001-.0022-.002-.0015-.002-.0022-.002c-.0007-.001-.0015-.002-.0022-.003-.0007 0-.0015-.001-.0022-.002s-.0014-.001-.0022-.002c-.0007-.001-.0014-.001-.0022-.002-.0007-.001-.0014-.002-.0022-.002-.0007-.001-.0014-.002-.0022-.003-.0007 0-.0014-.001-.0022-.002-.0007-.001-.0014-.001-.0022-.002-.0007-.001-.0014-.001-.0022-.002-.0007-.001-.0014-.002-.0022-.002-.0007-.001-.0014-.002-.0022-.003-.0007 0-.0014-.001-.0022-.002-.0007 0-.0014-.001-.0022-.002-.0007-.001-.0014-.001-.0022-.002-.0007-.001-.0014-.002-.0021-.002-.0008-.001-.0015-.002-.0022-.003-.0008 0-.0015-.001-.0022-.002-.0008 0-.0015-.001-.0022-.002-.0008-.001-.0015-.001-.0022-.002-.0008-.001-.0015-.002-.0022-.002-.0008-.001-.0015-.002-.0022-.003-.0008 0-.0015-.001-.0022-.002-.0008 0-.0015-.001-.0022-.002-.0008-.001-.0015-.001-.0022-.002-.0008-.001-.0015-.002-.0022-.002-.0008-.001-.0015-.002-.0022-.003-.0007 0-.0015-.001-.0022-.002-.0007 0-.0015-.001-.0022-.002s-.0015-.001-.0022-.002-.0015-.002-.0022-.002c-.0007-.001-.0015-.002-.0022-.003-.0007 0-.0015-.001-.0022-.002-.0007 0-.0015-.001-.0022-.002s-.0015-.001-.0022-.002-.0015-.002-.0022-.002c-.0007-.001-.0015-.002-.0022-.002-.0007-.001-.0015-.002-.0022-.003-.0007 0-.0015-.001-.0022-.002s-.0014-.001-.0022-.002c-.0007-.001-.0014-.002-.0022-.002-.0007-.001-.0014-.002-.0022-.002-.0007-.001-.0014-.002-.0022-.003-.0007 0-.0014-.001-.0022-.002-.0007-.001-.0014-.001-.0022-.002-.0007-.001-.0014-.002-.0022-.002-.0007-.001-.0014-.002-.0022-.002-.0007-.001-.0014-.002-.0022-.003-.0007 0-.0014-.001-.0022-.002-.0007-.001-.0014-.001-.0022-.002-.0007-.001-.0014-.002-.0022-.002-.0007-.001-.0014-.002-.0021-.002-.0008-.001-.0015-.002-.0022-.003-.0008 0-.0015-.001-.0022-.002-.0008-.001-.0015-.001-.0022-.002-.0008-.001-.0015-.002-.0022-.002-.0008-.001-.0015-.002-.0022-.002-.0008-.001-.0015-.002-.0022-.003-.0008 0-.0015-.001-.0022-.002-.0008-.001-.0015-.001-.0022-.002-.0008-.001-.0015-.001-.0022-.002-.0008-.001-.0015-.002-.0022-.002-.0008-.001-.0015-.002-.0022-.003-.0008 0-.0015-.001-.0022-.002s-.0015-.001-.0022-.002-.0015-.001-.0022-.002-.0015-.002-.0022-.002c-.0007-.001-.0015-.002-.0022-.003-.0007 0-.0015-.001-.0022-.002s-.0015-.001-.0022-.002-.0015-.001-.0022-.002-.0015-.002-.0022-.002c-.0007-.001-.0015-.002-.0022-.003-.0007 0-.0015-.001-.0022-.002s-.0015-.001-.0022-.002-.0015-.001-.0022-.002-.0014-.002-.0022-.002c-.0007-.001-.0014-.002-.0022-.003-.0007 0-.0014-.001-.0022-.002-.0007-.001-.0014-.001-.0022-.002-.0007-.001-.0014-.001-.0022-.002-.0007-.001-.0014-.002-.0022-.002-.0007-.001-.0014-.002-.0022-.003-.0007 0-.0014-.001-.0022-.002-.0007-.001-.0014-.001-.0022-.002-.0007-.001-.0014-.001-.0022-.002-.0007-.001-.0014-.002-.0022-.002-.0007-.001-.0014-.002-.0022-.003-.0007 0-.0014-.001-.0021-.002-.0008 0-.0015-.001-.0022-.002-.0008-.001-.0015-.001-.0022-.002-.0008-.001-.0015-.002-.0022-.002-.0008-.001-.0015-.002-.0022-.003-.0008 0-.0015-.001-.0022-.002-.0008 0-.0015-.001-.0022-.002-.0008-.001-.0015-.001-.0022-.002-.0008-.001-.0015-.002-.0022-.002-.0008-.001-.0015-.002-.0022-.003-.0008 0-.0015-.001-.0022-.002-.0008 0-.0015-.001-.0022-.002-.0008-.001-.0015-.001-.0022-.002s-.0015-.002-.0022-.002c-.0007-.001-.0015-.002-.0022-.003-.0007 0-.0015-.001-.0022-.002-.0007 0-.0015-.001-.0022-.002s-.0015-.001-.0022-.002-.0015-.002-.0022-.002c-.0007-.001-.0015-.002-.0022-.003-.0007 0-.0015-.001-.0022-.002-.0007 0-.0015-.001-.0022-.002s-.0015-.001-.0022-.002-.0015-.002-.0022-.002c-.0007-.001-.0014-.002-.0022-.002-.0007-.001-.0014-.002-.0022-.003-.0007 0-.0014-.001-.0022-.002-.0007-.001-.0014-.001-.0022-.002-.0007-.001-.0014-.002-.0022-.002-.0007-.001-.0014-.002-.0022-.002-.0007-.001-.0014-.002-.0022-.003-.0007 0-.0014-.001-.0022-.002-.0007-.001-.0014-.001-.0022-.002-.0007-.001-.0014-.002-.0022-.002-.0007-.001-.0014-.002-.0022-.002-.0007-.001-.0014-.002-.0022-.003-.0007 0-.0014-.001-.0021-.002-.0008-.001-.0015-.001-.0022-.002-.0008-.001-.0015-.002-.0022-.002-.0008-.001-.0015-.002-.0022-.002-.0008-.001-.0015-.002-.0022-.003-.0008 0-.0015-.001-.0022-.002-.0008-.001-.0015-.001-.0022-.002-.0008-.001-.0015-.002-.0022-.002-.0008-.001-.0015-.002-.0022-.002-.0008-.001-.0015-.002-.0022-.003-.0008 0-.0015-.001-.0022-.002-.0008-.001-.0015-.001-.0022-.002-.0008-.001-.0015-.001-.0022-.002s-.0015-.002-.0022-.002c-.0007-.001-.0015-.002-.0022-.003-.0007 0-.0015-.001-.0022-.002s-.0015-.001-.0022-.002-.0015-.001-.0022-.002-.0015-.002-.0022-.002c-.0007-.001-.0015-.002-.0022-.003-.0007 0-.0015-.001-.0022-.002s-.0015-.001-.0022-.002-.0015-.001-.0022-.002-.0015-.002-.0022-.002c-.0007-.001-.0015-.002-.0022-.003-.0007 0-.0014-.001-.0022-.002-.0007-.001-.0014-.001-.0022-.002-.0007-.001-.0014-.001-.0022-.002-.0007-.001-.0014-.002-.0022-.002-.0007-.001-.0014-.002-.0022-.003-.0007 0-.0014-.001-.0022-.002-.0007-.001-.0014-.001-.0022-.002-.0007-.001-.0014-.001-.0022-.002-.0007-.001-.0014-.002-.0022-.002-.0007-.001-.0014-.002-.0022-.003-.0007 0-.0014-.001-.0022-.002-.0007 0-.0014-.001-.0022-.002-.0007-.001-.0014-.001-.0021-.002-.0008-.001-.0015-.002-.0022-.002-.0008-.001-.0015-.002-.0022-.003-.0008 0-.0015-.001-.0022-.002-.0008 0-.0015-.001-.0022-.002-.0008-.001-.0015-.001-.0022-.002-.0008-.001-.0015-.002-.0022-.002-.0008-.001-.0015-.002-.0022-.003-.0008 0-.0015-.001-.0022-.002-.0008 0-.0015-.001-.0022-.002-.0008-.001-.0015-.001-.0022-.002-.0008-.001-.0015-.002-.0022-.002-.0008-.001-.0015-.002-.0022-.003-.0007 0-.0015-.001-.0022-.002-.0007 0-.0015-.001-.0022-.002s-.0015-.001-.0022-.002-.0015-.002-.0022-.002c-.0007-.001-.0015-.002-.0022-.003-.0007 0-.0015-.001-.0022-.002-.0007 0-.0015-.001-.0022-.002s-.0015-.001-.0022-.002-.0015-.002-.0022-.002c-.0007-.001-.0015-.002-.0022-.002-.0007-.001-.0015-.002-.0022-.003-.0007 0-.0015-.001-.0022-.002s-.0014-.001-.0022-.002c-.0007-.001-.0014-.002-.0022-.002-.0007-.001-.0014-.002-.0022-.002-.0007-.001-.0014-.002-.0022-.003-.0007 0-.0014-.001-.0022-.002-.0007-.001-.0014-.001-.0022-.002-.0007-.001-.0014-.002-.0022-.002-.0007-.001-.0014-.002-.0022-.002-.0007-.001-.0014-.002-.0022-.003-.0007 0-.0014-.001-.0022-.002-.0007-.001-.0014-.001-.0022-.002-.0007-.001-.0014-.002-.0021-.002-.0008-.001-.0015-.002-.0022-.002-.0008-.001-.0015-.002-.0022-.003-.0008 0-.0015-.001-.0022-.002-.0008-.001-.0015-.001-.0022-.002-.0008-.001-.0015-.002-.0022-.002-.0008-.001-.0015-.002-.0022-.002-.0008-.001-.0015-.002-.0022-.003-.0008 0-.0015-.001-.0022-.002-.0008-.001-.0015-.001-.0022-.002-.0008-.001-.0015-.001-.0022-.002-.0008-.001-.0015-.002-.0022-.002-.0008-.001-.0015-.002-.0022-.003-.0007 0-.0015-.001-.0022-.002s-.0015-.001-.0022-.002-.0015-.001-.0022-.002-.0015-.002-.0022-.002c-.0007-.001-.0015-.002-.0022-.003-.0007 0-.0015-.001-.0022-.002s-.0015-.001-.0022-.002-.0015-.001-.0022-.002-.0015-.002-.0022-.002c-.0007-.001-.0015-.002-.0022-.003-.0007 0-.0015-.001-.0022-.002s-.0015-.001-.0022-.002-.0014-.001-.0022-.002c-.0007-.001-.0014-.002-.0022-.002-.0007-.001-.0014-.002-.0022-.003-.0007 0-.0014-.001-.0022-.002-.0007-.001-.0014-.001-.0022-.002-.0007-.001-.0014-.001-.0022-.002-.0007-.001-.0014-.002-.0022-.002-.0007-.001-.0014-.002-.0022-.003-.0007 0-.0014-.001-.0022-.002-.0007 0-.0014-.001-.0022-.002-.0007-.001-.0014-.001-.0022-.002-.0007-.001-.0014-.002-.0022-.002-.0007-.001-.0014-.002-.0021-.003-.0008 0-.0015-.001-.0022-.002-.0008 0-.0015-.001-.0022-.002-.0008-.001-.0015-.001-.0022-.002-.0008-.001-.0015-.002-.0022-.002-.0008-.001-.0015-.002-.0022-.003-.0008 0-.0015-.001-.0022-.002-.0008 0-.0015-.001-.0022-.002-.0008-.001-.0015-.001-.0022-.002-.0008-.001-.0015-.002-.0022-.002-.0008-.001-.0015-.002-.0022-.003-.0008 0-.0015-.001-.0022-.002-.0008 0-.0015-.001-.0022-.002s-.0015-.001-.0022-.002-.0015-.002-.0022-.002c-.0007-.001-.0015-.002-.0022-.003-.0007 0-.0015-.001-.0022-.002-.0007 0-.0015-.001-.0022-.002s-.0015-.001-.0022-.002-.0015-.002-.0022-.002zm1.1731.375c-5.0021 3.861-10.2531 7.348-15.7533 10.461l.4925.87c5.5415-3.136 10.8321-6.649 15.8717-10.539zm17.7742 9.99-.4958-.065-.0042.033v.032zm.8125-.781.0433-.498-.0433-.004-.0433.004zm.8125.781h.5v-.032l-.0042-.033zm.0313.75-.4983.042.9983-.042zm-.0313-.188.4743-.158-.9667.245zm.2813 1.063h.5v-.086l-.0286-.08zm.0312.125.4642-.186-.0077-.019-.0093-.019zm.0312.062.4744-.158-.0212-.063-.0371-.056zm0 .032.4473-.224zm.0626.125-.4473.223zm.2812.5.4514-.215-.0123-.026-.0151-.024zm-.2812 1.093.2069.456.0476-.022.042-.031zm-1.125-.281-.428.259.0118.019.0136.019zm-13.625-14.687-.4596-.197-.0039.009-.0035.009zm1-.563.1893-.463-.0602-.024-.0645-.009zm.5624 1 .4664.181.0178-.046.0085-.049zm-5.125 11.938.4026.296.0287-.039.0207-.043zm-1.125.312-.3069.395.0541.042.0635.026zm-.2812-1.125-.4511-.215-.0062.013-.0055.013zm-.375 1.188-.0399.498.0314.003.0315-.002zm0-1.625-.0214-.5-.0387.002-.038.007zm19.0312-.219.0312-.499-.0106-.001h-.0107zm.6563.438-.4667.179.0087.023.0108.021zm0 .781-.454-.21-.0039.009-.0036.008zm-.6563.406-.0114.5h.0213l.0213-.001zm1.3126-13-.47-.171-.0018.005zm1-.563.1708-.469-.0432-.016-.0455-.008zm.5624 1 .471.168.0149-.041.0073-.044zm-4.3437 11.688.4596.197.0035-.008.0032-.009zm-1 .562-.1893.463.0602.025.0644.008zm-.5625-1-.4654-.182-.0185.047-.0087.05zm-2.6562-12.281-.4026-.296-.0334.045-.0224.052zm1.125-.281.3069-.395-.0465-.036-.0535-.024zm.2812 1.125.4425.233.0112-.021.0091-.023zm-.5625 1.219.4519.214.0066-.014.0057-.015zm-.4375 1 .4645.185.0022-.006zm-4.1875 10.094.4127.282.0273-.04.0191-.045zm-1.0937.312-.2966.403.0499.036.0573.024zm-.2813-1.125.4552.207.0014-.003zm1.5313-3.531.4608.194.0028-.007.0026-.007zm8.8395 3.721c.0208-.16.0682-.228.1008-.259.0323-.031.1011-.075.2592-.089l-.0866-.996c-.321.028-.6272.135-.8658.364-.2382.229-.3575.531-.3992.85zm.2734-.348c.1581.014.2269.058.2592.089.0326.031.08.099.1008.259l.9916-.13c-.0417-.319-.161-.621-.3992-.85-.2386-.229-.5448-.336-.8658-.364zm.3558.283c0 .264.011.528.033.792l.9965-.084c-.0197-.236-.0295-.472-.0295-.708zm1.0313.75c0-.119-.0201-.235-.057-.346l-.9486.317c.0047.014.0056.023.0056.029zm-1.0237-.101c.0675.383.1684.763.3022 1.142l.9429-.332c-.1162-.33-.2028-.657-.2603-.983zm.2737.976c0 .128.0326.246.084.349l.8944-.448c.0098.02.0216.054.0216.099zm.067.311c.017.042.0392.098.056.131.0027.006.0117.024.0249.045.0053.008.0219.035.0482.065.0125.014.0403.044.0824.075.0317.023.1372.096.2942.096.2057 0 .3519-.12.4241-.235.0567-.091.0687-.176.0722-.204.0081-.064.0011-.115 0-.124-.004-.032-.0104-.057-.0117-.063-.0068-.027-.0164-.055-.0205-.068l-.9487.317c.0063.019.0032.011-.001-.006-.0006-.002-.0066-.026-.0104-.056-.0011-.009-.008-.059 0-.124.0035-.027.0155-.112.0721-.202.0722-.116.2183-.235.4239-.235.1569 0 .2623.072.2939.095.042.031.0697.061.0821.075.0259.03.0422.056.0471.064.0124.019.0203.035.0217.038.0064.013.0026.006-.0221-.056zm.9115-.401c-.0111-.016-.0292-.043-.0491-.068-.0004-.001-.0379-.05-.0962-.094-.0178-.013-.0553-.04-.1086-.062-.0462-.019-.1649-.061-.3142-.024-.1791.045-.287.172-.336.283-.0408.091-.0432.172-.0432.203 0 .068.0143.12.0174.132.0055.021.0112.037.0147.047.007.019.0142.036.0188.046.0098.022.0216.046.0331.069l.8945-.447c-.0044-.009-.0077-.015-.0102-.02-.0012-.003-.0021-.005-.0027-.006-.0007-.002-.0009-.002-.0009-.002s.0007.001.0017.004c.0009.002.0029.007.0054.014.0022.006.007.019.0118.037.0025.01.0164.06.0164.126 0 .032-.0023.111-.043.203-.0488.11-.1564.237-.3352.281-.149.038-.2673-.004-.313-.023-.0528-.022-.0897-.048-.1068-.061-.0353-.027-.0585-.052-.065-.059-.0097-.01-.0165-.018-.0196-.022-.0095-.012-.0119-.017-.0022-.002zm-.8633.532c.0093.019.022.044.0313.063.0139.028.0017.003.0156.031s.0017.004.0156.031l.8945-.447c-.0093-.018-.022-.044-.0313-.062-.0139-.028-.0017-.004-.0156-.032-.0139-.027-.0017-.003-.0156-.031zm.0625.125c.0908.182.1924.362.3045.542l.848-.53c-.0962-.154-.1822-.307-.258-.459zm.2771.492c.0685.144.0632.222.0531.262-.0104.04-.0456.115-.1795.214l.5931.805c.262-.193.4716-.446.5549-.77.0836-.325.021-.648-.1188-.941zm-.0368.423c-.1576.072-.2482.069-.2968.056-.0469-.011-.1227-.048-.2187-.178l-.8051.593c.1957.265.4532.473.7813.556.3264.081.6525.02.9532-.116zm-.4901-.084c-.5562-.921-.8342-1.925-.8342-3.023h-1c0 1.277.3262 2.46.9783 3.54zm-13.5934-14.232c.0613-.143.1267-.202.1762-.23.0503-.028.1385-.055.2996-.034l.1293-.992c-.3181-.041-.6361-.005-.9192.154-.2838.16-.4788.413-.605.708zm.3511-.297c.1559.064.2139.13.2379.173.0234.042.0487.121.0213.279l.9853.171c.0559-.322.0291-.648-.135-.94-.1635-.291-.4284-.485-.7308-.609zm.2855.357c-1.5581 4.03-3.2616 7.998-5.1106 11.904l.9039.428c1.8594-3.928 3.5725-7.918 5.1394-11.971zm-5.0612 11.821c-.0972.132-.1772.175-.2313.19-.0545.015-.147.02-.3018-.044l-.3787.926c.3035.124.6277.171.9482.082.3209-.09.5743-.297.7687-.561zm-.4155.215c-.12-.094-.1594-.171-.1734-.227-.0147-.058-.0169-.156.048-.314l-.9256-.379c-.1226.3-.1717.619-.0926.936.0798.319.2747.575.5297.773zm-.1371-.515c1.8183-3.804 3.4798-7.67 4.9846-11.599l-.9339-.358c-1.4952 3.904-3.1462 7.746-4.9529 11.526zm-.7862.473c-.1956-.015-.2627-.065-.2796-.081-.0071-.007-.0415-.038-.0415-.17h-1c0 .326.0957.649.349.892.2436.234.567.33.8923.356zm-.3211-.251c0-.146.0373-.211.0682-.245.0361-.041.1193-.102.3111-.14l-.1962-.981c-.3291.066-.6365.203-.8608.455-.2294.257-.3223.577-.3223.911zm.3026-.376c6.3229-.27 12.6562-.343 19-.218l.0197-1c-6.3646-.125-12.7187-.052-19.0625.219zm18.9787-.219c.1021.006.1491.03.1679.042.0144.01.0338.027.0528.076l.9334-.359c-.0852-.221-.2272-.413-.4315-.549-.2-.133-.429-.194-.6603-.208zm.2402.162c.052.104.0595.205-.0068.348l.908.419c.1837-.398.1912-.818-.0068-1.214zm-.0143.365c-.0142.034-.0282.047-.0439.057-.0215.013-.0738.036-.182.043l.0623.998c.2252-.014.4489-.069.6461-.191.203-.126.3505-.306.4405-.522zm-.1833.099c-6.3656-.146-12.7209-.073-19.0657.219l.046.999c6.3218-.291 12.6541-.364 18.9968-.218zm1.7709-12.329c.0541-.149.1139-.199.1503-.22.0391-.022.1234-.049.2977-.02l.1643-.987c-.3257-.054-.658-.03-.9523.136-.2969.167-.4871.439-.5997.749zm.3593-.264c.1485.054.1989.114.2194.151.022.039.0498.123.0208.297l.9863.165c.0543-.326.03-.658-.1355-.953-.167-.297-.4395-.487-.7493-.599zm.2624.363c-1.3944 3.912-2.8407 7.804-4.3391 11.675l.9326.36c1.5016-3.879 2.9511-7.779 4.3484-11.7zm-4.3324 11.658c-.0612.143-.1267.202-.1762.23-.0502.028-.1385.055-.2995.034l-.1294.991c.3181.042.6361.006.9192-.153.2839-.16.4788-.413.6051-.708zm-.3511.297c-.1559-.064-.2139-.131-.2379-.173-.0234-.042-.0487-.121-.0213-.279l-.9852-.171c-.0559.321-.0292.648.1349.94.1635.291.4284.485.7309.608zm-.2864-.355c1.5231-3.88 2.9731-7.782 4.3501-11.704l-.9435-.332c-1.373 3.911-2.8188 7.801-4.3374 11.671zm-2.7191-12.167c.096-.13.1718-.167.2187-.179.0486-.012.1392-.015.2968.056l.4139-.91c-.3007-.137-.6268-.198-.9532-.116-.3281.082-.5856.29-.7813.556zm.4155-.183c.12.093.1594.17.1734.226.0147.059.0169.156-.048.315l.9256.378c.1226-.3.1717-.619.0926-.935-.0798-.319-.2747-.575-.5297-.774zm.1457.497c-.2164.411-.4112.833-.5842 1.266l.9284.371c.1603-.4.3405-.791.5408-1.171zm-.5719 1.238c-.1904.402-.342.747-.4523 1.034l.9334.359c.098-.255.2381-.576.4227-.965zm-.45 1.029c-1.3525 3.391-2.7466 6.751-4.1822 10.081l.9182.395c1.4394-3.337 2.837-6.706 4.1928-10.106zm-4.1358 9.996c-.0874.128-.1581.164-.2012.177-.0454.013-.1332.02-.2905-.045l-.3787.926c.301.123.6247.171.9439.08.3214-.092.5685-.305.7519-.573zm-.3845.192c-.1303-.096-.1669-.171-.1787-.218-.0121-.049-.0156-.139.0561-.297l-.9104-.414c-.1366.301-.1974.627-.1158.953.082.328.2901.586.5557.782zm-.1212-.518c.5223-1.17 1.0341-2.35 1.5355-3.541l-.9217-.388c-.4986 1.184-1.0076 2.358-1.527 3.521zm1.5409-3.555c1.1433-2.952 2.349-5.883 3.6171-8.793l-.9167-.399c-1.2736 2.922-2.4846 5.866-3.6329 8.831zm16.315-7.993-.3904-.312-.0231.029-.0187.032zm1.125-.25-.2572.429.008.005.0082.004zm.3125 1.094.4316.252.017-.029.0129-.031zm-5.0937 11.187.4432.232.0181-.035.0125-.037zm-1.5938-.437-.4741-.159-.01.03-.0062.031zm1.4062.781.1756.468.0367-.013.034-.02zm-1.125-.344-.4381.241.0046.009.0048.008zm.2813-1.093-.2456-.436-.0284.016-.026.02zm15.8437-10.469-.2339-.442-.0372.02-.0333.025zm1 .125.3797-.325-.0242-.029-.028-.024zm.125 1 .4532.211.0038-.008zm-4.4374 11.531.4615.193.0093-.023.0071-.023zm-1.0313.563-.1316.482.0054.002zm-.5625-1-.4774-.149-.0111.036-.0057.037zm4.5938-11.938.3535-.353-.5067-.507-.3007.65zm1.125 1.125.3054.396.4501-.347-.402-.402zm-11.5784-1.562c.1228-.154.2094-.191.2493-.2.0318-.007.0992-.011.2281.066l.5144-.857c-.2877-.173-.6162-.261-.9594-.185-.3351.075-.6027.288-.8132.551zm.4936-.125c.1229.068.1442.122.1509.145.01.035.0199.13-.0589.319l.923.384c.1295-.311.1915-.648.0974-.978-.0975-.341-.3366-.584-.6304-.746zm.1219.404c-2.1005 3.591-3.8126 7.352-5.136 11.28l.9477.319c1.3016-3.863 2.9853-7.561 5.0515-11.095zm-5.1054 11.208c-.0938.18-.1794.249-.2335.276-.0459.023-.1187.041-.2542.004l-.2631.965c.3229.088.6563.08.9645-.074.3001-.15.5166-.409.6728-.708zm-.4877.28c-.1382-.037-.1639-.083-.1697-.094-.0115-.021-.0418-.099-.0028-.294l-.9806-.196c-.0652.326-.059.669.1066.971.1713.313.4632.491.7834.578zm-.1887-.327c1.3434-4.01 3.0793-7.843 5.2081-11.501l-.8644-.503c-2.1629 3.717-3.9269 7.612-5.2919 11.686zm.7566.154c-.1837.069-.2848.06-.3346.045-.0427-.013-.1089-.049-.1861-.178l-.8575.515c.1728.288.4191.518.7514.619.3252.099.6616.054.9779-.065zm-.5113-.116c-.0701-.128-.0629-.192-.0555-.221.0095-.037.0467-.118.1986-.232l-.6-.8c-.2648.198-.4827.455-.5671.783-.0863.336-.0113.662.1477.951zm.0887-.418c5.5621-3.136 10.863-6.639 15.9026-10.507l-.6089-.794c-5.0021 3.84-10.2636 7.317-15.7849 10.43zm15.8321-10.462c.1042-.055.1733-.061.2197-.055.0478.006.12.03.2189.116l.6549-.756c-.2136-.185-.4643-.317-.7498-.353-.287-.035-.5617.032-.8116.164zm.3864.008c.0706.083.0953.15.1023.206.0072.058 0 .143-.0546.266l.9139.406c.1121-.252.1673-.521.1329-.796-.0346-.278-.1558-.523-.3352-.732zm.0516.464c-1.7598 3.77-3.2473 7.636-4.4624 11.596l.9559.293c1.2016-3.915 2.6724-7.737 4.4126-11.467zm-4.446 11.55c-.077.185-.1523.247-.1919.269-.0328.018-.1012.041-.2516.002l-.2524.968c.3287.085.6718.077.9828-.092.3041-.166.5048-.447.6362-.762zm-.4381.272c-.1333-.036-.1671-.083-.1802-.106-.0196-.035-.0515-.128-.0197-.335l-.9884-.152c-.0515.335-.0314.679.1365.977.1745.31.4636.492.7886.581zm-.2167-.369c1.2643-4.062 2.7877-8.021 4.5702-11.876l-.9077-.42c-1.8009 3.895-3.34 7.895-4.6173 11.999zm3.7628-11.732c.0007.001.0015.001.0022.002s.0015.001.0022.002.0015.002.0022.002c.0007.001.0015.002.0022.003.0007 0 .0015.001.0022.002s.0014.001.0022.002c.0007.001.0014.001.0022.002.0007.001.0014.002.0022.002.0007.001.0014.002.0022.003.0007 0 .0014.001.0022.002.0007.001.0014.001.0022.002.0007.001.0014.001.0022.002.0007.001.0014.002.0022.002.0007.001.0014.002.0022.003.0007 0 .0014.001.0022.002.0007 0 .0014.001.0022.002.0007.001.0014.001.0022.002.0007.001.0014.002.0021.002.0008.001.0015.002.0022.003.0008 0 .0015.001.0022.002.0008 0 .0015.001.0022.002.0008.001.0015.001.0022.002.0008.001.0015.002.0022.002.0008.001.0015.002.0022.003.0008 0 .0015.001.0022.002.0008 0 .0015.001.0022.002.0008.001.0015.001.0022.002.0008.001.0015.002.0022.002.0008.001.0015.002.0022.003.0007 0 .0015.001.0022.002.0007 0 .0015.001.0022.002s.0015.001.0022.002.0015.002.0022.002c.0007.001.0015.002.0022.003.0007 0 .0015.001.0022.002.0007 0 .0015.001.0022.002s.0015.001.0022.002.0015.002.0022.002c.0007.001.0015.002.0022.002.0007.001.0015.002.0022.003.0007 0 .0015.001.0022.002s.0014.001.0022.002c.0007.001.0014.002.0022.002.0007.001.0014.002.0022.002.0007.001.0014.002.0022.003.0007 0 .0014.001.0022.002.0007.001.0014.001.0022.002.0007.001.0014.002.0022.002.0007.001.0014.002.0022.002.0007.001.0014.002.0022.003.0007 0 .0014.001.0022.002.0007.001.0014.001.0022.002.0007.001.0014.002.0022.002.0007.001.0014.002.0021.002.0008.001.0015.002.0022.003.0008 0 .0015.001.0022.002.0008.001.0015.001.0022.002.0008.001.0015.002.0022.002.0008.001.0015.002.0022.002.0008.001.0015.002.0022.003.0008 0 .0015.001.0022.002.0008.001.0015.001.0022.002.0008.001.0015.001.0022.002.0008.001.0015.002.0022.002.0008.001.0015.002.0022.003.0008 0 .0015.001.0022.002s.0015.001.0022.002.0015.001.0022.002.0015.002.0022.002c.0007.001.0015.002.0022.003.0007 0 .0015.001.0022.002s.0015.001.0022.002.0015.001.0022.002.0015.002.0022.002c.0007.001.0015.002.0022.003.0007 0 .0015.001.0022.002s.0015.001.0022.002.0015.001.0022.002.0014.002.0022.002c.0007.001.0014.002.0022.003.0007 0 .0014.001.0022.002.0007.001.0014.001.0022.002.0007.001.0014.001.0022.002.0007.001.0014.002.0022.002.0007.001.0014.002.0022.003.0007 0 .0014.001.0022.002.0007.001.0014.001.0022.002.0007.001.0014.001.0022.002.0007.001.0014.002.0022.002.0007.001.0014.002.0022.003.0007 0 .0014.001.0021.002.0008 0 .0015.001.0022.002.0008.001.0015.001.0022.002.0008.001.0015.002.0022.002.0008.001.0015.002.0022.003.0008 0 .0015.001.0022.002.0008 0 .0015.001.0022.002.0008.001.0015.001.0022.002.0008.001.0015.002.0022.002.0008.001.0015.002.0022.003.0008 0 .0015.001.0022.002.0008 0 .0015.001.0022.002.0008.001.0015.001.0022.002s.0015.002.0022.002c.0007.001.0015.002.0022.003.0007 0 .0015.001.0022.002.0007 0 .0015.001.0022.002s.0015.001.0022.002.0015.002.0022.002c.0007.001.0015.002.0022.003.0007 0 .0015.001.0022.002.0007 0 .0015.001.0022.002s.0015.001.0022.002.0015.002.0022.002c.0007.001.0014.002.0022.002.0007.001.0014.002.0022.003.0007 0 .0014.001.0022.002.0007.001.0014.001.0022.002.0007.001.0014.002.0022.002.0007.001.0014.002.0022.002.0007.001.0014.002.0022.003.0007 0 .0014.001.0022.002.0007.001.0014.001.0022.002.0007.001.0014.002.0022.002.0007.001.0014.002.0022.002.0007.001.0014.002.0022.003.0007 0 .0014.001.0021.002.0008.001.0015.001.0022.002.0008.001.0015.002.0022.002.0008.001.0015.002.0022.002.0008.001.0015.002.0022.003.0008 0 .0015.001.0022.002.0008.001.0015.001.0022.002.0008.001.0015.002.0022.002.0008.001.0015.002.0022.002.0008.001.0015.002.0022.003.0008 0 .0015.001.0022.002.0008.001.0015.001.0022.002.0008.001.0015.001.0022.002s.0015.002.0022.002c.0007.001.0015.002.0022.003.0007 0 .0015.001.0022.002s.0015.001.0022.002.0015.001.0022.002.0015.002.0022.002c.0007.001.0015.002.0022.003.0007 0 .0015.001.0022.002s.0015.001.0022.002.0015.001.0022.002.0015.002.0022.002c.0007.001.0015.002.0022.003.0007 0 .0014.001.0022.002.0007.001.0014.001.0022.002.0007.001.0014.001.0022.002.0007.001.0014.002.0022.002.0007.001.0014.002.0022.003.0007 0 .0014.001.0022.002.0007.001.0014.001.0022.002.0007.001.0014.001.0022.002.0007.001.0014.002.0022.002.0007.001.0014.002.0022.003.0007 0 .0014.001.0022.002.0007 0 .0014.001.0022.002.0007.001.0014.001.0021.002.0008.001.0015.002.0022.002.0008.001.0015.002.0022.003.0008 0 .0015.001.0022.002.0008 0 .0015.001.0022.002.0008.001.0015.001.0022.002.0008.001.0015.002.0022.002.0008.001.0015.002.0022.003.0008 0 .0015.001.0022.002.0008 0 .0015.001.0022.002.0008.001.0015.001.0022.002.0008.001.0015.002.0022.002.0008.001.0015.002.0022.003.0007 0 .0015.001.0022.002.0007 0 .0015.001.0022.002s.0015.001.0022.002.0015.002.0022.002c.0007.001.0015.002.0022.003.0007 0 .0015.001.0022.002.0007 0 .0015.001.0022.002s.0015.001.0022.002.0015.002.0022.002c.0007.001.0015.002.0022.002.0007.001.0015.002.0022.003.0007 0 .0015.001.0022.002s.0014.001.0022.002c.0007.001.0014.002.0022.002.0007.001.0014.002.0022.002.0007.001.0014.002.0022.003.0007 0 .0014.001.0022.002.0007.001.0014.001.0022.002.0007.001.0014.002.0022.002.0007.001.0014.002.0022.002.0007.001.0014.002.0022.003.0007 0 .0014.001.0022.002.0007.001.0014.001.0022.002.0007.001.0014.002.0021.002.0008.001.0015.002.0022.002.0008.001.0015.002.0022.003.0008 0 .0015.001.0022.002.0008.001.0015.001.0022.002.0008.001.0015.002.0022.002.0008.001.0015.002.0022.002.0008.001.0015.002.0022.003.0008 0 .0015.001.0022.002.0008.001.0015.001.0022.002.0008.001.0015.001.0022.002.0008.001.0015.002.0022.002.0008.001.0015.002.0022.003.0007 0 .0015.001.0022.002s.0015.001.0022.002.0015.001.0022.002.0015.002.0022.002c.0007.001.0015.002.0022.003.0007 0 .0015.001.0022.002s.0015.001.0022.002.0015.001.0022.002.0015.002.0022.002c.0007.001.0015.002.0022.003.0007 0 .0015.001.0022.002s.0015.001.0022.002.0014.001.0022.002c.0007.001.0014.002.0022.002.0007.001.0014.002.0022.003.0007 0 .0014.001.0022.002.0007.001.0014.001.0022.002.0007.001.0014.001.0022.002.0007.001.0014.002.0022.002.0007.001.0014.002.0022.003.0007 0 .0014.001.0022.002.0007 0 .0014.001.0022.002.0007.001.0014.001.0022.002.0007.001.0014.002.0022.002.0007.001.0014.002.0021.003.0008 0 .0015.001.0022.002.0008 0 .0015.001.0022.002.0008.001.0015.001.0022.002.0008.001.0015.002.0022.002.0008.001.0015.002.0022.003.0008 0 .0015.001.0022.002.0008 0 .0015.001.0022.002.0008.001.0015.001.0022.002.0008.001.0015.002.0022.002.0008.001.0015.002.0022.003.0008 0 .0015.001.0022.002.0008 0 .0015.001.0022.002s.0015.001.0022.002.0015.002.0022.002c.0007.001.0015.002.0022.003.0007 0 .0015.001.0022.002.0007 0 .0015.001.0022.002s.0015.001.0022.002.0015.002.0022.002c.0007.001.0015.002.0022.003.0007 0 .0015.001.0022.002.0007 0 .0015.001.0022.002s.0015.001.0022.002.0015.002.0022.002c.0007.001.0014.002.0022.002.0007.001.0014.002.0022.003.0007 0 .0014.001.0022.002.0007.001.0014.001.0022.002.0007.001.0014.002.0022.002.0007.001.0014.002.0022.002.0007.001.0014.002.0022.003.0007 0 .0014.001.0022.002.0007.001.0014.001.0022.002.0007.001.0014.002.0022.002.0007.001.0014.002.0022.002.0007.001.0014.002.0022.003.0007 0 .0014.001.0021.002.0008.001.0015.001.0022.002.0008.001.0015.002.0022.002.0008.001.0015.002.0022.002.0008.001.0015.002.0022.003.0008 0 .0015.001.0022.002.0008.001.0015.001.0022.002.0008.001.0015.002.0022.002.0008.001.0015.002.0022.002.0008.001.0015.002.0022.003.0008 0 .0015.001.0022.002.0008.001.0015.001.0022.002s.0015.001.0022.002.0015.002.0022.002c.0007.001.0015.002.0022.003.0007 0 .0015.001.0022.002s.0015.001.0022.002.0015.001.0022.002.0015.002.0022.002c.0007.001.0015.002.0022.003.0007 0 .0015.001.0022.002s.0015.001.0022.002.0015.001.0022.002.0015.002.0022.002c.0007.001.0014.002.0022.003.0007 0 .0014.001.0022.002.0007.001.0014.001.0022.002.0007.001.0014.001.0022.002.0007.001.0014.002.0022.002.0007.001.0014.002.0022.003.0007 0 .0014.001.0022.002.0007.001.0014.001.0022.002.0007.001.0014.001.0022.002.0007.001.0014.002.0022.002.0007.001.0014.002.0022.003.0007 0 .0014.001.0022.002.0007 0 .0014.001.0021.002.0008.001.0015.001.0022.002.0008.001.0015.002.0022.002.0008.001.0015.002.0022.003.0008 0 .0015.001.0022.002.0008 0 .0015.001.0022.002.0008.001.0015.001.0022.002.0008.001.0015.002.0022.002.0008.001.0015.002.0022.003.0008 0 .0015.001.0022.002.0008 0 .0015.001.0022.002.0008.001.0015.001.0022.002.0008.001.0015.002.0022.002.0007.001.0015.002.0022.003.0007 0 .0015.001.0022.002.0007 0 .0015.001.0022.002s.0015.001.0022.002.0015.002.0022.002c.0007.001.0015.002.0022.003.0007 0 .0015.001.0022.002.0007 0 .0015.001.0022.002s.0015.001.0022.002.0015.002.0022.002c.0007.001.0015.002.0022.002.0007.001.0015.002.0022.003.0007 0 .0014.001.0022.002.0007.001.0014.001.0022.002.0007.001.0014.002.0022.002.0007.001.0014.002.0022.002.0007.001.0014.002.0022.003.0007 0 .0014.001.0022.002.0007.001.0014.001.0022.002.0007.001.0014.002.0022.002.0007.001.0014.002.0022.002.0007.001.0014.002.0022.003.0007 0 .0014.001.0022.002.0007.001.0014.001.0022.002.0007.001.0014.002.0021.002.0008.001.0015.002.0022.002.0008.001.0015.002.0022.003.0008 0 .0015.001.0022.002.0008.001.0015.001.0022.002.0008.001.0015.002.0022.002.0008.001.0015.002.0022.002.0008.001.0015.002.0022.003.0008 0 .0015.001.0022.002.0008.001.0015.001.0022.002.0008.001.0015.001.0022.002.0008.001.0015.002.0022.002.0008.001.0015.002.0022.003.0007 0 .0015.001.0022.002s.0015.001.0022.002.0015.001.0022.002.0015.002.0022.002c.0007.001.0015.002.0022.003.0007 0 .0015.001.0022.002s.0015.001.0022.002.0015.001.0022.002.0015.002.0022.002c.0007.001.0015.002.0022.003.0007 0 .0015.001.0022.002s.0014.001.0022.002c.0007.001.0014.001.0022.002.0007.001.0014.002.0022.002.0007.001.0014.002.0022.003.0007 0 .0014.001.0022.002.0007.001.0014.001.0022.002.0007.001.0014.001.0022.002.0007.001.0014.002.0022.002.0007.001.0014.002.0022.003.0007 0 .0014.001.0022.002.0007 0 .0014.001.0022.002.0007.001.0014.001.0022.002.0007.001.0014.002.0021.002.0008.001.0015.002.0022.003.0008 0 .0015.001.0022.002.0008 0 .0015.001.0022.002.0008.001.0015.001.0022.002.0008.001.0015.002.0022.002.0008.001.0015.002.0022.003.0008 0 .0015.001.0022.002.0008 0 .0015.001.0022.002.0008.001.0015.001.0022.002.0008.001.0015.002.0022.002.0008.001.0015.002.0022.003.0008 0 .0015.001.0022.002.0007 0 .0015.001.0022.002s.0015.001.0022.002.0015.002.0022.002c.0007.001.0015.002.0022.003.0007 0 .0015.001.0022.002.0007 0 .0015.001.0022.002s.0015.001.0022.002.0015.002.0022.002c.0007.001.0015.002.0022.002.0007.001.0015.002.0022.003.0007 0 .0015.001.0022.002s.0015.001.0022.002.0014.002.0022.002c.0007.001.0014.002.0022.002.0007.001.0014.002.0022.003.0007 0 .0014.001.0022.002.0007.001.0014.001.0022.002.0007.001.0014.002.0022.002.0007.001.0014.002.0022.002.0007.001.0014.002.0022.003.0007 0 .0014.001.0022.002.0007.001.0014.001.0022.002.0007.001.0014.002.0022.002.0007.001.0014.002.0022.002.0007.001.0014.002.0021.003.0008 0 .0015.001.0022.002.0008.001.0015.001.0022.002.0008.001.0015.002.0022.002.0008.001.0015.002.0022.002.0008.001.0015.002.0022.003.0008 0 .0015.001.0022.002.0008.001.0015.001.0022.002.0008.001.0015.002.0022.002.0008.001.0015.002.0022.002.0008.001.0015.002.0022.003.0008 0 .0015.001.0022.002.0008.001.0015.001.0022.002s.0015.001.0022.002.0015.002.0022.002c.0007.001.0015.002.0022.003.0007 0 .0015.001.0022.002s.0015.001.0022.002.0015.001.0022.002.0015.002.0022.002c.0007.001.0015.002.0022.003.0007 0 .0015.001.0022.002s.0015.001.0022.002.0015.001.0022.002.0015.002.0022.002c.0007.001.0014.002.0022.003.0007 0 .0014.001.0022.002.0007.001.0014.001.0022.002.0007.001.0014.001.0022.002.0007.001.0014.002.0022.002.0007.001.0014.002.0022.003.0007 0 .0014.001.0022.002.0007.001.0014.001.0022.002.0007.001.0014.001.0022.002.0007.001.0014.002.0022.002.0007.001.0014.002.0022.003.0007 0 .0014.001.0021.002.0008 0 .0015.001.0022.002.0008.001.0015.001.0022.002.0008.001.0015.002.0022.002.0008.001.0015.002.0022.003.0008 0 .0015.001.0022.002.0008 0 .0015.001.0022.002.0008.001.0015.001.0022.002.0008.001.0015.002.0022.002.0008.001.0015.002.0022.003.0008 0 .0015.001.0022.002.0008 0 .0015.001.0022.002.0008.001.0015.001.0022.002s.0015.002.0022.002c.0007.001.0015.002.0022.003.0007 0 .0015.001.0022.002.0007 0 .0015.001.0022.002s.0015.001.0022.002.0015.002.0022.002c.0007.001.0015.002.0022.003.0007 0 .0015.001.0022.002.0007 0 .0015.001.0022.002s.0015.001.0022.002.0015.002.0022.002c.0007.001.0015.002.0022.002.0007.001.0014.002.0022.003.0007 0 .0014.001.0022.002.0007.001.0014.001.0022.002.0007.001.0014.002.0022.002.0007.001.0014.002.0022.002.0007.001.0014.002.0022.003.0007 0 .0014.001.0022.002.0007.001.0014.001.0022.002.0007.001.0014.002.0022.002.0007.001.0014.002.0022.002.0007.001.0014.002.0022.003.0007 0 .0014.001.0022.002.0007.001.0014.001.0021.002.0008.001.0015.002.0022.002.0008.001.0015.002.0022.002.0008.001.0015.002.0022.003.0008 0 .0015.001.0022.002.0008.001.0015.001.0022.002.0008.001.0015.002.0022.002.0008.001.0015.002.0022.002.0008.001.0015.002.0022.003.0008 0 .0015.001.0022.002.0008.001.0015.001.0022.002.0008.001.0015.001.0022.002.0008.001.0015.002.0022.002.0007.001.0015.002.0022.003.0007 0 .0015.001.0022.002s.0015.001.0022.002.0015.001.0022.002.0015.002.0022.002c.0007.001.0015.002.0022.003.0007 0 .0015.001.0022.002l.7071-.707c-.0007-.001-.0015-.002-.0022-.003-.0007 0-.0015-.001-.0022-.002-.0007 0-.0015-.001-.0022-.002s-.0015-.001-.0022-.002-.0015-.002-.0022-.002c-.0007-.001-.0014-.002-.0022-.002-.0007-.001-.0014-.002-.0022-.003-.0007 0-.0014-.001-.0022-.002-.0007-.001-.0014-.001-.0022-.002-.0007-.001-.0014-.002-.0022-.002-.0007-.001-.0014-.002-.0022-.002-.0007-.001-.0014-.002-.0022-.003-.0007 0-.0014-.001-.0022-.002-.0007-.001-.0014-.001-.0022-.002-.0007-.001-.0014-.002-.0022-.002-.0007-.001-.0014-.002-.0022-.002-.0007-.001-.0014-.002-.0022-.003-.0007 0-.0014-.001-.0021-.002-.0008-.001-.0015-.001-.0022-.002-.0008-.001-.0015-.002-.0022-.002-.0008-.001-.0015-.002-.0022-.002-.0008-.001-.0015-.002-.0022-.003-.0008 0-.0015-.001-.0022-.002-.0008-.001-.0015-.001-.0022-.002-.0008-.001-.0015-.002-.0022-.002-.0008-.001-.0015-.002-.0022-.002-.0008-.001-.0015-.002-.0022-.003-.0008 0-.0015-.001-.0022-.002-.0008-.001-.0015-.001-.0022-.002s-.0015-.001-.0022-.002-.0015-.002-.0022-.002c-.0007-.001-.0015-.002-.0022-.003-.0007 0-.0015-.001-.0022-.002s-.0015-.001-.0022-.002-.0015-.001-.0022-.002-.0015-.002-.0022-.002c-.0007-.001-.0015-.002-.0022-.003-.0007 0-.0015-.001-.0022-.002s-.0015-.001-.0022-.002-.0015-.001-.0022-.002-.0015-.002-.0022-.002c-.0007-.001-.0014-.002-.0022-.003-.0007 0-.0014-.001-.0022-.002-.0007-.001-.0014-.001-.0022-.002-.0007-.001-.0014-.001-.0022-.002-.0007-.001-.0014-.002-.0022-.002-.0007-.001-.0014-.002-.0022-.003-.0007 0-.0014-.001-.0022-.002-.0007-.001-.0014-.001-.0022-.002-.0007-.001-.0014-.001-.0022-.002-.0007-.001-.0014-.002-.0022-.002-.0007-.001-.0014-.002-.0022-.003-.0007 0-.0014-.001-.0022-.002-.0007 0-.0014-.001-.0021-.002-.0008-.001-.0015-.001-.0022-.002-.0008-.001-.0015-.002-.0022-.002-.0008-.001-.0015-.002-.0022-.003-.0008 0-.0015-.001-.0022-.002-.0008 0-.0015-.001-.0022-.002-.0008-.001-.0015-.001-.0022-.002-.0008-.001-.0015-.002-.0022-.002-.0008-.001-.0015-.002-.0022-.003-.0008 0-.0015-.001-.0022-.002-.0008 0-.0015-.001-.0022-.002-.0008-.001-.0015-.001-.0022-.002-.0008-.001-.0015-.002-.0022-.002-.0007-.001-.0015-.002-.0022-.003-.0007 0-.0015-.001-.0022-.002-.0007 0-.0015-.001-.0022-.002s-.0015-.001-.0022-.002-.0015-.002-.0022-.002c-.0007-.001-.0015-.002-.0022-.003-.0007 0-.0015-.001-.0022-.002-.0007 0-.0015-.001-.0022-.002s-.0015-.001-.0022-.002-.0015-.002-.0022-.002c-.0007-.001-.0015-.002-.0022-.002-.0007-.001-.0015-.002-.0022-.003-.0007 0-.0014-.001-.0022-.002-.0007-.001-.0014-.001-.0022-.002-.0007-.001-.0014-.002-.0022-.002-.0007-.001-.0014-.002-.0022-.002-.0007-.001-.0014-.002-.0022-.003-.0007 0-.0014-.001-.0022-.002-.0007-.001-.0014-.001-.0022-.002-.0007-.001-.0014-.002-.0022-.002-.0007-.001-.0014-.002-.0022-.002-.0007-.001-.0014-.002-.0022-.003-.0007 0-.0014-.001-.0022-.002-.0007-.001-.0014-.001-.0022-.002-.0007-.001-.0014-.002-.0021-.002-.0008-.001-.0015-.002-.0022-.002-.0008-.001-.0015-.002-.0022-.003-.0008 0-.0015-.001-.0022-.002-.0008-.001-.0015-.001-.0022-.002-.0008-.001-.0015-.002-.0022-.002-.0008-.001-.0015-.002-.0022-.002-.0008-.001-.0015-.002-.0022-.003-.0008 0-.0015-.001-.0022-.002-.0008-.001-.0015-.001-.0022-.002-.0008-.001-.0015-.001-.0022-.002-.0008-.001-.0015-.002-.0022-.002-.0008-.001-.0015-.002-.0022-.003-.0007 0-.0015-.001-.0022-.002s-.0015-.001-.0022-.002-.0015-.001-.0022-.002-.0015-.002-.0022-.002c-.0007-.001-.0015-.002-.0022-.003-.0007 0-.0015-.001-.0022-.002s-.0015-.001-.0022-.002-.0015-.001-.0022-.002-.0015-.002-.0022-.002c-.0007-.001-.0015-.002-.0022-.003-.0007 0-.0015-.001-.0022-.002s-.0014-.001-.0022-.002c-.0007-.001-.0014-.001-.0022-.002-.0007-.001-.0014-.002-.0022-.002-.0007-.001-.0014-.002-.0022-.003-.0007 0-.0014-.001-.0022-.002-.0007-.001-.0014-.001-.0022-.002-.0007-.001-.0014-.001-.0022-.002-.0007-.001-.0014-.002-.0022-.002-.0007-.001-.0014-.002-.0022-.003-.0007 0-.0014-.001-.0022-.002-.0007 0-.0014-.001-.0022-.002-.0007-.001-.0014-.001-.0022-.002-.0007-.001-.0014-.002-.0021-.002-.0008-.001-.0015-.002-.0022-.003-.0008 0-.0015-.001-.0022-.002-.0008 0-.0015-.001-.0022-.002-.0008-.001-.0015-.001-.0022-.002-.0008-.001-.0015-.002-.0022-.002-.0008-.001-.0015-.002-.0022-.003-.0008 0-.0015-.001-.0022-.002-.0008 0-.0015-.001-.0022-.002-.0008-.001-.0015-.001-.0022-.002-.0008-.001-.0015-.002-.0022-.002-.0008-.001-.0015-.002-.0022-.003-.0008 0-.0015-.001-.0022-.002-.0007 0-.0015-.001-.0022-.002s-.0015-.001-.0022-.002-.0015-.002-.0022-.002c-.0007-.001-.0015-.002-.0022-.003-.0007 0-.0015-.001-.0022-.002-.0007 0-.0015-.001-.0022-.002s-.0015-.001-.0022-.002-.0015-.002-.0022-.002c-.0007-.001-.0015-.002-.0022-.002-.0007-.001-.0015-.002-.0022-.003-.0007 0-.0015-.001-.0022-.002s-.0015-.001-.0022-.002-.0014-.002-.0022-.002c-.0007-.001-.0014-.002-.0022-.002-.0007-.001-.0014-.002-.0022-.003-.0007 0-.0014-.001-.0022-.002-.0007-.001-.0014-.001-.0022-.002-.0007-.001-.0014-.002-.0022-.002-.0007-.001-.0014-.002-.0022-.002-.0007-.001-.0014-.002-.0022-.003-.0007 0-.0014-.001-.0022-.002-.0007-.001-.0014-.001-.0022-.002-.0007-.001-.0014-.002-.0022-.002-.0007-.001-.0014-.002-.0022-.002-.0007-.001-.0014-.002-.0021-.003-.0008 0-.0015-.001-.0022-.002-.0008-.001-.0015-.001-.0022-.002-.0008-.001-.0015-.002-.0022-.002-.0008-.001-.0015-.002-.0022-.002-.0008-.001-.0015-.002-.0022-.003-.0008 0-.0015-.001-.0022-.002-.0008-.001-.0015-.001-.0022-.002-.0008-.001-.0015-.002-.0022-.002-.0008-.001-.0015-.002-.0022-.002-.0008-.001-.0015-.002-.0022-.003-.0008 0-.0015-.001-.0022-.002-.0008-.001-.0015-.001-.0022-.002s-.0015-.001-.0022-.002-.0015-.002-.0022-.002c-.0007-.001-.0015-.002-.0022-.003-.0007 0-.0015-.001-.0022-.002s-.0015-.001-.0022-.002-.0015-.001-.0022-.002-.0015-.002-.0022-.002c-.0007-.001-.0015-.002-.0022-.003-.0007 0-.0015-.001-.0022-.002s-.0015-.001-.0022-.002-.0015-.001-.0022-.002-.0015-.002-.0022-.002c-.0007-.001-.0014-.002-.0022-.003-.0007 0-.0014-.001-.0022-.002-.0007-.001-.0014-.001-.0022-.002-.0007-.001-.0014-.001-.0022-.002-.0007-.001-.0014-.002-.0022-.002-.0007-.001-.0014-.002-.0022-.003-.0007 0-.0014-.001-.0022-.002-.0007-.001-.0014-.001-.0022-.002-.0007-.001-.0014-.001-.0022-.002-.0007-.001-.0014-.002-.0022-.002-.0007-.001-.0014-.002-.0022-.003-.0007 0-.0014-.001-.0021-.002-.0008 0-.0015-.001-.0022-.002-.0008-.001-.0015-.001-.0022-.002-.0008-.001-.0015-.002-.0022-.002-.0008-.001-.0015-.002-.0022-.003-.0008 0-.0015-.001-.0022-.002-.0008 0-.0015-.001-.0022-.002-.0008-.001-.0015-.001-.0022-.002-.0008-.001-.0015-.002-.0022-.002-.0008-.001-.0015-.002-.0022-.003-.0008 0-.0015-.001-.0022-.002-.0008 0-.0015-.001-.0022-.002-.0008-.001-.0015-.001-.0022-.002s-.0015-.002-.0022-.002c-.0007-.001-.0015-.002-.0022-.003-.0007 0-.0015-.001-.0022-.002-.0007 0-.0015-.001-.0022-.002s-.0015-.001-.0022-.002-.0015-.002-.0022-.002c-.0007-.001-.0015-.002-.0022-.003-.0007 0-.0015-.001-.0022-.002-.0007 0-.0015-.001-.0022-.002s-.0015-.001-.0022-.002-.0015-.002-.0022-.002c-.0007-.001-.0015-.002-.0022-.002-.0007-.001-.0014-.002-.0022-.003-.0007 0-.0014-.001-.0022-.002-.0007-.001-.0014-.001-.0022-.002-.0007-.001-.0014-.002-.0022-.002-.0007-.001-.0014-.002-.0022-.002-.0007-.001-.0014-.002-.0022-.003-.0007 0-.0014-.001-.0022-.002-.0007-.001-.0014-.001-.0022-.002-.0007-.001-.0014-.002-.0022-.002-.0007-.001-.0014-.002-.0022-.002-.0007-.001-.0014-.002-.0022-.003-.0007 0-.0014-.001-.0022-.002-.0007-.001-.0014-.001-.0021-.002-.0008-.001-.0015-.002-.0022-.002-.0008-.001-.0015-.002-.0022-.002-.0008-.001-.0015-.002-.0022-.003-.0008 0-.0015-.001-.0022-.002-.0008-.001-.0015-.001-.0022-.002-.0008-.001-.0015-.002-.0022-.002-.0008-.001-.0015-.002-.0022-.002-.0008-.001-.0015-.002-.0022-.003-.0008 0-.0015-.001-.0022-.002-.0008-.001-.0015-.001-.0022-.002-.0008-.001-.0015-.001-.0022-.002-.0008-.001-.0015-.002-.0022-.002-.0007-.001-.0015-.002-.0022-.003-.0007 0-.0015-.001-.0022-.002s-.0015-.001-.0022-.002-.0015-.001-.0022-.002-.0015-.002-.0022-.002c-.0007-.001-.0015-.002-.0022-.003-.0007 0-.0015-.001-.0022-.002s-.0015-.001-.0022-.002-.0015-.001-.0022-.002-.0015-.002-.0022-.002c-.0007-.001-.0015-.002-.0022-.003-.0007 0-.0015-.001-.0022-.002s-.0014-.001-.0022-.002c-.0007-.001-.0014-.001-.0022-.002-.0007-.001-.0014-.002-.0022-.002-.0007-.001-.0014-.002-.0022-.003-.0007 0-.0014-.001-.0022-.002-.0007-.001-.0014-.001-.0022-.002-.0007-.001-.0014-.001-.0022-.002-.0007-.001-.0014-.002-.0022-.002-.0007-.001-.0014-.002-.0022-.003-.0007 0-.0014-.001-.0022-.002-.0007 0-.0014-.001-.0022-.002-.0007-.001-.0014-.001-.0022-.002-.0007-.001-.0014-.002-.0021-.002-.0008-.001-.0015-.002-.0022-.003-.0008 0-.0015-.001-.0022-.002-.0008 0-.0015-.001-.0022-.002-.0008-.001-.0015-.001-.0022-.002-.0008-.001-.0015-.002-.0022-.002-.0008-.001-.0015-.002-.0022-.003-.0008 0-.0015-.001-.0022-.002-.0008 0-.0015-.001-.0022-.002-.0008-.001-.0015-.001-.0022-.002-.0008-.001-.0015-.002-.0022-.002-.0008-.001-.0015-.002-.0022-.003-.0007 0-.0015-.001-.0022-.002-.0007 0-.0015-.001-.0022-.002s-.0015-.001-.0022-.002-.0015-.002-.0022-.002c-.0007-.001-.0015-.002-.0022-.003-.0007 0-.0015-.001-.0022-.002-.0007 0-.0015-.001-.0022-.002s-.0015-.001-.0022-.002-.0015-.002-.0022-.002c-.0007-.001-.0015-.002-.0022-.002-.0007-.001-.0015-.002-.0022-.003-.0007 0-.0015-.001-.0022-.002s-.0014-.001-.0022-.002c-.0007-.001-.0014-.002-.0022-.002-.0007-.001-.0014-.002-.0022-.002-.0007-.001-.0014-.002-.0022-.003-.0007 0-.0014-.001-.0022-.002-.0007-.001-.0014-.001-.0022-.002-.0007-.001-.0014-.002-.0022-.002-.0007-.001-.0014-.002-.0022-.002-.0007-.001-.0014-.002-.0022-.003-.0007 0-.0014-.001-.0022-.002-.0007-.001-.0014-.001-.0022-.002-.0007-.001-.0014-.002-.0022-.002-.0007-.001-.0014-.002-.0021-.002-.0008-.001-.0015-.002-.0022-.003-.0008 0-.0015-.001-.0022-.002-.0008-.001-.0015-.001-.0022-.002-.0008-.001-.0015-.002-.0022-.002-.0008-.001-.0015-.002-.0022-.002-.0008-.001-.0015-.002-.0022-.003-.0008 0-.0015-.001-.0022-.002-.0008-.001-.0015-.001-.0022-.002-.0008-.001-.0015-.001-.0022-.002-.0008-.001-.0015-.002-.0022-.002-.0008-.001-.0015-.002-.0022-.003-.0008 0-.0015-.001-.0022-.002s-.0015-.001-.0022-.002-.0015-.001-.0022-.002-.0015-.002-.0022-.002c-.0007-.001-.0015-.002-.0022-.003-.0007 0-.0015-.001-.0022-.002s-.0015-.001-.0022-.002-.0015-.001-.0022-.002-.0015-.002-.0022-.002c-.0007-.001-.0015-.002-.0022-.003-.0007 0-.0015-.001-.0022-.002s-.0015-.001-.0022-.002-.0015-.001-.0022-.002-.0014-.002-.0022-.002c-.0007-.001-.0014-.002-.0022-.003-.0007 0-.0014-.001-.0022-.002-.0007-.001-.0014-.001-.0022-.002-.0007-.001-.0014-.001-.0022-.002-.0007-.001-.0014-.002-.0022-.002-.0007-.001-.0014-.002-.0022-.003-.0007 0-.0014-.001-.0022-.002-.0007-.001-.0014-.001-.0022-.002-.0007-.001-.0014-.001-.0022-.002-.0007-.001-.0014-.002-.0022-.002-.0007-.001-.0014-.002-.0022-.003-.0007 0-.0014-.001-.0021-.002-.0008 0-.0015-.001-.0022-.002-.0008-.001-.0015-.001-.0022-.002-.0008-.001-.0015-.002-.0022-.002-.0008-.001-.0015-.002-.0022-.003-.0008 0-.0015-.001-.0022-.002-.0008 0-.0015-.001-.0022-.002-.0008-.001-.0015-.001-.0022-.002-.0008-.001-.0015-.002-.0022-.002-.0008-.001-.0015-.002-.0022-.003-.0008 0-.0015-.001-.0022-.002-.0008 0-.0015-.001-.0022-.002-.0008-.001-.0015-.001-.0022-.002s-.0015-.002-.0022-.002c-.0007-.001-.0015-.002-.0022-.003-.0007 0-.0015-.001-.0022-.002-.0007 0-.0015-.001-.0022-.002s-.0015-.001-.0022-.002-.0015-.002-.0022-.002c-.0007-.001-.0015-.002-.0022-.003-.0007 0-.0015-.001-.0022-.002-.0007 0-.0015-.001-.0022-.002s-.0015-.001-.0022-.002-.0015-.002-.0022-.002c-.0007-.001-.0014-.002-.0022-.002-.0007-.001-.0014-.002-.0022-.003-.0007 0-.0014-.001-.0022-.002-.0007-.001-.0014-.001-.0022-.002-.0007-.001-.0014-.002-.0022-.002-.0007-.001-.0014-.002-.0022-.002-.0007-.001-.0014-.002-.0022-.003-.0007 0-.0014-.001-.0022-.002-.0007-.001-.0014-.001-.0022-.002-.0007-.001-.0014-.002-.0022-.002-.0007-.001-.0014-.002-.0022-.002-.0007-.001-.0014-.002-.0022-.003-.0007 0-.0014-.001-.0021-.002-.0008-.001-.0015-.001-.0022-.002-.0008-.001-.0015-.002-.0022-.002-.0008-.001-.0015-.002-.0022-.002-.0008-.001-.0015-.002-.0022-.003-.0008 0-.0015-.001-.0022-.002-.0008-.001-.0015-.001-.0022-.002-.0008-.001-.0015-.002-.0022-.002-.0008-.001-.0015-.002-.0022-.002-.0008-.001-.0015-.002-.0022-.003-.0008 0-.0015-.001-.0022-.002-.0008-.001-.0015-.001-.0022-.002-.0008-.001-.0015-.001-.0022-.002s-.0015-.002-.0022-.002c-.0007-.001-.0015-.002-.0022-.003-.0007 0-.0015-.001-.0022-.002s-.0015-.001-.0022-.002-.0015-.001-.0022-.002-.0015-.002-.0022-.002c-.0007-.001-.0015-.002-.0022-.003-.0007 0-.0015-.001-.0022-.002s-.0015-.001-.0022-.002-.0015-.001-.0022-.002-.0015-.002-.0022-.002c-.0007-.001-.0015-.002-.0022-.003-.0007 0-.0014-.001-.0022-.002-.0007-.001-.0014-.001-.0022-.002-.0007-.001-.0014-.001-.0022-.002-.0007-.001-.0014-.002-.0022-.002-.0007-.001-.0014-.002-.0022-.003-.0007 0-.0014-.001-.0022-.002-.0007-.001-.0014-.001-.0022-.002-.0007-.001-.0014-.001-.0022-.002-.0007-.001-.0014-.002-.0022-.002-.0007-.001-.0014-.002-.0022-.003-.0007 0-.0014-.001-.0022-.002-.0007 0-.0014-.001-.0022-.002-.0007-.001-.0014-.001-.0021-.002-.0008-.001-.0015-.002-.0022-.002-.0008-.001-.0015-.002-.0022-.003-.0008 0-.0015-.001-.0022-.002-.0008 0-.0015-.001-.0022-.002-.0008-.001-.0015-.001-.0022-.002-.0008-.001-.0015-.002-.0022-.002-.0008-.001-.0015-.002-.0022-.003-.0008 0-.0015-.001-.0022-.002-.0008 0-.0015-.001-.0022-.002-.0008-.001-.0015-.001-.0022-.002-.0008-.001-.0015-.002-.0022-.002-.0008-.001-.0015-.002-.0022-.003-.0007 0-.0015-.001-.0022-.002-.0007 0-.0015-.001-.0022-.002s-.0015-.001-.0022-.002-.0015-.002-.0022-.002c-.0007-.001-.0015-.002-.0022-.003-.0007 0-.0015-.001-.0022-.002-.0007 0-.0015-.001-.0022-.002s-.0015-.001-.0022-.002-.0015-.002-.0022-.002c-.0007-.001-.0015-.002-.0022-.002-.0007-.001-.0015-.002-.0022-.003-.0007 0-.0015-.001-.0022-.002s-.0014-.001-.0022-.002c-.0007-.001-.0014-.002-.0022-.002-.0007-.001-.0014-.002-.0022-.002-.0007-.001-.0014-.002-.0022-.003-.0007 0-.0014-.001-.0022-.002-.0007-.001-.0014-.001-.0022-.002-.0007-.001-.0014-.002-.0022-.002-.0007-.001-.0014-.002-.0022-.002-.0007-.001-.0014-.002-.0022-.003-.0007 0-.0014-.001-.0022-.002-.0007-.001-.0014-.001-.0022-.002-.0007-.001-.0014-.002-.0021-.002-.0008-.001-.0015-.002-.0022-.002-.0008-.001-.0015-.002-.0022-.003-.0008 0-.0015-.001-.0022-.002-.0008-.001-.0015-.001-.0022-.002-.0008-.001-.0015-.002-.0022-.002-.0008-.001-.0015-.002-.0022-.002-.0008-.001-.0015-.002-.0022-.003-.0008 0-.0015-.001-.0022-.002-.0008-.001-.0015-.001-.0022-.002-.0008-.001-.0015-.001-.0022-.002-.0008-.001-.0015-.002-.0022-.002-.0008-.001-.0015-.002-.0022-.003-.0007 0-.0015-.001-.0022-.002s-.0015-.001-.0022-.002-.0015-.001-.0022-.002-.0015-.002-.0022-.002c-.0007-.001-.0015-.002-.0022-.003-.0007 0-.0015-.001-.0022-.002s-.0015-.001-.0022-.002-.0015-.001-.0022-.002-.0015-.002-.0022-.002c-.0007-.001-.0015-.002-.0022-.003-.0007 0-.0015-.001-.0022-.002s-.0015-.001-.0022-.002-.0014-.001-.0022-.002c-.0007-.001-.0014-.002-.0022-.002-.0007-.001-.0014-.002-.0022-.003-.0007 0-.0014-.001-.0022-.002-.0007-.001-.0014-.001-.0022-.002-.0007-.001-.0014-.001-.0022-.002-.0007-.001-.0014-.002-.0022-.002-.0007-.001-.0014-.002-.0022-.003-.0007 0-.0014-.001-.0022-.002-.0007 0-.0014-.001-.0022-.002-.0007-.001-.0014-.001-.0022-.002-.0007-.001-.0014-.002-.0022-.002-.0007-.001-.0014-.002-.0021-.003-.0008 0-.0015-.001-.0022-.002-.0008 0-.0015-.001-.0022-.002-.0008-.001-.0015-.001-.0022-.002-.0008-.001-.0015-.002-.0022-.002-.0008-.001-.0015-.002-.0022-.003-.0008 0-.0015-.001-.0022-.002-.0008 0-.0015-.001-.0022-.002-.0008-.001-.0015-.001-.0022-.002-.0008-.001-.0015-.002-.0022-.002-.0008-.001-.0015-.002-.0022-.003-.0008 0-.0015-.001-.0022-.002-.0008 0-.0015-.001-.0022-.002s-.0015-.001-.0022-.002-.0015-.002-.0022-.002c-.0007-.001-.0015-.002-.0022-.003-.0007 0-.0015-.001-.0022-.002-.0007 0-.0015-.001-.0022-.002s-.0015-.001-.0022-.002-.0015-.002-.0022-.002zm1.1731.375c-5.0021 3.861-10.2531 7.348-15.7533 10.461l.4925.87c5.5415-3.136 10.8321-6.649 15.8717-10.539zm8.2117-1.322-.4025-.297-.0168.023-.0141.024zm1-.25-.2608.426.0103.006zm.3125 1 .4335.249.0146-.026.0115-.027zm-5.0937 11.374.4514.215.0134-.028.0097-.029zm-.9688.5-.1437.479.0138.005.0141.003zm-.5-.906-.4746-.157-.0117.035-.0063.037zm12.688-12 .082-.493-.021-.003-.022-.002zm.531 1.313.353.353.012-.011.011-.013zm-.531.219-.041.498.02.002h.021zm-14.188 1.281.062.496.0344-.004.0335-.009zm-.9375-.531-.4864.115.0033.014.0042.014zm.5313-.938-.1302-.483-.0302.008-.029.012zm7.5587-.766c.106-.144.1736-.167.1875-.171.0029-.001.0426-.014.1493.051l.5214-.853c-.2683-.164-.5828-.251-.9132-.168-.3194.08-.5643.296-.75.548zm.347-.114c.1239.072.1439.125.1483.139.0054.017.019.083-.0449.232l.9192.393c.1236-.288.1789-.608.0801-.924-.0998-.319-.3298-.548-.6017-.705zm.1295.318c-2.1 3.654-3.8117 7.477-5.1348 11.467l.9491.315c1.3019-3.926 2.9861-7.687 5.0527-11.283zm-5.1117 11.41c-.0727.152-.1399.205-.1763.223-.0316.017-.0942.036-.2252.005l-.2316.973c.3065.073.6241.061.9154-.089.2865-.148.485-.398.6206-.683zm-.3736.236c-.1174-.036-.1387-.075-.1434-.083-.0097-.018-.0377-.087-.0077-.259l-.9852-.171c-.0533.306-.0396.628.1173.913.162.293.4323.468.7316.557zm-.1691-.27c1.3435-4.052 3.0797-7.927 5.2088-11.627l-.8668-.499c-2.1626 3.758-3.9264 7.696-5.2912 11.811zm12.1304-11.665c.186.031.259.085.284.111.018.018.049.059.049.178h1c0-.319-.095-.628-.327-.87-.225-.234-.527-.353-.841-.405zm.333.289c0 .045-.014.109-.096.201l.753.659c.21-.24.343-.531.343-.86zm-.073.177c-.051.051-.1.073-.177.073v1c.339 0 .644-.125.884-.366zm-.137.074c-4.8692-.4-9.6562.032-14.3579 1.297l.2598.966c4.59-1.235 9.2613-1.657 14.0171-1.266zm-14.29 1.284c-.1852.023-.2693-.007-.3009-.025-.0213-.012-.0619-.042-.0957-.154l-.9578.287c.0912.304.2693.572.5605.737.2809.159.6031.186.9179.147zm-.3891-.151c-.0305-.128-.0083-.18.0033-.2.0156-.028.0667-.092.2309-.159l-.3787-.926c-.2942.121-.5607.307-.7222.591-.1655.293-.1798.616-.1061.925zm.175-.339c4.7364-1.277 9.5434-1.72 14.4241-1.328l.079-.997c-4.9943-.401-9.9164.053-14.7634 1.359zm12.4951 8.111.045.498.005-.001zm0-1.656-.047-.498-.008.001zm9.125-2.219-.212-.454-.012.007zm3.218-2.438-.37-.335-.009.009zm.563-1.469.5-.019-.002-.051-.013-.051zm-.5-.5-.192.462.022.009.023.007zm-.719-.187-.05.498h.005zm-6.844 3.781-.447-.223-.004.009zm-.562 3.844-.494.077.001.005zm.906 1.469-.289.408.01.007.011.007zm1.5.531-.057.497.012.001.013.001zm3.594-.781-.217-.451-.01.005-.01.005zm3.094-2.031-.322-.383-.006.005zm1.187 0 .393-.31-.032-.04-.039-.033zm0 1.187.335.371.031-.028.027-.033zm-4.5 2.781-.189-.462h-.002zm-5.093.094-.217.451.018.009.02.007zm-2.188-2.406-.48.141.003.008zm1.156-6.5-.413-.282-.006.009zm4.094-3.188.172.47.001-.001zm2.562-.5.023.5.011-.001zm2.594.406.219-.449-.012-.006-.013-.005zm1.406 2.063.5.012.001-.028-.002-.027zm-.906 2.406.381.325.005-.007zm-3.906 2.969-.211-.453-.005.002zm-9.827 1.846c-.055.005-.102-.003-.174-.084l-.748.664c.261.294.61.452 1.013.416zm-.174-.084c-.103-.116-.124-.2-.124-.262h-1c0 .355.146.667.376.926zm-.124-.262c0-.137.036-.182.058-.202.032-.032.122-.089.341-.114l-.11-.993c-.344.038-.676.147-.925.386-.26.251-.364.581-.364.923zm.391-.315c1.559-.147 3.128-.379 4.707-.695l-.196-.98c-1.546.309-3.081.536-4.605.68zm4.707-.695c1.606-.321 3.138-.846 4.594-1.574l-.447-.894c-1.377.688-2.824 1.184-4.343 1.488zm4.582-1.568c1.314-.613 2.444-1.469 3.387-2.565l-.759-.652c-.849.988-1.865 1.757-3.051 2.311zm3.378-2.555c.475-.525.718-1.139.692-1.824l-1 .039c.016.399-.117.764-.433 1.114zm.677-1.926c-.11-.439-.42-.728-.838-.856l-.294.955c.123.038.147.083.162.144zm-.793-.84c-.289-.12-.578-.198-.865-.224l-.091.996c.171.015.361.063.572.151zm-.861-.224c-1.556-.155-3.003.135-4.325.874l.488.873c1.136-.636 2.377-.888 3.737-.751zm-4.325.874c-1.319.738-2.326 1.803-3.016 3.182l.895.447c.602-1.205 1.47-2.119 2.609-2.756zm-3.02 3.191c-.626 1.319-.829 2.702-.605 4.135l.988-.154c-.193-1.233-.02-2.413.52-3.552zm-.604 4.14c.125.752.497 1.361 1.11 1.795l.578-.816c-.387-.274-.619-.645-.702-1.143zm1.131 1.809c.522.332 1.094.535 1.711.606l.115-.994c-.467-.054-.895-.205-1.289-.456zm1.736.608c1.364.089 2.655-.191 3.863-.84l-.474-.881c-1.042.56-2.147.8-3.324.723zm3.843-.83c1.165-.561 2.233-1.262 3.204-2.104l-.655-.755c-.904.783-1.898 1.436-2.983 1.958zm3.199-2.099c.136-.114.224-.132.272-.132.047 0 .135.018.271.132l.644-.765c-.26-.219-.568-.367-.915-.367-.348 0-.656.148-.916.367zm.473-.073c.106.135.127.226.127.284s-.021.15-.127.284l.785.62c.206-.262.342-.566.342-.904s-.136-.642-.342-.903zm.057.507c-1.224 1.104-2.674 2.001-4.354 2.69l.379.925c1.777-.728 3.328-1.685 4.645-2.873zm-4.356 2.69c-1.593.661-3.159.688-4.724.089l-.357.934c1.81.693 3.64.657 5.464-.099zm-4.686.105c-1.017-.489-1.64-1.191-1.927-2.105l-.954.299c.38 1.212 1.215 2.114 2.448 2.708zm-1.924-2.096c-.287-.976-.319-2.017-.084-3.131l-.979-.206c-.265 1.26-.235 2.47.103 3.619zm-.084-3.131c.239-1.135.634-2.118 1.179-2.955l-.838-.546c-.621.954-1.059 2.055-1.32 3.295zm1.174-2.947c.961-1.413 2.241-2.41 3.852-2.999l-.344-.939c-1.806.661-3.255 1.789-4.335 3.375zm3.853-3c.739-.272 1.542-.43 2.412-.469l-.045-.999c-.964.044-1.869.219-2.713.53zm2.423-.47c.867-.058 1.653.068 2.366.368l.388-.921c-.87-.367-1.813-.512-2.821-.445zm2.341.357c.694.338 1.059.87 1.127 1.656l.997-.086c-.099-1.131-.671-1.974-1.686-2.469zm1.126 1.601c-.019.781-.279 1.476-.793 2.1l.772.636c.653-.792.997-1.702 1.02-2.712zm-.787 2.094c-1.037 1.216-2.281 2.162-3.737 2.84l.422.906c1.586-.738 2.946-1.772 4.076-3.097zm-3.742 2.842c-1.483.711-3.037 1.229-4.663 1.554l.196.981c1.707-.341 3.34-.886 4.899-1.633zm-4.663 1.554c-1.651.331-3.302.578-4.952.743l.1.995c1.683-.168 3.365-.42 5.048-.757z"/><path d="m0 0h113v28h-113z" transform="matrix(.9961947 -.08715574 .08715574 .9961947 196.604 418.848)"/></g><path d="m209.558 428.315c.93-.081 1.79.111 2.58.578.804.465 1.465 1.143 1.985 2.034.518.878.828 1.889.928 3.031.087.996-.051 1.945-.414 2.847s-.9 1.645-1.612 2.229c-.713.571-1.527.896-2.444.977-1.169.102-2.16-.139-2.974-.724s-1.394-1.551-1.74-2.899l-.338.029.872 7.673-2.55.224-1.336-15.262 2.551-.223.123 3.703.398-.035c.158-1.258.58-2.246 1.267-2.961.7-.718 1.601-1.124 2.704-1.221zm-.075 9.242c.638-.056 1.197-.245 1.677-.568.48-.324.839-.736 1.076-1.239.249-.517.347-1.081.294-1.692-.085-.97-.466-1.733-1.144-2.289-.679-.57-1.503-.812-2.473-.727-.611.053-1.157.241-1.637.565-.48.323-.852.737-1.116 1.242-.25.503-.35 1.041-.301 1.612.052.584.247 1.129.585 1.635.338.493.773.876 1.305 1.151.545.26 1.123.363 1.734.31zm9.168-3.372c.215.784.63 1.39 1.243 1.819.625.413 1.376.582 2.252.505 1.408-.123 2.476-.765 3.205-1.926l1.794 1.007c-.432 1.028-1.071 1.827-1.918 2.396-.847.57-1.802.901-2.864.994-1.05.092-2.042-.083-2.977-.523-.937-.453-1.71-1.102-2.319-1.945-.597-.858-.942-1.818-1.035-2.881-.093-1.062.081-2.061.521-2.997.454-.936 1.103-1.702 1.947-2.298.844-.609 1.79-.96 2.839-1.052 1.116-.097 2.123.096 3.022.579.899.484 1.619 1.211 2.158 2.18.539.957.845 2.081.918 3.373zm2.901-4.47c-.824.072-1.507.373-2.049.902-.531.515-.857 1.146-.979 1.893l6.376-.558c-.228-.77-.654-1.348-1.276-1.735-.611-.402-1.302-.569-2.072-.502zm19.06 4.697c-.877 2.057-2.584 3.197-5.121 3.419-1.05.092-2.029-.083-2.937-.526-.897-.457-1.63-1.109-2.199-1.956-.557-.861-.882-1.823-.975-2.886-.093-1.062.06-2.059.461-2.991.412-.946 1.021-1.716 1.826-2.308.818-.594 1.751-.936 2.801-1.028 1.301-.114 2.441.061 3.418.524.978.463 1.77 1.183 2.378 2.161l-1.854 1.527c-.57-.699-1.126-1.166-1.669-1.4-.53-.248-1.147-.341-1.851-.279-.956.083-1.713.457-2.271 1.122-.544.663-.774 1.48-.689 2.449.089 1.023.459 1.807 1.109 2.353.649.532 1.458.755 2.428.671 1.315-.116 2.32-.792 3.014-2.031zm11.507-9.7-1.527 10.312c-.191 1.342-.552 2.411-1.085 3.207-.532.81-1.269 1.409-2.212 1.8-.941.403-2.163.671-3.664.802l-.207-2.371c1.249-.109 2.123-.212 2.623-.31.501-.084.881-.251 1.141-.501.26-.237.459-.636.598-1.197l-2.869.251-3.916-11.02 2.57-.225 3.381 9.501 1.116-.097 1.48-9.927zm8.65-.877c.929-.082 1.789.111 2.58.577.803.465 1.465 1.143 1.985 2.035.518.878.827 1.888.927 3.031.087.996-.05 1.945-.413 2.846-.363.902-.9 1.645-1.612 2.229-.713.571-1.528.897-2.444.977-1.169.102-2.161-.139-2.975-.723-.814-.585-1.393-1.551-1.739-2.9l-.339.03.872 7.673-2.55.223-1.335-15.262 2.55-.223.123 3.704.399-.035c.158-1.259.58-2.246 1.267-2.962.7-.717 1.601-1.124 2.704-1.22zm-.075 9.242c.637-.056 1.196-.246 1.677-.569.48-.323.839-.736 1.076-1.238.249-.517.347-1.081.293-1.692-.084-.97-.466-1.733-1.143-2.289-.679-.57-1.504-.812-2.473-.728-.611.054-1.157.242-1.637.565-.481.323-.853.737-1.116 1.242-.251.504-.351 1.041-.301 1.613.051.584.246 1.129.585 1.635.337.492.772.876 1.305 1.15.545.261 1.123.364 1.734.311zm17.781-1.978c-.877 2.058-2.584 3.198-5.121 3.42-1.049.091-2.028-.084-2.937-.526-.897-.457-1.63-1.109-2.199-1.956-.557-.862-.882-1.824-.975-2.886-.093-1.063.061-2.06.461-2.992.412-.946 1.021-1.715 1.826-2.308.818-.593 1.751-.936 2.801-1.028 1.301-.114 2.441.061 3.418.524.978.464 1.77 1.184 2.378 2.161l-1.854 1.528c-.57-.7-1.126-1.167-1.668-1.4-.531-.248-1.148-.341-1.852-.28-.956.084-1.713.458-2.271 1.122-.544.664-.774 1.48-.689 2.45.09 1.022.459 1.807 1.109 2.352.649.532 1.458.756 2.428.671 1.315-.115 2.32-.792 3.015-2.031zm7.858 2.284c-1.049.092-2.029-.09-2.939-.546-.909-.456-1.657-1.12-2.242-1.992-.571-.874-.905-1.855-1-2.944-.094-1.076.065-2.087.477-3.033.426-.948 1.047-1.725 1.864-2.332.817-.606 1.75-.956 2.8-1.047 1.049-.092 2.028.09 2.938.545.91.456 1.65 1.114 2.221 1.974.57.861.903 1.829.997 2.905.095 1.089-.063 2.113-.474 3.073-.412.959-1.026 1.742-1.843 2.349-.816.607-1.75.956-2.799 1.048zm-.216-2.47c.956-.084 1.692-.476 2.206-1.177.513-.714.725-1.576.637-2.586-.088-1.009-.447-1.814-1.075-2.415s-1.42-.86-2.376-.776c-.943.083-1.678.481-2.204 1.197-.528.702-.748 1.551-.661 2.547.088 1.009.454 1.821 1.096 2.434.642.599 1.434.858 2.377.776zm12.911-10.305c1.341-.117 2.351.029 3.03.438.678.409 1.048.972 1.111 1.689s-.118 1.329-.542 1.834c-.412.492-.966.814-1.662.969l.03.339c.964.009 1.78.232 2.447.669s1.038 1.074 1.111 1.91c.082.943-.258 1.716-1.022 2.318-.75.601-1.923.972-3.516 1.111l-6.077.532-.987-11.277zm.375 4.284c.558-.049.963-.158 1.216-.328.253-.169.363-.44.33-.811-.031-.359-.186-.6-.464-.723-.279-.123-.697-.16-1.255-.111l-3.646.319.173 1.973zm.397 4.542c1.421-.124 2.096-.598 2.024-1.421-.034-.386-.224-.65-.571-.794-.349-.157-.901-.202-1.659-.136l-3.646.319.206 2.351z" fill="#f5f2cd"/><path d="m139.072 209h9.088v-17.312h10.272v-6.496h-29.632v6.496h10.272zm45.463 0h9.088v-23.808h-9.088l-14.944 14.976v-14.976h-9.088v23.808h9.088l14.944-14.944zm12.064 0h22.528c7.776 0 10.048-3.136 10.048-6.88v-.384c0-4.192-3.36-5.6-5.472-6.112 1.568-.352 4.096-1.696 4.096-4.672v-.352c0-2.72-1.856-5.408-8.8-5.408h-22.4zm19.648-18.4c1.888 0 2.432.704 2.432 1.632v.064c0 .896-.544 1.664-2.432 1.664h-10.56v-3.36zm.576 8.704c2.336 0 2.816.928 2.816 1.952v.096c0 .928-.448 2.048-2.816 2.048h-11.136v-4.096zm13.992 9.696h9.088v-9.056h14.88v9.056h9.056v-23.808h-9.056v8.416h-14.88v-8.416h-9.088zm44.994-16.8v-7.008h-9.088v23.808h19.104c9.632 0 12.032-3.744 12.032-8.192v-.512c0-4.448-2.432-8.096-12.032-8.096zm0 10.88v-4.96h8.864c2.944 0 3.776 1.056 3.776 2.4v.096c0 1.28-.832 2.464-3.776 2.464zm32.928-17.888h-9.056v23.808h9.056zm2.924 0v23.808h26.592v-5.952h-17.632v-3.264h17.024v-5.792h-17.024v-2.976h17.376v-5.824z" fill="#8b52d4"/></svg>