<svg fill="none" height="511" viewBox="0 0 360 511" width="360" xmlns="http://www.w3.org/2000/svg"><path d="m24.8055 201.606c0-9.706 4.5414-14.56 13.624-14.56 9.152 0 13.728 4.854 13.728 14.56v58.344c0 9.707-4.576 14.56-13.728 14.56-9.0826 0-13.624-4.853-13.624-14.56zm17.784 0c0-3.258-1.3866-4.888-4.16-4.888-2.704 0-4.056 1.63-4.056 4.888v58.344c0 3.328 1.352 4.992 4.056 4.992 2.7734 0 4.16-1.664 4.16-4.992zm35.9442 71.968c-.624-3.466-1.352-7.037-2.184-10.712-.7626-3.744-1.5253-7.28-2.288-10.608-.6933-3.328-1.3173-6.274-1.872-8.84-.5546-2.565-.9013-4.402-1.04-5.512-.1386 1.11-.4853 2.947-1.04 5.512-.4853 2.566-1.0746 5.512-1.768 8.84-.6933 3.259-1.456 6.76-2.288 10.504-.7626 3.744-1.4906 7.35-2.184 10.816h-9.776l11.752-45.76-9.88-39.832h10.296c.416 2.704.9014 5.547 1.456 8.528.624 2.982 1.1787 5.824 1.664 8.528.5547 2.704 1.04 5.131 1.456 7.28.416 2.08.6587 3.571.728 4.472.0694-.901.312-2.392.728-4.472.416-2.149.9014-4.576 1.456-7.28.5547-2.704 1.1094-5.546 1.664-8.528.624-2.981 1.144-5.824 1.56-8.528h9.984l-10.088 39.52 11.96 46.072zm12.1347 0v-9.568h1.248c1.1094 0 2.0454-.242 2.808-.728.7627-.554 1.456-1.906 2.08-4.056.2774-.97.5547-2.253.832-3.848.2774-1.594.52-3.709.728-6.344.2774-2.634.5547-5.893.832-9.776.2774-3.952.5547-8.805.8316-14.56l1.872-36.712h22.568v85.592h-9.568v-75.92h-5.2l-1.56 28.704c-.346 5.755-.693 10.712-1.04 14.872-.277 4.091-.589 7.592-.936 10.504-.346 2.843-.693 5.166-1.04 6.968-.346 1.803-.658 3.259-.936 4.368-.97 3.467-2.357 6.102-4.16 7.904-1.7329 1.734-4.3329 2.6-7.7996 2.6zm61.6846 0-1.56-13.208h-10.504c-.347 2.219-.659 4.438-.936 6.656-.208 2.15-.451 4.334-.728 6.552h-9.36l11.128-85.592h11.128l10.504 85.592zm-2.6-22.048c-.763-6.517-1.491-12.93-2.184-19.24-.694-6.378-1.352-12.93-1.976-19.656-1.248 13.451-2.704 26.416-4.368 38.896zm14.447 33.384v-20.904h1.976c.762 0 1.49-.312 2.184-.936.762-.624 1.421-1.906 1.976-3.848.277-1.04.554-2.392.832-4.056.277-1.664.554-3.813.832-6.448.277-2.634.52-5.893.728-9.776.277-3.952.554-8.701.832-14.248l1.872-36.712h22.568v76.024h4.576v20.904h-7.488v-11.336h-23.4v11.336zm24.232-20.904v-66.352h-5.2l-1.56 28.288c-.347 5.755-.694 10.782-1.04 15.08-.347 4.299-.728 8.008-1.144 11.128-.347 3.051-.728 5.547-1.144 7.488-.347 1.942-.728 3.398-1.144 4.368zm18.896 9.568v-85.592h23.088v9.672h-13.52v27.456h9.048v9.672h-9.048v29.224h14.04v9.568zm23.606-39.416v-7.384h16.64v7.384z" fill="#37d0e5"/><path d="m186.214 306.542c0-1.802-.312-3.05-.936-3.744-.624-.762-1.63-1.144-3.016-1.144h-4.264v27.976h4.368c2.565 0 3.848-1.49 3.848-4.472zm.208 36.504c0-1.802-.312-3.085-.936-3.848-.555-.762-1.595-1.144-3.12-1.144h-4.368v29.952h4.264c2.773 0 4.16-1.664 4.16-4.992zm-17.992 34.528v-85.592h13.832c4.645 0 7.938 1.179 9.88 3.536 2.01 2.358 3.016 6.136 3.016 11.336v17.368c0 4.854-1.526 7.87-4.576 9.048 1.525.347 2.842 1.248 3.952 2.704 1.109 1.456 1.664 3.536 1.664 6.24v20.904c0 5.062-1.179 8.736-3.536 11.024-2.288 2.288-5.755 3.432-10.4 3.432zm52.985 0-1.56-13.208h-10.504c-.347 2.219-.659 4.438-.936 6.656-.208 2.15-.451 4.334-.728 6.552h-9.36l11.128-85.592h11.128l10.504 85.592zm-2.6-22.048c-.763-6.517-1.491-12.93-2.184-19.24-.693-6.378-1.352-12.93-1.976-19.656-1.248 13.451-2.704 26.416-4.368 38.896zm34.935 22.048v-38.792h-8.112v38.792h-9.568v-85.592h9.568v37.232h8.112v-37.232h9.568v85.592zm16.849 0v-85.592h8.736v53.976l7.488-53.976h11.128v85.592h-8.84v-54.912l-9.256 54.912zm32.657 0 6.344-40.456c-1.942-1.109-3.363-2.6-4.264-4.472-.832-1.941-1.248-4.576-1.248-7.904v-17.368c0-5.616 1.213-9.568 3.64-11.856 2.496-2.357 6.309-3.536 11.44-3.536h13.208v85.592h-9.568v-38.48h-4.056l-4.992 38.48zm10.504-54.704c0 2.358.312 4.195.936 5.512.693 1.318 2.149 1.976 4.368 1.976h3.744v-28.704h-3.64c-1.942 0-3.328.451-4.16 1.352-.832.902-1.248 2.358-1.248 4.368z" fill="#37d0e5"/><path clip-rule="evenodd" d="m296.946 404.237c-4.314-1.093-8.433-.505-12.355 1.79-5.184 3.034-7.399 7.539-6.644 13.515-4.84-3.584-9.853-3.859-15.037-.825-3.921 2.296-6.457 5.589-7.61 9.897-1.204 4.507-.584 8.837 1.85 12.995 11.209 19.151 43.471 19.477 44.929 19.16.989-1.116 16.502-29.405 5.293-48.556-2.434-4.158-5.906-6.819-10.426-7.976zm-5.062 38.385-.242 5.909-.591.515-1.491.039.025.042-.076-.04.051-.002c-1.717-2.161-3.273-2.211-3.273-2.211-2.74 7.498-17.775-4.551-17.775-4.551 16.845-9.436 18.59 2.872 18.59 2.872-2.917-1.359-8.37-1.702-8.37-1.702 3.8.547 8.521 2.844 10.969 4.153.392-3.862 1.751-14.736 5.243-22.759 0 0-5.037 6.977-5.958 17.227 0 0-16.39-11.779 9.27-26.798 0 0 9.861 32.717-6.356 27.311z" fill="#eaa3cd" fill-rule="evenodd"/><path d="m23.44 150.75h19.52c9.632 0 12.032-3.456 12.032-7.712v-.288c0-4.192-2.4-7.36-12.032-7.36h-10.432v-2.848h20.192v-5.6h-29.28zm9.088-5.76v-4.224h9.44c2.848 0 3.616.864 3.616 2.016v.096c0 1.12-.768 2.112-3.616 2.112zm24.383-18.048v23.808h26.592v-5.952h-17.632v-3.264h17.024v-5.792h-17.024v-2.976h17.376v-5.824zm48.871 16.352c8.704 0 11.296-3.648 11.296-7.968v-.512c0-4.384-2.496-7.872-11.296-7.872h-19.8397v23.808h9.088v-7.456zm-10.7517-10.4h9.6637c2.144 0 3.008.8 3.008 2.176v.096c0 1.312-.928 2.176-3.008 2.176h-9.6637zm23.9117-5.952v23.808h26.592v-5.952h-17.632v-3.264h17.024v-5.792h-17.024v-2.976h17.376v-5.824zm28.936 23.808h9.088v-17.472h16.064v-6.336h-25.152zm51.344 0h9.088v-23.808h-9.088l-14.944 14.976v-14.976h-9.088v23.808h9.088l14.944-14.944zm21.6 0h9.088v-17.312h10.272v-6.496h-29.632v6.496h10.272zm21.527-23.808v23.808h26.592v-5.952h-17.632v-3.264h17.024v-5.792h-17.024v-2.976h17.376v-5.824zm46.279 24.256c14.337 0 16.577-6.72 16.577-9.824v-.512h-9.408c-.128.544-.832 3.904-7.84 3.904-6.4 0-8-3.36-8-5.92v-.384c0-2.656 1.408-5.568 7.968-5.568 6.912 0 7.648 3.008 7.84 3.648h9.44v-.416c0-3.072-2.112-9.632-16.577-9.632h-1.247c-14.848 0-16.832 7.264-16.832 11.808v.928c0 4.512 2.208 11.968 16.832 11.968zm27.556-17.248v-7.008h-9.088v23.808h19.104c9.632 0 12.032-3.744 12.032-8.192v-.512c0-4.448-2.432-8.096-12.032-8.096zm0 10.88v-4.96h8.864c2.944 0 3.776 1.056 3.776 2.4v.096c0 1.28-.832 2.464-3.776 2.464z" fill="#eaa3cd"/><path d="m0 0h148v28h-148z" fill="#fff" transform="matrix(.99862953 .05233596 -.05233596 .99862953 106.834 148.146)"/><path d="m120.116 159.536-8.848-.463-.592 11.304 2.596.136.466-8.887 6.252.327zm12.267.643-8.988-.471-.252 4.814c-.203 3.874-.513 4.058-2.491 3.955l-.126 2.416c3.734.196 4.69-1.216 4.953-6.249l.126-2.397 4.274.224-.466 8.888 2.377.125zm7.062 12.006c3.236.17 5.793-2.38 5.966-5.695.171-3.256-2.105-6.059-5.341-6.228-3.235-.17-5.812 2.379-5.983 5.634-.174 3.316 2.123 6.12 5.358 6.289zm.13-2.476c-1.917-.101-3.097-1.665-2.992-3.662.103-1.977 1.44-3.409 3.357-3.309 1.938.102 3.077 1.664 2.974 3.641-.105 1.997-1.402 3.431-3.339 3.33zm7.972-4.609-.029.559c-.376 4.486 1.734 7.04 6.307 7.28 3.755.197 5.896-2.054 6.049-4.97.151-2.896-1.741-5.379-5.496-5.575-1.877-.099-3.857.979-4.257 2.881l-.459-.024c.456-2.961 1.945-3.864 4.968-4.226l.705-.083c2.764-.376 3.825-1.522 4.117-4.03l-2.497-.131c-.236 1.069-1.021 1.528-3.2 1.835l-.646.086c-2.66.321-5.217 2.11-5.562 6.398zm2.497 2.414c.098-1.878 1.527-2.764 3.824-2.644 1.997.105 3.584 1.149 3.489 2.967-.095 1.817-1.783 2.69-3.78 2.586-2.297-.121-3.625-1.152-3.533-2.909zm16.96-5.64c-2.157-.113-3.728.806-5.059 2.518l1.965 1.485c.813-.999 1.621-1.517 2.96-1.447 1.837.096 2.781.807 2.967 2.238l-2.916-.152c-3.496-.184-5.426 1.117-5.547 3.414-.11 2.097 1.122 3.443 3.918 3.59 2.297.12 3.881-1.078 4.529-3.888l.3.015-.6 3.814 2.456.129.324-6.172c.183-3.495-1.523-5.347-5.297-5.544zm-1.198 9.089c-1.338-.07-1.886-.699-1.847-1.438.053-1.019.957-1.452 2.875-1.352l2.836.149c-.415 1.801-1.567 2.762-3.864 2.641zm20.019-7.983-8.988-.471-.252 4.814c-.203 3.874-.513 4.058-2.49 3.955l-.127 2.416c3.735.196 4.69-1.216 4.954-6.249l.125-2.397 4.275.224-.466 8.888 2.376.125zm7.461 4.697-3.056-.16.225-4.294-2.437-.128-.592 11.305 5.492.287c3.176.167 5.461-.635 5.598-3.251.136-2.596-2.134-3.597-5.23-3.759zm-3.302 4.533.124-2.356 3.055.16c2.337.122 2.899.492 2.857 1.291-.04.759-.643 1.188-2.98 1.066zm19.834-7.972-.232 4.433-6.531-.342.232-4.434-2.357-.123-.592 11.304 2.357.124.233-4.454 6.531.342-.233 4.454 2.377.125.592-11.305zm9.44 12.13c3.235.17 5.792-2.38 5.966-5.695.17-3.256-2.106-6.059-5.342-6.228-3.235-.17-5.812 2.379-5.983 5.634-.173 3.316 2.123 6.12 5.359 6.289zm.129-2.476c-1.917-.101-3.097-1.665-2.992-3.662.103-1.977 1.44-3.409 3.358-3.309 1.937.102 3.077 1.664 2.973 3.641-.104 1.997-1.401 3.431-3.339 3.33zm16.976-8.263-8.848-.464-.592 11.305 2.596.136.466-8.888 6.251.327zm6.066 11.954c3.235.169 5.792-2.381 5.966-5.696.171-3.256-2.106-6.058-5.341-6.228-3.236-.17-5.813 2.379-5.983 5.635-.174 3.315 2.122 6.119 5.358 6.289zm.13-2.477c-1.918-.101-3.097-1.664-2.993-3.662.104-1.977 1.441-3.409 3.358-3.308 1.937.101 3.077 1.663 2.974 3.64-.105 1.997-1.402 3.432-3.339 3.33z" fill="#eaa3cd"/><path d="m0 0h202v28h-202z" fill="#fff" transform="matrix(.99862953 -.05233596 .05233596 .99862953 146.686 388.072)"/><path d="m163.482 397.887-2.656.139-2.744 4.59-3.275.171-.233-4.434-2.336.123.592 11.304 2.337-.122-.234-4.454 3.256-.171 3.229 4.297 2.657-.139-4.091-5.453zm18.257-.957-8.988.471.252 4.813c.204 3.875-.086 4.09-2.063 4.194l.127 2.417c3.735-.196 4.537-1.7 4.273-6.733l-.125-2.397 4.274-.224.466 8.888 2.376-.125zm11.923-.945c-2.836.148-4.945 2.322-5.323 5.045l-1.817.095-.233-4.434-2.357.124.593 11.304 2.357-.123-.234-4.454 1.838-.096c.661 2.689 2.985 4.61 5.801 4.462 3.236-.169 5.512-2.972 5.338-6.288-.17-3.255-2.727-5.805-5.963-5.635zm.495 9.447c-1.917.1-3.254-1.332-3.358-3.329-.104-1.978 1.076-3.541 2.993-3.642 1.937-.101 3.234 1.333 3.338 3.31.105 1.997-1.035 3.559-2.973 3.661zm7.449-5.418.029.56c.096 4.501 2.461 6.82 7.034 6.58 3.755-.196 5.649-2.659 5.496-5.575-.152-2.896-2.293-5.167-6.048-4.97-1.878.098-3.733 1.377-3.932 3.31l-.46.024c.144-2.991 1.531-4.045 4.499-4.722l.693-.156c2.709-.663 3.645-1.913 3.673-4.438l-2.497.13c-.123 1.088-.856 1.627-2.991 2.16l-.633.153c-2.612.598-4.968 2.644-4.863 6.944zm2.736 2.14c-.099-1.877 1.229-2.908 3.526-3.029 1.997-.104 3.685.769 3.781 2.586.095 1.818-1.493 2.862-3.49 2.967-2.297.12-3.725-.766-3.817-2.524zm22.745-7.601-2.637.138-5.84 8.558-.431-8.229-2.337.123.593 11.304-.019.021 2.596-.136 5.86-8.558.432 8.228 2.376-.124zm14.716-.771-2.796.147-3.019 8.509-3.911-8.146-2.797.146.594 11.325 2.377-.125-.353-6.731.598 1.091 2.391 5.502 2.497-.131 1.783-5.721.498-1.188.355 6.771 2.377-.125zm8.269 11.203c3.236-.17 5.512-2.973 5.338-6.288-.17-3.256-2.727-5.806-5.963-5.636-3.235.17-5.532 2.974-5.361 6.229.174 3.316 2.75 5.864 5.986 5.695zm-.13-2.477c-1.917.1-3.254-1.332-3.359-3.329-.103-1.977 1.077-3.541 2.994-3.641 1.937-.102 3.234 1.332 3.338 3.309.104 1.998-1.035 3.559-2.973 3.661zm19.694-10.185-2.796.147-3.019 8.51-3.912-8.147-2.796.147.594 11.324 2.376-.124-.352-6.731.598 1.09 2.391 5.502 2.496-.13 1.783-5.722.499-1.187.355 6.77 2.377-.124zm10.557-.553-1.826 9.869-1.119.059-3.047-9.614-2.576.135 3.528 11.151 2.876-.151c-.454 1.646-1.193 1.685-4.429 1.854l.125 2.377c4.394-.23 6.428-1.538 7.158-5.562l1.886-10.253zm23.039 7.705-.466-8.888-8.988.471.253 4.813c.203 3.875-.087 4.091-2.064 4.194l-1.737.091.336 6.411 2.455-.148-.208-3.975 10.545-.552.209 3.974 2.457-.109-.336-6.411zm-7.071.37c.269-.995.299-2.318.206-4.096l-.125-2.397 4.274-.224.339 6.471zm12.962-3.062 8.808-.462c-.085-3.921-2.504-6.518-5.88-6.341-3.215.169-5.695 2.922-5.525 6.158.171 3.255 2.924 5.735 6.14 5.566 2.037-.107 3.927-1.107 4.898-3.221l-1.759-1.069c-.799 1.183-1.931 1.743-3.269 1.814-1.778.093-3.032-.903-3.413-2.445zm3.056-4.366c1.498-.079 2.843.752 3.268 2.352l-6.392.335c.286-1.437 1.406-2.597 3.124-2.687zm18.087-3.271-8.988.471.252 4.813c.203 3.875-.086 4.09-2.063 4.194l.126 2.417c3.735-.196 4.538-1.7 4.274-6.733l-.126-2.397 4.274-.224.466 8.888 2.377-.125zm10.566-.554-1.826 9.869-1.118.059-3.048-9.614-2.576.135 3.528 11.151 2.876-.151c-.454 1.646-1.193 1.685-4.429 1.854l.125 2.377c4.394-.23 6.428-1.538 7.159-5.562l1.886-10.253z" fill="#4b6fb4"/></svg>