<svg fill="none" height="511" viewBox="0 0 360 511" width="360" xmlns="http://www.w3.org/2000/svg" xmlns:xlink="http://www.w3.org/1999/xlink"><clipPath id="a"><path d="m0 0h32.3037v33.1139h-32.3037z" transform="matrix(.99071289 .13597045 -.13597045 .99071289 277.702 112.908)"/></clipPath><clipPath id="b"><path d="m0 0h31.6278v43.012h-31.6278z" transform="matrix(.994764 -.102194 .102203 .994764 189 282.785)"/></clipPath><clipPath id="c"><path d="m0 0h31.6278v43.012h-31.6278z" transform="matrix(.994764 -.102194 .102203 .994764 240.358 277.51)"/></clipPath><clipPath id="d"><path d="m0 0h31.6278v43.012h-31.6278z" transform="matrix(.994764 -.102194 .102203 .994764 291.715 272.232)"/></clipPath><path d="m291.907 101.456c2.289-1.45 5.29-1.038 7.104.975l.302.336c1.205 1.338 2.984 2.009 4.773 1.8l.448-.052c2.692-.313 5.217 1.36 5.978 3.961l.126.433c.506 1.729 1.817 3.105 3.519 3.693l.427.148c2.561.885 4.11 3.489 3.667 6.162l-.074.446c-.295 1.776.29 3.585 1.568 4.853l.32.319c1.924 1.909 2.19 4.926.631 7.142l-.26.37c-1.037 1.473-1.295 3.356-.694 5.053l.151.426c.904 2.554-.165 5.389-2.531 6.709l-.395.22c-1.572.877-2.623 2.462-2.817 4.252l-.049.449c-.294 2.694-2.487 4.784-5.192 4.946l-.451.028c-1.797.108-3.431 1.08-4.383 2.608l-.239.383c-1.433 2.3-4.316 3.231-6.823 2.204l-.418-.171c-1.667-.682-3.56-.515-5.082.448l-.381.242c-2.289 1.45-5.29 1.039-7.104-.975l-.302-.335c-1.206-1.338-2.984-2.009-4.773-1.801l-.448.052c-2.692.314-5.217-1.36-5.978-3.961l-.127-.433c-.505-1.728-1.816-3.105-3.518-3.693l-.427-.148c-2.561-.885-4.11-3.488-3.667-6.162l.074-.445c.295-1.777-.29-3.586-1.568-4.854l-.32-.318c-1.924-1.909-2.19-4.927-.631-7.143l.26-.37c1.036-1.472 1.295-3.356.694-5.053l-.151-.426c-.905-2.554.165-5.389 2.531-6.709l.395-.22c1.572-.877 2.622-2.462 2.817-4.252l.049-.449c.293-2.694 2.487-4.784 5.192-4.946l.451-.027c1.797-.108 3.431-1.081 4.383-2.609l.239-.383c1.433-2.3 4.316-3.231 6.823-2.204l.418.171c1.667.683 3.56.516 5.081-.448z" fill="#f7ee75"/><g fill="#8b52d4"><g clip-path="url(#a)"><path d="m299.439 127.607c.461 1.104 1.095 2.083 1.826 2.998.099.124.229.368.18.44-.113.17-.311.33-.504.381-.337.089-.613-.111-.819-.369-.559-.7-1.106-1.409-1.655-2.117-.086-.111-.158-.233-.294-.319.059.116.105.241.179.346.534.764 1.067 1.53 1.616 2.283.208.285.205.488-.097.67-.268.161-.524.294-.827-.004-1.147-1.128-2.217-2.31-2.857-3.833-.059-.141-.1-.294-.125-.445-.045-.265-.065-.53.219-.693.3-.174.601-.221.875.03.171.157.317.342.515.561-.061-.291-.122-.527-.158-.767-.048-.324-.026-.626.329-.782.302-.133.542-.051.81.298.049.064.07.15.105.225.029-.016.058-.032.087-.048-.041-.21-.127-.424-.108-.629.019-.216.083-.486.227-.618.21-.192.517-.164.749.018.209.164.384.372.574.558-.062-.316-.136-.642-.188-.972-.048-.315.077-.582.343-.73.367-.205.746-.407 1.142-.534.639-.207 1.282-.087 1.71.422.641.762 1.198 1.601 1.762 2.427.095.14.054.378.074.552.533-.24 1.096-.524 1.681-.747.323-.124.679-.172 1.025-.207.342-.034.588.16.581.511-.006.319-.054.702-.233.941-.321.428-.743.78-1.144 1.14-.164.147-.382.23-.576.34-1.357.768-1.902 1.91-1.546 3.452.176.758.465 1.494.762 2.215.322.781.262 1.54-.123 2.241-.434.79-.957 1.531-1.459 2.281-.602.898-1.223 1.784-1.836 2.675-.143.208-.286.431-.583.376-.314-.058-.36-.332-.42-.591-.664-2.828-1.345-5.653-2.465-8.337-.119-.284-.287-.55-.386-.84-.087-.255-.109-.533-.16-.802.04-.016.079-.033.118-.049.09.084.187.162.269.253.496.548 1.235.581 1.636.007.075-.108.283-.168.43-.166.47.005.792-.163.998-.627.074-.167.312-.307.502-.364.513-.152.723-.428.647-.982.159.05.307.115.462.142.365.064.776-.14.899-.473.051-.137.059-.365-.019-.461-.773-.951-1.346-2.026-1.905-3.111-.018-.035-.048-.063-.142-.054.246.506.464 1.027.744 1.512.331.571.703 1.119 1.08 1.661.148.212.127.375-.038.534-.252.242-.549.266-.843.109-.151-.081-.296-.198-.402-.333-.591-.75-1.169-1.51-1.751-2.267-.06-.079-.113-.163-.192-.229.484 1.044 1.04 2.043 1.752 2.942.276.347.18.67-.249.79-.375.104-.675-.054-.899-.335-.609-.765-1.201-1.544-1.798-2.319-.042-.054-.073-.117-.109-.175z"/><path d="m289.108 124.15c.04-.159.082-.319.118-.479.151-.681-.135-1.138-.785-1.316-.15-.041-.324-.161-.396-.296-.233-.44-.548-.636-1.053-.58-.167.019-.39-.121-.523-.255-.387-.387-.764-.434-1.154-.061-.027-.131-.049-.242-.073-.353-.081-.375-.312-.61-.668-.701-.255-.065-.485-.014-.624.259-.551 1.079-1.106 2.157-1.66 3.235-.021.041-.042.081-.015.162.133-.18.27-.355.396-.539.135-.196.276-.389.385-.6.357-.698.71-1.399 1.045-2.109.106-.224.253-.261.454-.211.414.101.637.54.472 1.072-.222.717-.492 1.419-.76 2.121-.122.321-.286.625-.37.974.248-.418.52-.824.739-1.257.306-.605.587-1.224.849-1.85.111-.264.267-.31.496-.242.387.115.597.527.452 1.024-.191.652-.429 1.29-.669 1.926-.142.375-.326.734-.444 1.13.064-.091.142-.173.189-.272.464-.978.932-1.954 1.378-2.941.158-.349.362-.438.676-.223.31.211.425.577.269 1.058-.215.658-.46 1.305-.708 1.95-.132.342-.298.669-.448 1.003.025.014.05.027.075.041.245-.485.507-.962.731-1.458.22-.489.403-.994.599-1.495.116-.298.282-.373.569-.244.311.14.498.497.399.904-.349 1.433-.798 2.83-1.612 4.071-.148.226-.345.423-.54.611-.176.169-.388.289-.635.144-.251-.148-.478-.341-.431-.673.039-.29.14-.572.215-.865-.195.18-.387.376-.599.547-.241.196-.503.317-.791.078-.281-.234-.298-.517-.16-.836.035-.081.057-.169.112-.342-.201.192-.33.327-.471.445-.196.165-.416.301-.672.158-.267-.15-.411-.403-.37-.714.035-.265.128-.522.197-.787-.235.218-.447.464-.706.636-.17.113-.422.19-.615.156-.775-.133-1.697-1.074-1.729-1.858-.02-.506.115-1.041.281-1.528.199-.584.499-1.133.767-1.693.13-.272.289-.53.709-.541-.355-.235-.674-.4-.938-.631-.44-.383-.883-.776-1.254-1.226-.345-.419-.206-.887.318-1.028.411-.111.889-.132 1.297-.029.487.122.953.378 1.389.645 1.371.84 2.521.79 3.722-.297.521-.472 1.024-1.007 1.395-1.603.564-.906 1.362-1.285 2.329-1.267 1.165.023 2.327.156 3.49.248.721.057 1.441.129 2.162.186.248.02.515.067.538.346.014.188-.094.437-.228.58-1.665 1.785-3.359 3.54-5.01 5.339-.501.546-.878 1.21-1.333 1.802-.186.241-.43.436-.647.651-.041-.034-.082-.067-.122-.1z"/><path d="m291.477 139.022c.247.087.407.137.563.198.236.094.459.217.468.515.009.313-.132.569-.416.691-.255.108-.531.163-.768.232.3.099.628.195.946.318.277.107.446.348.428.638-.03.508-.044 1.039-.202 1.514-.299.896-1.075 1.18-1.908 1.294-.624.086-1.254.147-1.883.172-.266.01-.537-.098-.837-.16.001-.006.003.092-.012.186-.125.787-.188 1.592-.4 2.354-.2.719-.771.799-1.271.244-.477-.529-.605-1.195-.635-1.886-.017-.381.012-.765-.004-1.146-.055-1.342-.76-2.221-1.965-2.62-.767-.254-1.584-.375-2.388-.483-.613-.083-1.133-.31-1.522-.777-.298-.359-.57-.759-.769-1.182-.724-1.544-1.414-3.105-2.117-4.66-.098-.218-.212-.437-.019-.666.196-.234.427-.167.675-.103 2.328.592 4.653 1.195 6.99 1.748.699.165 1.435.166 2.15.27.296.042.58.159.869.242l-.014.146c-.136.043-.272.088-.408.13-.727.223-.962.668-.783 1.411.037.152-.002.361-.083.497-.249.421-.242.789.043 1.194.098.14.094.407.048.592-.134.53-.013.853.495 1.087-.086.075-.162.139-.234.207-.321.303-.428.772-.198 1.101.098.139.329.29.471.265 1.161-.209 2.324-.198 3.49-.147.022.001.045-.009.129-.026-.103-.042-.156-.078-.213-.084-1.105-.112-2.212-.171-3.313.048-.297.059-.415-.074-.468-.328-.085-.403.17-.793.658-.909.647-.154 1.305-.267 1.961-.375.388-.064.783-.086 1.174-.126 0-.03 0-.061 0-.091-.664.006-1.328-.004-1.991.025-.442.019-.883.083-1.322.143-.338.045-.519-.115-.504-.476.014-.358.276-.676.723-.77.743-.155 1.493-.274 2.242-.394.31-.051.626-.067.938-.098-.001-.035-.002-.069-.004-.102-.869.045-1.738.08-2.605.14-.337.024-.67.096-1.004.154-.333.057-.506-.084-.511-.43-.005-.383.249-.712.715-.812.742-.158 1.491-.285 2.241-.396.447-.066.901-.075 1.351-.182-.847.049-1.694.087-2.539.152-.372.029-.739.114-1.107.177-.294.05-.453-.083-.47-.401-.022-.414.238-.746.744-.862.843-.194 1.687-.397 2.541-.514.584-.08 1.186-.03 1.78-.019.17.004.343.066.508.122.242.082.458.209.458.514.001.331-.089.627-.425.754-.216.081-.446.122-.768.208.217.068.367.097.502.161.208.099.442.182.598.341.272.276.099.773-.298.92-.136.05-.284.066-.523.12z"/><path d="m275.376 129.848c.286-1.649.944-2.932 1.802-4.119.051-.071.257-.11.332-.064 1.95 1.205 3.894 2.419 5.834 3.64.34.213.376.487.112.807-.883 1.068-1.613 2.228-2.098 3.541-.111.301-.34.369-.627.29-1.314-.368-2.613-.806-3.945-1.083-1.133-.236-1.25-1.102-1.399-1.979-.067-.392-.011-.807-.011-1.033z"/><path d="m296.532 124.057c-.126-.177-.269-.335-.362-.519-.47-.94-.917-1.893-1.394-2.828-.127-.25-.33-.458-.502-.684-.186-.245-.183-.481.036-.703 1.113-1.129 2.222-2.262 3.35-3.376.124-.122.356-.184.538-.186.964-.008 1.791.373 2.515.997 1.082.934 1.796 2.136 2.375 3.439.112.253-.06.309-.214.395-1.303.727-2.607 1.455-3.91 2.181-.657.366-1.313.733-1.971 1.094-.12.066-.254.106-.46.191z"/><path d="m295.895 138.207c1.103.139 2.207.175 3.31-.023.382-.068.546.039.653.455.342 1.325.623 2.669 1.029 3.973.252.81-.021 1.354-.543 1.88-.859.867-1.936 1.254-3.094 1.371-.83.084-1.674.032-2.511.041-.233.003-.322-.098-.314-.348.074-2.256.133-4.512.206-6.768.021-.653.153-.75.779-.648.161.026.323.044.485.066z"/></g><path d="m37.312 107h9.056v-23.808h-9.056v9.376c-1.536.352-3.52.48-5.312.48-4.096 0-6.432-.64-6.432-4.256v-5.6h-9.088v6.752c0 7.2 4.576 9.44 13.312 9.44 3.456 0 5.824-.288 7.52-.64zm12.0365-23.808v23.808h26.592v-5.952h-17.632v-3.264h17.024v-5.792h-17.024v-2.976h17.376v-5.824zm50.5033 23.808h9.0882v-23.808h-27.2002c0 12.384-.32 15.008-1.216 16.16-.544.736-1.28.864-2.56.864h-.48v6.784h2.944c4.352 0 6.368-1.024 7.648-3.168 1.28-2.048 1.92-5.056 1.92-14.528h9.856zm28.6352-24.256c-15.424 0-17.376 7.328-17.376 11.808v.96c0 4.448 1.952 11.936 17.376 11.936h1.44c15.392 0 17.344-7.488 17.344-11.936v-.96c0-4.48-1.984-11.808-17.344-11.808zm9.376 12.48c0 2.56-1.632 5.792-8.672 5.792s-8.672-3.36-8.672-5.856v-.384c0-2.528 1.504-5.632 8.672-5.632 7.04 0 8.672 3.104 8.672 5.632zm11.486 11.776h22.528c7.776 0 10.048-3.136 10.048-6.88v-.384c0-4.192-3.36-5.6-5.472-6.112 1.568-.352 4.096-1.696 4.096-4.672v-.352c0-2.72-1.856-5.408-8.8-5.408h-22.4zm19.648-18.4c1.888 0 2.432.704 2.432 1.632v.064c0 .896-.544 1.664-2.432 1.664h-10.56v-3.36zm.576 8.704c2.336 0 2.816.928 2.816 1.952v.096c0 .928-.448 2.048-2.816 2.048h-11.136v-4.096zm14.088-14.112v23.808h26.592v-5.952h-17.632v-3.264h17.024v-5.792h-17.024v-2.976h17.376v-5.824zm49.639 23.808h11.84l-14.304-12.992 13.856-10.816h-11.296l-11.712 9.408v-9.408h-9.088v23.808h9.088v-10.656zm21.912-11.808v4.544h27.328v-4.544z"/><path d="m37.312 147h9.056v-23.808h-9.056v9.376c-1.536.352-3.52.48-5.312.48-4.096 0-6.432-.64-6.432-4.256v-5.6h-9.088v6.752c0 7.2 4.576 9.44 13.312 9.44 3.456 0 5.824-.288 7.52-.64zm31.7165-9.792h-7.904l3.904-8.192zm4.768 9.792h9.952l-12.448-23.808h-12.224l-11.776 23.808h9.216l1.824-3.84h13.6zm25.832.448c14.3365 0 16.5765-6.72 16.5765-9.824v-.512h-9.408c-.128.544-.832 3.904-7.8405 3.904-6.4 0-8-3.36-8-5.92v-.384c0-2.656 1.408-5.568 7.968-5.568 6.9125 0 7.6485 3.008 7.8405 3.648h9.44v-.416c0-3.072-2.112-9.632-16.5765-9.632h-1.248c-14.848 0-16.832 7.264-16.832 11.808v.928c0 4.512 2.208 11.968 16.832 11.968zm27.6935-.448h9.088v-17.312h10.272v-6.496h-29.632v6.496h10.272zm30.519-16.8v-7.008h-9.088v23.808h19.104c9.632 0 12.032-3.744 12.032-8.192v-.512c0-4.448-2.432-8.096-12.032-8.096zm0 10.88v-4.96h8.864c2.944 0 3.776 1.056 3.776 2.4v.096c0 1.28-.832 2.464-3.776 2.464z"/><path d="m17.44 187h9.088v-17.472h13.792v17.472h9.056v-23.808h-31.936zm54.7485-7.456c8.704 0 11.296-3.648 11.296-7.968v-.512c0-4.384-2.496-7.872-11.296-7.872h-19.84v23.808h9.088v-7.456zm-10.752-10.4h9.664c2.144 0 3.008.8 3.008 2.176v.096c0 1.312-.928 2.176-3.008 2.176h-9.664zm47.8485 17.856h9.088v-23.808h-9.088l-14.9445 14.976v-14.976h-9.088v23.808h9.088l14.9445-14.944zm31.904-7.456c8.704 0 11.296-3.648 11.296-7.968v-.512c0-4.384-2.496-7.872-11.296-7.872h-19.84v23.808h9.088v-7.456zm-10.752-10.4h9.664c2.144 0 3.008.8 3.008 2.176v.096c0 1.312-.928 2.176-3.008 2.176h-9.664zm40.488-6.4c-15.424 0-17.376 7.328-17.376 11.808v.96c0 4.448 1.952 11.936 17.376 11.936h1.44c15.392 0 17.343-7.488 17.343-11.936v-.96c0-4.48-1.983-11.808-17.343-11.808zm9.376 12.48c0 2.56-1.632 5.792-8.673 5.792-7.039 0-8.671-3.36-8.671-5.856v-.384c0-2.528 1.504-5.632 8.671-5.632 7.041 0 8.673 3.104 8.673 5.632zm9.14 5.44v10.496h8.544v-4.16h19.232v4.16h8.544v-10.496h-3.84v-17.472h-27.68c0 10.496-.288 14.848-1.664 17.472zm11.552 0c1.024-2.016 1.44-6.368 1.44-11.136h10.4v11.136zm35.441-10.464v-7.008h-9.088v23.808h19.104c9.632 0 12.032-3.744 12.032-8.192v-.512c0-4.448-2.432-8.096-12.032-8.096zm0 10.88v-4.96h8.864c2.944 0 3.776 1.056 3.776 2.4v.096c0 1.28-.832 2.464-3.776 2.464zm32.928-17.888h-9.056v23.808h9.056z"/><path d="m180.1 164.886c-.513-6.823 6.402-8.055 6.402-8.055-6.271 4.205-4.094 8.762-4.094 8.762zm17.768-10.671-9.535 2.762c5.848 13.47 18.993-4.759 18.993-4.759-20.922-10.046-19.262 2.677-19.262 2.677l9.805-.674zm-16.217-4.259 2.912 5.842c8.033-5.32-5.321-11.727-5.321-11.727-4.037 14.666 4.001 12.14 4.001 12.14z"/></g><path d="m27.336 329.376c0 3.328 1.2827 4.992 3.848 4.992 2.7733 0 4.16-1.629 4.16-4.888v-25.272h-14.248v-9.568h14.248v-23.504c0-3.328-1.3867-4.992-4.16-4.992-2.5653 0-3.848 1.629-3.848 4.888v14.768h-8.84v-14.768c0-9.707 4.264-14.56 12.792-14.56 9.2213 0 13.832 4.923 13.832 14.768v58.24c0 9.637-4.6453 14.456-13.936 14.456-4.576 0-7.8347-1.179-9.776-3.536-1.9413-2.427-2.912-6.136-2.912-11.128v-16.432h8.84zm46.0273 13.624c-2.1493-7.141-4.1947-14.075-6.136-20.8-1.9413-6.795-3.9173-13.659-5.928-20.592.1387 3.536.208 7.176.208 10.92v12.48 17.992h-9.672v-85.592h9.672v17.68 10.608c0 2.773-.0693 5.477-.208 8.112 1.9413-6.309 3.8827-12.411 5.824-18.304 1.9413-5.963 3.9173-11.995 5.928-18.096h10.296l-13.728 38.584 14.768 47.008zm12.788-71.968c0-9.707 4.5413-14.56 13.624-14.56 9.1517 0 13.7277 4.853 13.7277 14.56v58.344c0 9.707-4.576 14.56-13.7277 14.56-9.0827 0-13.624-4.853-13.624-14.56zm17.7837 0c0-3.259-1.386-4.888-4.1597-4.888-2.704 0-4.056 1.629-4.056 4.888v58.344c0 3.328 1.352 4.992 4.056 4.992 2.7737 0 4.1597-1.664 4.1597-4.992z" fill="#ece9c6"/><path d="m0 0h172.95v28h-172.95z" fill="#f7ee75" transform="matrix(.9961947 -.08715574 .08715574 .9961947 105.508 240.68)"/><path d="m127.616 258.401.56 6.395-2.452.195-.347-3.965-10.52.92.347 3.965-2.449.235-.56-6.396 1.734-.152c.73-.064 1.229-.181 1.495-.351.279-.172.448-.535.507-1.089.058-.554.03-1.495-.087-2.823l-.42-4.802 8.966-.784.776 8.866zm-4.821.422-.565-6.456-4.264.373.21 2.391c.081.93.117 1.73.109 2.4.004.655-.054 1.222-.172 1.701zm11.717 1.705c-1.049.092-2.029-.09-2.938-.546-.91-.456-1.658-1.12-2.243-1.992-.571-.874-.905-1.855-1-2.944-.094-1.076.065-2.087.478-3.033.425-.948 1.047-1.725 1.863-2.332.817-.607 1.75-.956 2.8-1.048 1.049-.092 2.029.09 2.939.546.909.456 1.65 1.114 2.22 1.974s.903 1.829.997 2.904c.095 1.09-.063 2.114-.474 3.073-.411.96-1.025 1.743-1.842 2.35s-1.75.956-2.8 1.048zm-.216-2.471c.957-.083 1.692-.476 2.206-1.176.513-.715.725-1.576.637-2.586-.088-1.009-.446-1.814-1.074-2.415-.629-.601-1.421-.86-2.377-.776-.943.082-1.678.481-2.204 1.197-.528.701-.748 1.551-.661 2.547.089 1.009.454 1.82 1.097 2.433.641.6 1.433.859 2.376.776zm18.455.574-2.371.207-.776-8.866-4.263.373.209 2.391c.152 1.74.141 3.073-.032 3.998-.173.926-.569 1.609-1.186 2.051-.617.443-1.556.719-2.818.829l-.211-2.411c.73-.064 1.229-.181 1.495-.351.279-.172.448-.535.507-1.089.059-.553.03-1.495-.086-2.823l-.42-4.801 8.965-.785zm17.623-12.905-3.292 5.97 4.279 5.307-2.67.233-3.377-4.181-1.494.131.388 4.443-2.331.204-.388-4.443-1.495.13-2.6 4.705-2.65.232 3.293-5.97-4.279-5.307 2.65-.232 3.355 4.163 1.515-.132-.387-4.423 2.331-.204.387 4.423 1.514-.133 2.582-4.682zm4.111 6.185c.216.784.63 1.391 1.243 1.819.625.414 1.376.582 2.253.505 1.408-.123 2.476-.765 3.204-1.926l1.795 1.007c-.432 1.028-1.072 1.827-1.919 2.397-.847.569-1.801.9-2.864.993-1.049.092-2.042-.082-2.977-.523-.936-.453-1.709-1.101-2.318-1.945-.597-.858-.942-1.818-1.035-2.881-.093-1.062.08-2.061.52-2.996.454-.937 1.103-1.703 1.948-2.299.843-.609 1.789-.96 2.839-1.051 1.115-.098 2.123.095 3.022.578.899.484 1.618 1.211 2.158 2.181.539.956.844 2.081.917 3.373zm2.901-4.47c-.823.072-1.506.373-2.049.902-.53.515-.857 1.146-.979 1.893l6.376-.558c-.228-.77-.653-1.348-1.276-1.735-.611-.402-1.301-.569-2.072-.502zm16.194-3.745 2.371-.208.987 11.277-2.371.208-.389-4.443-6.515.57.388 4.443-2.351.205-.986-11.277 2.351-.205.387 4.423 6.515-.57zm14.745 2.845c-.121-1.997.256-3.582 1.13-4.756.887-1.189 2.049-1.973 3.488-2.353l.627-.175c1.058-.307 1.793-.619 2.207-.936.426-.332.662-.774.707-1.327l2.491-.218c.032 1.282-.216 2.274-.744 2.976-.515.688-1.439 1.217-2.772 1.588l-.687.18c-1.033.278-1.861.605-2.484.981-.609.374-1.068.869-1.375 1.485-.308.616-.465 1.419-.472 2.41l.458-.04c.04-.619.238-1.178.596-1.678.37-.514.836-.923 1.398-1.226.576-.305 1.183-.485 1.82-.541 1.209-.106 2.265.036 3.169.425.918.388 1.63.962 2.138 1.72.522.758.825 1.628.911 2.611s-.062 1.893-.443 2.729c-.369.835-.971 1.524-1.807 2.065-.823.541-1.839.864-3.047.97-2.272.198-4.016-.238-5.234-1.309-1.22-1.085-1.895-2.759-2.026-5.023zm2.809 2.043c.076.864.453 1.507 1.133 1.929.691.408 1.615.561 2.77.46 1.05-.091 1.892-.406 2.528-.944.647-.551.933-1.266.856-2.142-.077-.877-.481-1.524-1.214-1.942-.72-.432-1.605-.602-2.654-.511-1.169.103-2.052.421-2.647.955-.596.534-.853 1.266-.772 2.195zm17.083-3.602c1.673-.147 3.012.011 4.016.472 1.018.459 1.58 1.3 1.687 2.522.205 2.351-1.492 3.684-5.091 3.999l-5.479.479-.987-11.276 2.431-.213.375 4.284zm6.658-4.899 2.491-.218.986 11.277-2.49.218zm-6.249 9.581c1.103-.097 1.851-.262 2.246-.498.407-.236.593-.56.557-.972-.024-.279-.13-.49-.316-.635-.174-.145-.476-.239-.909-.282-.418-.043-1.013-.031-1.783.036l-3.049.267.206 2.351zm21.96-10.956.211 2.411-4.443.389.776 8.866-2.332.204-.775-8.866-4.463.39-.211-2.411zm7.847 3.63c1.674-.146 3.013.011 4.017.472 1.017.46 1.579 1.301 1.686 2.523.206 2.351-1.491 3.684-5.091 3.998l-5.479.48-.986-11.277 2.43-.213.375 4.284zm.41 4.682c1.103-.096 1.851-.262 2.245-.497.408-.237.594-.561.558-.973-.025-.278-.13-.49-.317-.634-.173-.146-.476-.24-.908-.282-.419-.044-1.013-.032-1.784.035l-3.048.267.206 2.351z" fill="#8b52d4"/><path d="m0 0h188v28h-188z" fill="#f7ee75" transform="matrix(.9961947 -.08715574 .08715574 .9961947 16 220.406)"/><path d="m33.1489 229.627.9883 11.297-2.3709.208-.7182-8.209-5.5578 8.758-2.5902.226.0182-.021-.9866-11.277 2.3311-.204.7182 8.208 5.5379-8.756zm18.2117-1.593.9866 11.277-2.371.207-.7757-8.866-6.5151.57.7757 8.866-2.351.206-.9866-11.277zm8.6647 10.906c-1.0493.092-2.0289-.09-2.9387-.546-.9099-.455-1.6573-1.119-2.2422-1.992-.5716-.873-.9051-1.855-1.0004-2.944-.0941-1.076.065-2.087.4775-3.033.4257-.947 1.047-1.724 1.8639-2.331s1.75-.956 2.7993-1.048 2.0289.09 2.9388.546c.9098.455 1.65 1.113 2.2205 1.974.5704.86.9027 1.828.9969 2.904.0953 1.089-.0627 2.113-.474 3.073-.4113.959-1.0254 1.742-1.8423 2.349-.8168.607-1.7499.956-2.7993 1.048zm-.2161-2.47c.9563-.084 1.6916-.476 2.2058-1.177.5131-.714.7254-1.576.6371-2.585-.0883-1.01-.4465-1.815-1.0746-2.416s-1.4203-.859-2.3767-.776c-.943.083-1.6777.482-2.2041 1.197-.5274.702-.7476 1.551-.6605 2.547.0884 1.01.4538 1.821 1.0963 2.434.6414.6 1.4336.858 2.3767.776zm21.4354-2.117.5595 6.396-2.4524.194-.3468-3.964-10.5198.92.3468 3.965-2.4489.234-.5595-6.395 1.7334-.152c.7305-.064 1.2289-.181 1.495-.352.2795-.171.4485-.534.5071-1.088s.0298-1.495-.0864-2.823l-.4201-4.802 8.9658-.784.7757 8.866zm-4.8216.422-.5648-6.455-4.2637.373.2092 2.391c.0813.93.1179 1.729.1096 2.399.0038.656-.0537 1.223-.1724 1.702zm18.0671.849-2.9089.254-3.4802-3.751-2.7759 4.299-2.869.251 3.87-6.021-.0436-.498-4.4345-4.791 2.9288-.257 3.0165 3.27 2.4028-3.744 2.889-.252-3.5169 5.467.0436.498zm6.6869-.284c-1.05.092-2.0292-.09-2.939-.546-.9099-.456-1.6573-1.12-2.2422-1.992-.5716-.874-.9051-1.855-1.0004-2.944-.0941-1.076.065-2.087.4775-3.033.4257-.948 1.047-1.725 1.8639-2.332.8169-.606 1.75-.956 2.7992-1.048 1.049-.091 2.029.091 2.939.546.91.456 1.65 1.114 2.22 1.974.571.861.903 1.829.997 2.905.096 1.089-.062 2.113-.474 3.073-.411.959-1.025 1.742-1.842 2.349s-1.75.956-2.799 1.048zm-.216-2.471c.956-.083 1.691-.475 2.205-1.176.513-.714.726-1.576.638-2.586-.089-1.009-.447-1.814-1.075-2.415s-1.42-.86-2.377-.776c-.9428.083-1.6775.481-2.2039 1.197-.5274.702-.7476 1.551-.6605 2.547.0884 1.009.4538 1.821 1.0963 2.434.6414.599 1.4341.858 2.3771.775zm21.435-2.116.56 6.396-2.453.194-.347-3.965-10.52.921.347 3.965-2.449.234-.559-6.396 1.733-.151c.731-.064 1.229-.181 1.495-.352.28-.172.449-.534.507-1.088.059-.554.03-1.495-.086-2.824l-.42-4.801 8.966-.785.775 8.867zm-4.822.422-.564-6.455-4.264.373.209 2.391c.081.929.118 1.729.11 2.399.003.656-.054 1.223-.173 1.702zm22.237-10.879-3.292 5.969 4.279 5.307-2.65.232-3.377-4.181-3.248.284.389 4.443-2.331.204-.987-11.277 2.331-.204.387 4.423 3.268-.286 2.581-4.683zm15.841-1.386 2.371-.208.987 11.277-2.371.208-.389-4.444-6.515.57.389 4.444-2.351.205-.987-11.277 2.351-.205.387 4.423 6.515-.57zm7.484 5.89c.215.784.63 1.39 1.243 1.818.625.414 1.376.583 2.252.506 1.408-.123 2.477-.765 3.205-1.927l1.794 1.008c-.432 1.028-1.071 1.827-1.918 2.396s-1.802.901-2.864.994c-1.05.091-2.042-.083-2.977-.523-.937-.453-1.709-1.102-2.319-1.945-.597-.858-.942-1.818-1.035-2.881s.081-2.062.521-2.997c.454-.936 1.103-1.702 1.947-2.298.844-.609 1.79-.96 2.839-1.052 1.116-.097 2.123.096 3.022.579.899.484 1.619 1.21 2.159 2.18.538.957.844 2.081.917 3.373zm2.901-4.47c-.823.072-1.507.373-2.049.902-.531.515-.857 1.146-.979 1.892l6.376-.557c-.228-.77-.654-1.349-1.276-1.736-.611-.401-1.302-.568-2.072-.501zm19.82-4.063.988 11.297-2.371.207-.591-6.754-.456 1.205-1.583 5.779-2.49.218-2.582-5.415-.636-1.069.588 6.714-2.371.208-.988-11.297 2.789-.244 4.194 8.005 2.719-8.61zm13.101-1.146-1.527 10.312c-.19 1.342-.552 2.411-1.085 3.207-.531.809-1.268 1.409-2.211 1.8-.942.403-2.163.671-3.664.802l-.208-2.371c1.249-.109 2.123-.213 2.623-.31.502-.084.882-.251 1.141-.501.26-.237.46-.636.598-1.197l-2.869.251-3.916-11.02 2.571-.225 3.381 9.501 1.115-.097 1.481-9.927z" fill="#8b52d4"/><path d="m16.936 437v-9.568h1.248c1.1093 0 2.0453-.243 2.808-.728.7627-.555 1.456-1.907 2.08-4.056.2773-.971.5547-2.253.832-3.848s.52-3.709.728-6.344c.2773-2.635.5547-5.893.832-9.776.2773-3.952.5547-8.805.832-14.56l1.872-36.712h22.568v85.592h-9.568v-75.92h-5.2l-1.56 28.704c-.3467 5.755-.6933 10.712-1.04 14.872-.2773 4.091-.5893 7.592-.936 10.504-.3467 2.843-.6933 5.165-1.04 6.968s-.6587 3.259-.936 4.368c-.9707 3.467-2.3573 6.101-4.16 7.904-1.7333 1.733-4.3333 2.6-7.8 2.6zm40.6762-71.968c0-9.707 4.5413-14.56 13.624-14.56 9.152 0 13.728 4.853 13.728 14.56v58.344c0 9.707-4.576 14.56-13.728 14.56-9.0827 0-13.624-4.853-13.624-14.56zm17.784 0c0-3.259-1.3867-4.888-4.16-4.888-2.704 0-4.056 1.629-4.056 4.888v58.344c0 3.328 1.352 4.992 4.056 4.992 2.7733 0 4.16-1.664 4.16-4.992zm39.8598-13.624v9.672h-13.936v75.92h-9.6722v-85.592zm4.728 85.592v-85.592h8.736v53.976l7.488-53.976h11.128v85.592h-8.84v-54.912l-9.256 54.912zm51.273 0v-35.984c-.555.208-1.352.416-2.392.624-.971.208-2.046.312-3.224.312-3.744 0-6.691-1.213-8.84-3.64-2.15-2.427-3.224-6.067-3.224-10.92v-35.984h9.672v35.672c0 2.011.312 3.501.936 4.472.624.901 1.802 1.352 3.536 1.352.762 0 1.386-.069 1.872-.208.554-.208 1.109-.451 1.664-.728v-40.56h9.672v85.592zm34.862 0v-38.792h-8.112v38.792h-9.568v-85.592h9.568v37.232h8.112v-37.232h9.568v85.592zm50.753 0v-85.592h9.568v85.592zm-24.232-85.592v37.232h4.056c5.131 0 8.875 1.213 11.232 3.64s3.536 6.344 3.536 11.752v17.472c0 5.408-1.213 9.36-3.64 11.856-2.357 2.427-6.101 3.64-11.232 3.64h-13.624v-85.592zm9.36 52.208c0-3.744-1.768-5.616-5.304-5.616h-4.056v29.432h3.952c3.605 0 5.408-1.941 5.408-5.824zm63.358 33.384v-24.96c0-5.616.035-11.197.104-16.744s.173-11.128.312-16.744c-.485 3.536-1.005 7.141-1.56 10.816-.485 3.675-1.04 7.8-1.664 12.376-.555 4.507-1.213 9.637-1.976 15.392-.693 5.685-1.525 12.307-2.496 19.864h-8.32l-7.488-58.448c.139 5.616.243 11.197.312 16.744s.104 11.128.104 16.744v24.96h-8.84v-85.592h12.792c1.04 9.707 1.941 17.888 2.704 24.544.763 6.587 1.421 12.272 1.976 17.056.555 4.715 1.005 8.736 1.352 12.064.416 3.328.797 6.517 1.144 9.568.347-2.981.728-6.136 1.144-9.464.416-3.397.901-7.453 1.456-12.168.555-4.784 1.213-10.504 1.976-17.16s1.664-14.803 2.704-24.44h13.104v85.592z" fill="#ece9c6"/><g clip-path="url(#b)" fill="#8b52d4"><path d="m202.948 300.48c-.551-1.176-1.026-2.392-1.674-3.516-.823-1.431-1.888-2.736-2.668-4.188-1.395-2.592-1.582-5.361-.817-8.189.068-.253.415-.437.633-.655.185.237.491.453.535.713.295 1.72.908 3.319 1.943 4.734.693.948 1.505 1.817 2.304 2.687.147.161.489.154.742.225.054-.252.206-.528.149-.754-.385-1.511-1.033-2.953-1.078-4.551-.052-1.873.534-3.591 1.262-5.286.041-.096.108-.205.195-.258.205-.121.428-.21.644-.312.105.214.305.429.298.642-.022.854-.167 1.71-.157 2.562.016 1.403.439 2.658 1.374 3.795.692.842 1.149 1.862 1.711 2.803.093.156.188.31.398.433.01-.505-.054-1.024.047-1.513.266-1.298.449-2.643.959-3.856.464-1.102 1.497-1.855 2.721-2.226.194-.059.568.058.674.211.109.159.09.534-.038.693-1.628 2.039-1.149 4.157-.308 6.267.616 1.547 1.322 3.061 1.994 4.588.207.469.598.548.914.158.521-.64.943-1.364 1.522-1.946.528-.531 1.201-.932 1.835-1.358.084-.056.39.037.447.139.092.16.112.395.074.583-.251 1.215-.599 2.416-.764 3.641-.104.774.021 1.582.102 2.368.191 1.86.349 3.712-.035 5.575-.045.218.091.601.266.691.167.086.571-.035.736-.193.681-.651 1.427-1.179 2.369-1.386.204-.044.54-.011.638.114.127.162.123.461.085.687-.029.174-.169.358-.31.486-1.57 1.421-1.944 3.297-2.078 5.215-.124 1.769-.506 3.464-1.025 5.162-.572 1.868-1.506 3.54-2.81 4.979-2.748 3.031-6.159 4.127-10.219 2.948-1.038-.302-2.085-.592-3.088-.98-.627-.243-1.175-.668-1.767-.998-2.01-1.117-3.387-2.79-4.346-4.769-.407-.839-.499-1.817-.82-2.702-.73-2.015-1.465-4.032-2.298-6.007-.404-.954-1.003-1.839-1.582-2.714-.253-.381-.685-.651-1.023-.984-.152-.149-.315-.309-.4-.495-.25-.542.031-.935.627-.806.993.214 1.977.484 2.946.781 1.499.459 2.708 1.308 3.604 2.566.099.139.454.275.549.213.207-.139.441-.396.458-.619.12-1.541-.352-2.906-1.357-4.112-.8-.959-1.883-1.514-2.973-2.088-.986-.52-1.709-1.343-2.086-2.338-.757-2.005-.766-4.117-.608-6.223.017-.228.297-.587.497-.616.196-.029.542.235.655.453.503.968.883 2.003 1.437 2.942.34.576.852 1.099 1.393 1.517 1.702 1.31 3.472 2.539 5.179 3.842.472.36.822.868 1.228 1.307l.188-.083zm5.653 17.815c2.766-.334 5.016-1.53 6.67-3.726.485-.642.486-.842-.117-1.356-1.137-.967-2.413-1.629-3.911-2.035-2.442-.662-4.737-.288-6.932.708-1.33.604-2.369 1.657-3.242 2.83-.359.48-.303.826.133 1.218 2.087 1.881 4.571 2.601 7.399 2.361z"/><path d="m207.246 317.424c-2.103-.063-3.824-.904-5.465-2.165 1.317-1.595 2.847-2.71 4.838-3.222-.888.787-1.456 1.721-1.303 2.877.152 1.134.813 1.992 1.929 2.509z"/><path d="m209.7 317.202c2.253-2.127 1.63-4.162-.55-5.431.222-.023.358-.062.487-.047 1.675.19 3.123.903 4.497 1.79.441.285.451.568.086.928-1.198 1.177-2.503 2.196-4.164 2.704-.094.029-.196.032-.356.056z"/></g><g clip-path="url(#c)" fill="#8b52d4"><path d="m254.306 295.204c-.551-1.176-1.026-2.392-1.674-3.515-.824-1.431-1.889-2.737-2.668-4.188-1.395-2.592-1.583-5.361-.818-8.189.069-.253.415-.437.634-.655.184.237.49.453.534.713.295 1.72.909 3.319 1.943 4.733.694.948 1.505 1.818 2.305 2.688.147.16.489.154.741.225.055-.253.207-.528.15-.754-.385-1.511-1.034-2.954-1.078-4.552-.053-1.872.533-3.59 1.262-5.286.041-.096.108-.205.195-.258.204-.12.428-.209.643-.312.106.215.305.429.299.642-.023.855-.168 1.71-.158 2.563.016 1.403.44 2.658 1.374 3.794.692.842 1.149 1.862 1.711 2.803.093.156.188.311.399.434.01-.506-.054-1.024.046-1.513.266-1.299.449-2.643.96-3.857.463-1.102 1.497-1.854 2.72-2.226.195-.059.569.058.674.212.11.159.09.534-.037.693-1.628 2.038-1.15 4.157-.309 6.267.617 1.546 1.322 3.061 1.994 4.588.207.469.599.547.915.158.521-.641.942-1.364 1.522-1.946.527-.532 1.2-.932 1.835-1.358.084-.056.389.036.447.139.092.16.112.395.073.582-.25 1.216-.599 2.417-.764 3.642-.103.774.022 1.582.103 2.368.191 1.859.349 3.712-.036 5.575-.044.218.092.601.266.69.168.087.571-.035.736-.193.681-.65 1.427-1.178 2.369-1.385.204-.044.541-.012.639.114.127.162.122.461.085.687-.029.174-.169.358-.311.486-1.57 1.421-1.943 3.297-2.077 5.215-.125 1.769-.506 3.463-1.026 5.162-.572 1.868-1.506 3.539-2.809 4.978-2.749 3.032-6.16 4.127-10.219 2.949-1.039-.302-2.085-.592-3.088-.98-.628-.244-1.176-.669-1.768-.998-2.01-1.117-3.387-2.79-4.346-4.77-.406-.839-.498-1.816-.819-2.701-.731-2.015-1.465-4.033-2.299-6.007-.403-.955-1.003-1.84-1.582-2.714-.253-.381-.684-.651-1.022-.984-.153-.15-.316-.309-.401-.496-.249-.542.032-.934.627-.805.993.213 1.978.484 2.947.781 1.498.459 2.707 1.307 3.603 2.566.099.138.455.275.549.212.208-.139.441-.395.458-.618.121-1.541-.352-2.907-1.357-4.112-.799-.959-1.882-1.514-2.973-2.089-.985-.519-1.709-1.342-2.085-2.337-.758-2.006-.766-4.117-.609-6.223.017-.228.298-.587.498-.617.196-.029.542.236.654.453.503.969.884 2.003 1.438 2.942.34.577.851 1.1 1.393 1.518 1.701 1.31 3.471 2.539 5.179 3.842.471.36.822.867 1.228 1.307l.187-.083zm5.653 17.816c2.766-.335 5.015-1.531 6.67-3.726.484-.642.485-.843-.118-1.356-1.136-.967-2.412-1.629-3.91-2.035-2.442-.662-4.737-.288-6.932.708-1.33.604-2.369 1.657-3.243 2.829-.358.481-.302.827.133 1.219 2.087 1.881 4.572 2.601 7.4 2.361z"/><path d="m258.604 312.145c-2.104-.064-3.824-.905-5.466-2.165 1.317-1.596 2.848-2.71 4.838-3.222-.887.787-1.456 1.721-1.302 2.877.151 1.134.813 1.992 1.928 2.509z"/><path d="m261.057 311.926c2.254-2.126 1.63-4.161-.55-5.431.222-.023.358-.061.488-.046 1.675.19 3.123.903 4.497 1.79.441.284.451.568.086.927-1.199 1.177-2.504 2.196-4.165 2.704-.094.029-.196.032-.356.056z"/></g><g clip-path="url(#d)" fill="#8b52d4"><path d="m305.663 289.927c-.551-1.176-1.026-2.392-1.674-3.515-.823-1.432-1.888-2.737-2.668-4.188-1.395-2.592-1.582-5.362-.817-8.19.068-.252.415-.437.633-.655.185.238.491.453.535.714.295 1.719.908 3.318 1.943 4.733.693.948 1.505 1.818 2.304 2.687.147.161.49.154.742.226.054-.253.206-.529.149-.754-.385-1.511-1.033-2.954-1.078-4.552-.052-1.873.534-3.591 1.262-5.286.041-.096.108-.205.195-.258.205-.121.428-.21.644-.312.105.214.305.429.298.642-.022.854-.167 1.71-.157 2.563.016 1.403.439 2.657 1.374 3.794.692.842 1.149 1.862 1.711 2.803.093.156.188.31.398.434.01-.506-.054-1.024.047-1.513.266-1.299.449-2.643.959-3.857.464-1.102 1.497-1.855 2.721-2.226.194-.059.568.058.674.211.109.16.09.534-.038.693-1.628 2.039-1.149 4.158-.308 6.267.616 1.547 1.322 3.062 1.994 4.588.207.469.598.548.914.159.521-.641.943-1.365 1.522-1.947.528-.531 1.201-.931 1.835-1.357.084-.057.39.036.447.139.092.16.112.394.074.582-.251 1.216-.599 2.417-.764 3.641-.103.774.021 1.583.102 2.368.191 1.86.349 3.713-.035 5.576-.045.218.091.601.266.69.167.086.571-.035.736-.193.681-.651 1.427-1.179 2.369-1.386.204-.044.54-.011.638.115.127.161.123.46.086.687-.03.173-.17.357-.311.486-1.57 1.421-1.944 3.297-2.078 5.214-.124 1.769-.506 3.464-1.025 5.163-.572 1.868-1.506 3.539-2.81 4.978-2.748 3.032-6.159 4.127-10.219 2.948-1.038-.302-2.085-.591-3.088-.98-.627-.243-1.175-.668-1.767-.998-2.01-1.116-3.387-2.789-4.346-4.769-.407-.839-.499-1.817-.82-2.702-.73-2.015-1.465-4.032-2.298-6.007-.404-.954-1.003-1.839-1.582-2.713-.253-.382-.685-.652-1.023-.984-.152-.15-.315-.309-.4-.496-.25-.542.031-.934.627-.805.993.213 1.977.483 2.946.781 1.499.459 2.708 1.307 3.604 2.565.099.139.454.276.549.213.207-.139.441-.396.458-.619.12-1.541-.352-2.906-1.357-4.112-.799-.959-1.883-1.513-2.973-2.088-.986-.52-1.709-1.343-2.086-2.338-.757-2.005-.766-4.116-.608-6.223.017-.228.297-.586.497-.616.196-.029.542.235.655.453.503.969.883 2.003 1.437 2.942.341.577.852 1.1 1.393 1.517 1.702 1.31 3.472 2.54 5.179 3.842.472.361.822.868 1.228 1.307l.188-.082zm5.653 17.815c2.766-.334 5.016-1.53 6.67-3.725.485-.643.486-.843-.117-1.357-1.137-.967-2.412-1.629-3.911-2.035-2.442-.662-4.737-.288-6.932.709-1.33.603-2.369 1.657-3.242 2.829-.359.48-.303.826.133 1.219 2.087 1.881 4.571 2.6 7.399 2.36z"/><path d="m309.961 306.867c-2.103-.063-3.824-.904-5.465-2.165 1.317-1.595 2.847-2.709 4.838-3.222-.888.787-1.456 1.721-1.303 2.877.152 1.135.813 1.993 1.929 2.509z"/><path d="m312.415 306.649c2.253-2.126 1.63-4.161-.55-5.431.222-.023.358-.061.487-.046 1.675.19 3.123.902 4.497 1.789.441.285.452.568.086.928-1.198 1.177-2.503 2.196-4.164 2.704-.094.029-.196.032-.356.056z"/></g></svg>