<svg fill="none" height="511" viewBox="0 0 360 511" width="360" xmlns="http://www.w3.org/2000/svg"><path d="m92.2046 307.331c2.4258-1.537 5.6063-1.101 7.5283 1.033 1.2771 1.418 3.1621 2.129 5.0571 1.908 2.853-.332 5.529 1.441 6.335 4.197.535 1.832 1.925 3.291 3.728 3.914 2.714.938 4.356 3.697 3.886 6.53-.312 1.883.307 3.8 1.662 5.144 2.038 2.023 2.32 5.221.668 7.569-1.098 1.561-1.372 3.557-.735 5.356.958 2.706-.175 5.71-2.683 7.109-1.666.93-2.779 2.609-2.986 4.506-.31 2.855-2.635 5.069-5.501 5.242-1.905.114-3.636 1.145-4.645 2.764-1.519 2.437-4.574 3.424-7.2314 2.336-1.7658-.724-3.7726-.547-5.3845.475-2.4258 1.537-5.6063 1.1-7.5283-1.033-1.2771-1.418-3.162-2.129-5.0574-1.909-2.8524.333-5.5286-1.441-6.3345-4.197-.5355-1.831-1.9251-3.29-3.7286-3.914-2.7141-.938-4.3558-3.697-3.886-6.53.3122-1.882-.307-3.799-1.6614-5.143-2.0381-2.023-2.3203-5.221-.6679-7.57 1.0981-1.56 1.372-3.556.735-5.355-.9586-2.707.1747-5.711 2.6825-7.11 1.6665-.929 2.7793-2.609 2.9858-4.506.3108-2.855 2.6351-5.069 5.5016-5.241 1.9048-.115 3.636-1.145 4.6452-2.765 1.5186-2.437 4.5736-3.424 7.231-2.335 1.7658.723 3.7726.546 5.3845-.475z" fill="#f5f2cd"/><path d="m82.6873 351.791c-3.97-2.544 7.0286-5.886 2.8339-15.831-3.5705-8.467-1.6792-10.256-1.6792-10.256-7.9212 5.337-11.4293 13.922-7.4218 21.598 4.0074 7.669 14.1883 6.422 14.1883 6.422v-.748s-4.95.729-7.9275-1.179zm-2.7466-1.808c-5.3994-6.385-2.7215-16.024 1.236-20.47-3.8327 5.724-4.95 14.871-1.236 20.47zm3.2584-28.082c4.1947-2.164 1.5918 9.021 12.3032 10.368 9.1257 1.147 9.7317 3.679 9.7317 3.679-.668-9.521-6.361-16.847-15.0125-17.215-8.6516-.368-12.6652 9.066-12.6652 9.066l.6491.374s1.8415-4.645 4.9875-6.266zm20.0749 9.832c-3.046-6.179-10.4183-11.715-17.1286-11.304 8.2334-1.478 15.2556 5.655 17.1286 11.304zm3.296-2.269-.65.374s3.109 3.915 2.94 7.45c-.224 4.708-8.62-3.136-15.1429 5.462-5.5555 7.32-8.0523 6.578-8.0523 6.578 8.5891 4.184 17.7832 2.924 22.4342-4.377 4.644-7.301-1.529-15.487-1.529-15.487zm-16.2736 20.269c6.8788.455 15.3676-3.155 18.3706-9.165-2.834 7.862-12.5342 10.362-18.3706 9.165z" fill="#a2c366"/><path d="m57.44 166.244h19.52c9.632 0 12.032-3.456 12.032-7.712v-.288c0-4.192-2.4-7.36-12.032-7.36h-10.432v-2.848h20.192v-5.6h-29.28zm9.088-5.76v-4.224h9.44c2.848 0 3.616.864 3.616 2.016v.096c0 1.12-.768 2.112-3.616 2.112zm24.383-18.048v23.808h26.592v-5.952h-17.632v-3.264h17.024v-5.792h-17.024v-2.976h17.376v-5.824zm48.871 16.352c8.704 0 11.296-3.648 11.296-7.968v-.512c0-4.384-2.496-7.872-11.296-7.872h-19.84v23.808h9.088v-7.456zm-10.752-10.4h9.664c2.144 0 3.008.8 3.008 2.176v.096c0 1.312-.928 2.176-3.008 2.176h-9.664zm23.912-5.952v23.808h26.592v-5.952h-17.632v-3.264h17.024v-5.792h-17.024v-2.976h17.376v-5.824zm28.936 23.808h9.088v-17.472h16.064v-6.336h-25.152zm51.344 0h9.088v-23.808h-9.088l-14.944 14.976v-14.976h-9.088v23.808h9.088l14.944-14.944zm21.6 0h9.088v-17.312h10.272v-6.496h-29.632v6.496h10.272zm21.527-23.808v23.808h26.592v-5.952h-17.632v-3.264h17.024v-5.792h-17.024v-2.976h17.376v-5.824z" fill="#f5f2cd"/><path d="m64.0836 314.533v-35.984c-.5547.208-1.352.416-2.392.624-.9707.208-2.0453.312-3.224.312-3.744 0-6.6907-1.213-8.84-3.64-2.1493-2.426-3.224-6.066-3.224-10.92v-35.984h9.672v35.672c0 2.011.312 3.502.936 4.472.624.902 1.8027 1.352 3.536 1.352.7627 0 1.3867-.069 1.872-.208.5547-.208 1.1093-.45 1.664-.728v-40.56h9.672v85.592zm17.1827 0v-85.592h23.0877v9.672h-13.5197v27.456h9.048v9.672h-9.048v29.224h14.0397v9.568zm26.4417 0v-9.568h1.248c1.11 0 2.046-.242 2.808-.728.763-.554 1.456-1.906 2.08-4.056.278-.97.555-2.253.832-3.848.278-1.594.52-3.709.728-6.344.278-2.634.555-5.893.832-9.776.278-3.952.555-8.805.832-14.56l1.872-36.712h22.568v85.592h-9.568v-75.92h-5.2l-1.56 28.704c-.346 5.755-.693 10.712-1.04 14.872-.277 4.091-.589 7.592-.936 10.504-.346 2.843-.693 5.166-1.04 6.968-.346 1.803-.658 3.259-.936 4.368-.97 3.467-2.357 6.102-4.16 7.904-1.733 1.734-4.333 2.6-7.8 2.6zm40.677-71.968c0-9.706 4.541-14.56 13.624-14.56 9.152 0 13.728 4.854 13.728 14.56v58.344c0 9.707-4.576 14.56-13.728 14.56-9.083 0-13.624-4.853-13.624-14.56zm17.784 0c0-3.258-1.387-4.888-4.16-4.888-2.704 0-4.056 1.63-4.056 4.888v58.344c0 3.328 1.352 4.992 4.056 4.992 2.773 0 4.16-1.664 4.16-4.992zm34.139.936c0-1.802-.312-3.05-.936-3.744-.624-.762-1.629-1.144-3.016-1.144h-4.264v27.976h4.368c2.565 0 3.848-1.49 3.848-4.472zm.208 36.504c0-1.802-.312-3.085-.936-3.848-.555-.762-1.595-1.144-3.12-1.144h-4.368v29.952h4.264c2.773 0 4.16-1.664 4.16-4.992zm-17.992 34.528v-85.592h13.832c4.645 0 7.939 1.179 9.88 3.536 2.011 2.358 3.016 6.136 3.016 11.336v17.368c0 4.854-1.525 7.87-4.576 9.048 1.525.347 2.843 1.248 3.952 2.704s1.664 3.536 1.664 6.24v20.904c0 5.062-1.179 8.736-3.536 11.024-2.288 2.288-5.755 3.432-10.4 3.432zm33.922 0v-85.592h23.088v9.672h-13.52v27.456h9.048v9.672h-9.048v29.224h14.04v9.568zm50.674 0c-2.149-7.141-4.195-14.074-6.136-20.8-1.941-6.794-3.917-13.658-5.928-20.592.139 3.536.208 7.176.208 10.92v12.48 17.992h-9.672v-85.592h9.672v17.68 10.608c0 2.774-.069 5.478-.208 8.112 1.941-6.309 3.883-12.41 5.824-18.304 1.941-5.962 3.917-11.994 5.928-18.096h10.296l-13.728 38.584 14.768 47.008zm35.421 0-1.56-13.208h-10.504c-.347 2.219-.659 4.438-.936 6.656-.208 2.15-.451 4.334-.728 6.552h-9.36l11.128-85.592h11.128l10.504 85.592zm-2.6-22.048c-.763-6.517-1.491-12.93-2.184-19.24-.693-6.378-1.352-12.93-1.976-19.656-1.248 13.451-2.704 26.416-4.368 38.896z" fill="#4b6fb4"/><path d="m0 0h119v28h-119z" fill="#4b6fb4" transform="matrix(.99862953 -.05233596 .05233596 .99862953 86.1205 172.473)"/><path d="m106.722 178.083.594 11.324-2.377.125-.431-8.229-5.8603 8.559-2.5965.136.019-.021-.5925-11.305 2.3368-.122.4313 8.228 5.8402-8.557zm18.849 10.348-2.377.124-.466-8.888-4.274.224.126 2.397c.091 1.744.034 3.076-.171 3.994-.206.919-.625 1.589-1.257 2.009s-1.581.664-2.846.73l-.126-2.417c.732-.038 1.234-.138 1.506-.299.285-.162.467-.518.545-1.07.078-.551.082-1.493.012-2.825l-.252-4.813 8.987-.471zm11.331-12.25c1.052-.055 2.024.161 2.918.648.893.487 1.61 1.171 2.15 2.05.54.88.839 1.859.895 2.937.057 1.092-.136 2.11-.581 3.055-.444.945-1.085 1.706-1.923 2.284s-1.782.894-2.834.949c-.919.049-1.782-.113-2.589-.485-.807-.371-1.489-.903-2.046-1.595s-.946-1.486-1.167-2.382l-1.837.096.233 4.454-2.357.124-.592-11.305 2.357-.123.232 4.434 1.818-.096c.126-.901.43-1.725.912-2.471.494-.76 1.116-1.367 1.867-1.82.764-.454 1.612-.705 2.544-.754zm.495 9.447c.959-.05 1.707-.417 2.246-1.099.537-.696.78-1.55.727-2.562-.054-1.012-.383-1.829-.99-2.451-.607-.623-1.39-.909-2.348-.859-.946.05-1.694.423-2.245 1.119-.551.684-.801 1.524-.749 2.523.053 1.012.39 1.835 1.011 2.471.62.621 1.403.907 2.348.858zm7.449-5.417c-.052-2.001.38-3.572 1.295-4.715.927-1.156 2.116-1.9 3.568-2.229l.633-.154c1.067-.269 1.813-.555 2.238-.858.437-.317.688-.751.753-1.301l2.496-.131c-.013 1.282-.295 2.265-.847 2.948-.539.669-1.481 1.166-2.825 1.49l-.693.157c-1.042.241-1.881.539-2.517.893-.622.353-1.098.831-1.427 1.436-.328.605-.514 1.402-.555 2.393l.459-.025c.061-.617.279-1.169.654-1.656.388-.501.868-.893 1.441-1.177.586-.284 1.198-.443 1.837-.477 1.212-.063 2.263.115 3.153.536.903.42 1.595 1.018 2.076 1.794.495.775.768 1.655.82 2.64.051.986-.128 1.89-.539 2.712-.398.822-1.024 1.489-1.878 2.001-.841.512-1.867.799-3.079.863-2.277.119-4.005-.378-5.185-1.491-1.181-1.126-1.797-2.823-1.849-5.09zm2.735 2.139c.046.866.4 1.521 1.065 1.967.677.432 1.594.618 2.753.557 1.052-.055 1.904-.34 2.558-.855.667-.529.977-1.233.931-2.112s-.428-1.539-1.145-1.982c-.705-.458-1.583-.659-2.635-.603-1.172.061-2.065.348-2.679.861s-.897 1.235-.848 2.167zm22.745-7.601.594 11.325-2.377.125-.431-8.229-5.86 8.558-2.597.136.019-.021-.592-11.304 2.337-.123.431 8.229 5.84-8.557zm13.068-.684.127 2.416-4.454.234.466 8.888-2.337.122-.466-8.888-4.473.235-.127-2.417zm3.902 6.324c.188.791.581 1.412 1.179 1.861.61.435 1.355.63 2.234.584 1.411-.074 2.501-.679 3.269-1.814l1.758 1.07c-.467 1.012-1.134 1.788-2 2.328-.867.539-1.832.837-2.898.892-1.052.056-2.037-.153-2.956-.626-.921-.486-1.67-1.161-2.25-2.025-.566-.878-.878-1.85-.933-2.915-.056-1.065.152-2.057.625-2.977.486-.92 1.161-1.663 2.026-2.229.864-.579 1.822-.896 2.874-.951 1.118-.059 2.118.169 3 .683.881.515 1.575 1.266 2.081 2.255.505.975.771 2.109.799 3.403zm3.056-4.366c-.826.043-1.519.32-2.08.83-.548.496-.896 1.115-1.044 1.857l6.391-.335c-.201-.777-.606-1.37-1.215-1.778-.596-.423-1.28-.614-2.052-.574z" fill="#f5f2cd"/><path d="m0 0h112v28h-112z" fill="#4b6fb4" transform="matrix(.99862953 -.05233596 .05233596 .99862953 149.12 192.105)"/><path d="m169.722 197.716.593 11.304-2.377.125-.466-8.888-6.531.342.466 8.888-2.357.123-.592-11.304zm9.453-.616c.932-.049 1.785.174 2.558.667.787.493 1.425 1.194 1.913 2.103.488.896.761 1.916.821 3.061.053.999-.118 1.942-.512 2.831-.394.888-.957 1.612-1.689 2.171-.732.546-1.558.843-2.477.891-1.171.061-2.154-.214-2.947-.827s-1.339-1.599-1.637-2.958l-.34.018.604 7.699-2.556.133-.802-15.299 2.556-.134-.006 3.706.4-.021c.201-1.252.658-2.224 1.369-2.916.725-.692 1.64-1.067 2.745-1.125zm-.397 9.234c.639-.034 1.204-.204 1.695-.51.492-.306.864-.706 1.119-1.2.267-.508.385-1.068.353-1.681-.051-.972-.406-1.748-1.064-2.327-.658-.593-1.474-.864-2.446-.813-.612.032-1.164.201-1.655.507-.492.306-.878.707-1.159 1.202-.268.495-.387 1.028-.357 1.601.031.586.207 1.137.528 1.655.32.504.741.902 1.264 1.195.535.279 1.109.403 1.722.371zm18.641-10.07.593 11.325-2.377.124-.431-8.229-5.86 8.559-2.596.136.019-.021-.593-11.305 2.337-.122.431 8.229 5.84-8.558zm9.257-.605c.932-.049 1.785.173 2.559.667.787.493 1.424 1.194 1.912 2.103.488.895.762 1.916.822 3.061.052.998-.119 1.942-.513 2.831-.394.888-.957 1.612-1.689 2.171-.732.546-1.558.843-2.476.891-1.172.061-2.155-.214-2.948-.827s-1.339-1.599-1.637-2.959l-.339.018.603 7.699-2.556.134-.802-15.299 2.557-.134-.006 3.706.399-.021c.201-1.253.658-2.224 1.369-2.916.725-.692 1.64-1.067 2.745-1.125zm-.397 9.233c.639-.033 1.204-.203 1.696-.509.491-.306.864-.706 1.118-1.2.267-.508.385-1.069.353-1.681-.051-.972-.406-1.748-1.063-2.328-.659-.593-1.474-.864-2.446-.813-.613.032-1.165.201-1.656.508-.491.306-.878.706-1.159 1.202-.268.495-.386 1.028-.356 1.601.03.586.206 1.137.527 1.654.32.504.741.903 1.264 1.196.536.279 1.109.402 1.722.37zm12.662 1.88c-1.052.055-2.024-.161-2.918-.648-.893-.487-1.617-1.177-2.171-2.069-.541-.893-.84-1.886-.897-2.977-.057-1.079.138-2.084.583-3.015.458-.932 1.106-1.687 1.944-2.265s1.782-.894 2.834-.949c1.052-.056 2.025.16 2.918.648.893.487 1.61 1.17 2.15 2.05s.839 1.859.895 2.937c.058 1.092-.136 2.11-.581 3.055-.444.944-1.085 1.706-1.923 2.284-.837.577-1.782.894-2.834.949zm-.13-2.476c.959-.051 1.707-.417 2.246-1.099.537-.696.78-1.55.727-2.562s-.383-1.829-.99-2.452c-.607-.622-1.389-.908-2.348-.858-.945.05-1.694.423-2.245 1.119-.551.683-.801 1.524-.749 2.523.053 1.012.39 1.835 1.011 2.47.62.622 1.403.908 2.348.859zm21.496-1.367.336 6.411-2.457.109-.208-3.975-10.546.553.208 3.974-2.455.149-.336-6.411 1.737-.091c.733-.039 1.235-.138 1.507-.299.285-.162.467-.519.544-1.07.078-.552.082-1.493.013-2.825l-.253-4.813 8.988-.471.466 8.887zm-4.833.253-.339-6.471-4.274.224.125 2.397c.049.932.058 1.732.026 2.402-.019.655-.096 1.22-.231 1.694zm16.515-9.778-1.886 10.253c-.237 1.334-.635 2.39-1.195 3.167-.56.79-1.318 1.364-2.274 1.721-.955.371-2.185.595-3.689.674l-.125-2.376c1.252-.066 2.129-.139 2.632-.219.504-.066.89-.22 1.158-.461.268-.227.481-.619.639-1.175l-2.876.151-3.528-11.151 2.576-.135 3.047 9.614 1.119-.059 1.826-9.869z" fill="#f5f2cd"/><g fill="#4b6fb4"><path d="m163.422 435.451c2.705-3.441 5.558-3.656 8.734-.645-2.705 3.441-5.558 3.655-8.734.645zm38.566-3.868c-3.334-2.835-6.173-2.479-8.688 1.103 3.326 2.836 6.173 2.478 8.688-1.103zm-.536-9.24c-4.046.015-5.829 1.982-5.432 6.014 4.046-.015 5.829-1.982 5.432-6.014zm-13.77-4.758c-4.01 2.606-4.514 5.698-1.543 9.448 4.01-2.606 4.514-5.698 1.543-9.448zm5.84 30.288c-4.8.704-7.261-1.308-7.523-6.152 4.807-.706 7.269 1.307 7.523 6.152zm-10.538-11.534c3.979-4.431 3.589-8.32-1.191-11.88-3.979 4.431-3.589 8.319 1.191 11.88zm-2.288-22.812c3.443 2.561 3.723 5.359.857 8.545-3.434-2.554-3.714-5.352-.857-8.545zm15.549 23.127c-3.559 4.796-7.456 5.186-11.896 1.193 3.559-4.796 7.456-5.187 11.896-1.193zm10.481-1.052c-2.137 2.889-4.532 3.13-7.319.734 2.256-2.9 4.651-3.141 7.319-.734zm-3.961 5.084c-2.902 3.7-5.969 3.928-9.383.694 2.902-3.7 5.969-3.928 9.383-.694zm-8.276-16.606c-5.536.291-7.832 3.108-7.026 8.592 5.534-.299 7.831-3.108 7.026-8.592zm-.21-7.987c-3.472 1.37-4.328 3.659-2.645 6.987 3.463-1.377 4.328-3.659 2.645-6.987zm-32.176 10.181c3.968-.789 6.106.784 6.518 4.815-3.968.789-6.106-.785-6.518-4.815zm12.551-7.399c4.448 1.758 5.556 4.689 3.389 8.954-4.448-1.758-5.556-4.688-3.389-8.954zm.291 30.845c4.844-.263 6.864-2.725 6.152-7.523-4.844.262-6.865 2.724-6.152 7.523zm-4.905-10.454c4.441 3.993 8.338 3.603 11.896-1.193-4.44-3.994-8.337-3.603-11.896 1.193zm-10.481 1.051c2.669 2.407 5.064 2.167 7.32-.734-2.788-2.395-5.183-2.155-7.32.734zm4.892 4.196c3.579 3.05 6.63 2.664 9.334-1.184-3.579-3.05-6.63-2.664-9.334 1.184zm4.813-17.92c5.484-.813 8.294 1.492 8.593 7.027-5.484.805-8.293-1.492-8.593-7.027zm-1.38-7.869c3.675.653 4.976 2.726 3.972 6.324-3.667-.662-4.968-2.727-3.972-6.324zm12.589 40.9 9.58-.961c-5.856-6.167-4.335-17.433-6.852-20.079-1.941 3.093 1.787 13.833-2.728 21.04z"/><path d="m228.834 428.89c2.705-3.441 5.558-3.655 8.734-.644-2.705 3.44-5.557 3.655-8.734.644zm38.566-3.868c-3.334-2.835-6.173-2.478-8.688 1.103 3.327 2.836 6.173 2.479 8.688-1.103zm-.535-9.239c-4.047.014-5.83 1.982-5.433 6.014 4.046-.015 5.829-1.982 5.433-6.014zm-13.771-4.759c-4.01 2.606-4.514 5.698-1.543 9.448 4.01-2.606 4.514-5.698 1.543-9.448zm5.84 30.288c-4.799.705-7.261-1.308-7.523-6.152 4.807-.705 7.269 1.307 7.523 6.152zm-10.538-11.534c3.979-4.431 3.589-8.319-1.191-11.88-3.979 4.431-3.589 8.32 1.191 11.88zm-2.288-22.811c3.443 2.56 3.723 5.359.857 8.544-3.433-2.554-3.714-5.352-.857-8.544zm15.549 23.126c-3.559 4.796-7.456 5.187-11.896 1.193 3.559-4.796 7.456-5.187 11.896-1.193zm10.481-1.051c-2.137 2.889-4.532 3.129-7.319.734 2.256-2.901 4.651-3.141 7.319-.734zm-3.961 5.084c-2.902 3.7-5.969 3.928-9.383.693 2.902-3.7 5.969-3.928 9.383-.693zm-8.276-16.607c-5.535.292-7.832 3.109-7.026 8.593 5.534-.3 7.832-3.109 7.026-8.593zm-.21-7.987c-3.471 1.37-4.328 3.66-2.645 6.988 3.463-1.377 4.328-3.66 2.645-6.988zm-32.176 10.181c3.969-.789 6.106.785 6.519 4.815-3.969.79-6.107-.784-6.519-4.815zm12.551-7.398c4.448 1.757 5.556 4.688 3.389 8.953-4.448-1.757-5.556-4.688-3.389-8.953zm.291 30.844c4.844-.262 6.864-2.724 6.152-7.523-4.844.262-6.865 2.724-6.152 7.523zm-4.905-10.454c4.441 3.994 8.338 3.603 11.897-1.193-4.441-3.994-8.338-3.603-11.897 1.193zm-10.481 1.051c2.669 2.407 5.064 2.167 7.32-.734-2.787-2.395-5.183-2.155-7.32.734zm4.892 4.196c3.579 3.05 6.63 2.665 9.334-1.183-3.579-3.051-6.63-2.665-9.334 1.183zm4.813-17.919c5.484-.814 8.294 1.491 8.593 7.026-5.484.806-8.293-1.491-8.593-7.026zm-1.38-7.87c3.675.654 4.976 2.727 3.972 6.325-3.667-.663-4.968-2.728-3.972-6.325zm12.589 40.9 9.58-.96c-5.856-6.167-4.335-17.433-6.852-20.079-1.941 3.093 1.787 13.832-2.728 21.039z"/><path d="m294.246 422.329c2.705-3.44 5.558-3.655 8.734-.644-2.705 3.441-5.558 3.655-8.734.644zm38.566-3.867c-3.334-2.836-6.173-2.479-8.688 1.102 3.327 2.836 6.173 2.479 8.688-1.102zm-.535-9.24c-4.047.015-5.83 1.982-5.433 6.014 4.046-.015 5.829-1.982 5.433-6.014zm-13.771-4.758c-4.01 2.605-4.514 5.698-1.543 9.448 4.01-2.606 4.514-5.698 1.543-9.448zm5.84 30.287c-4.8.705-7.261-1.307-7.523-6.151 4.807-.706 7.269 1.307 7.523 6.151zm-10.538-11.533c3.979-4.431 3.589-8.32-1.191-11.88-3.979 4.43-3.589 8.319 1.191 11.88zm-2.288-22.812c3.443 2.561 3.723 5.359.857 8.545-3.433-2.554-3.714-5.352-.857-8.545zm15.549 23.127c-3.559 4.795-7.456 5.186-11.896 1.193 3.559-4.796 7.456-5.187 11.896-1.193zm10.481-1.052c-2.137 2.889-4.532 3.129-7.319.734 2.256-2.9 4.651-3.141 7.319-.734zm-3.961 5.084c-2.902 3.7-5.969 3.928-9.383.694 2.902-3.7 5.969-3.928 9.383-.694zm-8.276-16.607c-5.535.292-7.832 3.109-7.026 8.593 5.534-.299 7.832-3.109 7.026-8.593zm-.21-7.986c-3.471 1.37-4.328 3.659-2.645 6.987 3.463-1.377 4.328-3.659 2.645-6.987zm-32.176 10.181c3.968-.79 6.106.784 6.518 4.815-3.968.789-6.106-.785-6.518-4.815zm12.551-7.399c4.448 1.758 5.556 4.688 3.389 8.954-4.448-1.758-5.556-4.689-3.389-8.954zm.291 30.845c4.844-.263 6.864-2.725 6.152-7.523-4.844.262-6.865 2.724-6.152 7.523zm-4.905-10.454c4.441 3.993 8.338 3.602 11.897-1.193-4.441-3.994-8.338-3.603-11.897 1.193zm-10.481 1.051c2.669 2.407 5.064 2.167 7.32-.734-2.788-2.395-5.183-2.155-7.32.734zm4.892 4.196c3.579 3.05 6.63 2.664 9.334-1.184-3.579-3.05-6.63-2.664-9.334 1.184zm4.813-17.92c5.484-.813 8.294 1.492 8.593 7.027-5.484.805-8.293-1.492-8.593-7.027zm-1.38-7.869c3.675.653 4.976 2.726 3.972 6.324-3.667-.662-4.968-2.727-3.972-6.324zm12.589 40.9 9.58-.961c-5.856-6.167-4.335-17.433-6.852-20.079-1.941 3.093 1.787 13.833-2.728 21.04z"/></g></svg>