<svg fill="none" height="650" viewBox="0 0 1440 650" width="1440" xmlns="http://www.w3.org/2000/svg"><path clip-rule="evenodd" d="m1313.4 465.643c-8.96-2.272-17.52-1.051-25.68 3.721-10.77 6.306-15.37 15.67-13.8 28.09-10.07-7.45-20.48-8.021-31.26-1.714-8.15 4.771-13.42 11.616-15.82 20.57-2.5 9.368-1.21 18.367 3.85 27.011 23.3 39.804 90.35 40.481 93.38 39.823 2.06-2.32 34.3-61.119 11-100.923-5.06-8.643-12.27-14.173-21.67-16.578zm-10.52 79.783-.5 12.281-1.23 1.072-3.1.08.05.088-.15-.085.1-.003c-3.57-4.491-6.8-4.596-6.8-4.596-5.7 15.584-36.95-9.459-36.95-9.459 35.02-19.612 38.64 5.97 38.64 5.97-6.06-2.826-17.39-3.537-17.39-3.537 7.89 1.135 17.71 5.909 22.8 8.63.81-8.026 3.63-30.627 10.89-47.304 0 0-10.47 14.501-12.38 35.806 0 0-34.07-24.481 19.27-55.699 0 0 20.49 68.002-13.21 56.767z" fill="#eaa3cd" fill-rule="evenodd"/><path d="m241.92 287.312c0-24.64 11.528-36.96 34.584-36.96 23.232 0 34.848 12.32 34.848 36.96v148.104c0 24.64-11.616 36.96-34.848 36.96-23.056 0-34.584-12.32-34.584-36.96zm45.144 0c0-8.272-3.52-12.408-10.56-12.408-6.864 0-10.296 4.136-10.296 12.408v148.104c0 8.448 3.432 12.672 10.296 12.672 7.04 0 10.56-4.224 10.56-12.672zm91.243 182.688c-1.584-8.8-3.432-17.864-5.544-27.192-1.936-9.504-3.872-18.48-5.808-26.928-1.76-8.448-3.344-15.928-4.752-22.44s-2.288-11.176-2.64-13.992c-.352 2.816-1.232 7.48-2.64 13.992-1.232 6.512-2.728 13.992-4.488 22.44-1.76 8.272-3.696 17.16-5.808 26.664-1.936 9.504-3.784 18.656-5.544 27.456h-24.816l29.832-116.16-25.08-101.112h26.136c1.056 6.864 2.288 14.08 3.696 21.648 1.584 7.568 2.992 14.784 4.224 21.648 1.408 6.864 2.64 13.024 3.696 18.48 1.056 5.28 1.672 9.064 1.848 11.352.176-2.288.792-6.072 1.848-11.352 1.056-5.456 2.288-11.616 3.696-18.48s2.816-14.08 4.224-21.648c1.584-7.568 2.904-14.784 3.96-21.648h25.344l-25.608 100.32 30.36 116.952zm30.803 0v-24.288h3.168c2.816 0 5.192-.616 7.128-1.848 1.936-1.408 3.696-4.84 5.28-10.296.704-2.464 1.408-5.72 2.112-9.768s1.32-9.416 1.848-16.104c.704-6.688 1.408-14.96 2.112-24.816.704-10.032 1.408-22.352 2.112-36.96l4.752-93.192h57.288v217.272h-24.288v-192.72h-13.2l-3.96 72.864c-.88 14.608-1.76 27.192-2.64 37.752-.704 10.384-1.496 19.272-2.376 26.664-.88 7.216-1.76 13.112-2.64 17.688s-1.672 8.272-2.376 11.088c-2.464 8.8-5.984 15.488-10.56 20.064-4.4 4.4-11 6.6-19.8 6.6zm156.583 0-3.96-33.528h-26.664c-.88 5.632-1.672 11.264-2.376 16.896-.528 5.456-1.144 11-1.848 16.632h-23.76l28.248-217.272h28.248l26.664 217.272zm-6.6-55.968c-1.936-16.544-3.784-32.824-5.544-48.84-1.76-16.192-3.432-32.824-5.016-49.896-3.168 34.144-6.864 67.056-11.088 98.736zm36.674 84.744v-53.064h5.016c1.936 0 3.784-.792 5.544-2.376 1.936-1.584 3.608-4.84 5.016-9.768.704-2.64 1.408-6.072 2.112-10.296s1.408-9.68 2.112-16.368 1.32-14.96 1.848-24.816c.704-10.032 1.408-22.088 2.112-36.168l4.752-93.192h57.288v192.984h11.616v53.064h-19.008v-28.776h-59.4v28.776zm61.512-53.064v-168.432h-13.2l-3.96 71.808c-.88 14.608-1.76 27.368-2.64 38.28s-1.848 20.328-2.904 28.248c-.88 7.744-1.848 14.08-2.904 19.008-.88 4.928-1.848 8.624-2.904 11.088zm47.967 24.288v-217.272h58.608v24.552h-34.32v69.696h22.968v24.552h-22.968v74.184h35.64v24.288zm119.394-180.312c0-4.576-.792-7.744-2.376-9.504-1.584-1.936-4.136-2.904-7.656-2.904h-10.824v71.016h11.088c6.512 0 9.768-3.784 9.768-11.352zm.528 92.664c0-4.576-.792-7.832-2.376-9.768-1.408-1.936-4.048-2.904-7.92-2.904h-11.088v76.032h10.824c7.04 0 10.56-4.224 10.56-12.672zm-45.672 87.648v-217.272h35.112c11.792 0 20.152 2.992 25.08 8.976 5.104 5.984 7.656 15.576 7.656 28.776v44.088c0 12.32-3.872 19.976-11.616 22.968 3.872.88 7.216 3.168 10.032 6.864s4.224 8.976 4.224 15.84v53.064c0 12.848-2.992 22.176-8.976 27.984-5.808 5.808-14.608 8.712-26.4 8.712zm134.502 0-3.96-33.528h-26.664c-.88 5.632-1.672 11.264-2.376 16.896-.528 5.456-1.144 11-1.848 16.632h-23.76l28.248-217.272h28.248l26.664 217.272zm-6.6-55.968c-1.936-16.544-3.784-32.824-5.544-48.84-1.76-16.192-3.432-32.824-5.016-49.896-3.168 34.144-6.864 67.056-11.088 98.736zm88.681 55.968v-98.472h-20.592v98.472h-24.288v-217.272h24.288v94.512h20.592v-94.512h24.291v217.272zm42.771 0v-217.272h22.18v137.016l19-137.016h28.25v217.272h-22.44v-139.392l-23.49 139.392zm82.9 0 16.1-102.696c-4.93-2.816-8.53-6.6-10.82-11.352-2.11-4.928-3.17-11.616-3.17-20.064v-44.088c0-14.256 3.08-24.288 9.24-30.096 6.34-5.984 16.02-8.976 29.04-8.976h33.53v217.272h-24.29v-97.68h-10.3l-12.67 97.68zm26.66-138.864c0 5.984.79 10.648 2.38 13.992 1.76 3.344 5.45 5.016 11.09 5.016h9.5v-72.864h-9.24c-4.93 0-8.45 1.144-10.56 3.432s-3.17 5.984-3.17 11.088z" fill="#37d0e5"/><path d="m244.32 208h58.56c28.896 0 36.096-10.368 36.096-23.136v-.864c0-12.576-7.2-22.08-36.096-22.08h-31.296v-8.544h60.576v-16.8h-87.84zm27.264-17.28v-12.672h28.32c8.544 0 10.848 2.592 10.848 6.048v.288c0 3.36-2.304 6.336-10.848 6.336zm74.109-54.144v71.424h79.776v-17.856h-52.896v-9.792h51.072v-17.376h-51.072v-8.928h52.128v-17.472zm147.574 49.056c26.112 0 33.888-10.944 33.888-23.904v-1.536c0-13.152-7.488-23.616-33.888-23.616h-59.52v71.424h27.264v-22.368zm-32.256-31.2h28.992c6.432 0 9.024 2.4 9.024 6.528v.288c0 3.936-2.784 6.528-9.024 6.528h-28.992zm72.696-17.856v71.424h79.776v-17.856h-52.896v-9.792h51.072v-17.376h-51.072v-8.928h52.128v-17.472zm87.765 71.424h27.264v-52.416h48.192v-19.008h-75.456zm154.994 0h27.264v-71.424h-27.264l-44.832 44.928v-44.928h-27.264v71.424h27.264l44.832-44.832zm65.76 0h27.264v-51.936h30.816v-19.488h-88.896v19.488h30.816zm65.539-71.424v71.424h79.776v-17.856h-52.896v-9.792h51.072v-17.376h-51.072v-8.928h52.128v-17.472zm139.805 72.768c43 0 49.72-20.16 49.72-29.472v-1.536h-28.22c-.38 1.632-2.5 11.712-23.52 11.712-19.2 0-24-10.08-24-17.76v-1.152c0-7.968 4.22-16.704 23.9-16.704 20.74 0 22.95 9.024 23.52 10.944h28.32v-1.248c0-9.216-6.33-28.896-49.72-28.896h-3.75c-44.543 0-50.495 21.792-50.495 35.424v2.784c0 13.536 6.624 35.904 50.495 35.904zm83.62-51.744v-21.024h-27.26v71.424h57.31c28.9 0 36.1-11.232 36.1-24.576v-1.536c0-13.344-7.3-24.288-36.1-24.288zm0 32.64v-14.88h26.59c8.84 0 11.33 3.168 11.33 7.2v.288c0 3.84-2.49 7.392-11.33 7.392z" fill="#eaa3cd"/><path d="m0 0h352v56h-352z" fill="#fff" transform="matrix(.99839408 .05665027 -.05665027 .99839408 546.172 191)"/><path d="m576.888 208.6-.329 5.799-15-.851-1.21 21.326-6.23-.354 1.539-27.124zm27.894 28.795-5.703-.324 1.21-21.326-10.256-.582-.326 5.751c-.237 4.186-.721 7.347-1.451 9.485-.731 2.138-1.905 3.626-3.523 4.464s-3.945 1.17-6.98.998l.329-5.799c1.757.1 2.981-.007 3.672-.32.723-.312 1.249-1.115 1.579-2.411.33-1.295.586-3.54.767-6.735l.656-11.549 21.565 1.223zm18.364 1.763c-2.524-.143-4.788-.913-6.792-2.309-2.004-1.395-3.55-3.23-4.639-5.503-1.057-2.272-1.512-4.717-1.363-7.337.147-2.588.873-4.935 2.178-7.04 1.338-2.104 3.081-3.736 5.23-4.896s4.486-1.668 7.01-1.525 4.788.913 6.792 2.308c2.004 1.396 3.535 3.214 4.594 5.453 1.059 2.24 1.515 4.654 1.368 7.242-.148 2.619-.876 4.998-2.183 7.135-1.308 2.138-3.036 3.786-5.185 4.947-2.149 1.16-4.486 1.668-7.01 1.525zm.338-5.943c2.3.131 4.181-.548 5.644-2.035 1.464-1.52 2.265-3.493 2.403-5.921.138-2.429-.436-4.464-1.721-6.108-1.285-1.643-3.077-2.53-5.377-2.661-2.269-.128-4.151.566-5.648 2.084-1.494 1.485-2.309 3.426-2.445 5.823-.138 2.428.451 4.48 1.766 6.158 1.317 1.645 3.109 2.532 5.378 2.66zm19.18-10.979c.4-4.785 1.84-8.421 4.321-10.908 2.515-2.518 5.546-3.981 9.095-4.388l1.55-.201c2.617-.364 4.471-.852 5.564-1.463 1.126-.641 1.838-1.61 2.136-2.907l5.99.339c-.366 3.057-1.296 5.328-2.79 6.813-1.461 1.456-3.838 2.395-7.131 2.817l-1.694.192c-2.549.304-4.628.795-6.237 1.473-1.577.68-2.837 1.698-3.779 3.055-.943 1.357-1.593 3.211-1.951 5.562l1.103.063c.307-1.457.971-2.717 1.993-3.781 1.056-1.094 2.304-1.905 3.744-2.432 1.472-.525 2.975-.745 4.508-.658 2.908.165 5.368.866 7.381 2.102 2.045 1.238 3.541 2.845 4.486 4.822.978 1.978 1.399 4.15 1.265 6.514s-.799 4.474-1.994 6.329c-1.163 1.857-2.83 3.285-5.002 4.284-2.14 1-4.664 1.418-7.572 1.253-5.463-.31-9.456-1.947-11.981-4.911-2.522-2.996-3.549-7.205-3.081-12.627zm5.968 5.82c-.118 2.076.557 3.733 2.026 4.971 1.502 1.207 3.642 1.889 6.422 2.047 2.524.143 4.633-.314 6.328-1.372 1.728-1.088 2.652-2.686 2.772-4.795.119-2.108-.619-3.785-2.215-5.029-1.562-1.275-3.605-1.984-6.129-2.127-2.812-.159-5.017.292-6.616 1.356-1.598 1.063-2.461 2.712-2.588 4.949zm40.761-13.361c4.505.256 7.799 1.501 9.884 3.734 2.087 2.202 3.01 5.412 2.771 9.629l-.84 14.808-5.895-.334 1.481-9.147-.719-.041c-1.524 6.516-5.161 9.611-10.911 9.285-3.291-.187-5.711-1.029-7.261-2.528-1.55-1.498-2.251-3.541-2.104-6.129.158-2.779 1.383-4.889 3.676-6.33 2.294-1.44 5.517-2.042 9.67-1.807l6.997.397c-.223-1.711-.919-3.001-2.088-3.868-1.135-.898-2.805-1.409-5.009-1.534-1.534-.087-2.846.159-3.936.738-1.089.547-2.15 1.448-3.183 2.704l-4.7-3.584c1.658-2.118 3.462-3.682 5.41-4.693 1.981-1.01 4.233-1.443 6.757-1.3zm-2.968 21.803c2.684.153 4.777-.306 6.28-1.374 1.503-1.069 2.509-2.71 3.02-4.925l-6.805-.386c-2.301-.131-4.011.077-5.132.622-1.119.514-1.713 1.377-1.782 2.591-.054.959.285 1.763 1.017 2.414.735.619 1.868.971 3.402 1.058zm46.588 8.173-5.703-.324 1.21-21.326-10.255-.581-.327 5.75c-.237 4.186-.721 7.347-1.451 9.485-.731 2.138-1.905 3.626-3.523 4.464s-3.944 1.17-6.98.998l.329-5.799c1.758.1 2.982-.007 3.673-.32.722-.312 1.249-1.115 1.579-2.411.33-1.295.585-3.54.766-6.735l.656-11.549 21.565 1.223zm19.397-15.775c4.025.229 7.151 1.063 9.377 2.503 2.258 1.443 3.303 3.633 3.136 6.573-.32 5.655-4.81 8.236-13.468 7.745l-13.179-.748 1.539-27.124 5.847.332-.585 10.303zm-.639 11.262c2.651.151 4.486.014 5.504-.409 1.049-.421 1.602-1.127 1.658-2.117.038-.671-.14-1.21-.533-1.617-.362-.405-1.048-.733-2.06-.982-.979-.248-2.396-.425-4.249-.53l-7.332-.416-.321 5.655zm40.351-19.345 5.703.324-1.539 27.124-5.703-.324.607-10.686-15.671-.89-.606 10.687-5.655-.321 1.539-27.124 5.655.321-.604 10.639 15.671.889zm22.529 29.211c-2.524-.143-4.788-.913-6.792-2.308-2.004-1.396-3.551-3.231-4.64-5.504-1.057-2.272-1.511-4.717-1.363-7.337.147-2.588.873-4.934 2.179-7.04 1.337-2.104 3.08-3.735 5.23-4.896 2.149-1.16 4.485-1.668 7.009-1.525s4.788.913 6.792 2.309c2.004 1.395 3.536 3.213 4.595 5.453 1.059 2.239 1.515 4.653 1.368 7.241-.149 2.62-.877 4.998-2.184 7.136-1.307 2.137-3.035 3.786-5.185 4.946-2.149 1.16-4.485 1.668-7.009 1.525zm.337-5.942c2.3.13 4.182-.548 5.644-2.036 1.465-1.519 2.266-3.493 2.404-5.921.137-2.428-.436-4.464-1.721-6.107-1.285-1.644-3.078-2.531-5.378-2.661-2.268-.129-4.151.565-5.647 2.083-1.495 1.486-2.31 3.427-2.446 5.823-.138 2.428.451 4.481 1.766 6.158 1.317 1.645 3.11 2.532 5.378 2.661zm40.827-19.655-.329 5.799-15-.851-1.21 21.325-6.23-.353 1.539-27.125zm14.434 28.752c-2.524-.143-4.788-.913-6.792-2.309-2.004-1.395-3.551-3.23-4.64-5.503-1.057-2.272-1.511-4.718-1.362-7.337.146-2.588.872-4.935 2.178-7.04 1.337-2.104 3.08-3.736 5.23-4.896 2.149-1.16 4.485-1.668 7.009-1.525s4.788.913 6.792 2.308c2.005 1.396 3.536 3.214 4.595 5.453 1.059 2.24 1.515 4.654 1.368 7.241-.149 2.62-.877 4.999-2.184 7.136-1.307 2.138-3.035 3.786-5.184 4.946-2.15 1.161-4.486 1.669-7.01 1.526zm.337-5.943c2.3.131 4.182-.548 5.644-2.035 1.465-1.52 2.266-3.493 2.404-5.921.138-2.429-.436-4.464-1.721-6.108-1.285-1.643-3.078-2.53-5.378-2.661-2.268-.128-4.151.566-5.647 2.084-1.495 1.485-2.31 3.426-2.446 5.823-.138 2.428.451 4.48 1.766 6.157 1.317 1.646 3.11 2.533 5.378 2.661z" fill="#eaa3cd"/><path d="m0 0h481v56h-481z" fill="#fff" transform="matrix(.99856965 -.05346639 .05346639 .99856965 797 476.719)"/><path d="m835.217 490.527-8.381 14.052 9.833 13.077-6.375.342-7.762-10.304-7.812.418.572 10.689-5.608.3-1.453-27.129 5.608-.3.57 10.641 7.861-.421 6.572-11.023zm45.266 24.783-5.704.306-1.142-21.33-10.258.55.308 5.751c.225 4.186.091 7.382-.4 9.587-.49 2.206-1.494 3.814-3.01 4.824-1.516 1.011-3.792 1.597-6.828 1.76l-.31-5.8c1.757-.094 2.962-.335 3.614-.722.685-.389 1.119-1.246 1.305-2.57.185-1.323.193-3.583.021-6.778l-.618-11.552 21.569-1.155zm27.161-29.43c2.524-.135 4.859.381 7.004 1.548 2.146 1.167 3.868 2.805 5.167 4.915 1.298 2.109 2.017 4.458 2.155 7.046.141 2.621-.321 5.065-1.385 7.333-1.065 2.268-2.601 4.097-4.61 5.486-2.008 1.39-4.275 2.152-6.799 2.287-2.205.118-4.277-.268-6.215-1.157-1.938-.89-3.577-2.164-4.915-3.823-1.339-1.659-2.274-3.563-2.806-5.714l-4.41.236.573 10.689-5.656.303-1.453-27.13 5.656-.302.57 10.64 4.362-.233c.3-2.163 1.028-4.141 2.182-5.933 1.184-1.826 2.676-3.284 4.476-4.374 1.832-1.091 3.867-1.697 6.104-1.817zm1.214 22.672c2.3-.124 4.096-1.005 5.386-2.644 1.288-1.671 1.868-3.721 1.738-6.15-.13-2.428-.924-4.389-2.382-5.881s-3.337-2.177-5.638-2.053c-2.269.121-4.063 1.018-5.384 2.691-1.322 1.641-1.919 3.66-1.791 6.057.13 2.428.941 4.404 2.433 5.926 1.49 1.491 3.369 2.175 5.638 2.054zm17.861-13.022c-.128-4.8.903-8.573 3.096-11.318 2.222-2.778 5.075-4.566 8.557-5.361l1.519-.37c2.561-.649 4.35-1.338 5.369-2.066 1.049-.761 1.65-1.802 1.803-3.125l5.992-.32c-.028 3.078-.702 5.437-2.025 7.078-1.291 1.607-3.551 2.802-6.778 3.584l-1.662.377c-2.5.582-4.513 1.299-6.038 2.15-1.492.849-2.632 1.999-3.42 3.452-.787 1.452-1.23 3.366-1.327 5.743l1.103-.059c.145-1.482.667-2.808 1.565-3.978.929-1.203 2.08-2.146 3.454-2.828 1.405-.684 2.875-1.068 4.409-1.15 2.908-.155 5.43.27 7.567 1.278 2.169 1.005 3.832 2.438 4.989 4.299 1.189 1.859 1.847 3.971 1.974 6.336.126 2.364-.302 4.534-1.286 6.51-.952 1.973-2.453 3.576-4.502 4.807-2.017 1.23-4.479 1.922-7.387 2.078-5.464.293-9.614-.895-12.448-3.563-2.837-2.701-4.321-6.771-4.452-12.212zm6.572 5.128c.111 2.077.965 3.65 2.56 4.718 1.626 1.034 3.828 1.477 6.608 1.328 2.525-.135 4.571-.821 6.139-2.059 1.598-1.271 2.341-2.961 2.228-5.07s-1.031-3.694-2.754-4.756c-1.693-1.095-3.802-1.575-6.326-1.439-2.812.15-4.954.842-6.426 2.074-1.473 1.233-2.149 2.967-2.029 5.204zm54.568-18.304 1.455 27.177-5.704.306-1.058-19.748-14.041 20.556-6.231.334.046-.051-1.453-27.129 5.608-.3 1.058 19.748 13.993-20.554zm35.321-1.891 1.45 27.177-5.7.306-.87-16.249-1.2 2.852-4.26 13.736-5.99.32-5.76-13.199-1.433-2.615.863 16.153-5.702.305-1.455-27.177 6.71-.359 9.407 19.541 7.23-20.431zm19.87 26.864c-2.52.135-4.86-.381-7-1.548-2.15-1.167-3.89-2.82-5.22-4.96-1.3-2.141-2.02-4.522-2.16-7.143-.14-2.588.32-5 1.39-7.236 1.1-2.238 2.65-4.052 4.66-5.441 2.01-1.39 4.27-2.152 6.8-2.287 2.52-.135 4.86.381 7 1.548 2.15 1.167 3.87 2.805 5.17 4.915 1.3 2.109 2.02 4.458 2.16 7.046.14 2.621-.33 5.065-1.39 7.333s-2.6 4.097-4.61 5.486c-2.01 1.39-4.27 2.152-6.8 2.287zm-.32-5.943c2.3-.124 4.1-1.005 5.39-2.644 1.29-1.672 1.87-3.721 1.74-6.15-.13-2.428-.93-4.389-2.38-5.881-1.46-1.492-3.34-2.177-5.64-2.054-2.27.122-4.07 1.019-5.39 2.692-1.32 1.641-1.92 3.66-1.79 6.057.13 2.428.94 4.404 2.44 5.926 1.49 1.491 3.36 2.175 5.63 2.054zm47.24-24.497 1.46 27.177-5.71.305-.87-16.248-1.19 2.851-4.26 13.736-6 .321-5.75-13.199-1.44-2.615.87 16.153-5.71.305-1.45-27.177 6.71-.359 9.41 19.541 7.22-20.432zm31.52-1.688-4.5 24.612c-.57 3.203-1.52 5.737-2.86 7.604-1.34 1.898-3.16 3.277-5.45 4.137-2.29.892-5.24 1.435-8.86 1.628l-.3-5.704c3-.161 5.11-.338 6.32-.53 1.2-.161 2.13-.531 2.77-1.11.65-.548 1.16-1.488 1.53-2.822l-6.9.369-8.5-26.752 6.19-.331 7.34 23.065 2.68-.144 4.36-23.691zm55.03 18.445.82 15.386-5.9.267-.51-9.538-25.31 1.355.51 9.538-5.89.364-.82-15.386 4.17-.223c1.75-.094 2.96-.335 3.61-.723.69-.389 1.12-1.245 1.31-2.569.18-1.324.19-3.583.02-6.779l-.62-11.551 21.57-1.155 1.14 21.329zm-11.6.621-.84-15.53-10.25.549.3 5.752c.12 2.237.15 4.158.07 5.764-.04 1.573-.22 2.929-.55 4.068zm19.83-6.783c.46 1.899 1.4 3.386 2.84 4.463 1.46 1.043 3.25 1.508 5.36 1.396 3.39-.182 6-1.636 7.84-4.362l4.22 2.562c-1.12 2.431-2.71 4.295-4.79 5.592s-4.4 2.014-6.95 2.151c-2.53.135-4.89-.363-7.1-1.495-2.21-1.163-4.01-2.781-5.4-4.854-1.37-2.106-2.12-4.437-2.25-6.993-.14-2.557.36-4.939 1.49-7.146 1.16-2.21 2.78-3.995 4.86-5.356 2.07-1.393 4.37-2.157 6.89-2.292 2.68-.143 5.09.401 7.2 1.634 2.12 1.232 3.79 3.034 5 5.404 1.22 2.338 1.86 5.06 1.93 8.165zm7.32-10.486c-1.98.106-3.64.772-4.98 1.997-1.32 1.192-2.15 2.679-2.51 4.461l15.34-.822c-.48-1.864-1.46-3.286-2.92-4.266-1.43-1.012-3.07-1.469-4.93-1.37zm44.86 19.229-5.71.306-1.14-21.33-10.26.55.31 5.751c.22 4.186.09 7.382-.4 9.587-.49 2.206-1.49 3.814-3.01 4.824-1.52 1.011-3.79 1.597-6.83 1.76l-.31-5.8c1.76-.094 2.96-.335 3.62-.722.68-.389 1.11-1.246 1.3-2.57.19-1.323.19-3.583.02-6.778l-.62-11.552 21.57-1.155zm30.08-28.818-4.49 24.612c-.57 3.203-1.52 5.738-2.87 7.604-1.34 1.898-3.15 3.277-5.45 4.137-2.29.892-5.24 1.435-8.85 1.628l-.31-5.704c3.01-.161 5.11-.337 6.32-.53 1.21-.161 2.14-.531 2.78-1.11.64-.548 1.15-1.488 1.53-2.822l-6.9.369-8.5-26.752 6.18-.331 7.34 23.065 2.69-.144 4.35-23.691z" fill="#4b6fb4"/></svg>