<svg fill="none" height="650" viewBox="0 0 1440 650" width="1440" xmlns="http://www.w3.org/2000/svg" xmlns:xlink="http://www.w3.org/1999/xlink"><mask id="a" height="158" maskUnits="userSpaceOnUse" width="116" x="494" y="357"><path d="m610 492.125-39.045-49.996 34.739 13.278-38.314-45.265 25.02 6.908-40.833-60.05-41.158 60.05 25.886-5.323-36.907 43.6 35.039-11.397-40.427 47.066 46.113-11.477v35.481h22.285v-35.455z" fill="#2b4a83"/></mask><path d="m550.24 515.465v-217.272h22.176v137.016l19.008-137.016h28.248v217.272h-22.44v-139.392l-23.496 139.392zm131.738-79.728h22.176v44.88c0 12.672-2.552 22.088-7.656 28.248-5.104 5.984-13.288 8.976-24.552 8.976-23.408 0-35.112-12.232-35.112-36.696v-147.84c0-24.992 11.704-37.488 35.112-37.488 21.472 0 32.208 12.32 32.208 36.96v38.544h-22.176v-38.544c0-4.224-.792-7.304-2.376-9.24-1.408-2.112-3.96-3.168-7.656-3.168-6.864 0-10.296 4.136-10.296 12.408v148.104c0 8.448 3.432 12.672 10.296 12.672 6.688 0 10.032-4.224 10.032-12.672zm49.882 79.728v-192.72h-22.704v-24.552h69.696v24.552h-22.704v192.72zm53.216-182.688c0-24.64 11.528-36.96 34.584-36.96 23.232 0 34.848 12.32 34.848 36.96v148.104c0 24.64-11.616 36.96-34.848 36.96-23.056 0-34.584-12.32-34.584-36.96zm45.144 0c0-8.272-3.52-12.408-10.56-12.408-6.864 0-10.296 4.136-10.296 12.408v148.104c0 8.448 3.432 12.672 10.296 12.672 7.04 0 10.56-4.224 10.56-12.672zm81.69 182.688v-91.344c-1.408.528-3.432 1.056-6.072 1.584-2.464.528-5.192.792-8.184.792-9.504 0-16.984-3.08-22.44-9.24s-8.184-15.4-8.184-27.72v-91.344h24.552v90.552c0 5.104.792 8.888 2.376 11.352 1.584 2.288 4.576 3.432 8.976 3.432 1.936 0 3.52-.176 4.752-.528 1.408-.528 2.816-1.144 4.224-1.848v-102.96h24.552v217.272zm88.5 0v-98.472h-20.595v98.472h-24.288v-217.272h24.288v94.512h20.595v-94.512h24.29v217.272zm42.77 0v-217.272h22.17v137.016l19.01-137.016h28.25v217.272h-22.44v-139.392l-23.5 139.392zm142.56 0c-5.46-18.128-10.65-35.728-15.58-52.8-4.92-17.248-9.94-34.672-15.04-52.272.35 8.976.52 18.216.52 27.72v31.68 45.672h-24.55v-217.272h24.55v44.88 26.928c0 7.04-.17 13.904-.52 20.592 4.92-16.016 9.85-31.504 14.78-46.464 4.93-15.136 9.94-30.448 15.05-45.936h26.13l-34.84 97.944 37.48 119.328zm37.91 0v-217.272h22.17v137.016l19.01-137.016h28.25v217.272h-22.44v-139.392l-23.5 139.392z" fill="#a2c366"/><path d="m1098.14 156.258c7.38 0 13.34-5.932 13.34-13.211s-5.96-13.21-13.34-13.21-13.34 5.904-13.34 13.21 5.96 13.211 13.34 13.211zm-5.64 9.651-8.12 132.292h28.22l-9.1-132.292zm61.69 2.373c-9.77-7.171-22.46-15.556-34.36-22.593-.51-.296-1.14-.323-1.68-.054-.52.243-.9.728-1.01 1.321-.76 4.665-3.29 8.709-6.86 11.539-.46.378-.71.944-.65 1.537.02.593.38 1.105.92 1.402 22.9 12.51 49.93 25.882 57.69 26.071.87-.027 2.01-.135 2.8-1.295.27-.512.35-.97.35-1.348-.68-4.313-7.37-8.977-17.2-16.58zm-62.56-42.031c2.15-.809 4.41-1.294 6.78-1.294s4.63.485 6.78 1.294c.19.081.41.108.65.108.36 0 .71-.108 1.04-.324.46-.35.73-.889.73-1.482-.22-14.289-1.11-29.0366-2.42-40.252-.65-5.6347-1.44-10.3527-2.31-13.7766-1.15-3.2892-1.12-5.7965-4.47-6.5244-3.32.7279-3.29 3.2352-4.44 6.5244-2.58 10.1909-4.41 32.5406-4.73 54.0016 0 .566.27 1.132.76 1.482.46.351 1.09.405 1.66.216zm-4.84 33.404c.05-.593-.17-1.16-.63-1.537-3.48-2.939-5.85-7.037-6.51-11.755-.08-.593-.46-1.105-1-1.348-.55-.242-1.17-.242-1.69.081-12.01 7.091-24.55 15.179-34.14 22.081-9.63 7.252-16.14 11.646-16.82 15.96 0 .35.08.89.38 1.348.84 1.24 2.04 1.294 2.94 1.321 7.79-.189 33.81-12.348 56.54-24.749.52-.297.85-.809.9-1.375zm-7.6-68.4522-2.8-7.6836c-24.58 8.789-42.09 32.1368-42.11 59.4738h8.24c0-23.833 15.3-44.1066 36.64-51.7902zm-25.07 98.3512c6.42 6.281 14.13 11.134 22.51 14.261l2.92-7.656c-7.33-2.723-14.02-6.956-19.63-12.429zm81.09-5.069c-5.41 5.122-11.86 9.113-18.83 11.701l2.91 7.656c8-2.992 15.38-7.548 21.61-13.426l-5.63-5.931h-.03zm17.86-41.492h8.25c0-27.337-17.53-50.6579-42.08-59.4738l-2.81 7.6836c21.37 7.6567 36.64 27.9842 36.64 51.7902z" fill="#a2c366"/><g fill="#8b52d4"><path d="m135.891 187.689c.687-.859 1.461-1.031 2.32-.515.859.472 1.074 1.224.644 2.256-4.296 7.347-7.798 15.039-10.505 23.074-.516.988-1.246 1.353-2.192 1.096-.945-.258-1.31-.924-1.096-1.998 2.793-8.336 6.403-16.307 10.829-23.913zm-7.928 25.524c-1.031.387-1.805.15-2.32-.709-.473-.859-.28-1.611.58-2.256 11.429-6.445 22.322-13.643 32.677-21.592.731-.386 1.418-.301 2.063.258.516.602.601 1.289.258 2.063-3.61 7.734-6.66 15.662-9.153 23.783-.429 1.031-1.138 1.418-2.127 1.16-.945-.258-1.332-.945-1.16-2.063 2.621-8.421 5.78-16.628 9.475-24.621.773.774 1.547 1.547 2.32 2.321-10.355 7.992-21.226 15.211-32.613 21.656zm68.642-1.869c.129-.989.688-1.526 1.676-1.612.989.086 1.547.623 1.676 1.612 0 .515.022 1.031.064 1.547 0-.129-.021-.258-.064-.387.129.73.322 1.461.58 2.191 0 .086.022.172.065.258.086.215.107.258.064.129-.086-.129-.086-.107 0 .064l.129.258c.172.344.365.688.58 1.032.43.902.236 1.654-.58 2.255-.945.43-1.719.237-2.32-.58-1.246-2.062-1.87-4.318-1.87-6.767zm-26.232-23.526c.387-.902 1.074-1.289 2.063-1.16.945.387 1.332 1.074 1.16 2.063-3.223 8.336-6.746 16.543-10.571 24.621-.601.816-1.375 1.031-2.32.644-.773-.601-.967-1.375-.58-2.32 3.738-7.82 7.154-15.77 10.248-23.848zm-11.021 26.297c-1.075-.086-1.612-.601-1.612-1.547 0-.988.537-1.589 1.612-1.804 13.062-.559 26.146-.709 39.252-.452.687.043 1.138.344 1.353.903.258.515.258 1.053 0 1.611-.215.516-.666.795-1.353.838-13.106-.301-26.19-.15-39.252.451zm41.959-27.263c.343-.946 1.031-1.332 2.062-1.161.945.344 1.332 1.032 1.16 2.063-2.879 8.078-5.865 16.113-8.959 24.105-.386.903-1.074 1.289-2.062 1.161-.946-.387-1.332-1.075-1.16-2.063 3.136-7.992 6.123-16.027 8.959-24.105zm-14.438-1.225c.602-.816 1.375-1.01 2.32-.58.774.601.967 1.375.58 2.32-.429.817-.816 1.654-1.16 2.514-.386.816-.687 1.504-.902 2.062-2.793 7.004-5.672 13.944-8.637 20.819-.558.816-1.31 1.031-2.256.644-.816-.601-1.009-1.375-.58-2.32 1.074-2.406 2.127-4.834 3.158-7.283 2.364-6.102 4.856-12.16 7.477-18.176zm27.135 2.062c.687-.859 1.461-1.031 2.32-.515.86.472 1.074 1.224.645 2.256-4.297 7.347-7.799 15.039-10.506 23.074-.516.988-1.246 1.353-2.192 1.096-.945-.258-1.31-.924-1.095-1.998 2.793-8.336 6.402-16.307 10.828-23.913zm-7.928 25.524c-1.031.387-1.805.15-2.32-.709-.473-.859-.28-1.611.58-2.256 11.43-6.445 22.322-13.643 32.678-21.592.73-.386 1.418-.301 2.062.258.516.602.602 1.289.258 2.063-3.609 7.734-6.66 15.662-9.152 23.783-.43 1.031-1.139 1.418-2.127 1.16-.946-.258-1.332-.945-1.161-2.063 2.622-8.421 5.78-16.628 9.475-24.621.773.774 1.547 1.547 2.32 2.321-10.355 7.992-21.226 15.211-32.613 21.656zm48.92-25.201c.602-.817 1.289-.989 2.062-.516.817.473 1.032 1.16.645 2.063-4.297 7.476-7.799 15.296-10.506 23.461-.43.902-1.096 1.246-1.998 1.031-.859-.258-1.203-.881-1.031-1.869 2.793-8.422 6.402-16.479 10.828-24.17zm15.34-.58c1.031.172 1.547.709 1.547 1.611 0 .387-.151.752-.451 1.096-.301.3-.666.451-1.096.451-9.926-.817-19.68.064-29.262 2.642-1.031.129-1.676-.236-1.933-1.095-.215-.903.15-1.547 1.095-1.934 9.883-2.664 19.916-3.588 30.1-2.771zm-4.061 20.496c-.472.043-.881-.129-1.224-.516-.344-.387-.516-.795-.516-1.224 0-.989.58-1.547 1.74-1.676 3.18-.301 6.381-.774 9.604-1.418 3.222-.645 6.295-1.698 9.217-3.158 2.578-1.204 4.791-2.879 6.638-5.028.817-.902 1.203-1.912 1.16-3.029-.128-.516-.472-.859-1.031-1.031-.515-.215-1.01-.344-1.482-.387-3.008-.301-5.78.258-8.315 1.676s-4.468 3.459-5.8 6.123c-1.204 2.535-1.59 5.178-1.161 7.928.215 1.289.838 2.298 1.87 3.029.945.601 1.976.967 3.093 1.095 2.621.172 5.092-.365 7.412-1.611 2.321-1.117 4.448-2.513 6.381-4.189.817-.688 1.633-.688 2.449 0 .645.816.645 1.633 0 2.449-2.621 2.363-5.714 4.275-9.281 5.736-3.523 1.461-7.025 1.526-10.506.194-2.32-1.118-3.824-2.772-4.511-4.963-.645-2.192-.709-4.512-.194-6.961.516-2.449 1.375-4.598 2.578-6.446 2.106-3.093 4.92-5.285 8.444-6.574 1.633-.601 3.394-.945 5.285-1.031 1.933-.129 3.717.15 5.35.838 1.761.859 2.728 2.277 2.9 4.254-.043 1.847-.666 3.502-1.869 4.963-2.235 2.621-4.92 4.662-8.057 6.123-3.137 1.504-6.424 2.599-9.861 3.287-3.438.687-6.875 1.203-10.313 1.547z"/><path d="m135.891 187.689-.781-.624-.046.058-.038.063zm2.32-.515-.515.857.017.01.016.009zm.644 2.256.864.504.034-.058.026-.062zm-10.505 23.074.886.462.036-.069.025-.074zm-3.288-.902-.948-.318-.02.06-.012.061zm2.901 1.611.351.936.073-.027.068-.039zm-2.32-.709-.877.482.009.016.01.016zm.58-2.256-.492-.871-.056.032-.052.039zm32.677-21.592-.467-.884-.075.04-.067.051zm2.063.258.759-.651-.048-.056-.056-.049zm.258 2.063.906.422.004-.008.004-.008zm-9.153 23.783.923.384.019-.044.014-.047zm-2.127 1.16-.263.965.011.003zm-1.16-2.063-.955-.297-.022.072-.011.073zm9.475-24.621.707-.707-1.013-1.013-.602 1.301zm2.32 2.321.611.791.9-.694-.804-.804zm-23.905-3.243c.257-.32.441-.401.532-.422.075-.017.223-.023.493.139l1.029-1.715c-.588-.353-1.257-.531-1.956-.376-.681.151-1.228.585-1.659 1.125zm1.058-.264c.259.142.309.259.326.317.023.082.042.284-.123.678l1.847.769c.265-.637.391-1.326.199-1.996-.198-.694-.685-1.19-1.285-1.52zm.263.875c-4.331 7.406-7.861 15.16-10.59 23.26l1.895.638c2.685-7.97 6.159-15.599 10.422-22.889zm-10.529 23.116c-.195.375-.376.524-.495.584-.103.051-.261.088-.547.01l-.526 1.929c.66.18 1.34.163 1.967-.151.611-.305 1.054-.833 1.374-1.447zm-1.042.594c-.29-.079-.352-.178-.369-.209-.028-.052-.09-.222-.009-.628l-1.961-.393c-.134.668-.12 1.369.216 1.983.349.634.942.998 1.597 1.176zm-.41-.716c2.771-8.271 6.352-16.18 10.744-23.727l-1.729-1.006c-4.46 7.665-8.097 15.697-10.912 24.098zm1.601.358c-.383.143-.599.126-.71.092-.097-.029-.24-.109-.402-.38l-1.715 1.029c.353.589.856 1.057 1.532 1.264.662.202 1.349.11 1.997-.133zm-1.093-.255c-.148-.268-.135-.408-.117-.478.021-.084.104-.258.421-.496l-1.2-1.6c-.543.407-.987.931-1.158 1.598-.176.683-.024 1.348.301 1.94zm.195-.903c11.47-6.468 22.402-13.691 32.795-21.67l-1.218-1.586c-10.317 7.92-21.171 15.092-32.56 21.514zm32.654-21.579c.22-.116.369-.13.472-.117.106.013.261.067.468.247l1.31-1.512c-.437-.378-.949-.647-1.53-.72-.584-.073-1.145.064-1.655.334zm.836.025c.149.174.203.318.218.44.016.127-.001.308-.115.565l1.828.813c.229-.516.341-1.066.271-1.626-.07-.565-.317-1.066-.684-1.494zm.111.989c-3.629 7.776-6.697 15.747-9.203 23.912l1.912.587c2.479-8.076 5.513-15.961 9.103-23.654zm-9.17 23.821c-.16.385-.319.521-.409.57-.077.042-.226.09-.542.007l-.505 1.936c.672.175 1.371.158 2.004-.187.619-.337 1.029-.91 1.298-1.557zm-.94.58c-.281-.076-.359-.178-.391-.234-.045-.08-.111-.281-.044-.712l-1.977-.304c-.106.687-.064 1.389.278 1.996.355.631.943 1.002 1.607 1.184zm-.469-.8c2.608-8.381 5.751-16.547 9.428-24.499l-1.816-.839c-3.714 8.032-6.887 16.28-9.522 24.743zm7.813-24.212c.001.002.003.003.004.005.002.001.003.003.005.004.001.002.003.004.004.005.002.002.003.003.005.005.001.001.003.003.004.004.002.002.003.003.005.005l.004.004c.002.002.003.003.005.005.002.001.003.003.005.004.001.002.003.003.004.005.002.001.003.003.005.004.001.002.003.003.004.005.002.001.003.003.005.004.001.002.003.003.004.005.002.001.003.003.005.004.001.002.003.003.004.005.002.001.003.003.005.004.001.002.003.003.004.005.002.002.003.003.005.005l.004.004c.002.002.003.003.005.005l.004.004c.002.002.003.003.005.005.001.001.003.003.005.004.001.002.003.003.004.005.002.001.003.003.005.004.001.002.003.003.004.005.002.001.003.003.005.004.001.002.003.003.004.005.002.001.003.003.005.004.001.002.003.003.004.005.002.001.003.003.005.004.001.002.003.003.004.005.002.001.003.003.005.005.001.001.003.003.004.004.002.002.003.003.005.005.001.001.003.003.004.004l.005.005c.001.001.003.003.004.004.002.002.004.003.005.005.002.001.003.003.005.004.001.002.003.003.004.005.002.001.003.003.005.004.001.002.003.003.004.005.002.001.003.003.005.004.001.002.003.003.004.005.002.001.003.003.005.004.001.002.003.003.004.005.002.001.003.003.005.004.001.002.003.004.004.005.002.002.003.003.005.005.001.001.003.003.004.004.002.002.003.003.005.005.001.001.003.003.004.004.002.002.003.003.005.005.002.001.003.003.005.004.001.002.003.003.004.005.002.001.003.003.005.004.001.002.003.003.004.005.002.001.003.003.005.004.001.002.003.003.004.005.002.001.003.003.005.004.001.002.003.003.004.005.002.001.003.003.005.004.001.002.003.003.004.005l.005.005c.001.001.003.003.004.004.002.002.003.003.005.005.001.001.003.003.004.004.002.002.003.003.005.005.001.001.003.003.005.004.001.002.003.003.004.005.002.001.003.003.005.004.001.002.003.003.004.005.002.001.003.003.005.004.001.002.003.003.004.005.002.001.003.003.005.004.001.002.003.003.004.005.002.001.003.003.005.004.001.002.003.003.004.005.002.001.003.003.005.005.001.001.003.003.004.004.002.002.003.003.005.005.001.001.003.003.004.004.002.002.003.003.005.005.001.001.003.003.004.004.002.002.004.003.005.005.002.001.003.003.005.004.001.002.003.003.004.005.002.001.003.003.005.004.001.002.003.003.004.005.002.001.003.003.005.004.001.002.003.003.004.005.002.001.003.003.005.004.001.002.003.003.004.005.002.001.003.003.005.004.001.002.003.004.004.005.002.002.003.003.005.005l.004.004c.002.002.003.003.005.005.001.001.003.003.004.004.002.002.003.003.005.005.002.001.003.003.005.004.001.002.003.003.004.005.002.001.003.003.005.004.001.002.003.003.004.005.002.001.003.003.005.004.001.002.003.003.004.005.002.001.003.003.005.004.001.002.003.003.004.005.002.001.003.003.005.004.001.002.003.003.004.005.002.002.003.003.005.005.001.001.003.003.004.004.002.002.003.003.005.005.001.001.003.003.004.004.002.002.003.003.005.005.001.001.003.003.005.004.001.002.003.003.004.005.002.001.003.003.005.004.001.002.003.003.004.005.002.001.003.003.005.004.001.002.003.003.004.005.002.001.003.003.005.004.001.002.003.003.004.005.002.001.003.003.005.004.001.002.003.003.004.005.002.001.003.003.005.005l.004.004c.002.002.003.003.005.005.001.001.003.003.004.004.002.002.003.003.005.005l.004.004c.002.002.004.003.005.005.002.001.003.003.005.004.001.002.003.003.004.005.002.001.003.003.005.004.001.002.003.003.004.005.002.001.003.003.005.004.001.002.003.003.004.005.002.001.003.003.005.004.001.002.003.003.004.005.002.001.003.003.005.004.001.002.003.004.004.005.002.002.003.003.005.005.001.001.003.003.004.004.002.002.003.003.005.005.001.001.003.003.004.004.002.002.003.003.005.005.002.001.003.003.005.004.001.002.003.003.004.005.002.001.003.003.005.004.001.002.003.003.004.005.002.001.003.003.005.004.001.002.003.003.004.005.002.001.003.003.005.004.001.002.003.003.004.005.002.001.003.003.005.004.001.002.003.003.004.005.002.002.003.003.005.005.001.001.003.003.004.004.002.002.003.003.005.005.001.001.003.003.004.004l.005.005c.001.001.003.003.005.004.001.002.003.003.004.005.002.001.003.003.005.004.001.002.003.003.004.005.002.001.003.003.005.004.001.002.003.003.004.005.002.001.003.003.005.004.001.002.003.003.004.005.002.001.003.003.005.004.001.002.003.003.004.005.002.001.003.003.005.005.001.001.003.003.004.004.002.002.003.003.005.005.001.001.003.003.004.004l.005.005c.001.001.003.003.004.004.002.002.004.003.005.005.002.001.003.003.005.004.001.002.003.003.004.005.002.001.003.003.005.004.001.002.003.003.004.005.002.001.003.003.005.004.001.002.003.003.004.005.002.001.003.003.005.004.001.002.003.003.004.005.002.001.003.003.005.004.001.002.003.004.004.005l.005.005c.001.001.003.003.004.004.002.002.003.003.005.005.001.001.003.003.004.004.002.002.003.003.005.005.002.001.003.003.005.004.001.002.003.003.004.005.002.001.003.003.005.004.001.002.003.003.004.005.002.001.003.003.005.004.001.002.003.003.004.005.002.001.003.003.005.004.001.002.003.003.004.005.002.001.003.003.005.004.001.002.003.003.004.005.002.002.003.003.005.005l.004.004c.002.002.003.003.005.005l.004.004c.002.002.003.003.005.005.001.001.003.003.005.004.001.002.003.003.004.005.002.001.003.003.005.004.001.002.003.003.004.005.002.001.003.003.005.004.001.002.003.003.004.005.002.001.003.003.005.004.001.002.003.003.004.005.002.001.003.003.005.004.001.002.003.003.004.005.002.001.003.003.005.005.001.001.003.003.004.004.002.002.003.003.005.005l.004.004c.002.002.003.003.005.005.001.001.003.003.004.004.002.002.004.003.005.005.002.001.003.003.005.004.001.002.003.003.004.005.002.001.003.003.005.004.001.002.003.003.004.005.002.001.003.003.005.004.001.002.003.003.004.005.002.001.003.003.005.004.001.002.003.003.004.005.002.001.003.003.005.004.001.002.003.004.004.005.002.002.003.003.005.005l.004.004c.002.002.003.003.005.005l.004.004c.002.002.003.003.005.005.002.001.003.003.005.004.001.002.003.003.004.005.002.001.003.003.005.004.001.002.003.003.004.005.002.001.003.003.005.004.001.002.003.003.004.005.002.001.003.003.005.004.001.002.003.003.004.005.002.001.003.003.005.004.001.002.003.003.004.005.002.002.003.003.005.005.001.001.003.003.004.004.002.002.003.003.005.005.001.001.003.003.004.004.002.002.003.003.005.005.001.001.003.003.005.004.001.002.003.003.004.005.002.001.003.003.005.004.001.002.003.003.004.005.002.001.003.003.005.004.001.002.003.003.004.005.002.001.003.003.005.004.001.002.003.003.004.005.002.001.003.003.005.004.001.002.003.003.004.005.002.001.003.003.005.005.001.001.003.003.004.004.002.002.003.003.005.005.001.001.003.003.004.004l.005.005c.001.001.003.003.004.004.002.002.004.003.005.005.002.001.003.003.005.004.001.002.003.003.004.005.002.001.003.003.005.004.001.002.003.003.004.005.002.001.003.003.005.004.001.002.003.003.004.005.002.001.003.003.005.004.001.002.003.003.004.005.002.001.003.003.005.004.001.002.003.004.004.005.002.002.003.003.005.005.001.001.003.003.004.004l.005.005c.001.001.003.003.004.004.002.002.003.003.005.005.002.001.003.003.005.004.001.002.003.003.004.005.002.001.003.003.005.004.001.002.003.003.004.005.002.001.003.003.005.004.001.002.003.003.004.005.002.001.003.003.005.004.001.002.003.003.004.005.002.001.003.003.005.004.001.002.003.003.004.005l.005.005c.001.001.003.003.004.004.002.002.003.003.005.005.001.001.003.003.004.004.002.002.003.003.005.005.001.001.003.003.005.004.001.002.003.003.004.005.002.001.003.003.005.004.001.002.003.003.004.005.002.001.003.003.005.004.001.002.003.003.004.005.002.001.003.003.005.004.001.002.003.003.004.005.002.001.003.003.005.004.001.002.003.003.004.005.002.001.003.003.005.005l.004.004c.002.002.003.003.005.005.001.001.003.003.004.004.002.002.003.003.005.005.001.001.003.003.004.004.002.002.004.003.005.005.002.001.003.003.005.004.001.002.003.003.004.005.002.001.003.003.005.004.001.002.003.003.004.005.002.001.003.003.005.004.001.002.003.003.004.005.002.001.003.003.005.004.001.002.003.003.004.005.002.001.003.003.005.004.001.002.003.004.004.005.002.002.003.003.005.005.001.001.003.003.004.004.002.002.003.003.005.005.001.001.003.003.004.004.002.002.003.003.005.005.002.001.003.003.005.004.001.002.003.003.004.005.002.001.003.003.005.004.001.002.003.003.004.005.002.001.003.003.005.004.001.002.003.003.004.005.002.001.003.003.005.004.001.002.003.003.004.005.002.001.003.003.005.004.001.002.003.003.004.005.002.002.003.003.005.005.001.001.003.003.004.004.002.002.003.003.005.005l.004.004c.002.002.003.003.005.005l.004.004c.002.002.004.003.005.005.002.001.003.003.005.004.001.002.003.003.004.005.002.001.003.003.005.004.001.002.003.003.004.005.002.001.003.003.005.004.001.002.003.003.004.005.002.001.003.003.005.004.001.002.003.003.004.005.002.001.003.003.005.005.001.001.003.003.004.004.002.002.003.003.005.005.001.001.003.003.004.004.002.002.003.003.005.005.001.001.003.003.004.004l.005.005c.002.001.003.003.005.004.001.002.003.003.004.005.002.001.003.003.005.004.001.002.003.003.004.005.002.001.003.003.005.004.001.002.003.003.004.005.002.001.003.003.005.004.001.002.003.003.004.005.002.001.003.003.005.004.001.002.003.003.004.005.002.002.003.003.005.005.001.001.003.003.004.004.002.002.003.003.005.005.001.001.003.003.004.004.002.002.003.003.005.005.001.001.003.003.005.004.001.002.003.003.004.005.002.001.003.003.005.004.001.002.003.003.004.005.002.001.003.003.005.004.001.002.003.003.004.005.002.001.003.003.005.004.001.002.003.003.004.005.002.001.003.003.005.004.001.002.003.003.004.005.002.001.003.003.005.005.001.001.003.003.004.004l.005.005c.001.001.003.003.004.004.002.002.003.003.005.005.001.001.003.003.004.004.002.002.004.003.005.005.002.001.003.003.005.004.001.002.003.003.004.005.002.001.003.003.005.004.001.002.003.003.004.005.002.001.003.003.005.004.001.002.003.003.004.005.002.001.003.003.005.004.001.002.003.003.004.005.002.001.003.003.005.004.001.002.003.004.004.005.002.002.003.003.005.005.001.001.003.003.004.004.002.002.003.003.005.005.001.001.003.003.004.004.002.002.003.003.005.005.002.001.003.003.005.004.001.002.003.003.004.005.002.001.003.003.005.004.001.002.003.003.004.005.002.001.003.003.005.004.001.002.003.003.004.005.002.001.003.003.005.004.001.002.003.003.004.005.002.001.003.003.005.004.001.002.003.003.004.005.002.002.003.003.005.005l.004.004c.002.002.003.003.005.005l.004.004c.002.002.003.003.005.005.001.001.003.003.005.004.001.002.003.003.004.005.002.001.003.003.005.004.001.002.003.003.004.005.002.001.003.003.005.004.001.002.003.003.004.005.002.001.003.003.005.004.001.002.003.003.004.005.002.001.003.003.005.004.001.002.003.003.004.005.002.001.003.003.005.005l.004.004c.002.002.003.003.005.005.001.001.003.003.004.004.002.002.003.003.005.005.001.001.003.003.004.004.002.002.004.003.005.005.002.001.003.003.005.004.001.002.003.003.004.005.002.001.003.003.005.004.001.002.003.003.004.005.002.001.003.003.005.004.001.002.003.003.004.005.002.001.003.003.005.004.001.002.003.003.004.005.002.001.003.003.005.004.001.002.003.004.004.005.002.002.003.003.005.005l.004.004c.002.002.003.003.005.005.001.001.003.003.004.004.002.002.003.003.005.005.002.001.003.003.005.004.001.002.003.003.004.005.002.001.003.003.005.004.001.002.003.003.004.005.002.001.003.003.005.004.001.002.003.003.004.005.002.001.003.003.005.004.001.002.003.003.004.005.002.001.003.003.005.004.001.002.003.003.004.005l.005.005c.001.001.003.003.004.004.002.002.003.003.005.005.001.001.003.003.004.004.002.002.003.003.005.005.001.001.003.003.005.004.001.002.003.003.004.005.002.001.003.003.005.004.001.002.003.003.004.005.002.001.003.003.005.004.001.002.003.003.004.005.002.001.003.003.005.004.001.002.003.003.004.005.002.001.003.003.005.004.001.002.003.003.004.005.002.001.003.003.005.005.001.001.003.003.004.004.002.002.003.003.005.005.001.001.003.003.004.004.002.002.003.003.005.005.001.001.003.003.004.004.002.002.004.003.005.005.002.001.003.003.005.004.001.002.003.003.004.005.002.001.003.003.005.004.001.002.003.003.004.005.002.001.003.003.005.004.001.002.003.003.004.005.002.001.003.003.005.004.001.002.003.003.004.005.002.001.003.003.005.004.001.002.003.004.004.005.002.002.003.003.005.005.001.001.003.003.004.004.002.002.003.003.005.005.001.001.003.003.004.004l.005.005c.002.001.003.003.005.004.001.002.003.003.004.005l1.414-1.414c-.001-.002-.003-.003-.004-.005-.002-.002-.003-.003-.005-.005-.001-.001-.003-.003-.004-.004-.002-.002-.003-.003-.005-.005-.001-.001-.003-.003-.004-.004-.002-.002-.003-.003-.005-.005-.001-.001-.003-.003-.004-.004-.002-.002-.003-.003-.005-.005-.001-.001-.003-.003-.005-.004-.001-.002-.003-.003-.004-.005-.002-.001-.003-.003-.005-.004-.001-.002-.003-.003-.004-.005-.002-.001-.003-.003-.005-.004-.001-.002-.003-.003-.004-.005-.002-.001-.003-.003-.005-.004-.001-.002-.003-.003-.004-.005-.002-.001-.003-.003-.005-.005-.001-.001-.003-.003-.004-.004-.002-.002-.003-.003-.005-.005-.001-.001-.003-.003-.004-.004-.002-.002-.003-.003-.005-.005-.001-.001-.003-.003-.004-.004-.002-.002-.003-.003-.005-.005-.001-.001-.003-.003-.004-.004-.002-.002-.004-.003-.005-.005-.002-.001-.003-.003-.005-.004-.001-.002-.003-.003-.004-.005-.002-.001-.003-.003-.005-.004-.001-.002-.003-.003-.004-.005-.002-.001-.003-.003-.005-.004-.001-.002-.003-.003-.004-.005-.002-.001-.003-.003-.005-.004-.001-.002-.003-.004-.004-.005-.002-.002-.003-.003-.005-.005-.001-.001-.003-.003-.004-.004-.002-.002-.003-.003-.005-.005-.001-.001-.003-.003-.004-.004-.002-.002-.003-.003-.005-.005-.001-.001-.003-.003-.004-.004-.002-.002-.003-.003-.005-.005-.002-.001-.003-.003-.005-.004-.001-.002-.003-.003-.004-.005-.002-.001-.003-.003-.005-.004-.001-.002-.003-.003-.004-.005-.002-.001-.003-.003-.005-.004-.001-.002-.003-.003-.004-.005-.002-.001-.003-.003-.005-.004-.001-.002-.003-.003-.004-.005-.002-.002-.003-.003-.005-.005-.001-.001-.003-.003-.004-.004-.002-.002-.003-.003-.005-.005-.001-.001-.003-.003-.004-.004-.002-.002-.003-.003-.005-.005-.001-.001-.003-.003-.004-.004-.002-.002-.003-.003-.005-.005-.001-.001-.003-.003-.005-.004-.001-.002-.003-.003-.004-.005-.002-.001-.003-.003-.005-.004-.001-.002-.003-.003-.004-.005-.002-.001-.003-.003-.005-.004-.001-.002-.003-.003-.004-.005-.002-.001-.003-.003-.005-.004-.001-.002-.003-.003-.004-.005-.002-.001-.003-.003-.005-.005-.001-.001-.003-.003-.004-.004-.002-.002-.003-.003-.005-.005-.001-.001-.003-.003-.004-.004-.002-.002-.003-.003-.005-.005-.001-.001-.003-.003-.004-.004-.002-.002-.003-.003-.005-.005-.001-.001-.003-.003-.004-.004-.002-.002-.004-.003-.005-.005-.002-.001-.003-.003-.005-.004-.001-.002-.003-.003-.004-.005-.002-.001-.003-.003-.005-.004-.001-.002-.003-.003-.004-.005-.002-.001-.003-.003-.005-.004-.001-.002-.003-.003-.004-.005-.002-.001-.003-.003-.005-.004-.001-.002-.003-.004-.004-.005-.002-.002-.003-.003-.005-.005-.001-.001-.003-.003-.004-.004-.002-.002-.003-.003-.005-.005-.001-.001-.003-.003-.004-.004-.002-.002-.003-.003-.005-.005-.001-.001-.003-.003-.004-.004-.002-.002-.003-.003-.005-.005-.002-.001-.003-.003-.005-.004-.001-.002-.003-.003-.004-.005-.002-.001-.003-.003-.005-.004-.001-.002-.003-.003-.004-.005-.002-.001-.003-.003-.005-.004-.001-.002-.003-.003-.004-.005-.002-.001-.003-.003-.005-.004-.001-.002-.003-.003-.004-.005-.002-.002-.003-.003-.005-.005-.001-.001-.003-.003-.004-.004-.002-.002-.003-.003-.005-.005-.001-.001-.003-.003-.004-.004-.002-.002-.003-.003-.005-.005-.001-.001-.003-.003-.004-.004-.002-.002-.003-.003-.005-.005-.001-.001-.003-.003-.005-.004-.001-.002-.003-.003-.004-.005-.002-.001-.003-.003-.005-.004-.001-.002-.003-.003-.004-.005-.002-.001-.003-.003-.005-.004-.001-.002-.003-.003-.004-.005-.002-.001-.003-.003-.005-.004-.001-.002-.003-.003-.004-.005-.002-.001-.003-.003-.005-.005-.001-.001-.003-.003-.004-.004-.002-.002-.003-.003-.005-.005-.001-.001-.003-.003-.004-.004-.002-.002-.003-.003-.005-.005-.001-.001-.003-.003-.004-.004-.002-.002-.003-.003-.005-.005-.001-.001-.003-.003-.004-.004-.002-.002-.004-.003-.005-.005-.002-.001-.003-.003-.005-.004-.001-.002-.003-.003-.004-.005-.002-.001-.003-.003-.005-.004-.001-.002-.003-.003-.004-.005-.002-.001-.003-.003-.005-.004-.001-.002-.003-.003-.004-.005-.002-.001-.003-.003-.005-.004-.001-.002-.003-.004-.004-.005-.002-.002-.003-.003-.005-.005-.001-.001-.003-.003-.004-.004-.002-.002-.003-.003-.005-.005-.001-.001-.003-.003-.004-.004-.002-.002-.003-.003-.005-.005-.001-.001-.003-.003-.004-.004-.002-.002-.003-.003-.005-.005-.002-.001-.003-.003-.005-.004-.001-.002-.003-.003-.004-.005-.002-.001-.003-.003-.005-.004-.001-.002-.003-.003-.004-.005-.002-.001-.003-.003-.005-.004-.001-.002-.003-.003-.004-.005-.002-.001-.003-.003-.005-.004-.001-.002-.003-.003-.004-.005-.002-.002-.003-.003-.005-.005-.001-.001-.003-.003-.004-.004-.002-.002-.003-.003-.005-.005-.001-.001-.003-.003-.004-.004-.002-.002-.003-.003-.005-.005-.001-.001-.003-.003-.004-.004-.002-.002-.003-.003-.005-.005-.001-.001-.003-.003-.005-.004-.001-.002-.003-.003-.004-.005-.002-.001-.003-.003-.005-.004-.001-.002-.003-.003-.004-.005-.002-.001-.003-.003-.005-.004-.001-.002-.003-.003-.004-.005-.002-.001-.003-.003-.005-.004-.001-.002-.003-.003-.004-.005-.002-.001-.003-.003-.005-.005-.001-.001-.003-.003-.004-.004-.002-.002-.003-.003-.005-.005-.001-.001-.003-.003-.004-.004-.002-.002-.003-.003-.005-.005-.001-.001-.003-.003-.004-.004-.002-.002-.003-.003-.005-.005-.001-.001-.003-.003-.004-.004-.002-.002-.003-.003-.005-.005-.002-.001-.003-.003-.005-.004-.001-.002-.003-.003-.004-.005-.002-.001-.003-.003-.005-.004-.001-.002-.003-.003-.004-.005-.002-.001-.003-.003-.005-.004-.001-.002-.003-.003-.004-.005-.002-.001-.003-.003-.005-.004-.001-.002-.003-.003-.004-.005-.002-.002-.003-.003-.005-.005-.001-.001-.003-.003-.004-.004-.002-.002-.003-.003-.005-.005-.001-.001-.003-.003-.004-.004-.002-.002-.003-.003-.005-.005-.001-.001-.003-.003-.004-.004-.002-.002-.003-.003-.005-.005-.001-.001-.003-.003-.005-.004-.001-.002-.003-.003-.004-.005-.002-.001-.003-.003-.005-.004-.001-.002-.003-.003-.004-.005-.002-.001-.003-.003-.005-.004-.001-.002-.003-.003-.004-.005-.002-.001-.003-.003-.005-.004-.001-.002-.003-.003-.004-.005-.002-.001-.003-.003-.005-.005-.001-.001-.003-.003-.004-.004-.002-.002-.003-.003-.005-.005-.001-.001-.003-.003-.004-.004-.002-.002-.003-.003-.005-.005-.001-.001-.003-.003-.004-.004-.002-.002-.003-.003-.005-.005-.001-.001-.003-.003-.004-.004-.002-.002-.004-.003-.005-.005-.002-.001-.003-.003-.005-.004-.001-.002-.003-.003-.004-.005-.002-.001-.003-.003-.005-.004-.001-.002-.003-.003-.004-.005-.002-.001-.003-.003-.005-.004-.001-.002-.003-.003-.004-.005-.002-.001-.003-.003-.005-.004-.001-.002-.003-.004-.004-.005-.002-.002-.003-.003-.005-.005-.001-.001-.003-.003-.004-.004-.002-.002-.003-.003-.005-.005-.001-.001-.003-.003-.004-.004-.002-.002-.003-.003-.005-.005-.001-.001-.003-.003-.004-.004-.002-.002-.003-.003-.005-.005-.002-.001-.003-.003-.005-.004-.001-.002-.003-.003-.004-.005-.002-.001-.003-.003-.005-.004-.001-.002-.003-.003-.004-.005-.002-.001-.003-.003-.005-.004-.001-.002-.003-.003-.004-.005-.002-.001-.003-.003-.005-.004-.001-.002-.003-.003-.004-.005-.002-.002-.003-.003-.005-.005-.001-.001-.003-.003-.004-.004-.002-.002-.003-.003-.005-.005-.001-.001-.003-.003-.004-.004-.002-.002-.003-.003-.005-.005-.001-.001-.003-.003-.004-.004-.002-.002-.003-.003-.005-.005-.001-.001-.003-.003-.005-.004-.001-.002-.003-.003-.004-.005-.002-.001-.003-.003-.005-.004-.001-.002-.003-.003-.004-.005-.002-.001-.003-.003-.005-.004-.001-.002-.003-.003-.004-.005-.002-.001-.003-.003-.005-.004-.001-.002-.003-.003-.004-.005-.002-.001-.003-.003-.005-.005-.001-.001-.003-.003-.004-.004-.002-.002-.003-.003-.005-.005-.001-.001-.003-.003-.004-.004-.002-.002-.003-.003-.005-.005-.001-.001-.003-.003-.004-.004-.002-.002-.003-.003-.005-.005-.001-.001-.003-.003-.004-.004-.002-.002-.004-.003-.005-.005-.002-.001-.003-.003-.005-.004-.001-.002-.003-.003-.004-.005-.002-.001-.003-.003-.005-.004-.001-.002-.003-.003-.004-.005-.002-.001-.003-.003-.005-.004-.001-.002-.003-.003-.004-.005-.002-.001-.003-.003-.005-.004-.001-.002-.003-.004-.004-.005-.002-.002-.003-.003-.005-.005-.001-.001-.003-.003-.004-.004-.002-.002-.003-.003-.005-.005-.001-.001-.003-.003-.004-.004-.002-.002-.003-.003-.005-.005-.001-.001-.003-.003-.004-.004-.002-.002-.003-.003-.005-.005-.002-.001-.003-.003-.005-.004-.001-.002-.003-.003-.004-.005-.002-.001-.003-.003-.005-.004-.001-.002-.003-.003-.004-.005-.002-.001-.003-.003-.005-.004-.001-.002-.003-.003-.004-.005-.002-.001-.003-.003-.005-.004-.001-.002-.003-.003-.004-.005-.002-.002-.003-.003-.005-.005-.001-.001-.003-.003-.004-.004-.002-.002-.003-.003-.005-.005-.001-.001-.003-.003-.004-.004-.002-.002-.003-.003-.005-.005-.001-.001-.003-.003-.004-.004-.002-.002-.003-.003-.005-.005-.001-.001-.003-.003-.005-.004-.001-.002-.003-.003-.004-.005-.002-.001-.003-.003-.005-.004-.001-.002-.003-.003-.004-.005-.002-.001-.003-.003-.005-.004-.001-.002-.003-.003-.004-.005-.002-.001-.003-.003-.005-.004-.001-.002-.003-.003-.004-.005-.002-.001-.003-.003-.005-.005-.001-.001-.003-.003-.004-.004-.002-.002-.003-.003-.005-.005-.001-.001-.003-.003-.004-.004-.002-.002-.003-.003-.005-.005-.001-.001-.003-.003-.004-.004-.002-.002-.003-.003-.005-.005-.001-.001-.003-.003-.004-.004-.002-.002-.004-.003-.005-.005-.002-.001-.003-.003-.005-.004-.001-.002-.003-.003-.004-.005-.002-.001-.003-.003-.005-.004-.001-.002-.003-.003-.004-.005-.002-.001-.003-.003-.005-.004-.001-.002-.003-.003-.004-.005-.002-.001-.003-.003-.005-.004-.001-.002-.003-.004-.004-.005-.002-.002-.003-.003-.005-.005-.001-.001-.003-.003-.004-.004-.002-.002-.003-.003-.005-.005-.001-.001-.003-.003-.004-.004-.002-.002-.003-.003-.005-.005-.001-.001-.003-.003-.004-.004-.002-.002-.003-.003-.005-.005-.002-.001-.003-.003-.005-.004-.001-.002-.003-.003-.004-.005-.002-.001-.003-.003-.005-.004-.001-.002-.003-.003-.004-.005-.002-.001-.003-.003-.005-.004-.001-.002-.003-.003-.004-.005-.002-.001-.003-.003-.005-.004-.001-.002-.003-.003-.004-.005-.002-.002-.003-.003-.005-.005-.001-.001-.003-.003-.004-.004-.002-.002-.003-.003-.005-.005-.001-.001-.003-.003-.004-.004-.002-.002-.003-.003-.005-.005-.001-.001-.003-.003-.004-.004-.002-.002-.003-.003-.005-.005-.001-.001-.003-.003-.005-.004-.001-.002-.003-.003-.004-.005-.002-.001-.003-.003-.005-.004-.001-.002-.003-.003-.004-.005-.002-.001-.003-.003-.005-.004-.001-.002-.003-.003-.004-.005-.002-.001-.003-.003-.005-.004-.001-.002-.003-.003-.004-.005-.002-.001-.003-.003-.005-.005-.001-.001-.003-.003-.004-.004-.002-.002-.003-.003-.005-.005-.001-.001-.003-.003-.004-.004-.002-.002-.003-.003-.005-.005-.001-.001-.003-.003-.004-.004-.002-.002-.003-.003-.005-.005-.001-.001-.003-.003-.004-.004-.002-.002-.004-.003-.005-.005-.002-.001-.003-.003-.005-.004-.001-.002-.003-.003-.004-.005-.002-.001-.003-.003-.005-.004-.001-.002-.003-.003-.004-.005-.002-.001-.003-.003-.005-.004-.001-.002-.003-.003-.004-.005-.002-.001-.003-.003-.005-.004-.001-.002-.003-.004-.004-.005-.002-.002-.003-.003-.005-.005-.001-.001-.003-.003-.004-.004-.002-.002-.003-.003-.005-.005-.001-.001-.003-.003-.004-.004-.002-.002-.003-.003-.005-.005-.001-.001-.003-.003-.004-.004-.002-.002-.003-.003-.005-.005-.002-.001-.003-.003-.005-.004-.001-.002-.003-.003-.004-.005-.002-.001-.003-.003-.005-.004-.001-.002-.003-.003-.004-.005-.002-.001-.003-.003-.005-.004-.001-.002-.003-.003-.004-.005-.002-.001-.003-.003-.005-.004-.001-.002-.003-.003-.004-.005-.002-.002-.003-.003-.005-.005-.001-.001-.003-.003-.004-.004-.002-.002-.003-.003-.005-.005-.001-.001-.003-.003-.004-.004-.002-.002-.003-.003-.005-.005-.001-.001-.003-.003-.004-.004-.002-.002-.003-.003-.005-.005-.001-.001-.003-.003-.005-.004-.001-.002-.003-.003-.004-.005-.002-.001-.003-.003-.005-.004-.001-.002-.003-.003-.004-.005-.002-.001-.003-.003-.005-.004-.001-.002-.003-.003-.004-.005-.002-.001-.003-.003-.005-.004-.001-.002-.003-.003-.004-.005-.002-.001-.003-.003-.005-.005-.001-.001-.003-.003-.004-.004-.002-.002-.003-.003-.005-.005-.001-.001-.003-.003-.004-.004-.002-.002-.003-.003-.005-.005-.001-.001-.003-.003-.004-.004-.002-.002-.003-.003-.005-.005-.001-.001-.003-.003-.004-.004-.002-.002-.004-.003-.005-.005-.002-.001-.003-.003-.005-.004-.001-.002-.003-.003-.004-.005-.002-.001-.003-.003-.005-.004-.001-.002-.003-.003-.004-.005-.002-.001-.003-.003-.005-.004-.001-.002-.003-.003-.004-.005-.002-.001-.003-.003-.005-.004-.001-.002-.003-.004-.004-.005-.002-.002-.003-.003-.005-.005-.001-.001-.003-.003-.004-.004-.002-.002-.003-.003-.005-.005-.001-.001-.003-.003-.004-.004-.002-.002-.003-.003-.005-.005-.001-.001-.003-.003-.004-.004-.002-.002-.003-.003-.005-.005-.002-.001-.003-.003-.005-.004-.001-.002-.003-.003-.004-.005-.002-.001-.003-.003-.005-.004-.001-.002-.003-.003-.004-.005-.002-.001-.003-.003-.005-.004-.001-.002-.003-.003-.004-.005-.002-.001-.003-.003-.005-.004-.001-.002-.003-.003-.004-.005-.002-.002-.003-.003-.005-.005-.001-.001-.003-.003-.004-.004-.002-.002-.003-.003-.005-.005-.001-.001-.003-.003-.004-.004-.002-.002-.003-.003-.005-.005-.001-.001-.003-.003-.004-.004-.002-.002-.003-.003-.005-.005-.001-.001-.003-.003-.005-.004-.001-.002-.003-.003-.004-.005-.002-.001-.003-.003-.005-.004-.001-.002-.003-.003-.004-.005-.002-.001-.003-.003-.005-.004-.001-.002-.003-.003-.004-.005-.002-.001-.003-.003-.005-.004-.001-.002-.003-.003-.004-.005-.002-.001-.003-.003-.005-.005-.001-.001-.003-.003-.004-.004-.002-.002-.003-.003-.005-.005-.001-.001-.003-.003-.004-.004-.002-.002-.003-.003-.005-.005-.001-.001-.003-.003-.004-.004-.002-.002-.003-.003-.005-.005-.001-.001-.003-.003-.004-.004-.002-.002-.004-.003-.005-.005-.002-.001-.003-.003-.005-.004-.001-.002-.003-.003-.004-.005-.002-.001-.003-.003-.005-.004-.001-.002-.003-.003-.004-.005-.002-.001-.003-.003-.005-.004-.001-.002-.003-.003-.004-.005-.002-.001-.003-.003-.005-.004-.001-.002-.003-.004-.004-.005-.002-.002-.003-.003-.005-.005-.001-.001-.003-.003-.004-.004-.002-.002-.003-.003-.005-.005-.001-.001-.003-.003-.004-.004-.002-.002-.003-.003-.005-.005-.001-.001-.003-.003-.004-.004-.002-.002-.003-.003-.005-.005-.002-.001-.003-.003-.005-.004-.001-.002-.003-.003-.004-.005-.002-.001-.003-.003-.005-.004-.001-.002-.003-.003-.004-.005-.002-.001-.003-.003-.005-.004-.001-.002-.003-.003-.004-.005-.002-.001-.003-.003-.005-.004-.001-.002-.003-.003-.004-.005-.002-.002-.003-.003-.005-.005-.001-.001-.003-.003-.004-.004-.002-.002-.003-.003-.005-.005-.001-.001-.003-.003-.004-.004-.002-.002-.003-.003-.005-.005-.001-.001-.003-.003-.004-.004-.002-.002-.003-.003-.005-.005-.001-.001-.003-.003-.005-.004-.001-.002-.003-.003-.004-.005-.002-.001-.003-.003-.005-.004-.001-.002-.003-.003-.004-.005-.002-.001-.003-.003-.005-.004-.001-.002-.003-.003-.004-.005-.002-.001-.003-.003-.005-.004-.001-.002-.003-.003-.004-.005-.002-.001-.003-.003-.005-.005-.001-.001-.003-.003-.004-.004-.002-.002-.003-.003-.005-.005-.001-.001-.003-.003-.004-.004-.002-.002-.003-.003-.005-.005-.001-.001-.003-.003-.004-.004-.002-.002-.003-.003-.005-.005-.001-.001-.003-.003-.004-.004-.002-.002-.004-.003-.005-.005-.002-.001-.003-.003-.005-.004-.001-.002-.003-.003-.004-.005-.002-.001-.003-.003-.005-.004-.001-.002-.003-.003-.004-.005-.002-.001-.003-.003-.005-.004-.001-.002-.003-.003-.004-.005-.002-.001-.003-.003-.005-.004-.001-.002-.003-.004-.004-.005-.002-.002-.003-.003-.005-.005-.001-.001-.003-.003-.004-.004-.002-.002-.003-.003-.005-.005-.001-.001-.003-.003-.004-.004-.002-.002-.003-.003-.005-.005-.001-.001-.003-.003-.004-.004-.002-.002-.003-.003-.005-.005-.002-.001-.003-.003-.005-.004-.001-.002-.003-.003-.004-.005-.002-.001-.003-.003-.005-.004-.001-.002-.003-.003-.004-.005-.002-.001-.003-.003-.005-.004-.001-.002-.003-.003-.004-.005-.002-.001-.003-.003-.005-.004-.001-.002-.003-.003-.004-.005-.002-.002-.003-.003-.005-.005-.001-.001-.003-.003-.004-.004-.002-.002-.003-.003-.005-.005-.001-.001-.003-.003-.004-.004-.002-.002-.003-.003-.005-.005-.001-.001-.003-.003-.004-.004-.002-.002-.003-.003-.005-.005-.001-.001-.003-.003-.005-.004-.001-.002-.003-.003-.004-.005zm2.416.822c-10.318 7.963-21.149 15.156-32.495 21.578l.985 1.74c11.428-6.469 22.339-13.714 32.732-21.735zm36.64 20.579-.991-.13-.009.065v.065zm1.676-1.612.087-.996-.087-.007-.086.007zm1.676 1.612h1v-.065l-.008-.065zm.064 1.547-.996.083 1.996-.083zm-.064-.387.949-.316-1.934.49zm.58 2.191h1v-.171l-.057-.162zm.065.258.928-.371-.015-.039-.019-.037zm.064.129.949-.316-.043-.127-.074-.112zm.709 1.354.903-.43-.025-.052-.03-.048zm-.58 2.255.414.911.095-.044.084-.062zm-2.32-.58-.856.517.023.04.028.037zm-28.102-30.293-.919-.394-.008.018-.007.019zm2.063-1.16.378-.925-.12-.05-.129-.016zm1.16 2.063.932.36.036-.092.017-.097zm-10.571 24.621.805.593.058-.078.041-.087zm-2.32.644-.614.79.108.084.127.052zm-.58-2.32-.902-.431-.013.026-.011.026zm-.773 2.449-.08.997.063.005.063-.003zm0-3.351-.043-.999-.078.003-.076.015zm39.252-.452.062-.998-.021-.001h-.022zm1.353.903-.933.359.017.045.022.043zm0 1.611-.908-.419-.008.017-.007.018zm-1.353.838-.023 1 .042.001.043-.003zm2.707-26.812-.94-.342-.004.01zm2.062-1.161.342-.939-.087-.032-.091-.015zm1.16 2.063.942.336.03-.084.015-.088zm-8.959 24.105.919.394.007-.016.007-.017zm-2.062 1.161-.379.925.12.049.129.017zm-1.16-2.063-.931-.365-.037.094-.018.1zm-5.479-25.33-.805-.593-.067.09-.045.104zm2.32-.58.614-.789-.093-.073-.107-.048zm.58 2.32.885.466.023-.043.018-.044zm-1.16 2.514.904.428.013-.028.012-.029zm-.902 2.062.929.371.004-.012zm-8.637 20.819.826.564.054-.079.038-.089zm-2.256.644-.593.805.1.074.115.047zm-.58-2.32.911.414.002-.006zm3.158-7.283.922.388.006-.014.005-.013zm18.201 7.67c.044-.334.144-.482.217-.552.073-.071.223-.164.554-.192l-.173-1.993c-.657.057-1.281.276-1.767.743-.485.466-.729 1.081-.814 1.735zm.598-.744c.331.028.48.121.553.192.074.07.174.218.217.552l1.984-.259c-.086-.654-.329-1.269-.814-1.735-.486-.467-1.11-.686-1.767-.743zm.762.615c0 .543.023 1.087.068 1.63l1.993-.166c-.041-.489-.061-.976-.061-1.464zm2.064 1.547c0-.242-.04-.478-.115-.703l-1.898.632c.011.033.013.055.013.071zm-2.049-.213c.139.787.347 1.57.622 2.35l1.886-.666c-.24-.68-.419-1.358-.538-2.032zm.565 2.017c0 .259.066.497.17.705l1.789-.894c.018.036.041.102.041.189zm.136.63c.035.088.081.201.115.269.005.01.023.046.049.089.011.017.044.07.097.13.025.028.081.089.165.15.063.046.274.192.588.192.412 0 .704-.239.848-.471.114-.181.138-.35.145-.406.016-.129.002-.231 0-.25-.008-.064-.021-.114-.024-.124-.013-.054-.033-.113-.041-.138l-1.898.632c.013.039.007.024-.001-.009-.001-.005-.013-.051-.021-.112-.002-.017-.016-.119 0-.247.007-.056.031-.224.144-.406.145-.231.437-.469.848-.469.314 0 .525.145.588.191.084.061.139.121.164.15.052.059.085.111.094.127.025.039.041.071.044.076.012.025.004.009-.047-.117zm1.825-.798c-.023-.034-.059-.088-.099-.138-.002-.002-.077-.101-.193-.189-.036-.026-.111-.079-.218-.124-.092-.038-.329-.122-.628-.047-.358.09-.574.344-.672.565-.082.183-.086.344-.086.407 0 .136.028.24.034.264.011.041.023.074.03.093.014.039.028.073.038.094.02.045.044.094.068.142l1.788-.895c-.009-.018-.015-.032-.021-.043-.002-.005-.004-.009-.006-.012-.001-.003-.002-.004-.002-.004.001 0 .001 0 .001.002.001.001.002.003.003.005.001.004.005.014.01.028.005.011.014.038.024.075.005.018.033.119.033.251 0 .063-.005.222-.086.405-.098.22-.313.474-.671.563-.298.075-.534-.008-.626-.047-.105-.043-.179-.096-.213-.122-.071-.052-.117-.102-.13-.116-.019-.021-.033-.038-.039-.046-.019-.023-.023-.032-.003-.001zm-1.726 1.067v.001s.001.001.001.001v.001s.001.001.001.001v.001s.001.001.001.001v.001s.001.001.001.001v.001s.001.001.001.001v.001s.001.001.001.001v.001s.001.001.001.001v.001s.001.001.001.001v.001s.001.001.001.001v.001c0 .001.001.001.001.001v.001c0 .001.001.001.001.001v.001c.001.001.001.001.001.001v.001c.001.001.001.001.001.001v.001c.001.001.001.001.001.001v.001c.001.001.001.001.001.001v.001c.001.001.001.001.001.001v.001c.001.001.001.001.001.001v.001c.001.001.001.001.001.001v.001c.001.001.001.001.001.001v.001c.001.001.001.001.001.001v.001c.001.001.001.001.001.001v.001.001h.001v.001.001h.001v.001s0 0 .001.001v.001s0 0 .001.001v.001s0 0 .001.001v.001s0 0 .001.001v.001s0 0 .001.001v.001s0 0 .001.001v.001s0 0 .001.001v.001s0 0 .001.001v.001s0 0 .001.001v.001s0 0 .001.001v.001s0 .001.001.001v.001s.001.001.001.001v.001s.001.001.001.001v.001s.001.001.001.001v.001s.001.001.001.001v.001s.001.001.001.001v.001s.001.001.001.001v.001s.001.001.001.001v.001s.001.001.001.001v.001s.001.001.001.001v.001s.001.001.001.001v.001s.001.001.001.001v.001c0 .001.001.001.001.001v.001c.001.001.001.001.001.001v.001c.001.001.001.001.001.001v.001c.001.001.001.001.001.001v.001c.001.001.001.001.001.001v.001c.001.001.001.001.001.001v.001c.001.001.001.001.001.001v.001c.001.001.001.001.001.001v.001c.001.001.001.001.001.001v.001c.001.001.001.001.001.001v.001c.001.001.001.001.001.001v.001c.001.001.001.001.001.001v.001.001h.001v.001s0 0 .001.001v.001s0 0 .001.001v.001s0 0 .001.001v.001s0 0 .001.001v.001s0 0 .001.001v.001s0 0 .001.001v.001s0 0 .001.001v.001s0 0 .001.001v.001s0 0 .001.001v.001s0 0 .001.001v.001s0 .001.001.001v.001s0 .001.001.001v.001s.001.001.001.001v.001s.001.001.001.001v.001s.001.001.001.001v.001s.001.001.001.001v.001s.001.001.001.001v.001s.001.001.001.001v.001s.001.001.001.001v.001s.001.001.001.001v.001s.001.001.001.001v.001s.001.001.001.001v.001c0 .001.001.001.001.001v.001c0 .001.001.001.001.001v.001c.001.001.001.001.001.001v.001c.001.001.001.001.001.001v.001c.001.001.001.001.001.001v.001c.001.001.001.001.001.001v.001c.001.001.001.001.001.001v.001c.001.001.001.001.001.001v.001c.001.001.001.001.001.001v.001c.001.001.001.001.001.001v.001c.001.001.001.001.001.001v.001c.001.001.001.001.001.001v.001.001h.001v.001.001h.001v.001s0 0 .001.001v.001s0 0 .001.001v.001s0 0 .001.001v.001s0 0 .001.001v.001s0 0 .001.001v.001s0 0 .001.001v.001s0 0 .001.001v.001s0 0 .001.001v.001s0 0 .001.001v.001s0 0 .001.001v.001s0 .001.001.001v.001s0 .001.001.001v.001s.001.001.001.001v.001s.001.001.001.001v.001s.001.001.001.001v.001s.001.001.001.001v.001s.001.001.001.001v.001s.001.001.001.001v.001s.001.001.001.001v.001s.001.001.001.001v.001s.001.001.001.001v.001s.001.001.001.001v.001c0 .001.001.001.001.001v.001c.001.001.001.001.001.001v.001c.001.001.001.001.001.001v.001c.001.001.001.001.001.001v.001c.001.001.001.001.001.001v.001c.001.001.001.001.001.001v.001c.001.001.001.001.001.001v.001c.001.001.001.001.001.001v.001c.001.001.001.001.001.001v.001c.001.001.001.001.001.001v.001c.001.001.001.001.001.001v.001c.001.001.001.001.001.001v.001.001l1.789-.895c0-.001 0-.001 0-.001 0-.001-.001-.001-.001-.001 0-.001 0-.001 0-.001 0-.001-.001-.001-.001-.001 0-.001 0-.001 0-.001-.001-.001-.001-.001-.001-.001 0-.001 0-.001 0-.001-.001-.001-.001-.001-.001-.001 0-.001 0-.001 0-.001-.001-.001-.001-.001-.001-.001 0-.001 0-.001 0-.001-.001-.001-.001-.001-.001-.001s0 0 0-.001 0 0 0-.001c-.001 0-.001 0-.001 0s0 0 0-.001 0 0 0-.001c-.001 0-.001 0-.001 0s0 0 0-.001 0 0 0-.001c-.001 0-.001 0-.001 0s0 0 0-.001 0 0 0-.001c-.001 0-.001 0-.001 0s0 0 0-.001 0 0 0-.001c-.001 0-.001 0-.001 0s0 0 0-.001 0 0 0-.001c-.001 0-.001 0-.001 0s0 0 0-.001 0 0 0-.001c-.001 0-.001 0-.001 0s0 0 0-.001 0 0 0-.001c-.001 0-.001 0-.001 0s0 0 0-.001 0 0-.001-.001 0 0 0-.001 0 0-.001-.001 0 0 0-.001 0 0-.001-.001 0 0 0-.001 0-.001-.001-.001v-.001s0-.001-.001-.001v-.001s0-.001-.001-.001v-.001s0-.001-.001-.001v-.001s0-.001-.001-.001v-.001s0-.001-.001-.001v-.001s0-.001-.001-.001v-.001s0-.001-.001-.001v-.001s0-.001-.001-.001v-.001s-.001-.001-.001-.001v-.001s-.001-.001-.001-.001v-.001s-.001-.001-.001-.001v-.001c0-.001-.001-.001-.001-.001 0-.001 0-.001 0-.001 0-.001-.001-.001-.001-.001 0-.001 0-.001 0-.001 0-.001-.001-.001-.001-.001 0-.001 0-.001 0-.001 0-.001-.001-.001-.001-.001 0-.001 0-.001 0-.001 0-.001-.001-.001-.001-.001 0-.001 0-.001 0-.001 0-.001-.001-.001-.001-.001 0-.001 0-.001 0-.001 0-.001-.001-.001-.001-.001 0-.001 0-.001 0-.001 0-.001-.001-.001-.001-.001 0-.001 0-.001 0-.001-.001-.001-.001-.001-.001-.001 0-.001 0-.001 0-.001-.001-.001-.001-.001-.001-.001 0-.001 0-.001 0-.001-.001-.001-.001-.001-.001-.001 0-.001 0-.001 0-.001-.001-.001-.001-.001-.001-.001 0-.001 0-.001 0-.001s0 0 0-.001c-.001 0-.001 0-.001 0s0 0 0-.001 0 0 0-.001c-.001 0-.001 0-.001 0s0 0 0-.001 0 0 0-.001c-.001 0-.001 0-.001 0s0 0 0-.001 0 0 0-.001c-.001 0-.001 0-.001 0s0 0 0-.001 0 0 0-.001c-.001 0-.001 0-.001 0s0 0 0-.001 0 0 0-.001c-.001 0-.001 0-.001 0s0 0 0-.001 0 0 0-.001c-.001 0-.001 0-.001 0s0 0 0-.001 0 0 0-.001c-.001 0-.001 0-.001 0s0 0 0-.001 0 0-.001-.001 0 0 0-.001 0 0-.001-.001 0 0 0-.001 0 0-.001-.001 0 0 0-.001 0 0-.001-.001 0 0 0-.001 0-.001-.001-.001v-.001s0-.001-.001-.001v-.001s0-.001-.001-.001v-.001s0-.001-.001-.001v-.001s0-.001-.001-.001v-.001s0-.001-.001-.001v-.001s0-.001-.001-.001v-.001s0-.001-.001-.001v-.001s-.001-.001-.001-.001v-.001s-.001-.001-.001-.001v-.001s-.001-.001-.001-.001v-.001s-.001-.001-.001-.001c0-.001 0-.001 0-.001 0-.001-.001-.001-.001-.001 0-.001 0-.001 0-.001 0-.001-.001-.001-.001-.001 0-.001 0-.001 0-.001 0-.001-.001-.001-.001-.001 0-.001 0-.001 0-.001 0-.001-.001-.001-.001-.001 0-.001 0-.001 0-.001 0-.001-.001-.001-.001-.001 0-.001 0-.001 0-.001 0-.001-.001-.001-.001-.001 0-.001 0-.001 0-.001 0-.001-.001-.001-.001-.001 0-.001 0-.001 0-.001 0-.001-.001-.001-.001-.001 0-.001 0-.001 0-.001-.001-.001-.001-.001-.001-.001 0-.001 0-.001 0-.001-.001-.001-.001-.001-.001-.001 0-.001 0-.001 0-.001-.001-.001-.001-.001-.001-.001 0-.001 0-.001 0-.001-.001-.001-.001-.001-.001-.001s0 0 0-.001 0 0 0-.001c-.001 0-.001 0-.001 0s0 0 0-.001 0 0 0-.001c-.001 0-.001 0-.001 0s0 0 0-.001 0 0 0-.001c-.001 0-.001 0-.001 0s0 0 0-.001 0 0 0-.001c-.001 0-.001 0-.001 0s0 0 0-.001 0 0 0-.001c-.001 0-.001 0-.001 0s0 0 0-.001 0 0 0-.001c-.001 0-.001 0-.001 0s0 0 0-.001 0 0 0-.001c-.001 0-.001 0-.001 0s0 0 0-.001 0 0 0-.001c-.001 0-.001 0-.001 0s0 0 0-.001 0 0-.001-.001 0 0 0-.001 0 0-.001-.001 0 0 0-.001 0 0-.001-.001 0 0 0-.001 0 0-.001-.001v-.001s0-.001-.001-.001v-.001s0-.001-.001-.001v-.001s0-.001-.001-.001v-.001s0-.001-.001-.001v-.001s0-.001-.001-.001v-.001s0-.001-.001-.001v-.001s0-.001-.001-.001v-.001s0-.001-.001-.001v-.001s-.001-.001-.001-.001v-.001s-.001-.001-.001-.001v-.001s-.001-.001-.001-.001v-.001c0-.001-.001-.001-.001-.001 0-.001 0-.001 0-.001 0-.001-.001-.001-.001-.001 0-.001 0-.001 0-.001 0-.001-.001-.001-.001-.001 0-.001 0-.001 0-.001 0-.001-.001-.001-.001-.001 0-.001 0-.001 0-.001 0-.001-.001-.001-.001-.001 0-.001 0-.001 0-.001 0-.001-.001-.001-.001-.001 0-.001 0-.001 0-.001 0-.001-.001-.001-.001-.001 0-.001 0-.001 0-.001 0-.001-.001-.001-.001-.001 0-.001 0-.001 0-.001 0-.001-.001-.001-.001-.001 0-.001 0-.001 0-.001-.001-.001-.001-.001-.001-.001 0-.001 0-.001 0-.001-.001-.001-.001-.001-.001-.001 0-.001 0-.001 0-.001-.001-.001-.001-.001-.001-.001 0-.001 0-.001 0-.001s0 0 0-.001c-.001 0-.001 0-.001 0s0 0 0-.001 0 0 0-.001c-.001 0-.001 0-.001 0s0 0 0-.001 0 0 0-.001c-.001 0-.001 0-.001 0s0 0 0-.001 0 0 0-.001c-.001 0-.001 0-.001 0s0 0 0-.001 0 0 0-.001c-.001 0-.001 0-.001 0s0 0 0-.001 0 0 0-.001c-.001 0-.001 0-.001 0s0 0 0-.001 0 0 0-.001c-.001 0-.001 0-.001 0s0 0 0-.001 0 0 0-.001c-.001 0-.001 0-.001 0s0 0 0-.001 0 0-.001-.001 0 0 0-.001 0 0-.001-.001 0 0 0-.001 0 0-.001-.001 0 0 0-.001 0 0-.001-.001 0 0 0-.001 0-.001-.001-.001v-.001s0-.001-.001-.001v-.001s0-.001-.001-.001v-.001s0-.001-.001-.001v-.001s0-.001-.001-.001zm.128.258c.187.373.396.744.627 1.114l1.696-1.06c-.199-.319-.377-.635-.534-.949zm.572 1.013c.144.302.135.472.112.562-.024.093-.102.253-.382.459l1.186 1.61c.536-.395.963-.911 1.133-1.571.17-.661.043-1.319-.243-1.919zm-.091.916c-.33.15-.524.145-.633.118-.105-.027-.267-.108-.468-.381l-1.61 1.187c.4.543.925.967 1.593 1.134.665.166 1.33.043 1.946-.237zm-1.05-.187c-1.151-1.904-1.726-3.98-1.726-6.25h-2c0 2.628.672 5.063 2.014 7.284zm-28.039-29.382c.129-.299.268-.427.377-.489.111-.062.3-.117.637-.073l.259-1.983c-.651-.085-1.3-.011-1.877.313-.578.325-.976.842-1.234 1.444zm.765-.628c.326.133.452.274.506.37.053.094.105.265.047.595l1.971.343c.114-.658.059-1.324-.275-1.918-.333-.592-.873-.988-1.492-1.241zm.606.776c-3.214 8.313-6.728 16.498-10.541 24.554l1.807.856c3.835-8.101 7.368-16.33 10.599-24.689zm-10.443 24.389c-.203.276-.374.369-.494.403-.12.033-.318.041-.642-.091l-.758 1.851c.622.254 1.283.348 1.936.167.653-.182 1.171-.604 1.568-1.144zm-.901.448c-.252-.196-.338-.361-.369-.484-.032-.129-.035-.337.101-.668l-1.852-.758c-.251.614-.35 1.266-.189 1.911.162.649.559 1.172 1.081 1.578zm-.292-1.1c3.75-7.844 7.177-15.818 10.28-23.921l-1.868-.715c-3.084 8.053-6.489 15.977-10.216 23.774zm-1.596 1.021c-.407-.032-.554-.135-.595-.175-.023-.022-.096-.097-.096-.375h-2c0 .668.196 1.323.711 1.817.495.476 1.154.674 1.821.727zm-.691-.55c0-.306.079-.448.149-.526.08-.09.259-.218.659-.298l-.393-1.961c-.674.135-1.301.415-1.758.927-.467.523-.657 1.176-.657 1.858zm.654-.805c13.042-.558 26.105-.708 39.19-.451l.039-1.999c-13.126-.259-26.231-.108-39.314.452zm39.147-.452c.215.013.317.062.362.091.036.024.079.065.121.172l1.866-.718c-.173-.452-.462-.841-.878-1.118-.407-.271-.873-.394-1.346-.424zm.522.351c.111.224.126.441-.014.745l1.816.838c.375-.813.39-1.67-.014-2.477zm-.029.78c-.032.075-.065.106-.103.13-.05.031-.163.08-.39.094l.125 1.996c.461-.029.917-.141 1.318-.389.413-.256.713-.622.896-1.062zm-.408.222c-13.128-.301-26.235-.15-39.32.452l.092 1.998c13.039-.6 26.1-.75 39.183-.45zm3.624-25.471c.114-.311.241-.422.324-.469.089-.05.27-.107.635-.046l.328-1.973c-.667-.111-1.344-.061-1.943.276-.605.34-.993.895-1.223 1.529zm.781-.562c.312.113.423.241.469.324.05.089.108.27.047.635l1.973.328c.111-.667.061-1.344-.276-1.943-.34-.605-.895-.993-1.529-1.223zm.56.787c-2.876 8.07-5.859 16.097-8.949 24.08l1.865.722c3.097-8 6.086-16.044 8.968-24.13zm-8.936 24.047c-.128.3-.267.428-.377.49-.111.062-.3.117-.637.073l-.259 1.983c.652.085 1.3.011 1.877-.313.578-.325.976-.842 1.234-1.445zm-.765.629c-.326-.133-.452-.275-.506-.37-.052-.094-.105-.266-.047-.596l-1.971-.342c-.114.658-.059 1.324.275 1.918.333.592.873.988 1.492 1.241zm-.608-.772c3.142-8.003 6.132-16.05 8.972-24.139l-1.887-.663c-2.832 8.067-5.814 16.091-8.946 24.072zm-5.604-25.102c.201-.273.363-.354.469-.38.109-.027.303-.033.633.117l.827-1.82c-.615-.28-1.281-.404-1.945-.238-.668.167-1.194.591-1.594 1.135zm.901-.384c.252.196.338.361.369.485.032.128.035.336-.1.668l1.851.757c.251-.614.351-1.266.19-1.91-.163-.65-.56-1.173-1.082-1.578zm.31 1.065c-.446.848-.848 1.717-1.204 2.608l1.857.743c.331-.827.703-1.633 1.116-2.419zm-1.179 2.552c-.393.829-.705 1.541-.932 2.131l1.866.718c.203-.526.492-1.189.873-1.993zm-.928 2.12c-2.79 6.995-5.665 13.926-8.626 20.793l1.836.792c2.969-6.884 5.851-13.832 8.648-20.844zm-8.533 20.624c-.183.268-.335.349-.432.377-.103.029-.291.041-.62-.093l-.757 1.851c.616.252 1.276.35 1.926.165.654-.187 1.158-.622 1.534-1.171zm-.837.404c-.273-.201-.354-.363-.381-.469-.027-.108-.032-.303.118-.632l-1.821-.828c-.28.616-.403 1.281-.237 1.946.167.668.591 1.193 1.134 1.593zm-.261-1.107c1.078-2.413 2.133-4.847 3.167-7.303l-1.843-.776c-1.029 2.442-2.079 4.864-3.15 7.263zm3.178-7.33c2.358-6.089 4.845-12.135 7.461-18.138l-1.834-.798c-2.626 6.028-5.124 12.099-7.492 18.214zm33.679-16.475-.781-.624-.046.058-.037.063zm2.32-.515-.514.857.016.01.016.009zm.645 2.256.863.504.034-.058.026-.062zm-10.506 23.074.886.462.037-.069.024-.074zm-3.287-.902-.949-.318-.02.06-.012.061zm2.9 1.611.351.936.074-.027.068-.039zm-2.32-.709-.876.482.009.016.009.016zm.58-2.256-.491-.871-.057.032-.052.039zm32.678-21.592-.468-.884-.075.04-.066.051zm2.062.258.759-.651-.048-.056-.056-.049zm.258 2.063.906.422.004-.008.004-.008zm-9.152 23.783.923.384.018-.044.015-.047zm-2.127 1.16-.264.965.011.003zm-1.161-2.063-.954-.297-.023.072-.011.073zm9.475-24.621.707-.707-1.013-1.013-.602 1.301zm2.32 2.321.611.791.9-.694-.804-.804zm-23.904-3.243c.256-.32.44-.401.531-.422.076-.017.223-.023.494.139l1.029-1.715c-.589-.353-1.258-.531-1.956-.376-.682.151-1.229.585-1.66 1.125zm1.057-.264c.259.142.31.259.326.317.024.082.042.284-.122.678l1.846.769c.265-.637.391-1.326.199-1.996-.198-.694-.684-1.19-1.285-1.52zm.263.875c-4.331 7.406-7.861 15.16-10.59 23.26l1.895.638c2.686-7.97 6.159-15.599 10.422-22.889zm-10.529 23.116c-.195.375-.376.524-.495.584-.103.051-.261.088-.546.01l-.527 1.929c.66.18 1.34.163 1.967-.151.612-.305 1.054-.833 1.374-1.447zm-1.041.594c-.291-.079-.353-.178-.37-.209-.028-.052-.09-.222-.009-.628l-1.961-.393c-.133.668-.12 1.369.217 1.983.348.634.942.998 1.596 1.176zm-.411-.716c2.771-8.271 6.352-16.18 10.744-23.727l-1.728-1.006c-4.46 7.665-8.098 15.697-10.913 24.098zm1.601.358c-.383.143-.599.126-.71.092-.097-.029-.239-.109-.402-.38l-1.715 1.029c.354.589.856 1.057 1.532 1.264.663.202 1.349.11 1.997-.133zm-1.093-.255c-.147-.268-.135-.408-.117-.478.022-.084.104-.258.421-.496l-1.2-1.6c-.543.407-.987.931-1.158 1.598-.176.683-.024 1.348.302 1.94zm.195-.903c11.471-6.468 22.402-13.691 32.795-21.67l-1.217-1.586c-10.318 7.92-21.171 15.092-32.56 21.514zm32.654-21.579c.22-.116.369-.13.472-.117.106.013.261.067.468.247l1.31-1.512c-.437-.378-.948-.647-1.53-.72-.584-.073-1.144.064-1.655.334zm.836.025c.149.174.203.318.218.44.016.127-.001.308-.115.565l1.828.813c.229-.516.342-1.066.272-1.626-.071-.565-.318-1.066-.685-1.494zm.111.989c-3.629 7.776-6.697 15.747-9.202 23.912l1.912.587c2.478-8.076 5.512-15.961 9.102-23.654zm-9.17 23.821c-.16.385-.319.521-.409.57-.077.042-.226.09-.542.007l-.505 1.936c.673.175 1.372.158 2.004-.187.619-.337 1.029-.91 1.299-1.557zm-.94.58c-.281-.076-.359-.178-.391-.234-.045-.08-.11-.281-.044-.712l-1.977-.304c-.106.687-.064 1.389.278 1.996.355.631.943 1.002 1.607 1.184zm-.469-.8c2.608-8.381 5.751-16.547 9.428-24.499l-1.816-.839c-3.713 8.032-6.887 16.28-9.521 24.743zm7.813-24.212c.001.002.003.003.004.005.002.001.003.003.005.004.002.002.003.004.005.005.001.002.003.003.004.005.002.001.003.003.005.004.001.002.003.003.004.005.002.001.003.003.005.004.001.002.003.003.004.005.002.001.003.003.005.004.001.002.003.003.004.005.002.001.003.003.005.004.001.002.003.003.004.005.002.001.003.003.005.004.001.002.003.003.004.005.002.001.003.003.005.004.001.002.003.003.004.005.002.001.003.003.005.004.001.002.003.003.005.005.001.002.003.003.004.005.002.001.003.003.005.004.001.002.003.003.004.005.002.001.003.003.005.004.001.002.003.003.004.005.002.001.003.003.005.004.001.002.003.003.004.005.002.001.003.003.005.004.001.002.003.003.004.005.002.001.003.003.005.004.001.002.003.003.004.005.002.001.003.003.005.004.001.002.003.003.004.005.002.001.003.003.005.004.001.002.003.003.004.005.002.001.004.003.005.005.002.001.003.003.005.004.001.002.003.003.004.005.002.001.003.003.005.004.001.002.003.003.004.005.002.001.003.003.005.004.001.002.003.003.004.005.002.001.003.003.005.004.001.002.003.003.004.005.002.001.003.003.005.004.001.002.003.003.004.005.002.001.003.003.005.004.001.002.003.003.004.005.002.001.003.003.005.004.001.002.003.003.004.005.002.001.003.003.005.004.002.002.003.004.005.005.001.002.003.003.004.005.002.001.003.003.005.004.001.002.003.003.004.005.002.001.003.003.005.004.001.002.003.003.004.005.002.001.003.003.005.004.001.002.003.003.004.005.002.001.003.003.005.004.001.002.003.003.004.005.002.001.003.003.005.004.001.002.003.003.004.005.002.001.003.003.005.004.001.002.003.003.004.005.002.001.003.003.005.004.001.002.003.003.005.005.001.002.003.003.004.005.002.001.003.003.005.004.001.002.003.003.004.005.002.001.003.003.005.004.001.002.003.003.004.005.002.001.003.003.005.004.001.002.003.003.004.005.002.001.003.003.005.004.001.002.003.003.004.005.002.001.003.003.005.004.001.002.003.003.004.005.002.001.003.003.005.004.001.002.003.003.004.005.002.001.003.003.005.004.001.002.003.003.004.005.002.001.004.003.005.005.002.001.003.003.005.004.001.002.003.003.004.005.002.001.003.003.005.004.001.002.003.003.004.005.002.001.003.003.005.004.001.002.003.003.004.005.002.001.003.003.005.004.001.002.003.003.004.005.002.001.003.003.005.004.001.002.003.003.004.005.002.001.003.003.005.004.001.002.003.003.004.005.002.001.003.003.005.004.001.002.003.003.004.005.002.001.003.003.005.004.002.002.003.004.005.005.001.002.003.003.004.005.002.001.003.003.005.004.001.002.003.003.004.005.002.001.003.003.005.004.001.002.003.003.004.005.002.001.003.003.005.004.001.002.003.003.004.005.002.001.003.003.005.004.001.002.003.003.004.005.002.001.003.003.005.004.001.002.003.003.004.005.002.001.003.003.005.004.001.002.003.003.004.005.002.001.003.003.005.004.001.002.003.003.005.005.001.002.003.003.004.005.002.001.003.003.005.004.001.002.003.003.004.005.002.001.003.003.005.004.001.002.003.003.004.005.002.001.003.003.005.004.001.002.003.003.004.005.002.001.003.003.005.004.001.002.003.003.004.005.002.001.003.003.005.004.001.002.003.003.004.005.002.001.003.003.005.004.001.002.003.003.004.005.002.001.003.003.005.004.001.002.003.003.004.005.002.001.004.003.005.005.002.001.003.003.005.004.001.002.003.003.004.005.002.001.003.003.005.004.001.002.003.003.004.005.002.001.003.003.005.004.001.002.003.003.004.005.002.001.003.003.005.004.001.002.003.003.004.005.002.001.003.003.005.004.001.002.003.003.004.005.002.001.003.003.005.004.001.002.003.003.004.005.002.001.003.003.005.004.001.002.003.003.004.005.002.001.003.003.005.004.002.002.003.004.005.005.001.002.003.003.004.005.002.001.003.003.005.004.001.002.003.003.004.005.002.001.003.003.005.004.001.002.003.003.004.005.002.001.003.003.005.004.001.002.003.003.004.005.002.001.003.003.005.004.001.002.003.003.004.005.002.001.003.003.005.004.001.002.003.003.004.005.002.001.003.003.005.004.001.002.003.003.004.005.002.001.003.003.005.004.001.002.003.003.005.005.001.002.003.003.004.005.002.001.003.003.005.004.001.002.003.003.004.005.002.001.003.003.005.004.001.002.003.003.004.005.002.001.003.003.005.004.001.002.003.003.004.005.002.001.003.003.005.004.001.002.003.003.004.005.002.001.003.003.005.004.001.002.003.003.004.005.002.001.003.003.005.004.001.002.003.003.004.005.002.001.003.003.005.004.001.002.003.003.004.005.002.001.004.003.005.005.002.001.003.003.005.004.001.002.003.003.004.005.002.001.003.003.005.004.001.002.003.003.004.005.002.001.003.003.005.004.001.002.003.003.004.005.002.001.003.003.005.004.001.002.003.003.004.005.002.001.003.003.005.004.001.002.003.003.004.005.002.001.003.003.005.004.001.002.003.003.004.005.002.001.003.003.005.004.001.002.003.003.004.005.002.001.003.003.005.004.002.002.003.004.005.005.001.002.003.003.004.005.002.001.003.003.005.004.001.002.003.003.004.005.002.001.003.003.005.004.001.002.003.003.004.005.002.001.003.003.005.004.001.002.003.003.004.005.002.001.003.003.005.004.001.002.003.003.004.005.002.001.003.003.005.004.001.002.003.003.004.005.002.001.003.003.005.004.001.002.003.003.004.005.002.001.003.003.005.004.001.002.003.003.005.005.001.002.003.003.004.005.002.001.003.003.005.004.001.002.003.003.004.005.002.001.003.003.005.004.001.002.003.003.004.005.002.001.003.003.005.004.001.002.003.003.004.005.002.001.003.003.005.004.001.002.003.003.004.005.002.001.003.003.005.004.001.002.003.003.004.005.002.001.003.003.005.004.001.002.003.003.004.005.002.001.003.003.005.004.001.002.003.003.004.005.002.001.004.003.005.005.002.001.003.003.005.004.001.002.003.003.004.005.002.001.003.003.005.004.001.002.003.003.004.005.002.001.003.003.005.004.001.002.003.003.004.005.002.001.003.003.005.004.001.002.003.003.004.005.002.001.003.003.005.004.001.002.003.003.004.005.002.001.003.003.005.004.001.002.003.003.004.005.002.001.003.003.005.004.001.002.003.003.004.005.002.001.003.003.005.004.002.002.003.004.005.005.001.002.003.003.004.005.002.001.003.003.005.004.001.002.003.003.004.005.002.001.003.003.005.004.001.002.003.003.004.005.002.001.003.003.005.004.001.002.003.003.004.005.002.001.003.003.005.004.001.002.003.003.004.005.002.001.003.003.005.004.001.002.003.003.004.005.002.001.003.003.005.004.001.002.003.003.004.005.002.001.003.003.005.004.001.002.003.003.005.005.001.002.003.003.004.005.002.001.003.003.005.004.001.002.003.003.004.005.002.001.003.003.005.004.001.002.003.003.004.005.002.001.003.003.005.004.001.002.003.003.004.005.002.001.003.003.005.004.001.002.003.003.004.005.002.001.003.003.005.004.001.002.003.003.004.005.002.001.003.003.005.004.001.002.003.003.004.005.002.001.003.003.005.004.001.002.003.003.004.005.002.001.003.003.005.005.002.001.003.003.005.004.001.002.003.003.004.005.002.001.003.003.005.004.001.002.003.003.004.005.002.001.003.003.005.004.001.002.003.003.004.005.002.001.003.003.005.004.001.002.003.003.004.005.002.001.003.003.005.004.001.002.003.003.004.005.002.001.003.003.005.004.001.002.003.003.004.005.002.001.003.003.005.004.001.002.003.003.004.005.002.001.003.003.005.004.001.002.003.004.005.005.001.002.003.003.004.005.002.001.003.003.005.004.001.002.003.003.004.005.002.001.003.003.005.004.001.002.003.003.004.005.002.001.003.003.005.004.001.002.003.003.004.005.002.001.003.003.005.004.001.002.003.003.004.005.002.001.003.003.005.004.001.002.003.003.004.005.002.001.003.003.005.004.001.002.003.003.004.005.002.001.003.003.005.004.001.002.003.003.004.005.002.002.004.003.005.005.002.001.003.003.005.004.001.002.003.003.004.005.002.001.003.003.005.004.001.002.003.003.004.005.002.001.003.003.005.004.001.002.003.003.004.005.002.001.003.003.005.004.001.002.003.003.004.005.002.001.003.003.005.004.001.002.003.003.004.005.002.001.003.003.005.004.001.002.003.003.004.005.002.001.003.003.005.004.001.002.003.003.004.005.002.001.003.003.005.005.002.001.003.003.005.004.001.002.003.003.004.005.002.001.003.003.005.004.001.002.003.003.004.005.002.001.003.003.005.004.001.002.003.003.004.005.002.001.003.003.005.004.001.002.003.003.004.005.002.001.003.003.005.004.001.002.003.003.004.005.002.001.003.003.005.004.001.002.003.003.004.005.002.001.003.003.005.004.001.002.003.003.004.005.002.001.003.003.005.004.001.002.003.004.005.005.001.002.003.003.004.005.002.001.003.003.005.004.001.002.003.003.004.005.002.001.003.003.005.004.001.002.003.003.004.005.002.001.003.003.005.004.001.002.003.003.004.005.002.001.003.003.005.004.001.002.003.003.004.005.002.001.003.003.005.004.001.002.003.003.004.005.002.001.003.003.005.004.001.002.003.003.004.005.002.001.003.003.005.004.001.002.003.003.004.005.002.002.004.003.005.005.002.001.003.003.005.004.001.002.003.003.004.005.002.001.003.003.005.004.001.002.003.003.004.005.002.001.003.003.005.004.001.002.003.003.004.005.002.001.003.003.005.004.001.002.003.003.004.005.002.001.003.003.005.004.001.002.003.003.004.005.002.001.003.003.005.004.001.002.003.003.004.005.002.001.003.003.005.004.001.002.003.003.004.005.002.001.003.003.005.005.002.001.003.003.005.004.001.002.003.003.004.005.002.001.003.003.005.004.001.002.003.003.004.005.002.001.003.003.005.004.001.002.003.003.004.005.002.001.003.003.005.004.001.002.003.003.004.005.002.001.003.003.005.004.001.002.003.003.004.005.002.001.003.003.005.004.001.002.003.003.004.005.002.001.003.003.005.004.001.002.003.003.004.005.002.001.003.003.005.004.001.002.003.003.005.005.001.002.003.003.004.005.002.001.003.003.005.004.001.002.003.003.004.005.002.001.003.003.005.004.001.002.003.003.004.005.002.001.003.003.005.004.001.002.003.003.004.005.002.001.003.003.005.004.001.002.003.003.004.005.002.001.003.003.005.004.001.002.003.003.004.005.002.001.003.003.005.004.001.002.003.003.004.005.002.001.003.003.005.004.001.002.003.003.004.005.002.001.004.003.005.005.002.001.003.003.005.004.001.002.003.003.004.005.002.001.003.003.005.004.001.002.003.003.004.005.002.001.003.003.005.004.001.002.003.003.004.005.002.001.003.003.005.004.001.002.003.003.004.005.002.001.003.003.005.004.001.002.003.003.004.005.002.001.003.003.005.004.001.002.003.003.004.005.002.001.003.003.005.004.001.002.003.003.004.005.002.001.003.003.005.004.002.002.003.004.005.005.001.002.003.003.004.005.002.001.003.003.005.004.001.002.003.003.004.005.002.001.003.003.005.004.001.002.003.003.004.005.002.001.003.003.005.004.001.002.003.003.004.005.002.001.003.003.005.004.001.002.003.003.004.005.002.001.003.003.005.004.001.002.003.003.004.005.002.001.003.003.005.004.001.002.003.003.004.005.002.001.003.003.005.004.001.002.003.003.005.005.001.002.003.003.004.005.002.001.003.003.005.004.001.002.003.003.004.005.002.001.003.003.005.004.001.002.003.003.004.005.002.001.003.003.005.004.001.002.003.003.004.005.002.001.003.003.005.004.001.002.003.003.004.005.002.001.003.003.005.004.001.002.003.003.004.005.002.001.003.003.005.004.001.002.003.003.004.005.002.001.003.003.005.004.001.002.003.003.004.005.002.001.004.003.005.005.002.001.003.003.005.004.001.002.003.003.004.005.002.001.003.003.005.004.001.002.003.003.004.005.002.001.003.003.005.004.001.002.003.003.004.005.002.001.003.003.005.004.001.002.003.003.004.005.002.001.003.003.005.004.001.002.003.003.004.005.002.001.003.003.005.004.001.002.003.003.004.005.002.001.003.003.005.004.001.002.003.003.004.005.002.001.003.003.005.004.002.002.003.004.005.005.001.002.003.003.004.005.002.001.003.003.005.004.001.002.003.003.004.005.002.001.003.003.005.004.001.002.003.003.004.005.002.001.003.003.005.004.001.002.003.003.004.005.002.001.003.003.005.004.001.002.003.003.004.005.002.001.003.003.005.004.001.002.003.003.004.005.002.001.003.003.005.004.001.002.003.003.004.005.002.001.003.003.005.004.001.002.003.003.005.005.001.002.003.003.004.005.002.001.003.003.005.004.001.002.003.003.004.005.002.001.003.003.005.004.001.002.003.003.004.005.002.001.003.003.005.004.001.002.003.003.004.005.002.001.003.003.005.004.001.002.003.003.004.005.002.001.003.003.005.004.001.002.003.003.004.005.002.001.003.003.005.004.001.002.003.003.004.005.002.001.003.003.005.004.001.002.003.003.004.005.002.001.004.003.005.005.002.001.003.003.005.004.001.002.003.003.004.005.002.001.003.003.005.004.001.002.003.003.004.005.002.001.003.003.005.004.001.002.003.003.004.005.002.001.003.003.005.004.001.002.003.003.004.005.002.001.003.003.005.004.001.002.003.003.004.005.002.001.003.003.005.004.001.002.003.003.004.005.002.001.003.003.005.004.001.002.003.003.004.005.002.001.003.003.005.004.002.002.003.004.005.005.001.002.003.003.004.005.002.001.003.003.005.004.001.002.003.003.004.005.002.001.003.003.005.004.001.002.003.003.004.005.002.001.003.003.005.004.001.002.003.003.004.005l1.414-1.414c-.001-.002-.003-.003-.004-.005-.002-.002-.003-.003-.005-.005-.001-.001-.003-.003-.004-.004-.002-.002-.003-.003-.005-.005-.001-.001-.003-.003-.004-.004-.002-.002-.003-.003-.005-.005-.001-.001-.003-.003-.004-.004-.002-.002-.003-.003-.005-.005-.001-.001-.003-.003-.004-.004-.002-.002-.003-.003-.005-.005-.001-.001-.003-.003-.004-.004-.002-.002-.003-.003-.005-.005-.001-.001-.003-.003-.004-.004-.002-.002-.003-.003-.005-.005-.001-.001-.003-.003-.005-.004-.001-.002-.003-.003-.004-.005-.002-.001-.003-.003-.005-.005-.001-.001-.003-.003-.004-.004-.002-.002-.003-.003-.005-.005-.001-.001-.003-.003-.004-.004-.002-.002-.003-.003-.005-.005-.001-.001-.003-.003-.004-.004-.002-.002-.003-.003-.005-.005-.001-.001-.003-.003-.004-.004-.002-.002-.003-.003-.005-.005-.001-.001-.003-.003-.004-.004-.002-.002-.003-.003-.005-.005-.001-.001-.003-.003-.004-.004-.002-.002-.003-.003-.005-.005-.001-.001-.003-.003-.004-.004-.002-.002-.004-.003-.005-.005-.002-.001-.003-.003-.005-.004-.001-.002-.003-.004-.004-.005-.002-.002-.003-.003-.005-.005-.001-.001-.003-.003-.004-.004-.002-.002-.003-.003-.005-.005-.001-.001-.003-.003-.004-.004-.002-.002-.003-.003-.005-.005-.001-.001-.003-.003-.004-.004-.002-.002-.003-.003-.005-.005-.001-.001-.003-.003-.004-.004-.002-.002-.003-.003-.005-.005-.001-.001-.003-.003-.004-.004-.002-.002-.003-.003-.005-.005-.001-.001-.003-.003-.004-.004-.002-.002-.003-.003-.005-.005-.002-.001-.003-.003-.005-.004-.001-.002-.003-.003-.004-.005-.002-.002-.003-.003-.005-.005-.001-.001-.003-.003-.004-.004-.002-.002-.003-.003-.005-.005-.001-.001-.003-.003-.004-.004-.002-.002-.003-.003-.005-.005-.001-.001-.003-.003-.004-.004-.002-.002-.003-.003-.005-.005-.001-.001-.003-.003-.004-.004-.002-.002-.003-.003-.005-.005-.001-.001-.003-.003-.004-.004-.002-.002-.003-.003-.005-.005-.001-.001-.003-.003-.004-.004-.002-.002-.003-.003-.005-.005-.001-.001-.003-.003-.005-.004-.001-.002-.003-.003-.004-.005-.002-.001-.003-.003-.005-.005-.001-.001-.003-.003-.004-.004-.002-.002-.003-.003-.005-.005-.001-.001-.003-.003-.004-.004-.002-.002-.003-.003-.005-.005-.001-.001-.003-.003-.004-.004-.002-.002-.003-.003-.005-.005-.001-.001-.003-.003-.004-.004-.002-.002-.003-.003-.005-.005-.001-.001-.003-.003-.004-.004-.002-.002-.003-.003-.005-.005-.001-.001-.003-.003-.004-.004-.002-.002-.003-.003-.005-.005-.001-.001-.003-.003-.004-.004-.002-.002-.004-.003-.005-.005-.002-.001-.003-.003-.005-.004-.001-.002-.003-.004-.004-.005-.002-.002-.003-.003-.005-.005-.001-.001-.003-.003-.004-.004-.002-.002-.003-.003-.005-.005-.001-.001-.003-.003-.004-.004-.002-.002-.003-.003-.005-.005-.001-.001-.003-.003-.004-.004-.002-.002-.003-.003-.005-.005-.001-.001-.003-.003-.004-.004-.002-.002-.003-.003-.005-.005-.001-.001-.003-.003-.004-.004-.002-.002-.003-.003-.005-.005-.001-.001-.003-.003-.004-.004-.002-.002-.003-.003-.005-.005-.002-.001-.003-.003-.005-.004-.001-.002-.003-.003-.004-.005-.002-.002-.003-.003-.005-.005-.001-.001-.003-.003-.004-.004-.002-.002-.003-.003-.005-.005-.001-.001-.003-.003-.004-.004-.002-.002-.003-.003-.005-.005-.001-.001-.003-.003-.004-.004-.002-.002-.003-.003-.005-.005-.001-.001-.003-.003-.004-.004-.002-.002-.003-.003-.005-.005-.001-.001-.003-.003-.004-.004-.002-.002-.003-.003-.005-.005-.001-.001-.003-.003-.004-.004-.002-.002-.003-.003-.005-.005-.001-.001-.003-.003-.005-.004-.001-.002-.003-.003-.004-.005-.002-.001-.003-.003-.005-.005-.001-.001-.003-.003-.004-.004-.002-.002-.003-.003-.005-.005-.001-.001-.003-.003-.004-.004-.002-.002-.003-.003-.005-.005-.001-.001-.003-.003-.004-.004-.002-.002-.003-.003-.005-.005-.001-.001-.003-.003-.004-.004-.002-.002-.003-.003-.005-.005-.001-.001-.003-.003-.004-.004-.002-.002-.003-.003-.005-.005-.001-.001-.003-.003-.004-.004-.002-.002-.003-.003-.005-.005-.001-.001-.003-.003-.004-.004-.002-.002-.004-.003-.005-.005-.002-.001-.003-.003-.005-.004-.001-.002-.003-.004-.004-.005-.002-.002-.003-.003-.005-.005-.001-.001-.003-.003-.004-.004-.002-.002-.003-.003-.005-.005-.001-.001-.003-.003-.004-.004-.002-.002-.003-.003-.005-.005-.001-.001-.003-.003-.004-.004-.002-.002-.003-.003-.005-.005-.001-.001-.003-.003-.004-.004-.002-.002-.003-.003-.005-.005-.001-.001-.003-.003-.004-.004-.002-.002-.003-.003-.005-.005-.001-.001-.003-.003-.004-.004-.002-.002-.003-.003-.005-.005-.002-.001-.003-.003-.005-.004-.001-.002-.003-.003-.004-.005-.002-.002-.003-.003-.005-.005-.001-.001-.003-.003-.004-.004-.002-.002-.003-.003-.005-.005-.001-.001-.003-.003-.004-.004-.002-.002-.003-.003-.005-.005-.001-.001-.003-.003-.004-.004-.002-.002-.003-.003-.005-.005-.001-.001-.003-.003-.004-.004-.002-.002-.003-.003-.005-.005-.001-.001-.003-.003-.004-.004-.002-.002-.003-.003-.005-.005-.001-.001-.003-.003-.004-.004-.002-.002-.003-.003-.005-.005-.001-.001-.003-.003-.005-.004-.001-.002-.003-.003-.004-.005-.002-.001-.003-.003-.005-.005-.001-.001-.003-.003-.004-.004-.002-.002-.003-.003-.005-.005-.001-.001-.003-.003-.004-.004-.002-.002-.003-.003-.005-.005-.001-.001-.003-.003-.004-.004-.002-.002-.003-.003-.005-.005-.001-.001-.003-.003-.004-.004-.002-.002-.003-.003-.005-.005-.001-.001-.003-.003-.004-.004-.002-.002-.003-.003-.005-.005-.001-.001-.003-.003-.004-.004-.002-.002-.003-.003-.005-.005-.001-.001-.003-.003-.004-.004-.002-.002-.004-.003-.005-.005-.002-.001-.003-.003-.005-.004-.001-.002-.003-.003-.004-.005-.002-.002-.003-.003-.005-.005-.001-.001-.003-.003-.004-.004-.002-.002-.003-.003-.005-.005-.001-.001-.003-.003-.004-.004-.002-.002-.003-.003-.005-.005-.001-.001-.003-.003-.004-.004-.002-.002-.003-.003-.005-.005-.001-.001-.003-.003-.004-.004-.002-.002-.003-.003-.005-.005-.001-.001-.003-.003-.004-.004-.002-.002-.003-.003-.005-.005-.001-.001-.003-.003-.004-.004-.002-.002-.003-.003-.005-.005-.002-.001-.003-.003-.005-.004-.001-.002-.003-.003-.004-.005-.002-.001-.003-.003-.005-.005-.001-.001-.003-.003-.004-.004-.002-.002-.003-.003-.005-.005-.001-.001-.003-.003-.004-.004-.002-.002-.003-.003-.005-.005-.001-.001-.003-.003-.004-.004-.002-.002-.003-.003-.005-.005-.001-.001-.003-.003-.004-.004-.002-.002-.003-.003-.005-.005-.001-.001-.003-.003-.004-.004-.002-.002-.003-.003-.005-.005-.001-.001-.003-.003-.004-.004-.002-.002-.003-.003-.005-.005-.001-.001-.003-.003-.005-.004-.001-.002-.003-.003-.004-.005-.002-.001-.003-.003-.005-.004-.001-.002-.003-.004-.004-.005-.002-.002-.003-.003-.005-.005-.001-.001-.003-.003-.004-.004-.002-.002-.003-.003-.005-.005-.001-.001-.003-.003-.004-.004-.002-.002-.003-.003-.005-.005-.001-.001-.003-.003-.004-.004-.002-.002-.003-.003-.005-.005-.001-.001-.003-.003-.004-.004-.002-.002-.003-.003-.005-.005-.001-.001-.003-.003-.004-.004-.002-.002-.003-.003-.005-.005-.001-.001-.003-.003-.004-.004-.002-.002-.004-.003-.005-.005-.002-.001-.003-.003-.005-.004-.001-.002-.003-.003-.004-.005-.002-.002-.003-.003-.005-.005-.001-.001-.003-.003-.004-.004-.002-.002-.003-.003-.005-.005-.001-.001-.003-.003-.004-.004-.002-.002-.003-.003-.005-.005-.001-.001-.003-.003-.004-.004-.002-.002-.003-.003-.005-.005-.001-.001-.003-.003-.004-.004-.002-.002-.003-.003-.005-.005-.001-.001-.003-.003-.004-.004-.002-.002-.003-.003-.005-.005-.001-.001-.003-.003-.004-.004-.002-.002-.003-.003-.005-.005-.001-.001-.003-.003-.005-.004-.001-.002-.003-.003-.004-.005-.002-.001-.003-.003-.005-.005-.001-.001-.003-.003-.004-.004-.002-.002-.003-.003-.005-.005-.001-.001-.003-.003-.004-.004-.002-.002-.003-.003-.005-.005-.001-.001-.003-.003-.004-.004-.002-.002-.003-.003-.005-.005-.001-.001-.003-.003-.004-.004-.002-.002-.003-.003-.005-.005-.001-.001-.003-.003-.004-.004-.002-.002-.003-.003-.005-.005-.001-.001-.003-.003-.004-.004-.002-.002-.003-.003-.005-.005-.001-.001-.003-.003-.004-.004-.002-.002-.004-.003-.005-.005-.002-.001-.003-.003-.005-.004-.001-.002-.003-.004-.004-.005-.002-.002-.003-.003-.005-.005-.001-.001-.003-.003-.004-.004-.002-.002-.003-.003-.005-.005-.001-.001-.003-.003-.004-.004-.002-.002-.003-.003-.005-.005-.001-.001-.003-.003-.004-.004-.002-.002-.003-.003-.005-.005-.001-.001-.003-.003-.004-.004-.002-.002-.003-.003-.005-.005-.001-.001-.003-.003-.004-.004-.002-.002-.003-.003-.005-.005-.001-.001-.003-.003-.004-.004-.002-.002-.003-.003-.005-.005-.002-.001-.003-.003-.005-.004-.001-.002-.003-.003-.004-.005-.002-.002-.003-.003-.005-.005-.001-.001-.003-.003-.004-.004-.002-.002-.003-.003-.005-.005-.001-.001-.003-.003-.004-.004-.002-.002-.003-.003-.005-.005-.001-.001-.003-.003-.004-.004-.002-.002-.003-.003-.005-.005-.001-.001-.003-.003-.004-.004-.002-.002-.003-.003-.005-.005-.001-.001-.003-.003-.004-.004-.002-.002-.003-.003-.005-.005-.001-.001-.003-.003-.004-.004-.002-.002-.003-.003-.005-.005-.001-.001-.003-.003-.005-.004-.001-.002-.003-.003-.004-.005-.002-.001-.003-.003-.005-.005-.001-.001-.003-.003-.004-.004-.002-.002-.003-.003-.005-.005-.001-.001-.003-.003-.004-.004-.002-.002-.003-.003-.005-.005-.001-.001-.003-.003-.004-.004-.002-.002-.003-.003-.005-.005-.001-.001-.003-.003-.004-.004-.002-.002-.003-.003-.005-.005-.001-.001-.003-.003-.004-.004-.002-.002-.003-.003-.005-.005-.001-.001-.003-.003-.004-.004-.002-.002-.003-.003-.005-.005-.001-.001-.003-.003-.004-.004-.002-.002-.004-.003-.005-.005-.002-.001-.003-.003-.005-.004-.001-.002-.003-.004-.004-.005-.002-.002-.003-.003-.005-.005-.001-.001-.003-.003-.004-.004-.002-.002-.003-.003-.005-.005-.001-.001-.003-.003-.004-.004-.002-.002-.003-.003-.005-.005-.001-.001-.003-.003-.004-.004-.002-.002-.003-.003-.005-.005-.001-.001-.003-.003-.004-.004-.002-.002-.003-.003-.005-.005-.001-.001-.003-.003-.004-.004-.002-.002-.003-.003-.005-.005-.001-.001-.003-.003-.004-.004-.002-.002-.003-.003-.005-.005-.002-.001-.003-.003-.005-.004-.001-.002-.003-.003-.004-.005-.002-.002-.003-.003-.005-.005-.001-.001-.003-.003-.004-.004-.002-.002-.003-.003-.005-.005-.001-.001-.003-.003-.004-.004-.002-.002-.003-.003-.005-.005-.001-.001-.003-.003-.004-.004-.002-.002-.003-.003-.005-.005-.001-.001-.003-.003-.004-.004-.002-.002-.003-.003-.005-.005-.001-.001-.003-.003-.004-.004-.002-.002-.003-.003-.005-.005-.001-.001-.003-.003-.004-.004-.002-.002-.003-.003-.005-.005-.001-.001-.003-.003-.005-.004-.001-.002-.003-.003-.004-.005-.002-.001-.003-.003-.005-.005-.001-.001-.003-.003-.004-.004-.002-.002-.003-.003-.005-.005-.001-.001-.003-.003-.004-.004-.002-.002-.003-.003-.005-.005-.001-.001-.003-.003-.004-.004-.002-.002-.003-.003-.005-.005-.001-.001-.003-.003-.004-.004-.002-.002-.003-.003-.005-.005-.001-.001-.003-.003-.004-.004-.002-.002-.003-.003-.005-.005-.001-.001-.003-.003-.004-.004-.002-.002-.003-.003-.005-.005-.001-.001-.003-.003-.004-.004-.002-.002-.004-.003-.005-.005-.002-.001-.003-.003-.005-.004-.001-.002-.003-.004-.004-.005-.002-.002-.003-.003-.005-.005-.001-.001-.003-.003-.004-.004-.002-.002-.003-.003-.005-.005-.001-.001-.003-.003-.004-.004-.002-.002-.003-.003-.005-.005-.001-.001-.003-.003-.004-.004-.002-.002-.003-.003-.005-.005-.001-.001-.003-.003-.004-.004-.002-.002-.003-.003-.005-.005-.001-.001-.003-.003-.004-.004-.002-.002-.003-.003-.005-.005-.001-.001-.003-.003-.004-.004-.002-.002-.003-.003-.005-.005-.002-.001-.003-.003-.005-.004-.001-.002-.003-.003-.004-.005-.002-.002-.003-.003-.005-.005-.001-.001-.003-.003-.004-.004-.002-.002-.003-.003-.005-.005-.001-.001-.003-.003-.004-.004-.002-.002-.003-.003-.005-.005-.001-.001-.003-.003-.004-.004-.002-.002-.003-.003-.005-.005-.001-.001-.003-.003-.004-.004-.002-.002-.003-.003-.005-.005-.001-.001-.003-.003-.004-.004-.002-.002-.003-.003-.005-.005-.001-.001-.003-.003-.004-.004-.002-.002-.003-.003-.005-.005-.001-.001-.003-.003-.005-.004-.001-.002-.003-.003-.004-.005-.002-.001-.003-.003-.005-.005-.001-.001-.003-.003-.004-.004-.002-.002-.003-.003-.005-.005-.001-.001-.003-.003-.004-.004-.002-.002-.003-.003-.005-.005-.001-.001-.003-.003-.004-.004-.002-.002-.003-.003-.005-.005-.001-.001-.003-.003-.004-.004-.002-.002-.003-.003-.005-.005-.001-.001-.003-.003-.004-.004-.002-.002-.003-.003-.005-.005-.001-.001-.003-.003-.004-.004-.002-.002-.003-.003-.005-.005-.001-.001-.003-.003-.004-.004-.002-.002-.004-.003-.005-.005-.002-.001-.003-.003-.005-.004-.001-.002-.003-.004-.004-.005-.002-.002-.003-.003-.005-.005-.001-.001-.003-.003-.004-.004-.002-.002-.003-.003-.005-.005-.001-.001-.003-.003-.004-.004-.002-.002-.003-.003-.005-.005-.001-.001-.003-.003-.004-.004-.002-.002-.003-.003-.005-.005-.001-.001-.003-.003-.004-.004-.002-.002-.003-.003-.005-.005-.001-.001-.003-.003-.004-.004-.002-.002-.003-.003-.005-.005-.001-.001-.003-.003-.004-.004-.002-.002-.003-.003-.005-.005-.002-.001-.003-.003-.005-.004-.001-.002-.003-.003-.004-.005-.002-.002-.003-.003-.005-.005-.001-.001-.003-.003-.004-.004-.002-.002-.003-.003-.005-.005-.001-.001-.003-.003-.004-.004-.002-.002-.003-.003-.005-.005-.001-.001-.003-.003-.004-.004-.002-.002-.003-.003-.005-.005-.001-.001-.003-.003-.004-.004-.002-.002-.003-.003-.005-.005-.001-.001-.003-.003-.004-.004-.002-.002-.003-.003-.005-.005-.001-.001-.003-.003-.004-.004-.002-.002-.003-.003-.005-.005-.001-.001-.003-.003-.005-.004-.001-.002-.003-.003-.004-.005-.002-.001-.003-.003-.005-.005-.001-.001-.003-.003-.004-.004-.002-.002-.003-.003-.005-.005-.001-.001-.003-.003-.004-.004-.002-.002-.003-.003-.005-.005-.001-.001-.003-.003-.004-.004-.002-.002-.003-.003-.005-.005-.001-.001-.003-.003-.004-.004-.002-.002-.003-.003-.005-.005-.001-.001-.003-.003-.004-.004-.002-.002-.003-.003-.005-.005-.001-.001-.003-.003-.004-.004-.002-.002-.003-.003-.005-.005-.001-.001-.003-.003-.004-.004-.002-.002-.004-.003-.005-.005-.002-.001-.003-.003-.005-.004-.001-.002-.003-.004-.004-.005-.002-.002-.003-.003-.005-.005-.001-.001-.003-.003-.004-.004-.002-.002-.003-.003-.005-.005-.001-.001-.003-.003-.004-.004-.002-.002-.003-.003-.005-.005-.001-.001-.003-.003-.004-.004-.002-.002-.003-.003-.005-.005-.001-.001-.003-.003-.004-.004-.002-.002-.003-.003-.005-.005-.001-.001-.003-.003-.004-.004-.002-.002-.003-.003-.005-.005-.001-.001-.003-.003-.004-.004-.002-.002-.003-.003-.005-.005-.002-.001-.003-.003-.005-.004-.001-.002-.003-.003-.004-.005-.002-.002-.003-.003-.005-.005-.001-.001-.003-.003-.004-.004-.002-.002-.003-.003-.005-.005-.001-.001-.003-.003-.004-.004-.002-.002-.003-.003-.005-.005-.001-.001-.003-.003-.004-.004-.002-.002-.003-.003-.005-.005-.001-.001-.003-.003-.004-.004-.002-.002-.003-.003-.005-.005-.001-.001-.003-.003-.004-.004-.002-.002-.003-.003-.005-.005-.001-.001-.003-.003-.004-.004-.002-.002-.003-.003-.005-.005-.001-.001-.003-.003-.005-.004-.001-.002-.003-.003-.004-.005-.002-.001-.003-.003-.005-.005-.001-.001-.003-.003-.004-.004-.002-.002-.003-.003-.005-.005-.001-.001-.003-.003-.004-.004-.002-.002-.003-.003-.005-.005-.001-.001-.003-.003-.004-.004-.002-.002-.003-.003-.005-.005-.001-.001-.003-.003-.004-.004-.002-.002-.003-.003-.005-.005-.001-.001-.003-.003-.004-.004-.002-.002-.003-.003-.005-.005-.001-.001-.003-.003-.004-.004-.002-.002-.003-.003-.005-.005-.001-.001-.003-.003-.004-.004-.002-.002-.004-.003-.005-.005-.002-.001-.003-.003-.005-.004-.001-.002-.003-.004-.004-.005-.002-.002-.003-.003-.005-.005-.001-.001-.003-.003-.004-.004-.002-.002-.003-.003-.005-.005-.001-.001-.003-.003-.004-.004-.002-.002-.003-.003-.005-.005-.001-.001-.003-.003-.004-.004-.002-.002-.003-.003-.005-.005-.001-.001-.003-.003-.004-.004-.002-.002-.003-.003-.005-.005-.001-.001-.003-.003-.004-.004-.002-.002-.003-.003-.005-.005-.001-.001-.003-.003-.004-.004-.002-.002-.003-.003-.005-.005-.002-.001-.003-.003-.005-.004-.001-.002-.003-.003-.004-.005-.002-.002-.003-.003-.005-.005-.001-.001-.003-.003-.004-.004-.002-.002-.003-.003-.005-.005-.001-.001-.003-.003-.004-.004-.002-.002-.003-.003-.005-.005-.001-.001-.003-.003-.004-.004-.002-.002-.003-.003-.005-.005-.001-.001-.003-.003-.004-.004-.002-.002-.003-.003-.005-.005zm2.416.822c-10.318 7.963-21.149 15.156-32.495 21.578l.986 1.74c11.428-6.469 22.338-13.714 32.731-21.735zm16.918-2.753-.805-.593-.034.045-.028.049zm2.062-.516-.521.853.01.007.01.006zm.645 2.063.867.498.029-.051.023-.053zm-10.506 23.461.903.429.027-.056.019-.059zm-1.998 1.031-.287.958.027.008.029.007zm-1.031-1.869-.949-.315-.024.07-.012.073zm26.168-24.75.164-.987-.042-.007-.042-.003zm1.096 2.707.707.707.023-.024.022-.025zm-1.096.451-.082.996.041.004h.041zm-29.262 2.642.124.993.069-.009.067-.018zm-1.933-1.095-.973.231.006.028.009.028zm1.095-1.934-.26-.965-.06.016-.058.024zm15.565-1.598c.221-.3.366-.355.404-.364.017-.004.107-.029.332.108l1.043-1.706c-.548-.335-1.188-.51-1.86-.343-.649.163-1.149.602-1.529 1.119zm.756-.243c.261.15.309.264.32.302.015.046.04.189-.093.501l1.838.788c.253-.591.365-1.243.164-1.885-.203-.649-.67-1.115-1.226-1.437zm.279.698c-4.33 7.535-7.86 15.417-10.588 23.645l1.898.629c2.686-8.1 6.161-15.859 10.424-23.277zm-10.542 23.53c-.152.319-.294.433-.377.475-.074.038-.211.079-.486.013l-.463 1.946c.626.149 1.273.125 1.866-.181.583-.301.988-.81 1.266-1.394zm-.808.503c-.247-.074-.299-.159-.314-.186-.024-.045-.082-.194-.019-.554l-1.97-.343c-.11.629-.081 1.285.238 1.863.329.597.879.952 1.491 1.136zm-.369-.597c2.772-8.358 6.354-16.353 10.746-23.986l-1.734-.997c-4.459 7.75-8.096 15.868-10.91 24.354zm25.054-24.078c.387.065.545.176.604.238.042.044.108.136.108.387h2c0-.651-.193-1.279-.666-1.772-.456-.476-1.072-.718-1.717-.826zm.712.625c0 .102-.032.241-.204.437l1.505 1.317c.43-.491.699-1.083.699-1.754zm-.159.389c-.111.111-.221.158-.388.158v2c.692 0 1.312-.254 1.803-.744zm-.306.161c-10.04-.826-19.91.066-29.604 2.674l.52 1.931c9.47-2.548 19.109-3.419 28.92-2.612zm-29.468 2.647c-.386.048-.567-.013-.64-.055-.052-.03-.14-.098-.212-.336l-1.915.575c.186.621.549 1.166 1.141 1.501.572.324 1.229.38 1.874.3zm-.837-.335c-.064-.27-.018-.385.01-.435.037-.065.149-.201.492-.341l-.757-1.851c-.603.246-1.146.626-1.475 1.206-.336.593-.366 1.252-.215 1.884zm.384-.736c9.772-2.635 19.69-3.548 29.759-2.741l.16-1.993c-10.298-.826-20.447.109-30.44 2.803zm25.778 16.759.091.996.009-.001zm0-3.416-.094-.996-.008.001-.008.001zm18.821-4.576-.423-.907-.013.006-.012.006zm6.638-5.028-.741-.671-.009.01-.008.009zm1.16-3.029 1-.039-.004-.103-.025-.101zm-1.031-1.031-.384.923.044.018.046.014zm-1.482-.387-.1.995.009.001zm-14.115 7.799-.895-.447-.004.009-.005.009zm-1.161 7.928-.988.154.002.01zm1.87 3.029-.579.816.021.014.021.013zm3.093 1.095-.114.994.024.003.025.001zm7.412-1.611-.433-.901-.02.01-.02.01zm6.381-4.189-.644-.765-.005.004-.006.005zm2.449 0 .785-.62-.063-.08-.077-.065zm0 2.449.67.743.063-.057.052-.066zm-9.281 5.736-.379-.925-.004.002zm-10.506.194-.433.901.037.018.039.015zm-4.511-4.963-.96.282.003.009.002.008zm2.384-13.407-.826-.562-.006.008-.006.009zm8.444-6.574.343.939h.002zm5.285-1.031.045.999h.011l.01-.001zm5.35.838.438-.899-.025-.012-.025-.011zm2.9 4.254 1 .023.001-.055-.005-.055zm-1.869 4.963.761.648.005-.006.006-.007zm-8.057 6.123-.422-.907-.01.005zm-20.264 3.838c-.125.011-.232-.01-.387-.184l-1.495 1.328c.533.6 1.242.922 2.063.848zm-.387-.184c-.216-.243-.263-.424-.263-.56h-2c0 .722.297 1.358.768 1.888zm-.263-.56c0-.289.077-.391.129-.44.073-.071.266-.192.722-.242l-.221-1.988c-.704.078-1.382.301-1.889.789-.528.509-.741 1.181-.741 1.881zm.834-.681c3.215-.304 6.451-.782 9.706-1.433l-.392-1.961c-3.19.638-6.357 1.106-9.502 1.403zm9.706-1.433c3.309-.662 6.466-1.743 9.468-3.244l-.895-1.789c-2.841 1.421-5.829 2.445-8.965 3.072zm9.443-3.232c2.707-1.263 5.034-3.025 6.974-5.282l-1.516-1.304c-1.755 2.041-3.853 3.63-6.303 4.773zm6.958-5.263c.974-1.077 1.472-2.336 1.418-3.739l-1.999.077c.032.832-.244 1.593-.902 2.32zm1.389-3.943c-.224-.894-.855-1.482-1.708-1.744l-.588 1.911c.264.082.321.181.355.318zm-1.617-1.711c-.593-.248-1.187-.406-1.777-.46l-.181 1.992c.356.032.751.131 1.189.314zm-1.768-.459c-3.203-.32-6.18.276-8.902 1.798l.976 1.745c2.349-1.313 4.914-1.834 7.727-1.553zm-8.902 1.798c-2.715 1.518-4.788 3.71-6.207 6.549l1.789.894c1.245-2.49 3.039-4.38 5.394-5.698zm-6.216 6.567c-1.288 2.715-1.706 5.561-1.245 8.511l1.976-.309c-.398-2.55-.042-4.989 1.076-7.344zm-1.243 8.521c.257 1.542 1.021 2.79 2.277 3.681l1.157-1.632c-.806-.571-1.289-1.342-1.461-2.378zm2.319 3.708c1.073.684 2.249 1.1 3.516 1.246l.229-1.987c-.968-.112-1.854-.426-2.672-.946zm3.565 1.25c2.808.185 5.466-.393 7.951-1.728l-.947-1.762c-2.156 1.158-4.44 1.654-6.873 1.495zm7.911-1.708c2.4-1.155 4.601-2.6 6.602-4.335l-1.31-1.511c-1.866 1.617-3.918 2.965-6.159 4.044zm6.591-4.325c.285-.24.473-.281.581-.281s.296.041.58.281l1.289-1.53c-.533-.448-1.161-.751-1.869-.751s-1.337.303-1.869.751zm1.021-.146c.221.281.268.477.268.605s-.047.324-.268.605l1.569 1.24c.423-.536.699-1.156.699-1.845 0-.688-.276-1.308-.699-1.844zm.115 1.087c-2.528 2.28-5.521 4.133-8.991 5.554l.758 1.851c3.664-1.501 6.858-3.472 9.572-5.919zm-8.995 5.556c-3.293 1.365-6.53 1.421-9.765.183l-.715 1.868c3.726 1.425 7.493 1.352 11.246-.204zm-9.689.216c-2.104-1.014-3.397-2.467-3.991-4.362l-1.909.599c.781 2.489 2.496 4.344 5.033 5.565zm-3.986-4.344c-.594-2.018-.659-4.17-.174-6.473l-1.957-.412c-.547 2.595-.483 5.084.212 7.449zm-.174-6.473c.493-2.345 1.31-4.375 2.437-6.106l-1.676-1.091c-1.279 1.964-2.181 4.231-2.718 6.785zm2.426-6.089c1.988-2.92 4.633-4.98 7.96-6.198l-.687-1.878c-3.719 1.361-6.703 3.684-8.926 6.951zm7.962-6.198c1.529-.563 3.188-.889 4.985-.971l-.091-1.998c-1.984.09-3.848.452-5.585 1.092zm5.006-.972c1.793-.12 3.419.14 4.895.762l.777-1.844c-1.79-.753-3.73-1.052-5.805-.914zm4.845.739c1.441.703 2.201 1.81 2.343 3.441l1.992-.173c-.202-2.321-1.376-4.05-3.458-5.066zm2.339 3.332c-.037 1.618-.577 3.057-1.641 4.35l1.544 1.271c1.341-1.629 2.048-3.498 2.097-5.575zm-1.63 4.337c-2.141 2.511-4.711 4.465-7.718 5.865l.844 1.813c3.267-1.521 6.068-3.65 8.396-6.381zm-7.728 5.87c-3.061 1.468-6.269 2.537-9.625 3.208l.392 1.961c3.518-.703 6.885-1.825 10.097-3.366zm-9.625 3.208c-3.406.681-6.812 1.192-10.216 1.533l.199 1.99c3.47-.347 6.94-.868 10.409-1.562z"/><path d="m120.432 255.416h-15.808l7.808-16.384zm9.536 19.584h19.904l-24.896-47.616h-24.448l-23.552 47.616h18.432l3.648-7.68h27.2zm65.126 0h18.176v-47.616h-54.4c0 24.768-.641 30.016-2.433 32.32-1.088 1.472-2.56 1.728-5.12 1.728h-.96v13.568h5.888c8.705 0 12.737-2.048 15.297-6.336 2.56-4.096 3.84-10.112 3.84-29.056h19.712zm42.742-33.6v-14.016h-18.176v47.616h38.208c19.264 0 24.064-7.488 24.064-16.384v-1.024c0-8.896-4.864-16.192-24.064-16.192zm0 21.76v-9.92h17.728c5.888 0 7.552 2.112 7.552 4.8v.192c0 2.56-1.664 4.928-7.552 4.928zm62.665 11.84h18.177v-34.624h20.544v-12.992h-59.265v12.992h20.544zm43.693-47.616v47.616h53.185v-11.904h-35.265v-6.528h34.048v-11.584h-34.048v-5.952h34.753v-11.648zm98.383 32.704c17.408 0 22.592-7.296 22.592-15.936v-1.024c0-8.768-4.992-15.744-22.592-15.744h-39.68v47.616h18.176v-14.912zm-21.504-20.8h19.328c4.288 0 6.016 1.6 6.016 4.352v.192c0 2.624-1.856 4.352-6.016 4.352h-19.328zm48.272 35.712h18.176v-18.112h29.76v18.112h18.112v-47.616h-18.112v16.832h-29.76v-16.832h-18.176zm112.005-19.584h-15.808l7.808-16.384zm9.536 19.584h19.904l-24.896-47.616h-24.448l-23.552 47.616h18.432l3.648-7.68h27.2zm31.378 0h18.176v-34.624h20.544v-12.992h-59.264v12.992h20.544zm91.565 0h18.176v-47.616h-18.176l-29.888 29.952v-29.952h-18.176v47.616h18.176l29.888-29.888zm24.768 0h45.056c15.552 0 20.096-6.272 20.096-13.76v-.768c0-8.384-6.72-11.2-10.944-12.224 3.136-.704 8.192-3.392 8.192-9.344v-.704c0-5.44-3.712-10.816-17.6-10.816h-44.8zm39.296-36.8c3.776 0 4.864 1.408 4.864 3.264v.128c0 1.792-1.088 3.328-4.864 3.328h-21.12v-6.72zm1.152 17.408c4.672 0 5.632 1.856 5.632 3.904v.192c0 1.856-.896 4.096-5.632 4.096h-22.272v-8.192zm28.625 19.392h18.176v-18.112h29.76v18.112h18.112v-47.616h-18.112v16.832h-29.76v-16.832h-18.176zm90.628-33.6v-14.016h-18.176v47.616h38.208c19.264 0 24.064-7.488 24.064-16.384v-1.024c0-8.896-4.864-16.192-24.064-16.192zm0 21.76v-9.92h17.728c5.888 0 7.552 2.112 7.552 4.8v.192c0 2.56-1.664 4.928-7.552 4.928zm65.856-35.776h-18.112v47.616h18.112zm6.488 0v47.616h53.188v-11.904h-35.268v-6.528h34.048v-11.584h-34.048v-5.952h34.748v-11.648z"/></g><g mask="url(#a)"><path d="m440 338h124v211h-124z" fill="#a2c366"/></g><path d="m457 500.487-24.235-31.26 21.563 8.302-23.782-28.302 15.53 4.319-25.345-37.546-25.546 37.546 16.067-3.328-22.907 27.261 21.748-7.126-25.093 29.428 28.622-7.176v22.185h13.832v-22.168z" fill="#a2c366"/><path d="m348 500.487-24.235-31.26 21.563 8.302-23.782-28.302 15.53 4.319-25.345-37.546-25.546 37.546 16.067-3.328-22.907 27.261 21.748-7.126-25.093 29.428 28.622-7.176v22.185h13.832v-22.168z" fill="#a2c366"/><path d="m0 0h266v56h-266z" fill="#8b52d4" transform="matrix(.99593658 -.09005741 .09005741 .99593658 939.953 523.578)"/><path d="m968.634 536.592c-5.211.471-8.754 3.924-9.5 10.064l-.956.087-.322-8.887-6.119.553 3.311 36.619 6.119-.554-2.146-18.409.812-.074c1.761 6.685 5.936 9.151 11.338 8.662 6.741-.609 11.338-7.338 10.685-14.557-.752-8.318-6.482-14.114-13.222-13.504zm-.115 22.18c-4.541.411-8.334-3.15-8.718-7.405-.376-4.159 2.859-7.825 7.304-8.227 4.638-.419 8.278 2.529 8.701 7.214.402 4.446-2.65 7.999-7.287 8.418zm21.978-8.156 21.083-1.906c-.56-9.396-6.6-15.405-14.678-14.674-7.697.696-13.393 7.524-12.692 15.269.704 7.792 7.533 13.488 15.229 12.792 4.881-.441 9.321-3.011 11.451-8.169l-4.31-2.405c-1.81 2.911-4.47 4.357-7.677 4.646-4.254.385-7.352-1.889-8.406-5.553zm6.932-10.748c3.581-.324 6.891 1.546 8.051 5.345l-15.298 1.383c.553-3.472 3.136-6.356 7.247-6.728zm45.781 11.139-5.13-2.815c-1.65 2.994-4.01 4.605-7.22 4.895-4.54.41-8.05-2.212-8.51-7.231-.42-4.685 2.54-8.182 7.08-8.593 3.3-.298 5.65.598 8.46 4.007l4.44-3.679c-2.93-4.651-7.62-6.974-13.93-6.404-7.69.696-12.87 7.478-12.16 15.222.7 7.744 7 13.536 14.7 12.84 6.21-.562 10.2-3.381 12.27-8.242zm21.38-22.803-3.49 23.835-2.67.242-8.18-22.78-6.17.558 9.47 26.422 6.89-.622c-.94 3.989-2.71 4.148-10.46 4.849l.52 5.689c10.51-.951 15.27-4.274 16.66-13.99l3.59-24.76zm26.92-2.723c-5.21.471-8.76 3.924-9.5 10.064l-.96.087-.32-8.887-6.12.553 3.31 36.619 6.12-.554-2.15-18.409.82-.074c1.76 6.685 5.93 9.151 11.34 8.663 6.74-.61 11.33-7.339 10.68-14.558-.75-8.318-6.48-14.113-13.22-13.504zm-.12 22.181c-4.54.41-8.33-3.151-8.72-7.405-.37-4.159 2.86-7.826 7.31-8.228 4.64-.419 8.28 2.529 8.7 7.214.4 4.446-2.65 7.999-7.29 8.419zm42.66-4.87-5.12-2.814c-1.65 2.993-4.02 4.604-7.22 4.894-4.54.41-8.05-2.212-8.51-7.231-.42-4.685 2.54-8.182 7.08-8.593 3.3-.298 5.65.598 8.46 4.007l4.44-3.679c-2.93-4.651-7.62-6.974-13.93-6.404-7.7.696-12.87 7.478-12.17 15.222s7.01 13.536 14.71 12.84c6.21-.562 10.2-3.38 12.26-8.242zm18.88 5.426c7.74-.7 12.95-7.629 12.23-15.565-.7-7.792-7.07-13.675-14.81-12.975-7.75.701-13 7.634-12.29 15.426.71 7.936 7.12 13.814 14.87 13.114zm-.54-5.928c-4.59.415-7.92-2.898-8.35-7.678-.43-4.733 2.26-8.591 6.84-9.006 4.64-.419 7.88 2.903 8.31 7.635.43 4.781-2.16 8.63-6.8 9.049zm18.78 3.555 14.58-1.318c7.89-.713 11.27-3.91 10.87-8.26-.38-4.207-4.21-6.126-8.56-6.167l-.07-.813c3.21-.724 5.59-3.204 5.27-6.742-.28-3.155-3.12-5.694-9.95-5.076l-14.58 1.319zm4.32-17.307-.43-4.732 8.75-.791c2.53-.229 3.97.171 4.13 1.988.17 1.864-1.17 2.515-3.7 2.744zm.98 10.9-.51-5.641 8.75-.791c3.68-.333 5.19.398 5.36 2.214.17 1.865-1.17 3.094-4.85 3.427z" fill="#f5f2cd"/></svg>