<svg fill="none" height="650" viewBox="0 0 1440 650" width="1440" xmlns="http://www.w3.org/2000/svg" xmlns:xlink="http://www.w3.org/1999/xlink"><clipPath id="a"><path d="m0 0h72.6227v98.7668h-72.6227z" transform="matrix(.99476401 -.1021986 .1021986 .99476401 125 474.34)"/></clipPath><clipPath id="b"><path d="m0 0h72.6227v98.7668h-72.6227z" transform="matrix(.99476401 -.1021986 .1021986 .99476401 236.543 462.881)"/></clipPath><clipPath id="c"><path d="m0 0h72.6227v98.7668h-72.6227z" transform="matrix(.99476401 -.1021986 .1021986 .99476401 348.085 451.42)"/></clipPath><clipPath id="d"><path d="m0 0h72.6227v98.7668h-72.6227z" transform="matrix(.99476401 -.1021986 .1021986 .99476401 1061 94.3398)"/></clipPath><clipPath id="e"><path d="m0 0h72.6227v98.7668h-72.6227z" transform="matrix(.99476401 -.1021986 .1021986 .99476401 1172.54 82.8809)"/></clipPath><clipPath id="f"><path d="m0 0h72.6227v98.7668h-72.6227z" transform="matrix(.99476401 -.1021986 .1021986 .99476401 1284.08 71.4199)"/></clipPath><path d="m450.48 444v-91.344c-1.408.528-3.432 1.056-6.072 1.584-2.464.528-5.192.792-8.184.792-9.504 0-16.984-3.08-22.44-9.24s-8.184-15.4-8.184-27.72v-91.344h24.552v90.552c0 5.104.792 8.888 2.376 11.352 1.584 2.288 4.576 3.432 8.976 3.432 1.936 0 3.52-.176 4.752-.528 1.408-.528 2.816-1.144 4.224-1.848v-102.96h24.552v217.272zm43.618 0v-217.272h58.608v24.552h-34.32v69.696h22.968v24.552h-22.968v74.184h35.64v24.288zm67.122 0v-24.288h3.168c2.816 0 5.192-.616 7.128-1.848 1.936-1.408 3.696-4.84 5.28-10.296.704-2.464 1.408-5.72 2.112-9.768s1.32-9.416 1.848-16.104c.704-6.688 1.408-14.96 2.112-24.816.704-10.032 1.408-22.352 2.112-36.96l4.752-93.192h57.288v217.272h-24.288v-192.72h-13.2l-3.96 72.864c-.88 14.608-1.76 27.192-2.64 37.752-.704 10.384-1.496 19.272-2.376 26.664-.88 7.216-1.76 13.112-2.64 17.688s-1.672 8.272-2.376 11.088c-2.464 8.8-5.984 15.488-10.56 20.064-4.4 4.4-11 6.6-19.8 6.6zm103.255-182.688c0-24.64 11.528-36.96 34.584-36.96 23.232 0 34.848 12.32 34.848 36.96v148.104c0 24.64-11.616 36.96-34.848 36.96-23.056 0-34.584-12.32-34.584-36.96zm45.144 0c0-8.272-3.52-12.408-10.56-12.408-6.864 0-10.296 4.136-10.296 12.408v148.104c0 8.448 3.432 12.672 10.296 12.672 7.04 0 10.56-4.224 10.56-12.672zm86.662 2.376c0-4.576-.792-7.744-2.376-9.504-1.584-1.936-4.136-2.904-7.656-2.904h-10.824v71.016h11.088c6.512 0 9.768-3.784 9.768-11.352zm.528 92.664c0-4.576-.792-7.832-2.376-9.768-1.408-1.936-4.048-2.904-7.92-2.904h-11.088v76.032h10.824c7.04 0 10.56-4.224 10.56-12.672zm-45.672 87.648v-217.272h35.112c11.792 0 20.152 2.992 25.08 8.976 5.104 5.984 7.656 15.576 7.656 28.776v44.088c0 12.32-3.872 19.976-11.616 22.968 3.872.88 7.216 3.168 10.032 6.864s4.224 8.976 4.224 15.84v53.064c0 12.848-2.992 22.176-8.976 27.984-5.808 5.808-14.608 8.712-26.4 8.712zm86.109 0v-217.272h58.608v24.552h-34.32v69.696h22.968v24.552h-22.968v74.184h35.64v24.288zm128.634 0c-5.456-18.128-10.648-35.728-15.576-52.8-4.928-17.248-9.944-34.672-15.048-52.272.352 8.976.528 18.216.528 27.72v31.68 45.672h-24.552v-217.272h24.552v44.88 26.928c0 7.04-.176 13.904-.528 20.592 4.928-16.016 9.856-31.504 14.784-46.464 4.928-15.136 9.944-30.448 15.048-45.936h26.136l-34.848 97.944 37.488 119.328zm89.91 0-3.96-33.528h-26.66c-.88 5.632-1.67 11.264-2.38 16.896-.52 5.456-1.14 11-1.84 16.632h-23.763l28.243-217.272h28.25l26.67 217.272zm-6.6-55.968c-1.93-16.544-3.78-32.824-5.54-48.84-1.76-16.192-3.43-32.824-5.02-49.896-3.16 34.144-6.86 67.056-11.08 98.736z" fill="#8b52d4"/><path d="m52.88 210h39.04c19.264 0 24.064-6.912 24.064-15.424v-.576c0-8.384-4.8-14.72-24.064-14.72h-20.864v-5.696h40.384v-11.2h-58.56zm18.176-11.52v-8.448h18.88c5.696 0 7.232 1.728 7.232 4.032v.192c0 2.24-1.536 4.224-7.232 4.224zm49.406-36.096v47.616h53.184v-11.904h-35.264v-6.528h34.048v-11.584h-34.048v-5.952h34.752v-11.648zm98.383 32.704c17.408 0 22.592-7.296 22.592-15.936v-1.024c0-8.768-4.993-15.744-22.592-15.744h-39.681v47.616h18.176v-14.912zm-21.505-20.8h19.328c4.289 0 6.017 1.6 6.017 4.352v.192c0 2.624-1.856 4.352-6.017 4.352h-19.328zm48.464-11.904v47.616h53.185v-11.904h-35.265v-6.528h34.048v-11.584h-34.048v-5.952h34.753v-11.648zm58.511 47.616h18.176v-34.944h32.128v-12.672h-50.304zm103.329 0h18.176v-47.616h-18.176l-29.888 29.952v-29.952h-18.176v47.616h18.176l29.888-29.888zm43.84 0h18.176v-34.624h20.544v-12.992h-59.264v12.992h20.544zm43.693-47.616v47.616h53.184v-11.904h-35.264v-6.528h34.048v-11.584h-34.048v-5.952h34.752v-11.648z" fill="#a2c366"/><path d="m0 0h334v56h-334z" fill="#8b52d4" transform="matrix(.99864843 -.05197412 .05197412 .99864843 585 166.359)"/><path d="m613.163 180.458c2.237-.116 4.283.418 6.14 1.604 1.888 1.183 3.417 2.866 4.588 5.048 1.169 2.15 1.826 4.599 1.969 7.347.124 2.397-.286 4.662-1.233 6.794-.946 2.132-2.298 3.868-4.055 5.21-1.758 1.309-3.74 2.021-5.945 2.135-2.812.147-5.169-.516-7.072-1.987-1.904-1.471-3.212-3.838-3.927-7.101l-.815.042 1.443 18.478-6.136.32-1.911-36.719 6.136-.319-.018 8.893.958-.05c.485-3.005 1.581-5.337 3.289-6.996 1.74-1.661 3.937-2.56 6.589-2.699zm-.962 22.16c1.534-.079 2.891-.486 4.07-1.221 1.18-.734 2.075-1.694 2.686-2.879.642-1.219.924-2.564.848-4.034-.122-2.333-.971-4.195-2.55-5.587-1.58-1.424-3.537-2.075-5.869-1.953-1.47.076-2.795.482-3.975 1.216-1.179.734-2.106 1.696-2.781 2.884-.644 1.187-.929 2.468-.858 3.842.073 1.406.495 2.73 1.264 3.972.768 1.209 1.779 2.166 3.034 2.87 1.284.67 2.661.967 4.131.89zm22.274-7.311c.451 1.899 1.394 3.388 2.828 4.467 1.464 1.045 3.251 1.513 5.36 1.403 3.387-.176 6.004-1.626 7.849-4.35l4.219 2.569c-1.124 2.429-2.725 4.291-4.804 5.585-2.08 1.294-4.398 2.007-6.955 2.14-2.524.132-4.889-.37-7.095-1.505-2.208-1.167-4.007-2.788-5.396-4.862-1.36-2.108-2.106-4.441-2.239-6.997-.133-2.557.368-4.938 1.503-7.144 1.166-2.208 2.788-3.99 4.864-5.348 2.075-1.39 4.374-2.15 6.899-2.282 2.684-.139 5.084.409 7.199 1.644 2.115 1.236 3.779 3.04 4.992 5.412 1.211 2.34 1.85 5.063 1.915 8.168zm7.337-10.476c-1.981.103-3.645.767-4.991 1.99-1.316 1.19-2.152 2.676-2.508 4.457l15.339-.798c-.481-1.866-1.452-3.289-2.913-4.271-1.431-1.015-3.073-1.474-4.927-1.378zm53.651 13.022.801 15.387-5.898.259-.497-9.539-25.31 1.317.497 9.539-5.894.355-.801-15.388 4.171-.217c1.757-.091 2.963-.33 3.615-.716.685-.389 1.121-1.244 1.309-2.568.187-1.323.198-3.583.031-6.779l-.601-11.552 21.571-1.123 1.11 21.331zm-11.6.603-.808-15.531-10.259.534.3 5.752c.116 2.237.136 4.159.06 5.765-.047 1.573-.233 2.928-.558 4.066zm42.272-23.589-8.402 14.04 9.814 13.092-6.375.331-7.747-10.315-7.813.407.556 10.689-5.608.292-1.412-27.131 5.608-.292.554 10.642 7.861-.41 6.589-11.013zm31.833-1.656 1.415 27.179-5.705.297-1.027-19.75-14.072 20.535-6.232.325.046-.051-1.412-27.131 5.608-.292 1.028 19.749 14.024-20.532zm19.259-1.772c-2.205.115-4.302-.16-6.292-.826-1.989-.665-3.648-1.749-4.975-3.25-1.296-1.502-2.004-3.404-2.124-5.705l5.992-.312c.063 1.823.69 3.088 1.88 3.796 1.222.705 2.968.999 5.237.881 2.109-.11 3.703-.578 4.781-1.403 1.077-.857 1.569-2.18 1.476-3.97l5.992-.312c.12 2.301-.387 4.266-1.52 5.895s-2.638 2.877-4.515 3.744c-1.846.865-3.823 1.352-5.932 1.462zm13.653.059 1.415 27.179-5.705.297-1.027-19.75-14.072 20.536-6.28.326.046-.05-1.412-27.131 5.656-.295 1.025 19.702 14.027-20.485zm31.491-1.639c3.228-.168 5.637.267 7.23 1.306 1.592 1.038 2.433 2.421 2.522 4.146.09 1.726-.395 3.177-1.455 4.354-1.03 1.143-2.386 1.87-4.068 2.182l.042.815c2.313.104 4.251.708 5.814 1.812 1.564 1.105 2.398 2.663 2.503 4.677.118 2.269-.765 4.093-2.648 5.473-1.85 1.378-4.693 2.166-8.528 2.366l-14.62.761-1.412-27.131zm.536 10.306c1.342-.07 2.324-.297 2.945-.682s.908-1.025.861-1.92c-.045-.862-.396-1.453-1.053-1.771-.658-.318-1.658-.443-3-.373l-8.772.457.247 4.745zm.569 10.929c3.419-.178 5.078-1.258 4.974-3.239-.048-.927-.482-1.577-1.303-1.951-.822-.406-2.144-.561-3.965-.466l-8.772.456.294 5.657zm43.142-23.538 1.415 27.179-5.705.297-1.028-19.749-14.071 20.535-6.232.324.046-.05-1.412-27.132 5.608-.291 1.028 19.749 14.024-20.533zm43.008 19.151.801 15.387-5.898.259-.497-9.539-25.309 1.317.496 9.539-5.893.355-.801-15.388 4.17-.217c1.758-.091 2.963-.33 3.616-.716.684-.389 1.121-1.244 1.308-2.568.187-1.323.198-3.583.032-6.779l-.602-11.552 21.571-1.123 1.11 21.331zm-11.6.603-.808-15.531-10.258.534.299 5.752c.117 2.237.136 4.159.06 5.765-.046 1.573-.232 2.928-.558 4.067z" fill="#f5f2cd"/><path d="m720.752 503.088c17.408 0 22.592-7.296 22.592-15.936v-1.024c0-8.768-4.992-15.744-22.592-15.744h-39.68v47.616h18.176v-14.912zm-21.504-20.8h19.328c4.288 0 6.016 1.6 6.016 4.352v.192c0 2.624-1.856 4.352-6.016 4.352h-19.328zm79.887 16.128h-15.809l7.809-16.384zm9.536 19.584h19.904l-24.896-47.616h-24.448l-23.553 47.616h18.433l3.648-7.68h27.199zm21.989 0h39.04c19.264 0 24.064-6.912 24.064-15.424v-.576c0-8.384-4.8-14.72-24.064-14.72h-20.864v-5.696h40.384v-11.2h-58.56zm18.176-11.52v-8.448h18.88c5.696 0 7.232 1.728 7.232 4.032v.192c0 2.24-1.536 4.224-7.232 4.224zm82.558-36.992c-30.848 0-34.752 14.656-34.752 23.616v1.92c0 8.896 3.904 23.872 34.752 23.872h2.88c30.784 0 34.688-14.976 34.688-23.872v-1.92c0-8.96-3.968-23.616-34.688-23.616zm18.752 24.96c0 5.12-3.264 11.584-17.344 11.584s-17.344-6.72-17.344-11.712v-.768c0-5.056 3.008-11.264 17.344-11.264 14.08 0 17.344 6.208 17.344 11.264zm40.995 23.552h18.177v-34.624h20.542v-12.992h-59.263v12.992h20.544zm75.159-48.512c-30.85 0-34.75 14.656-34.75 23.616v1.92c0 8.896 3.9 23.872 34.75 23.872h2.88c30.78 0 34.69-14.976 34.69-23.872v-1.92c0-8.96-3.97-23.616-34.69-23.616zm18.75 24.96c0 5.12-3.26 11.584-17.34 11.584s-17.35-6.72-17.35-11.712v-.768c0-5.056 3.01-11.264 17.35-11.264 14.08 0 17.34 6.208 17.34 11.264zm71.48 23.552h18.18v-47.616h-18.18l-29.88 29.952v-29.952h-18.18v47.616h18.18l29.88-29.888zm-13.24-50.048c11.39 0 14.27-7.488 14.27-10.88v-.128h-11.52c0 .768-.51 3.136-3.97 3.136-3.52 0-4.1-2.368-4.1-3.136h-11.71v.128c0 3.392 1.99 10.88 14.47 10.88z" fill="#a2c366"/><path d="m793.88 582h18.176v-34.944h32.128v-12.672h-50.304zm88.172-48.512c-30.849 0-34.753 14.656-34.753 23.616v1.92c0 8.896 3.904 23.872 34.753 23.872h2.879c30.784 0 34.688-14.976 34.688-23.872v-1.92c0-8.96-3.967-23.616-34.688-23.616zm18.752 24.96c0 5.12-3.264 11.584-17.345 11.584-14.079 0-17.344-6.72-17.344-11.712v-.768c0-5.056 3.009-11.264 17.344-11.264 14.081 0 17.345 6.208 17.345 11.264zm63.291 8.64c17.408 0 22.592-7.296 22.592-15.936v-1.024c0-8.768-4.993-15.744-22.592-15.744h-39.681v47.616h18.176v-14.912zm-21.505-20.8h19.328c4.289 0 6.017 1.6 6.017 4.352v.192c0 2.624-1.856 4.352-6.017 4.352h-19.328zm92.31 20.416v15.296h18.17v-47.616h-41.85c-16.451 0-21.635 7.616-21.635 15.616v1.024c0 7.296 4.8 13.12 16.385 14.656l-18.113 16.32h22.403l16.25-15.296zm0-11.392h-20.67c-4.16 0-5.83-1.984-5.83-4.48v-.128c0-2.368 1.6-4.416 5.76-4.416h20.74zm24.6 26.688h83.14v8.32h17.09v-20.992h-7.68v-34.944h-18.56v34.944h-18.44v-34.944h-18.56v34.944h-18.43v-34.944h-18.56zm104.27-47.616v47.616h53.19v-11.904h-35.27v-6.528h34.05v-11.584h-34.05v-5.952h34.75v-11.648zm58.51 47.616h18.18v-34.944h32.13v-12.672h-50.31zm88.17-48.512c-30.84 0-34.75 14.656-34.75 23.616v1.92c0 8.896 3.91 23.872 34.75 23.872h2.88c30.79 0 34.69-14.976 34.69-23.872v-1.92c0-8.96-3.97-23.616-34.69-23.616zm18.76 24.96c0 5.12-3.27 11.584-17.35 11.584s-17.34-6.72-17.34-11.712v-.768c0-5.056 3.01-11.264 17.34-11.264 14.08 0 17.35 6.208 17.35 11.264z" fill="#a2c366"/><g fill="#8b52d4"><g clip-path="url(#a)"><path d="m157.022 514.971c-1.265-2.7-2.355-5.493-3.843-8.072-1.891-3.287-4.336-6.284-6.127-9.617-3.203-5.952-3.634-12.31-1.876-18.805.156-.58.953-1.003 1.454-1.503.424.544 1.126 1.039 1.228 1.638.677 3.948 2.086 7.62 4.461 10.868 1.592 2.177 3.455 4.174 5.291 6.171.338.37 1.124.354 1.702.517.126-.58.475-1.213.345-1.731-.885-3.47-2.374-6.782-2.476-10.452-.121-4.299 1.225-8.245 2.897-12.138.095-.22.248-.471.449-.592.469-.277.982-.481 1.477-.716.242.492.7.985.685 1.473-.051 1.963-.384 3.927-.362 5.885.038 3.222 1.01 6.103 3.156 8.713 1.588 1.934 2.638 4.276 3.929 6.436.213.358.431.713.914.996.023-1.161-.124-2.351.107-3.474.61-2.982 1.031-6.069 2.203-8.856 1.065-2.53 3.438-4.259 6.247-5.112.447-.135 1.305.133 1.548.486.251.366.206 1.226-.087 1.591-3.737 4.682-2.638 9.546-.708 14.391 1.415 3.552 3.036 7.029 4.579 10.535.475 1.077 1.373 1.258 2.1.364 1.195-1.471 2.164-3.133 3.494-4.469 1.212-1.221 2.757-2.14 4.213-3.118.194-.13.895.083 1.027.319.211.368.257.906.169 1.337-.575 2.791-1.376 5.549-1.754 8.362-.237 1.777.049 3.633.234 5.437.439 4.271.802 8.525-.08 12.803-.103.5.209 1.38.61 1.585.385.198 1.311-.081 1.69-.444 1.564-1.494 3.277-2.706 5.44-3.181.468-.101 1.241-.026 1.466.262.291.371.281 1.058.196 1.578-.067.399-.388.821-.713 1.116-3.606 3.263-4.463 7.571-4.771 11.974-.287 4.062-1.162 7.954-2.355 11.854-1.314 4.29-3.458 8.127-6.451 11.431-6.31 6.962-14.143 9.478-23.464 6.771-2.385-.694-4.788-1.359-7.091-2.251-1.441-.559-2.699-1.534-4.058-2.291-4.615-2.564-7.777-6.406-9.98-10.952-.933-1.927-1.145-4.171-1.882-6.204-1.676-4.627-3.363-9.259-5.277-13.793-.926-2.192-2.303-4.224-3.633-6.232-.581-.875-1.571-1.495-2.348-2.259-.35-.344-.724-.71-.919-1.138-.573-1.245.073-2.146 1.44-1.85 2.28.491 4.54 1.111 6.766 1.794 3.44 1.054 6.216 3.002 8.273 5.891.228.319 1.044.633 1.261.489.477-.32 1.012-.909 1.052-1.421.276-3.539-.809-6.673-3.116-9.442-1.835-2.202-4.323-3.476-6.827-4.795-2.263-1.193-3.924-3.084-4.788-5.368-1.74-4.606-1.759-9.453-1.398-14.29.039-.523.684-1.347 1.143-1.415.45-.067 1.244.541 1.503 1.04 1.155 2.224 2.029 4.599 3.3 6.755.782 1.325 1.955 2.526 3.199 3.485 3.907 3.008 7.971 5.83 11.892 8.822 1.083.827 1.888 1.992 2.819 3.001l.432-.19zm12.98 40.909c6.351-.768 11.517-3.515 15.316-8.556 1.112-1.474 1.114-1.935-.27-3.114-2.609-2.22-5.539-3.74-8.979-4.673-5.607-1.52-10.877-.661-15.917 1.627-3.054 1.386-5.44 3.805-7.446 6.497-.822 1.103-.694 1.897.306 2.798 4.792 4.319 10.497 5.972 16.99 5.421z"/><path d="m166.892 553.878c-4.829-.145-8.78-2.077-12.549-4.971 3.024-3.664 6.538-6.222 11.109-7.399-2.038 1.807-3.344 3.952-2.991 6.606.348 2.605 1.866 4.575 4.428 5.761z"/><path d="m172.529 553.374c5.175-4.882 3.744-9.555-1.262-12.471.51-.052.822-.141 1.119-.106 3.847.437 7.171 2.073 10.327 4.11 1.012.653 1.035 1.304.197 2.13-2.752 2.703-5.748 5.042-9.563 6.209-.216.067-.45.073-.818.128z"/></g><g clip-path="url(#b)"><path d="m268.565 503.512c-1.265-2.7-2.355-5.493-3.843-8.072-1.891-3.286-4.336-6.284-6.127-9.617-3.203-5.952-3.634-12.31-1.876-18.805.156-.58.953-1.003 1.454-1.503.424.544 1.126 1.039 1.228 1.638.677 3.948 2.086 7.62 4.461 10.868 1.592 2.177 3.455 4.174 5.291 6.171.338.37 1.124.354 1.702.517.126-.58.475-1.213.344-1.731-.884-3.47-2.373-6.782-2.475-10.452-.121-4.299 1.225-8.245 2.897-12.138.095-.22.248-.471.449-.592.469-.277.982-.481 1.477-.716.242.492.7.985.685 1.473-.051 1.963-.384 3.927-.362 5.885.038 3.222 1.01 6.103 3.156 8.713 1.588 1.934 2.638 4.276 3.929 6.436.212.358.431.713.914.996.023-1.161-.124-2.351.107-3.474.61-2.982 1.031-6.069 2.203-8.856 1.065-2.53 3.438-4.259 6.247-5.112.447-.135 1.305.133 1.548.486.251.366.206 1.226-.087 1.591-3.737 4.682-2.638 9.546-.708 14.391 1.415 3.552 3.036 7.029 4.579 10.535.475 1.077 1.373 1.258 2.1.364 1.195-1.471 2.164-3.133 3.494-4.469 1.212-1.221 2.757-2.14 4.213-3.118.194-.13.895.083 1.027.319.211.368.257.906.169 1.337-.575 2.791-1.376 5.549-1.754 8.362-.237 1.777.049 3.633.234 5.438.439 4.27.802 8.524-.08 12.802-.103.5.209 1.38.61 1.585.385.198 1.311-.081 1.69-.444 1.564-1.494 3.277-2.706 5.44-3.181.468-.101 1.241-.026 1.466.262.291.371.281 1.058.196 1.578-.067.399-.388.821-.713 1.116-3.606 3.263-4.463 7.571-4.771 11.974-.287 4.063-1.162 7.954-2.355 11.854-1.314 4.29-3.458 8.127-6.451 11.431-6.31 6.962-14.143 9.478-23.464 6.771-2.385-.694-4.788-1.359-7.091-2.251-1.441-.559-2.699-1.534-4.058-2.291-4.615-2.564-7.777-6.406-9.98-10.952-.933-1.927-1.145-4.171-1.882-6.204-1.676-4.627-3.363-9.259-5.277-13.793-.926-2.192-2.303-4.224-3.633-6.232-.581-.875-1.571-1.495-2.348-2.259-.35-.344-.724-.71-.919-1.138-.573-1.245.073-2.146 1.44-1.85 2.28.491 4.54 1.111 6.766 1.794 3.44 1.054 6.216 3.002 8.273 5.891.227.319 1.044.633 1.261.489.477-.32 1.012-.909 1.052-1.421.276-3.539-.809-6.673-3.116-9.442-1.835-2.202-4.323-3.476-6.827-4.795-2.263-1.193-3.924-3.084-4.789-5.368-1.739-4.606-1.758-9.453-1.397-14.29.039-.523.684-1.347 1.143-1.415.45-.067 1.244.541 1.503 1.04 1.155 2.224 2.029 4.599 3.3 6.755.782 1.325 1.955 2.526 3.199 3.485 3.907 3.008 7.971 5.83 11.892 8.822 1.082.827 1.888 1.992 2.819 3.001l.431-.19zm12.98 40.909c6.351-.768 11.517-3.515 15.316-8.556 1.112-1.474 1.114-1.934-.27-3.114-2.609-2.22-5.539-3.74-8.979-4.672-5.607-1.521-10.877-.662-15.917 1.626-3.054 1.386-5.44 3.805-7.446 6.497-.822 1.103-.694 1.897.306 2.798 4.792 4.319 10.497 5.972 16.99 5.421z"/><path d="m278.435 542.419c-4.829-.145-8.78-2.077-12.549-4.971 3.024-3.664 6.538-6.222 11.108-7.399-2.037 1.807-3.343 3.952-2.99 6.606.348 2.605 1.866 4.575 4.428 5.761z"/><path d="m284.072 541.916c5.175-4.883 3.744-9.556-1.262-12.472.51-.052.822-.141 1.119-.106 3.847.437 7.171 2.073 10.327 4.11 1.012.653 1.035 1.304.197 2.13-2.752 2.703-5.748 5.042-9.563 6.209-.216.067-.45.073-.818.129z"/></g><g clip-path="url(#c)"><path d="m380.107 492.051c-1.265-2.7-2.355-5.493-3.843-8.072-1.891-3.286-4.336-6.284-6.127-9.616-3.203-5.953-3.634-12.311-1.876-18.806.156-.58.953-1.003 1.454-1.503.424.544 1.126 1.039 1.228 1.638.677 3.948 2.086 7.62 4.461 10.868 1.592 2.177 3.455 4.174 5.291 6.171.338.37 1.124.354 1.702.517.126-.58.475-1.212.344-1.731-.884-3.47-2.373-6.782-2.475-10.451-.121-4.3 1.225-8.246 2.897-12.139.095-.22.248-.471.449-.592.469-.277.982-.481 1.477-.716.242.492.7.985.685 1.474-.051 1.962-.384 3.926-.362 5.884.038 3.222 1.01 6.103 3.156 8.713 1.588 1.934 2.638 4.276 3.929 6.436.212.358.431.713.914.996.023-1.161-.124-2.351.107-3.474.61-2.982 1.031-6.069 2.203-8.856 1.065-2.53 3.438-4.259 6.247-5.112.447-.135 1.305.134 1.548.486.251.366.206 1.226-.087 1.592-3.737 4.681-2.638 9.545-.708 14.39 1.415 3.552 3.036 7.029 4.579 10.535.475 1.077 1.373 1.258 2.1.364 1.195-1.471 2.164-3.133 3.494-4.469 1.212-1.221 2.757-2.14 4.213-3.118.194-.13.895.083 1.027.319.211.368.257.906.169 1.337-.575 2.791-1.376 5.55-1.754 8.362-.237 1.777.049 3.633.234 5.438.439 4.27.802 8.524-.08 12.802-.103.5.209 1.38.61 1.585.385.198 1.311-.081 1.69-.444 1.564-1.494 3.277-2.706 5.44-3.181.468-.101 1.241-.026 1.466.262.291.371.281 1.058.196 1.578-.067.399-.389.821-.713 1.116-3.606 3.263-4.463 7.571-4.771 11.974-.287 4.063-1.162 7.954-2.355 11.854-1.314 4.29-3.458 8.127-6.451 11.431-6.31 6.962-14.143 9.478-23.464 6.771-2.385-.694-4.788-1.359-7.091-2.251-1.441-.558-2.699-1.534-4.058-2.291-4.615-2.564-7.777-6.406-9.98-10.952-.933-1.927-1.145-4.171-1.882-6.204-1.676-4.627-3.363-9.259-5.277-13.793-.926-2.191-2.303-4.224-3.633-6.231-.581-.876-1.571-1.496-2.348-2.26-.35-.344-.724-.709-.919-1.138-.573-1.245.073-2.146 1.44-1.85 2.28.491 4.54 1.111 6.766 1.794 3.44 1.054 6.216 3.002 8.273 5.892.227.318 1.044.632 1.261.488.477-.319 1.012-.909 1.052-1.421.276-3.539-.809-6.673-3.116-9.442-1.835-2.202-4.323-3.476-6.827-4.795-2.263-1.193-3.924-3.084-4.789-5.368-1.739-4.606-1.758-9.453-1.397-14.29.039-.523.684-1.347 1.143-1.415.45-.067 1.244.541 1.503 1.04 1.155 2.224 2.029 4.599 3.3 6.756.782 1.324 1.955 2.525 3.199 3.484 3.907 3.008 7.971 5.831 11.892 8.822 1.082.828 1.888 1.992 2.819 3.001l.431-.19zm12.98 40.909c6.351-.768 11.517-3.514 15.316-8.556 1.112-1.474 1.114-1.934-.27-3.114-2.609-2.22-5.539-3.74-8.979-4.672-5.607-1.521-10.877-.662-15.917 1.626-3.054 1.386-5.44 3.805-7.446 6.497-.822 1.103-.694 1.897.306 2.798 4.792 4.319 10.497 5.972 16.99 5.421z"/><path d="m389.977 530.958c-4.829-.145-8.78-2.077-12.549-4.971 3.024-3.664 6.538-6.222 11.108-7.399-2.037 1.807-3.343 3.952-2.99 6.607.348 2.604 1.866 4.574 4.428 5.76z"/><path d="m395.614 530.451c5.175-4.883 3.744-9.556-1.262-12.472.51-.052.822-.14 1.119-.106 3.847.437 7.171 2.073 10.327 4.11 1.012.653 1.035 1.304.197 2.13-2.752 2.703-5.748 5.042-9.563 6.209-.216.067-.45.073-.818.129z"/></g><g clip-path="url(#d)"><path d="m1093.02 134.971c-1.26-2.7-2.35-5.493-3.84-8.072-1.89-3.287-4.34-6.284-6.13-9.617-3.2-5.952-3.63-12.31-1.87-18.8047.15-.5803.95-1.0037 1.45-1.5036.42.5445 1.13 1.0396 1.23 1.6379.68 3.9484 2.08 7.6204 4.46 10.8684 1.59 2.177 3.45 4.174 5.29 6.171.34.37 1.12.354 1.7.517.13-.58.48-1.213.35-1.731-.89-3.47-2.38-6.782-2.48-10.452-.12-4.2993 1.23-8.2449 2.9-12.1378.09-.2206.25-.471.45-.5926.47-.2768.98-.481 1.47-.716.25.4919.7.9853.69 1.4739-.05 1.9624-.38 3.9269-.36 5.8847.03 3.2218 1.01 6.1028 3.15 8.7128 1.59 1.934 2.64 4.276 3.93 6.436.21.358.43.713.92.996.02-1.161-.13-2.351.1-3.474.61-2.982 1.03-6.069 2.21-8.856 1.06-2.5302 3.43-4.2589 6.24-5.1118.45-.1349 1.31.1333 1.55.4855.25.3662.21 1.2261-.09 1.5918-3.73 4.6815-2.63 9.5455-.7 14.3905 1.41 3.552 3.03 7.029 4.57 10.535.48 1.077 1.38 1.258 2.1.364 1.2-1.471 2.17-3.133 3.5-4.469 1.21-1.221 2.76-2.14 4.21-3.118.2-.13.9.083 1.03.319.21.368.26.906.17 1.337-.58 2.791-1.38 5.549-1.76 8.362-.23 1.777.05 3.633.24 5.437.44 4.271.8 8.525-.08 12.803-.11.5.21 1.38.61 1.585.38.198 1.31-.081 1.69-.444 1.56-1.494 3.28-2.706 5.44-3.181.47-.101 1.24-.026 1.46.262.3.371.29 1.058.2 1.578-.07.399-.39.821-.71 1.116-3.61 3.263-4.47 7.571-4.77 11.974-.29 4.062-1.17 7.954-2.36 11.854-1.31 4.29-3.46 8.127-6.45 11.431-6.31 6.962-14.14 9.478-23.46 6.771-2.39-.694-4.79-1.359-7.09-2.251-1.45-.559-2.7-1.534-4.06-2.291-4.62-2.564-7.78-6.406-9.98-10.952-.94-1.927-1.15-4.171-1.88-6.204-1.68-4.627-3.37-9.259-5.28-13.793-.93-2.192-2.3-4.224-3.63-6.232-.59-.875-1.58-1.495-2.35-2.259-.35-.344-.73-.71-.92-1.138-.58-1.245.07-2.146 1.44-1.85 2.28.491 4.54 1.111 6.76 1.794 3.44 1.054 6.22 3.002 8.28 5.891.22.319 1.04.633 1.26.489.47-.32 1.01-.909 1.05-1.421.28-3.539-.81-6.673-3.12-9.442-1.83-2.202-4.32-3.476-6.82-4.795-2.27-1.193-3.93-3.084-4.79-5.368-1.74-4.606-1.76-9.453-1.4-14.29.04-.523.68-1.347 1.14-1.415.45-.067 1.25.541 1.51 1.04 1.15 2.224 2.03 4.599 3.3 6.755.78 1.325 1.95 2.526 3.2 3.485 3.9 3.008 7.97 5.83 11.89 8.822 1.08.827 1.89 1.992 2.82 3.001l.43-.19zm12.98 40.909c6.35-.768 11.52-3.515 15.32-8.556 1.11-1.474 1.11-1.935-.27-3.114-2.61-2.22-5.54-3.74-8.98-4.673-5.61-1.52-10.88-.661-15.92 1.627-3.05 1.386-5.44 3.805-7.44 6.497-.83 1.103-.7 1.897.3 2.798 4.79 4.319 10.5 5.972 16.99 5.421z"/><path d="m1102.89 173.878c-4.83-.145-8.78-2.077-12.55-4.971 3.03-3.664 6.54-6.222 11.11-7.399-2.04 1.807-3.34 3.952-2.99 6.606.35 2.605 1.87 4.575 4.43 5.761z"/><path d="m1108.53 173.374c5.17-4.882 3.74-9.555-1.26-12.471.51-.052.82-.141 1.12-.106 3.84.437 7.17 2.073 10.32 4.11 1.01.653 1.04 1.304.2 2.13-2.75 2.703-5.75 5.042-9.56 6.209-.22.067-.45.073-.82.128z"/></g><g clip-path="url(#e)"><path d="m1204.57 123.512c-1.27-2.7-2.36-5.493-3.85-8.072-1.89-3.286-4.33-6.284-6.13-9.617-3.2-5.9517-3.63-12.3103-1.87-18.8046.16-.5804.95-1.0037 1.45-1.5037.43.5445 1.13 1.0396 1.23 1.6379.68 3.9486 2.09 7.6201 4.46 10.8686 1.59 2.1768 3.46 4.1738 5.29 6.1708.34.37 1.13.354 1.71.517.12-.58.47-1.213.34-1.731-.89-3.4696-2.37-6.7824-2.48-10.4515-.12-4.2998 1.23-8.2454 2.9-12.1383.1-.2206.25-.471.45-.5926.47-.2768.98-.481 1.48-.716.24.4919.7.9853.68 1.4739-.05 1.9624-.38 3.9269-.36 5.8847.04 3.2214 1.01 6.1032 3.16 8.713 1.58 1.9335 2.63 4.2757 3.92 6.4358.22.358.44.713.92.996.02-1.161-.13-2.351.11-3.4737.61-2.9821 1.03-6.0694 2.2-8.8567 1.06-2.5298 3.44-4.2585 6.25-5.1114.44-.1349 1.3.1333 1.54.4855.25.3662.21 1.2261-.08 1.5918-3.74 4.6813-2.64 9.5458-.71 14.3905 1.41 3.552 3.03 7.029 4.58 10.535.47 1.077 1.37 1.258 2.1.364 1.19-1.471 2.16-3.133 3.49-4.469 1.21-1.221 2.76-2.14 4.22-3.118.19-.13.89.083 1.02.319.21.368.26.906.17 1.337-.57 2.791-1.37 5.549-1.75 8.362-.24 1.777.05 3.633.23 5.438.44 4.27.8 8.524-.08 12.802-.1.5.21 1.38.61 1.585.39.198 1.31-.081 1.69-.444 1.57-1.494 3.28-2.706 5.44-3.181.47-.101 1.24-.026 1.47.262.29.371.28 1.058.19 1.578-.06.399-.39.821-.71 1.116-3.61 3.263-4.46 7.571-4.77 11.974-.29 4.063-1.16 7.954-2.36 11.854-1.31 4.29-3.45 8.127-6.45 11.431-6.31 6.962-14.14 9.478-23.46 6.771-2.39-.694-4.79-1.359-7.09-2.251-1.44-.559-2.7-1.534-4.06-2.291-4.62-2.564-7.78-6.406-9.98-10.952-.93-1.927-1.14-4.171-1.88-6.204-1.68-4.627-3.36-9.259-5.28-13.793-.93-2.192-2.3-4.224-3.63-6.232-.58-.875-1.57-1.495-2.35-2.259-.35-.344-.72-.71-.92-1.138-.57-1.245.07-2.146 1.44-1.85 2.28.491 4.54 1.111 6.77 1.794 3.44 1.054 6.21 3.002 8.27 5.891.23.319 1.04.633 1.26.489.48-.32 1.01-.909 1.05-1.421.28-3.539-.81-6.673-3.11-9.442-1.84-2.202-4.33-3.476-6.83-4.795-2.26-1.193-3.92-3.084-4.79-5.368-1.74-4.606-1.76-9.453-1.4-14.29.04-.523.69-1.347 1.15-1.415.45-.067 1.24.541 1.5 1.04 1.15 2.224 2.03 4.599 3.3 6.755.78 1.325 1.96 2.526 3.2 3.485 3.91 3.008 7.97 5.83 11.89 8.822 1.08.827 1.89 1.992 2.82 3.001l.43-.19zm12.98 40.909c6.35-.768 11.51-3.515 15.31-8.556 1.11-1.474 1.12-1.934-.27-3.114-2.61-2.22-5.54-3.74-8.98-4.672-5.61-1.521-10.88-.662-15.92 1.626-3.05 1.386-5.43 3.805-7.44 6.497-.82 1.103-.7 1.897.31 2.798 4.79 4.319 10.49 5.972 16.99 5.421z"/><path d="m1214.44 162.419c-4.83-.145-8.79-2.077-12.55-4.971 3.02-3.664 6.53-6.222 11.1-7.399-2.03 1.807-3.34 3.952-2.99 6.606.35 2.605 1.87 4.575 4.43 5.761z"/><path d="m1220.07 161.916c5.18-4.883 3.75-9.556-1.26-12.472.51-.052.82-.141 1.12-.106 3.85.437 7.17 2.073 10.33 4.11 1.01.653 1.03 1.304.19 2.13-2.75 2.703-5.75 5.042-9.56 6.209-.22.067-.45.073-.82.129z"/></g><g clip-path="url(#f)"><path d="m1316.11 112.051c-1.27-2.7-2.36-5.493-3.85-8.072-1.89-3.286-4.33-6.2842-6.12-9.6165-3.21-5.9521-3.64-12.3107-1.88-18.8051.16-.5803.95-1.0037 1.46-1.5036.42.5445 1.12 1.0395 1.22 1.6379.68 3.9486 2.09 7.62 4.46 10.8685 1.6 2.1767 3.46 4.174 5.3 6.1712.33.3692 1.12.3538 1.7.5171.12-.5802.47-1.213.34-1.7312-.88-3.4699-2.37-6.7827-2.47-10.4518-.12-4.2997 1.22-8.2453 2.89-12.1383.1-.2206.25-.4709.45-.5925.47-.2768.98-.481 1.48-.716.24.4919.7.9853.68 1.4739-.05 1.9624-.38 3.9269-.36 5.8847.04 3.2214 1.01 6.1032 3.16 8.7129 1.59 1.9335 2.64 4.2758 3.93 6.4359.21.3583.43.713.91.9959.02-1.1605-.12-2.3512.11-3.4737.61-2.9821 1.03-6.0694 2.2-8.8566 1.07-2.5298 3.44-4.2585 6.25-5.1114.44-.1349 1.3.1332 1.55.4854.25.3663.2 1.2262-.09 1.5918-3.74 4.6814-2.64 9.5459-.71 14.3902 1.42 3.5521 3.04 7.0296 4.58 10.5353.47 1.077 1.37 1.258 2.1.364 1.2-1.4713 2.16-3.1329 3.49-4.4693 1.22-1.2204 2.76-2.1394 4.22-3.1176.19-.1298.89.0833 1.02.3191.22.3674.26.9062.17 1.337-.57 2.7913-1.37 5.5498-1.75 8.3618-.24 1.777.05 3.633.23 5.438.44 4.27.81 8.524-.08 12.802-.1.5.21 1.38.61 1.585.39.198 1.31-.081 1.69-.444 1.57-1.494 3.28-2.706 5.44-3.181.47-.101 1.24-.026 1.47.262.29.371.28 1.058.19 1.578-.06.399-.38.821-.71 1.116-3.6 3.263-4.46 7.571-4.77 11.974-.29 4.063-1.16 7.954-2.35 11.854-1.32 4.29-3.46 8.127-6.45 11.431-6.32 6.962-14.15 9.478-23.47 6.771-2.38-.694-4.79-1.359-7.09-2.251-1.44-.558-2.7-1.534-4.06-2.291-4.61-2.564-7.78-6.406-9.98-10.952-.93-1.927-1.14-4.171-1.88-6.204-1.68-4.627-3.36-9.259-5.28-13.793-.92-2.191-2.3-4.224-3.63-6.231-.58-.876-1.57-1.496-2.35-2.26-.35-.344-.72-.709-.92-1.138-.57-1.245.08-2.146 1.44-1.85 2.28.491 4.54 1.111 6.77 1.794 3.44 1.054 6.22 3.002 8.27 5.892.23.318 1.05.632 1.26.488.48-.319 1.02-.909 1.06-1.421.27-3.539-.81-6.673-3.12-9.442-1.84-2.202-4.32-3.476-6.83-4.795-2.26-1.193-3.92-3.084-4.79-5.368-1.74-4.606-1.76-9.4532-1.39-14.2896.04-.5237.68-1.3472 1.14-1.4152.45-.067 1.24.5404 1.5 1.0395 1.16 2.2245 2.03 4.5997 3.3 6.7558.78 1.3244 1.96 2.5254 3.2 3.4845 3.91 3.008 7.97 5.831 11.89 8.822 1.09.828 1.89 1.992 2.82 3.001l.43-.19zm12.98 40.909c6.35-.768 11.51-3.514 15.31-8.556 1.12-1.474 1.12-1.934-.27-3.114-2.61-2.22-5.54-3.74-8.98-4.672-5.6-1.521-10.87-.662-15.91 1.626-3.06 1.386-5.44 3.805-7.45 6.497-.82 1.103-.69 1.897.31 2.798 4.79 4.319 10.49 5.972 16.99 5.421z"/><path d="m1325.98 150.958c-4.83-.145-8.78-2.077-12.55-4.971 3.02-3.664 6.54-6.222 11.11-7.399-2.04 1.807-3.35 3.952-2.99 6.607.34 2.604 1.86 4.574 4.42 5.76z"/><path d="m1331.61 150.451c5.18-4.883 3.75-9.556-1.26-12.472.51-.052.82-.14 1.12-.106 3.85.437 7.17 2.073 10.33 4.11 1.01.653 1.03 1.304.19 2.13-2.75 2.703-5.74 5.042-9.56 6.209-.21.067-.45.073-.82.129z"/></g></g></svg>