<svg fill="none" height="650" viewBox="0 0 1440 650" width="1440" xmlns="http://www.w3.org/2000/svg" xmlns:xlink="http://www.w3.org/1999/xlink"><clipPath id="a"><path d="m0 0h100.949v103.481h-100.949z" transform="matrix(.99071289 .13597045 -.13597045 .99071289 1242.49 77.2344)"/></clipPath><clipPath id="b"><path d="m0 0h72.6227v98.7668h-72.6227z" transform="matrix(.99476401 -.1021986 .1021986 .99476401 41 485.342)"/></clipPath><clipPath id="c"><path d="m0 0h72.6227v98.7668h-72.6227z" transform="matrix(.99476401 -.1021986 .1021986 .99476401 152.543 473.883)"/></clipPath><clipPath id="d"><path d="m0 0h72.6227v98.7668h-72.6227z" transform="matrix(.99476401 -.1021986 .1021986 .99476401 264.085 462.422)"/></clipPath><path d="m1290.37 39.2308c5.14-3.2536 11.87-2.3295 15.94 2.1873l5.41 6.0025c2.7 3.0014 6.69 4.507 10.71 4.0396l8.02-.9346c6.04-.7033 11.7 3.0506 13.41 8.8855l2.27 7.7541c1.13 3.8773 4.07 6.9651 7.89 8.2849l7.64 2.6396c5.74 1.9863 9.22 7.8266 8.22 13.8239l-1.32 7.9699c-.66 3.9855.65 8.0435 3.52 10.8895l5.73 5.691c4.32 4.282 4.91 11.052 1.42 16.024l-4.65 6.607c-2.33 3.304-2.91 7.529-1.56 11.337l2.7 7.616c2.03 5.73-.37 12.089-5.68 15.05l-7.06 3.936c-3.52 1.968-5.88 5.523-6.32 9.539l-.87 8.032c-.66 6.043-5.58 10.731-11.65 11.096l-8.06.485c-4.03.242-7.7 2.423-9.84 5.852l-4.27 6.856c-3.21 5.16-9.68 7.249-15.31 4.945l-7.47-3.062c-3.74-1.532-7.99-1.157-11.4 1.005l-6.83 4.324c-5.13 3.254-11.86 2.33-15.93-2.187l-5.41-6.003c-2.7-3.001-6.69-4.507-10.71-4.039l-8.02.934c-6.04.704-11.7-3.05-13.41-8.885l-2.27-7.754c-1.13-3.878-4.07-6.965-7.89-8.285l-7.64-2.64c-5.74-1.986-9.22-7.826-8.22-13.824l1.32-7.97c.66-3.985-.65-8.043-3.52-10.889l-5.73-5.691c-4.32-4.282-4.91-11.052-1.42-16.024l4.65-6.607c2.33-3.304 2.91-7.529 1.56-11.337l-2.7-7.616c-2.03-5.73.37-12.0887 5.68-15.0504l7.06-3.9358c3.52-1.968 5.88-5.5232 6.32-9.5391l.87-8.0313c.66-6.0435 5.58-10.7315 11.65-11.0964l8.06-.4849c4.03-.2425 7.7-2.4235 9.84-5.852l4.27-6.8565c3.21-5.1595 9.68-7.2483 15.31-4.9442l7.47 3.062c3.74 1.5311 7.99 1.1563 11.4-1.0058z" fill="#f7ee75"/><g fill="#8b52d4"><g clip-path="url(#a)"><path d="m1310.42 123.17c1.44 3.449 3.42 6.508 5.71 9.368.31.386.71 1.147.56 1.375-.35.529-.97 1.03-1.57 1.189-1.06.279-1.92-.346-2.57-1.152-1.74-2.188-3.45-4.404-5.17-6.618-.27-.344-.49-.726-.92-.995.19.363.33.754.56 1.082 1.67 2.388 3.34 4.779 5.05 7.132.65.893.65 1.528-.3 2.095-.84.505-1.64.918-2.59-.013-3.58-3.524-6.92-7.219-8.92-11.978-.19-.441-.32-.918-.39-1.391-.14-.826-.21-1.656.68-2.166.94-.541 1.88-.69 2.74.095.53.49.98 1.07 1.6 1.752-.19-.908-.38-1.645-.49-2.395-.15-1.012-.08-1.957 1.03-2.445.94-.414 1.69-.157 2.53.931.15.199.22.469.33.705.09-.05.18-.102.27-.152-.13-.656-.39-1.324-.34-1.963.06-.675.26-1.519.71-1.932.66-.6 1.62-.512 2.34.056.66.511 1.2 1.161 1.8 1.744-.2-.988-.43-2.006-.59-3.038-.15-.984.24-1.82 1.07-2.283 1.15-.639 2.33-1.27 3.57-1.668 2-.645 4.01-.272 5.34 1.319 2.01 2.382 3.75 5.003 5.51 7.584.3.437.17 1.182.23 1.727 1.67-.751 3.43-1.639 5.25-2.336 1.01-.387 2.13-.537 3.21-.647 1.07-.106 1.83.501 1.81 1.598-.02.998-.17 2.194-.73 2.939-1 1.337-2.32 2.439-3.57 3.564-.51.459-1.2.718-1.8 1.063-4.24 2.4-5.94 5.967-4.83 10.786.55 2.369 1.45 4.67 2.38 6.922 1.01 2.441.82 4.812-.38 7.004-1.36 2.468-3 4.783-4.56 7.126-1.89 2.808-3.83 5.576-5.74 8.361-.45.651-.9 1.348-1.82 1.175-.98-.182-1.13-1.037-1.32-1.846-2.07-8.839-4.2-17.666-7.7-26.054-.37-.888-.9-1.718-1.2-2.625-.28-.797-.35-1.667-.51-2.506.13-.05.25-.104.37-.155.28.263.59.508.84.792 1.55 1.713 3.86 1.815 5.12.021.23-.337.88-.523 1.34-.517 1.47.016 2.47-.509 3.12-1.959.23-.523.97-.961 1.57-1.138 1.6-.475 2.26-1.339 2.02-3.069.5.157.96.36 1.44.445 1.14.197 2.43-.439 2.81-1.481.16-.426.19-1.14-.06-1.441-2.41-2.969-4.2-6.329-5.95-9.72-.05-.109-.15-.197-.44-.167.76 1.578 1.45 3.208 2.32 4.722 1.04 1.787 2.2 3.499 3.38 5.192.46.663.39 1.172-.12 1.669-.79.757-1.72.83-2.64.34-.47-.252-.92-.62-1.25-1.041-1.85-2.344-3.66-4.719-5.47-7.084-.19-.245-.36-.51-.61-.716 1.52 3.264 3.25 6.385 5.48 9.193.86 1.085.56 2.096-.78 2.471-1.17.325-2.11-.17-2.81-1.047-1.9-2.39-3.75-4.825-5.61-7.246-.14-.17-.23-.366-.35-.55z"/><path d="m1278.14 112.369c.12-.499.25-.997.36-1.497.48-2.13-.42-3.556-2.45-4.113-.47-.128-1.01-.503-1.23-.926-.73-1.374-1.72-1.986-3.3-1.811-.52.057-1.21-.38-1.63-.799-1.21-1.209-2.39-1.355-3.61-.19-.08-.41-.15-.756-.23-1.101-.25-1.173-.97-1.908-2.08-2.1917-.8-.2024-1.52-.0451-1.95.8097-1.72 3.372-3.46 6.741-5.19 10.11-.07.126-.13.253-.05.505.42-.561.85-1.109 1.24-1.684.42-.612.86-1.216 1.2-1.876 1.12-2.181 2.22-4.372 3.27-6.59.33-.701.79-.815 1.42-.661 1.29.318 1.99 1.688 1.47 3.35-.69 2.242-1.54 4.436-2.37 6.629-.38 1.003-.89 1.953-1.16 3.043.78-1.305 1.63-2.573 2.31-3.927.96-1.89 1.84-3.826 2.65-5.782.35-.823.84-.966 1.56-.755 1.2.358 1.86 1.647 1.41 3.201-.6 2.036-1.34 4.031-2.09 6.018-.45 1.173-1.02 2.293-1.39 3.53.2-.283.44-.541.59-.849 1.45-3.057 2.91-6.108 4.31-9.19.49-1.091 1.13-1.37 2.11-.699.97.66 1.33 1.805.84 3.308-.67 2.055-1.44 4.079-2.21 6.095-.42 1.066-.93 2.09-1.4 3.134.07.042.15.085.23.127.77-1.517 1.59-3.007 2.28-4.556.69-1.528 1.27-3.107 1.88-4.671.36-.934.88-1.166 1.77-.763.98.437 1.56 1.551 1.25 2.823-1.09 4.478-2.49 8.844-5.04 12.724-.46.706-1.07 1.32-1.68 1.909-.55.529-1.22.903-1.99.449-.78-.463-1.49-1.067-1.35-2.103.13-.907.44-1.787.68-2.702-.61.561-1.21 1.173-1.87 1.709-.76.611-1.58.99-2.48.242-.88-.729-.93-1.614-.5-2.612.11-.254.18-.527.35-1.067-.63.599-1.03 1.022-1.47 1.391-.61.513-1.3.939-2.1.492-.83-.467-1.28-1.258-1.15-2.231.11-.827.4-1.631.61-2.459-.73.68-1.4 1.451-2.2 1.987-.54.353-1.32.593-1.93.488-2.42-.417-5.3-3.357-5.4-5.808-.06-1.579.36-3.252.88-4.773.62-1.825 1.56-3.542 2.39-5.29.41-.851.91-1.656 2.22-1.691-1.11-.734-2.11-1.2508-2.93-1.9728-1.38-1.1979-2.76-2.4242-3.92-3.8296-1.08-1.3111-.64-2.7741 1-3.2146 1.28-.3464 2.77-.4107 4.05-.091 1.52.3807 2.98 1.1826 4.34 2.0165 4.28 2.6266 7.88 2.4684 11.63-.9286 1.63-1.4756 3.2-3.1449 4.36-5.0083 1.76-2.833 4.25-4.0159 7.28-3.9586 3.64.0721 7.27.4868 10.9.7728 2.26.1779 4.51.4031 6.76.5836.77.0609 1.61.2093 1.68 1.081.04.5855-.29 1.3648-.71 1.8122-5.2 5.576-10.5 11.0623-15.66 16.6834-1.56 1.706-2.74 3.782-4.17 5.632-.58.753-1.34 1.361-2.02 2.035-.12-.106-.25-.21-.38-.315z"/><path d="m1285.54 158.843c.77.271 1.27.428 1.76.619.74.291 1.43.679 1.46 1.608.03.979-.41 1.779-1.3 2.159-.8.338-1.66.51-2.4.727.94.31 1.96.609 2.96.992.86.334 1.39 1.089 1.33 1.993-.09 1.589-.13 3.249-.63 4.731-.93 2.802-3.36 3.689-5.96 4.047-1.95.268-3.92.457-5.88.536-.83.033-1.68-.307-2.62-.5 0-.017.01.287-.04.581-.39 2.458-.58 4.974-1.25 7.356-.62 2.247-2.4 2.496-3.97.763-1.49-1.652-1.89-3.735-1.98-5.895-.06-1.191.03-2.389-.01-3.579-.18-4.196-2.38-6.941-6.14-8.189-2.4-.793-4.95-1.17-7.47-1.509-1.92-.258-3.54-.97-4.75-2.428-.94-1.122-1.79-2.372-2.41-3.695-2.26-4.824-4.42-9.702-6.61-14.56-.31-.683-.67-1.367-.06-2.081.61-.733 1.33-.523 2.11-.324 7.27 1.849 14.54 3.736 21.84 5.462 2.18.517 4.49.518 6.72.843.92.134 1.81.498 2.71.757l-.04.456c-.42.136-.85.277-1.28.409-2.27.695-3 2.085-2.44 4.409.11.472-.01 1.128-.26 1.553-.78 1.316-.76 2.464.13 3.731.31.436.3 1.271.15 1.851-.41 1.653-.04 2.664 1.55 3.396-.27.234-.5.433-.73.646-1.01.948-1.34 2.414-.62 3.44.31.434 1.03.908 1.47.829 3.63-.654 7.26-.619 10.91-.458.07.003.14-.028.4-.083-.32-.13-.49-.243-.66-.261-3.46-.351-6.92-.534-10.36.15-.92.184-1.29-.233-1.46-1.027-.26-1.258.53-2.477 2.06-2.84 2.02-.481 4.07-.835 6.13-1.173 1.21-.2 2.44-.266 3.67-.392-.01-.095-.01-.19-.01-.285-2.07.02-4.15-.011-6.22.078-1.38.059-2.76.259-4.13.446-1.05.143-1.62-.358-1.58-1.485.05-1.121.87-2.115 2.27-2.407 2.32-.485 4.66-.856 7-1.233.97-.157 1.96-.207 2.93-.306 0-.107 0-.214-.01-.319-2.71.141-5.43.253-8.14.439-1.05.073-2.09.299-3.14.48-1.04.18-1.58-.263-1.59-1.344-.02-1.195.77-2.224 2.23-2.536 2.32-.494 4.66-.892 7-1.238 1.4-.206 2.82-.233 4.23-.569-2.65.152-5.3.271-7.94.476-1.16.09-2.31.355-3.46.553-.92.157-1.42-.26-1.47-1.254-.07-1.292.75-2.332 2.33-2.695 2.63-.604 5.27-1.24 7.94-1.604 1.82-.25 3.7-.096 5.56-.059.53.01 1.07.206 1.59.381.75.256 1.43.654 1.43 1.606 0 1.032-.28 1.96-1.33 2.357-.67.253-1.39.381-2.4.648.68.213 1.15.304 1.57.505.65.308 1.38.567 1.87 1.064.85.863.31 2.416-.93 2.874-.43.157-.89.209-1.64.376z"/><path d="m1235.22 130.169c.9-5.154 2.95-9.164 5.63-12.873.16-.22.81-.342 1.04-.199 6.09 3.764 12.17 7.559 18.23 11.374 1.06.666 1.18 1.523.35 2.523-2.76 3.336-5.04 6.962-6.55 11.065-.35.941-1.07 1.155-1.96.905-4.11-1.149-8.17-2.517-12.33-3.382-3.54-.737-3.91-3.446-4.38-6.184-.2-1.226-.03-2.523-.03-3.229z"/><path d="m1301.34 112.07c-.4-.556-.85-1.047-1.14-1.623-1.46-2.937-2.86-5.914-4.35-8.839-.4-.778-1.03-1.431-1.57-2.1358-.58-.7654-.57-1.5041.11-2.1975 3.48-3.5273 6.95-7.0679 10.47-10.5484.39-.3834 1.11-.5758 1.68-.5815 3.02-.0276 5.6 1.1642 7.86 3.1153 3.38 2.9166 5.62 6.6757 7.42 10.7449.35.791-.18.968-.66 1.237-4.08 2.271-8.15 4.545-12.22 6.815-2.06 1.143-4.11 2.29-6.16 3.419-.38.206-.8.33-1.44.595z"/><path d="m1299.34 156.296c3.45.435 6.9.548 10.35-.071 1.19-.212 1.71.121 2.04 1.42 1.07 4.14 1.95 8.342 3.22 12.415.78 2.531-.07 4.233-1.7 5.876-2.69 2.709-6.05 3.919-9.67 4.285-2.59.261-5.23.098-7.85.128-.73.009-1-.305-.98-1.089.23-7.048.42-14.1.65-21.149.06-2.04.47-2.344 2.43-2.025.5.082 1.01.138 1.51.208z"/></g><path d="m104.936 187h27.168v-71.424h-27.168v28.128c-4.608 1.056-10.56 1.44-15.936 1.44-12.288 0-19.296-1.92-19.296-12.768v-16.8h-27.264v20.256c0 21.6 13.728 28.32 39.936 28.32 10.368 0 17.472-.864 22.56-1.92zm36.11-71.424v71.424h79.776v-17.856h-52.896v-9.792h51.072v-17.376h-51.072v-8.928h52.128v-17.472zm151.509 71.424h27.264v-71.424h-81.6c0 37.152-.96 45.024-3.648 48.48-1.632 2.208-3.84 2.592-7.68 2.592h-1.44v20.352h8.832c13.056 0 19.104-3.072 22.944-9.504 3.84-6.144 5.76-15.168 5.76-43.584h29.568zm85.906-72.768c-46.272 0-52.128 21.984-52.128 35.424v2.88c0 13.344 5.856 35.808 52.128 35.808h4.32c46.176 0 52.032-22.464 52.032-35.808v-2.88c0-13.44-5.952-35.424-52.032-35.424zm28.128 37.44c0 7.68-4.896 17.376-26.016 17.376s-26.016-10.08-26.016-17.568v-1.152c0-7.584 4.512-16.896 26.016-16.896 21.12 0 26.016 9.312 26.016 16.896zm34.457 35.328h67.584c23.328 0 30.144-9.408 30.144-20.64v-1.152c0-12.576-10.08-16.8-16.416-18.336 4.704-1.056 12.288-5.088 12.288-14.016v-1.056c0-8.16-5.568-16.224-26.4-16.224h-67.2zm58.944-55.2c5.664 0 7.296 2.112 7.296 4.896v.192c0 2.688-1.632 4.992-7.296 4.992h-31.68v-10.08zm1.728 26.112c7.008 0 8.448 2.784 8.448 5.856v.288c0 2.784-1.344 6.144-8.448 6.144h-33.408v-12.288zm42.265-42.336v71.424h79.776v-17.856h-52.896v-9.792h51.072v-17.376h-51.072v-8.928h52.128v-17.472zm148.918 71.424h35.52l-42.912-38.976 41.568-32.448h-33.888l-35.136 28.224v-28.224h-27.264v71.424h27.264v-31.968zm65.736-35.424v13.632h81.984v-13.632z"/><path d="m104.936 301h27.168v-71.424h-27.168v28.128c-4.608 1.056-10.56 1.44-15.936 1.44-12.288 0-19.296-1.92-19.296-12.768v-16.8h-27.264v20.256c0 21.6 13.728 28.32 39.936 28.32 10.368 0 17.472-.864 22.56-1.92zm95.15-29.376h-23.712l11.712-24.576zm14.304 29.376h29.856l-37.344-71.424h-36.672l-35.329 71.424h27.649l5.472-11.52h40.8zm77.495 1.344c43.009 0 49.729-20.16 49.729-29.472v-1.536h-28.224c-.384 1.632-2.496 11.712-23.52 11.712-19.2 0-24-10.08-24-17.76v-1.152c0-7.968 4.224-16.704 23.904-16.704 20.736 0 22.944 9.024 23.52 10.944h28.32v-1.248c0-9.216-6.336-28.896-49.729-28.896h-3.743c-44.544 0-50.496 21.792-50.496 35.424v2.784c0 13.536 6.624 35.904 50.496 35.904zm83.081-1.344h27.264v-51.936h30.816v-19.488h-88.896v19.488h30.816zm91.556-50.4v-21.024h-27.264v71.424h57.312c28.896 0 36.096-11.232 36.096-24.576v-1.536c0-13.344-7.296-24.288-36.096-24.288zm0 32.64v-14.88h26.592c8.832 0 11.328 3.168 11.328 7.2v.288c0 3.84-2.496 7.392-11.328 7.392zm100.892 17.76h27.264v-52.416h41.376v52.416h27.168v-71.424h-95.808zm164.245-22.368c26.112 0 33.888-10.944 33.888-23.904v-1.536c0-13.152-7.488-23.616-33.888-23.616h-59.52v71.424h27.264v-22.368zm-32.256-31.2h28.992c6.432 0 9.024 2.4 9.024 6.528v.288c0 3.936-2.784 6.528-9.024 6.528h-28.992zm143.544 53.568h27.264v-71.424h-27.264l-44.832 44.928v-44.928h-27.264v71.424h27.264l44.832-44.832zm95.712-22.368c26.112 0 33.888-10.944 33.888-23.904v-1.536c0-13.152-7.488-23.616-33.888-23.616h-59.52v71.424h27.264v-22.368zm-32.256-31.2h28.992c6.432 0 9.024 2.4 9.024 6.528v.288c0 3.936-2.784 6.528-9.024 6.528h-28.992zm121.467-19.2c-46.275 0-52.131 21.984-52.131 35.424v2.88c0 13.344 5.856 35.808 52.131 35.808h4.32c46.17 0 52.03-22.464 52.03-35.808v-2.88c0-13.44-5.95-35.424-52.03-35.424zm28.13 37.44c0 7.68-4.9 17.376-26.02 17.376s-26.02-10.08-26.02-17.568v-1.152c0-7.584 4.52-16.896 26.02-16.896 21.12 0 26.02 9.312 26.02 16.896zm27.42 16.32v31.488h25.63v-12.48h57.7v12.48h25.63v-31.488h-11.52v-52.416h-83.04c0 31.488-.87 44.544-4.99 52.416zm34.65 0c3.08-6.048 4.32-19.104 4.32-33.408h31.2v33.408zm106.33-31.392v-21.024h-27.27v71.424h57.31c28.9 0 36.1-11.232 36.1-24.576v-1.536c0-13.344-7.3-24.288-36.1-24.288zm0 32.64v-14.88h26.59c8.83 0 11.33 3.168 11.33 7.2v.288c0 3.84-2.5 7.392-11.33 7.392zm98.78-53.664h-27.17v71.424h27.17z"/><path d="m1067.68 247c-14.34-18.641 3.45-35.037 3.45-35.037-10.32 23.737 4.59 32.777 4.59 32.777zm31.57-63.679-22.52 25.661c42.36 27.808 46.27-48.982 46.27-48.982-79.75 10.05-50.97 43.5-50.97 43.5l27.24-20.163zm-55.17 17.919 19.47 11.364c13.34-30.213-37.55-23.786-37.55-23.786 15.87 49.623 34.49 27.424 34.49 27.424z"/></g><path d="m410.776 582.416c0 8.448 3.256 12.672 9.768 12.672 7.04 0 10.56-4.136 10.56-12.408v-64.152h-36.168v-24.288h36.168v-59.664c0-8.448-3.52-12.672-10.56-12.672-6.512 0-9.768 4.136-9.768 12.408v37.488h-22.44v-37.488c0-24.64 10.824-36.96 32.472-36.96 23.408 0 35.112 12.496 35.112 37.488v147.84c0 24.464-11.792 36.696-35.376 36.696-11.616 0-19.888-2.992-24.816-8.976-4.928-6.16-7.392-15.576-7.392-28.248v-41.712h22.44zm116.839 34.584c-5.456-18.128-10.648-35.728-15.576-52.8-4.928-17.248-9.944-34.672-15.048-52.272.352 8.976.528 18.216.528 27.72v31.68 45.672h-24.552v-217.272h24.552v44.88 26.928c0 7.04-.176 13.904-.528 20.592 4.928-16.016 9.856-31.504 14.784-46.464 4.928-15.136 9.944-30.448 15.048-45.936h26.136l-34.848 97.944 37.488 119.328zm32.461-182.688c0-24.64 11.528-36.96 34.584-36.96 23.232 0 34.848 12.32 34.848 36.96v148.104c0 24.64-11.616 36.96-34.848 36.96-23.056 0-34.584-12.32-34.584-36.96zm45.144 0c0-8.272-3.52-12.408-10.56-12.408-6.864 0-10.296 4.136-10.296 12.408v148.104c0 8.448 3.432 12.672 10.296 12.672 7.04 0 10.56-4.224 10.56-12.672zm29.75 182.688v-24.288h3.168c2.816 0 5.192-.616 7.128-1.848 1.936-1.408 3.696-4.84 5.28-10.296.704-2.464 1.408-5.72 2.112-9.768s1.32-9.416 1.848-16.104c.704-6.688 1.408-14.96 2.112-24.816.704-10.032 1.408-22.352 2.112-36.96l4.752-93.192h57.288v217.272h-24.288v-192.72h-13.2l-3.96 72.864c-.88 14.608-1.76 27.192-2.64 37.752-.704 10.384-1.496 19.272-2.376 26.664-.88 7.216-1.76 13.112-2.64 17.688s-1.672 8.272-2.376 11.088c-2.464 8.8-5.984 15.488-10.56 20.064-4.4 4.4-11 6.6-19.8 6.6zm103.255-182.688c0-24.64 11.528-36.96 34.584-36.96 23.232 0 34.848 12.32 34.848 36.96v148.104c0 24.64-11.616 36.96-34.848 36.96-23.056 0-34.584-12.32-34.584-36.96zm45.144 0c0-8.272-3.52-12.408-10.56-12.408-6.864 0-10.296 4.136-10.296 12.408v148.104c0 8.448 3.432 12.672 10.296 12.672 7.04 0 10.56-4.224 10.56-12.672zm101.182-34.584v24.552h-35.376v192.72h-24.552v-217.272zm12.002 217.272v-217.272h22.176v137.016l19.008-137.016h28.248v217.272h-22.44v-139.392l-23.496 139.392zm130.157 0v-91.344c-1.41.528-3.44 1.056-6.08 1.584-2.46.528-5.19.792-8.18.792-9.5 0-16.983-3.08-22.439-9.24s-8.184-15.4-8.184-27.72v-91.344h24.553v90.552c0 5.104.79 8.888 2.37 11.352 1.59 2.288 4.58 3.432 8.98 3.432 1.94 0 3.52-.176 4.75-.528 1.41-.528 2.82-1.144 4.23-1.848v-102.96h24.55v217.272zm88.49 0v-98.472h-20.59v98.472h-24.29v-217.272h24.29v94.512h20.59v-94.512h24.29v217.272zm128.84 0v-217.272h24.29v217.272zm-61.51-217.272v94.512h10.29c13.03 0 22.53 3.08 28.51 9.24 5.99 6.16 8.98 16.104 8.98 29.832v44.352c0 13.728-3.08 23.76-9.24 30.096-5.98 6.16-15.49 9.24-28.51 9.24h-34.59v-217.272zm23.76 132.528c0-9.504-4.49-14.256-13.47-14.256h-10.29v74.712h10.03c9.15 0 13.73-4.928 13.73-14.784zm160.83 84.744v-63.36c0-14.256.09-28.424.26-42.504.18-14.08.44-28.248.79-42.504-1.23 8.976-2.55 18.128-3.96 27.456-1.23 9.328-2.64 19.8-4.22 31.416-1.41 11.44-3.08 24.464-5.02 39.072-1.76 14.432-3.87 31.24-6.33 50.424h-21.12l-19.01-148.368c.35 14.256.62 28.424.79 42.504.18 14.08.27 28.248.27 42.504v63.36h-22.44v-217.272h32.47c2.64 24.64 4.93 45.408 6.86 62.304 1.94 16.72 3.61 31.152 5.02 43.296 1.41 11.968 2.55 22.176 3.43 30.624 1.06 8.448 2.02 16.544 2.9 24.288.88-7.568 1.85-15.576 2.91-24.024 1.05-8.624 2.29-18.92 3.69-30.888 1.41-12.144 3.08-26.664 5.02-43.56s4.22-37.576 6.86-62.04h33.27v217.272z" fill="#f5f2cd"/><g clip-path="url(#b)" fill="#8b52d4"><path d="m73.0224 525.973c-1.2657-2.7-2.3555-5.493-3.8435-8.072-1.8911-3.287-4.3362-6.284-6.1269-9.617-3.2026-5.952-3.6335-12.31-1.8764-18.805.1566-.58.9531-1.003 1.4545-1.503.4235.544 1.126 1.039 1.2276 1.638.6774 3.948 2.0861 7.62 4.4613 10.868 1.5917 2.177 3.4553 4.174 5.2912 6.171.3375.369 1.1234.354 1.7022.517.1257-.58.4746-1.213.3441-1.731-.8846-3.47-2.3738-6.782-2.4759-10.452-.1205-4.299 1.2252-8.245 2.8975-12.138.0947-.22.2481-.471.4487-.592.4688-.277.9821-.481 1.4768-.716.242.491.7004.985.6857 1.473-.0516 1.963-.3841 3.927-.3621 5.885.0376 3.222 1.01 6.103 3.1558 8.713 1.5884 1.934 2.6382 4.276 3.9287 6.436.2128.358.4315.713.9145.996.0229-1.161-.1242-2.351.1064-3.474.6109-2.982 1.0318-6.069 2.2031-8.856 1.065-2.53 3.4384-4.259 6.2476-5.112.4463-.135 1.3046.133 1.5477.486.2507.366.2063 1.226-.0866 1.591-3.7377 4.682-2.6388 9.546-.7081 14.391 1.4149 3.552 3.0353 7.029 4.5787 10.535.475 1.077 1.373 1.258 2.1.364 1.195-1.471 2.164-3.133 3.494-4.469 1.212-1.221 2.757-2.14 4.213-3.118.194-.13.895.083 1.027.319.211.368.257.906.169 1.337-.575 2.791-1.376 5.549-1.754 8.362-.237 1.777.049 3.633.234 5.437.439 4.271.802 8.525-.08 12.803-.103.5.209 1.38.61 1.585.385.198 1.311-.081 1.69-.444 1.564-1.494 3.277-2.706 5.44-3.181.468-.101 1.241-.026 1.466.262.291.371.281 1.058.196 1.578-.067.399-.388.821-.713 1.116-3.606 3.263-4.463 7.571-4.771 11.974-.287 4.062-1.162 7.954-2.355 11.854-1.314 4.29-3.458 8.127-6.451 11.431-6.3105 6.962-14.1434 9.478-23.4642 6.77-2.3844-.693-4.7875-1.358-7.0903-2.25-1.441-.559-2.6994-1.534-4.0588-2.291-4.6149-2.564-7.7767-6.406-9.9794-10.952-.933-1.927-1.145-4.171-1.8819-6.204-1.6768-4.627-3.3632-9.259-5.2775-13.793-.9262-2.192-2.3024-4.224-3.6328-6.232-.581-.875-1.5712-1.495-2.3476-2.259-.3504-.344-.7246-.71-.9199-1.138-.5726-1.245.0729-2.146 1.4406-1.85 2.2802.491 4.5397 1.111 6.7655 1.794 3.4406 1.054 6.2164 3.002 8.2736 5.891.2272.319 1.0439.633 1.2608.489.4767-.32 1.0122-.909 1.0523-1.421.2757-3.539-.8092-6.673-3.1164-9.442-1.8353-2.202-4.3226-3.476-6.8269-4.795-2.2628-1.194-3.9239-3.084-4.7886-5.368-1.7394-4.606-1.7587-9.453-1.397-14.29.0388-.523.683-1.347 1.1424-1.415.4502-.067 1.2445.54 1.5027 1.04 1.1551 2.224 2.0291 4.599 3.3006 6.755.7816 1.325 1.955 2.526 3.1993 3.485 3.9069 3.008 7.9708 5.83 11.8915 8.822 1.0825.827 1.8878 1.992 2.8191 3.001l.4314-.19zm12.9799 40.909c6.3509-.768 11.5166-3.515 15.3157-8.556 1.112-1.474 1.114-1.935-.27-3.114-2.6093-2.221-5.5387-3.74-8.9792-4.673-5.6071-1.52-10.8771-.661-15.9169 1.627-3.054 1.386-5.4398 3.805-7.4456 6.496-.8224 1.104-.6944 1.898.3061 2.799 4.7921 4.319 10.4962 5.972 16.9899 5.421z"/><path d="m82.8922 564.88c-4.8296-.145-8.7804-2.077-12.549-4.971 3.0238-3.664 6.538-6.222 11.1083-7.399-2.0379 1.807-3.3432 3.952-2.9902 6.606.3478 2.605 1.8659 4.575 4.4275 5.761z"/><path d="m88.5294 564.376c5.1748-4.882 3.7435-9.555-1.2627-12.471.5104-.052.8225-.141 1.1195-.106 3.8465.437 7.1709 2.073 10.3264 4.11 1.0122.653 1.0358 1.304.1972 2.13-2.7519 2.703-5.7482 5.042-9.5628 6.209-.2155.067-.4496.073-.8176.128z"/></g><g clip-path="url(#c)" fill="#8b52d4"><path d="m184.565 514.514c-1.265-2.7-2.355-5.493-3.843-8.072-1.891-3.287-4.336-6.284-6.127-9.617-3.203-5.952-3.634-12.31-1.876-18.805.156-.58.953-1.003 1.454-1.503.424.544 1.126 1.039 1.228 1.638.677 3.948 2.086 7.62 4.461 10.868 1.592 2.177 3.455 4.174 5.291 6.171.338.369 1.124.354 1.702.517.126-.58.475-1.213.344-1.731-.884-3.47-2.373-6.782-2.475-10.452-.121-4.299 1.225-8.245 2.897-12.138.095-.22.248-.471.449-.592.469-.277.982-.481 1.477-.716.242.491.7.985.685 1.473-.051 1.963-.384 3.927-.362 5.885.038 3.222 1.01 6.103 3.156 8.713 1.588 1.934 2.638 4.276 3.929 6.436.212.358.431.713.914.996.023-1.161-.124-2.351.107-3.474.61-2.982 1.031-6.069 2.203-8.856 1.065-2.53 3.438-4.259 6.247-5.112.447-.135 1.305.133 1.548.486.251.366.206 1.226-.087 1.591-3.737 4.682-2.638 9.546-.708 14.391 1.415 3.552 3.036 7.029 4.579 10.535.475 1.077 1.373 1.258 2.1.364 1.195-1.471 2.164-3.133 3.494-4.469 1.212-1.221 2.757-2.14 4.213-3.118.194-.13.895.083 1.027.319.211.368.257.906.169 1.337-.575 2.791-1.376 5.549-1.754 8.362-.237 1.777.049 3.633.234 5.437.439 4.271.802 8.525-.08 12.803-.103.5.209 1.38.61 1.585.385.198 1.311-.081 1.69-.444 1.564-1.494 3.277-2.706 5.44-3.181.468-.101 1.241-.026 1.466.262.291.371.281 1.058.196 1.578-.067.399-.388.821-.713 1.116-3.606 3.263-4.463 7.571-4.771 11.974-.287 4.062-1.162 7.954-2.355 11.854-1.314 4.29-3.458 8.127-6.451 11.431-6.31 6.962-14.143 9.478-23.464 6.771-2.385-.694-4.788-1.359-7.091-2.251-1.441-.559-2.699-1.534-4.058-2.291-4.615-2.564-7.777-6.406-9.98-10.952-.933-1.927-1.145-4.171-1.882-6.204-1.676-4.627-3.363-9.259-5.277-13.793-.926-2.192-2.303-4.224-3.633-6.232-.581-.875-1.571-1.495-2.348-2.259-.35-.344-.724-.71-.919-1.138-.573-1.245.073-2.146 1.44-1.85 2.28.491 4.54 1.111 6.766 1.794 3.44 1.054 6.216 3.002 8.273 5.891.227.319 1.044.633 1.261.489.477-.32 1.012-.909 1.052-1.421.276-3.539-.809-6.673-3.116-9.442-1.835-2.202-4.323-3.476-6.827-4.795-2.263-1.194-3.924-3.084-4.789-5.368-1.739-4.606-1.758-9.453-1.397-14.29.039-.523.684-1.347 1.143-1.415.45-.067 1.244.54 1.503 1.04 1.155 2.224 2.029 4.599 3.3 6.755.782 1.325 1.955 2.526 3.199 3.485 3.907 3.008 7.971 5.83 11.892 8.822 1.082.827 1.888 1.992 2.819 3.001l.431-.19zm12.98 40.909c6.351-.768 11.517-3.515 15.316-8.556 1.112-1.474 1.114-1.935-.27-3.114-2.609-2.221-5.539-3.74-8.979-4.673-5.607-1.52-10.877-.661-15.917 1.627-3.054 1.386-5.44 3.805-7.446 6.496-.822 1.104-.694 1.898.306 2.799 4.792 4.319 10.497 5.972 16.99 5.421z"/><path d="m194.435 553.421c-4.829-.145-8.78-2.077-12.549-4.971 3.024-3.664 6.538-6.222 11.108-7.399-2.037 1.807-3.343 3.952-2.99 6.606.348 2.605 1.866 4.575 4.428 5.761z"/><path d="m200.072 552.917c5.175-4.882 3.744-9.555-1.262-12.471.51-.052.822-.141 1.119-.106 3.847.437 7.171 2.073 10.327 4.11 1.012.653 1.035 1.304.197 2.13-2.752 2.703-5.748 5.042-9.563 6.209-.216.067-.45.073-.818.128z"/></g><g clip-path="url(#d)" fill="#8b52d4"><path d="m296.107 503.053c-1.265-2.7-2.355-5.493-3.843-8.072-1.891-3.286-4.336-6.284-6.127-9.617-3.203-5.952-3.634-12.31-1.876-18.805.156-.58.953-1.003 1.454-1.503.424.544 1.126 1.039 1.228 1.638.677 3.948 2.086 7.62 4.461 10.868 1.592 2.177 3.455 4.174 5.291 6.171.338.37 1.124.354 1.702.517.126-.58.475-1.213.344-1.731-.884-3.47-2.373-6.782-2.475-10.452-.121-4.299 1.225-8.245 2.897-12.138.095-.22.248-.471.449-.592.469-.277.982-.481 1.477-.716.242.492.7.985.685 1.474-.051 1.962-.384 3.926-.362 5.884.038 3.222 1.01 6.103 3.156 8.713 1.588 1.934 2.638 4.276 3.929 6.436.212.358.431.713.914.996.023-1.161-.124-2.351.107-3.474.61-2.982 1.031-6.069 2.203-8.856 1.065-2.53 3.438-4.259 6.247-5.112.447-.135 1.305.134 1.548.486.251.366.206 1.226-.087 1.591-3.737 4.682-2.638 9.546-.708 14.391 1.415 3.552 3.036 7.029 4.579 10.535.475 1.077 1.373 1.258 2.1.364 1.195-1.471 2.164-3.133 3.494-4.469 1.212-1.221 2.757-2.14 4.213-3.118.194-.13.895.083 1.027.319.211.368.257.906.169 1.337-.575 2.791-1.376 5.549-1.754 8.362-.237 1.777.049 3.633.234 5.438.439 4.27.802 8.524-.08 12.802-.103.5.209 1.38.61 1.585.385.198 1.311-.081 1.69-.444 1.564-1.494 3.277-2.706 5.44-3.181.468-.101 1.241-.026 1.466.262.291.371.281 1.058.196 1.578-.067.399-.389.821-.713 1.116-3.606 3.263-4.463 7.571-4.771 11.974-.287 4.063-1.162 7.954-2.355 11.854-1.314 4.29-3.458 8.127-6.451 11.431-6.31 6.962-14.143 9.478-23.464 6.771-2.385-.694-4.788-1.359-7.091-2.251-1.441-.558-2.699-1.534-4.058-2.291-4.615-2.564-7.777-6.406-9.98-10.952-.933-1.927-1.145-4.171-1.882-6.204-1.676-4.627-3.363-9.259-5.277-13.793-.926-2.191-2.303-4.224-3.633-6.232-.581-.875-1.571-1.495-2.348-2.259-.35-.344-.724-.71-.919-1.138-.573-1.245.073-2.146 1.44-1.85 2.28.491 4.54 1.111 6.766 1.794 3.44 1.054 6.216 3.002 8.273 5.892.227.318 1.044.632 1.261.488.477-.32 1.012-.909 1.052-1.421.276-3.539-.809-6.673-3.116-9.442-1.835-2.202-4.323-3.476-6.827-4.795-2.263-1.193-3.924-3.084-4.789-5.368-1.739-4.606-1.758-9.453-1.397-14.29.039-.523.684-1.347 1.143-1.415.45-.067 1.244.541 1.503 1.04 1.155 2.224 2.029 4.599 3.3 6.755.782 1.325 1.955 2.526 3.199 3.485 3.907 3.008 7.971 5.831 11.892 8.822 1.082.827 1.888 1.992 2.819 3.001l.431-.19zm12.98 40.909c6.351-.768 11.517-3.514 15.316-8.556 1.112-1.474 1.114-1.934-.27-3.114-2.609-2.22-5.539-3.74-8.979-4.672-5.607-1.521-10.877-.662-15.917 1.626-3.054 1.386-5.44 3.805-7.446 6.497-.822 1.103-.694 1.897.306 2.798 4.792 4.319 10.497 5.972 16.99 5.421z"/><path d="m305.977 541.96c-4.829-.145-8.78-2.077-12.549-4.971 3.024-3.664 6.538-6.222 11.108-7.399-2.037 1.807-3.343 3.952-2.99 6.606.348 2.605 1.866 4.575 4.428 5.761z"/><path d="m311.614 541.453c5.175-4.883 3.744-9.556-1.262-12.472.51-.052.822-.14 1.119-.106 3.847.437 7.171 2.073 10.327 4.11 1.012.653 1.035 1.304.197 2.13-2.752 2.703-5.748 5.042-9.563 6.209-.216.067-.45.073-.818.129z"/></g><path d="m0 0h388v56h-388z" fill="#f7ee75" transform="matrix(.9961947 -.08715574 .08715574 .9961947 222.961 379.24)"/><path d="m267.692 412.661-1.862-21.279-21.517 1.883 1.008 11.524c.811 9.276.136 9.817-4.598 10.231l-4.16.364 1.343 15.35 5.877-.563-.832-9.515 25.247-2.209.833 9.515 5.886-.466-1.343-15.35zm-16.927 1.481c.56-2.41.523-5.587.151-9.843l-.503-5.738 10.233-.895 1.356 15.493zm39.359 3.109c7.746-.678 12.972-7.591 12.277-15.529-.682-7.794-7.028-13.695-14.774-13.018-7.747.678-13.02 7.596-12.338 15.39.694 7.938 7.089 13.835 14.835 13.157zm-.519-5.929c-4.59.401-7.916-2.921-8.335-7.703-.414-4.734 2.285-8.584 6.875-8.985 4.639-.406 7.869 2.925 8.283 7.659.419 4.782-2.184 8.623-6.823 9.029zm41.924-25.688-21.518 1.883 1.008 11.524c.812 9.276.136 9.817-4.598 10.231l.506 5.786c8.942-.782 10.741-4.457 9.687-16.507l-.502-5.738 10.232-.895 1.862 21.279 5.69-.498zm44.664-3.907-6.408.56-6.196 11.239-3.634.318-.929-10.615-5.594.489.929 10.615-3.635.318-8.053-9.992-6.36.557 10.269 12.737-7.901 14.327 6.36-.556 6.239-11.291 3.587-.314.933 10.664 5.594-.49-.933-10.663 3.587-.314 8.105 10.036 6.408-.561-10.269-12.737zm9.865 14.844 21.088-1.845c-.533-9.397-6.554-15.423-14.635-14.716-7.698.673-13.414 7.486-12.737 15.232.682 7.794 7.494 13.51 15.193 12.837 4.877-.427 9.327-2.985 11.479-8.136l-4.308-2.418c-1.817 2.906-4.486 4.344-7.69 4.624-4.256.373-7.346-1.911-8.39-5.578zm6.964-10.727c3.586-.314 6.882 1.566 8.034 5.368l-15.301 1.338c.563-3.47 3.154-6.347 7.267-6.706zm38.864-8.99.929 10.616-15.636 1.368-.929-10.616-5.642.494 2.367 27.064 5.643-.493-.933-10.664 15.636-1.368.933 10.664 5.69-.498-2.367-27.065zm35.389 6.83.117 1.339c.607 10.788 6.473 16.153 17.423 15.195 8.99-.787 13.326-6.852 12.715-13.833-.607-6.933-5.934-12.201-14.924-11.415-4.495.394-8.838 3.616-9.154 8.27l-1.1.096c.094-7.188 3.332-9.832 10.396-11.703l1.648-.433c6.443-1.816 8.582-4.895 8.438-10.953l-5.977.523c-.205 2.62-1.917 3.974-6.994 5.43l-1.505.421c-6.215 1.652-11.695 6.757-11.083 17.063zm6.741 4.903c-.393-4.495 2.706-7.079 8.205-7.56 4.781-.418 8.903 1.534 9.284 5.885.38 4.352-3.34 6.99-8.121 7.408-5.499.481-9-1.525-9.368-5.733zm40.999-8.646-7.316.64-.9-10.281-5.833.51 2.367 27.065 13.15-1.15c7.603-.666 12.766-3.334 12.218-9.598-.544-6.216-6.275-7.835-13.686-7.186zm18.348 15.307 5.977-.523-2.368-27.065-5.977.523zm-24.681-3.43-.494-5.643 7.316-.64c5.595-.489 7.053.202 7.22 2.115.159 1.817-1.131 3.038-6.726 3.528zm60.019-26.934-26.969 2.36.506 5.786 10.711-.937 1.862 21.278 5.594-.489-1.861-21.279 10.663-.933zm18.834 8.712-7.316.64-.9-10.281-5.834.511 2.368 27.064 13.15-1.15c7.603-.665 12.766-3.333 12.218-9.597-.544-6.217-6.275-7.835-13.686-7.187zm-6.333 11.877-.494-5.642 7.316-.64c5.595-.49 7.053.202 7.22 2.114.159 1.818-1.132 3.039-6.726 3.528z" fill="#8b52d4"/><path d="m0 0h448v56h-448z" fill="#f7ee75" transform="matrix(.9961947 -.08715574 .08715574 .9961947 76 336.045)"/><path d="m114.709 348.551-6.311.552-13.2915 21.014-1.7236-19.7-5.5946.489 2.3678 27.065-.0436.052 6.2162-.544 13.3393-21.019 1.723 19.701 5.69-.498zm43.708-3.824-26.969 2.359 2.368 27.065 5.643-.494-1.862-21.278 15.636-1.368 1.862 21.278 5.69-.498zm20.796 26.175c7.746-.678 12.972-7.591 12.277-15.529-.682-7.794-7.028-13.696-14.775-13.018-7.746.678-13.019 7.596-12.337 15.39.694 7.938 7.089 13.835 14.835 13.157zm-.519-5.929c-4.59.401-7.917-2.922-8.335-7.703-.414-4.734 2.285-8.584 6.875-8.986 4.638-.405 7.869 2.926 8.283 7.66.419 4.781-2.185 8.623-6.823 9.029zm45.564-4.565-1.862-21.279-21.518 1.883 1.008 11.524c.812 9.277.137 9.817-4.597 10.232l-4.16.364 1.342 15.349 5.878-.562-.833-9.516 25.248-2.209.832 9.516 5.886-.467-1.343-15.349zm-16.928 1.481c.56-2.41.523-5.587.151-9.843l-.502-5.738 10.233-.895 1.355 15.493zm54.598 1.054-11.708-12.66-.104-1.196 8.44-13.121-6.933.606-5.767 8.985-7.239-7.847-7.03.615 10.643 11.5.105 1.196-9.288 14.448 6.885-.602 6.663-10.316 8.352 9.002zm16.048-.682c7.747-.677 12.972-7.591 12.278-15.529-.682-7.794-7.029-13.695-14.775-13.018-7.747.678-13.02 7.596-12.338 15.39.695 7.938 7.089 13.835 14.835 13.157zm-.518-5.929c-4.591.402-7.917-2.921-8.336-7.703-.414-4.734 2.285-8.584 6.876-8.985 4.638-.406 7.868 2.925 8.283 7.659.418 4.782-2.185 8.623-6.823 9.029zm45.563-4.565-1.862-21.278-21.517 1.882 1.008 11.524c.811 9.277.136 9.818-4.598 10.232l-4.16.364 1.343 15.349 5.877-.562-.832-9.516 25.247-2.209.833 9.516 5.885-.467-1.342-15.349zm-16.927 1.481c.56-2.41.523-5.586.15-9.842l-.502-5.738 10.233-.896 1.356 15.493zm64.605-27.093-6.359.556-6.197 11.239-7.842.686-.928-10.616-5.595.49 2.368 27.064 5.595-.489-.933-10.663 7.794-.682 8.105 10.036 6.36-.557-10.269-12.737zm38.019-3.327.929 10.616-15.636 1.368-.929-10.616-5.643.494 2.368 27.065 5.643-.494-.933-10.663 15.636-1.368.933 10.663 5.69-.498-2.368-27.065zm17.96 14.137 21.087-1.845c-.533-9.397-6.553-15.424-14.634-14.717-7.699.674-13.415 7.486-12.737 15.232.682 7.795 7.494 13.511 15.192 12.837 4.878-.427 9.328-2.984 11.479-8.135l-4.307-2.418c-1.818 2.905-4.487 4.344-7.69 4.624-4.256.372-7.347-1.911-8.39-5.578zm6.963-10.728c3.586-.314 6.883 1.566 8.034 5.368l-15.301 1.339c.564-3.47 3.155-6.347 7.267-6.707zm47.567-9.751-6.694.586-6.528 20.664-10.065-19.212-6.694.585 2.372 27.113 5.69-.498-1.41-16.115 1.526 2.565 6.196 12.998 5.977-.523 3.798-13.872 1.096-2.891 1.418 16.211 5.691-.498zm25.275-2.211-3.553 23.824-2.678.235-8.114-22.804-6.169.54 9.397 26.449 6.886-.602c-.952 3.986-2.721 4.141-10.468 4.819l.498 5.69c10.52-.92 15.29-4.229 16.704-13.941l3.665-24.75z" fill="#8b52d4"/></svg>