<svg fill="none" height="449" viewBox="0 0 720 449" width="720" xmlns="http://www.w3.org/2000/svg"><path d="m675.236 417.678c-4.663-22.684-15.816-52.24-30.606-81.09l-.832-1.63c-8.113-15.818-8.113-15.818-20.485-34.825l-1.426-2.195c-13.869-21.087-14.99-24.911-12.003-40.855 4.783-24.895 4.446-39.296-1.333-57.075-5.359-16.411-12.029-27.601-24.609-41.311-9.799-10.577-41.318-32.169-49.087-29.149-3.961 1.581-3.793 4.764-3.216 15.357.914 13.395 4.456 28.485 10.528 44.858 8.227 21.8 18.766 39.399 33.184 55.391 5.805 6.394 9.984 11.609 12.922 15.645-18.652-16.596-58.136-44.184-82.196-57.309-8.76-4.748-9.222-5.16-12.34-10.978-3.433-6.231-4.609-11.06-8.978-36.895-3.041-18.349-12.759-40.246-24.766-55.7983-6.589-8.5122-19.049-20.5604-28.375-27.4217-15.278-11.0978-41.247-21.2445-63.119-24.6723-13.901-2.3032-40.47-2.2978-52.613.0054-19.82 3.4276-23.042 7.0998-23.553 10.5057-.751 4.1664 2.736 6.6326 10.686 11.8148 5.419 3.5689 13.939 10.3972 18.994 15.2315 14.109 13.4337 36.949 34.2269 43.636 39.7299 9.299 7.681 17.465 12.445 45.976 26.852 25.485 12.819 42.543 23.151 54.328 32.961-18.559-7.757-57.619-19.881-76.314-23.846-27.629-5.856-49.382-8.034-80.879-7.225-19.587.506-44.888 1.364-78.05 7.078-20.675 3.569-49.637 10.827-64.648 15.607-.071.022-13.2 4.406-16.339 3.341-1.295-.505-4.042-2.124-3.466-6.937.631-4.905 4.136-6.04 12.596-8.784 23.189-7.566 72.207-19.251 115.723-23.206-13.613-10.615-33.86-18.768-54.006-21.056-16.389-1.999-46.482-1.722-60.732.571-22.825 3.536-47.276 11.152-65.422 20.37-32.7924 16.601-72.8695 57.906-91.26098 94.051-2.1219 4.341-4.28197 10.099-2.486559 12.967.685559 1.092 1.822709 1.754 2.845639 1.754h.03264c.53865.071 6.08296 1.119 13.92326 2.755 57.548 11.983 108.867 10.386 166.351-5.204 31.519-8.464 60.764-24.206 80.226-43.164 11.122-10.761 23.75-27.476 26.503-35.076l.473-1.347 32.107.522c27.455.434 36.177.972 46.65 2.857 30.801 5.677 73.268 18.388 95.266 28.486-14.386 1.222-34.571 6.377-54.905 11.923-8.656 2.358-29.478 8.958-42.999 14.222-18.379 7.154-43.336 18.403-57.793 25.971-13.004 4.395-15.953-7.561-5.571-12.874 25.779-13.325 73.61-33.924 114.721-44.13-26.781-5.731-64.872-3.504-73.42-1.836-46.487 9.354-93.763 35.265-124.058 80.454-8.362 12.489-11.48 24.733-10.653 26.813 1.17 2.928 11.535 8.816 31.188 12.782 16.512 3.324 56.4 7.387 74.959 4.144 35.655-6.16 61.373-13.564 87.397-42.283 15.099-16.807 22.095-25.754 34.071-43.5 6.981-10.207 11.061-14.895 11.546-15.319 4.477-1.684 23.853-3.357 34-2.944 12.829.63 16.796 2.515 47.167 22.364 22.845 15.014 30.072 20.409 48.331 36.096l5.321 4.514s-36.171 5.096-51.634 9.615c-7.389 2.168-25.294 7.616-36.894 12.266-6.877 2.754-14.837 6.247-22.651 9.865-11.1 2.928-12.084-9.523-4.554-13.097 27.075-12.32 61.901-25.293 89.454-28.883.18-.022.327-.038.501-.06-24.969-7.812-61.401-9.919-85.993-1.7-49.958 16.704-73.289 53.734-80.667 64.49-8.183 11.923-17.286 29.561-17.286 33.548 0 6.774 45.155 18.942 91.293 12.782 29.865-3.987 56.075-18.682 73.561-33.999 27.107-23.744 39.599-50.633 39.599-50.633h4.587c14.369 0 18.532 3.048 31.856 23.261 24.501 37.074 49.458 99.82 49.458 124.315 0 4.889 1.47 8.713 4.032 10.484.958.662 2.057 1.01 3.189 1.01.663 0 1.327-.125 1.98-.364 3.177-1.211 6.192-5.812 1.061-30.958zm-572.137-218.745c-6.2404 2.51-17.2086 6.72-20.4359 6.72l-1.148-.18c-2.4104-.918-3.8522-3.569-3.6889-6.752.1578-3.161 1.839-5.628 4.2983-6.301 1.0609-.283 9.0699-3.645 14.3688-5.872l1.1861-.5c13.8306-6.03 19.3536-7.241 22.6506-5.068 1.137.749 2.498 2.249 2.498 5.171 0 4.9-2.628 5.954-19.729 12.782z" fill="#99bb5d"/></svg>