<svg fill="none" height="371" viewBox="0 0 391 371" width="391" xmlns="http://www.w3.org/2000/svg"><path d="m156.259 168.127-57.0878 74.076c-3.0171 3.899-7.4542 3.603-9.8206-.709l-46.3209-82.642c-2.4255-4.312-.4141-7.029 4.4369-6.084l27.6266 4.962c8.6963-43.3 35.3178-82.7595 76.6108-106.5064 7.75-4.4894 15.736-8.2109 23.841-11.2236l16.682 45.249c-5.56 2.1266-11.062 4.6667-16.387 7.7384-27.035 15.5946-45.019 40.8186-52.177 68.8186l29.105-.473c4.911-.118 6.508 2.954 3.491 6.853zm185.935 109.696-92.76-12.346c-4.91-.65-6.804 2.245-4.201 6.439l14.968 24.928c-27.864 7.857-58.745 4.903-85.78-10.692-5.325-3.071-10.294-6.557-14.908-10.337l-30.94 37.038c6.685 5.493 13.902 10.515 21.652 15.004 41.293 23.865 88.797 27.114 130.681 13.055l9.524 26.346c1.598 4.667 4.97 5.021 7.514.768l48.569-81.342c2.543-4.194.591-8.211-4.319-8.861zm-5.324-206.6331 18.103-21.384c3.253-3.7215 1.833-6.7932-3.077-6.8523l-94.831-1.2406c-4.91-.059-7.395 3.6035-5.561 8.152l35.732 86.363c1.893 4.548 5.324 4.726 7.691.414l14.139-25.401c20.764 20.143 33.661 48.32 33.661 79.51 0 6.144-.532 12.169-1.479 18.076l47.563 8.152c1.42-8.565 2.189-17.308 2.189-26.228 0-47.612-20.942-90.321-54.13-119.502z" fill="#99bb5d"/></svg>