<svg fill="none" height="650" viewBox="0 0 1440 650" width="1440" xmlns="http://www.w3.org/2000/svg"><path d="m1232.37 172.231c5.14-3.254 11.87-2.33 15.94 2.187l5.41 6.003c2.7 3.001 6.69 4.507 10.71 4.039l8.02-.934c6.04-.704 11.7 3.05 13.41 8.885l2.27 7.754c1.13 3.877 4.07 6.965 7.89 8.285l7.64 2.64c5.74 1.986 9.22 7.826 8.22 13.824l-1.32 7.97c-.66 3.985.65 8.043 3.52 10.889l5.73 5.691c4.32 4.282 4.91 11.052 1.42 16.024l-4.65 6.607c-2.33 3.304-2.91 7.529-1.56 11.337l2.7 7.616c2.03 5.73-.37 12.089-5.68 15.05l-7.06 3.936c-3.52 1.968-5.88 5.523-6.32 9.539l-.87 8.032c-.66 6.043-5.58 10.731-11.65 11.096l-8.06.485c-4.03.242-7.7 2.423-9.84 5.852l-4.27 6.856c-3.21 5.16-9.68 7.249-15.31 4.945l-7.47-3.062c-3.74-1.532-7.99-1.157-11.4 1.005l-6.83 4.324c-5.13 3.254-11.86 2.33-15.93-2.187l-5.41-6.003c-2.7-3.001-6.69-4.507-10.71-4.039l-8.02.934c-6.04.704-11.7-3.05-13.41-8.885l-2.27-7.754c-1.13-3.878-4.07-6.965-7.89-8.285l-7.64-2.64c-5.74-1.986-9.22-7.826-8.22-13.824l1.32-7.97c.66-3.985-.65-8.043-3.52-10.889l-5.73-5.691c-4.32-4.282-4.91-11.052-1.42-16.024l4.65-6.607c2.33-3.304 2.91-7.529 1.56-11.337l-2.7-7.616c-2.03-5.73.37-12.089 5.68-15.05l7.06-3.936c3.52-1.968 5.88-5.523 6.32-9.539l.87-8.032c.66-6.043 5.58-10.731 11.65-11.096l8.06-.485c4.03-.242 7.7-2.423 9.84-5.852l4.27-6.856c3.21-5.16 9.68-7.249 15.31-4.945l7.47 3.062c3.74 1.532 7.99 1.157 11.4-1.005z" fill="#f5f2cd"/><path d="m1198.4 313.854c-12.41-7.95 21.96-18.393 8.86-49.471-11.16-26.459-5.25-32.051-5.25-32.051-24.76 16.678-35.72 43.508-23.2 67.493 12.53 23.966 44.34 20.069 44.34 20.069v-2.338s-15.47 2.28-24.77-3.682zm-8.58-5.65c-16.88-19.952-8.51-50.075 3.86-63.967-11.98 17.886-15.47 46.47-3.86 63.967zm10.18-87.758c13.11-6.761 4.97 28.194 38.45 32.403 28.52 3.585 30.41 11.496 30.41 11.496-2.09-29.753-19.88-52.647-46.92-53.797-27.03-1.149-39.58 28.331-39.58 28.331l2.03 1.169s5.76-14.516 15.59-19.582zm62.73 30.727c-9.52-19.309-32.55-36.611-53.52-35.325 25.73-4.618 47.67 17.672 53.52 35.325zm10.3-7.092-2.03 1.169s9.72 12.236 9.19 23.284c-.7 14.71-26.94-9.801-47.32 17.068-17.36 22.874-25.17 20.556-25.17 20.556 26.85 13.074 55.58 9.138 70.11-13.678 14.51-22.816-4.78-48.399-4.78-48.399zm-50.85 63.343c21.49 1.422 48.02-9.859 57.41-28.642-8.86 24.57-39.17 32.383-57.41 28.642z" fill="#a2c366"/><path d="m621.48 545v-91.344c-1.408.528-3.432 1.056-6.072 1.584-2.464.528-5.192.792-8.184.792-9.504 0-16.984-3.08-22.44-9.24s-8.184-15.4-8.184-27.72v-91.344h24.552v90.552c0 5.104.792 8.888 2.376 11.352 1.584 2.288 4.576 3.432 8.976 3.432 1.936 0 3.52-.176 4.752-.528 1.408-.528 2.816-1.144 4.224-1.848v-102.96h24.552v217.272zm43.618 0v-217.272h58.608v24.552h-34.32v69.696h22.968v24.552h-22.968v74.184h35.64v24.288zm67.122 0v-24.288h3.168c2.816 0 5.192-.616 7.128-1.848 1.936-1.408 3.696-4.84 5.28-10.296.704-2.464 1.408-5.72 2.112-9.768s1.32-9.416 1.848-16.104c.704-6.688 1.408-14.96 2.112-24.816.704-10.032 1.408-22.352 2.112-36.96l4.752-93.192h57.288v217.272h-24.288v-192.72h-13.2l-3.96 72.864c-.88 14.608-1.76 27.192-2.64 37.752-.704 10.384-1.496 19.272-2.376 26.664-.88 7.216-1.76 13.112-2.64 17.688s-1.672 8.272-2.376 11.088c-2.464 8.8-5.984 15.488-10.56 20.064-4.4 4.4-11 6.6-19.8 6.6zm103.255-182.688c0-24.64 11.528-36.96 34.584-36.96 23.232 0 34.848 12.32 34.848 36.96v148.104c0 24.64-11.616 36.96-34.848 36.96-23.056 0-34.584-12.32-34.584-36.96zm45.144 0c0-8.272-3.52-12.408-10.56-12.408-6.864 0-10.296 4.136-10.296 12.408v148.104c0 8.448 3.432 12.672 10.296 12.672 7.04 0 10.56-4.224 10.56-12.672zm86.662 2.376c0-4.576-.792-7.744-2.376-9.504-1.584-1.936-4.136-2.904-7.656-2.904h-10.824v71.016h11.088c6.512 0 9.768-3.784 9.768-11.352zm.528 92.664c0-4.576-.792-7.832-2.376-9.768-1.408-1.936-4.048-2.904-7.92-2.904h-11.088v76.032h10.824c7.04 0 10.56-4.224 10.56-12.672zm-45.672 87.648v-217.272h35.112c11.792 0 20.152 2.992 25.08 8.976 5.104 5.984 7.656 15.576 7.656 28.776v44.088c0 12.32-3.872 19.976-11.616 22.968 3.872.88 7.216 3.168 10.032 6.864s4.224 8.976 4.224 15.84v53.064c0 12.848-2.992 22.176-8.976 27.984-5.808 5.808-14.608 8.712-26.4 8.712zm86.113 0v-217.272h58.6v24.552h-34.32v69.696h22.97v24.552h-22.97v74.184h35.64v24.288zm128.63 0c-5.46-18.128-10.65-35.728-15.58-52.8-4.92-17.248-9.94-34.672-15.04-52.272.35 8.976.52 18.216.52 27.72v31.68 45.672h-24.55v-217.272h24.55v44.88 26.928c0 7.04-.17 13.904-.52 20.592 4.92-16.016 9.85-31.504 14.78-46.464 4.93-15.136 9.94-30.448 15.05-45.936h26.13l-34.84 97.944 37.48 119.328zm89.91 0-3.96-33.528h-26.66c-.88 5.632-1.67 11.264-2.38 16.896-.52 5.456-1.14 11-1.84 16.632h-23.76l28.24-217.272h28.25l26.67 217.272zm-6.6-55.968c-1.93-16.544-3.78-32.824-5.54-48.84-1.76-16.192-3.43-32.824-5.02-49.896-3.16 34.144-6.86 67.056-11.08 98.736z" fill="#4b6fb4"/><path d="m172.554 220h58.56c28.896 0 36.096-10.368 36.096-23.136v-.864c0-12.576-7.2-22.08-36.096-22.08h-31.296v-8.544h60.576v-16.8h-87.84zm27.264-17.28v-12.672h28.32c8.544 0 10.848 2.592 10.848 6.048v.288c0 3.36-2.304 6.336-10.848 6.336zm73.149-54.144v71.424h79.776v-17.856h-52.896v-9.792h51.072v-17.376h-51.072v-8.928h52.128v-17.472zm146.614 49.056c26.112 0 33.888-10.944 33.888-23.904v-1.536c0-13.152-7.488-23.616-33.888-23.616h-59.52v71.424h27.264v-22.368zm-32.256-31.2h28.992c6.432 0 9.024 2.4 9.024 6.528v.288c0 3.936-2.784 6.528-9.024 6.528h-28.992zm71.736-17.856v71.424h79.776v-17.856h-52.896v-9.792h51.072v-17.376h-51.072v-8.928h52.128v-17.472zm86.806 71.424h27.264v-52.416h48.192v-19.008h-75.456zm154.033 0h27.264v-71.424h-27.264l-44.832 44.928v-44.928h-27.264v71.424h27.264l44.832-44.832zm64.8 0h27.264v-51.936h30.816v-19.488h-88.896v19.488h30.816zm64.58-71.424v71.424h79.776v-17.856h-52.896v-9.792h51.072v-17.376h-51.072v-8.928h52.128v-17.472z" fill="#f5f2cd"/><g fill="#4b6fb4"><path clip-rule="evenodd" d="m826.044 276.199c-.665-.331-1.583-.485-1.968-1.022-2.992-4.184-7.464-4.884-11.256-1.457-7.106 6.421-10.511 14.874-13.122 23.68 3.702-6.33 7.407-12.682 11.143-19.027.402-.674.855-1.397 1.466-1.847 2.435-1.77 5.241-4.596 8.017-2.158 1.594 1.397 2.356 5.2 1.72 7.411-2.912 10.278-5.986 20.568-9.985 30.46-1.584 3.902-5.186 7.554-8.785 9.956-9.242 6.163-19.015 11.523-26.068 20.953-5.666-5.273-10.955-10.197-16.206-15.094 4.4-4.985 8.626-9.555 12.609-14.324 4.979-5.964 8.645-12.631 10.54-20.269.978-3.967 2.335-7.854 3.732-11.696 2.262-6.156 6.693-10.831 12.479-13.228 12.811-5.304 25.91-9.921 38.987-14.558 3.962-1.404 8.209-2.079 12.371-2.804 1.768-.312 3.738-.197 5.477.265 3.184.843 4.094 3.62 1.917 6.066-1.559 1.743-3.512 3.314-5.59 4.354-6.862 3.443-13.903 6.513-20.777 9.932-2.426 1.211-4.569 3.001-6.841 4.525z" fill-rule="evenodd"/><path clip-rule="evenodd" d="m826.911 278.557c9.207-4.173 18.418-8.351 27.967-12.682.75 3.799-1.474 5.902-3.996 7.043-5.98 2.715-12.171 5.002-18.334 7.303-1.937.725-4.049.956-7.021 1.621.691-1.559 1.098-2.483 1.51-3.409.005-.002-.126.124-.126.124z" fill-rule="evenodd"/><path clip-rule="evenodd" d="m848.207 276.203c-5.926 6.936-14.324 7.672-22.506 9.006-.157-.448-.321-.894-.478-1.344 7.663-2.554 15.32-5.107 22.984-7.662z" fill-rule="evenodd"/><path clip-rule="evenodd" d="m842.127 283.18c-2.233 3.25-12.515 7.251-16.175 6.359-.527-.13-1.385-.816-1.324-1.057.163-.674.633-1.667 1.154-1.78 5.38-1.255 10.788-2.351 16.345-3.522z" fill-rule="evenodd"/><path clip-rule="evenodd" d="m978 332.5c-5.325 5.037-13.819 5.57-19.123 10.591-.742-.617-1.419-1.029-1.898-1.6-5.807-6.876-12.84-12.185-20.738-16.429-7.568-4.064-12.828-10.059-15.32-18.407-2.114-7.099-4.461-14.132-6.546-21.235-.586-2.006-.838-4.177-.843-6.275-.007-4.903 3.482-6.966 7.332-3.913 3.119 2.481 5.727 5.85 7.876 9.251 2.664 4.227 4.63 8.9 7.082 13.276-2.397-8.762-5.538-17.18-12.543-23.457-4.631-4.139-8.849-3.488-12.376 1.79-10.246-5.052-20.572-10.035-30.783-15.248-2.528-1.288-5.67-3.116-4.456-6.614 1.316-3.794 5.109-3.464 8.198-2.859 17.458 3.447 34.333 8.773 50.357 16.591 9.668 4.719 14.095 13.487 16.417 23.217 2.889 12.087 9.65 21.625 17.858 30.445 1.971 2.108 7.298 8.549 9.506 10.876z" fill-rule="evenodd"/><path clip-rule="evenodd" d="m881.811 263.547c9.753 5.538 20.476 8.368 29.337 14.773-.176.462-.357.929-.542 1.396-2.932-.77-5.954-1.322-8.79-2.37-5.542-2.054-11.065-4.205-16.431-6.672-2.486-1.137-4.398-3.215-3.574-7.127z" fill-rule="evenodd"/><path clip-rule="evenodd" d="m888.004 274.172c7.834 2.582 15.546 5.121 24.118 7.943-6.672 1.884-21.645-3.393-24.118-7.943z" fill-rule="evenodd"/><path clip-rule="evenodd" d="m894.352 280.609c6.145 2.832 12.63 2.471 17.885 5.891-5.755 1.684-15.145-1.38-17.885-5.891z" fill-rule="evenodd"/><path d="m154.495 485.527c5.781-7.355 11.879-7.813 18.669-1.378-5.782 7.356-11.88 7.814-18.669 1.378zm82.44-8.268c-7.128-6.061-13.195-5.299-18.572 2.357 7.111 6.063 13.195 5.299 18.572-2.357zm-1.145-19.751c-8.65.031-12.461 4.237-11.613 12.856 8.65-.032 12.46-4.237 11.613-12.856zm-29.436-10.172c-8.573 5.57-9.65 12.181-3.3 20.197 8.572-5.571 9.65-12.181 3.3-20.197zm12.483 64.745c-10.259 1.507-15.521-2.796-16.081-13.15 10.276-1.508 15.538 2.794 16.081 13.15zm-22.526-24.655c8.505-9.472 7.671-17.785-2.547-25.396-8.505 9.472-7.671 17.785 2.547 25.396zm-4.891-48.764c7.359 5.474 7.959 11.456 1.832 18.265-7.34-5.459-7.94-11.44-1.832-18.265zm33.238 49.437c-7.607 10.252-15.938 11.087-25.43 2.55 7.608-10.252 15.938-11.087 25.43-2.55zm22.406-2.247c-4.569 6.175-9.689 6.689-15.647 1.569 4.823-6.201 9.942-6.715 15.647-1.569zm-8.468 10.867c-6.204 7.91-12.76 8.396-20.058 1.483 6.204-7.91 12.76-8.397 20.058-1.483zm-17.691-35.499c-11.834.623-16.742 6.645-15.02 18.368 11.831-.641 16.741-6.645 15.02-18.368zm-.45-17.073c-7.42 2.929-9.251 7.823-5.653 14.937 7.402-2.944 9.251-7.823 5.653-14.937zm-68.781 21.763c8.484-1.687 13.053 1.678 13.935 10.293-8.484 1.687-13.054-1.677-13.935-10.293zm26.83-15.815c9.507 3.757 11.877 10.022 7.244 19.139-9.507-3.757-11.876-10.022-7.244-19.139zm.622 65.934c10.355-.56 14.674-5.823 13.15-16.081-10.354.561-14.674 5.824-13.15 16.081zm-10.484-22.346c9.492 8.537 17.822 7.701 25.43-2.551-9.492-8.537-17.823-7.702-25.43 2.551zm-22.406 2.247c5.705 5.145 10.824 4.631 15.647-1.57-5.958-5.119-11.078-4.606-15.647 1.57zm10.457 8.969c7.652 6.52 14.174 5.695 19.954-2.53-7.652-6.52-14.174-5.696-19.954 2.53zm10.29-38.306c11.721-1.738 17.728 3.189 18.368 15.02-11.723 1.722-17.728-3.188-18.368-15.02zm-2.95-16.822c7.854 1.397 10.637 5.829 8.49 13.519-7.839-1.415-10.62-5.83-8.49-13.519zm26.91 87.431 20.48-2.054c-12.518-13.183-9.267-37.266-14.647-42.922-4.15 6.612 3.818 29.569-5.833 44.976z"/><path d="m287.159 472.222c5.781-7.355 11.879-7.813 18.669-1.377-5.782 7.355-11.88 7.813-18.669 1.377zm82.44-8.268c-7.128-6.06-13.195-5.298-18.572 2.358 7.111 6.062 13.195 5.298 18.572-2.358zm-1.145-19.75c-8.65.031-12.46 4.236-11.613 12.855 8.65-.031 12.46-4.236 11.613-12.855zm-29.436-10.173c-8.572 5.571-9.65 12.181-3.3 20.197 8.573-5.57 9.65-12.181 3.3-20.197zm12.483 64.745c-10.259 1.507-15.521-2.795-16.081-13.15 10.276-1.508 15.538 2.794 16.081 13.15zm-22.526-24.655c8.505-9.471 7.671-17.785-2.547-25.395-8.505 9.471-7.671 17.784 2.547 25.395zm-4.891-48.764c7.359 5.475 7.959 11.456 1.832 18.266-7.34-5.459-7.94-11.441-1.832-18.266zm33.238 49.437c-7.607 10.252-15.937 11.087-25.43 2.55 7.608-10.252 15.938-11.087 25.43-2.55zm22.406-2.247c-4.569 6.175-9.689 6.689-15.647 1.569 4.823-6.201 9.942-6.714 15.647-1.569zm-8.468 10.867c-6.204 7.91-12.76 8.397-20.058 1.483 6.204-7.91 12.76-8.397 20.058-1.483zm-17.691-35.499c-11.833.624-16.742 6.645-15.02 18.368 11.831-.64 16.741-6.645 15.02-18.368zm-.45-17.073c-7.42 2.929-9.251 7.823-5.653 14.937 7.402-2.944 9.251-7.822 5.653-14.937zm-68.781 21.763c8.484-1.687 13.054 1.678 13.935 10.294-8.484 1.687-13.054-1.678-13.935-10.294zm26.83-15.815c9.508 3.757 11.877 10.022 7.244 19.139-9.507-3.756-11.876-10.021-7.244-19.139zm.622 65.935c10.355-.561 14.674-5.824 13.15-16.082-10.354.561-14.674 5.824-13.15 16.082zm-10.484-22.347c9.492 8.537 17.822 7.701 25.43-2.551-9.492-8.537-17.823-7.701-25.43 2.551zm-22.406 2.247c5.705 5.145 10.824 4.632 15.647-1.569-5.958-5.12-11.078-4.607-15.647 1.569zm10.457 8.969c7.652 6.52 14.174 5.696 19.954-2.53-7.651-6.52-14.174-5.695-19.954 2.53zm10.29-38.305c11.721-1.739 17.728 3.188 18.368 15.019-11.722 1.722-17.728-3.188-18.368-15.019zm-2.95-16.822c7.854 1.397 10.637 5.828 8.49 13.518-7.839-1.415-10.62-5.829-8.49-13.518zm26.911 87.43 20.479-2.054c-12.518-13.183-9.267-37.266-14.647-42.921-4.15 6.611 3.818 29.569-5.832 44.975z"/><path d="m419.824 458.918c5.782-7.356 11.88-7.814 18.669-1.378-5.782 7.355-11.88 7.813-18.669 1.378zm82.44-8.268c-7.128-6.061-13.195-5.299-18.572 2.357 7.111 6.062 13.195 5.299 18.572-2.357zm-1.145-19.751c-8.65.031-12.46 4.236-11.613 12.855 8.65-.031 12.46-4.236 11.613-12.855zm-29.436-10.172c-8.572 5.57-9.65 12.18-3.3 20.196 8.573-5.57 9.65-12.18 3.3-20.196zm12.483 64.745c-10.259 1.506-15.521-2.796-16.081-13.15 10.276-1.509 15.538 2.793 16.081 13.15zm-22.526-24.655c8.505-9.472 7.671-17.785-2.547-25.396-8.505 9.471-7.671 17.785 2.547 25.396zm-4.89-48.764c7.358 5.474 7.958 11.455 1.831 18.265-7.34-5.459-7.94-11.44-1.831-18.265zm33.237 49.436c-7.607 10.252-15.937 11.088-25.429 2.551 7.607-10.252 15.937-11.088 25.429-2.551zm22.406-2.247c-4.569 6.176-9.689 6.689-15.647 1.569 4.823-6.201 9.943-6.714 15.647-1.569zm-8.468 10.868c-6.204 7.909-12.76 8.396-20.058 1.482 6.204-7.909 12.76-8.396 20.058-1.482zm-17.691-35.5c-11.833.624-16.742 6.646-15.02 18.369 11.831-.641 16.741-6.646 15.02-18.369zm-.45-17.072c-7.42 2.928-9.251 7.822-5.653 14.937 7.402-2.944 9.251-7.823 5.653-14.937zm-68.781 21.763c8.484-1.687 13.054 1.677 13.935 10.293-8.484 1.687-13.054-1.678-13.935-10.293zm26.83-15.815c9.508 3.757 11.877 10.021 7.244 19.139-9.507-3.757-11.876-10.022-7.244-19.139zm.622 65.934c10.355-.561 14.674-5.824 13.15-16.081-10.354.56-14.674 5.823-13.15 16.081zm-10.484-22.347c9.492 8.537 17.822 7.702 25.43-2.55-9.492-8.537-17.823-7.702-25.43 2.55zm-22.406 2.247c5.705 5.145 10.824 4.632 15.647-1.569-5.958-5.12-11.078-4.606-15.647 1.569zm10.457 8.97c7.652 6.52 14.174 5.695 19.954-2.531-7.651-6.52-14.174-5.695-19.954 2.531zm10.29-38.306c11.721-1.739 17.728 3.188 18.368 15.02-11.722 1.722-17.728-3.189-18.368-15.02zm-2.95-16.822c7.854 1.397 10.637 5.828 8.49 13.519-7.839-1.416-10.62-5.83-8.49-13.519zm26.911 87.43 20.479-2.054c-12.518-13.183-9.267-37.265-14.647-42.921-4.15 6.611 3.818 29.569-5.832 44.975z"/><path d="m0 0h246v56h-246z" transform="matrix(.99992018 -.01263492 .01263492 .99992018 332.402 267.764)"/></g><path d="m370.071 283.12.343 27.166-5.711.072-.27-21.358-15.695.198.27 21.359-5.664.071-.343-27.165zm22.727-.575c2.24-.028 4.264.586 6.072 1.844 1.84 1.257 3.302 2.998 4.386 5.225 1.084 2.194 1.643 4.667 1.678 7.419.03 2.4-.469 4.646-1.499 6.74-1.029 2.093-2.448 3.775-4.256 5.046-1.809 1.239-3.817 1.872-6.025 1.9-2.816.036-5.145-.719-6.989-2.264s-3.058-3.962-3.644-7.25l-.816.01.714 18.52-6.143.078-.465-36.765 6.144-.078-.368 8.886.96-.012c.602-2.984 1.789-5.271 3.561-6.862 1.804-1.591 4.034-2.403 6.69-2.437zm-1.833 22.105c1.536-.019 2.908-.373 4.115-1.06 1.208-.687 2.14-1.611 2.797-2.771.689-1.193 1.025-2.526 1.006-3.997-.03-2.336-.806-4.231-2.328-5.684-1.523-1.484-3.452-2.212-5.788-2.183-1.472.019-2.812.372-4.019 1.059-1.207.688-2.172 1.612-2.893 2.773-.69 1.161-1.026 2.429-1.008 3.805.018 1.408.387 2.747 1.107 4.018.719 1.239 1.692 2.235 2.918 2.988 1.257.72 2.621 1.071 4.093 1.052zm45.663-22.371.344 27.214-5.711.072-.25-19.774-14.869 19.965-6.24.079.048-.048-.344-27.166 5.616-.071.25 19.774 14.821-19.964zm22.259-.569c2.239-.028 4.263.586 6.071 1.844 1.84 1.256 3.302 2.998 4.387 5.225 1.084 2.194 1.643 4.667 1.678 7.419.03 2.4-.47 4.646-1.499 6.739-1.03 2.094-2.449 3.776-4.257 5.047-1.808 1.239-3.817 1.872-6.024 1.9-2.816.036-5.146-.719-6.99-2.264-1.843-1.545-3.058-3.962-3.643-7.25l-.816.01.714 18.52-6.144.078-.464-36.765 6.143-.078-.368 8.886.96-.013c.603-2.983 1.79-5.271 3.562-6.861 1.804-1.591 4.034-2.403 6.69-2.437zm-1.833 22.105c1.536-.019 2.907-.373 4.115-1.06 1.207-.687 2.139-1.611 2.797-2.772.689-1.192 1.024-2.525 1.005-3.997-.029-2.335-.805-4.23-2.328-5.683-1.522-1.484-3.452-2.212-5.788-2.183-1.471.019-2.811.372-4.019 1.059-1.207.688-2.171 1.612-2.893 2.773-.689 1.161-1.025 2.429-1.008 3.805.018 1.408.387 2.747 1.107 4.018.72 1.239 1.692 2.235 2.918 2.988 1.257.72 2.622 1.071 4.094 1.052zm30.186 5.715c-2.528.032-4.84-.579-6.936-1.832-2.096-1.254-3.766-2.977-5.01-5.169-1.212-2.193-1.834-4.602-1.867-7.225-.033-2.592.529-4.984 1.685-7.174 1.189-2.192 2.815-3.94 4.878-5.246 2.064-1.307 4.36-1.976 6.888-2.008 2.527-.031 4.839.579 6.935 1.833s3.75 2.961 4.961 5.122c1.212 2.161 1.834 4.537 1.867 7.129.033 2.623-.529 5.047-1.685 7.27-1.156 2.222-2.765 3.987-4.829 5.293s-4.359 1.975-6.887 2.007zm-.075-5.951c2.303-.029 4.133-.837 5.489-2.422 1.356-1.617 2.019-3.642 1.988-6.074-.031-2.431-.744-4.422-2.14-5.973-1.396-1.55-3.245-2.311-5.549-2.282-2.272.029-4.102.852-5.489 2.47-1.388 1.585-2.067 3.578-2.037 5.978.031 2.432.76 4.438 2.188 6.021 1.428 1.55 3.278 2.31 5.55 2.282zm51.68-1.229.195 15.406-5.904.027-.121-9.551-25.342.32.121 9.551-5.903.123-.195-15.407 4.176-.053c1.759-.022 2.973-.213 3.641-.574.699-.361 1.169-1.199 1.408-2.514s.339-3.572.298-6.772l-.146-11.567 21.599-.273.269 21.358zm-11.615.146-.197-15.55-10.271.129.073 5.76c.028 2.24-.027 4.161-.167 5.762-.108 1.57-.347 2.917-.717 4.042zm40.537-21.874-5.5 24.408c-.696 3.177-1.752 5.67-3.17 7.48-1.416 1.843-3.288 3.146-5.615 3.912-2.326.797-5.297 1.219-8.912 1.264l-.072-5.711c3.007-.038 5.118-.129 6.333-.272 1.214-.111 2.154-.443 2.819-.996.666-.52 1.214-1.439 1.646-2.757l-6.912.087-7.399-27.076 6.192-.078 6.391 23.345 2.688-.034 5.32-23.493z" fill="#f5f2cd"/><path d="m0 0h262v56h-262z" fill="#4b6fb4" transform="matrix(.9961947 -.08715574 .08715574 .9961947 182 235.834)"/><path d="m220.709 248.34 2.372 27.112-5.69.498-1.723-19.701-13.339 21.019-6.217.544.044-.052-2.368-27.065 5.595-.489 1.723 19.7 13.292-21.014zm46.076 23.24-5.69.498-1.862-21.278-10.233.895.503 5.738c.365 4.176.34 7.374-.077 9.595-.416 2.221-1.364 3.862-2.845 4.923s-3.736 1.724-6.765 1.989l-.506-5.786c1.753-.153 2.949-.435 3.588-.844.671-.412 1.077-1.283 1.217-2.612.141-1.329.072-3.588-.207-6.776l-1.008-11.524 21.517-1.882zm26.152-30.33c2.518-.221 4.869.216 7.053 1.31s3.96 2.673 5.329 4.738c1.369 2.064 2.167 4.387 2.393 6.97.229 2.614-.151 5.072-1.138 7.375s-2.46 4.182-4.421 5.639c-1.961 1.456-4.2 2.294-6.718 2.515-2.2.192-4.283-.123-6.251-.947-1.967-.824-3.648-2.042-5.041-3.655-1.394-1.612-2.393-3.484-2.997-5.616l-4.399.385.932 10.663-5.642.494-2.368-27.065 5.643-.493.928 10.615 4.352-.38c.227-2.173.887-4.174 1.98-6.004 1.122-1.865 2.564-3.372 4.326-4.522 1.795-1.153 3.808-1.827 6.039-2.022zm1.979 22.617c2.295-.2 4.06-1.142 5.294-2.824 1.231-1.714 1.741-3.782 1.529-6.205-.212-2.422-1.072-4.355-2.579-5.797-1.508-1.442-3.409-2.063-5.704-1.862-2.264.198-4.027 1.155-5.29 2.872-1.266 1.685-1.794 3.723-1.585 6.114.212 2.422 1.089 4.369 2.631 5.84 1.539 1.44 3.441 2.06 5.704 1.862zm17.412-13.617c-.291-4.793.613-8.598 2.711-11.416 2.128-2.852 4.918-4.734 8.372-5.647l1.505-.421c2.537-.736 4.303-1.484 5.296-2.246 1.023-.796 1.588-1.857 1.697-3.184l5.977-.523c.077 3.077-.518 5.458-1.784 7.143-1.237 1.65-3.454 2.92-6.653 3.81l-1.649.434c-2.479.666-4.466 1.45-5.961 2.352-1.463.899-2.564 2.088-3.302 3.566-.738 1.477-1.115 3.406-1.132 5.784l1.1-.096c.094-1.486.571-2.829 1.43-4.028.888-1.234 2.007-2.215 3.356-2.944 1.382-.731 2.838-1.163 4.368-1.297 2.901-.254 5.436.086 7.606 1.021 2.201.931 3.912 2.307 5.131 4.128 1.251 1.818 1.98 3.906 2.186 6.265.207 2.359-.148 4.543-1.065 6.55-.884 2.005-2.33 3.657-4.336 4.957-1.975 1.297-4.412 2.072-7.313 2.326-5.452.477-9.639-.57-12.562-3.141-2.926-2.603-4.546-6.621-4.861-12.054zm6.741 4.903c.181 2.072 1.087 3.615 2.718 4.629 1.659.979 3.876 1.347 6.649 1.105 2.519-.221 4.54-.976 6.066-2.266 1.554-1.324 2.239-3.038 2.055-5.142s-1.155-3.658-2.913-4.66c-1.729-1.038-3.852-1.446-6.371-1.226-2.805.246-4.923 1.009-6.352 2.291-1.43 1.281-2.047 3.038-1.852 5.269zm53.918-20.136 2.372 27.113-5.69.498-1.724-19.701-13.339 21.018-6.216.544.044-.052-2.368-27.064 5.595-.49 1.723 19.701 13.291-21.015zm31.287-2.737.506 5.786-10.663.933 1.861 21.279-5.594.489-1.862-21.279-10.711.937-.506-5.786zm9.887 14.843c.518 1.882 1.513 3.337 2.984 4.364 1.501.993 3.303 1.398 5.407 1.214 3.379-.296 5.942-1.837 7.69-4.624l4.307 2.418c-1.037 2.467-2.572 4.384-4.604 5.751-2.033 1.366-4.324 2.161-6.875 2.384-2.518.22-4.9-.198-7.144-1.254-2.248-1.088-4.102-2.645-5.564-4.669-1.433-2.059-2.261-4.363-2.484-6.914-.223-2.55.193-4.947 1.25-7.192 1.088-2.247 2.646-4.086 4.673-5.516 2.024-1.462 4.295-2.303 6.814-2.524 2.677-.234 5.095.229 7.252 1.389 2.158 1.161 3.884 2.905 5.18 5.233 1.293 2.296 2.027 4.994 2.202 8.095zm6.964-10.728c-1.976.173-3.616.895-4.918 2.165-1.273 1.236-2.056 2.75-2.349 4.542l15.301-1.339c-.547-1.847-1.568-3.235-3.062-4.165-1.466-.964-3.123-1.365-4.972-1.203z" fill="#f5f2cd"/></svg>