<svg width="257" height="257" viewBox="0 0 257 257" fill="none" xmlns="http://www.w3.org/2000/svg">
<path d="M88.7413 45.6197C93.5231 37.8724 103.195 34.7029 111.635 38.1177V38.1177C117.243 40.3869 123.603 39.7984 128.699 36.5388V36.5388C136.369 31.6334 146.458 32.9744 152.58 39.7128V39.7128C156.649 44.1905 162.634 46.4198 168.64 45.6943V45.6943C177.679 44.6025 186.187 50.1883 188.779 58.9157V58.9157C190.502 64.7151 194.927 69.3205 200.653 71.2728V71.2728C209.27 74.2108 214.513 82.9351 213.061 91.9229V91.9229C212.097 97.8954 214.086 103.965 218.398 108.208V108.208C224.887 114.594 225.825 124.729 220.618 132.197V132.197C217.157 137.16 216.316 143.491 218.36 149.185V149.185C221.435 157.754 217.883 167.292 209.951 171.761V171.761C204.68 174.731 201.175 180.07 200.546 186.087V186.087C199.599 195.142 192.26 202.194 183.175 202.779V202.779C177.138 203.168 171.663 206.458 168.485 211.606V211.606C163.703 219.353 154.031 222.523 145.592 219.108V219.108C139.984 216.839 133.624 217.427 128.527 220.687V220.687C120.858 225.592 110.768 224.251 104.646 217.513V217.513C100.578 213.035 94.5926 210.806 88.5865 211.531V211.531C79.5479 212.623 71.0396 207.037 68.4474 198.31V198.31C66.7249 192.511 62.2995 187.905 56.5734 185.953V185.953C47.9562 183.015 42.714 174.291 44.1652 165.303V165.303C45.1295 159.33 43.1406 153.261 38.8287 149.017V149.017C32.3396 142.632 31.4019 132.497 36.609 125.029V125.029C40.0692 120.066 40.9107 113.735 38.8669 108.041V108.041C35.7912 99.4717 39.3436 89.9337 47.2754 85.4644V85.4644C52.5461 82.4946 56.0513 77.1554 56.6805 71.1384V71.1384C57.6273 62.0835 64.9663 55.0314 74.0517 54.4463V54.4463C80.089 54.0574 85.5637 50.7678 88.7413 45.6197V45.6197Z" fill="#B0E059"/>
<path d="M87.3786 127.691L106.435 121.446L120.815 165.328L101.758 171.572L87.3786 127.691ZM168.094 119.942C167.178 117.146 164.675 115.315 161.911 115.135C163.883 113.333 164.742 110.471 163.852 107.755C162.646 104.076 158.695 102.061 155.031 103.262L136.071 109.475C135.647 108.778 135.324 108.011 135.195 107.128C134.87 104.833 134.873 100.063 135.838 95.2986C136.546 91.8106 132.64 77.6103 128.87 76.4789C125.085 75.3528 121.133 77.5197 120.028 81.3159L120.817 96.6445L116.855 110.238C116.147 112.694 111.73 123.323 111.73 123.323L123.914 160.504L136.888 160.079L163.095 151.491C166.839 150.264 168.859 146.221 167.627 142.461C167.338 141.577 166.887 140.8 166.334 140.145C169.054 138.453 170.397 135.059 169.349 131.861C168.728 129.965 167.383 128.52 165.724 127.693C168.011 125.93 169.053 122.866 168.1 119.958L168.094 119.942Z" fill="#F7EE75"/>
</svg>
