<svg fill="none" height="1000" viewBox="0 0 1000 1000" width="1000" xmlns="http://www.w3.org/2000/svg"><path d="m783.204 443.46c-30.438-17.43-63.414-26.271-96.135-27.029 10.654-24.502 16.615-51.656 16.615-79.947 0-63.149-29.043-119.605-74.701-156.484 25.492 29.428 40.965 67.949 40.965 109.88 0 55.193-26.76 104.323-68.233 135.014-26.887-24.376-62.651-39.406-101.967-39.406s-74.067 14.525-100.828 38.395c-40.584-30.69-66.964-79.316-66.964-134.003 0-41.931 15.474-80.452 40.966-109.88-45.658 37.006-74.701 93.461-74.701 156.484 0 28.418 5.96 55.445 16.487 79.947-33.356.632-66.964 9.347-97.91 27.029-54.916 31.574-89.413 84.872-98.798 142.717 12.936-36.626 38.556-69.211 75.082-90.177 51.618-29.68 112.495-29.049 161.83-3.789-4.312 13.893-6.595 28.796-6.595 44.078 0 63.403 39.189 117.458 94.612 139.94-9.385 45.215-37.541 86.515-80.915 111.396-36.526 20.965-77.617 26.901-116.045 19.576 55.042 20.839 118.582 17.682 173.624-13.767 36.019-20.713 63.286-50.772 80.407-85.504 17.122 34.606 44.264 64.791 80.409 85.504 54.916 31.575 118.455 34.606 173.498 13.767-38.429 7.325-79.521 1.389-116.046-19.576-43.502-25.008-71.529-66.308-80.914-111.775 55.169-22.482 93.977-76.411 93.977-139.561 0-15.282-2.283-29.806-6.468-43.699 49.462-25.512 110.593-26.27 162.465 3.536 36.526 20.966 62.144 53.551 75.08 90.178-9.385-57.845-43.881-111.143-98.797-142.718zm-283.583-25.134c27.014 0 51.871 9.094 71.783 24.249-21.434 9.852-45.403 15.409-70.515 15.409-25.111 0-50.224-5.81-72.038-16.04 19.658-14.777 44.264-23.618 70.897-23.618zm-118.33 117.837c0-8.588 1.016-16.924 2.665-25.133 15.599 12.63 29.17 28.164 39.823 46.478 15.346 26.522 22.574 55.319 22.574 83.862-38.555-19.45-65.062-59.234-65.189-105.207zm138.241 57.971c-6.214 2.147-12.935 3.284-19.784 3.284-6.848 0-13.19-1.137-19.278-3.157-24.477-7.957-42.234-30.944-42.234-58.224 0-2.526.254-4.926.508-7.452 2.41-19.45 13.951-36.121 30.185-45.467 9.131-5.179 19.532-8.21 30.819-8.21 11.288 0 22.067 3.158 31.199 8.589 16.234 9.472 27.775 26.269 29.931 45.846.253 2.273.381 4.547.381 6.82 0 26.902-17.503 49.636-41.6 57.971zm33.99 46.857c0-28.29 7.355-57.087 22.574-83.483 10.527-18.061 23.845-33.469 39.191-45.973 1.648 7.957 2.536 16.166 2.662 24.502 0 45.846-26.252 85.378-64.427 104.828z" fill="#99bb5d"/></svg>