<svg fill="none" height="1000" viewBox="0 0 1000 1000" width="1000" xmlns="http://www.w3.org/2000/svg"><path d="m455.536 801.327c-32.799-1.143-38.605-8.601-40.217-17.729-1.079-6.104 1.905-11.088 3.261-11.781l31.481-.366c19.09-.261 37.759-.933 43.4-1.527 16.897-1.62 26.36-1.026 35.805-.144 14.644 1.36 19.892 5.982 19.4 11.565-2.619 14.145-17.932 15.737-49.037 18.607-15.695 1.476-28.474 1.853-44.092 1.376zm81.459 28.246c.803-6.898-1.993-11.859-18.519-14.495-5.625-.899-22.422-.222-22.422-.222-5.127.638-21.487.932-37.293.661l-25.651-.478s-3.771 6.571-1.058 14.09c2.436 6.77 8 9.839 14.76 11.858 7.065 2.098 35.527 2.326 51.6.389 19.073-2.198 37.747-4.639 38.583-11.803zm-2.929-96.462c-8.305-4.04-14.733-4.883-62.517-8.124-23.575-1.554-35.39-2.242-43.113-2.242-7.435 0-10.492.638-14.522 2.07-7.906 2.83-11.516 14.145-7.928 22.22 3.443 7.741 9.938 9.866 42.912 9.866 36.049-.122 69.61-3.069 81.747-6.648 9.118-2.702 8.221-14.784 3.421-17.142zm-127.516-45.487c.221-4.85 3.061-8.28 5.89-10.655.205-.166.454-.36.642-.499.416.327 1.075.949 1.811 1.631 2.176 1.915 5.935 4.684 8.609 6.016 12.142 6.204 30.511 5.316 49.131-2.403 9.96-4.095 10.657-4.24 18.852-3.546 13.531 1.087 29.819 4.828 33.041 6.182 9.478 3.967 15.629 23.023-1.628 26.68-5.16 1.088-13.127 1.043-32.732-.061-14.556-.749-36.718-1.765-49.148-2.148-13.88-.272-23.591-1.226-24.853-1.637-2.973-1.231-10.292-4.683-9.617-19.561zm424.223-206.2c-7.031 3.541-32.544-24.866-75.047-35.41-15.812-3.923-46.478-3.873-63.696.516-36.287 9.251-52.004 42.307-62.18 30.599-1.794-2.059-7.818-7.619-7.818-7.619-28.103-27.463-65.109-44.616-103.881-46.315v192.519c6.915-.299 14.296-.033 22.661.877 17.063 1.87 42.232 8.491 58.558 15.394 34.449 14.416 86.342 40.431 103.565 56.824 3.477 3.285 3.682 11.742 4.507 20.404 1.589 17.08-1.921 69.348-9.622 85.774-4.945 10.399-12.446 19.633-22.402 25.626-24.178 14.55-45.964 30.826-107.999 36.303-14.261 1.26-52.236 1.848-72.307-.654 16.964-1.526 33.922-5.489 43.754-10.516 8.233-4.112 11.876-11.737 12.264-16.514.803-9.939-5.016-17.042-10.176-20.788 12.833-3.89 21.254-17.319 21.254-25.571 0-10.177-5.359-17.541-16.698-22.047 5.254-2.425 7.054-5.799 8.837-10.111 1.367-3.307 2.635-10.993-.914-20.272-3.809-9.966-13.276-11.526-13.276-11.526l2.724-10.921c1.223 1.793 3.454 4.329 6.201 7.187 7.214 7.003 20.534 19.122 26.081 22.817 14.389 9.65 21.693 11.765 41.136 11.892l19.067.311v-6.515c0-6.259-2.807-6.426-16.328-7.208-20.722-1.082-33.467-6.715-50.504-22.325-8.47-7.774-19.343-20.86-22.81-27.446-2.824-5.455-9.285-14.855-14.612-16.82-5.32-1.975-35.405-6.381-43.516-6.381-5.47 0-11.167 1.382-20.999 5.122-7.192 2.658-15.629 5.177-18.757 5.615-7.176.822-16.86-1.67-21.603-5.665-.382-.328-1.135-.96-1.589-1.415.005-.006.005-.017.016-.023 2.016-3.152 29.676-28.95 53.356-40.675 5.254-2.647 10.32-4.756 15.391-6.41l-.011-195.801c-4.119.533-8.25 1.177-12.369 2.087-16.012 3.446-27.737 6.182-44.846 16.564-37.354 22.691-48.948 57.296-58.21 47.59-16.017-16.786-44.076-43.756-66.173-52.562-21.454-8.551-42.664-11.17-74.52-1.781-30.827 9.084-68.282 60.946-68.282 43.128 0-9.556 2.375-16.876 3.183-20.2 6.916-29.361 37.577-97.527 57.574-127.959 22.274-34.254 58.355-71.09 91.927-93.826 27.783-18.773 49.956-29.71 81.829-40.347 29.111-9.856 59.383-15.371 89.89-16.715l.006-25.838c0-6.842 5.531-12.397 12.368-12.397 6.832 0 12.369 5.555 12.369 12.397v25.609c38.257 1.176 76.475 8.973 112.838 23.362 70.513 27.78 121.2 70.785 158.133 136.155 34.608 61.247 47.126 139.146 41.645 141.9zm-65.801 242.595c-.737 19.484-2.935 65.542-8.128 81.024-4.191 12.342-8.897 19.627-14.4 22.275-6.517 3.152-34.87 4.622-44.147 2.636-4.158-.827-6.661-1.504-7.43-1.892-2.857-1.21 5.636-8.463 7.136-10.2 23.375-27.047 25.13-73.538 23.702-104.064-.802-18.145-3.078-32.407-11.604-38.856l-1.611-1.227c1.672-.754 4.058-1.631 5.619-2.02 4.645-1.231 29.421-.166 37.211 1.876 11.527 3.174 14.913 17.679 13.652 50.448z" fill="#f6e666"/></svg>