<svg fill="none" height="1000" viewBox="0 0 1000 1000" width="1000" xmlns="http://www.w3.org/2000/svg"><path d="m285.096 428.931-107.47 139.872c-5.68 7.362-14.033 6.804-18.487-1.339l-87.2005-156.045c-4.566-8.142-.7795-13.273 8.3526-11.488l52.0079 9.369c16.371-81.759 66.487-156.268 144.221-201.107 14.589-8.477 29.624-15.504 44.881-21.193l31.405 85.44c-10.468 4.015-20.826 8.812-30.849 14.612-50.894 29.446-84.749 77.074-98.225 129.944l54.792-.892c9.243-.223 12.251 5.577 6.572 12.939zm350.026 207.131-174.623-23.312c-9.244-1.227-12.808 4.238-7.908 12.158l28.176 47.07c-52.454 14.835-110.587 9.258-161.482-20.189-10.023-5.8-19.378-12.381-28.065-19.52l-58.245 69.936c12.585 10.374 26.172 19.855 40.761 28.332 77.734 45.062 167.162 51.197 246.01 24.65l17.93 49.747c3.007 8.812 9.355 9.481 14.144 1.45l91.432-153.591c4.788-7.919 1.114-15.504-8.13-16.731zm-10.023-390.169 34.079-40.377c6.125-7.027 3.452-12.827-5.792-12.939l-178.522-2.342c-9.243-.112-13.92 6.804-10.467 15.392l67.266 163.072c3.564 8.589 10.022 8.924 14.477.781l26.617-47.962c39.09 38.035 63.368 91.24 63.368 150.133 0 11.6-1.002 22.978-2.784 34.132l89.539 15.392c2.672-16.173 4.12-32.681 4.12-49.524 0-89.901-39.424-170.545-101.901-225.646z" fill="#a4e3eb"/></svg>