<svg fill="none" height="1000" viewBox="0 0 1000 1000" width="1000" xmlns="http://www.w3.org/2000/svg"><path d="m309.133 749.811c24.957 3.079 27.28-33.352 28.395-66.164 19.067 26.485 41.828 54.319 61.712 38.882 19.326-15.136-2.815-41.142-24.529-64.677 32.828 5.336 69.182 8.69 72.141-15.484 3.209-25.387-34.8-28.304-68.299-29.86 9.872-7.096 20.012-14.696 28.306-22.384 8.184 20.625 43.266 26.641 78.159 29.789-34.002 24.179-66.795 52.121-46.835 77.587 20.517 26.337 57.972-1.135 91.013-29.118-7.017 43.448-11.497 91.294 22.149 95.471 34 4.167 37.085-45.27 38.605-89.908 25.905 36.045 56.931 73.752 83.752 52.795 26.198-20.443-3.736-55.947-33.353-87.841 44.629 7.374 94 11.845 98.058-21.016 4.296-34.43-47.224-38.378-92.731-40.512 37.582-26.73 78.01-59.394 57.16-86.183-20.517-26.337-57.611 3.819-90.461 33.499 7.694-43.361 12.278-90.001-19.907-93.972-32.292-4.003-40.954 40.237-45.231 82.755-7.32-10.291-14.888-20.54-22.597-29.543 7.313 1.387 14.544-.063 21.449-5.476 26.197-20.443-3.737-55.947-33.354-87.841 44.629 7.374 93.999 11.845 98.089-21.124 4.297-34.43-47.255-38.269-92.837-40.542 37.614-26.837 78.041-59.504 57.191-86.293-20.517-26.337-57.611 3.821-90.461 33.501 7.694-43.361 12.279-90.003-19.907-93.974-32.292-4.003-40.954 40.237-45.231 82.755-25.154-35.818-54.594-71.407-80.06-51.446-26.37 20.624 1.002 59.572 28.973 93.429-42.072-7.306-86.792-11.661-90.957 21.168-3.841 31.756 38.177 39.631 79.686 43.369-34.001 24.179-66.762 52.012-46.834 77.586 20.517 26.337 57.972-1.134 91.012-29.117-7.017 43.448-11.496 91.293 22.15 95.47 18.868 2.296 28.214-11.987 33.113-32.881-.71 20.987 19.194 48.194 39.52 72.834-26.953-4.618-54.863-8.003-72.693-1.318-.653-1.72-1.553-3.396-2.839-4.956-15.104-19.433-42.422 2.781-66.592 24.655 5.679-32.021 9.095-66.248-14.724-69.218-23.712-2.937-30.122 29.566-33.264 60.947-18.531-26.324-40.144-52.523-58.846-37.901-19.465 15.212.693 43.901 21.31 68.746-30.98-5.248-63.962-8.522-66.921 15.651-2.873 23.498 28.086 29.208 58.673 31.876-25.034 17.749-49.168 38.344-34.472 57.185 15.029 19.294 42.654-.835 66.929-21.506-5.184 31.936-8.461 67.259 16.282 70.273zm172.485-393.889s-.226-.419-.44-.484c.172-.183.452-.333.624-.515-.097.322-.195.645-.292.967zm-66.606-41.297s-.065.215-.098.322c-.214-.064-.322-.097-.462-.022.065-.215.313-.257.56-.3zm-6.895 61.29s.322.097.537.162c-.033.107-.065.215-.097.322-.215-.065-.291-.205-.473-.377zm-9.52-32.508c2.85-23.035 23.703-39.35 46.663-36.64 10.578 1.435 20.559 6.789 27.667 15.844 14.289 18.25 10.972 44.776-7.246 58.958-9.055 7.107-20.188 9.84-30.723 8.652-22.895-2.925-39.072-23.853-36.254-46.781zm63.599 82.324c7.653 10.742 15.874 21.539 24.27 30.983-6.626-.945-13.041.517-19.214 5.448-4.409 3.355-7.132 7.336-8.815 11.748 2.451-14.723 3.239-31.703 3.759-48.179zm74.072 198.635s-.097.321-.13.428c-.214-.065-.289-.203-.439-.483.215.065.322.097.536.162zm72.933-20.048s-.258-.311-.441-.483c.172-.183.452-.333.625-.515-.098.322-.195.643-.292.965zm-66.607-41.296-.097.322c-.215-.064-.322-.097-.462-.022.065-.215.312-.258.592-.408zm30.249-7.859c10.578 1.434 20.558 6.788 27.633 15.951 14.289 18.25 10.972 44.776-7.246 58.959-9.162 7.075-20.187 9.838-30.722 8.651-22.896-2.925-39.179-23.884-36.254-46.78 2.851-23.035 23.704-39.352 46.664-36.641zm-221.175 77.346-.257-.312s.312-.257.452-.332c-.065.215-.13.429-.195.644zm-49.05-30.377s-.064.213-.097.321c-.107-.033-.215-.065-.322-.097.032-.108.312-.257.451-.332zm-5.087 45.201s.214.065.321.097l-.065.215c-.107-.032-.321-.097-.396-.237zm-6.934-23.996c2.067-16.946 17.403-28.953 34.382-26.993 7.731 1.161 15.116 5.029 20.347 11.761 10.462 13.464 8.079 33.011-5.352 43.366-6.733 5.231-14.835 7.237-22.631 6.291-16.914-2.175-28.781-17.586-26.746-34.425z" fill="#99bb5d"/></svg>