<svg fill="none" height="1000" viewBox="0 0 1000 1000" width="1000" xmlns="http://www.w3.org/2000/svg"><path d="m808.774 675.369c-10.026 36.458-52.153 64.909-121.504 76.944-68.132 11.824-157.369 6.591-251.233-19.221-93.863-25.812-173.229-66.943-225.735-111.942-53.446-45.804-75.101-91.795-65.076-128.253 10.026-36.458 52.153-64.909 121.504-76.945 68.132-11.824 157.369-6.59 251.233 19.222s173.229 66.943 225.735 111.942c53.446 45.804 75.101 91.794 65.076 128.253z" stroke="#e39cc6" stroke-width="28.6741"/><g fill="#e39cc6"><path d="m0 0h28.6741v145.45h-28.6741z" transform="matrix(.958201 -.286095 .286086 .958204 276.91 230.303)"/><path d="m554.777 247.236h28.6741v145.45h-28.6741z" transform="matrix(.96420702 .26515057 -.26515057 .96420702 85.41189 -138.250125)"/><path d="m0 0h28.6741v145.45h-28.6741z" transform="matrix(.677182 .735816 -.73581 .677188 806.021 360.941)"/><path clip-rule="evenodd" d="m451.261 687.499c56.707 15.594 115.319-17.735 130.914-74.443 3.139-11.416 4.296-22.91 3.678-34.114-10.223 10.131-25.432 14.666-40.305 10.576-22.13-6.086-35.136-28.959-29.05-51.089 4.768-17.338 19.84-29.076 36.786-30.42-12.378-11.912-27.822-20.992-45.551-25.867-56.707-15.594-115.319 17.735-130.913 74.443-15.595 56.708 17.734 115.32 74.441 130.914z" fill-rule="evenodd"/></g></svg>