<svg fill="none" height="1000" viewBox="0 0 1000 1000" width="1000" xmlns="http://www.w3.org/2000/svg"><path d="m743.358 769.038 9.169-26.005-132.726-46.948-29.772-62.255 78.699 27.825 7.268-20.4-99.17-34.991-14.032-29.638c6.538-5.573 12.706-11.701 17.829-19.149 5.824-8.468 9.632-17.721 12.548-26.987l42.371 3.291 60.523 71.081 16.482-13.913-46.54-54.701 68.857 5.426 83.796 98.208 20.934-17.764-65.963-77.376 110.884 8.781 3.624-46.35-119.289-9.453 86.21-73.562-17.764-20.934-107.042 91.396-68.856-5.425 63.331-54.281-13.983-16.379-79.883 68.295-34.413-2.627c-3.179-17.666-11.352-34.409-23.792-48.224l24.77-36.016 91.781-16.98-3.849-21.282-70.6 13.061 39.084-56.829 90.987-21.479-5.002-27.035-63.882 16.376 63.012-91.621-38.362-26.384-67.713 98.457-20.714-111.482-27.035 5.002 25.715 138.516-39.084 56.829-15.267-82.035-21.352 3.95 19.217 103.388-19.998 29.078c-17.422-6.572-35.91-8.316-53.544-4.964l-18.469-38.702 31.258-88.06-20.4-7.268-23.991 67.661-29.702-62.358 43.113-121.686-25.935-9.272-33.913 95.854-47.871-100.402-41.986 19.967 51.403 107.941-106.752-37.951-9.169 26.006 132.758 47.119 29.67 62.186-78.699-27.826-7.268 20.4 99.1 35.093 14.669 30.678c-7.781 6.07-14.957 13.008-20.781 21.476-5.123 7.448-8.638 15.4-11.503 23.499l-41.032-3.272-60.624-71.151-16.482 13.913 46.642 54.771-68.959-5.496-83.796-98.208-20.831 17.834 65.961 77.376-110.953-8.679-3.695 46.452 119.188 9.383-86.21 73.562 17.865 21.004 107.112-91.499 68.755 5.356-63.433 54.211 14.015 16.552 79.883-68.296 31.701 2.416c2.714 18.999 10.867 37.08 24.219 51.974l-22.314 32.445-91.952 17.012 3.848 21.282 70.875-13.023-39.225 57.033-127.011 23.409 4.9 26.965 100.046-18.51-63.012 91.621 38.363 26.384 67.643-98.355 20.612 111.412 27.035-5.002-25.614-138.446 39.084-56.83 15.267 82.036 21.352-3.95-19.217-103.389 17.612-25.608c18.481 6.999 38.385 8.214 56.995 3.881l17.335 36.418-31.259 88.061 20.299 7.197 24.061-67.763 29.733 62.53-43.043 121.585 25.732 9.13 34.014-95.783 47.871 100.402 42.057-20.069-51.403-107.941 106.822 37.849z" fill="#a4e3eb"/></svg>