<svg fill="none" height="1000" viewBox="0 0 1000 1000" width="1000" xmlns="http://www.w3.org/2000/svg"><path d="m397.035 199.776-19.662 101.02 97.315-33.48zm-69.349 143.626-128.366 8.975 71.904 106.716zm-60.271 180.969-67.539 77.653 101.019 19.661-33.519-97.427zm84.948 275.406 106.717-71.903-115.692-56.464zm249.685-.444 19.663-101.019-97.427 33.519 77.653 67.539zm69.35-143.625 128.366-8.974-71.903-106.717zm60.271-180.968 67.539-77.653-101.058-19.775zm-84.948-275.407-106.717 71.903 115.691 56.463-8.861-128.405zm-307.647 355.429c30.464 88.55 127.013 135.764 215.675 105.261s135.764-127.013 105.261-215.675-127.013-135.764-215.675-105.261-135.764 127.014-105.261 215.675z" fill="#e39cc6"/></svg>