<svg fill="none" height="1000" viewBox="0 0 1000 1000" width="1000" xmlns="http://www.w3.org/2000/svg"><path d="m633.244 369.922s-82.869-134.024 46.446-186.922c0 0 96.124 97.573-46.446 186.922zm-55.022 80.681s36.534-198.591-119.402-206.925c0 0-64.713 159.027 119.402 206.925zm-96.236 43.23s-96.569-26.005-114.502 65.789c0 0 88.438 32.561 114.502-65.789zm-4.343 193.7s117.287-38.118 42.661-131.579c0 0-116.73 32.34-42.661 131.579zm214.969-64.455s38.092 112.464 129.314 29.783c0 0-36.532-125.689-129.314-29.783zm72.954-59.567s125.975 73.346 177.434-75.791c0 0-129.317-61.566-177.434 75.791zm-102.137-43.229s184.561-31.45 123.301-216.705c0 0-175.206 26.449-123.301 216.705zm253.172-194.479s-129.091 12.002-104.81 130.912c0 0 117.953 18.226 104.81-130.912zm-451.211 137.691s6.683-90.127-114.39-93.461c0 0 9.913 107.463 114.39 93.461zm291.267 85.237-105.702 34.006-19.269-212.704-24.841 158.805s-69.613-44.674-119.401-51.342l94.563 86.015-13.477 253.489h103.364l-13.031-188.922 97.906-79.458z" fill="#a4e3eb"/></svg>