<svg fill="none" height="1000" viewBox="0 0 1000 1000" width="1000" xmlns="http://www.w3.org/2000/svg"><path d="m330.307 528.615c63.966-61.645 111.262-110.824 126.524-131.563 5.348-7.193 8.527-10.642 10.659-11.503 1.244-.514 2.154-.232 4.589 1.42 13.303 9.183 16.646 25.529 10.85 48.801-14.325 57.583-53.344 125.692-108.801 185.138-11.685 12.523-16.564 16.649-16.743 21.885-.092 2.671.998 5.191 3.209 7.49 1.543 1.661 3.491 2.563 5.65 2.633 5.521.18 12.659-4.228 30-21.557 60.75-60.68 98.106-146.878 110.173-197.912 16.478-69.68 18.87-147.275 2.804-238.365-8.498-47.925-9.417-59.501-5.494-68.87 3.523-8.426 5.23-8.944 9.631-9.107 10.99.075 65.822 110.91 81.286 178.992 14.891 66.696 18.427 142.542 9.457 202.876-11.415 78.988-49.41 175.397-99.139 231.869-123.587 140.372-251.275 141.66-288.634 149.72-9.095 1.963-23.083 5.466-26.696 1.412-1.779-2.082-56.08-101.196 13.896-215.321 26.165-42.668 59.464-73.306 126.785-138.048zm157.702-331.241c10.858 60.575 13.498 120.072 7.645 172.088-.343 3.432-.698 6.733-1.028 9.457-10.402-13.123-23.334-17.691-35.98-12.51-.728.303-1.38.544-1.983.766.378-4.047 1.073-10.066 1.992-16.607l.001-.036c3.406-28.784 3.649-51.318 1.108-109.631-2.642-66.657-2.656-72.126-.345-83.588 2.246-11.146 7.484-16.439 9.314-17.538 4.148-2.456 7.524-1.921 8.853-.83 1.234 1.024 1.918 1.579 3.105 12.666.891 7.911 4.351 29.015 7.318 45.765zm-57.122 188.485-.445 2.285c-2.376 12.057-2.376 12.057-28.784 39.155l-4.542 4.685c-.895.884-1.744 1.732-2.555 2.508 1.512-5.912 3.331-12.749 4.295-16.407 10.31-39.453 15.32-83.686 19.899-175.285 1.283-26.825 3.902-39.32 9.964-47.733 2.087-2.852 4.934-5.093 7.106-6.258.964 11.091 2.865 50.207 3.64 82.41 1.278 44.691-1.2 77.895-8.578 114.64z" fill="#e39cc6"/></svg>