<svg fill="none" height="1000" viewBox="0 0 1000 1000" width="1000" xmlns="http://www.w3.org/2000/svg"><path d="m665.491 804.31c-20.684 38.411-68.451 52.786-106.792 32.14-38.34-20.646-52.629-68.439-31.945-106.85 4.372-8.118 10.067-15.14 16.581-21.082l-25.552-84.635c-15.92 4.708-31.82 3.936-46.386-.971l-16.729 25.854c14.169 16.059 17.702 39.799 6.934 59.796-9.063 16.829-25.945 26.638-43.657 27.572-23.591 2.621-46.498-11.886-53.605-35.379-2.131-7.405-2.452-14.857-1.428-21.968.614-6.82 2.636-13.649 6.101-20.084 12.954-24.056 41.897-34.011 66.542-23.677l14.831-23.045c-12.714-9.528-22.894-23.056-27.649-39.791-.85-1.735-1.045-3.5-1.439-5.373l-113.953 10.406c-1.09 2.733-2.277 5.414-3.663 7.988-20.685 38.41-68.452 52.786-106.792 32.14-38.34-20.647-52.629-68.44-31.945-106.851 20.684-38.41 68.451-52.786 106.792-32.139 19.565 10.536 32.826 28.276 38.438 48.155l112.179 3.07c5.636-19.697 19.041-37.252 38.288-47.193l-9.086-21.239c-10.115.555-20.5-1.461-30.085-6.623-27.668-14.899-37.998-49.45-23.072-77.169 14.927-27.719 49.46-38.112 77.128-23.212 27.668 14.899 37.996 49.449 23.07 77.168-5.758 10.692-14.394 18.683-24.398 23.768l8.433 19.61c15.355-2.714 30.366-.76 43.646 5.114l45.06-64.744c-20.161-25.287-24.521-61.221-8.208-91.514 21.804-40.489 72.311-55.688 112.726-33.924 40.415 21.763 55.522 72.296 33.719 112.785-20.631 38.312-66.78 53.943-105.944 37.194l-50.579 59.602c7.188 7.957 12.807 17.879 16.38 28.998 1.547 5.175 2.234 10.525 2.777 15.67l44.973 1.232c.785-2.642 1.874-5.376 3.206-7.851 10.822-20.096 35.772-27.604 55.832-16.802 20.059 10.802 27.521 35.764 16.7 55.86-10.822 20.096-35.77 27.605-55.829 16.803-10.079-5.428-17.031-14.535-19.928-24.778l-46.477-1.276c-3.631 15.029-11.278 28.279-22.305 38.815l41 82.227c14.86-1.32 30.141 1.545 44.173 9.101 38.34 20.647 52.629 68.44 31.945 106.851z" fill="#99bb5d"/></svg>