<svg fill="none" height="1000" viewBox="0 0 1000 1000" width="1000" xmlns="http://www.w3.org/2000/svg"><path d="m872.934 688.258c-5.172-25.161-17.542-57.944-33.946-89.944l-.923-1.807c-8.998-17.546-8.998-17.546-22.721-38.628l-1.581-2.434c-15.383-23.39-16.626-27.631-13.313-45.316 5.305-27.612 4.93-43.586-1.479-63.306-5.944-18.203-13.342-30.615-27.295-45.822-10.868-11.731-45.828-35.681-54.445-32.331-4.393 1.753-4.206 5.284-3.567 17.033 1.014 14.858 4.943 31.596 11.678 49.757 9.124 24.179 20.814 43.7 36.805 61.438 6.439 7.092 11.074 12.876 14.333 17.353-20.688-18.408-64.481-49.008-91.168-63.566-9.716-5.266-10.229-5.724-13.686-12.177-3.808-6.911-5.112-12.267-9.958-40.923-3.373-20.352-14.151-44.64-27.47-61.89-7.308-9.442-21.128-22.805-31.471-30.416-16.946-12.309-45.749-23.564-70.008-27.366-15.419-2.555-44.887-2.549-58.356.006-21.984 3.802-25.557 7.875-26.124 11.653-.833 4.621 3.036 7.356 11.852 13.105 6.011 3.958 15.462 11.532 21.068 16.894 15.648 14.9 40.982 37.964 48.399 44.068 10.313 8.519 19.371 13.803 50.994 29.783 28.267 14.219 47.185 25.679 60.257 36.561-20.584-8.604-63.908-22.053-84.644-26.45-30.644-6.495-54.771-8.912-89.705-8.014-21.725.561-49.788 1.513-86.569 7.851-22.932 3.958-55.055 12.008-71.705 17.311-.078.024-14.64 4.886-18.121 3.705-1.437-.56-4.484-2.356-3.844-7.694.7-5.441 4.586-6.7 13.97-9.743 25.719-8.393 80.088-21.353 128.353-25.74-15.099-11.773-37.555-20.817-59.9-23.354-18.177-2.218-51.555-1.91-67.361.632-25.316 3.923-52.435 12.37-72.562 22.594-36.371 18.414-80.823 64.229-101.222 104.321-2.353 4.814-4.749 11.2-2.758 14.382.761 1.211 2.022 1.946 3.157 1.946h.036c.597.078 6.747 1.241 15.443 3.055 63.829 13.291 120.749 11.52 184.507-5.772 34.959-9.388 67.396-26.848 88.983-47.877 12.335-11.935 26.342-30.475 29.395-38.905l.525-1.494 35.611.578c30.451.482 40.126 1.079 51.742 3.17 34.162 6.296 81.264 20.396 105.663 31.595-15.956 1.356-38.344 7.074-60.897 13.226-9.601 2.614-32.696 9.935-47.692 15.774-20.385 7.935-48.067 20.413-64.101 28.807-14.423 4.874-17.694-8.387-6.18-14.28 28.593-14.78 81.645-37.628 127.243-48.948-29.704-6.356-71.952-3.886-81.434-2.036-51.56 10.375-103.996 39.115-137.597 89.238-9.276 13.852-12.734 27.432-11.816 29.74 1.297 3.248 12.793 9.779 34.592 14.177 18.314 3.688 62.556 8.195 83.14 4.598 39.546-6.833 68.071-15.045 96.936-46.9 16.746-18.642 24.507-28.566 37.79-48.25 7.742-11.321 12.268-16.521 12.805-16.991 4.967-1.868 26.457-3.724 37.711-3.266 14.23.699 18.63 2.79 52.315 24.806 25.34 16.654 33.354 22.637 53.606 40.037l5.902 5.007s-40.119 5.652-57.269 10.665c-8.195 2.404-28.055 8.447-40.921 13.605-7.628 3.054-16.456 6.929-25.123 10.941-12.311 3.248-13.403-10.562-5.051-14.526 30.029-13.665 68.657-28.054 99.218-32.037.199-.024.362-.042.555-.066-27.694-8.665-68.102-11.002-95.379-1.886-55.411 18.528-81.288 59.602-89.471 71.531-9.076 13.225-19.172 32.789-19.172 37.211 0 7.514 50.082 21.01 101.257 14.178 33.124-4.423 62.194-20.722 81.589-37.712 30.065-26.335 43.921-56.16 43.921-56.16h5.088c15.937 0 20.555 3.38 35.333 25.8 27.175 41.122 54.856 110.719 54.856 137.888 0 5.422 1.63 9.664 4.472 11.628 1.062.735 2.281 1.121 3.536 1.121.737 0 1.473-.139 2.197-.404 3.524-1.343 6.868-6.447 1.177-34.338zm-634.582-242.628c-6.922 2.784-19.087 7.454-22.667 7.454l-1.273-.199c-2.673-1.019-4.273-3.959-4.092-7.49.175-3.506 2.04-6.242 4.768-6.989 1.177-.313 10.06-4.043 15.937-6.513l1.316-.554c15.34-6.688 21.466-8.032 25.123-5.622 1.261.832 2.77 2.495 2.77 5.736 0 5.435-2.915 6.604-21.882 14.177z" fill="#f6e666"/></svg>