<svg fill="none" height="1000" viewBox="0 0 1000 1000" width="1000" xmlns="http://www.w3.org/2000/svg"><g clip-rule="evenodd" fill="#a4e3eb" fill-rule="evenodd"><path d="m511.166 632.896c-5.356-16.122 3.504-33.367 19.478-38.592 16.002-5.235 33.29 3.437 38.552 19.523 5.244 16.03-3.503 33.28-19.533 38.523-16.003 5.235-33.223-3.474-38.497-19.454z"/><path d="m327.869 288.081c-9.724 3.181-17.812 10.116-22.45 19.262l-75.29 148.492c-4.638 9.147-5.453 19.769-2.272 29.493l60.657 185.433c3.181 9.725 10.115 17.813 19.262 22.45l148.491 75.291c9.147 4.638 19.77 5.452 29.494 2.271l200.637-65.629 82.526-162.808.001-.002c4.638-9.147 5.452-19.769 2.271-29.494l-60.646-185.403c-3.18-9.722-10.108-17.8-19.265-22.427l-148.518-75.305c-9.147-4.637-19.77-5.452-29.494-2.271zm-63.215-1.407c10.113-19.947 27.747-35.08 49.005-42.034l185.404-60.647c21.259-6.954 44.427-5.167 64.373 4.947l148.465 75.277c.004.002.008.004.013.007 19.988 10.105 35.124 27.745 42.077 49.003l60.647 185.403c6.953 21.258 5.166 44.426-4.946 64.371 0 .001-.001.002-.001.003l-86.806 171.249c-2.741 5.407-7.517 9.504-13.279 11.389l-209.635 68.573c-21.259 6.953-44.427 5.166-64.373-4.947l-148.492-75.291c-19.946-10.114-35.08-27.747-42.034-49.006l-60.656-185.433c-6.954-21.258-5.167-44.427 4.947-64.373z"/><path d="m449.405 345.842c11.996-3.924 24.902 2.62 28.826 14.616l47.806 146.148c3.924 11.996-2.62 24.901-14.616 28.825s-24.901-2.619-28.825-14.615l-47.806-146.148c-3.924-11.996 2.619-24.902 14.615-28.826z"/></g></svg>