<svg fill="none" height="174" viewBox="0 0 290 174" width="290" xmlns="http://www.w3.org/2000/svg" xmlns:xlink="http://www.w3.org/1999/xlink"><clipPath id="a"><path d="m0 0h290v174h-290z"/></clipPath><clipPath id="b"><path d="m0 0h290v174h-290z"/></clipPath><clipPath id="c"><path d="m201.456 100.822h34.1176v55.2897h-34.1176z"/></clipPath><g clip-path="url(#a)"><g clip-path="url(#b)" fill="#9440ba"><path d="m241.595 116.385c-2.112.635-3.88 1.177-5.658 1.696-1.718.501-3.42 1.137-5.175 1.426-2.088.341-3.075 2.069-4.657 3.026l.131.342c3.259-.732 6.518-1.465 9.777-2.196.057.117.117.235.175.353-.562.357-1.077.872-1.689 1.042-2.495.704-5.02 1.304-7.534 1.94-.11.028-.228.093-.334.076-2.518-.362-4.277 1.225-6.186 2.423-4.331 2.717-9.009 4.713-13.703 6.676-2.491 1.043-4.975 2.122-7.53 2.978-5.973 2-12.017 3.631-18.321 4.411-11.01 1.363-22.036 2.012-33.11 1.601-5.119-.189-10.232-.692-15.335-1.195-4.142-.408-8.278-.95-12.395-1.578-3.13-.477-6.232-1.156-9.339-1.785-3.738-.759-7.477-1.521-11.1964-2.36-2.339-.529-4.6321-1.262-6.9711-1.8-3.5694-.821-7.1642-1.538-10.7405-2.325-1.9734-.436-3.9214-.999-5.9039-1.377-4.425-.84-8.8546-1.668-13.3027-2.367-4.0363-.637-8.0887-1.294-12.1573-1.562-2.4402-.162-4.931.394-7.3965.648-3.1854.328-6.3684.678-9.6527 1.029v-1.991c-.6225-.095-1.038.508-1.2465 1.811-1.8147-.124-3.6983-.062-5.4945-.427-2.4563-.496-4.8988-1.169-7.2516-2.034-2.6357-.969-4.9241-3.862-4.5538-7.053.108-.929.5174-1.907 1.0418-2.692 2.2608-3.366 5.2737-5.984 8.6247-8.192 4.3744-2.886 8.8362-5.638 13.2267-8.4985 4.2986-2.8006 8.5373-5.6912 12.8335-8.4941 4.1974-2.7383 8.3349-5.5897 12.6794-8.0788 5.0276-2.8791 10.2369-5.4375 15.3887-8.0904 3.7374-1.924 7.4402-3.938 11.2833-5.622 3.5465-1.5526 7.2448-2.766 10.9084-4.0371 3.165-1.0981 6.373-2.0717 9.565-3.0867 3.827-1.2158 7.68-2.2746 11.721-2.5422 3.263-.2169 6.52-.5698 9.853-.8674-.562-.6252-1.153-1.285-1.746-1.9448.078-.1499.156-.2999.232-.4498 2.335 2.1569 4.977 3.029 8.301 2.1708-1.125-.8997-2.139-1.7118-3.151-2.5238.131-.1522.262-.3068.395-.4591 1.077.6252 2.268 1.1143 3.206 1.9056 1.601 1.3495 3.425 1.5156 5.727 1.4948-.596-.662-.996-1.1557-1.451-1.5963-.465-.4499-.984-.849-1.479-1.2689.071-.1222.14-.2422.212-.3645.549.2377 1.136.4176 1.644.7267.874.5352 1.755 1.0843 2.535 1.7464 1.635 1.3887 3.551 1.075 5.409 1.1742.06-.12.12-.2376.177-.3576-1.474-.9204-2.974-1.7994-4.416-2.7683-1.722-1.1558-3.707-.7705-5.556-.9343-5.442-.4798-10.847.2953-16.258.7867-5.424.4936-10.729 1.6056-15.976 2.9713-2.824.7359-5.552 1.8663-8.293 2.8952-4.632 1.7371-9.31 3.375-13.8432 5.3474-4.5492 1.9794-8.9535 4.2978-13.4038 6.5033-2.7576 1.368-5.5428 2.6945-8.2107 4.2263-4.2456 2.4384-8.4177 5.0106-12.5943 7.569-3.1095 1.9032-6.1936 3.8549-9.264 5.8204-3.1026 1.9862-6.2144 3.961-9.2503 6.0487-3.597 2.4731-7.1435 5.0178-10.6577 7.6058-2.8381 2.09-5.6555 4.217-8.3602 6.473-1.4167 1.182-2.2746 2.817-2.5069 4.734-.0414.342-.5244.628-.8027.939-.207-.351-.5726-.69-.5933-1.052-.1265-2.164 1.1752-3.719 2.4195-5.255 2.4931-3.075 5.6416-5.359 8.9259-7.523 3.8018-2.5075 7.4425-5.2597 11.2052-7.8296 4.0754-2.7822 8.2198-5.4628 12.3137-8.215 1.7617-1.1834 3.3946-2.5814 5.2277-3.6265 6.1315-3.4973 12.3298-6.8746 18.4958-10.3119 2.9186-1.6264 5.7406-3.4466 8.7466-4.8815 3.6016-1.7186 7.3344-3.172 11.0464-4.6438 3.3947-1.3473 6.8423-2.5584 10.2623-3.8434 4.282-1.6102 8.588-3.1235 13.125-3.8941 3.082-.5236 6.121-1.308 9.205-1.8178 2.523-.4176 5.076-.7221 7.626-.8674 4.204-.2376 8.429-.5675 12.624-.3876 6.185.2653 12.346.9159 18.416 2.3092 4.273.9805 8.664 1.4788 12.895 2.593 5.518 1.4534 10.966 3.1974 16.383 5.0084 6.136 2.0508 12.03 4.6946 17.845 7.5529 3.914 1.9239 7.575 4.1824 11.133 6.667 3.204 2.2354 6.603 4.2147 9.651 6.6416 4.919 3.9172 8.845 8.7756 12.13 14.1438 1.506 2.4638 3.015 4.9277 4.434 7.4397.687 1.218 1.101 2.591 1.782 3.813.504.907 1.373 1.449 2.756 1.613-.796-1.998-1.466-3.804-2.229-5.569-2.45-5.6565-5.731-10.8217-9.595-15.5878-5.249-6.4755-11.596-11.7261-18.6-16.1946-2.978-1.9009-5.989-3.7534-8.967-5.6543-.517-.3299-.954-.7913-1.428-1.1927.064-.1338.131-.2676.195-.4014.541.1476 1.129.203 1.615.4591 9.945 5.2621 19.176 11.5231 26.676 20.0241 2.48 2.8098 4.55 5.9842 6.767 9.0224 3.59 4.9184 6.097 10.4022 8.249 16.0682.152.396.417.842.757 1.056 1.001.625 1.228 1.414.598 2.367-1.136 1.714-.099 3.465-.113 5.228 1.054-1.749 2.107-3.5 3.25-5.394.994 1.822.529 3.795.883 5.77.959-1.574 1.845-3.025 2.73-4.476.127.051.251.102.378.155-.302 1.026-.541 2.078-.918 3.077-.524 1.389-1.185 2.727-1.716 4.113-.195.513-.207 1.101-.269 1.659-.092.812-.154 1.626-.23 2.441-.106.007-.212.016-.32.023-.158-.418-.319-.838-.464-1.216-1.98 2.828-3.83 5.673-5.883 8.36-4.004 5.242-8.659 9.899-13.963 13.78-4.133 3.024-8.57 5.661-13.013 8.222-1.877 1.082-4.119 1.531-6.201 2.251-1.545.535-3.077 1.135-4.657 1.543-5.386 1.387-10.759 2.856-16.2 3.996-4.294.9-8.662 1.58-13.032 1.959-6.633.574-13.286.969-19.963.604-6.612-.362-13.227-.704-19.765-1.818-6.737-1.146-13.489-2.238-20.184-3.606-5.331-1.091-10.594-2.535-15.872-3.875-3.47-.881-6.907-1.901-10.3748-2.787-3.1049-.794-6.2397-1.458-9.3468-2.245-1.518-.383-3.0681-.761-4.2227-2.078 2.0309.397 4.0778.724 6.0879 1.209 3.8914.936 7.753 1.993 11.6424 2.943 5.662 1.385 11.318 2.815 17.014 4.051 6.866 1.491 13.735 2.995 20.661 4.144 11.563 1.919 23.21 3.185 34.96 2.775 6.231-.217 12.436-.791 18.602-1.862 7.088-1.229 13.988-3.073 20.738-5.539 2.611-.955 5.375-1.559 7.871-2.745 5.073-2.413 10.089-4.978 14.452-8.623 1.371-1.145 2.827-2.183 4.246-3.269 1.663-1.274 1.996-2.353 1.412-4.529-1.688 1.451-3.402 2.886-5.06 4.383-.269.243-.313.748-.434 1.142-.118.379-.201.766-.506 1.117-.037-.438-.074-.879-.129-1.546-.716.436-1.336.801-1.941 1.186-4.975 3.172-9.883 6.515-15.453 8.536-5.401 1.961-10.881 3.758-16.433 5.22-4.414 1.163-8.991 1.693-13.489 2.538-7.59 1.421-15.249 1.354-22.896.9-5.685-.337-11.371-.884-17.021-1.604-6.21-.789-12.402-1.767-18.561-2.893-3.433-.627-6.771-1.769-10.172-2.588-3.225-.777-6.481-1.426-9.72-2.152-1-.224-1.984-.529-2.98-.782-5.396-1.375-10.8167-2.651-16.1778-4.146-4.7286-1.32-9.3952-2.863-14.0778-4.346-1.6927-.535-3.3509-1.184-5.0253-1.781.0276-.106.0529-.212.0805-.319.6647.125 1.3455.192 1.9895.383 4.3813 1.301 8.7442 2.672 13.137 3.929 2.8197.807 5.6877 1.451 8.5281 2.187 2.3988.621 4.7768 1.336 7.1918 1.889 3.569.819 7.173 1.498 10.747 2.303 2.381.535 4.718 1.269 7.105 1.771 5.115 1.078 10.239 2.116 15.377 3.071 3.942.734 7.905 1.386 11.874 1.942 4.014.563 8.041 1.156 12.082 1.385 5.651.32 11.332.569 16.98.371 4.761-.166 9.508-.927 14.239-1.583 7.583-1.052 14.972-2.999 22.109-5.714 4.958-1.887 9.708-4.325 14.549-6.519.104-.046.193-.127.297-.176 3.535-1.635 2.87-.701 2.87-5.192-1.46 1.721-3.896 1.926-4.542 4.431-.173-.337-.288-.563-.414-.812-1.762.812-3.54 1.58-5.269 2.441-3.894 1.94-7.907 3.525-12.121 4.641-3.567.946-7.028 2.34-10.628 3.119-4.62 1.004-9.31 1.761-14.004 2.307-3.983.464-8.029.745-12.031.623-5.729-.173-11.472-.567-17.159-1.273-6.516-.808-12.988-1.982-19.453-3.145-5.184-.932-10.338-2.044-15.485-3.165-2.194-.477-4.333-1.218-6.514-1.767-2.325-.583-4.698-.994-7.005-1.64-1.842-.514-3.618-1.271-5.421-1.919.021-.171.041-.34.062-.51.543 0 1.116-.116 1.624.018 3.648.958 7.256 2.081 10.927 2.935 5.681 1.319 11.396 2.489 17.104 3.681 2.914.61 5.84 1.182 8.774 1.68 4.257.72 8.528 1.368 12.795 2.025 8.346 1.288 16.738 1.971 25.174 1.362 4.304-.31 8.577-1.02 12.866-1.528 6.41-.759 12.479-2.851 18.556-4.863 3.822-1.264 7.585-2.729 11.304-4.274 1.92-.799 3.694-1.952 5.52-2.969.687-.383.752-1.661.151-2.937-.986.54-1.989 1.047-2.941 1.635-.23.141-.354.536-.421.838-.09.394-.076.814-.294 1.236-.131-.475-.265-.948-.453-1.624-5.925 2.958-11.79 5.724-18.108 7.426-6.343 1.71-12.645 3.571-19.229 4.081-6.502.505-13.011 1.059-19.526.452l-.023-.413c1.285-.11 2.573-.226 3.859-.327 4.998-.392 10.011-.655 14.991-1.218 3.176-.36 6.334-1.036 9.443-1.802 4.478-1.103 8.933-2.316 13.34-3.673 2.718-.837 5.351-1.972 7.978-3.077 1.989-.837 3.942-1.779 5.851-2.789 1.67-.884 1.844-1.55 1.327-3.313-3.986 1.793-7.953 3.707-12.022 5.371-5.614 2.297-11.37 4.24-17.371 5.223-6.258 1.024-12.539 1.977-18.845 2.611-3.91.392-7.887.24-11.829.145-6.697-.161-13.394-.392-20.083-.759-2.661-.145-5.301-.708-7.943-1.132-3.128-.503-6.263-.995-9.37-1.615-2.162-.432-4.28-1.087-6.426-1.613-2.965-.726-5.948-1.375-8.901-2.147-5.494-1.438-10.9635-2.976-16.4603-4.407-4.5377-1.181-9.0938-2.281-13.6499-3.386-.9637-.233-1.9619-.328-2.9439-.487l.0161-.475c.3542-.035.7244-.157 1.0579-.095 3.8225.727 7.6633 1.38 11.4536 2.252 5.1587 1.186 10.2691 2.565 15.4135 3.813 3.558.863 7.139 1.636 10.707 2.464 2.378.554 4.735 1.213 7.129 1.686 6.139 1.216 12.194 2.898 18.489 3.237 6.955.374 13.903 1.061 20.86 1.144 5.575.067 11.178-.364 16.73-.946 4.432-.463 8.829-1.379 13.201-2.295 3.952-.828 7.875-1.816 11.751-2.948 2.327-.679 4.551-1.728 6.791-2.681 2.905-1.236 5.863-2.388 8.65-3.855 4.048-2.127 7.716-4.851 11.166-7.871 3.462-3.029 7.045-5.927 9.865-9.611.515-.673.929-1.423 1.563-2.404zm-66.123-41.9465c-.667-1.3865-1.334-2.7729-2.003-4.1594-.152.083-.301.1661-.453.2492.819 1.3034 1.635 2.6068 2.454 3.9125.228.6298.439 1.2665.685 1.8894 1.357 3.4511 2.234 7.0038 2.903 10.6672.918 5.0176.734 9.989-.292 14.8616-.748 3.545-2.084 7.043-3.664 10.316-1.336 2.769-3.224 5.327-5.172 7.731-3.724 4.588-8.119 8.528-13.328 11.324-3.163 1.698-6.629 2.845-10.01 4.102-3.397 1.264-6.945 1.883-10.572 1.638-3.006-.203-6.001-.584-8.993-.955-5.057-.627-9.8-2.427-14.22-4.794-3.443-1.843-6.647-4.268-9.621-6.826-4.5053-3.88-7.8655-8.748-10.3655-14.144-1.2787-2.761-2.4402-5.617-2.7024-8.715-.1932-2.2911-.3495-4.5865-.4438-6.8842-.0644-1.6079-.1541-3.2412.0414-4.8307.5726-4.6877 1.9526-9.1816 3.5441-13.6109.2829-.7867.598-1.5618.8993-2.3438-.1127-.0531-.2254-.1038-.3381-.1569-.7222 1.3126-1.557 2.5745-2.1412 3.9448-1.0971 2.5815-2.2677 5.163-3.0106 7.8551-1.0994 3.9887-1.2144 8.1227-.7061 12.2268.4715 3.8298.9936 7.6658 2.6472 11.2278 2.1895 4.718 4.6228 9.32 8.2843 13.041 2.9324 2.981 5.9864 5.947 9.4134 8.296 3.974 2.724 8.622 4.224 13.22 5.751 4.2 1.396 8.482 1.97 12.833 2.171 3.991.182 7.988-.153 11.776-1.456 3.153-1.084 6.267-2.374 9.23-3.903 6.145-3.177 11.248-7.726 15.692-12.981 1.676-1.984 3.217-4.174 4.367-6.494 2.227-4.492 3.572-9.288 4.333-14.2825.881-5.7789.035-11.364-1.251-16.9444-.273-1.1812-.559-2.3785-1.012-3.4973-.584-1.4442-1.343-2.8168-2.026-4.2217zm-8.291-5.5182c-.812-1.075-1.621-2.15-2.433-3.2251l-.331.2792c.929.9735 1.86 1.9493 2.789 2.9229.033.1845.019.3898.102.5467 1.708 3.2551 3.532 6.4548 5.115 9.7698 1.52 3.1836 2.191 6.6532 2.783 10.1159.517 3.029.011 6.0142-.329 9.0362-.49 4.3461-2.109 8.2661-3.88 12.1411-2.452 5.364-6.153 9.768-10.805 13.367-6.886 5.329-14.602 8.425-23.37 8.611-5.726.123-11.189-1.381-16.593-3.01-3.595-1.082-6.647-3.292-9.853-5.214-5.591-3.356-9.126-8.409-12.153-13.904-1.8836-3.419-2.9255-7.163-3.5832-11.0544-.8395-4.9784-.4186-9.8783.5335-14.7275.4255-2.1639 1.4973-4.2309 2.4701-6.2494 1.4467-3.006 3.0476-5.9404 4.6206-8.884.439-.8213 1.014-1.571 1.525-2.3531-2.385 1.7394-4.0779 4.0418-5.5292 6.494-2.8749 4.8515-4.7585 10.0375-5.7038 15.6641-.913 5.4397-.0989 10.6418 1.3248 15.7703 1.1131 4.012 3.2728 7.603 5.7659 10.96 4.0223 5.417 8.9263 9.756 15.0873 12.573 3.954 1.808 8.015 3.241 12.295 4.157 4.076.872 8.098 1.359 12.259.835 4.068-.512 8.107-1.135 11.768-3.068 2.816-1.486 5.555-3.138 8.22-4.882 4.529-2.964 7.882-7.08 10.729-11.62 3-4.784 4.621-10.058 5.559-15.613.833-4.9184.378-9.7098-.922-14.4437-1.079-3.9263-2.64-7.682-4.761-11.1701-.809-1.3311-1.798-2.5561-2.707-3.8295zm-28.16-4.2493c-1.874-.09-3.751-.1823-5.626-.2723l-.006.2492h5.662c.23.1199.451.2699.695.3506 1.508.5053 3.065.8905 4.526 1.5065 5.053 2.1246 9.271 5.322 12.346 9.9405 2.014 3.0267 3.634 6.2149 4.468 9.7952.792 3.4004.978 6.7893.573 10.2635-.506 4.3488-1.936 8.3738-4.453 11.8648-3.737 5.19-8.857 8.549-15.158 9.79-2.716.536-5.548.909-8.296.766-4.363-.226-8.512-1.513-12.447-3.539-4.577-2.355-8.137-5.771-10.639-10.182-1.578-2.782-2.484-5.9176-2.719-9.1565-.143-1.9794-.331-4.0048.727-5.8435.271-.4683.651-.8743.98-1.3103l.391.1869c0 1.2226-.081 2.4522.018 3.6657.17 2.1316.168 4.3347.741 6.3671 1.386 4.9296 4.468 8.8566 8.362 12.0256 4.547 3.698 10.051 5.159 15.768 5.366 5.38.194 10.382-1.287 14.701-4.768 2.831-2.282 5.088-5.011 6.783-8.18 1.26-2.36 1.971-4.9304 2.332-7.6179.639-4.7823.043-9.4285-2.167-13.6363-3.227-6.141-7.974-10.7364-14.903-12.5704-1.486-.3945-3.018-.6114-4.529-.909-.016.0969-.034.1915-.05.2884.545.1546 1.099.2907 1.637.4706 2.401.8051 4.97 1.3034 7.157 2.5007 5.23 2.8583 8.805 7.2553 10.695 12.9788 1.355 4.0994 1.635 8.2749.706 12.4735-.791 3.5736-2.751 6.6136-5.08 9.3476-4.382 5.138-10.092 7.606-16.78 7.719-3.922.067-7.779-.441-11.316-2.339-6.138-3.292-9.837-8.515-11.536-15.1566-.672-2.6276-.154-5.2875 1.094-7.7998.274.6275.433 1.2642.447 1.9056.059 2.7452.409 5.472 1.527 7.9681 2.741 6.1227 7.219 10.3807 13.838 12.0217 6.417 1.589 12.394.505 17.629-3.608 6.341-4.983 9.305-13.4797 6.849-21.2771-1.927-6.1134-5.931-10.3743-12.097-12.4067-.884-.2907-1.833-.3714-2.753-.549.506.3829 1.053.5075 1.591.6667.582.173 1.175.3252 1.725.5767 6.81 3.0959 10.389 8.5518 11.304 15.8486.492 3.9218-.71 7.4952-2.695 10.8288-1.495 2.51-3.213 4.844-5.782 6.346-5.12 2.997-10.635 3.661-16.235 1.933-6.32-1.949-10.704-6.016-12.321-12.7222-1.014-4.2125-.414-8.1989 1.198-12.1253 1.465-3.5665 4.179-6.0372 7.171-8.2472 1.084-.8005 2.296-1.4257 3.448-2.1316-3.609.3783-6.61 2.1247-9.441 4.2586l-.265-.2676c1.631-2.4362 3.264-4.8746 4.895-7.3107-1.387.4868-2.76 1.1096-3.977 1.9563-1.205.8374-2.256 1.9032-3.374 2.8675l-.248-.2445c1.124-3.6865 3.916-6.0465 6.853-8.3811-1.269.2884-2.454.6805-3.479 1.3242-2.024 1.2688-3.952 2.6945-5.946 4.0163-.259.1731-.669.1154-1.012.1638.014-.3783-.124-.872.063-1.1142 1.069-1.3749 2.161-2.743 3.357-4.0072.916-.9666 1.994-1.774 3.002-2.6529-.306-.1638-.502-.1661-.665-.0969-3.976 1.7117-7.346 4.2632-10.276 7.4352-.347.376-.858.6044-1.295.8997-.126-.1061-.255-.2122-.382-.316.532-2.2032 2.737-3.6288 3.151-6.178-.878.6044-1.582 1.0773-2.277 1.5687-2.695 1.9079-5.011 4.1756-6.54 7.1446-1.1803 2.2908-1.8128 4.7476-2.1877 7.3014-.3013 2.0347-.9591 4.0187-1.2374 6.0557-.5657 4.1663-.6899 8.3834.3795 12.4694.7774 2.969 1.7687 5.956 3.1766 8.667 2.249 4.33 5.535 7.825 9.547 10.711 3.125 2.249 6.379 4.277 9.954 5.529 3.394 1.189 7.005 1.864 10.575 2.402 4.213.634 8.498.577 12.69-.275 4.563-.927 8.74-2.816 12.487-5.638 8.875-6.685 14.489-15.281 15.466-26.5709.364-4.2055.028-8.418-1.29-12.3951-1.007-3.0406-2.617-5.8965-4.11-8.7548-.752-1.4395-1.84-2.7014-2.778-4.0441-.117.0831-.237.1684-.354.2515.168.2561.317.526.508.7636 2.893 3.6288 4.834 7.7651 6.12 12.1783 1.327 4.5538 1.293 9.2254.743 13.9176-.465 3.9749-1.849 7.6289-3.636 11.1519-2.376 4.685-6.014 8.319-10.016 11.564-3.02 2.45-6.41 4.404-10.226 5.311-2.661.632-5.411 1.13-8.134 1.202-3.423.09-6.889-.099-10.279-.568-3.714-.514-7.178-2.002-10.513-3.732-5.356-2.778-10.147-6.187-13.541-11.359-1.969-3.002-3.381-6.22-4.3633-9.634-.9568-3.3245-.7774-6.7549-.7889-10.1738-.0069-2.3438.6003-4.457 1.6472-6.4732.533-1.0289 1.269-1.9517 1.913-2.9229.106 1.1304-.011 2.1062-.101 3.0844-.14 1.4856-.03 3.0405-.437 4.4477-1.198 4.1479-.483 8.2011.655 12.1228 1.125 3.873 3.2 7.355 5.723 10.559 2.642 3.357 6.106 5.52 9.779 7.523 2.879 1.569 5.92 2.584 9.038 3.453 4.202 1.17 8.487 1.064 12.758.651 1.959-.189 3.96-.565 5.805-1.237 3.751-1.365 7.371-3.033 10.412-5.751 3.528-3.153 6.421-6.771 8.452-11.071 1.879-3.979 2.585-8.2263 2.826-12.5656.269-4.8423-.759-9.4746-2.955-13.7516-1.382-2.6922-3.151-5.1998-4.915-7.6705-.881-1.2319-2.141-2.1916-3.231-3.2759-1.104-1.4672-2.592-2.4315-4.055-3.4304-.069.0877-.136.173-.205.2607 1.383 1.0935 2.762 2.1847 4.145 3.2781.805.9367 1.607 1.8756 2.417 2.8076 3.457 3.9702 5.881 8.501 7.24 13.5901 1.157 4.3301.807 8.6902-.048 12.9995-.996 5.001-3.144 9.465-6.274 13.546-2.714 3.541-6.072 6.194-9.984 8.081-5.161 2.49-10.725 3.256-16.415 2.81-4.048-.316-8.006-1.172-11.743-2.819-3.825-1.684-7.371-3.868-10.214-6.948-3.399-3.684-5.782-7.985-7.003-12.919-.757-3.0521-1.325-6.0834-.299-9.1447.441-1.3149 1.191-2.5284 1.801-3.7856.421.3045.584.4982.579.6897-.064 2.4523-.154 4.9022-.239 7.3545-.021.6136-.147 1.2434-.046 1.8363.465 2.6784 1.198 5.2758 2.406 7.7258 1.994 4.049 4.972 7.244 8.604 9.832 4.3 3.064 9.08 4.854 14.342 5.518 5.513.697 10.768.155 15.901-2.078 4.563-1.984 8.324-4.872 11.116-8.99 2.323-3.426 3.907-7.202 4.393-11.3088.347-2.9505.566-5.9911.257-8.9278-.51-4.8353-2.645-9.147-5.575-12.9857-4.641-6.081-10.618-10.0605-18.312-11.1724zm68.34 65.994c1.308-.327 2.523-.579 3.019-1.866.943-2.448 2.01-4.875 2.643-7.405.637-2.552.853-5.212 1.168-7.835.46-3.843.978-7.689 1.233-11.548.43-6.5472-.787-12.9997-1.405-19.4844-.161-1.6841-1.415-2.9091-2.721-3.1098.437 4.0718 1.205 8.2058 1.23 12.3421.023 4.1202.594 8.3261-.708 12.4231-.301-.533-.451-1.085-.446-1.631.055-7.7077.055-15.3875-1.987-22.9358-.472-1.7417-1.481-2.2769-2.969-2.9205.055.5582.05.9781.144 1.3726.978 4.0648 1.604 8.178 1.707 12.3651.028 1.112.037 2.2239.032 3.3358-.016 4.2125.019 8.4268-.101 12.6378-.039 1.342-.494 2.673-.761 4.009-.269-.228-.302-.415-.292-.6.207-3.97.409-7.931.402-11.9197-.011-6.9161-.786-13.687-2.461-20.3725-.471-1.887-1.651-2.8951-3.194-3.0958.671 3.8087 1.386 7.7097 2.044 11.6199.72 4.2794.695 10.8749-.092 11.7884-.269-2.5906-.501-5.0867-.791-7.5759-.32-2.7337-.522-5.4997-1.095-8.1827-.547-2.5653-1.483-5.0498-2.281-7.5575-.511-1.601-1.438-2.2677-3.103-2.3369.805 3.9287 1.647 7.8459 2.401 11.7815.752 3.9241 1.185 7.8758.513 11.8737-.301-.9596-.533-1.9332-.522-2.9067.039-4.1017-.968-8.0627-1.69-12.0444-.557-3.059-1.753-5.9981-2.608-9.0086-.297-1.045-1.879-1.9055-3.308-1.6633 2.744 8.1227 4.407 16.4415 4.648 25.0463-.294-.1822-.441-.4152-.48-.6644-.474-3.0197-.89-6.0511-1.403-9.0639-.807-4.7569-2.082-9.3661-3.917-13.8577-.798-1.9517-1.909-2.946-3.907-3.2782.416.9805.899 1.924 1.223 2.9206.718 2.2008 1.415 4.4109 2.006 6.6486.653 2.4684 1.196 4.9691 1.738 7.4652.067.3022-.172.6713-.269 1.0104-.248-.2768-.63-.5121-.722-.8351-.462-1.6171-.74-3.292-1.283-4.8768-1.235-3.6011-2.565-7.1699-3.901-10.7341-.874-2.33-2.447-3.4051-4.678-3.322.89 1.6771 2.04 3.2689 2.617 5.0475 1.316 4.0441 3.266 7.8874 3.846 12.176.26 1.9217.78 3.8064 1.177 5.7096.134.6391.005 1.1166-.793 1.2227-.094-.759-.097-1.4995-.285-2.1916-.814-3.0197-1.652-6.0349-2.539-9.0362-1.392-4.7038-3.439-9.1031-6.247-13.1287-.807-1.1558-3.457-2.1547-4.616-1.8525.741.9781 1.481 1.9886 2.252 2.9736 3.164 4.0556 5.23 8.6602 6.543 13.5971.598 2.2492 1.049 4.5608 1.293 6.8746.273 2.5768.368 5.1929.287 7.7836-.057 1.8617-.439 3.7303-.846 5.5569-.555 2.487-1.12 4.993-1.967 7.387-.768 2.18-1.897 4.238-2.902 6.33-2.321 4.824-5.628 8.951-9.425 12.629-4.931 4.777-10.761 8.275-17.045 11.001-1.069.464-2.159.884-3.24 1.325.377.246.708.332 1.037.329 2.291-.02 4.581-.05 6.872-.092 3.933-.071 7.868-.104 11.798-.281.739-.033 1.567-.526 2.146-1.041 1.028-.913 1.9-2.004 2.838-3.024.081.053.161.108.242.161-.545 1.108-1.093 2.217-1.658 3.368 2.028.231 3.415-.339 4.411-1.984.832-1.374 1.884-2.616 2.836-3.917.112.053.225.109.338.162-.727 1.707-1.456 3.414-2.183 5.117 1.875.406 3.275-.254 4.4-2.079.752-1.225 1.495-2.455 2.242-3.682.083.042.166.083.251.122-.439 1.59-.879 3.177-1.327 4.801 1.352.164 2.406-.074 3.167-1.326 1.122-1.846 2.373-3.611 3.569-5.41l.152.046c-.683 1.979-1.368 3.956-2.058 5.957.133.016.253.064.349.039.217-.06.433-.141.633-.245 1.964-1.008 2.969-2.867 4.096-4.625.559-.87 1.18-1.7 1.771-2.549.115.078.228.157.343.233-.996 1.926-1.992 3.852-2.986 5.776l.104.284c.913-.374 2.095-.51 2.684-1.174 1.168-1.313 2.049-2.893 2.974-4.411.572-.939 1.002-1.963 1.497-2.948.142.06.283.12.425.18-.846 2.226-1.692 4.454-2.585 6.807 1.288-.376 2.615-.459 3.374-1.806 1.208-2.141 2.468-4.249 3.811-6.552.168 2.674-1.667 4.517-2.183 6.833 1.67-.408 3.034-1.026 3.729-2.636.48-1.112 1.046-2.187 1.58-3.276.338-.69.687-1.375 1.032-2.06.148.062.295.127.44.189-.43 1.716-.858 3.433-1.327 5.304zm-154.9223-31.3232c-.1471-.03-.2943-.06-.4438-.09.0667-1.4787.0023-2.9782.2415-4.4293.2437-1.4834.7819-2.9183 1.1913-4.3739l-.2484-.233c-.6302.5836-1.4489 1.0588-1.8583 1.7694-1.672 2.8975-2.1527 6.1733-2.7346 9.408-.1518.851-.2369 1.716-.3542 2.574-.1035-.018-.207-.034-.3105-.053-.1863-3.619-.4117-7.2413 1.1385-10.8009-1.4927.466-2.1527.9943-2.4264 2.0601-.5336 2.0716-.9982 4.1593-1.4973 6.2398-.3863 1.613-.7842 3.223-1.1775 4.836-.4991-3.428-.1863-6.7711.8142-10.0746-1.3501.8535-2.6357 1.7486-2.9968 3.3104-.3772 1.6332-.7429 3.3262-.713 4.9872.0437 2.321.2921 4.667.7613 6.94.4347 2.11 1.074 4.235 1.9986 6.173.805 1.689 2.1205 3.137 3.2337 4.674.8371 1.156 1.3684 1.292 2.7921.814-1.4329-2.037-2.3391-4.3-2.9968-6.676 1.1499 1.439 2.0676 3.004 3.1393 4.455 1.0718 1.455 2.0309 3.225 4.4527 2.699-1.1155-1.876-2.6794-3.523-2.9991-5.805.2806.16.4531.386.6302.607 1.2488 1.576 2.5023 3.149 3.7465 4.729.8809 1.117 2.0308 1.329 3.4108 1.071-.5865-1.029-1.1615-1.998-1.6997-2.99-.5404-.997-1.3017-1.917-1.3316-3.329.3496.185.5612.224.6417.351.9659 1.497 1.8928 3.017 2.8657 4.51 1.1062 1.698 2.615 2.593 4.7976 2.226-.782-1.527-1.5525-3.036-2.3229-4.542 1.1476 1.035 2.201 2.117 2.9208 3.391.9775 1.725 2.4724 2.175 4.4688 2.332-.8947-1.516-1.7089-2.893-2.5207-4.27.0966-.069.1955-.138.292-.205 1.1316 1.225 2.3529 2.383 3.374 3.693 1.173 1.507 2.6725 1.765 4.4802 1.663-.8302-1.319-1.5938-2.533-2.3574-3.746 1.3593 1.022 2.5736 2.155 3.7995 3.271 1.2695 1.156 2.7001 1.929 4.5676 1.871-1.3018-1.64-2.5483-3.209-3.7926-4.778.3634-.145.5336-.129.6325-.036 1.3915 1.296 2.8381 2.544 4.1399 3.926 1.4581 1.546 3.137 2.374 5.4553 2.295-1.327-1.594-2.868-2.837-3.2888-4.86 2.8795 3.033 5.3657 6.674 10.3404 6.533-.9844-1.211-1.8584-2.286-2.7323-3.361.092-.093.1863-.185.2783-.277 2.8219 1.668 4.5032 5.243 8.618 5.112-1.2077-1.297-2.3393-2.512-3.4709-3.728l.3427-.355c.483.376.9637.756 1.4513 1.13 1.7689 1.357 3.4249 2.923 5.3519 3.996 1.387.772 3.135.897 4.726 1.287 1.1.27 2.206.498 3.31.747-.198-.366-.458-.567-.748-.712-1.182-.591-2.408-1.101-3.555-1.754-4.338-2.464-7.956-5.76-11.1479-9.59-4.2894-5.144-8.2958-10.475-10.0943-17.043-.9246-3.375-1.4306-6.884-1.8883-10.3629-.4277-3.2482.1219-6.4663.5934-9.7122.7245-4.9737 2.6127-9.4607 4.7907-13.8808.5543-1.1257 1.2742-2.1685 1.9158-3.2481-1.8031.6482-3.8017.8858-4.6159 2.9575-.6393 1.6287-1.3224 3.2435-2.0193 4.8491-.3979.9182-.8556 1.8087-1.2879 2.713-.161-.0623-.322-.1269-.483-.1892.6256-2.5515 1.2511-5.1029 1.9227-7.8389-.8855.5952-1.8951 1.0104-2.5115 1.7532-.759.9182-1.2488 2.0855-1.7502 3.1905-.7797 1.7141-1.4697 3.4696-2.3137 5.4813-.1265-2.8306 1.0257-5.0983 1.5547-7.5944-1.0051.436-2.0469.8466-2.6679 1.6033-.6762.8236-.9843 1.9586-1.4167 2.9736-.2691.6275-.4646 1.2873-.7084 1.924-.2415.6298-.5037 1.2526-.7567 1.8778l-.4485-.1315c.3956-1.8893.7912-3.7787 1.2236-5.8365-.6647.4129-1.1477.8097-1.7019 1.0358-1.2558.5098-1.771 1.4626-2.1022 2.7314-.4415 1.691-1.1108 3.322-1.6812 4.9807-.6164-2.0924.0437-3.9795.7176-6.0303-1.4881.579-2.9416.8166-3.397 2.3922-.4347 1.5042-.7727 3.036-1.1913 4.5447-.1748.6298-.4416 1.2319-.667 1.8478-.1863-.053-.3703-.1061-.5566-.1614.3657-2.1109.7291-4.2217 1.104-6.3879-1.2236.4314-2.3643.8928-2.8312 2.18-.5704 1.5756-1.1155 3.1628-1.6007 4.7661-.2898.962-.4439 1.9655-.6578 2.9506-.1219 0-.2461-.0046-.368-.0069-.3933-1.1212-.1771-2.3046-.0552-3.4673.1242-1.195.3151-2.3854.4807-3.6127-1.426.586-1.6583.7198-2.0538 2.0117-.7153 2.33-1.3294 4.6922-2.001 7.0361-.0897.3091-.2713.5906-.4116.8858-.7452-2.6921.315-5.059 1.0119-7.7235-1.3132.6782-2.6104.9273-2.9853 2.526-.522 2.2308-1.1683 4.4316-1.8008 6.6348-.2691.9343-.6394 1.8386-.966 2.7567zm160.4873 28.8182c1.205-.238 2.459-.545 2.891-1.58.759-1.818 1.32-3.761 1.67-5.703.623-3.463 1.122-6.953 1.504-10.45.6-5.502.929-11.0252.32-16.555-.331-3.0059-.738-6.0049-1.152-9.0016-.182-1.3172-.927-2.0001-2.211-2.0739.64 7.5829 1.017 15.1404.235 22.7375-.775 7.534-1.727 15.032-3.257 22.628zm5.23-2.57c1.665-.669 2.756-1.534 3.041-3.419.474-3.13 1.35-6.199 1.847-9.324.388-2.444.616-4.937.634-7.41.039-5.311.647-10.6583-.646-15.9158-.368-1.4949-.517-3.1305-2.235-3.8157.738 13.3202.179 26.6085-2.641 39.8865zm6.944-34.2602c.23 1.1258.614 2.1731.618 3.2205.01 2.1039-.2 4.2078-.296 6.3117-.32 6.916-.43 13.853-1.801 20.772.839-.584 1.877-1.191 2.058-1.991.759-3.35 1.366-6.743 1.817-10.148.265-1.991.175-4.035.161-6.056-.023-3.29-.055-6.5818-.204-9.8669-.065-1.4164-.444-2.8098-1.785-3.6011-.23.5537-.442 1.0566-.568 1.3588zm-180.543 32.3062c-1.4628-3.673-3.2774-7.168-4.2181-10.884-.9429-3.719-1.0142-7.661-1.4719-11.523-.8418.323-1.2374.95-1.2949 1.836-.0322.496-.1035.99-.1725 1.484-.5496 3.912-.1195 7.769 1.3317 11.387.9936 2.479 2.6127 4.701 3.8937 7.07.4945.916 1.1017 1.038 1.9297.63zm-7.3804 1.174c-3.351-6.288-4.5148-12.985-4.7241-19.897-1.7387.335-2.0722.692-2.0699 2.261 0 .837.1265 1.675.1265 2.514.0046 2.759.092 5.516 1.1408 8.109.8532 2.106 1.879 4.143 2.7829 6.229.5519 1.273 1.534.883 2.7415.787zm-4.593.307c.0598-.095.1196-.191.1794-.286-2.6219-5.682-3.3233-11.8-4.0432-17.966-.9913.157-1.4282.701-1.488 1.548-.1104 1.566-.2921 3.137-.2484 4.701.0759 2.602.3679 5.188 1.6582 7.53.5934 1.08 1.1546 2.113.414 3.375-.1886.321-.0943.805-.1311 1.213 1.3546.531.851-.835 1.1062-1.028.9614.341 1.7572.627 2.5552.911zm3.2291-21.743c-1.8169.916-2.2677 1.841-1.9825 3.784.0897.604.1242 1.213.2047 1.818.2944 2.159.3335 4.399.9636 6.457.8326 2.715 2.0907 5.306 3.2429 7.912.6325 1.431 1.127 1.511 2.5759.683-1.8284-3.066-2.8933-6.404-3.7396-9.864-.8625-3.516-1.3363-7.048-1.2673-10.794zm192.5533 14.165c1.444-.944 2.076-2.222 2.258-3.77.297-2.547.603-5.093.874-7.645.336-3.147.205-6.2839-.43-9.3775-.168-.8213-.734-1.5641-1.118-2.3416-.145.037-.287.0762-.432.1131.915 7.687-.228 15.251-1.155 23.021zm-101.574-39.5548c-1.538-.3529-2.419.2699-3.185.9989-2.484 2.3693-4.397 5.126-5.283 8.4918-.28 1.0635-.464 2.1685-.522 3.2643-.023.4222.43.8697.667 1.3035.396-.3461.858-.6414 1.166-1.0543.212-.2815.166-.7428.315-1.0912.755-1.7671 1.364-3.6265 2.348-5.2575 1.068-1.7694 2.517-3.3058 3.745-4.9806.329-.4499.469-1.0382.749-1.6818zm-101.2461 31.5448-.4692-.161c-.4208.394-1.0832.719-1.2166 1.197-.2944 1.05-.46 2.18-.4347 3.271.0805 3.627 1.3961 6.898 3.0865 10.045.3933.733.9843.837 2.0009.636-1.7962-4.883-3.2866-9.756-2.9669-14.986zm218.9631 2.146c-3.333.955-6.477 1.97-9.681 2.733-1.945.464-2.38 2.213-3.535 3.364 3.259-.75 6.399-1.871 9.635-2.376 2.472-.386 2.55-2.337 3.583-3.724zm8.705 12.925c-1.129 1.701-2.061 3.477-3.347 4.939-1.55 1.765-.864 3.756-1.085 5.673 2.707-2.999 5.563-5.912 4.432-10.614zm-17.997-11.855c.276.025.559.132.787.062 2.723-.812 5.439-1.642 8.148-2.5.14-.044.278-.365.272-.552-.033-.953-1.321-1.592-2.19-1.213-1.069.466-2.178.872-3.303 1.174-1.665.45-3.378.761-3.714 3.027zm8.323 28.175c.718-.178 3.455-2.626 4.023-4.148.458-1.23.255-2.706.345-4.072-1.341 1.227-2.413 2.494-3.466 3.779-1.079 1.317-1.419 2.789-.904 4.443zm13.807-23.681c-1.944 2.127-3.494 7.795-2.859 10.282 2.833-2.845 3.512-6.344 2.859-10.282zm-131.061-35.7344c-2.099 1.2411-5.133 6.8562-4.767 8.8263 2.132-.4891 5.471-6.6693 4.767-8.8263zm-102.6444 42.6324c.1449-.1.2898-.201.437-.3-1.9158-3.558-2.1573-7.461-2.4609-11.371-1.0166.378-1.2512.616-1.2052 1.626.0782 1.684.1081 3.394.4439 5.034.2852 1.389.9154 2.724 1.5271 4.021.2047.431.8257.667 1.2558.992zm225.3494 3.342c3.229-2.89 4.701-6.623 3.763-9.234-1.173 1.725-2.367 3.474-3.547 5.232-.119.177-.202.417-.207.63-.02 1.068-.009 2.138-.009 3.372zm-89.653-68.2132c-2.184-2.7498-7.405-5.1583-10.138-4.7015.256.2053.433.3783.635.5075 1.339.8559 2.783 1.578 4 2.5792 1.598 1.3149 3.413 1.5041 5.503 1.6148zm84.423 74.3732c3.243-2.143 4.699-5.267 3.915-8.349-1.141 1.47-2.243 2.861-3.308 4.277-.26.344-.54.759-.579 1.165-.088.907-.028 1.825-.028 2.909zm-5.924 6.189c1.639-1.58 3.114-2.971 4.542-4.406.193-.194.248-.62.223-.925-.062-.717-.214-1.428-.329-2.141-.062.012-.159 0-.2.039-1.235 1.216-2.468 2.437-3.689 3.666-.097.097-.154.263-.172.404-.127 1.056-.24 2.115-.375 3.363zm9.648-21.124c-.842 1.188-1.564 2.487-2.551 3.532-1.279 1.354-.759 2.881-.796 4.411 1.132-1.159 2.128-2.379 3.112-3.606.695-.865.819-3.274.237-4.337zm-10.635 18.949c-3.386 2.014-4.756 4.378-3.891 6.725 1.214-1.022 2.412-2.005 3.574-3.032.193-.17.292-.528.303-.805.037-.916.014-1.832.014-2.888zm14.641-25.508c-1.722 2.298-3.275 4.619-2.327 7.705.062-.034.195-.06.239-.138 1.088-1.866 2.254-3.693 3.199-5.631.382-.785.216-1.779-1.113-1.936zm-12.854 20.919c.911-1.042 1.704-2.23 2.76-3.093 1.605-1.31.991-2.978 1.111-4.57-.897.925-1.491 2.168-2.47 2.833-1.863 1.262-1.488 3.008-1.401 4.83zm3.857-14.339c-1.099 1.423-1.946 2.8-3.066 3.894-1.23 1.204-.862 2.514-.745 3.898.888-.872 1.569-1.907 2.461-2.696 1.536-1.359 1.711-3.006 1.348-5.096zm1.647 1.026c2.362-2.321 4.036-4.879 3.1-8.529-.269.423-.508.746-.692 1.094-.532 1.008-.888 2.15-1.592 3.013-1.127 1.382-.947 2.863-.816 4.42zm-10.796-8.582c2.081-1.797 2.192-9.04 0-11.103zm3.802 19.849c-1.987 1.936-4.793 3.126-3.745 6.598.693-.6 1.302-1.354 2.091-1.769 2.026-1.071 1.858-2.801 1.656-4.829zm-9.064 10.734c.975-.722 1.824-1.326 2.649-1.963 1.463-1.128 1.645-1.908.893-3.836-.718.57-1.36 1.234-2.132 1.663-1.606.893-1.824 2.233-1.408 4.136zm8.746-16.446c-.869.939-1.481 1.843-2.311 2.441-1.559 1.121-1.192 2.565-1.035 4.323.908-.872 1.578-1.652 2.378-2.254 1.529-1.151 1.371-2.618.971-4.51zm-78.457-69.4383c1.673 1.1604 3.089 2.1178 4.478 3.1167 1.429 1.0266 2.795 2.1869 4.835 1.8432-3.889-3.292-6.693-4.8376-9.313-4.9576zm73.117 74.4003c-.771.713-1.38 1.553-2.203 1.977-1.737.898-1.392 2.314-1.307 4.028.973-.782 1.76-1.405 2.537-2.041 1.334-1.094 1.569-1.957.973-3.964zm-65.104-72.6401c1.712 1.0935 3.303 2.0486 4.821 3.1074.929.6483 1.723 1.518 3.02 1.2458-1.293-2.4038-5.304-4.6969-7.841-4.3532zm57.401 81.1901c2.878-1.043 3.487-1.986 2.94-4.448-3.301 1.424-3.386 1.548-2.94 4.448zm-43.125-74.6799c-.759-2.3047-4.149-4.9-6.484-4.8307 2.367 1.5548 3.563 4.1686 6.484 4.8307zm12.114.6828c1.423 2.8906 2.976 4.4016 4.714 4.5885-.519-2.1847-2.619-4.8584-4.714-4.5885zm41.931 31.8564c-.335-2.3323.976-4.9322-1.253-7.14 0 1.8894.06 3.555-.023 5.2114-.051.985.428 1.5133 1.276 1.9286zm-53.691-35.6075c.807 1.0082 1.642 1.8617 2.243 2.8537.763 1.2596 1.888 1.5803 3.242 1.7394-1.49-2.8582-3.086-4.2032-5.485-4.5931zm48.33 24.698c.571 3.9079.127 5.6081 1.856 6.6993-.694-2.3.913-4.9668-1.856-6.6993zm-19.995-13.7193c.665 1.4326 1.079 2.6207 1.739 3.6496.478.7474 1.283 1.2849 1.941 1.9147.071-.0807.142-.1638.214-.2445-.382-1.0151-.872-2.0047-1.118-3.0521-.338-1.4395-1.546-1.5502-2.776-2.2654zm-17.277-4.5216c-2.599-3.8641-2.96-4.194-4.855-4.3762 1.357 1.7832 2.022 4.1132 4.855 4.3762zm-174.0087 48.3811c-.8992 1.079-1.143 2.323-.7107 3.686.2714.856 1.6882 2.314 2.0723 2.363zm180.8737-48.9163c.573 1.2688 1.015 2.5538 1.718 3.6727.334.5329 1.164.7497 1.769 1.1119-1.297-3.8087-1.412-4.254-3.484-4.7846zm38.689 27.4986c-1.145 1.5618-1.019 6.1087-.105 6.8467.154-1.7461.342-3.4555.432-5.1742.028-.5513-.209-1.1142-.327-1.6725zm-22.109-18.7138c.332 2.6322.925 4.9507 2.76 4.8584-.839-1.6748-.593-3.871-2.76-4.8584zm25.115 23.2308c-.133.2768-.216.3714-.225.4752-.163 1.6655-.357 3.3285-.437 4.9995-.014.281.462.588.713.883.11-.071.223-.141.333-.212-.241-1.952 1.212-3.975-.381-6.1457zm-33.169-24.961c-.89-3.7626-1.35-4.0879-3.103-4.2863 1.173 1.368.649 3.7788 3.103 4.2863zm17.815 8.3742c.203 1.5802.288 2.8744.57 4.1201.111.4868.67.8697 1.024 1.2988.133-.0922.269-.1868.402-.2791-.802-1.5895.175-3.8341-1.996-5.1422zm-3.004 1.7209c.244-2.5676-.545-4.6069-1.994-4.9783.651 1.6725.141 3.6565 1.994 4.9783zm19.053 23.3296c-.987-.632-1.741-1.165-2.604-.789-.814.356-1.359 1.087-1.536 2.247 1.403-.493 2.622-.922 4.142-1.458z"/><path d="m54.0893 20.5516c2.1366-1.4949 4.1628-3.1905 6.4328-4.4431 5.3473-2.9506 11.1201-4.8953 16.9251-6.73626 2.8335-.8974 5.591-2.03933 8.4452-2.85829 3.4453-.98736 6.9504-1.76018 10.437-2.5999 1.1868-.28606 2.385-.5329 3.5902-.7313 3.3874-.56058 6.7664-1.21575 10.1744-1.59409 4.598-.51213 9.214-.895084 13.832-1.164994 3.832-.223772 7.686-.050753 11.513-.318356 6.337-.440623 12.613.62287 18.915.558276 6.575-.066901 13.056.747444 19.544 1.543334 3.752.45908 7.521.94353 11.203 1.7648 5.166 1.15346 10.29 2.52609 15.38 3.99329 6.883 1.98396 13.576 4.51699 20.007 7.70049 2.762 1.3657 5.499 2.7868 8.187 4.2909 4.807 2.6899 9.646 5.3359 14.324 8.2381 3.351 2.0785 6.484 4.5146 9.676 6.84 5.002 3.6426 10.05 7.2276 14.922 11.0433 1.936 1.5156 3.447 3.578 5.08 5.4558-16.453-12.3328-33.208-24.1466-51.589-33.425-.06.0784-.12.1568-.179.2353 1.062 1.4649 2.028 3.0174 3.231 4.3578.593.6621 1.614.9527 2.463 1.3657.922.4498 1.87.8466 2.969 1.3403-.193-.526-.34-.9251-.568-1.541.361.2145.614.286.745.4544 1.392 1.7717 3.241 2.9114 5.148 4.051 2.799 1.6748 5.432 3.6219 8.201 5.3451 6.907 4.2955 13.781 8.651 20.097 13.7955 3.916 3.1881 7.608 6.6555 11.412 9.9844.74.6482 1.603 1.1696 2.279 1.8755.699.729 1.237 1.6125 1.847 2.4269-.117.1015-.232.2007-.35.3022-7.456-6.0073-14.91-12.0145-22.366-18.024.789 1.9862.772 4.3093 2.909 5.6496 1.52.9528 2.829 2.2424 4.356 3.4812.078-.6414.136-1.1027.205-1.6633.858 1.3126 1.508 2.6391 2.468 3.6772.961 1.0404 2.23 1.7948 3.505 2.7822.046-.6414.082-1.1166.117-1.5918.078-.0069.154-.0138.232-.0208.065.1892.152.3738.186.5698.272 1.5595 1.36 2.367 2.576 3.2459 1.992 1.4418 3.784 3.1628 5.665 4.7592.754.6413 1.633 1.1742 2.256 1.9217.814.9758 1.433 2.1154 2.135 3.1858-.113.0854-.226.173-.339.2584-1.941-1.6495-3.882-3.2989-5.821-4.9507-.062.06-.126.1223-.188.1823.218.9966.299 2.0531.699 2.9713.375.8628.971 1.7048 1.667 2.3369 2.188 1.9817 4.52 3.8041 6.682 5.8112.637.5905.894 1.5894 1.327 2.4015-.12.0876-.239.173-.359.2607-1.38-1.1466-2.758-2.2954-4.135-3.4397-.856 2.2885-.175 3.7119 2.987 6.118v-2.3715c.088-.03.177-.06.265-.0923.129.4037.352.8051.37 1.2135.067 1.4026.511 2.5053 1.663 3.4534.819.6736 1.297 1.7671 1.927 2.6738-.131.1338-.264.2652-.395.399-.84-.6828-1.679-1.368-2.533-2.0623 0 1.0404-.041 1.9562.023 2.8652.021.2906.274.6067.499.8328.755.752 1.514 1.5041 2.33 2.1846.764.6367.87 1.3519.488 2.3254-1.056-.8651-2.065-1.6933-3.261-2.6737.007 1.8547-.58 3.5619 1.147 4.7522.21.1431.364.3991.483.6344.265.5214.492 1.0635.736 1.5964-.552-.2514-1.193-.3944-1.637-.7728-6.222-5.3036-12.339-10.7295-18.641-15.9362-4.8-3.9656-9.828-7.6475-14.74-11.4747-1.99-1.5502-3.942-3.1536-6.04-4.6438.279.3668.534.752.837 1.0935.479.5375 1.054 1.0012 1.479 1.5756 2.07 2.8075 5.122 4.5031 7.618 6.8331 5.016 4.6877 10.218 9.177 15.285 13.8116 3.673 3.3589 7.254 6.8169 10.867 10.2427 1.628 1.5438 3.229 3.1148 4.857 4.6578.297.281.665.489.998.731l-.34.404c-.835-.588-1.748-1.091-2.491-1.779-2.815-2.6019-5.48-5.3725-8.376-7.8802-6.033-5.2229-12.178-10.3142-18.273-15.4679-.747-.6321-1.46-1.3057-2.364-1.8317.062.1938.085.4152.195.5767.98 1.4488 1.856 2.9875 2.993 4.3001 1.49 1.721 3.15 3.2989 4.809 4.8676 4.48 4.2356 8.965 8.4665 13.507 12.6351 3.19 2.9293 6.481 5.7513 9.71 8.6413.272.243.403.642.396 1.133-8.574-6.148-15.573-14.0606-23.954-20.4346.886 1.2849 1.794 2.5537 2.654 3.8548 2.211 3.3428 5.407 5.7166 8.225 8.4598 3.792 3.691 7.617 7.352 11.419 11.036.202.196.313.489.467.736-.111.092-.221.185-.331.277-3.915-3.564-7.829-7.126-11.744-10.69-.071.055-.142.11-.214.166.072.189.095.415.217.56 3.758 4.448 7.539 8.877 11.274 13.346.381.457.496 1.137.736 1.714-.552-.279-1.226-.438-1.633-.861-2.486-2.574-5.003-5.128-7.337-7.839-3.521-4.085-7.058-8.175-10.297-12.4847-3.1-4.1225-5.807-8.5425-8.728-12.8034-5.759-8.4019-11.676-16.6745-19.268-23.5768-3.982-3.6173-8.259-6.9162-12.914-9.5023-7.107-3.9471-14.54-7.2991-21.804-10.9671-3.739-1.8894-7.815-2.7499-11.736-4.0856-3.27-1.1142-6.479-2.4269-9.786-3.4211-3.208-.9643-6.493-1.6864-9.763-2.4177-6.548-1.4626-13.225-1.9194-19.888-2.5515-7.408-.7013-14.82-1.1673-22.249-.985-4.62.113-9.245.5213-13.843 1.0381-5.161.5813-10.308 1.3403-15.43 2.2123-2.652.4522-5.2439 1.2827-7.8474 1.9978-3.1209.8582-6.2672 1.661-9.3284 2.7014-3.3464 1.1397-6.6605 2.4039-9.8942 3.8295-4.8068 2.1178-9.655 4.194-14.2594 6.7017-6.2926 3.4281-12.7484 6.607-18.3924 11.1655-2.4724 1.9978-5.299 3.5458-7.9324 5.3498-1.1407.782-2.1964 1.6863-3.1347 2.7637.8187-.496 1.6329-.9989 2.454-1.4903 4.9517-2.9667 9.862-6.0072 14.8735-8.8678 3.8546-2.2008 7.8219-4.2079 11.7663-6.2449 3.6499-1.8848 7.3183-3.7349 11.0143-5.5251 2.6333-1.2734 5.3173-2.4453 8.0059-3.6034.5129-.2215 1.1408-.1753 1.7158-.2538.0575.1246.115.2492.1725.3738-.4554.3944-.8533.9112-1.3754 1.165-6.4351 3.1166-12.9278 6.1156-19.3238 9.3107-3.9398 1.9678-7.7921 4.1294-11.5916 6.3579-6.0602 3.555-12.0883 7.1722-18.0496 10.8933-3.7995 2.3715-7.6564 4.7269-11.1086 7.5529-2.9416 2.4084-5.3427 5.479-7.9738 8.2657-.138.1454-.1863.3737-.3335.3853 5.2231-3.5734 10.4025-7.2115 15.6808-10.6995 4.3721-2.8906 8.7995-5.712 13.3142-8.3719 4.5147-2.6622 9.1674-5.0891 13.7626-7.6105 1.8331-1.0059 3.6431-2.0624 5.5198-2.976 4.4112-2.1454 8.8363-4.2655 13.2981-6.3025 4.7746-2.1824 9.5492-4.3763 14.4158-6.3371 2.9945-1.2066 6.1615-1.9932 9.2525-2.9552.1633-.0508.3634.0092.6808.2999-.5957.3322-1.1637.7382-1.7939.9874-4.1744 1.6517-8.3786 3.2227-12.5345 4.9183-2.0078.819-3.8616 2.0393-5.8993 2.7591-4.5722 1.6125-8.7557 4.0233-13.0497 6.1895-4.9793 2.5122-9.7769 5.3821-14.7378 7.9335-11.4489 5.8919-22.1297 12.9949-32.5506 20.5132-2.4356 1.7579-4.8091 3.6081-7.1412 5.502-.8487.6898-1.49033 1.6357-2.2286 2.4638.0736.0831.1495.1661.22309.2515.55888-.3045 1.11541-.6113 1.67431-.9159l.115.1684c-1.71111 1.841-3.45444 3.6542-5.12417 5.5321-1.69274 1.9009-2.75989 4.1594-3.59016 6.909 2.24241-2.4198 3.98804-4.9828 6.85143-6.33-2.79439 3.7372-6.44665 6.845-8.07728 11.422-.400185-1.8-.551979-3.583.0851-5.267 1.10395-2.9184 2.25391-5.832 3.56945-8.6603 4.75621-10.2266 12.41033-18.024 21.03033-24.9933 3.8708-3.1305 7.5989-6.4594 11.6353-9.3592 6.5087-4.6761 13.1738-9.1562 20.3243-12.8127 5.8877-3.0128 11.8077-5.9795 17.8288-8.7109 3.3188-1.5041 6.8584-2.5376 10.3312-3.6749 3.4361-1.1258 6.8952-2.1939 10.3841-3.1398 2.1987-.5952 4.4711-.9181 6.7091-1.3703.522-.1061 1.037-.2468 1.858-.4429-.635-.8374-1.065-1.954-1.743-2.1362-.603-.1615-1.914-.3069-2.385.9504-1.8264-.7082-3.5076.2169-5.1751.7152-5 1.4925-9.9793 3.0728-14.8988 4.8122-2.8978 1.0243-5.6922 2.3554-8.4889 3.645-5.2576 2.4245-10.5773 4.743-15.6992 7.4329-4.6642 2.4499-9.218 5.1352-13.4016 8.4041-1.8192 1.4211-3.9558 2.4315-5.7727 3.8549-4.6872 3.668-9.6734 6.9438-14.0134 11.0756-6.2833 5.9818-12.3988 12.1136-17.76906 18.9421-1.68583 2.1432-3.09567 4.5008-4.638912 6.757-.188593.2769-.420883.526-.90616394.7106.04829804-.3138.00919963-.676.15639394-.9297 1.276452-2.2008 2.589692-4.3809 3.886842-6.5725.46228-.782.86017-1.6033 1.36615-2.353.56578-.8374 1.18215-1.6449 1.84222-2.4108 2.6311-3.0613 5.15873-6.2287 7.96693-9.117 3.0381-3.1258 6.2833-6.0602 9.5561-8.9439 7.5092-6.6232 15.4186-12.7135 24.2617-17.4704 6.8468-3.6841 13.7259-7.3106 20.6578-10.8333 2.2953-1.165 4.7884-1.9378 7.201-2.8652 2.7323-1.0497 5.4462-2.1639 8.2245-3.0798 2.9277-.9666 5.9222-1.7278 8.8868-2.5883.3128-.09.6072-.2353.9292-.3622-1.0626-1.8594-1.0511-1.8086-2.8887-1.3911-6.449 1.4695-12.6472 3.7142-18.65 6.4271-5.1426 2.3254-10.0966 5.0683-15.1334 7.6244-3.2198 1.6333-6.3891 3.3797-9.6757 4.863-3.436 1.5503-6.3615 3.8526-9.448 5.9242-2.8381 1.9055-5.7406 3.728-8.4637 5.7904-2.815 2.1316-5.568 4.3808-8.1347 6.8031-3.8064 3.5919-7.4678 7.3407-11.104 11.1102-2.19411 2.2723-4.21572 4.7107-6.32244 7.0684-.14029.1592-.33349.2699-.59568.3345 1.01886-1.5041 1.35925-3.3289 2.84729-4.6392 1.30405-1.1512 2.06762-2.8975 3.28883-4.1686 4.0548-4.2217 8.1187-8.4434 12.3574-12.4759 2.6058-2.48 5.4347-4.7615 8.3441-6.8793 4.2939-3.1235 8.6891-6.1179 13.1578-8.9831 2.6127-1.6749 5.4163-3.066 8.1992-4.4547 7.4517-3.7211 14.8735-7.5206 22.4425-10.9879 3.4429-1.5756 7.2171-2.4154 10.821-3.645 1.9411-.662 3.8409-1.4441 5.759-2.1731-.8487-1.6033-1.2213-1.7994-2.8266-1.2411-5.9729 2.0739-11.971 4.074-17.8841 6.3094-2.2838.8628-4.3376 2.3254-6.534 3.435-4.5032 2.2793-9.0732 4.4293-13.5396 6.7778-3.528 1.8548-7.0216 3.8041-10.3956 5.9265-8.6936 5.4743-16.8054 11.74-24.5331 18.5131-.3312.2907-.6876.549-1.1223.7313 1.4144-2.27 2.7737-4.54 4.9149-6.2426 4.8206-3.8295 9.3836-8.0211 14.4296-11.5208 4.9839-3.4557 10.0759-6.8308 15.6049-9.4445 3.5004-1.6541 6.9227-3.4789 10.3795-5.2252 2.4448-1.2342 4.7976-2.7429 7.3689-3.6034 1.9066-.6367 3.6499-1.4626 5.4392-2.3231 2.6334-1.2665 5.4048-2.2746 8.1739-3.2251 2.2286-.7659 4.5423-1.2849 6.8169-1.9194.2484-.0692.483-.1891.7245-.286-.7659-1.6218-1.0119-1.7487-2.5092-1.4465-5.2645 1.0566-10.2277 2.9644-15.0759 5.2368-6.7479 3.1628-13.5763 6.1572-20.2599 9.4468-4.4273 2.1801-8.7189 4.6554-12.9669 7.1746-3.0335 1.7994-5.9383 3.8272-8.8109 5.8803-1.6306 1.165-3.0796 2.5815-4.6182 3.878-.184.1546-.4048.263-.7521.2422.9798-1.1696 2.0377-2.2862 2.9278-3.5204 1.9825-2.7521 4.931-4.2978 7.6426-6.0626 4.6734-3.0405 9.4342-5.9818 14.3606-8.5817 5.1311-2.7107 10.5014-4.9692 15.7682-7.4214.7912-.3691 1.5915-.7175 2.4103-1.0866.3036.2745.5888.5329.9131.8282.7566-2.2308 2.8288-2.5215 4.4572-3.1489 4.54-1.7487 9.1444-3.3543 13.7994-4.7662 3.9973-1.2134 8.1003-2.0854 12.1527-3.1074-.3771-.9528-1.3822-1.714-2.1297-1.5156-4.9724 1.3264-9.9425 2.6575-14.9057 4.0209-5.5543 1.5249-10.8969 3.5965-16.1246 6.0303-10.644 4.9576-21.3892 9.7053-30.9982 16.6214l-.1955-.2306c.3289-.3438.6187-.736.989-1.0243 5.706-4.4501 11.6007-8.6625 18.1485-11.7538 6.0143-2.8398 12.2034-5.3221 18.3694-7.8274 3.8409-1.5618 7.7392-3.0059 11.6881-4.2632 3.627-1.1558 7.3505-2.0209 11.0442-2.95289 1.7318-.43601 3.5028-.72207 5.253-1.09117.3243-.06691.6325-.20071 1.3431-.42909-.7612-.51445-1.3063-.88125-1.8491-1.25036.0828-.15225.1633-.30451.2461-.45677 2.04 1.96781 4.305 1.71174 6.617.8997-1.065-1.89168-3.123-2.68295-5.649-2.03932-4.9537 1.26189-9.9353 2.42919-14.8272 3.90563-5.7912 1.74867-11.5249 3.70257-17.2264 5.73267-2.063.7336-3.9443 1.9702-5.9314 2.9321-2.4011 1.1627-4.8229 2.2793-7.2424 3.4051-.1886.0876-.414.0922-.6233.1338l-.1058-.2999zm91.7457-.586c-1.116.1408-1.868.6091-1.824 1.7487.032.842-.354 1.0773-1.095 1.0566-.241-.0069-.487.0876-.766.143.523 1.4834 1.139 2.5861 2.965 2.4223 1.518-.1361 3.061-.0231 4.593.0392 1.04.0438 2.077.1892 3.5.3276-.676-1.0451-1.018-2.2308-1.655-2.4177-1.325-.3922-2.804-.2561-4.267-.3391-.021.323-.037.586-.057.8489-.076.9413-1.001.8651-1.212.556-.506-.7382-.757-1.6656-1.017-2.5445-.041-.1407.396-.5929.639-.6183 1.238-.1199 2.484-.1499 3.729-.2053.273-.0115.549 0 1.205 0-.681-.8143-1.058-1.6979-1.629-1.8478-.989-.263-2.097-.0739-3.185-.0739.023.2838.044.5445.071.9067zm35.377-12.15285c-1.189-1.368-2.003-3.16279-4.075-3.46269-2.613-.37834-5.228-.73822-7.845-1.0635-.679-.08535-1.378-.01384-2.068-.01384 1.645 3.01285 4.618 2.77523 7.332 3.25508-.356-.44293-.715-.88817-1.072-1.3311.063-.11535.125-.23069.187-.34835 1.86 2.80292 4.832 2.4638 7.541 2.9644zm-13.029-2.28847c-.973-1.40722-1.672-2.70372-3.595-2.74755-3.355-.07382-6.704-.37603-10.057-.57212-.338-.02076-.681.02999-.973.04384 1.833 2.47533 4.492 2.03932 7.171 2.34153-.421-.52829-.708-.88817-.996-1.25036.042-.11304.083-.22377.127-.33681 2.267 2.55608 5.324 2.04855 8.323 2.51917zm38.234 9.36382c-.766-1.1373-1.445-2.18-2.164-3.1951-.233-.3276-.525-.6967-.874-.842-1.226-.5052-2.477-.9597-3.742-1.36111-.987-.31374-2.008-.51906-3.013-.77282l-.209.30913c.669.60211 1.347 1.1927 2.003 1.8109.658.6229 1.18 1.5249 1.955 1.8663 1.934.8536 3.976 1.458 6.044 2.1847zm5.664 7.133c-.871-1.1927-1.511-2.127-2.219-3.0082-.37-.4614-.796-.9643-1.311-1.2065-1.127-.5306-2.323-.9159-3.496-1.3404-.784-.2837-1.582-.5375-2.44-.8258 2.118 3.6472 5.501 5.1375 9.466 6.3809zm48.731 34.454c1.251 1.1027 2.58 2.2746 3.891 3.4327.674-4.3278-2.647-5.6612-5.105-7.5252-.079 1.4903-.155 2.9275-.237 4.5331.485-.1476.917-.2768 1.453-.4383zm-15.798-14.2799c.51 3.7026 3.178 5.502 6.226 7.0177-.131-4.1663-3.034-5.7881-6.226-7.0177zm-31.808-27.6393c2.427 2.7937 4.333 6.2172 8.517 6.8377-.559-.8951-1.079-1.7671-1.64-2.6137-.375-.5675-.69-1.3173-1.233-1.6033-1.833-.9666-3.756-1.7602-5.646-2.6207zm-120.5012 2.0993c1.5386.8859 2.815.2538 4.494-.2884-.9269-.7174-1.7134-1.804-2.3183-1.7094-2.2792.353-4.5009 1.0889-6.6974 1.6679 1.1132 2.3277 2.7691 1.9102 4.5217 1.2135zm149.5742 18.5823c.587 2.1524 1.001 4.3301 3.503 5.1606 1.081.3599 2.003 1.2019 3.082 1.8778-.283-1.0773-.478-2.0093-.787-2.8975-.133-.3829-.439-.7797-.777-1.0012-1.654-1.0773-3.342-2.0993-5.021-3.142zm-8.006-1.7694c-.524-3.2805-3.962-6.5747-7.014-6.7224 1.961 3.1759 4.299 5.4167 7.014 6.7224zm-17.373 9.4769c-.513-2.104-1.302-3.1006-2.99-3.8918-1.421-.6667-2.836-1.3473-4.253-2.0232-.105.0923-.213.1845-.319.2768.492.9805.731 2.3715 1.525 2.8629 1.849 1.1443 3.965 1.8571 6.037 2.7753zm32.573-3.3289c.497 4.0186 3.377 5.6842 6.452 7.5759-.509-1.541-.587-3.1628-1.433-4.0302-1.387-1.4234-3.273-2.3577-5.016-3.5457zm-33.532-11.4724c-.969-1.6241-1.454-3.3473-3.393-3.961-1.419-.4475-2.766-1.1212-4.275-1.7486 1.244 3.1328 4.211 5.3451 7.668 5.7096zm-12.475-3.1005c1.111 3.7834 4.276 4.7569 7.489 5.8896-1.127-3.8549-4.396-4.7015-7.489-5.8896zm10.338-7.2161c-1.534-3.608-4.549-5.2898-8.429-6.0833 2.417 2.8213 4.756 5.442 8.429 6.0833zm5.534 17.0667c-.58-2.3162-1.81-3.9702-4.131-4.7269-1.049-.3414-2.033-.8905-3.178-1.4049.554 1.1004.959 2.0485 1.497 2.9136.285.4591.74.8951 1.221 1.1327 1.486.7405 3.018 1.3796 4.591 2.0832zm22.189 2.8352c.065-.0415.129-.0854.193-.1269-.57-1.2204-.857-2.7545-1.777-3.5873-1.445-1.3103-3.317-2.1523-5.007-3.1904.273 1.0288.823 1.8524 1.122 2.759.288.8744.787 1.4234 1.552 1.8502 1.321.7382 2.613 1.5272 3.915 2.2954zm-42.224-9.4469c.681 1.112 1.123 2.5607 2.098 3.2528 1.32.9389 3.052 1.2965 4.629 1.9147-.731-3.7003-3.622-4.5054-6.727-5.1675zm-2.084-16.7852c-1.796-3.44884-4.733-4.44082-8.13-4.30702 1.953 2.7291 4.86 3.81102 8.13 4.30702zm-8.288-2.15004c-1.033-1.06349-1.808-2.41074-2.956-2.92057-1.755-.77743-3.767-.97583-5.807-1.45336 2.226 3.05206 5.283 4.0302 8.763 4.37393zm25.117 27.69464c-.596-2.6414-4.115-5.3866-6.845-5.4143.332.7382.612 1.4902 1.003 2.1777.228.4014.575.8259.975 1.022 1.569.7705 3.181 1.4556 4.869 2.2146zm-20.021-21.4613c-1.58-3.1697-4.296-4.8215-7.468-4.6208 1.413 3.2343 4.559 3.6657 7.468 4.6208zm8.581 11.823c-1.529-3.3612-4.029-5.1629-6.814-5.0822.88 3.3889 3.863 4.0948 6.814 5.0822zm15.543 13.6824c.409 1.6771.563 3.0728 2.286 3.7487 1.465.5745 2.774 1.5503 4.299 2.4361-.863-3.6103-3.586-4.8376-6.585-6.1848zm47.861 16.2177c-.099.0576-.195.1153-.294.1707.386 1.3634.473 2.9436 1.246 4.0302.784 1.1027 2.247 1.7186 3.583 2.6691-.165-1.0543-.259-1.8455-.425-2.623-.101-.466-.189-1.0519-.504-1.3334-1.15-1.0289-2.394-1.9516-3.604-2.9136zm-8.597-3.7119c.191-2.6022-2.095-5.442-5.269-6.5401 1.191 3.7949 1.743 4.4777 5.269 6.5401zm-31.316-24.8871c-1.014-3.3289-3.578-4.8653-6.713-5.9288 1.518 2.8975 3.305 5.3105 6.713 5.9288zm11.884 8.6856c.736 3.465 3.022 5.389 6.09 6.9507-.556-1.4026-.747-2.8928-1.582-3.7556-1.242-1.2827-2.939-2.1224-4.508-3.1951zm-38.367-18.3609c1.132 2.7545 4.151 4.8561 6.868 4.9138-1.033-3.3381-3.929-4.0325-6.868-4.9138zm-5.904 14.7228c-1.125-4.0924-2.859-4.1593-5.761-4.1801.297.6921.577 1.398.904 2.0785.14.2907.326.6852.582.7752 1.357.4729 2.741.8628 4.275 1.3288zm72.065 31.7434c-.043-1.5434-.186-2.7383-1.467-3.7326-.952-.7383-2.672-1.1028-2.35-3.0406-.286-.023-.603-.0484-1.056-.083.186 1.3703-.347 2.7983.793 3.7857 1.247 1.0773 2.634 1.9931 4.083 3.0728zm-63.279-31.4204c.241.8121.377 1.4372.614 2.0232.163.4014.382.9251.72 1.0819 1.412.6621 2.877 1.2089 4.324 1.7971.078-.0784.154-.1568.232-.233-.453-.9689-.658-2.3023-1.417-2.8283-1.258-.8697-2.875-1.218-4.473-1.8409zm39.204 18.8891c.262-3.7257-2.769-4.5746-5.248-6.2517.273.9112.434 1.6056.694 2.2608.216.549.428 1.2111.856 1.541 1.161.8905 2.438 1.631 3.698 2.4499zm34.207 15.581c-.046-.7705-.044-1.3357-.125-1.8893-.092-.6275-.05-1.4626-.43-1.8248-1.097-1.0474-2.376-1.9009-3.647-2.8814.237 3.3289 1.051 4.63 4.202 6.5932zm-91.42-44.8259c.824 3.3774 3.788 3.3958 6.282 4.2378-.72-2.7129-2.776-4.0809-6.282-4.2378zm34.37 1.2527c-1.272-3.1051-3.67-4.8492-6.824-5.7189 1.353 3.0175 3.715 4.7938 6.824 5.7189zm-21.007 5.4651c-1.203-3.1951-3.261-4.7638-6.122-4.6485.731 1.1373 1.193 2.4477 2.116 3.1282 1.048.7752 2.509.9874 4.006 1.5203zm-14.363-16.0355c1.854 2.0347 3.62 4.2102 6.739 3.9864-.911-3.5573-3.928-3.6034-6.739-3.9864zm17.417 21.669c-1.276-3.1028-3.415-4.6484-6.085-4.4685.375.7151.731 1.428 1.124 2.1201.198.346.398.8304.711.9481 1.366.5168 2.771.9251 4.25 1.398zm65.536 40.3205c.173-1.751.456-3.2228-1.306-4.1456-.755-.3944-1.348-1.1004-2.024-1.6517-.2-.1638-.437-.2815-.759-.4845 0 .7752-.053 1.3519.016 1.9148.055.4475.126 1.0196.419 1.2895 1.104 1.0266 2.297 1.9517 3.654 3.0775zm-75.389-60.2547c1.413 2.9691 3.894 4.1756 6.891 4.5216-1.129-3.262-4.08-3.7395-6.891-4.5216zm-12.359-6.88844c1.55 2.39924 4.383 3.87564 7.12 3.76494-1.384-3.0037-4.14-3.51579-7.12-3.76494zm-4.897 16.37224c.646 1.0681 1.178 1.9609 1.73 2.8399.089.143.253.2999.407.3345 1.377.3068 2.762.5882 4.151.8789-.846-3.4442-3.659-3.465-6.288-4.0533zm-8.769-18.50384c.977.932 1.844 1.77864 2.737 2.5953.202.18455.494.37374.749.38064 1.205.0392 2.415.0185 3.604.0185-1.12-2.19393-3.829-3.37969-7.09-2.99444zm87.665 48.22864c.06-2.6091-2.164-5.216-4.767-5.712-.097 3.3105 2.594 4.2309 4.767 5.712zm-57.001-41.7323c1.265 2.9021 3.715 3.9979 6.587 4.3924-1.127-3.1075-3.732-3.9564-6.587-4.3924zm-32.148-2.0232c1.767 2.4084 3.899 3.4558 6.654 3.2666-1.461-2.5814-3.51-4.0071-6.654-3.2666zm95.246 48.4016c.352-2.5953-1.502-5.036-4.57-6.1987-.115 3.2459 2.383 4.5539 4.57 6.1987zm-75.722-43.0818c-1.129-2.5653-3.372-3.9149-6.297-3.8503 1.106 2.8168 3.404 3.7718 6.297 3.8503zm-72.898-13.6109c2.5 2.18004 4.262 2.51455 7.268 1.39107-2.045-2.40381-4.63-2.07162-7.268-1.39107zm60.472 17.9341c.625.8235.993 1.8178 1.637 2.0554 1.539.5629 3.206.7682 4.917 1.1373-1.011-2.969-2.233-3.2274-6.554-3.1927zm-35.695-19.6643c2.033 2.68757 4.768 2.52609 7.594 2.34384-1.929-2.927491-4.825-2.25848-7.594-2.34384zm126.783 63.1245c-.182 1.5987-.053 2.8398 1.345 3.7049.828.5121 1.511 1.2573 2.27 1.8847.32.263.665.496 1.07.7936.177-1.6471-.184-2.8167-1.521-3.7003-1.092-.7221-2.017-1.6933-3.167-2.6852zm6.743 10.3258c-.108.053-.214.1038-.322.1568.113.9666-.09 2.1593.407 2.8468.853 1.1834 2.144 2.0532 3.25 3.0567.115-.06.23-.12.345-.18-.184-1.1004-.065-2.4061-.63-3.2458-.727-1.0751-2.008-1.7717-3.05-2.6322zm-87.201-47.4328c.573 2.5169 2.792 4.0348 5.777 3.8365-.97-1.052-.945-2.7199-2.557-3.1259-1.058-.2676-2.132-.473-3.22-.7106zm-7.385-8.0488c-1.479-2.7199-2.755-3.3474-6.479-3.1721.819.9736 1.373 2.1778 2.277 2.5723 1.198.5236 2.67.4152 4.2.5975zm62.905 20.234c-.532-3.2481-2.298-5.0844-5.021-5.3267.389 2.9183 2.622 4.1663 5.021 5.3267zm-21.185-4.3762c.621 1.7209 1.169 3.0244 2.746 3.6195 1.164.4384 2.24 1.1051 3.356 1.6703-.205-1.0635-.393-2.2262-1.063-2.6876-1.472-1.0151-3.187-1.6771-5.039-2.5999zm-48.877-10.6142c.749 1.1027 1.152 2.3392 1.966 2.7406 1.157.5698 2.613.526 4.294.8005-.674-1.0265-1.125-1.7532-1.621-2.4453-.157-.2169-.419-.4522-.665-.496-1.185-.2145-2.381-.3668-3.977-.6021zm-32.337-2.18c.515.902.816 2.1293 1.361 2.2515 1.36.3022 2.832.0992 4.258.0992.069-.1176.138-.2353.209-.3529-.541-.6667-.978-1.7372-1.645-1.9079-1.212-.3114-2.562-.0876-4.183-.0876zm108.698 35.9627c.219-3.4005-2.596-4.0602-4.774-5.4167.004 2.2354 2.155 4.6185 4.774 5.4167zm-78.008-49.09146c-1.396-2.66451-3.627-3.29891-6.332-2.77524 1.348 2.3623 2.181 2.7291 6.332 2.77524zm78.036 41.48776c-.127 2.6138 1.766 4.9115 4.349 5.4098.347-3.239-2.387-3.9633-4.349-5.4098zm-138.866-46.92519c3.767 2.41304 4.39 2.56069 7.129 1.74173-1.446-2.1293-3.781-2.71987-7.129-1.74173zm24.192-2.17313c1.898 2.53531 4.451 2.15467 7.052 1.92167-1.847-2.72217-4.427-2.30462-7.052-1.92167zm52.466 16.50602c.837 2.4754 2.831 3.6773 5.839 3.6012-.929-2.8145-3.286-3.3197-5.839-3.6012zm52.222 24.2712c-.433-2.5953-2.912-5.0521-5.449-5.4005 1.152 2.9437 2.762 4.54 5.449 5.4005zm38.024 27.3487c.166-2.5792-1.104-4.404-3.924-5.6428-.142 2.6622.957 4.2425 3.924 5.6428zm-94.982-54.3582c-1.092-2.5953-3.019-3.638-5.708-3.3912.393.5053 1.019 1.1812 1.493 1.9517 1.028 1.6771 2.589 1.571 4.218 1.4395zm44.688 17.6872c.834 2.7222 3.233 4.9761 5.289 5.1768-.156-3.2389-2.84-3.9449-5.289-5.1768zm29.684 27.8308c-.174.0992-.349.2007-.524.2999.324.9112.412 2.0532 1.024 2.683 1.025 1.0565 2.385 1.7878 3.603 2.6552.042-.9527.076-2.067-.459-2.6552-1.045-1.1489-2.411-2.0024-3.644-2.9806zm-1.071-5.8411c-.348 3.4096 2.307 4.2101 4.291 5.6173-.062-1.0196.026-2.2492-.545-2.8652-1.026-1.1027-2.447-1.8363-3.746-2.7544zm-.722 7.3314c.096-.0254.195-.0485.292-.0738-.191-.8697-.097-2.0324-.628-2.5469-1.189-1.1534-2.689-1.9816-4.062-2.9436l-.274.1961c.233.8489.207 1.9609.75 2.4891 1.15 1.1212 2.597 1.9379 3.922 2.8791zm11 3.059c.524-3.3289-2.093-4.2725-4-5.8527-.326 3.2136 1.79 4.5631 4 5.8527zm-20.274-18.9007c-.292-2.6345-2.242-4.8261-4.892-5.5481.402 1.844 2.033 3.6933 4.892 5.5481zm-79.073-22.7371c.58.9689.89 2.1893 1.605 2.5192 1.095.5029 2.471.3922 3.828.5537-1.424-3.0913-2.107-3.4835-5.433-3.0729zm117.588 48.4501c-.281 3.0175.324 4.1502 2.98 5.6728.032-.4753-.009-.9366.104-1.3542.34-1.2411-.049-2.127-1.12-2.8098-.663-.4222-1.254-.9574-1.964-1.5088zm-161.705-69.8745c2.146 1.79018 4.46 2.53301 7.144 1.59409-1.932-2.53993-4.506-2.07162-7.144-1.59409zm164.363 86.4129c.124-.0715.251-.143.375-.2145-.108-1.1097.071-2.3693-.407-3.2851-.471-.902-1.61-1.4534-2.707-2.3669 0 1.3357-.338 2.5076.081 3.2435.593 1.0427 1.745 1.7625 2.658 2.623zm-9.011-13.6824c.336-2.5538-.844-4.1755-3.726-5.2506-.11 2.4915.573 3.465 3.726 5.2506zm1.518 3.7834c0 1.1557-.359 2.3761.085 3.1028.64 1.0473 1.863 1.7371 2.894 2.6276.637-2.8352.103-3.8872-2.979-5.7304zm-27.199-28.4191c.072-3.2251-2.306-4.194-4.519-5.3913-.09 3.2251 2.475 4.0718 4.519 5.3913zm30.359 23.5399c.205-2.9275-1.159-5.0175-3.365-5.3844-.574 2.7799 1.3 4.0787 3.365 5.3844zm-144.358-61.798c-1.787-2.33-3.459-2.92514-5.432-1.9332 1.536 2.3762 3.362 3.0244 5.432 1.9332zm98.749 30.9198c.156 2.8167 1.837 4.3693 4.294 5.2598-.164-2.6368-.858-3.4927-4.294-5.2598zm-55.893-25.9506c1.539 2.7752 2.896 3.5665 5.794 3.2204-.856-1.0312-1.454-2.2308-2.42-2.7729-.908-.5098-2.203-.323-3.376-.4498zm49.028 22.2387c.082 2.1363 2.617 4.6162 5.004 4.893-1.118-2.9551-1.92-3.7418-5.004-4.893zm-90.902-29.1503c1.233 2.4846 3.408 2.1939 5.635 1.9517-1.281-2.3854-2.871-2.91137-5.635-1.9517zm12.254-.1869c1.269 2.42 3.123 3.2274 5.356 2.3969-1.016-2.4061-2.872-3.06586-5.356-2.3969zm72.136 16.28c.707 3.2228 3.492 3.8365 5.69 5.2391-.706-3.0867-3.13-4.1271-5.69-5.2391zm-62.916-3.2412c.313.6413.538 1.1535.81 1.6402.188.3415.393.8767.667.9297 1.067.2076 2.166.2584 3.3.3737-1.205-3.3335-1.219-3.1397-4.777-2.9436zm18.257-15.21649c1.134 2.21929 3.592 3.46039 6.131 3.21819-1.053-2.81217-3.631-2.82832-6.131-3.21819zm-39.179-2.46611c1.964 1.81325 4.039 3.05899 6.702 2.1985-1.541-2.80061-4.158-2.29078-6.702-2.1985zm55.124 14.4298c.844 2.7014 2.834 3.705 5.398 3.9287-.874-2.6368-2.914-3.5665-5.398-3.9287zm-63.084-7.3775c-1.171-2.3946-3.231-3.05209-5.253-1.7556.918 1.9078 2.068 2.3023 5.253 1.7556zm134.982 58.7643c.538-2.3046-.29-3.458-3.83-5.2736.163.9643.032 2.0347.504 2.5745.92 1.0497 2.178 1.8018 3.326 2.7015zm-149.389-46.7798c1.38 2.5007.69 2.1062 3.333 1.8017.589-.0669 1.175-.173 1.792-.263-.897-1.7071-2.216-2.3315-3.956-1.8732-.368.0969-.732.2099-1.169.3368zm114.688 20.8131c.335 1.0842.335 2.1546.846 2.5284 1.338.9804 2.9 1.6586 4.409 2.4799-.262-3.2481-2.946-3.6865-5.255-5.0083zm-68.982-34.6155c.798.9436 1.357 2.0693 2.259 2.5399.911.4753 2.16.3023 3.42.4291-1.571-2.8421-2.599-3.3612-5.679-2.969zm-22.711-2.94593c-1.741-1.54333-3.485-3.20893-6.097-1.98626 1.504 2.35768 3.578 2.95748 6.097 1.98626zm10.614 4.82613c-1.267-2.5261-2.864-3.23896-5.398-2.4961 1.753 2.4638 1.925 2.5468 5.398 2.4961zm16.168 2.8952c.757 2.24 2.668 3.1235 5.435 2.5976-.975-2.5746-3.158-2.6438-5.435-2.5976zm68.947 19.8649c-.888-2.7591-2.689-4.4247-5.341-5.1837.481 3.0406 3.126 3.8203 5.341 5.1837zm-51.369-13.1679c.398 2.8121 2.661 3.1051 4.867 3.5434-.752-2.6968-1.803-3.4419-4.867-3.5434zm-64.717-11.0987c1.187 2.0993 2.606 2.5423 5.522 1.7902-.282-.3806-.494-.782-.811-1.0612-.479-.4221-1.012-1.0312-1.56-1.075-1-.0784-2.026.203-3.151.346zm168.402 70.4375c-.085 2.8398.757 4.3208 2.948 5.2713.338-3.1167-.013-3.7603-2.948-5.2713zm.297 5.645c0 1.0773-.322 2.3116.089 3.2113.419.9158 1.557 1.4995 2.491 2.3276.285-3.4004-.251-4.48-2.58-5.5412zm-153.634-64.4348c.2.5329.31 1.0243.559 1.428.172.2815.526.609.816.6275 1.12.0738 2.247.03 3.438.03-.742-2.5053-1.704-2.8952-4.816-2.0855zm-10.373 3.1328c1.283-.2168 2.597-.4383 3.974-.669-1.177-1.9678-2.615-2.3692-5.103-1.5133.361.699.72 1.3911 1.129 2.1823zm3.344-17.4588c-.908-2.03471-3.013-2.52839-5.777-1.42337 1.463 2.22849 3.636 1.74173 5.777 1.42337zm-17.948 2.3577c-1.104-1.93784-1.603-2.04627-5.7225-1.00353.9476 1.71633 2.0815 1.91473 5.7225 1.00353zm9.128 2.5307c.06-.1084.12-.2192.179-.3276-.68-.5421-1.324-1.4695-2.051-1.541-1.185-.1177-2.426.3206-3.666.5283.849 1.6563 2.021 2.1292 3.65 1.601.596-.1938 1.258-.18 1.89-.2607zm1.074 6.3025c1.182 1.8525 2.949 2.2723 5.467 1.3519-.354-.4637-.658-.9413-1.042-1.3381-.255-.2629-.648-.6067-.947-.579-1.13.1061-2.245.3507-3.478.5629zm8.119-13.35941c1.649 1.97011 3.434 2.46841 5.552 1.58716-1.309-2.3669-3.317-2.38767-5.552-1.58716zm.483-4.25628c2.249 1.84092 3.112 2.0647 6.097 1.62407-1.336-1.9978-3.577-2.62297-6.097-1.62407zm-12.917 7.84819.113-.28608c-.713-.466-1.403-1.27574-2.141-1.31957-1.207-.07382-2.447.35066-3.673.5652-.025.15687-.048.31143-.074.46831.739.42216 1.465 1.16034 2.218 1.19034 1.175.0462 2.368-.3875 3.555-.6182zm46.962 3.1097c-1.226-2.0255-2.766-3.35887-5.266-2.6114 1.207 1.9885 2.773 3.2574 5.266 2.6114zm-3.792-6.71776c2.242 2.4661 2.767 2.67142 5.377 2.15467-1.164-2.0993-2.893-2.81445-5.377-2.15467zm-36.553 11.18396c-.632-2.0255-2.231-2.4315-5.554-1.2849.78.6136 1.375 1.4464 2.077 1.5525 1.118.1661 2.307-.1522 3.477-.2676zm-14.45-4.4385-.03.3253c.61.4775 1.191 1.3057 1.835 1.3564 1.162.0946 2.362-.2722 3.547-.4475.055-.1084.108-.2145.163-.323-.628-.5306-1.226-1.4556-1.886-1.5018-1.191-.083-2.417.3622-3.629.5883zm135.152 41.1187c.057-2.9321-2.59-3.3612-4.317-4.7731-.039.2123-.081.3138-.076.4153.113 1.7048 2.24 3.8087 4.393 4.3578zm-90.821-46.40618c-.998-1.98857-2.473-2.49148-5.589-1.95628 1.242 2.24003 3.275 2.42458 5.589 1.95628zm127.132 66.32188c-.237 2.6276.545 3.9448 2.941 5.066.502-2.3808-.099-3.4373-2.941-5.066zm-120.955-65.82589c-1.184-2.54685-3.275-2.57915-5.552-2.30462 1.339 2.20773 3.367 2.42919 5.552 2.30462zm-29.42 15.03189c.561.6575.991 1.6403 1.63 1.8041 1.029.263 2.197-.0139 3.391-.0669-.976-2.3877-1.981-2.7084-5.021-1.7372zm37.217-5.615c-1.332-2.3531-2.744-3.0405-4.871-2.4777.658 2.6069 2.734 2.5054 4.871 2.4777zm118.057 60.5407c-.339 2.819.062 3.5757 2.585 4.9968.513-2.5399.094-3.3727-2.585-4.9968zm-145.69-59.8117c-.063.1361-.127.2722-.189.4083.451.5052.846 1.3657 1.366 1.4488 1.313.2099 2.682.0692 4.425.0692-.74-.8098-1.177-1.7279-1.773-1.8502-1.231-.2515-2.548-.0761-3.829-.0761zm-12.395.3599c.378.955.7 1.9124 1.576 2.0093 1.131.1269 2.309-.1615 3.468-.2722l.205-.3899c-.578-.5052-1.095-1.3173-1.746-1.4464-1.051-.2077-2.189.0346-3.505.0992zm2.664-1.9333c-1.233-2.0393-2.652-2.3784-5.474-1.3264.598.6667.821 1.7025 1.966 1.6402 1.139-.0623 2.273-.2007 3.505-.3138zm46.389 5.8089c-.525-2.0163-2.514-2.9506-5.122-2.4038 1.021 2.1593 1.442 2.3577 5.122 2.4038zm-58.908-14.87969c1.192 1.94935 2.192 2.20539 5.244 1.34033-1.656-2.13853-1.916-2.30924-5.244-1.34033zm-8.903 7.40989c-1.134-1.9033-1.283-1.9678-3.2012-1.488-.6439.1615-1.2902.3183-2.2079.5444.9131.6806 1.5847 1.5687 2.3459 1.6518.9706.1061 2.0122-.436 3.0612-.7082zm40.196-13.39175c2.498 2.06239 4.411 2.59991 6.072 1.85938-1.447-2.1639-3.63-2.15467-6.072-1.85938zm-36.212 23.47525c1.09 2.1501 1.191 2.2101 3.224 2.0301.076-.0069.166.0162.228-.0184.375-.2076.745-.4291 1.115-.646-.462-.5421-.855-1.4349-1.405-1.5456-.966-.1961-2.028.0877-3.16.1799zm-.821-6.2886c-.959-2.0578-1.843-2.2654-4.929-1.1835.428.5029.816 1.0127 1.27 1.4649.177.1776.508.3368.738.2999.975-.1499 1.939-.3783 2.921-.5813zm49.519-14.94201c-1.999-2.04625-3.795-2.61836-6.29-2.08316 1.667 1.86631 3.799 2.23772 6.29 2.08316zm-48.581 12.68121c.853 1.8916 1.826 2.1616 5.12 1.3241-.75-.6828-1.3-1.5917-1.99-1.714-.98-.1753-2.063.2284-3.13.3899zm46.493 2.3161c.644 2.1086 2.116 2.8076 4.399 2.1639-.966-2.2308-1.361-2.4292-4.399-2.1639zm6.058.2953c.74 2.2862 1.984 2.8721 4.519 2.3-.552-2.5538-2.661-1.9886-4.519-2.3zm-21.268-4.4639c.732 1.7256 2.569 2.2931 4.759 1.5249-1.24-1.8617-2.187-2.1778-4.759-1.5249zm-29.344 7.6267c-.479-.556-.869-1.4164-1.323-1.4534-1.147-.0922-2.327.1869-3.608.3322 1.263 2.217 1.426 2.2493 4.931 1.1212zm16.217-7.7097c1.03 2.1754 2.672 2.6552 4.799 1.6379-.86-2.6045-2.994-1.2942-4.799-1.6379zm30.034 2.2054c-.835-2.217-1.874-2.683-4.462-2.0024.916 1.9355 2.01 2.4245 4.462 2.0024zm-45.343 3.4442c.666 1.3442 1.66 1.8548 2.983 1.5318.506-.1222 1.026-.1915 1.546-.286-.796-2.0509-1.063-1.9863-4.529-1.2458zm34.798-5.7004c.216 1.7671 1.973 2.5376 4.273 1.8709-.943-2.2077-1.469-2.4361-4.273-1.8709zm-16.778 3.9564c.738 1.8894 1.626 2.1754 4.506 1.5202-.688-1.8663-.785-1.917-4.506-1.5202zm-30.7957.1292c1.6698 1.9401 1.9918 2.0208 4.0272 1.015-.874-2.1177-2.0377-2.4107-4.0272-1.015zm43.8137-.4799c.512 2.0578 1.879 2.653 4.282 2.0209-.561-2.593-2.737-1.4418-4.282-2.0209zm-9.285-3.3796c.506.5836.883 1.4349 1.405 1.5387 1.148.2238 2.369.0692 3.648.0692-.853-1.954-2.123-2.3415-5.053-1.6079zm-27.838 8.7086c-.805-2.1685-1.803-2.4638-3.5812-1.1373.5382 2.2793 2.0652 1.6426 3.5812 1.1373zm-4.0274 1.0612c-.4024-1.5918-.8785-1.887-2.4264-1.5572-.5473.1177-1.2488.18-1.0349 1.0151.1702.6621.4278 1.3449 1.3891 1.0635.6831-.1984 1.3823-.3484 2.0722-.5214zm-2.8656-3.8272c-.7314-1.9401-1.886-2.2561-3.9053-1.075.9675 1.1196 2.2693 1.478 3.9053 1.075z"/><path d="m269.052 117.022c-.278-.263-.639-.475-.818-.794-1.061-1.88-2.141-3.753-3.101-5.686-2.651-5.35-4.868-10.8937-7.799-16.135-5.023-8.9855-11.301-16.9029-18.502-24.1928-3.144-3.1812-6.866-5.5297-10.375-8.1919-2.296-1.7417-4.605-3.518-7.102-4.9299-3.475-1.9632-7.093-3.6933-10.729-5.3474-3.701-1.6841-7.466-3.232-11.256-4.7061-3.866-1.5042-7.751-2.9852-11.709-4.2125-3.155-.9758-6.435-1.5456-9.657-2.3092-2.148-.5099-4.287-1.0658-6.438-1.5641-1.145-.2653-2.32-.413-3.459-.6967-.333-.0831-.595-.4545-.892-.6921.352-.1638.729-.5144 1.049-.466 2.302.3483 4.634.6113 6.876 1.2088 6.918 1.8479 13.839 3.7003 20.681 5.8066 5.637 1.7348 11.191 3.7464 16.433 6.5424 2.806 1.4972 5.865 2.5607 8.553 4.2332 4.28 2.6576 8.498 5.4698 12.461 8.5749 3.666 2.8721 7.098 6.0833 10.393 9.3869 3.761 3.7672 6.928 8.0511 9.973 12.4343 3.889 5.5989 7.309 11.4747 10.267 17.5926 2.019 4.173 3.532 8.593 5.25 12.912.131.33.099.727.145 1.093-.08.047-.161.093-.244.139z"/><path d="m275.354 118.777c-.207-.102-.499-.146-.607-.312-1.141-1.741-2.413-3.421-3.342-5.271-3.647-7.26-6.867-14.7413-11.131-21.6828-6.049-9.8414-12.848-19.0967-21.263-27.0603-4.71-4.4569-10.002-8.1503-15.584-11.4216-1.868-1.0957-3.749-2.1892-5.715-3.0889-4.306-1.9701-8.609-3.9749-13.025-5.6681-4.717-1.811-9.538-3.3612-14.358-4.8769-4.287-1.3472-8.639-2.4869-12.958-3.7349-.301-.0877-.563-.3068-.855-.4729.45-1.0058 1.179-.9389 1.897-.7382 3.636 1.015 7.275 2.0116 10.89 3.0935 2.914.8744 5.777 1.924 8.694 2.7845 5.814 1.7141 11.327 4.1086 16.679 6.9485 3.121 1.6563 6.393 3.0267 9.565 4.5931 3.595 1.7763 6.723 4.2401 9.915 6.6508 7.028 5.3083 13.017 11.6408 18.263 18.6216 5.454 7.2575 10.382 14.9142 14.58 22.9906 1.858 3.576 3.325 7.352 5.023 11.016.977 2.111 2.063 4.171 3.091 6.258.179.365.315.753.471 1.131-.076.081-.152.159-.228.24z"/><path d="m265.975 116.475c-.249.819-.488 1.64-.75 2.454-2.813 8.734-8.301 15.847-13.938 22.832-4.696 5.82-10.512 10.376-16.853 14.291-3.51 2.167-7.167 4.049-11.079 5.313-4.234 1.368-8.533 2.549-12.838 3.673-3.466.904-6.966 1.723-10.49 2.364-4.055.739-8.135 1.451-12.235 1.791-6.019.498-12.068.876-18.103.883-5.074.007-10.15-.565-15.221-.939-.766-.057-1.509-.436-2.263-.664.012-.111.023-.224.035-.335.503-.027 1.007-.097 1.508-.073 6.578.274 13.153.687 19.734.809 6.819.129 13.617-.406 20.322-1.716 5.273-1.034 10.528-2.189 15.756-3.437 3.142-.75 6.201-1.851 9.329-2.663 4.781-1.241 9.287-3.185 13.502-5.682 3.381-2 6.62-4.311 9.667-6.8 6.617-5.406 12.022-11.939 16.435-19.242 2.394-3.961 4.418-8.146 6.608-12.23.105-.196.195-.399.315-.583.053-.083.165-.127.25-.187l.309.145z"/><path d="m175.849 44.1888c1.23-1.1466 2.497-.3414 3.606-.0139 5.915 1.7395 11.867 3.4028 17.663 5.4975 5.209 1.8824 10.269 4.2078 15.327 6.487 2.937 1.3242 5.934 2.6645 8.569 4.487 5.709 3.9472 11.723 7.5091 16.778 12.3421 2.263 2.1639 4.483 4.3901 6.557 6.7339 2.282 2.5768 4.637 5.1537 6.488 8.035 3.349 5.2044 6.454 10.5773 8.781 16.3536 1.01 2.506 2.141 4.958 3.167 7.456.387.941.63 1.945 1.001 3.119-1.281-.164-1.741-1.077-2.121-1.871-1.198-2.498-2.263-5.061-3.424-7.58-3.945-8.5475-8.404-16.774-14.508-24.0177-5.84-6.9277-12.765-12.5336-20.481-17.1982-3.576-2.1616-7.164-4.3093-10.821-6.3302-2.146-1.1857-4.414-2.1569-6.663-3.1397-3.031-1.3242-6.037-2.7452-9.16-3.8018-4.398-1.488-8.901-2.6668-13.351-4.0025-2.298-.6898-4.584-1.4211-6.87-2.1524-.2-.0646-.357-.2653-.538-.4083z"/><path d="m270.329 118.842c-5.517 13.507-13.574 25.233-24.524 34.899-4.264 3.765-8.914 6.972-14.2 9.154-3.585 1.481-7.129 3.122-10.823 4.264-4.105 1.268-8.33 2.198-12.555 3.006-4.798.915-9.644 1.605-14.49 2.242-1.789.235-3.633.037-5.791.037.502-.245.732-.425.982-.471 6.429-1.146 12.88-2.185 19.285-3.446 3.728-.736 7.406-1.761 11.074-2.769 7.125-1.958 13.82-4.976 20.016-8.969 4.814-3.103 9.066-6.96 12.73-11.399 2.756-3.335 5.679-6.579 8.034-10.187 2.652-4.065 4.749-8.494 7.088-12.764.6-1.096 1.171-2.213 1.845-3.262.216-.337.724-.485 1.099-.72.076.129.152.256.23.385z"/><path d="m204.11 57.6055c.425.0461.906-.0208 1.267.1545 3.372 1.6541 6.755 3.2897 10.071 5.0522 2.983 1.5872 6.028 3.1236 8.791 5.0522 4.068 2.8398 7.999 5.9034 11.828 9.0639 5.347 4.4131 9.354 10.0397 13.107 15.7771 3.678 5.6173 6.587 11.6916 9.076 17.9456.354.89.572 1.834.936 3.017-1.767-.789-2.371-2.097-3.006-3.384-3.678-7.465-7.286-14.9695-11.918-21.9087-3.05-4.5654-6.983-8.305-11.056-11.9315-3.388-3.0151-6.953-5.7788-10.867-8.035-5.789-3.3404-11.67-6.5171-17.509-9.7721-.302-.1684-.561-.4084-.84-.616l.122-.4152z"/><path d="m23.5921 82.4524c.276-.3345.4945-.7474.8349-.9874 2.2585-1.601 4.5584-3.1443 6.8192-4.7453 3.006-2.127 5.897-4.427 9.0019-6.3902 3.2037-2.0255 6.6076-3.7326 9.9172-5.5897 2.684-1.5064 5.3151-3.112 8.0451-4.5262 6.9963-3.6265 13.9834-7.2829 21.0809-10.6995 3.4453-1.6587 7.1274-2.826 10.7222-4.1594.3634-.1338.8716.12 1.3132.1961-.345.4083-.6117 1.022-1.0487 1.1881-1.8124.6943-3.7328 1.128-5.5106 1.8916-2.6725 1.1489-5.253 2.5077-7.8841 3.7511-3.8523 1.8202-7.7599 3.5296-11.5593 5.4536-2.4333 1.2296-4.6803 2.8237-7.0745 4.1386-2.9922 1.6425-6.1431 3.0129-9.0571 4.7823-3.4935 2.1223-7.2861 3.6749-10.5773 6.2079-3.6246 2.7868-7.592 5.1283-11.4006 7.6752-.8188.549-1.5915 1.1673-2.4103 1.7186-.2806.1892-.6302.2792-.9476.4153-.0897-.1062-.1771-.2123-.2668-.3207z"/><path d="m274.533 119.175c-.193.609-.322 1.248-.591 1.82-3.958 8.381-8.211 16.607-13.74 24.073-2.203 2.975-4.804 5.658-7.291 8.418-.568.629-1.407 1.012-2.06 1.464 4.25-5.668 8.875-11.167 12.727-17.163 3.866-6.019 6.962-12.536 10.394-18.834.188.074.374.15.563.224z"/><path d="m260.14 150.992c7.15-10.169 13.192-20.99 18.871-32.054.437.973-.055 1.776-.423 2.542-1.718 3.582-3.342 7.22-5.276 10.683-2.611 4.672-5.38 9.262-8.278 13.761-1.256 1.949-3.001 3.583-4.526 5.357l-.37-.289z"/><path d="m150.477 172.012c5.457.24 10.913.574 16.373.694 5.448.12 10.899.025 16.437.185-.446.157-.885.422-1.341.452-3.811.261-7.629.692-11.44.655-4.661-.044-9.326-.424-13.978-.794-2.029-.161-4.032-.659-6.047-1.003l-.004-.187z"/><path d="m269.363 144.901c4.576-8.492 9.156-16.983 13.732-25.475l.283.06c-.156.648-.2 1.349-.485 1.933-2.111 4.358-4.156 8.755-6.449 13.016-1.757 3.269-3.834 6.367-5.8 9.52-.276.443-.734.771-1.109 1.151-.057-.069-.115-.138-.175-.207z"/><path d="m123.015 167.033c8.02 1.405 16.039 2.81 24.057 4.215 0 .115 0 .233.002.348-.724.058-1.469.252-2.171.155-3.933-.545-7.875-1.059-11.778-1.783-3.068-.57-6.083-1.424-9.119-2.169-.377-.092-.727-.305-1.09-.461.032-.102.064-.203.099-.305z"/><path d="m102.636 46.0019c-1.27 1.4257-15.168 6.0741-17.0286 5.6312.6325-.4429 1.2075-1.0312 1.9066-1.3034 2.5552-.992 5.1288-1.9448 7.7369-2.7845 1.9113-.6159 3.8823-1.0519 5.8351-1.5295.395-.0969.837-.0138 1.55-.0138z"/><path d="m281.398 117.918c-.844-.644-1.789-1.191-2.511-1.952-2.682-2.821-4.892-5.998-6.827-9.38-.77-1.347-1.704-2.602-2.507-3.933-.259-.434-.333-.978-.255-1.583 4.4 5.334 7.703 11.422 12.353 16.502-.085.115-.168.23-.253.344z"/><path d="m14.9105 93.8208c.3841-2.1616 11.7755-10.2359 14.6251-10.1044-.6371.5629-1.2281 1.195-1.9227 1.6749-2.9301 2.0231-5.8832 4.0117-8.8455 5.991-1.2235.8167-2.4862 1.5757-3.8592 2.4408z"/><path d="m24.9258 91.1647c3.7856-3.4973 8.1279-6.1456 12.6495-8.5241.115.1108.23.2192.345.3299-.3519.4568-.6118 1.0497-1.0672 1.3473-3.5097 2.3046-7.0492 4.5584-10.5957 6.8031-.3427.2168-.7911.263-1.189.3876-.046-.1154-.0943-.2284-.1403-.3438z"/><path d="m278.519 136.407c2.757-5.472 5.515-10.942 8.339-16.546.041.459.253 1.008.101 1.421-.791 2.137-1.504 4.33-2.569 6.331-1.653 3.1-3.572 6.058-5.377 9.077-.163-.094-.329-.189-.492-.281z"/><path d="m64.124 66.7948c4.0939-2.5653 8.0865-5.299 12.799-7.2068-.1978 1.9793-10.7981 7.7766-12.799 7.2068z"/><path d="m71.1321 59.2983c-.1679-.1245-.4163-.3091-.6624-.4936.1932-.2584.3289-.6229.5865-.7567 1.8583-.9712 3.7282-1.9194 5.6164-2.8283 1.6697-.8051 3.367-1.5549 5.0552-2.3231.207-.0946.4393-.2491.6394-.2215.3748.0508.7359.2169 1.1016.3322-.2346.2653-.4163.6344-.7084.7798-3.5878 1.8017-7.1895 3.5711-10.7934 5.3405-.1978.0969-.4462.0946-.8349.1684z"/><path d="m92.3142 53.1335c.1978.1315.4553.3045.7129.4776-.2139.2699-.3749.6782-.6531.7912-3.4407 1.4096-6.8975 2.7753-10.3473 4.1594-.4876.1961-.943.4776-1.4421.6298-.1955.06-.4669-.1269-.7037-.2007.1035-.2168.1495-.5352.3219-.6367.9154-.5375 1.8331-1.0866 2.8013-1.5133 2.6725-1.1789 5.3657-2.3093 8.0612-3.4374.345-.1453.7406-.1661 1.2466-.2745z"/><path d="m24.0869 97.3739c2.9968-3.6773 6.8514-5.6774 10.8993-7.5829-.6394 2.1408-8.0911 7.3891-10.8993 7.5829z"/><path d="m93.975 44.9946c-.1357-.0946-.4761-.2746-.4577-.3253.0897-.2515.2277-.6044.4347-.6759 1.357-.4799 2.73-.9113 4.1076-1.3265 1.38-.4176 2.7804-.7682 4.1564-1.1996 1.449-.4545 2.87-.992 4.321-1.4419.262-.0807.598.0877.902.1408-.108.3691-.106.8766-.352 1.0773-.361.2976-.89.4129-1.366.5444-3.742 1.022-7.4866 2.0278-11.2308 3.0406-.1472.0392-.2898.0946-.5129.1684z"/><path d="m57.0352 66.1659c.3725-.459.6554-1.0957 1.1361-1.3495 2.3436-1.2296 4.7424-2.3485 7.1136-3.5227.713-.3529 1.3777-.8166 2.109-1.1188.3404-.1408.7889-.0116 1.1891-.007-.1863.3576-.2783.8905-.5704 1.0497-2.9968 1.6333-6.0234 3.2181-9.0547 4.7845-.5037.2607-1.081.3738-1.6238.556l-.2989-.3945z"/><path d="m54.9819 67.6804c-.7636.6183-1.4352 1.4488-2.3045 1.8133-2.5 1.0519-4.7723 2.4661-7.0331 3.931-.4899.3183-1.1615.3552-1.8377.5467.1357-1.4764 9.5493-6.9923 11.1753-6.2933z"/><path d="m4.98902 124.76c-.39099-.602-.95906-1.153-1.14306-1.813-.62097-2.221-.58877-4.533.0621-6.704.66008-2.212 1.71343-4.307 2.615-6.445.09199-.22.30818-.386.53588-.54-1.48344 5.027-3.13478 10.005-1.74333 15.352l-.32199.15z"/><path d="m40.3841 80.5121c.2921-.406.5014-.9366.8878-1.1996 2.3229-1.5802 4.6734-3.1167 7.0423-4.6254.6854-.4383 1.7204-1.1119 2.2171-.2676.5221.8813-.6646 1.2296-1.3201 1.6287-2.362 1.4418-4.7125 2.8998-7.0952 4.307-.4462.263-1.0097.3207-1.5203.473l-.2139-.3161z"/><path d="m106.38 48.4062c.476.8444.25 1.2412-.575 1.5111-2.751.8951-5.474 1.8732-8.2271 2.7522-.4071.1291-.9269-.1016-1.3938-.1661-.0322-.1408-.0621-.2838-.0943-.4245.4646-.3391.8832-.8236 1.403-.9943 2.7832-.9159 5.5912-1.7533 8.3922-2.6138.143-.0438.299-.0392.495-.0646z"/><path d="m201.547 57.3995c-.742-.0992-1.531-.0692-2.221-.316-2.997-1.0751-5.973-2.2101-8.935-3.3728-.663-.2607-1.247-.7174-1.762-1.3103 4.62.7198 8.811 2.5953 13.05 4.3347-.044.2215-.086.4429-.129.6667z"/><path d="m140.954 48.6944c.573-.2653.837-.473 1.122-.5053 3.982-.4521 7.931-.1338 11.85.6114.225.0438.397.3622.595.5536-.301.1708-.609.4937-.906.4822-1.375-.0462-2.748-.1776-4.119-.2907-2.516-.2076-5.03-.4222-7.544-.639-.214-.0185-.423-.0877-.998-.2145z"/><path d="m12.9004 107.212c.184-.501.2737-1.066.5704-1.488 1.8698-2.658 4.4641-4.517 7.1021-6.3096.2553-.173.6969-.0715 1.051-.0969-.0736.3783-.0184.8815-.2437 1.1075-.5175.521-1.2006.872-1.7595 1.359-1.8284 1.584-3.6315 3.202-5.4439 4.805-.3035.268-.6048.537-.9061.805-.1219-.06-.2461-.12-.368-.182z"/><path d="m48.5411 80.4043c.0322 1.2919-.5267 1.8617-1.2006 2.2654-2.408 1.4441-4.839 2.8491-7.2792 4.2378-.5037.2861-1.081.443-1.626.6598-.0828-.1292-.1679-.2607-.2507-.3899 1.5938-1.2618 3.1117-2.6414 4.8068-3.7533 1.6904-1.1097 3.5556-1.9494 5.552-3.0198z"/><path d="m2.00958 113.876c-.85096-3.952 1.68584-10.01 5.89697-12.372-2.523 3.852-5.18169 7.64-5.89697 12.372z"/><path d="m133.463 165.524c1.426-.434 13.473 1.338 16.428 2.415-1.697.722-14.65-1.183-16.428-2.415z"/><path d="m175.78 48.9371c2.917-.2907 8.88 1.4072 10.233 2.9505-.665.0462-1.169.1938-1.62.0946-2.493-.556-4.983-1.135-7.449-1.804-.4-.1084-.674-.6967-1.164-1.2411z"/><path d="m173.277 48.5363c-4.048-1.2089-8.385-1.0889-12.635-2.7845 2.3-.9182 11.649 1.1465 12.635 2.7845z"/><path d="m174.066 34.4878c-.936-.0854-1.883-.1084-2.805-.2676-2.254-.3899-4.501-.8351-6.746-1.2827-.26-.0507-.49-.2445-.734-.3714.189-.2099.341-.4914.575-.6136.249-.1292.587-.1869.867-.1431 2.565.4037 5.129.8052 7.68 1.285.487.0923.913.5191 1.368.7913-.067.2007-.136.4014-.202.5998z"/><path d="m62.4816 73.0853c-3.5119 2.2262-6.8537 4.344-10.1955 6.4617.5244-2.443 7.4793-6.667 10.1955-6.4617z"/><path d="m114.369 41.9668c.264.8859-.014 1.1904-.711 1.3795-2.272.6183-4.517 1.3358-6.796 1.9332-.563.1477-1.467.8098-1.755-.1591-.267-.9043.695-.9574 1.35-1.1327.658-.1777 1.281-.4868 1.941-.6483 1.951-.4729 3.912-.902 5.969-1.3703z"/><path d="m90.9593 59.1557c.0575-1.0404.6877-1.511 1.5042-1.8202 1.741-.6574 3.4751-1.3311 5.2323-1.9447.5565-.1961 1.1729-.2261 1.7594-.3322l.2392.3253c-.3933.4314-.7061 1.0681-1.1937 1.2619-2.2884.9204-4.6251 1.7232-6.9503 2.5514-.1564.0554-.3611-.023-.5934-.0415z"/><path d="m158.502 45.5703c-1.504-.0992-3.01-.173-4.512-.3091-1.401-.1292-2.799-.2999-4.191-.5121-.301-.0462-.565-.3415-.846-.5214.288-.1984.575-.5721.86-.5675 1.369.0185 2.739.1084 4.103.2284 1.061.0946 2.128.2168 3.167.4383.548.1153 1.047.4683 1.569.7128-.051.1777-.099.3553-.15.5329z"/><path d="m191.274 57.961c-3.063-.9827-6.497-.902-9.3-3.3104 1.932-.4845 8.675 1.8663 9.3 3.3104z"/><path d="m168.836 51.1105c1.796-.4683 9.052 1.7648 9.712 2.9344-.991.5421-8.836-1.774-9.712-2.9344z"/><path d="m33.0882 80.8875c.2875-.3738.506-.8375.8694-1.1074 2.0078-1.481 4.0386-2.9251 6.0925-4.3416.2001-.1384.6002.0138.9061.03-.0506.3114.0115.7913-.1679.9112-2.3183 1.5664-4.6688 3.0844-7.0193 4.6046-.1426.0923-.3404.1016-.5129.15l-.1702-.2468z"/><path d="m196.163 59.3864c.488-.0415 1.044-.2561 1.451-.0946 2.71 1.0889 5.387 2.2562 8.071 3.4073.08.0346.119.1708.379.556-.699.0277-1.267.2099-1.695.0392-2.767-1.1027-5.503-2.2815-8.252-3.435l.046-.4752z"/><path d="m53.0352 73.1827c.4438-1.6563 6.5018-5.0844 8.6269-4.8768-.3772.4591-.5727.8859-.9016 1.0727-2.0745 1.1742-4.1743 2.3069-6.2833 3.4189-.3749.1984-.8349.2307-1.442.3875z"/><path d="m128.693 165.049c-1.412.598-11.966-1.952-12.785-3.006 1.242-.38 10.308 1.728 12.785 3.006z"/><path d="m219.777 128.202c3.804-.74 7.611-1.478 11.573-2.249-1.511 1.746-9.326 3.364-11.573 2.249z"/><path d="m139.701 30.8697c2.875-.9066 5.725-.8097 8.574-.4613.345.0415.644.4798.964.7336-.345.1591-.697.4683-1.035.4567-2.443-.0899-4.885-.2307-7.325-.3898-.398-.0254-.785-.2215-1.176-.3392z"/><path d="m112.385 34.375c-1.067 1.5272-5.727 2.18-9.271 2.4384 2.714-2.2192 6.005-2.2908 9.271-2.4384z"/><path d="m64.2598 71.5682c2.8542-2.2861 5.66-4.0186 9.0938-4.6092-.3473 1.1742-7.27 4.7892-9.0938 4.6092z"/><path d="m152.38 31.2127c2.293-.9666 8.261-.3484 8.993.8858-.306.1615-.663.5168-.902.4499-2.544-.7059-5.352.083-8.091-1.3357z"/><path d="m103.85 53.7011c.457-.3022.717-.5814 1.032-.6667 2.277-.6137 4.563-1.2019 6.856-1.7556.285-.0692.633.1176.952.1869-.216.2629-.381.6667-.657.7682-1.709.6298-3.448 1.1765-5.166 1.7809-.941.3299-1.844.406-3.015-.3137z"/><path d="m84.1152 38.4802c2.9577-2.2123 6.6284-2.5514 9.9241-3.8825.0989.1245.1955.2491.2944.3737-.3036.3114-.5543.7866-.9222.9089-3.0451 1.0197-6.1109 1.9747-9.1721 2.9506l-.1219-.353z"/><path d="m156.52 35.3075c1.102-.0184 2.206-.1038 3.301-.0346.984.0623 1.982.2192 2.93.4914.446.1269 1.11.609 1.117.9435.019.8305-.669.6713-1.265.5583-1.61-.3091-3.229-.5583-4.836-.872-.453-.0877-.877-.3207-1.316-.4868.023-.2007.046-.4014.069-.5998z"/><path d="m77.2793 64.9265c1.3178-1.8502 7.3896-4.6277 9.287-3.8964-3.0474 1.4026-6.097 2.8052-9.1444 4.2078z"/><path d="m14.4658 99.2142c1.0028-2.6229 3.3648-3.7833 5.5382-5.1306.1702-.1061.6348 0 .759.1638.1334.1754.1426.6898.0092.7913-2.0125 1.5064-4.0594 2.969-6.0971 4.4408-.069-.0876-.138-.1776-.207-.2653z"/><path d="m119.501 50.7406c-.166-.6828-.101-1.0611.74-1.2964 2.27-.6344 4.554-.7014 6.992-.6068-.508 1.1051-1.419 1.2365-2.293 1.3427-1.771.2145-3.546.3691-5.439.5605z"/><path d="m151.463 35.7155c-2.848.5583-5.513.1915-8.275-.5075 1.407-1.255 7.178-.9251 8.275.5075z"/><path d="m157.446 49.9769c.72-1.0427 1.392-1.1373 2.275-.9366 1.996.4521 4.02.7751 6.023 1.1904.297.0622.548.3345.821.5098-.048.1522-.098.3045-.147.4545-2.939-.3991-5.878-.7982-8.972-1.2204z"/><path d="m16.3311 127.102c2.6678 1.739 5.4369 3.543 8.2037 5.347-1.4926.994-7.3919-2.706-8.2037-5.347z"/><path d="m23.7715 128.088c3.0704 1.633 6.0464 3.218 9.2548 4.925-2.4448.482-8.505-2.86-9.2548-4.925z"/><path d="m11.0787 125.921c-3.12094-.736-5.11726-6.558-2.74836-8.731-.069 3.213.38639 6.152 2.74836 8.731z"/><path d="m214.722 131.427c3.105-.219 6.212-.438 9.317-.657.009.113.018.226.028.336-2.96 1.837-6.141 1.165-9.294.833l-.053-.514z"/><path d="m153.162 39.9114c1.339-.9505 7.746.0115 8.374 1.1857-1.557.3207-7.539-.4936-8.374-1.1857z"/><path d="m164.822 41.0312c.803.0808 1.622.0923 2.406.2584 1.929.413 3.85.8767 5.759 1.3773.228.0599.361.4752.54.7266-.241.1315-.501.3945-.722.3645-.559-.0761-1.095-.3022-1.647-.4383-1.837-.4591-3.682-.8951-5.517-1.3726-.338-.0877-.633-.3322-.948-.5052l.129-.4083z"/><path d="m120.281 45.7662c-.481.2746-.929.6644-1.445.8005-1.646.4383-3.316.8028-4.986 1.1466-.23.0484-.515-.1754-.775-.2745.131-.2746.198-.7083.407-.7936.759-.3138 1.55-.5883 2.355-.7382 1.426-.2677 2.871-.4314 4.308-.6414z"/><path d="m138.776 43.7445c2.703-.4867 5.076-.8605 7.592.2215-1.239.962-5.975.8512-7.592-.2215z"/><path d="m119.062 37.8798c-.78 1.1165-1.875 1.0704-2.829 1.2619-1.226.2468-2.473.3852-3.717.5213-.271.03-.568-.1499-.851-.2353.161-.2699.278-.7313.488-.7774 1.92-.4222 3.854-.7959 5.795-1.1258.295-.0507.637.1938 1.116.353z"/><path d="m70.4993 141.389c-3.1693-1.024-6.3385-2.048-9.7493-3.149 2.1113-.383 9.1904 1.671 9.8873 2.734-.046.138-.092.277-.1403.415z"/><path d="m73.4023 147.193c1.9205-.962 7.4103.385 8.4085 2.053-2.983-.729-5.6969-1.391-8.4085-2.053z"/><path d="m141.978 39.2844c1.563-.729 6.952-.383 7.755.4498-.906.8374-6.083.5675-7.755-.4498z"/><path d="m128.264 39.7691c2.109-.2007 4.216-.4198 6.327-.579.242-.0185.506.2976.761.4591-.239.2376-.46.6528-.72.6805-1.821.1869-3.647.323-5.476.3922-.315.0115-.644-.376-.966-.579.026-.1246.049-.2492.074-.3738z"/><path d="m96.2744 34.6108c2.1573-1.7648 4.6736-2.4407 7.4146-2.4107-2.258 1.4349-4.7789 2.0855-7.4146 2.4107z"/><path d="m40.6396 128.162c2.5759 1.25 5.0001 2.427 7.6886 3.733-1.8146.609-7.4448-2.164-7.6886-3.733z"/><path d="m34.1191 130.149c1.7894-.044 6.8055 2.602 7.3183 3.894-2.7621-.754-5.046-2.035-7.3183-3.894z"/><path d="m20.35 84.3852c-.1679.376-.2323.8927-.5198 1.1027-1.3708 1.0012-2.7944 1.9309-4.2203 2.8536-.2714.1754-.6417.1938-.9683.2861.1357-.3437.1702-.8213.4209-1.0104 1.5915-1.195 3.2314-2.3254 4.8528-3.4766.1449.0808.2898.1638.4347.2446z"/><path d="m55.2044 130.923c-1.5064.459-6.4903-1.491-7.3597-2.847 2.7714.404 5.0851 1.557 7.3597 2.847z"/><path d="m136.81 31.2032c-2.426.669-4.593.2191-6.874.4475 1.002-1.4856 5.059-1.7809 6.874-.4475z"/><path d="m116.176 33.7026c.625-1.7902 4.305-2.563 6.791-1.4395-2.41.5121-4.512.9573-6.791 1.4395z"/><path d="m13.7977 124.781c-2.4126-.602-3.7052-4.388-2.3735-7.193.414 2.694.7175 5.177 2.3735 7.193z"/><path d="m216.329 135.344c-.607.187-1.226.567-1.817.528-1.824-.125-3.638-.392-5.448-.655-.189-.028-.327-.404-.488-.621.191-.078.407-.26.568-.219 2.204.558 4.432.759 6.698.552.133-.012.278.076.416.115.023.099.048.201.071.3z"/><path d="m58.5466 141.109c3.0497 1.223 6.0993 2.443 9.1513 3.666-.0368.097-.0736.196-.1127.293-3.3211-.517-6.1982-2.189-9.218-3.495.0598-.154.1196-.309.1794-.464z"/><path d="m85.835 140.135c2.1527.198 4.1674.604 6.3661 1.449-1.8859.701-5.9292-.257-6.3661-1.449z"/><path d="m93.8174 142.895c1.4006-.897 5.3588.386 5.8509 1.83-1.9756-.618-3.7856-1.184-5.8509-1.83z"/><path d="m161.313 153.137c-1.334.461-3.33.185-3.76-.521.963-.462 3.27-.141 3.76.521z"/><path d="m211.527 106.795c.582 1.252-1.097 10.212-2.017 11.008.538-3.656 1.081-7.363 1.626-11.068.131.02.26.041.391.062z"/><path d="m188.007 97.9374c-.081-1.8802-1.117-3.7742.007-5.8319.789 2.0762.587 3.9563-.007 5.8319z"/><path d="m191.683 93.3373c-.292-1.4949-.6-2.9898-.853-4.4916-.028-.1661.269-.3898.416-.5859.157.1799.428.3414.453.5398.196 1.4718.343 2.9482.506 4.4247-.175.0369-.347.0761-.522.113z"/><path d="m203.802 100.777c.868 1.205.822 3.209 0 4.054z"/><path d="m205.515 120.121c.248 1.433-.375 3.221-1.077 3.368.371-1.16.723-2.263 1.077-3.368z"/><path d="m202.35 116.084c-.216.98-.434 1.958-.651 2.939-.145-.033-.289-.063-.434-.095.209-.98.421-1.961.63-2.944z"/><path d="m201.001 122.563c-.341.828-.681 1.659-1.021 2.487-.143-.062-.286-.125-.428-.187.342-.835.685-1.672 1.028-2.508.14.07.28.139.421.208z"/><path d="m196.623 124.678c-.296.865-.593 1.728-.887 2.593-.166-.06-.329-.12-.495-.18.313-.856.626-1.712.939-2.568.147.051.296.104.443.155z"/></g><g clip-path="url(#c)"><path d="m234.569 139.306c0 9.006-7.653 16.252-16.903 15.797-9.3-.464-15.989-8.867-15.136-18.001 1.135-12.031 11.41-17.507 14.985-34.491.221-1.067 1.748-1.067 1.969 0 3.786 17.992 15.085 23.073 15.085 36.695z" fill="#e8cdd1" stroke="#9541ba" stroke-miterlimit="10" stroke-width="2"/><g fill="#9541ba"><path d="m234.569 140.641c-.261 0-.512-.099-.713-.286l-4.55-4.479c-.391-.385-.391-1.008 0-1.393.392-.386 1.025-.386 1.417 0l4.549 4.478c.392.385.392 1.008 0 1.394-.201.197-.452.286-.713.286z"/><path d="m233.716 145.386c-.262 0-.513-.099-.714-.287l-6.237-6.139c-.391-.385-.391-1.008 0-1.394.392-.385 1.025-.385 1.417 0l6.237 6.139c.391.386.391 1.009 0 1.394-.201.198-.452.287-.714.287z"/><path d="m231.838 149.112c-.261 0-.512-.099-.713-.287l-5.856-5.763c-.391-.386-.391-1.008 0-1.394.392-.385 1.025-.385 1.416 0l5.856 5.763c.392.386.392 1.009 0 1.394-.201.198-.452.287-.713.287z"/><path d="m229.196 152.098c-.261 0-.512-.098-.713-.286l-8.155-8.027c-.392-.386-.392-1.009 0-1.394.392-.386 1.024-.386 1.416 0l8.155 8.027c.392.385.392 1.008 0 1.394-.2.198-.452.286-.713.286z"/><path d="m225.841 154.362c-.261 0-.512-.099-.713-.286l-7.362-7.246c-.391-.386-.391-1.009 0-1.394.392-.386 1.025-.386 1.417 0l7.361 7.246c.392.385.392 1.008 0 1.394-.2.197-.452.286-.713.286z"/><path d="m214.894 149.173c-.261 0-.512-.099-.713-.287l-2.46-2.422c-.392-.385-.392-1.008 0-1.394.391-.385 1.024-.385 1.416 0l2.46 2.422c.392.386.392 1.009 0 1.394-.201.198-.452.287-.713.287z"/><path d="m221.633 155.806c-.261 0-.512-.099-.713-.287l-3.907-3.846c-.391-.385-.391-1.008 0-1.393.392-.386 1.025-.386 1.417 0l3.907 3.845c.391.386.391 1.008 0 1.394-.201.198-.452.287-.714.287z"/><path d="m209.31 149.252c-.261 0-.512-.099-.713-.287l-2.481-2.442c-.392-.385-.392-1.008 0-1.394.392-.385 1.024-.385 1.416 0l2.481 2.442c.392.385.392 1.008 0 1.394-.201.198-.452.287-.713.287z"/><path d="m216.099 155.934c-.261 0-.512-.099-.713-.287l-4.359-4.29c-.392-.386-.392-1.008 0-1.394s1.025-.386 1.416 0l4.359 4.29c.392.386.392 1.009 0 1.394-.201.198-.452.287-.713.287z"/></g></g></g></svg>